<?xml version="1.0" encoding="utf-8"?>
<!-- Generator: Adobe Illustrator 16.0.3, SVG Export Plug-In . SVG Version: 6.00 Build 0)  -->
<!DOCTYPE svg PUBLIC "-//W3C//DTD SVG 1.1//EN" "http://www.w3.org/Graphics/SVG/1.1/DTD/svg11.dtd">
<svg version="1.1" id="Ebene_1" xmlns="http://www.w3.org/2000/svg" xmlns:xlink="http://www.w3.org/1999/xlink" x="0px" y="0px"
	 width="45px" height="44.982px" viewBox="0 0 45 44.982" enable-background="new 0 0 45 44.982" xml:space="preserve">
<g>
	<circle id="path-1_2_" fill="none" stroke="#FFFFFF" stroke-width="8" stroke-opacity="0.5" cx="22.507" cy="22.491" r="15"/>
</g>
<g>
	<circle id="path-3_2_" fill="none" stroke="#638B54" stroke-width="4" cx="22.508" cy="22.491" r="15"/>
</g>
<g>
	<circle id="path-3_1_" fill="#729F62" cx="22.508" cy="22.491" r="15"/>
</g>
<g>
	<circle id="path-3_3_" fill="none" cx="22.5" cy="22.491" r="22.5"/>
</g>
<path fill="#FFFFFF" d="M19.011,16.385c-1.737,2.251-1.949,5.669,0.446,7.514c2.616-6.922,9.151-8.793,9.151-8.793
	c-3.25,1.917-5.249,4.442-6.457,6.561c-1.07,1.815-1.813,3.91-2.212,6.04c-0.36-0.395-0.758-0.765-1.17-1.117
	c-0.202-0.612-0.594-1.178-1.121-1.587c-2.118-1.652-6.35-1.66-8.471,0.378c2.396,0.609,3.489,3.348,5.548,4.416
	c0.888,0.461,2.326,0.302,3.185-0.325c-0.893-1.591-2.642-3.545-6.023-4.397c0,0,3.544,0.38,5.307,1.653
	c1.763,1.274,2.27,1.903,2.547,2.254c-0.159,1.295-0.195,2.579-0.097,3.797c-2.367,0.454-3.106,2.301-3.106,2.301h8.751
	c0,0-1.141-2.098-3.938-2.372c0.229-2.641,0.372-5.308,1.002-7.793c1.521,0.078,3.15-0.365,4.136-1.247
	c3.211-2.877,3.002-7.327,7.688-9.849C29.419,11.128,22.06,12.433,19.011,16.385z"/>
</svg>
