<svg width="74" height="74" viewBox="0 0 74 74" fill="none" xmlns="http://www.w3.org/2000/svg">
<rect width="74" height="74" fill="white"/>
<g filter="url(#filter0_i_1228_7593)">
<path d="M37 40.642C37.4518 46.2463 40.3123 50.2526 42.2596 51.3565C44.2074 52.4604 49.1596 53.9353 53.3448 50.5914C57.5306 47.247 57.219 42.8846 56.0034 39.3388C57.267 39.7216 58.6733 39.8432 60.9801 37.9783C63.2874 36.114 68.0136 30.387 66.8057 26.7543C65.5977 23.1217 57.5153 23.8566 53.124 24.4412C48.7323 25.0259 38.3288 29.2488 38.3288 29.2488C38.3288 29.2488 38.6888 31.3682 38.5271 32.5365C38.3655 33.7048 37.283 36.1078 37.283 36.1078L37 40.642Z" fill="#2F99C6"/>
<path d="M37 40.642C36.5482 46.2463 33.6877 50.2526 31.7404 51.3565C29.7926 52.4604 24.8404 53.9353 20.6552 50.5914C16.4694 47.247 16.781 42.8846 17.9966 39.3388C16.733 39.7216 15.3267 39.8432 13.0199 37.9783C10.7126 36.114 5.98638 30.387 7.19433 26.7543C8.40229 23.1217 16.4847 23.8566 20.876 24.4412C25.2677 25.0259 35.6712 29.2488 35.6712 29.2488C35.6712 29.2488 35.3112 31.3682 35.4729 32.5365C35.6345 33.7048 36.717 36.1078 36.717 36.1078L37 40.642Z" fill="#2F99C6"/>
<path d="M31.8726 22.108C31.7044 22.2319 31.8081 22.5371 31.8928 22.6786C31.9776 22.8202 32.0611 22.8502 32.1576 22.9232C32.352 23.068 32.5398 23.1971 32.6063 23.351C32.8281 23.8434 33.1033 24.326 33.34 24.7369C33.6524 25.2586 33.9785 25.7536 34.3385 26.1632C34.705 26.5506 35.0735 26.9002 35.4602 27.1826C35.7315 27.3652 36.0107 27.4199 36.295 27.4676C36.267 27.5771 36.2396 27.6893 36.2337 27.8145C36.175 27.7271 36.1287 27.671 36.0511 27.671C35.8528 27.671 35.6839 27.9991 35.6839 28.4054C35.6839 28.5071 35.6839 28.6023 35.7035 28.6904C35.0604 29.3132 34.6235 30.4147 34.6235 31.6865C34.6235 33.0997 35.1472 34.303 35.9076 34.8658C35.3604 35.9732 34.9907 37.9734 34.9907 40.2665C34.9907 43.7569 36.3857 46.5899 36.8657 46.5847C37.3457 46.5769 38.7609 43.7569 38.7609 40.2665C38.7609 37.9623 38.3957 35.9491 37.8439 34.8456C38.592 34.2756 39.1072 33.0854 39.1072 31.6865C39.1072 30.4284 38.6944 29.3373 38.0683 28.7113C38.0891 28.6173 38.1087 28.5156 38.1087 28.4047C38.1087 27.9991 37.9391 27.6717 37.7422 27.6717C37.6509 27.6717 37.5811 27.7389 37.5178 27.8549C37.5126 27.7239 37.492 27.5939 37.4565 27.4676C37.7572 27.4102 38.0304 27.3097 38.292 27.1826C38.6754 26.8499 39.1013 26.5128 39.4137 26.1632C39.7731 25.7536 40.12 25.258 40.4324 24.7369C40.7004 24.2699 40.9215 23.8036 41.1452 23.351C41.2118 23.1971 41.3996 23.068 41.5939 22.9232C41.6911 22.8502 41.7439 22.8293 41.8789 22.6786C42.0139 22.5273 42.0544 22.2345 41.8998 22.108C41.7446 21.9815 41.5281 21.9984 41.3291 22.1895C41.1296 22.3799 41.0167 22.9408 40.9215 23.2897C40.7024 23.7358 40.4598 24.1858 40.2485 24.5941C39.9687 25.046 39.642 25.5423 39.2911 25.9597C38.9598 26.3341 38.6194 26.6086 38.2717 26.8969C37.9678 27.1408 37.5935 27.2302 37.3346 27.1826C37.2146 26.9641 37.0554 26.8154 36.865 26.8154C36.6733 26.8154 36.5115 26.9602 36.3967 27.1826C35.7367 27.2367 34.9535 26.4221 34.4604 25.9597C34.1089 25.5423 33.7822 25.0467 33.5024 24.5941C33.2591 24.1441 33.0615 23.7352 32.8307 23.2897C32.7459 23.0386 32.6931 22.7536 32.6057 22.5156C32.5657 22.3964 32.5038 22.2858 32.4231 22.1895C32.1583 21.9176 32.0409 21.9834 31.8726 22.108Z" fill="#0E3855"/>
</g>
<defs>
<filter id="filter0_i_1228_7593" x="7" y="22" width="60" height="34.6522" filterUnits="userSpaceOnUse" color-interpolation-filters="sRGB">
<feFlood flood-opacity="0" result="BackgroundImageFix"/>
<feBlend mode="normal" in="SourceGraphic" in2="BackgroundImageFix" result="shape"/>
<feColorMatrix in="SourceAlpha" type="matrix" values="0 0 0 0 0 0 0 0 0 0 0 0 0 0 0 0 0 0 127 0" result="hardAlpha"/>
<feOffset dy="4"/>
<feGaussianBlur stdDeviation="7"/>
<feComposite in2="hardAlpha" operator="arithmetic" k2="-1" k3="1"/>
<feColorMatrix type="matrix" values="0 0 0 0 0 0 0 0 0 0 0 0 0 0 0 0 0 0 0.15 0"/>
<feBlend mode="normal" in2="shape" result="effect1_innerShadow_1228_7593"/>
</filter>
</defs>
</svg>
