<svg width="24" height="24" viewBox="0 0 24 24" fill="none" xmlns="http://www.w3.org/2000/svg">
<path fill-rule="evenodd" clip-rule="evenodd" d="M19.1231 12.936C19.1591 12.636 19.1831 12.324 19.1831 12C19.1831 11.676 19.1591 11.364 19.1111 11.064L21.1391 9.47999C21.3191 9.33599 21.3671 9.07199 21.2591 8.86799L19.3391 5.54399C19.2191 5.32799 18.9671 5.25599 18.7511 5.32799L16.3631 6.28799C15.8591 5.90399 15.3311 5.59199 14.7431 5.35199L14.3831 2.80799C14.3471 2.56799 14.1431 2.39999 13.9031 2.39999H10.0631C9.82311 2.39999 9.63111 2.56799 9.59511 2.80799L9.23511 5.35199C8.64711 5.59199 8.10711 5.91599 7.61511 6.28799L5.22711 5.32799C5.01111 5.24399 4.75911 5.32799 4.63911 5.54399L2.71911 8.86799C2.59911 9.08399 2.64711 9.33599 2.83911 9.47999L4.86711 11.064C4.81911 11.364 4.78311 11.688 4.78311 12C4.78311 12.312 4.80711 12.636 4.85511 12.936L2.82711 14.52C2.64711 14.664 2.59911 14.928 2.70711 15.132L4.62711 18.456C4.74711 18.672 4.99911 18.744 5.21511 18.672L7.60311 17.712C8.10711 18.096 8.63511 18.408 9.22311 18.648L9.58311 21.192C9.63111 21.432 9.82311 21.6 10.0631 21.6H13.9031C14.1431 21.6 14.3471 21.432 14.3711 21.192L14.7311 18.648C15.3191 18.408 15.8591 18.084 16.3511 17.712L18.7391 18.672C18.9551 18.756 19.2071 18.672 19.3271 18.456L21.2471 15.132C21.3671 14.916 21.3191 14.664 21.1271 14.52L19.1231 12.936ZM11.9831 15.6C10.0031 15.6 8.38311 13.98 8.38311 12C8.38311 10.02 10.0031 8.39999 11.9831 8.39999C13.9631 8.39999 15.5831 10.02 15.5831 12C15.5831 13.98 13.9631 15.6 11.9831 15.6Z" fill="black" fill-opacity="0.87"/>
</svg>
