<svg width="28" height="28" viewBox="0 0 28 28" fill="none" xmlns="http://www.w3.org/2000/svg">
<path fill-rule="evenodd" clip-rule="evenodd" d="M27.9985 13.7613C28 13.7438 28 13.7264 28 13.7089C28 13.6915 28 13.674 27.9985 13.6565C27.9985 13.645 27.997 13.6335 27.9955 13.622C27.9955 13.6161 27.994 13.6101 27.994 13.6045C27.9925 13.5956 27.9914 13.5871 27.9914 13.5797C27.9899 13.5696 27.9884 13.5611 27.9869 13.5506V13.5477C27.9518 13.3329 27.8499 13.1298 27.6938 12.9745C26.8012 11.9213 25.7379 10.9836 24.6575 10.1274C22.3313 8.28324 19.6702 6.73894 16.7313 6.11781C15.0341 5.75969 13.3246 5.74376 11.6185 6.0469C10.0655 6.32249 8.56916 6.89723 7.16916 7.60971C4.97737 8.72423 2.97519 10.2611 1.23095 11.9833C0.908762 12.3028 0.586257 12.6279 0.293128 12.9745C-0.0977095 13.4362 -0.0977095 13.9816 0.293128 14.4419C1.18575 15.4955 2.24861 16.4327 3.32944 17.289C5.65682 19.1334 8.31832 20.6774 11.2553 21.2985C12.9529 21.657 14.6619 21.673 16.3684 21.3694C17.92 21.0939 19.4163 20.5191 20.8178 19.8066C23.0096 18.6921 25.0118 17.1552 26.756 15.433C27.0782 15.1136 27.4008 14.7885 27.6938 14.4419C27.8499 14.2866 27.9518 14.0849 27.9869 13.8686V13.8657C27.9884 13.8556 27.9899 13.8468 27.9914 13.8367C27.9925 13.8278 27.994 13.8207 27.994 13.8118C27.994 13.8062 27.9955 13.8003 27.9955 13.7944C27.997 13.7829 27.997 13.7728 27.9985 13.7613ZM20.5426 13.7786C20.5426 17.39 17.6134 20.3176 14 20.3176C10.3865 20.3176 7.45719 17.39 7.45719 13.7786C7.45719 10.1671 10.3865 7.23952 14 7.23952C17.6134 7.23952 20.5426 10.1671 20.5426 13.7786ZM14.3839 17.1815C15.8667 15.0865 15.794 12.2291 14.1808 9.13252C14.1087 8.99445 13.8901 8.99445 13.8181 9.13252C13.3326 10.065 12.9893 10.9745 12.7832 11.8491L14.0964 13.0818C14.1808 13.1622 14.1876 13.297 14.1113 13.3848C14.0705 13.4309 14.0143 13.455 13.9583 13.455C13.9088 13.455 13.8593 13.4368 13.8196 13.3998L12.6842 12.3335C12.6414 12.5744 12.6065 12.8115 12.5853 13.0454L13.9159 14.268C14.0015 14.3461 14.0097 14.481 13.9335 14.5698C13.8928 14.6176 13.8356 14.6428 13.7789 14.6428C13.7305 14.6428 13.6815 14.6246 13.6423 14.5881L12.5555 13.5904C12.5503 13.8805 12.5636 14.1647 12.5936 14.4435L13.9139 15.6395C13.9995 15.7175 14.0083 15.8519 13.9335 15.9413C13.8928 15.9895 13.8356 16.0151 13.7778 16.0151C13.7294 16.0151 13.6815 15.9975 13.6423 15.9626L12.7028 15.1115C12.8683 15.8598 13.1692 16.5558 13.612 17.1815C13.6511 17.2366 13.7124 17.2693 13.7778 17.2693H13.7918V18.554C13.7918 18.6718 13.884 18.7681 13.9979 18.7681C14.1118 18.7681 14.204 18.6718 14.204 18.554V17.2693H14.2179C14.2835 17.2693 14.3452 17.2366 14.3839 17.1815Z" fill="black"/>
</svg>
