<svg width="74" height="74" viewBox="0 0 74 74" fill="none" xmlns="http://www.w3.org/2000/svg">
<rect width="74" height="74" fill="white"/>
<g filter="url(#filter0_i_1228_7643)">
<path d="M32.8056 50.3205L32.7647 49.4986C32.7647 49.4986 34.1288 46.7444 34.2658 45.8787C34.4027 45.0102 35.723 41.6351 36.1806 41.2708C36.6382 40.9036 38.0984 40.3119 38.5064 40.3586C38.9174 40.4023 38.827 40.7666 38.827 40.7666L34.5834 50.6237L34.1929 50.5071C33.9451 51.1104 33.0445 51.5097 33.0329 51.5359C32.7764 52.2529 31.5989 53.1331 30.5001 53.5411C30.6255 53.8792 30.8411 54.5612 30.7042 54.9576C30.5235 55.5056 30.7916 55.8903 30.7916 55.8903C30.5905 56.2284 30.7916 56.4732 31.0539 56.7005C30.7916 57.0153 30.9286 57.4437 31.392 57.878L30.8441 58.1986C31.1472 58.9768 31.5669 59.0089 32.0857 58.391C32.0857 58.391 32.0478 59.4286 31.8583 59.7608C31.6718 60.0814 31.2288 60.1455 30.9344 60.3875C30.6021 60.6643 29.4917 59.9852 29.4917 59.9852C29.8298 60.3029 30.4885 59.344 30.0367 58.5076L30.2058 58.6533L29.5354 58.4784C29.7219 57.9334 29.5616 57.2281 29.1274 57.1319C29.4247 56.4236 29.3022 56.0535 28.9292 55.8845C28.9292 55.8845 29.3955 54.9168 29.1274 54.9314C29.1274 54.9314 29.3576 54.0862 29.5354 53.6927C29.4072 53.7218 29.037 53.4216 29.0807 53.203C29.1245 52.9757 29.2673 52.4861 29.7045 51.9498C29.8706 51.7399 31.1064 51.4018 31.3366 51.1279C31.5406 50.8831 32.4296 50.4109 32.8056 50.3235V50.3205ZM51.211 30.8629L52.8927 29.633L54.656 35.4359L55.8102 34.0806L54.6327 29.0705C54.4753 28.7061 53.5747 27.0157 52.202 27.5899C51.8435 27.7414 49.5876 30.0614 49.5876 30.0614L51.211 30.8629ZM51.211 43.0371L52.8927 44.2699L54.656 38.467L55.8102 39.8223L54.6327 44.8295C54.4753 45.1967 53.5747 46.8872 52.202 46.3101C51.8435 46.1615 49.5876 43.8415 49.5876 43.8415L51.211 43.0371ZM26.7141 46.5666C26.8074 46.179 27.5302 45.803 27.6905 45.3716C27.8712 44.8674 30.0221 42.3376 30.6167 41.5623C31.2084 40.787 32.7589 39.6008 32.6219 40.4198C32.485 41.2417 29.3372 47.0358 28.7456 47.4934C28.4046 47.7557 27.8712 47.6391 27.4311 47.4002C27.4923 47.5983 24.6827 47.779 24.0007 47.6304C23.4061 47.4992 16.8075 47.2719 16.5656 47.4002C14.5371 48.4785 12.6892 49.9125 10.4013 50.4634C10.4013 50.4634 9.22381 51.5563 8.99065 52.0081C8.6817 52.6114 8.6817 53.786 8.62633 53.6519C8.75165 54.9168 9.12472 55.6629 10.0545 55.2666C10.0545 55.2666 9.63185 56.2517 9.31125 56.3887C8.99065 56.5257 8.03467 56.342 7.89769 56.1147C7.6058 55.8479 7.30646 55.5894 7 55.3394C7.4605 55.4997 7.69949 55.2695 7.75487 54.7157L7.15739 54.8061L7.66743 53.1331L7.15447 52.9233C7.43427 52.3083 7.81025 51.7574 8.28532 51.2765L7.98804 50.8685C7.98804 50.8685 9.73678 49.7318 9.87667 49.4578C10.0137 49.1839 15.6533 46.9455 15.6533 46.9455L16.0556 46.5083C15.9361 46.3101 17.8334 45.596 18.6204 45.5319C19.3461 45.4707 22.7678 45.9604 23.3157 46.1236C23.9278 46.3072 24.8546 46.1819 25.4026 46.2285C25.7727 46.2576 26.2682 46.5374 26.7141 46.5666ZM32.8056 23.1335L32.7647 23.9554C32.7647 23.9554 34.1288 26.7097 34.2658 27.5753C34.4027 28.4438 35.723 31.8189 36.1806 32.1832C36.6382 32.5475 38.0984 33.1421 38.5064 33.0955C38.9174 33.0488 38.827 32.6874 38.827 32.6874L34.5834 22.8275L34.1929 22.944C33.9451 22.3436 33.0445 21.9443 33.0329 21.9152C32.7764 21.2011 31.5989 20.318 30.5001 19.91C30.6255 19.5719 30.8411 18.8928 30.7042 18.4935C30.5235 17.9485 30.7916 17.5608 30.7916 17.5608C30.5905 17.2228 30.7916 16.9779 31.0539 16.7535C30.7916 16.4387 30.9286 16.0103 31.392 15.576L30.8441 15.2554C31.1472 14.4772 31.5669 14.4452 32.0857 15.0631C32.0857 15.0631 32.0478 14.0255 31.8583 13.6932C31.6718 13.3697 31.2288 13.3085 30.9344 13.0666C30.6021 12.7897 29.4917 13.4659 29.4917 13.4659C29.8298 13.1511 30.4885 14.11 30.0367 14.9436L30.2058 14.7978L29.5354 14.9727C29.7219 15.5206 29.5616 16.226 29.1274 16.3192C29.4247 17.0304 29.3022 17.3976 28.9292 17.5696C28.9292 17.5696 29.3955 18.5372 29.1274 18.5226C29.1274 18.5226 29.3576 19.3679 29.5354 19.7584C29.4072 19.7293 29.037 20.0324 29.0807 20.251C29.1245 20.4783 29.2673 20.9651 29.7045 21.5042C29.8706 21.7112 31.1064 22.0493 31.3366 22.3232C31.5406 22.5681 32.4296 23.0431 32.8056 23.1306V23.1335ZM26.7141 26.8874C26.8074 27.2722 27.5302 27.6511 27.6905 28.0824C27.8712 28.5866 30.0221 31.1165 30.6167 31.8918C31.2084 32.667 32.7589 33.8533 32.6219 33.0314C32.485 32.2124 29.3372 26.4153 28.7456 25.9606C28.4046 25.6983 27.8712 25.8149 27.4311 26.0539C27.4923 25.8557 24.6827 25.675 24.0007 25.8236C23.4061 25.9519 16.8075 26.1821 16.5656 26.0539C14.5371 24.9755 12.6892 23.5386 10.4013 22.9878C10.4013 22.9878 9.22381 21.8948 8.99065 21.443C8.6817 20.8426 8.6817 19.6652 8.62633 19.8021C8.75165 18.5372 9.12472 17.7882 10.0545 18.1875C10.0545 18.1875 9.63185 17.2024 9.31125 17.0654C8.99065 16.9284 8.03467 17.1091 7.89769 17.3393C7.6058 17.6061 7.30646 17.8647 7 18.1146C7.4605 17.9514 7.69949 18.1846 7.75487 18.7383L7.15739 18.648L7.66743 20.3209L7.15447 20.5308C7.43427 21.1458 7.81025 21.6966 8.28532 22.1775L7.98804 22.5856C7.98804 22.5856 9.73678 23.7222 9.87667 23.9962C10.0137 24.2702 15.6533 26.5086 15.6533 26.5086L16.0556 26.9457C15.9361 27.1439 17.8334 27.858 18.6204 27.9221C19.3461 27.9833 22.7678 27.4937 23.3157 27.3305C23.9278 27.1468 24.8546 27.2722 25.4026 27.2255C25.7727 27.1964 26.2682 26.9137 26.7141 26.8874Z" fill="#2F99C6"/>
<path d="M64.2391 36.727C64.2391 41.0114 60.8145 44.4856 58.2584 44.4856C55.7024 44.4856 54.9796 41.0085 54.9796 36.727C54.9796 32.4426 55.7024 28.9684 58.2584 28.9684C60.8145 28.9684 64.2391 32.4455 64.2391 36.727Z" fill="#2F99C6"/>
<path d="M35.9883 36.6775C35.9999 37.1088 35.5686 36.794 35.2713 37.2895C34.6699 38.6129 34.1842 39.986 33.8198 41.3932C33.1553 44.1679 27.7867 45.7476 22.0246 45.5552C16.5918 45.3716 11.9635 40.277 10.1477 38.8051C8.56511 37.5227 7.78693 36.8378 7.78693 36.8378C7.78693 36.8378 8.56511 35.9342 10.1477 34.6518C11.9635 33.1771 16.5889 28.0824 22.0246 27.8988C27.7896 27.7064 33.1553 29.2861 33.8198 32.0608C34.3823 34.4128 34.9244 35.6136 35.2975 36.1703C35.5802 36.5929 35.9766 36.2578 35.9883 36.6775Z" fill="#12466A"/>
<path d="M55.3526 36.8523C55.3876 42.5736 50.9108 44.0455 45.4926 44.0455C40.0745 44.0455 35.6502 38.3912 35.6764 36.727C35.7055 34.885 40.0774 29.4085 45.4926 29.4085C50.9137 29.4085 55.3205 31.5274 55.3526 36.8523Z" fill="#12466A"/>
<path d="M45.1983 31.3875C45.1983 31.3875 46.0843 32.6991 47.4279 32.4863C48.7686 32.2706 49.1796 31.4866 48.7395 30.7172C48.2965 29.9448 45.1837 29.4552 45.1837 29.4552C47.4629 30.6531 47.2239 31.2389 45.2012 31.3875H45.1983ZM45.1983 41.9674C45.1983 41.9674 46.0843 40.6558 47.4279 40.8686C48.7686 41.0814 49.1796 41.8683 48.7395 42.6377C48.2965 43.4072 45.1837 43.8998 45.1837 43.8998C47.4629 42.699 47.2239 42.116 45.2012 41.9674H45.1983Z" fill="#12466A"/>
<path d="M59.3426 41.4778C59.296 40.2944 58.8967 39.1519 57.5473 39.1898C56.4397 39.219 55.9035 40.4343 55.9647 41.2475C56.0608 42.5328 56.6933 43.55 57.1771 43.8415C58.5178 44.6546 60.3453 43.6812 61.2313 42.9088C61.616 42.5707 62.8518 41.2067 63.0908 40.2944C63.289 39.5279 63.1199 38.8663 62.5224 39.0528C61.922 39.2365 61.7238 40.481 61.479 41.0493C61.2313 41.6177 60.5551 43.2148 59.7594 43.1682C58.9579 43.1216 59.3572 41.8771 59.3426 41.4778ZM59.3426 31.268C59.296 32.4514 58.8967 33.5939 57.5473 33.556C56.4397 33.5268 55.9035 32.3115 55.9647 31.4983C56.0608 30.2101 56.6933 29.1958 57.1771 28.9043C58.5178 28.0882 60.3453 29.0646 61.2313 29.837C61.616 30.1751 62.8518 31.5362 63.0908 32.4484C63.289 33.2179 63.1199 33.8766 62.5224 33.693C61.922 33.5093 61.7238 32.2648 61.479 31.6965C61.2313 31.1281 60.5551 29.531 59.7594 29.5776C58.9579 29.6242 59.3572 30.8687 59.3426 31.268Z" fill="#2F99C6"/>
<path d="M62.6973 39.5716C62.6011 39.4026 62.2747 39.3997 62.1173 39.6241C61.9599 39.8514 62.0503 40.7025 62.0736 41.0639C62.094 41.4224 62.5778 43.8094 63.0849 45.0918C63.5921 46.3742 64.5131 47.9568 65.1164 48.7642C65.1164 48.7642 64.0292 49.6706 64.0292 49.8717C64.0234 50.5916 65.9441 50.5595 66.1336 50.4167C66.3026 50.2885 66.9496 49.6793 66.9963 49.0731C67.04 48.464 66.6873 47.6187 66.4425 47.4176C66.1948 47.2136 64.6471 45.3308 64.1866 44.4798C63.831 43.8269 63.6941 42.8214 63.6795 42.3084C63.6678 41.9645 62.9567 40.0176 62.6973 39.5687V39.5716ZM62.6973 33.215C62.6011 33.3811 62.2747 33.384 62.1173 33.1596C61.9599 32.9352 62.0503 32.0812 62.0736 31.7227C62.094 31.3613 62.5778 28.9772 63.0849 27.6919C63.5921 26.4095 64.5131 24.8269 65.1164 24.0195C65.1164 24.0195 63.9943 23.2268 64.0292 22.912C64.105 22.1746 65.4457 22.0726 66.1336 22.367C66.3259 22.4544 66.9496 23.1073 66.9963 23.7135C67.04 24.3197 66.6873 25.1649 66.4425 25.369C66.1948 25.5701 64.5072 27.6481 64.1866 28.3039C63.8631 28.9626 63.6941 29.9652 63.6795 30.4782C63.6678 30.8221 62.9567 32.7661 62.6973 33.215Z" fill="#2F99C6"/>
<path d="M46.7313 30.7609C46.0989 32.737 23.715 26.7388 22.2548 26.0306C20.9957 25.4214 13.2371 22.6118 14.1931 19.024C14.5837 17.5579 17.4429 16.9546 19.8357 16.9167C19.9028 16.9167 22.7561 17.2956 24.5048 17.9747C26.1079 18.5984 28.2763 20.079 27.0289 18.782C25.7785 17.4851 24.3679 15.7859 25.1169 15.6693C25.866 15.5556 33.8315 23.6843 38.5414 26.4473C40.2435 27.447 46.9353 30.1197 46.7313 30.7609ZM46.7313 42.6348C46.0989 40.6588 23.715 46.6569 22.2548 47.3652C20.9957 47.9743 13.2371 50.784 14.1931 54.3718C14.5837 55.8378 17.4429 56.4411 19.8357 56.479C19.9028 56.479 22.7561 56.1001 24.5048 55.4181C26.1079 54.7973 28.2763 53.3167 27.0289 54.6137C25.7785 55.9107 24.3679 57.6099 25.1169 57.7265C25.866 57.8401 33.8315 49.7114 38.5414 46.9484C40.2435 45.9487 46.9353 43.276 46.7313 42.6348Z" fill="#2F99C6"/>
</g>
<defs>
<filter id="filter0_i_1228_7643" x="7" y="13" width="60" height="51.4538" filterUnits="userSpaceOnUse" color-interpolation-filters="sRGB">
<feFlood flood-opacity="0" result="BackgroundImageFix"/>
<feBlend mode="normal" in="SourceGraphic" in2="BackgroundImageFix" result="shape"/>
<feColorMatrix in="SourceAlpha" type="matrix" values="0 0 0 0 0 0 0 0 0 0 0 0 0 0 0 0 0 0 127 0" result="hardAlpha"/>
<feOffset dy="4"/>
<feGaussianBlur stdDeviation="7"/>
<feComposite in2="hardAlpha" operator="arithmetic" k2="-1" k3="1"/>
<feColorMatrix type="matrix" values="0 0 0 0 0 0 0 0 0 0 0 0 0 0 0 0 0 0 0.15 0"/>
<feBlend mode="normal" in2="shape" result="effect1_innerShadow_1228_7643"/>
</filter>
</defs>
</svg>
