<svg width="75" height="74" viewBox="0 0 75 74" fill="none" xmlns="http://www.w3.org/2000/svg">
<rect width="74" height="74" transform="translate(0.098999)" fill="white"/>
<g filter="url(#filter0_i_1228_7583)">
<path d="M47.7566 53.2433C50.7466 53.6783 54.1406 52.9303 56.7046 49.2323C59.2686 45.5322 61.3496 32.0523 58.6976 24.7023C56.0456 17.3523 54.6076 14.1483 50.7976 10.7483C46.9876 7.34825 43.7226 7.91025 43.8456 11.8083C43.9686 15.7083 44.1686 26.6243 42.2756 28.1103C40.5956 35.5603 41.6806 52.3243 47.7556 53.2443L47.7566 53.2433Z" fill="#2F99C6"/>
<path d="M35.4959 11.6786C36.0613 9.84297 37.3687 4.48113 30.8529 8.39976C24.337 12.324 20.9884 22.4878 21.4943 32.5215C22.0002 42.5552 25.5505 51.1383 29.2404 50.5059C43.2978 48.0882 38.4586 39.0774 38.6232 29.7039C38.2363 26.3562 36.8377 26.6817 35.9934 23.6223C35.149 20.5629 34.9352 13.5328 35.4977 11.6916L35.4959 11.6786ZM15.754 53.5058C13.6208 51.8924 12.5858 52.1481 13.154 55.6074C13.7231 59.0704 16.4068 62.7119 20.2826 64.8042C24.151 66.8965 28.41 67.5009 29.8328 66.5859C31.2462 65.6718 29.8607 59.6209 25.8342 58.5329C21.8077 57.443 17.8835 55.1201 15.7447 53.5067L15.754 53.5058ZM61.9275 54.0544C61.9443 51.1922 60.2426 51.3149 58.9704 53.0195C57.6965 54.7249 55.7623 56.1551 53.7658 57.974C51.7702 59.792 46.5171 61.6211 46.4958 63.7469C46.4744 65.8736 49.5756 67.1113 52.768 66.8834C60.8154 63.5962 61.9694 59.1819 61.9275 54.0535V54.0544Z" fill="#2F99C6"/>
</g>
<defs>
<filter id="filter0_i_1228_7583" x="13" y="7" width="48.9286" height="64" filterUnits="userSpaceOnUse" color-interpolation-filters="sRGB">
<feFlood flood-opacity="0" result="BackgroundImageFix"/>
<feBlend mode="normal" in="SourceGraphic" in2="BackgroundImageFix" result="shape"/>
<feColorMatrix in="SourceAlpha" type="matrix" values="0 0 0 0 0 0 0 0 0 0 0 0 0 0 0 0 0 0 127 0" result="hardAlpha"/>
<feOffset dy="4"/>
<feGaussianBlur stdDeviation="7"/>
<feComposite in2="hardAlpha" operator="arithmetic" k2="-1" k3="1"/>
<feColorMatrix type="matrix" values="0 0 0 0 0 0 0 0 0 0 0 0 0 0 0 0 0 0 0.15 0"/>
<feBlend mode="normal" in2="shape" result="effect1_innerShadow_1228_7583"/>
</filter>
</defs>
</svg>
