<svg width="24" height="24" viewBox="0 0 24 24" fill="none" xmlns="http://www.w3.org/2000/svg">
<path d="M3.73912 7.60876L3.76347 6.73919C3.76681 6.51378 3.8562 6.29816 4.01333 6.1365C4.17046 5.97484 4.38345 5.87937 4.60869 5.86963H5.42956C5.66414 5.87179 5.88922 5.96265 6.05957 6.12396C6.22991 6.28527 6.33289 6.50507 6.34782 6.73919V7.60876" stroke="black" stroke-width="1" stroke-linecap="round" stroke-linejoin="round"/>
<path d="M19.0696 7.6087C18.9041 7.60867 18.7421 7.56146 18.6026 7.47258C18.463 7.38371 18.3517 7.25687 18.2817 7.10696C17.8104 6.09739 17.3043 5 16.3478 5H12C11.1904 5 10.7826 5.72522 9.65217 7.25391C9.57191 7.36319 9.4672 7.45218 9.34641 7.51379C9.22563 7.57539 9.09211 7.60789 8.95652 7.6087H3.73913C2.43478 7.6087 2 8.19913 2 9.10696V18.14C2 19.047 2.43478 19.7826 3.78783 19.7826H20.2122C21.5652 19.7826 22 19.047 22 18.14V9.10696C22 8.19913 21.5652 7.6087 20.2122 7.6087H19.0696Z" stroke="black" stroke-width="1" stroke-linecap="round" stroke-linejoin="round"/>
<path d="M14.1739 18.0435C16.8153 18.0435 18.9565 15.9023 18.9565 13.2609C18.9565 10.6196 16.8153 8.47833 14.1739 8.47833C11.5325 8.47833 9.3913 10.6196 9.3913 13.2609C9.3913 15.9023 11.5325 18.0435 14.1739 18.0435Z" stroke="black" stroke-width="1" stroke-linecap="round" stroke-linejoin="round"/>
<path d="M14.1739 15.8696C15.6147 15.8696 16.7826 14.7017 16.7826 13.2609C16.7826 11.8202 15.6147 10.6522 14.1739 10.6522C12.7332 10.6522 11.5652 11.8202 11.5652 13.2609C11.5652 14.7017 12.7332 15.8696 14.1739 15.8696Z" stroke="black" stroke-width="1" stroke-linecap="round" stroke-linejoin="round"/>
<path d="M5.04347 11.9565C5.76384 11.9565 6.34782 11.3725 6.34782 10.6521C6.34782 9.93175 5.76384 9.34778 5.04347 9.34778C4.3231 9.34778 3.73912 9.93175 3.73912 10.6521C3.73912 11.3725 4.3231 11.9565 5.04347 11.9565Z" stroke="black" stroke-width="1" stroke-linecap="round" stroke-linejoin="round"/>
</svg>
