<svg width="24" height="24" viewBox="0 0 24 24" fill="none" xmlns="http://www.w3.org/2000/svg">
<rect width="24" height="24" fill="white"/>
<path d="M11.8357 12.2495V13.6557" stroke="#12466A" stroke-width="1.5" stroke-linecap="round" stroke-linejoin="round"/>
<path d="M8.35767 12.9526L9.34204 13.9464" stroke="#12466A" stroke-width="1.5" stroke-linecap="round" stroke-linejoin="round"/>
<path d="M15.3138 12.9526L14.3295 13.9464" stroke="#12466A" stroke-width="1.5" stroke-linecap="round" stroke-linejoin="round"/>
<path d="M18.0514 11.0026C14.0503 9.46479 9.6212 9.46479 5.62013 11.0026C5.43309 11.0675 5.2615 11.1703 5.11616 11.3047C4.97081 11.4391 4.85486 11.6022 4.77561 11.7836C4.69635 11.965 4.65551 12.1608 4.65564 12.3588C4.65577 12.5568 4.69688 12.7526 4.77638 12.9339C6.39826 16.5995 7.44826 18.0995 10.0451 20.3401C10.3032 20.569 10.6377 20.6928 10.9826 20.687H12.7451C13.09 20.6928 13.4246 20.569 13.6826 20.3401C16.2795 18.0995 17.3295 16.5901 18.9514 12.9339C19.0298 12.7489 19.0685 12.5496 19.065 12.3488C19.0614 12.148 19.0158 11.9501 18.9309 11.7681C18.8461 11.586 18.724 11.4238 18.5724 11.2919C18.4209 11.1601 18.2434 11.0615 18.0514 11.0026Z" stroke="#12466A" stroke-width="1.5" stroke-linecap="round" stroke-linejoin="round"/>
<path d="M17.9294 14.987C19.4342 15.5183 20.7201 16.5339 21.5857 17.8745" stroke="#12466A" stroke-width="1.5" stroke-linecap="round" stroke-linejoin="round"/>
<path d="M16.6826 17.0964C18.1368 17.6475 19.3691 18.6623 20.1889 19.9839" stroke="#12466A" stroke-width="1.5" stroke-linecap="round" stroke-linejoin="round"/>
<path d="M15.0045 19.0464C16.5168 19.6405 17.8029 20.697 18.6795 22.0651" stroke="#12466A" stroke-width="1.5" stroke-linecap="round" stroke-linejoin="round"/>
<path d="M5.74194 14.987C4.23721 15.5183 2.95128 16.5339 2.08569 17.8745" stroke="#12466A" stroke-width="1.5" stroke-linecap="round" stroke-linejoin="round"/>
<path d="M6.98892 17.0964C5.53469 17.6475 4.30246 18.6623 3.48267 19.9839" stroke="#12466A" stroke-width="1.5" stroke-linecap="round" stroke-linejoin="round"/>
<path d="M8.66694 19.0464C7.15065 19.648 5.86405 20.7147 4.99194 22.0932" stroke="#12466A" stroke-width="1.5" stroke-linecap="round" stroke-linejoin="round"/>
<path d="M4.82324 11.6776C3.79616 10.9655 2.99379 9.97486 2.5105 8.82227C2.02721 7.66968 1.8831 6.40305 2.09512 5.17136" stroke="#12466A" stroke-width="1.5" stroke-linecap="round" stroke-linejoin="round"/>
<path d="M5.57324 4.51511L9.88574 3.04323C9.84907 2.74607 9.75345 2.45922 9.60449 2.19948C8.74199 0.765109 6.43574 0.596359 4.44824 1.80573C2.46074 3.01511 1.52324 5.17136 2.46074 6.60573C3.39824 8.04011 5.62949 8.21823 7.61699 6.99948C7.95627 6.77418 8.27055 6.51333 8.55449 6.22136L5.57324 4.51511Z" stroke="#12466A" stroke-width="1.5" stroke-linecap="round" stroke-linejoin="round"/>
<path d="M18.8483 11.6776C19.8753 10.9655 20.6777 9.97486 21.161 8.82227C21.6443 7.66968 21.7884 6.40305 21.5764 5.17136" stroke="#12466A" stroke-width="1.5" stroke-linecap="round" stroke-linejoin="round"/>
<path d="M18.0983 4.51511L13.7858 3.04323C13.8224 2.74607 13.9181 2.45922 14.067 2.19948C14.9295 0.765109 17.2358 0.596359 19.2233 1.80573C21.2108 3.01511 22.1483 5.17136 21.2576 6.60573C20.367 8.04011 18.0889 8.21823 16.1014 6.99948C15.7621 6.77418 15.4478 6.51333 15.1639 6.22136L18.0983 4.51511Z" stroke="#12466A" stroke-width="1.5" stroke-linecap="round" stroke-linejoin="round"/>
</svg>
