<svg width="75" height="74" viewBox="0 0 75 74" fill="none" xmlns="http://www.w3.org/2000/svg">
<rect width="74" height="74" transform="translate(0.0991211)" fill="white"/>
<g filter="url(#filter0_i_1228_7623)">
<path d="M38.2742 43.578C37.8564 43.2145 37.9527 42.9331 38.3809 42.5755C38.811 42.2178 41.8345 42.8795 42.676 39.9989C43.2697 37.9668 43.2128 34.3799 45.0082 35.3138C46.0042 36.3402 47.0907 37.3782 48.4916 38.7331C51.6329 41.7742 52.7957 42.148 55.8581 43.8347C58.9198 45.5228 60.4927 46.1029 62.9155 47.4436C64.6384 48.2605 68.5791 51.2692 66.3174 53.0587C65.7237 53.3983 66.3562 53.7288 62.14 53.1603C57.9238 52.5918 49.4604 50.4859 45.3897 49.292C43.077 48.5884 40.9931 48.0697 38.9158 47.5794C37.5175 47.1726 36.2194 45.4102 36.7207 44.7318C37.2219 44.0488 38.9546 44.8158 40.5229 44.9045L38.2742 43.578Z" fill="#2F99C6" stroke="#0D314A" stroke-linecap="round" stroke-linejoin="round"/>
<path d="M7 26.6136C11.6256 21.9434 16.9393 19.7464 22.9399 20.0232C26.4246 20.4844 30.0949 21.406 33.6268 23.3191C37.1555 25.2309 38.9625 27.7047 41.3717 30.9767C42.7654 32.8671 43.8772 34.149 45.1752 35.4793M39.282 47.6661C38.513 47.4915 37.6315 47.2975 36.4906 47.0452C33.8687 47.0808 30.5211 47.0013 27.9432 47.8162C25.3658 48.6311 24.5283 49.7416 23.022 51.654" stroke="#0D314A" stroke-linecap="round" stroke-linejoin="round"/>
<path d="M28.9438 30.646C30.2053 30.9386 31.4105 30.3891 31.6355 29.4187C31.8606 28.4483 31.0204 27.4244 29.7588 27.1318C28.4973 26.8392 27.2922 27.3887 27.0671 28.3591C26.842 29.3296 27.6822 30.3534 28.9438 30.646Z" stroke="#0D314A" stroke-width="0.998468" stroke-linecap="round" stroke-linejoin="round"/>
<path d="M47.0315 39.8242C46.8504 39.8288 46.648 40.1476 46.6629 40.4775C46.7185 40.8209 47.743 41.1216 47.99 41.3887C48.2416 41.6571 48.814 41.6002 48.9246 41.3176C49.03 41.0408 49.008 40.8066 48.845 40.5557C48.6555 40.2608 48.3076 40.4852 48.0256 40.1767C47.7475 39.8669 47.3271 39.7803 47.0387 39.8275L47.0315 39.8242Z" stroke="#0D314A" stroke-linecap="round" stroke-linejoin="round"/>
<path d="M45.0027 35.3105C43.2131 34.3799 43.2701 37.9668 42.6763 39.9995C41.8356 42.8788 38.8114 42.2178 38.3813 42.5755C37.9525 42.9332 37.8567 43.2145 38.2745 43.578L44.1322 46.9391L49.6438 49.2565L58.6143 52.5433M41.8724 44.5164C50.4607 47.9921 52.6085 51.0848 65.1051 53.4908M39.1218 47.6092C37.7481 47.2211 36.2166 45.4102 36.7172 44.7318C37.219 44.0488 38.951 44.8159 40.4535 44.9038" stroke="#0D314A" stroke-linecap="round" stroke-linejoin="round"/>
</g>
<defs>
<filter id="filter0_i_1228_7623" x="6.5" y="19.5" width="61" height="38.4908" filterUnits="userSpaceOnUse" color-interpolation-filters="sRGB">
<feFlood flood-opacity="0" result="BackgroundImageFix"/>
<feBlend mode="normal" in="SourceGraphic" in2="BackgroundImageFix" result="shape"/>
<feColorMatrix in="SourceAlpha" type="matrix" values="0 0 0 0 0 0 0 0 0 0 0 0 0 0 0 0 0 0 127 0" result="hardAlpha"/>
<feOffset dy="4"/>
<feGaussianBlur stdDeviation="7"/>
<feComposite in2="hardAlpha" operator="arithmetic" k2="-1" k3="1"/>
<feColorMatrix type="matrix" values="0 0 0 0 0 0 0 0 0 0 0 0 0 0 0 0 0 0 0.15 0"/>
<feBlend mode="normal" in2="shape" result="effect1_innerShadow_1228_7623"/>
</filter>
</defs>
</svg>
