<svg xmlns="http://www.w3.org/2000/svg" width="74" height="74" viewBox="0 0 19.579 19.579">
  <path d="M0 0h19.579v19.579H0z" style="fill:#fff;fill-opacity:.989964;stroke:none;stroke-dasharray:none"/>
  <path d="M14.279 13.99c.585.046 1.76.489 2.236.356.246-.068.692-.396.823-.49.13-.092.57-.312.718-.397.257-.147.31-.27.36-.306.053-.035.158-.056.211.001.054.057.094.164.02.233-.076.069-.128.013-.393.191-.264.179-1.082.747-1.062.907.02.16.094.175.17.18.075.006.141-.13.208-.114s.126.084.114.161c-.012.077-.146.086-.207.123-.06.038-.136.091-.035.13.1.04.709.096.923.19.213.094.37.05.446.112.076.063.146.222.07.312a.256.256 0 0 1-.32.054c-.106-.06-.038-.123-.217-.174-.18-.05-.53-.097-.761-.059-.231.038-.14.155-.129.254.011.1.024.17.082.247.058.077.235.136.25.23.014.093-.01.135-.15.159-.14.024-.328-.284-.486-.26-.625.32-1.203.41-1.735.508-.54.094-1.167.22-1.681.178-.515-.043-.673-.134-1.077-.143a7.218 7.218 0 0 0-1.332.113c-.457.078-1.253.256-2.482.35-1.23.096-2.866-.141-4.727-.003-1.862.139-3.647.246-3.436-.236.175-.4 1.424-1.007 1.934-1.223 1.254-.53 1.216-.547 2.382-.859 1.253-.335 3.629-.479 4.07-.496.442-.018 2.542-.063 3.151-.163.61-.1 1.477-.112 2.062-.066z" style="clip-rule:evenodd;fill:#fff;stroke:#0e3855;stroke-width:.238304;stroke-linecap:butt;stroke-linejoin:miter;"/>
  <path d="M12.305 14.066c.525-.138 1.39-.122 1.974-.076.585.046 1.76.489 2.236.356.246-.068.692-.396.823-.49.13-.092.57-.312.718-.397.257-.147.31-.27.36-.306.053-.035.158-.056.211.001.054.057.094.164.02.233-.076.069-.128.013-.393.191-.264.179-1.082.747-1.062.907.02.16.094.175.17.18.075.006.141-.13.208-.114s.126.084.114.161c-.012.077-.146.086-.207.123-.06.038-.136.091-.035.13.1.04.709.096.923.19.213.094.37.05.446.112.076.063.146.222.07.312a.256.256 0 0 1-.32.054c-.106-.06-.038-.123-.217-.174-.18-.05-.53-.097-.761-.059-.231.038-.14.155-.129.254.011.1.024.17.082.247.058.077.235.136.25.23.014.093-.01.135-.15.159-.14.024-.328-.284-.486-.26-.625.32-1.203.41-1.735.508-.54.094-1.167.22-1.681.178-.515-.043-.673-.134-1.077-.143a7.218 7.218 0 0 0-1.332.113c-.457.078-1.253.256-2.482.35-1.23.096-2.866-.141-4.727-.003-1.862.139-3.647.246-3.436-.236.175-.4 1.424-1.007 1.934-1.223 1.254-.53 1.216-.547 2.382-.859 1.253-.335 3.629-.479 4.07-.496.442-.018 2.545-.092 3.239-.153.11-.01 0 0 0 0z" style="clip-rule:evenodd;fill:#fff;stroke:none;stroke-linecap:butt;stroke-linejoin:miter;stroke-dasharray:none"/>
  <path d="M12.29 6.26c.884-.034.987-.042 1.573.004.584.046 1.427.375 1.903.243.247-.069.692-.397.823-.49.131-.092.57-.313.718-.397.257-.147.31-.27.361-.306.052-.034.158-.056.21 0 .053.058.095.165.019.234-.075.069-.127.013-.391.19-.265.18-1.083.748-1.063.908.02.16.095.174.17.18.075.006.14-.13.209-.114.066.016.126.084.113.16-.011.078-.146.087-.207.124-.06.038-.17.112-.034.13.133.018.708.096.922.19.213.094.37.05.446.112.076.062.146.222.07.312a.256.256 0 0 1-.32.054c-.106-.061-.038-.123-.216-.174a2.11 2.11 0 0 0-.762-.06c-.23.038-.139.156-.129.256a.444.444 0 0 0 .082.246c.058.077.236.137.25.23.013.093-.01.134-.15.159-.14.024-.328-.285-.486-.26-.158.025-.023.16-.214.28-.191.12-.651.38-1.193.474-.54.094-1.495-.026-2.009-.069-.515-.043-.673-.133-1.076-.143a7.258 7.258 0 0 0-1.333.113c-.457.078-.889.268-1.396.361-.506.092-5.4.262-5.879-.348-.182-.231 1.564-.292 2.516-.68 1.567-.64 2.754-1.613 2.754-1.613s2.836-.27 3.72-.305z" style="clip-rule:evenodd;fill:#fff;stroke:#0e3855;stroke-width:.238295;stroke-linecap:butt;stroke-linejoin:miter;"/>
  <path d="M12.271 5.017a2.908 2.908 0 0 0-.56-1.037c-.618-.713-1.738-1.396-2.677-1.52-1.767-.234-3.978.864-4.435 2.563-.456 1.699.654 3.259 1.773 3.884 1.119.626 2.345.496 2.932.236.588-.26 1.201-1.073 1.201-1.073.84.034 1.733-1.059 1.95-2.178.046-.244.075-.662-.184-.875z" style="clip-rule:evenodd;fill:#fff;stroke:#0e3855;stroke-width:.238304;stroke-linecap:butt;stroke-linejoin:miter;"/>
  <path d="M12.29 6.26c.884-.034.987-.042 1.573.004.584.046 1.427.375 1.903.243.246-.069.692-.397.823-.489.131-.093.57-.313.718-.398.257-.147.31-.27.361-.306.052-.034.158-.056.21 0 .053.058.095.165.019.234-.075.069-.127.014-.391.19-.265.179-1.083.748-1.063.908.02.16.095.175.17.18.075.006.14-.13.209-.114.066.016.126.084.113.16-.011.079-.147.087-.207.124-.06.038-.17.112-.034.13.133.018.708.096.922.19.213.094.37.05.446.112.076.063.146.222.07.312a.256.256 0 0 1-.32.054c-.106-.061-.038-.123-.216-.173a2.11 2.11 0 0 0-.762-.06c-.23.038-.139.155-.129.255a.444.444 0 0 0 .082.246c.058.077.236.137.25.23.013.093-.01.134-.15.159-.14.025-.328-.285-.486-.26-.158.025-.023.16-.214.28-.191.12-.651.38-1.193.474-.54.094-1.495-.025-2.009-.069-.515-.043-.673-.133-1.076-.143a7.258 7.258 0 0 0-1.332.113c-.458.078-.89.27-1.397.361-.506.092-5.4.262-5.879-.348-.182-.231 1.564-.291 2.516-.68 1.567-.64 2.754-1.613 2.754-1.613s2.836-.27 3.72-.305z" style="clip-rule:evenodd;fill:#fff;stroke:#0e3855;stroke-width:.0595738;stroke-linecap:butt;stroke-linejoin:miter;"/>
  <path d="M12.271 5.017a2.908 2.908 0 0 0-.56-1.037c-.618-.713-1.738-1.396-2.677-1.52-1.767-.234-3.978.864-4.435 2.563-.456 1.699.654 3.259 1.773 3.884 1.119.626 2.345.496 2.932.236.588-.26 1.201-1.073 1.201-1.073.84.034 1.733-1.059 1.95-2.178.046-.244.075-.662-.184-.875z" style="clip-rule:evenodd;fill:#fff;stroke:#0e3855;stroke-width:.0595762;stroke-linecap:butt;stroke-linejoin:miter;"/>
  <ellipse cx="19.722" cy="-4.47" rx=".046" ry=".036" style="clip-rule:evenodd;fill:#0e3855;fill-rule:evenodd;stroke:none;stroke-width:.0156834px;stroke-linecap:butt;stroke-linejoin:miter;stroke-miterlimit:4" transform="matrix(.8677 .49708 -.1593 .98723 0 0)"/>
  <path d="M13.197 16.198c1.31.152 2.544-.06 3.267-.417.862-.425.21.205.13.26a3.469 3.469 0 0 1-1.175.454 8.61 8.61 0 0 1-1.866.096 14.41 14.41 0 0 1-.928-.113c-.088-.014-.132-.057-.22-.072-.095-.016-.233-.004-.325-.022-.066-.013-.15-.058-.214-.072-.08-.017-.138-.004-.212-.022-.062-.016-.101-.057-.156-.073-.05-.014-.116-.004-.162-.019-.058-.018-.104-.065-.162-.08-.055-.014-.122.003-.183-.006-.058-.008-.13-.046-.197-.047-.063 0-.12.036-.195.044-.079.009-.153-.032-.233-.027-.065.005-.09.044-.167.037-.088-.007-.143-.04-.207-.037-.074.005-.087.06-.172.067-.087.007-.132-.023-.21-.013-.113.014-.144.064-.247.084-.076.015-.148-.016-.223.001-.089.02-.181.087-.274.109-.08.019-.193-.006-.27.006-.075.011-.226.11-.364.138-.102.02-.277-.004-.347.006-.074.012-.197.094-.39.124-.189.029-.217-.01-.357.012-.135.021-.242.107-.472.114-.227.007-.22.006-.336.02-.132.014-.278.053-.404.06-.122.008-.247-.06-.365-.063-.18-.004-.349.052-.52.02a1.435 1.435 0 0 0-.443.014c-.097.018-.324.085-.526.109-.24.028-.332-.01-.483.005-.194.02-.37.068-.495.095-.163.036-.308.004-.462.01-.122.006-.255.05-.371.068-.151.022-.259-.033-.399-.032-.377.005-.75.078-1.04-.18.011-.129.18-.055.237-.058l.425-.021c.13-.007.249.029.38.02.122-.007.197-.032.378-.068.234-.046.252-.002.374-.021.176-.028.205-.059.52-.097.262-.032.285-.003.421-.026.15-.026.257-.08.416-.105.187-.029.378-.036.56-.042.147-.005.279-.085.523-.097.198-.01.305.002.501-.019.125-.013.165-.064.362-.076.183-.01.242.015.356.003.115-.013.075-.054.363-.074.172-.012.327-.013.472-.036.123-.02.124-.075.317-.11.187-.033.308-.011.421-.039.13-.031.105-.058.345-.108.207-.043.2-.014.315-.04.082-.02.12-.052.263-.087.135-.034.163 0 .289-.022.064-.012.146-.05.22-.062.07-.012.131 0 .208-.01.06-.01.146-.044.209-.053.072-.01.12.006.195-.003.072-.008.152-.044.225-.05.075-.007.143.016.217.011.075-.004.159-.032.232-.033.078 0 .145.026.219.03.07.003.157-.01.221-.003.084.01.143.044.214.064.05.014.146.03.189.048.07.031.09.06.158.088.06.024.119.019.177.04.064.024.126.074.187.095a6.398 6.398 0 0 0 1.266.303z" style="clip-rule:evenodd;fill:#2f99c6;stroke-width:.08714;stroke-linecap:round;stroke-linejoin:round;stroke-miterlimit:1.5"/>
  <path d="M16.162 14.88a2.585 2.585 0 0 0-.745-.216c-.106-.015-.171.005-.273-.002-.132-.01-.295-.058-.382-.062a4.12 4.12 0 0 1-.459-.043c-.089-.016-.167.063-.271.058-.113-.005-.254-.084-.375-.089-.134-.005-.264.064-.399.06-.146-.004-.297-.082-.434-.085-.132-.003-.197.054-.31.052-.118-.002-.281-.062-.364-.062-.12 0-.187.028-.292.017-.105-.011-.247-.06-.369-.067-.105-.005-.168.104-.273.097-.117-.007-.343-.1-.46-.106-.082-.005-.164.02-.246.016-.097-.005-.194-.041-.29-.046-.093-.004-.201.024-.293.02-.113-.002-.21-.035-.322-.035-.085 0-.218.033-.37.036-.134.003-.28-.024-.444-.02-.134.005-.237.033-.379.038-.116.005-.27-.014-.385-.01-.184.009-.362.086-.522.095-.278.015-.5-.037-.599-.02-.095.016-.22.076-.351.102-.17.034-.347.036-.444.058-.09.02-.156.075-.243.096-.09.022-.2.01-.294.034-.095.024-.16.078-.266.105-.085.021-.21.017-.307.04-.069.018-.205.097-.384.159-.129.044-.299.07-.39.103-.13.048-.21.123-.35.178-.109.043-.28.066-.385.108-.301.122-.573.236-.72.3-.1.043-.565.36-.565.472 0 0 .434-.124.706-.21.037-.012.25-.117.376-.154.136-.04.19-.013.342-.056.17-.047.239-.109.309-.12.093-.016.308-.015.466-.042.102-.017.222-.08.342-.1.113-.02.225.006.347-.015a721.484 721.484 0 0 1 .342-.056c.178-.03.35-.165.524-.194.13-.02.347.04.468.03.372-.03.595-.095.746-.117.159-.022.558.02.919-.008.193-.014.409-.124.602-.146.174-.019.333.053.483.046.31-.016.557-.097.643-.114.044-.009.453-.062.671-.027.242.038.31-.08.575-.073.084.002.17.14.297.13.114-.008.33-.105.4-.106.18-.002.23.075.354.063.184-.017.309-.034.374-.025.106.015.24.096.49.098.134.002.17-.072.32-.073.227-.002.26.108.493.12.146.008.342.035.502-.022.195-.07.354-.04.417-.04.143 0 .392-.076.658-.004.343.093.714-.05.79-.165z" style="clip-rule:evenodd;fill:#2f99c6;fill-rule:evenodd;stroke-width:.020907;stroke-linecap:round;stroke-linejoin:round;stroke-miterlimit:1.5"/>
  <path d="M16.632 15.13c-.028-.21-.033-.051-.174.14-.097.13-.208.139-.334.147-.095.006-.514.016-.626.028-.128.014-.238-.013-.595.054-.147.028-.61.15-.701.172-.17.043-.35.025-.552.036-.23.012-.434.04-.643.017-.144-.015-.368-.18-.522-.2-.154-.02-.256-.007-.37-.028a2.19 2.19 0 0 1-.482-.126c-.193-.088-.461-.354-.465-.357-.08-.06.096.239.274.387a2.8 2.8 0 0 0 .571.362c.12.058.217.118.337.16.187.066.393.103.548.122.188.024.5.1.806.109.215.006.462-.11.642-.179a9.31 9.31 0 0 1 .446-.154c.263-.082.507-.16.737-.175.198-.013.388.032.55.046.338.03.603-.187.553-.56zm-.187-.364a.019.019 0 0 0 .037-.002c.013-.077-.028-.128-.07-.164-.073-.062-.112-.096-.203-.142a1.766 1.766 0 0 0-.283-.104c-.288-.072-.663-.075-.957-.148-.11-.028-.187-.07-.265-.107a.69.69 0 0 0-.282-.077c-.135-.006-.489-.036-.64-.048-.505-.042-1.036-.013-1.488.106a8.572 8.572 0 0 0-.533.153c-.065.021-.3.166-.329.195a.02.02 0 0 0-.005.01.018.018 0 0 0 .004.016c.001.002.008.01.021.006.02-.005.161-.073.3-.127.109-.043.73-.183.91-.219.148-.03.499-.056.682-.05.171.004.798.054 1.038.134.178.06.362.157.542.194.16.033.415-.01.578-.01a1.703 1.703 0 0 1 .784.206c.073.05.144.126.159.178z" style="clip-rule:evenodd;fill:#2f99c6;fill-rule:evenodd;stroke-width:.020907;stroke-linecap:round;stroke-linejoin:round;stroke-miterlimit:1.5"/>
  <ellipse cx="16.704" cy="17.624" rx=".04" ry=".043" style="clip-rule:evenodd;fill:#f2f2f2;fill-rule:evenodd;stroke:#0e3855;stroke-width:.0113271px;stroke-linecap:butt;stroke-linejoin:miter;" transform="rotate(-6.958)"/>
  <ellipse cx="16.704" cy="17.624" rx=".04" ry=".043" style="clip-rule:evenodd;fill:#0e3855;fill-rule:evenodd;stroke:none;stroke-width:.0113271px;stroke-linecap:butt;stroke-linejoin:miter;" transform="rotate(-6.958)"/>
  <path d="M14.818 15.931c-.046-.041.308-.183.42-.199.112-.017.243 0 .201.08-.041.081-.207.107-.31.111-.104.005-.265.05-.31.008z" style="clip-rule:evenodd;fill:#f2f2f2;stroke:#0e3855;stroke-width:.0165551px;stroke-linecap:butt;stroke-linejoin:miter;"/>
  <path d="M14.818 15.931c-.046-.041.308-.183.42-.199.112-.017.243 0 .201.08-.041.081-.207.107-.31.111-.104.005-.265.05-.31.008z" style="clip-rule:evenodd;fill:#0e3855;stroke:none;stroke-width:.0165551px;stroke-linecap:butt;stroke-linejoin:miter;"/>
  <ellipse cx="21.84" cy="2.4" rx=".046" ry=".036" style="clip-rule:evenodd;fill:#f2f2f2;fill-rule:evenodd;stroke:#0e3855;stroke-width:.0156834px;stroke-linecap:butt;stroke-linejoin:miter;" transform="matrix(.8677 .49708 -.1593 .98723 0 0)"/>
  <ellipse cx="21.84" cy="2.4" rx=".046" ry=".036" style="clip-rule:evenodd;fill:#0e3855;fill-rule:evenodd;stroke:none;stroke-width:.0156834px;stroke-linecap:butt;stroke-linejoin:miter;" transform="matrix(.8677 .49708 -.1593 .98723 0 0)"/>
  <path d="M11.99 6.337c-.059-.311-.191-.673-.463-1.092-.525-.812-1.09-1.66-2.783-2.036-1.694-.376-4.582 1.125-4.105 3.529a7.614 7.614 0 0 1-.145-.688c.135-2.276 2.73-3.427 4.306-3.152 1.309.165 2.656 1.155 3.262 2.424.043.097.08.185.113.265-.06.424-.108.508-.184.75z" style="clip-rule:evenodd;fill:#2f99c6;stroke:none;stroke-width:.0200412px;stroke-linecap:butt;stroke-linejoin:miter;stroke-miterlimit:4"/>
  <path d="M10.519 8.061c.278-1.426-.478-1.997-.812-2.25-.334-.254-1.324-.636-2.083-.59-.759.046-1.872.531-2.015 1.39-.143.858.59 1.74 1.28 2.176-.536-.353-1.34-1.276-1.196-2.135.143-.858 1.154-1.287 1.913-1.333.76-.046 1.536.288 1.9.564.365.275 1.16.802.773 2.432Z" style="clip-rule:evenodd;fill:#2f99c6;stroke:none;stroke-width:.012199px;stroke-linecap:butt;stroke-linejoin:miter;stroke-miterlimit:4"/>
  <path d="M9.257 7.779c-.099-.501-.623-1.093-1.333-1.232-.71-.138-1.323.118-1.548.65-.225.532.262 1.081.65 1.353-.348-.25-.828-.78-.607-1.294.498-1.06 2.31-.776 2.743.513.097.483-.075.874-.428 1.141.454-.265.622-.63.523-1.131Z" style="clip-rule:evenodd;fill:#2f99c6;stroke:none;stroke-width:.012199px;stroke-linecap:butt;stroke-linejoin:miter;stroke-miterlimit:4"/>
  <path d="M16.786 15.685c-.445.165-.72.34-1.335.492-.615.153-1.492.127-1.728.123-.235-.003-1.523-.246-1.738-.325-.217-.08-.926-.64-.835-1.153.09-.515.97-.733 1.437-.811m4.383 1.029c.134-.048.34-.09.47-.076.13.015.709.096.923.19.213.093.371.05.447.113.075.062.145.22.069.31a.256.256 0 0 1-.32.055c-.106-.06-.038-.123-.217-.175a2.106 2.106 0 0 0-.761-.058c-.23.038-.332.054-.57.186" style="clip-rule:evenodd;fill:none;stroke:#0e3855;stroke-width:.0456406;stroke-linecap:butt;stroke-linejoin:miter;"/>
  <path fill="none" d="M16.225 7.202c.134-.048.34-.09.47-.075.129.014.708.095.922.189.214.094.371.05.447.113.076.062.146.22.069.311a.256.256 0 0 1-.32.054c-.105-.06-.037-.123-.217-.174-.179-.05-.53-.097-.76-.059-.232.038-.332.054-.57.186m-.449.436s-1.157-.245-1.609-.29a6.397 6.397 0 0 0-1.09-.017c-.429.018-1.475.152-1.475.152" style="clip-rule:evenodd;fill:#668000;fill-opacity:0;stroke:#0e3855;stroke-width:.0456425;stroke-linecap:butt;stroke-linejoin:miter;stroke-miterlimit:2.33333;"/>
  <path d="M10.527 8.057c.278-1.426-.478-1.998-.812-2.251-.334-.253-1.324-.636-2.083-.59-.759.046-1.872.532-2.015 1.39-.142.859.59 1.741 1.203 2.136.613.394 1.46.428 1.918.163.458-.265.626-.63.527-1.131-.099-.5-.622-1.092-1.333-1.231-.71-.139-1.323.118-1.548.65-.225.532.262 1.08.634 1.346.371.265.986.293 1.239.023.252-.27.13-.714-.086-.976s-.81-.426-1.15-.16c-.34.265-.08.788.169.948.248.16.536.22.714.026.179-.194.011-.447-.186-.548-.197-.1-.413-.046-.46.068-.048.114.025.243.145.321.12.079.341-.005.18-.125" style="clip-rule:evenodd;fill:none;stroke:#0e3855;stroke-width:.0456425;stroke-linecap:butt;stroke-linejoin:miter;stroke-miterlimit:2.33333;"/>
  <path d="M10.546 7.743c1.086-.261 1.523-1.38 1.65-2.196" style="clip-rule:evenodd;fill:none;stroke:#0e3855;stroke-width:.0456425;stroke-linecap:butt;stroke-linejoin:miter;stroke-miterlimit:2.33333;"/>
  <ellipse cx="16.903" cy="9.735" rx=".04" ry=".043" style="clip-rule:evenodd;fill:#0e3855;fill-rule:evenodd;stroke:none;stroke-width:.0113271px;stroke-linecap:butt;stroke-linejoin:miter;" transform="rotate(-6.958)"/>
</svg>
