<svg width="74" height="74" viewBox="0 0 74 74" fill="none" xmlns="http://www.w3.org/2000/svg">
<rect width="74" height="74" fill="white"/>
<g filter="url(#filter0_i_1228_7648)">
<path d="M20.2685 7.06032C17.1864 7.16534 14.0722 8.52147 11.4467 10.8913C2.65229 18.8045 5.89425 36.6901 30.3186 35.0554C33.1861 34.923 35.2911 32.6901 35.1953 30.2518C34.7112 13.5168 27.5515 6.80462 20.2685 7.05575V7.06032ZM52.9987 7.00096C45.4645 7.13794 37.8391 13.9963 38.9304 30.3111C39.1815 33.2654 40.8938 35.1284 43.7477 35.1832C67.5556 34.4937 71.067 20.2885 63.1082 11.4484C61.8379 10.0288 60.2785 8.89743 58.5349 8.13034C56.7912 7.36324 54.9035 6.97816 52.9987 7.00096ZM26.5926 38.8316C5.5792 39.1741 3.1226 55.6077 11.4467 63.0962C20.2913 71.055 34.5103 67.5573 35.1953 43.7356C35.2729 40.8681 33.8254 39.2151 30.3186 38.932C29.077 38.847 27.8324 38.8135 26.5881 38.8316H26.5926ZM46.2956 38.8316C45.4554 38.8407 44.5741 38.8773 43.6792 38.932C40.5285 39.1421 38.7249 40.827 38.8025 43.7356C39.4874 67.5573 53.7064 71.055 62.5511 63.0962C71.0213 55.4707 68.3364 38.5987 46.2956 38.8316Z" fill="#2F99C6"/>
<path d="M36.9989 44.8544C41.3389 44.8544 44.8572 41.3361 44.8572 36.996C44.8572 32.656 41.3389 29.1377 36.9989 29.1377C32.6588 29.1377 29.1405 32.656 29.1405 36.996C29.1405 41.3361 32.6588 44.8544 36.9989 44.8544Z" fill="#0E3855"/>
</g>
<defs>
<filter id="filter0_i_1228_7648" x="7" y="7" width="60" height="63.9308" filterUnits="userSpaceOnUse" color-interpolation-filters="sRGB">
<feFlood flood-opacity="0" result="BackgroundImageFix"/>
<feBlend mode="normal" in="SourceGraphic" in2="BackgroundImageFix" result="shape"/>
<feColorMatrix in="SourceAlpha" type="matrix" values="0 0 0 0 0 0 0 0 0 0 0 0 0 0 0 0 0 0 127 0" result="hardAlpha"/>
<feOffset dy="4"/>
<feGaussianBlur stdDeviation="7"/>
<feComposite in2="hardAlpha" operator="arithmetic" k2="-1" k3="1"/>
<feColorMatrix type="matrix" values="0 0 0 0 0 0 0 0 0 0 0 0 0 0 0 0 0 0 0.15 0"/>
<feBlend mode="normal" in2="shape" result="effect1_innerShadow_1228_7648"/>
</filter>
</defs>
</svg>
