<?xml version="1.0" encoding="utf-8"?>
<!-- Generator: Adobe Illustrator 16.0.3, SVG Export Plug-In . SVG Version: 6.00 Build 0)  -->
<!DOCTYPE svg PUBLIC "-//W3C//DTD SVG 1.1//EN" "http://www.w3.org/Graphics/SVG/1.1/DTD/svg11.dtd">
<svg version="1.1" id="Ebene_1" xmlns="http://www.w3.org/2000/svg" xmlns:xlink="http://www.w3.org/1999/xlink" x="0px" y="0px"
	 width="45px" height="44.982px" viewBox="0 0 45 44.982" enable-background="new 0 0 45 44.982" xml:space="preserve">
<g>
	<circle id="path-1_2_" fill="none" stroke="#FFFFFF" stroke-width="8" stroke-opacity="0.5" cx="22.507" cy="22.491" r="15"/>
</g>
<g>
	<circle id="path-3_2_" fill="none" stroke="#FFFFFF" stroke-width="4" cx="22.508" cy="22.491" r="15"/>
</g>
<g>
	<circle id="path-3_1_" fill="#2F99C6" cx="22.5" cy="22.491" r="15"/>
</g>
<g>
	<circle id="path-3_3_" fill="none" cx="22.5" cy="22.491" r="22.5"/>
</g>
<path fill="#FFFFFF" d="M24.789,28.116c0-0.346-0.281-0.625-0.625-0.625h-3.75c-0.345,0-0.625,0.279-0.625,0.625v3.75
	c0,0.344,0.281,0.625,0.625,0.625h3.75c0.345,0,0.625-0.281,0.625-0.625V28.116z M29.727,18.74c0-3.578-3.75-6.25-7.094-6.25
	c-3.188,0-5.563,1.359-7.25,4.156c-0.172,0.281-0.109,0.625,0.156,0.828l2.562,1.953c0.126,0.078,0.25,0.125,0.391,0.125
	c0.172,0,0.36-0.095,0.484-0.25c0.922-1.156,1.297-1.532,1.672-1.797c0.344-0.234,0.984-0.453,1.688-0.453
	c1.266,0,2.406,0.78,2.406,1.655c0,1-0.5,1.517-1.703,2.063c-1.375,0.625-3.25,2.25-3.25,4.14v0.703
	c0,0.346,0.219,0.875,0.563,0.875h3.75c0.36,0,0.625-0.404,0.625-0.75c0-0.453,0.579-1.529,1.5-2.063
	C27.713,22.85,29.727,21.71,29.727,18.74z"/>
</svg>
