<svg width="74" height="74" viewBox="0 0 74 74" fill="none" xmlns="http://www.w3.org/2000/svg">
<rect width="74" height="74" fill="white"/>
<g filter="url(#filter0_i_1228_7606)">
<path d="M74 24C72.7614 25.0336 70.9704 27.0014 71.4248 26.7386L69.9397 27.7596C69.7162 27.5108 65.7413 31.3566 65.9715 31.6113C65.9715 31.6113 60.9443 35.1867 60.6109 35.5335C60.3911 36.1424 60.048 36.4483 59.4748 36.8092C59.0196 37.9134 59.4599 38.5074 60.8663 38.272C60.7334 38.7911 60.6087 39.3146 60.3792 39.8032L60.5879 40.0111C60.1691 40.5606 59.1332 41.2326 58.476 41.8913L56.388 43.516C55.7286 44.1895 55.361 44.8504 55.1813 45.6271C54.689 46.4825 53.6487 46.7758 53.7192 47.2518C53.5967 47.4189 55.2325 46.4692 55.39 46.2538C55.0744 46.7254 53.8098 47.6773 53.7192 48.2498L54.5316 47.9008L54.2531 48.5513C54.5687 49.3607 55.955 48.4637 56.3649 48.18C57.6637 47.2192 59.0285 45.9033 60.2166 44.6061C60.6978 44.1568 61.0126 43.9229 61.8644 43.5851L62.1428 43.8635C61.7359 44.2422 61.6431 44.9313 61.4701 45.512C61.3936 45.7504 61.075 46.2278 61.424 46.2308C61.8369 46.2338 62.4302 45.5803 62.6997 45.3256C62.9789 45.062 63.2789 44.8749 63.6057 44.6759C63.6554 44.7873 63.4965 45.1162 63.6279 45.163C64.3957 45.3279 65.1428 43.6192 65.4383 43.9563L65.1598 44.491C66.8744 43.7031 66.7823 43.8331 69.3828 42.2633C69.8016 42.1786 70.0607 42.5566 69.9397 42.9353C69.8343 43.265 69.5796 43.3734 69.29 43.4922V43.6779H69.8469C70.0927 43.8784 70.3555 43.5955 70.5664 43.4232C71.1657 42.9346 71.6491 42.3368 72.1444 41.7524L72.5387 43.3994C72.581 43.6133 72.6204 43.9044 72.4459 44.0729C72.2045 44.3046 71.834 44.1368 71.4946 44.1657C70.8308 44.2207 70.5679 44.7086 70.4506 45.3256C70.9949 45.2425 71.2139 44.6603 71.4248 44.7227C71.5154 44.7487 71.5956 45.0071 71.6803 45.2328L71.9587 45.14C71.9053 45.3197 71.8771 45.417 71.7731 45.5811C71.6172 45.8261 70.6808 46.6221 71.8659 46.8805C71.8808 46.4573 71.8087 46.3088 72.0048 46.138C72.0642 46.086 72.235 46.1001 72.3293 46.0221C72.6857 45.7296 73.0072 45.3895 73.4431 45.2328C73.5931 45.3731 73.7921 45.4853 74 45.5811V43.3066C73.8515 42.8997 73.7632 42.4363 73.6748 42.1237C73.602 41.8668 73.5114 41.5556 73.5352 41.2883C73.5872 40.9044 73.7594 40.542 73.9993 40.1968V24.0007L74 24Z" fill="#2F99C6"/>
<path fill-rule="evenodd" clip-rule="evenodd" d="M7.28601 33.7699C6.98973 33.7588 6.73875 33.8093 6.56647 33.9088C6.2739 34.0729 6.10608 34.2399 5.89371 34.4657C5.74965 34.6068 5.61525 34.8592 5.47565 35.255C5.27367 35.8795 5.18679 36.2233 4.98853 36.856C4.89853 37.0783 4.76346 37.2796 4.59182 37.4471C4.42018 37.6147 4.2157 37.7449 3.99127 37.8295C3.52568 38.0263 3.10019 38.2305 2.66951 38.4792C2.5507 38.5869 1.88165 38.8505 1.71754 38.8505C1.09825 38.9418 0.562119 39.0436 0 39.1995V46.3229C0.0155938 46.3615 0.0297025 46.4016 0.0460388 46.4387C0.066088 46.4811 0.105444 46.5457 0.138859 46.6014C0.172274 46.6563 0.20866 46.7127 0.20866 46.7172C0.575485 47.113 0.781175 47.5132 1.04404 47.9706C0.858401 48.03 0.662365 48.0798 0.464101 48.1325C0.376479 48.16 0.325242 48.2201 0.278461 48.3182C0.459646 48.4199 0.642316 48.411 0.882163 48.411C0.976468 48.3932 1.06483 48.3791 1.16062 48.3649C1.2126 48.3798 1.24973 48.411 1.29948 48.4347C1.42052 48.4073 1.52002 48.3939 1.64774 48.3649C1.69007 48.3909 1.6767 48.4221 1.69378 48.4578C1.79032 48.4518 1.86383 48.33 1.99526 48.3419C3.08163 48.3887 4.16131 48.4325 5.17417 48.5276C5.23135 48.4949 5.27293 48.4451 5.31377 48.411C5.43629 48.3813 5.56624 48.4273 5.68505 48.4347C5.69248 48.4273 5.56327 48.3204 5.49941 48.2714C5.28407 48.1169 5.09694 48.0761 4.87269 48.1325C4.82739 48.1466 4.82219 48.1244 4.77987 48.0627C4.70635 47.9565 4.64992 47.9573 4.45537 47.9461C3.96859 47.9079 3.48074 47.8846 2.99252 47.8763C2.6851 47.5266 2.46011 47.136 2.20392 46.7387C2.06432 46.3786 2.02719 45.9583 2.01828 45.6019C2.05318 45.4237 2.17422 45.2677 2.31976 45.2529C2.49798 45.2573 2.56481 45.2469 2.80688 45.2076C4.03656 45.019 5.3212 44.7769 6.26425 43.9541C6.68974 43.5457 7.1078 42.8975 7.17017 42.3294C7.2422 41.6076 7.29938 41.0492 7.37809 40.2874C7.47314 39.7861 7.57338 39.2767 7.67957 38.7785C7.72412 38.6366 7.74195 38.503 7.74863 38.2676C7.7568 37.975 7.73229 37.6208 7.67883 37.4084C7.59343 37.0891 7.51546 36.7008 7.60903 36.4802C7.72487 36.2649 7.99739 36.1505 8.21199 36.0392C8.52164 35.9315 8.80455 35.9337 9.07039 36.0622C9.23821 36.1773 9.41642 36.2553 9.60355 36.3176C9.65553 36.331 9.67335 36.3421 9.67335 36.3644C9.67335 36.3822 9.71122 36.3644 9.71939 36.3414C9.73721 36.2894 9.73053 36.1446 9.69563 36.0161C9.65998 35.8832 9.6637 35.8996 9.48771 35.7147L9.32435 35.552C9.22707 35.3389 9.07039 35.0746 8.90703 35.0419C8.84374 34.8846 8.77439 34.7298 8.69911 34.5778C8.59738 34.2971 8.41174 34.0216 8.18748 33.9281C7.89395 33.8364 7.59012 33.7818 7.28304 33.7654L7.28601 33.7699ZM0.974241 45.6732C1.02548 45.6568 1.00914 45.838 1.02028 45.8826C1.05295 45.9472 1.02028 46.0496 1.02028 46.0912C0.972013 46.1647 1.00097 46.2308 0.99726 46.3006C1.03439 46.2932 1.08934 46.317 1.1131 46.3229C1.19478 46.4395 1.22077 46.5516 1.27572 46.6719C1.21939 46.6902 1.16473 46.7133 1.11236 46.741C1.24602 46.8189 1.36854 46.8048 1.48364 46.8338C1.54156 46.8293 1.54601 46.8338 1.5772 46.8568C1.62027 46.9207 1.62918 46.9994 1.69304 47.0202C1.89502 47.1969 1.97224 47.3513 2.1111 47.5771C2.19872 47.7167 2.25293 47.8927 2.13338 47.9484C1.97744 47.9914 1.93883 47.9699 1.7621 47.9706C1.70492 47.9476 1.66854 47.88 1.647 47.8548C1.63067 47.8058 1.62992 47.8117 1.5772 47.762C1.44874 47.6224 1.38413 47.5006 1.27498 47.3209C1.09676 47.0625 0.992805 46.7521 0.903697 46.4855C0.963102 46.4291 0.935628 46.3318 0.949736 46.2776C0.949736 46.1291 0.917063 45.9791 0.903697 45.8595C0.996518 45.8796 0.948251 45.6791 0.973498 45.6739L0.974241 45.6732Z" fill="#2F99C6"/>
<path d="M43.9709 27.6482C42.1783 27.6475 40.7875 29.2247 40.0182 29.939C39.2467 30.8821 38.3794 31.312 37.7853 31.4123C35.5762 32.391 33.4518 33.2479 31.7632 34.8266C29.5808 35.9315 28.2323 36.0132 26.3254 37.6676L26.7932 37.5971C24.9026 39.0376 22.4336 39.9213 20.572 40.9631C19.8755 41.2958 19.173 41.7168 18.2679 42.8106L19.0743 42.5299L18.5084 43.1388C19.1277 43.2264 17.5127 44.0484 17.157 44.2601C17.5268 44.318 17.8 44.243 18.0213 44.1205C17.8505 44.3135 17.6263 44.4472 17.6003 44.7992C18.3933 45.1266 19.3371 44.9781 19.7745 44.9284C20.428 44.5311 21.0666 44.2437 21.7037 43.969C22.525 43.5086 23.4376 43.0393 24.2529 42.5544C25.0816 42.2254 25.4507 42.175 26.0425 42.0398C28.3593 41.7391 29.8125 41.8163 32.2169 42.1215C32.499 42.1794 33.0738 42.2329 32.9884 42.671L32.7077 43.6066C32.508 44.2341 32.6854 44.5809 32.9884 45.0799C33.0745 45.3301 33.2899 45.3583 33.4792 45.4311C34.1795 45.9323 34.7238 46.49 35.3037 47.0202C35.5086 47.2786 35.2963 47.3098 35.1166 47.3714C34.7356 47.4063 34.2329 47.2318 33.9938 47.5125C33.7354 47.8095 33.78 47.958 33.7362 48.1437C33.9701 47.9313 34.2025 47.6291 34.4267 47.687L34.4371 48.0731C34.7564 48.0137 35.101 47.9469 35.4426 48.0501C35.7648 48.1117 36.0626 47.7902 36.4717 48.2135C37.2433 48.4288 38.3059 48.5684 38.845 48.9204L39.1375 49.2011C39.1843 49.0288 39.1784 48.8446 39.1843 48.6627C39.4903 48.8684 39.8266 49.0303 39.9789 49.3125L39.9209 48.8855C40.0858 48.9441 40.1155 49.0548 40.1898 49.1543L40.218 48.8387C40.3264 48.8305 40.5789 49.0444 40.7274 49.2026L40.61 48.7095L40.7155 48.838C40.5692 48.2781 39.8452 48.3939 39.3358 48.1949C39.1546 48.0278 38.7388 48.0041 38.4826 47.9328C38.2799 47.361 38.0541 47.2014 37.8514 47.0432C36.8742 46.5175 36.2364 45.668 35.6408 45.0205C35.6482 44.9588 35.6728 44.889 35.6757 44.8333C35.7351 43.7952 35.8747 43.6653 36.05 43.3252C36.3782 42.6962 36.8683 42.5373 37.2901 42.1787C37.9331 41.6047 38.5465 40.8584 39.2779 40.5183C40.4452 39.9658 41.2085 38.9418 42.061 38.0159C43.4503 36.5783 44.0941 35.0508 44.4699 33.3147C44.5605 32.8617 44.5107 32.4177 44.7506 31.9581C45.185 31.4531 45.6788 31.1115 46.154 30.718C46.4807 30.4729 46.8557 30.516 47.2062 30.4143L48.9839 30.1804C48.9431 29.4727 48.1003 29.0843 47.7327 28.9878L46.7154 28.7309C46.3359 28.5883 46.007 28.5593 45.5228 28.1814C44.9756 27.7938 44.4922 27.6505 43.9672 27.6438L43.9709 27.6482ZM34.6859 42.9197C34.5114 43.2383 34.3191 43.5465 34.2181 43.9489C34.1401 43.5732 34.2181 43.2554 34.2649 42.9316C34.4156 42.4014 34.8441 42.6197 34.6859 42.9197ZM34.2886 44.7316L34.4757 45.1534C34.573 45.2618 35.2436 45.8246 35.3408 45.8432L36.5571 46.8962C36.7287 47.0952 37.0458 47.3001 37.1534 47.563C36.8267 47.459 36.6411 47.1954 36.4406 47.0358C36.2646 46.9296 36.1138 46.7655 35.8896 46.6511C35.2547 46.1588 34.8151 45.6041 34.276 45.0843C34.1891 45.0049 34.2842 44.8497 34.2886 44.7323V44.7316Z" fill="#12466A"/>
</g>
<defs>
<filter id="filter0_i_1228_7606" x="0" y="24" width="74" height="29.3125" filterUnits="userSpaceOnUse" color-interpolation-filters="sRGB">
<feFlood flood-opacity="0" result="BackgroundImageFix"/>
<feBlend mode="normal" in="SourceGraphic" in2="BackgroundImageFix" result="shape"/>
<feColorMatrix in="SourceAlpha" type="matrix" values="0 0 0 0 0 0 0 0 0 0 0 0 0 0 0 0 0 0 127 0" result="hardAlpha"/>
<feOffset dy="4"/>
<feGaussianBlur stdDeviation="7"/>
<feComposite in2="hardAlpha" operator="arithmetic" k2="-1" k3="1"/>
<feColorMatrix type="matrix" values="0 0 0 0 0 0 0 0 0 0 0 0 0 0 0 0 0 0 0.15 0"/>
<feBlend mode="normal" in2="shape" result="effect1_innerShadow_1228_7606"/>
</filter>
</defs>
</svg>
