<svg width="28" height="28" viewBox="0 0 28 28" fill="none" xmlns="http://www.w3.org/2000/svg">
<path d="M20.4166 18.0833L16.9167 14.5833L13.4167 18.0833V4.6666C13.4167 4.35719 13.5396 4.06044 13.7584 3.84165C13.9772 3.62286 14.2739 3.49994 14.5833 3.49994H19.25C19.5594 3.49994 19.8561 3.62286 20.0749 3.84165C20.2937 4.06044 20.4166 4.35719 20.4166 4.6666V18.0833Z" stroke="black" stroke-width="1.15" stroke-linecap="round" stroke-linejoin="round"/>
<path d="M20.4167 5.25002H22.75C23.0594 5.25002 23.3562 5.37293 23.5749 5.59173C23.7937 5.81052 23.9167 6.10726 23.9167 6.41668V26.25C23.9167 26.5594 23.7937 26.8562 23.5749 27.075C23.3562 27.2937 23.0594 27.4167 22.75 27.4167H6.41667C5.79784 27.4167 5.20434 27.1708 4.76676 26.7332C4.32918 26.2957 4.08334 25.7022 4.08334 25.0833V2.91669" stroke="black" stroke-width="1.15" stroke-linecap="round" stroke-linejoin="round"/>
<path d="M22.75 5.24997V1.74998C22.75 1.44056 22.6271 1.14381 22.4083 0.925021C22.1895 0.706229 21.8927 0.583313 21.5833 0.583313H6.41667C5.79784 0.583313 5.20434 0.829145 4.76676 1.26673C4.32918 1.70431 4.08334 2.29781 4.08334 2.91664C4.08334 3.53548 4.32918 4.12897 4.76676 4.56656C5.20434 5.00414 5.79784 5.24997 6.41667 5.24997H10.5" stroke="black" stroke-width="1.15" stroke-linecap="round" stroke-linejoin="round"/>
</svg>
