<svg width="24" height="25" viewBox="0 0 24 25" fill="none" xmlns="http://www.w3.org/2000/svg">
<path fill-rule="evenodd" clip-rule="evenodd" d="M15.75 0.142822C16.1642 0.142822 16.5 0.478609 16.5 0.892822C16.5 1.30704 16.1642 1.64282 15.75 1.64282C14.9903 1.64282 14.5829 1.82388 14.3812 2.09282C14.3355 2.15384 14.304 2.21404 14.2834 2.26507C15.3522 2.89486 16.1471 3.95767 16.4098 5.24261C16.4927 5.64843 16.231 6.04467 15.8252 6.12763C15.4194 6.21058 15.0231 5.94885 14.9402 5.54303C14.7422 4.57459 14.0908 3.7954 13.2347 3.40855C13.2112 3.39967 13.1883 3.38965 13.166 3.37856C12.8056 3.22643 12.411 3.14307 12 3.14307C11.589 3.14307 11.1943 3.22643 10.8339 3.37856C10.8117 3.38965 10.7887 3.39967 10.7653 3.40855C9.90919 3.7954 9.25775 4.57459 9.05978 5.54303C8.97682 5.94885 8.58059 6.21058 8.17477 6.12763C7.76895 6.04467 7.50722 5.64843 7.59017 5.24261C7.85284 3.95767 8.64777 2.89486 9.71659 2.26507C9.69596 2.21405 9.66449 2.15384 9.61873 2.09282C9.41702 1.82388 9.00964 1.64282 8.24998 1.64282C7.83576 1.64282 7.49998 1.30704 7.49998 0.892822C7.49998 0.478609 7.83576 0.142822 8.24998 0.142822C9.45907 0.142822 10.3173 0.524263 10.8187 1.19282C10.9543 1.37358 11.0521 1.555 11.1199 1.72951C11.4054 1.67273 11.6998 1.64307 12 1.64307C12.3002 1.64307 12.5946 1.67273 12.8801 1.72951C12.9479 1.555 13.0457 1.37358 13.1812 1.19282C13.6826 0.524263 14.5409 0.142822 15.75 0.142822ZM5.99998 13.6428C5.99998 13.3668 6.01002 13.0958 6.0297 12.8303C6.03041 12.8141 6.03164 12.798 6.03339 12.7819C6.04277 12.6628 6.0541 12.5448 6.06733 12.4279C5.0759 12.7254 4.04423 12.8825 2.99998 12.8928C-1.00002 12.8928 -1.00002 6.14282 3.00797 6.14286C4.87738 6.16279 6.70757 6.65749 8.32825 7.57597C9.32353 6.66255 10.5836 6.14282 12 6.14282C13.4163 6.14282 14.6764 6.66255 15.6717 7.57597C17.2925 6.65749 19.1234 6.16278 21 6.14282C25 6.14282 25 12.8928 20.9925 12.8928C19.9535 12.8825 18.9235 12.7254 17.9326 12.428C17.9459 12.5448 17.9572 12.6628 17.9666 12.7819C17.9683 12.798 17.9695 12.8142 17.9703 12.8303C17.9899 13.0958 18 13.3668 18 13.6428C18 14.7807 17.8097 15.886 17.4843 16.9099C17.4784 17.0495 17.4337 17.1878 17.3497 17.3076C16.3833 19.9984 14.494 22.0564 12.75 22.5364V23.3928C12.75 23.807 12.4142 24.1428 12 24.1428C11.6203 24.1428 11.3065 23.8607 11.2568 23.4946L11.25 23.3928V22.5364C9.50595 22.0564 7.61666 19.9984 6.65021 17.3076C6.56626 17.1878 6.52158 17.0495 6.51566 16.91C6.19025 15.886 5.99998 14.7807 5.99998 13.6428ZM8.16691 17.0887C9.09736 19.4639 10.805 21.1428 12 21.1428C13.1949 21.1428 14.9025 19.464 15.8329 17.089C14.7604 16.2457 13.4052 15.8161 11.9584 15.8917C10.5853 15.8154 9.23816 16.245 8.16691 17.0887ZM16.2914 15.5709C15.0206 14.7283 13.5027 14.309 11.9587 14.394L11.6628 14.3835C10.2808 14.366 8.89157 14.7835 7.70834 15.57C7.57512 14.9511 7.49998 14.3044 7.49998 13.6428C7.49998 13.4832 7.50375 13.326 7.51119 13.1712C8.65566 11.9541 10.2824 11.2996 11.9588 11.3917C13.7135 11.3001 15.3438 11.9546 16.4888 13.1714C16.4962 13.3261 16.5 13.4832 16.5 13.6428C16.5 14.3047 16.4248 14.9517 16.2914 15.5709ZM15.0286 9.06318C15.4661 9.5676 15.8221 10.1943 16.0743 10.9238C14.8519 10.1828 13.4205 9.81411 11.9591 9.89394C10.5532 9.81376 9.14181 10.1813 7.92674 10.9207C8.17885 10.1925 8.53446 9.56687 8.9714 9.06318C8.99729 9.03801 9.02161 9.01071 9.0441 8.98132C9.82386 8.12383 10.8487 7.64282 12 7.64282C13.1512 7.64282 14.1761 8.12384 14.9559 8.98133C14.9783 9.01071 15.0027 9.03801 15.0286 9.06318ZM17.5806 10.7185C18.6706 11.1522 19.8317 11.3812 21 11.3928C23 11.3928 23 7.64282 21.008 7.64278C19.4883 7.65898 17.9986 8.03831 16.6615 8.74408C17.0449 9.32425 17.3555 9.9873 17.5806 10.7185ZM7.33847 8.74407C6.95506 9.32424 6.64445 9.98729 6.41932 10.7185C5.32931 11.1522 4.16758 11.3812 2.99255 11.3929C0.999978 11.3928 0.999978 7.64282 2.99998 7.64282C4.51287 7.65898 6.00151 8.03831 7.33847 8.74407Z" fill="black"/>
<mask id="mask0_1038_6768" style="mask-type:luminance" maskUnits="userSpaceOnUse" x="0" y="0" width="24" height="25">
<path fill-rule="evenodd" clip-rule="evenodd" d="M15.75 0.142822C16.1642 0.142822 16.5 0.478609 16.5 0.892822C16.5 1.30704 16.1642 1.64282 15.75 1.64282C14.9903 1.64282 14.5829 1.82388 14.3812 2.09282C14.3355 2.15384 14.304 2.21404 14.2834 2.26507C15.3522 2.89486 16.1471 3.95767 16.4098 5.24261C16.4927 5.64843 16.231 6.04467 15.8252 6.12763C15.4194 6.21058 15.0231 5.94885 14.9402 5.54303C14.7422 4.57459 14.0908 3.7954 13.2347 3.40855C13.2112 3.39967 13.1883 3.38965 13.166 3.37856C12.8056 3.22643 12.411 3.14307 12 3.14307C11.589 3.14307 11.1943 3.22643 10.8339 3.37856C10.8117 3.38965 10.7887 3.39967 10.7653 3.40855C9.90919 3.7954 9.25775 4.57459 9.05978 5.54303C8.97682 5.94885 8.58059 6.21058 8.17477 6.12763C7.76895 6.04467 7.50722 5.64843 7.59017 5.24261C7.85284 3.95767 8.64777 2.89486 9.71659 2.26507C9.69596 2.21405 9.66449 2.15384 9.61873 2.09282C9.41702 1.82388 9.00964 1.64282 8.24998 1.64282C7.83576 1.64282 7.49998 1.30704 7.49998 0.892822C7.49998 0.478609 7.83576 0.142822 8.24998 0.142822C9.45907 0.142822 10.3173 0.524263 10.8187 1.19282C10.9543 1.37358 11.0521 1.555 11.1199 1.72951C11.4054 1.67273 11.6998 1.64307 12 1.64307C12.3002 1.64307 12.5946 1.67273 12.8801 1.72951C12.9479 1.555 13.0457 1.37358 13.1812 1.19282C13.6826 0.524263 14.5409 0.142822 15.75 0.142822ZM5.99998 13.6428C5.99998 13.3668 6.01002 13.0958 6.0297 12.8303C6.03041 12.8141 6.03164 12.798 6.03339 12.7819C6.04277 12.6628 6.0541 12.5448 6.06733 12.4279C5.0759 12.7254 4.04423 12.8825 2.99998 12.8928C-1.00002 12.8928 -1.00002 6.14282 3.00797 6.14286C4.87738 6.16279 6.70757 6.65749 8.32825 7.57597C9.32353 6.66255 10.5836 6.14282 12 6.14282C13.4163 6.14282 14.6764 6.66255 15.6717 7.57597C17.2925 6.65749 19.1234 6.16278 21 6.14282C25 6.14282 25 12.8928 20.9925 12.8928C19.9535 12.8825 18.9235 12.7254 17.9326 12.428C17.9459 12.5448 17.9572 12.6628 17.9666 12.7819C17.9683 12.798 17.9695 12.8142 17.9703 12.8303C17.9899 13.0958 18 13.3668 18 13.6428C18 14.7807 17.8097 15.886 17.4843 16.9099C17.4784 17.0495 17.4337 17.1878 17.3497 17.3076C16.3833 19.9984 14.494 22.0564 12.75 22.5364V23.3928C12.75 23.807 12.4142 24.1428 12 24.1428C11.6203 24.1428 11.3065 23.8607 11.2568 23.4946L11.25 23.3928V22.5364C9.50595 22.0564 7.61666 19.9984 6.65021 17.3076C6.56626 17.1878 6.52158 17.0495 6.51566 16.91C6.19025 15.886 5.99998 14.7807 5.99998 13.6428ZM8.16691 17.0887C9.09736 19.4639 10.805 21.1428 12 21.1428C13.1949 21.1428 14.9025 19.464 15.8329 17.089C14.7604 16.2457 13.4052 15.8161 11.9584 15.8917C10.5853 15.8154 9.23816 16.245 8.16691 17.0887ZM16.2914 15.5709C15.0206 14.7283 13.5027 14.309 11.9587 14.394L11.6628 14.3835C10.2808 14.366 8.89157 14.7835 7.70834 15.57C7.57512 14.9511 7.49998 14.3044 7.49998 13.6428C7.49998 13.4832 7.50375 13.326 7.51119 13.1712C8.65566 11.9541 10.2824 11.2996 11.9588 11.3917C13.7135 11.3001 15.3438 11.9546 16.4888 13.1714C16.4962 13.3261 16.5 13.4832 16.5 13.6428C16.5 14.3047 16.4248 14.9517 16.2914 15.5709ZM15.0286 9.06318C15.4661 9.5676 15.8221 10.1943 16.0743 10.9238C14.8519 10.1828 13.4205 9.81411 11.9591 9.89394C10.5532 9.81376 9.14181 10.1813 7.92674 10.9207C8.17885 10.1925 8.53446 9.56687 8.9714 9.06318C8.99729 9.03801 9.02161 9.01071 9.0441 8.98132C9.82386 8.12383 10.8487 7.64282 12 7.64282C13.1512 7.64282 14.1761 8.12384 14.9559 8.98133C14.9783 9.01071 15.0027 9.03801 15.0286 9.06318ZM17.5806 10.7185C18.6706 11.1522 19.8317 11.3812 21 11.3928C23 11.3928 23 7.64282 21.008 7.64278C19.4883 7.65898 17.9986 8.03831 16.6615 8.74408C17.0449 9.32425 17.3555 9.9873 17.5806 10.7185ZM7.33847 8.74407C6.95506 9.32424 6.64445 9.98729 6.41932 10.7185C5.32931 11.1522 4.16758 11.3812 2.99255 11.3929C0.999978 11.3928 0.999978 7.64282 2.99998 7.64282C4.51287 7.65898 6.00151 8.03831 7.33847 8.74407Z" fill="white"/>
</mask>
<g mask="url(#mask0_1038_6768)">
<rect y="0.142822" width="24" height="24" fill="black"/>
</g>
</svg>
