<svg width="24" height="24" viewBox="0 0 24 24" fill="none" xmlns="http://www.w3.org/2000/svg">
<path d="M19.4915 7.7589C19.494 6.2884 19.0779 4.84757 18.2917 3.60485C17.5056 2.36213 16.3819 1.36886 15.0521 0.741154C13.7224 0.113449 12.2414 -0.122752 10.7823 0.0601615C9.32319 0.243075 7.94633 0.837546 6.81263 1.77408C5.67893 2.71061 4.83524 3.95051 4.3802 5.34883C3.92515 6.74715 3.87755 8.24612 4.24295 9.67049C4.60835 11.0949 5.37166 12.3858 6.44365 13.3924C7.51564 14.399 8.85201 15.0796 10.2965 15.3547C10.3522 15.3696 10.4016 15.4019 10.4375 15.4468C10.4735 15.4918 10.4941 15.5471 10.4964 15.6046V18.2531C10.4964 18.3194 10.4701 18.383 10.4232 18.4298C10.3764 18.4767 10.3128 18.503 10.2466 18.503H8.74739C8.41605 18.503 8.09828 18.6346 7.86399 18.8689C7.6297 19.1032 7.49807 19.421 7.49807 19.7523C7.49807 20.0837 7.6297 20.4014 7.86399 20.6357C8.09828 20.87 8.41605 21.0016 8.74739 21.0016H10.2466C10.3128 21.0016 10.3764 21.028 10.4232 21.0748C10.4701 21.1217 10.4964 21.1852 10.4964 21.2515V22.7507C10.4964 23.082 10.6281 23.3998 10.8623 23.6341C11.0966 23.8684 11.4144 24 11.7457 24C12.0771 24 12.3949 23.8684 12.6291 23.6341C12.8634 23.3998 12.9951 23.082 12.9951 22.7507V21.2515C12.9951 21.1852 13.0214 21.1217 13.0682 21.0748C13.1151 21.028 13.1787 21.0016 13.2449 21.0016H14.7441C15.0754 21.0016 15.3932 20.87 15.6275 20.6357C15.8618 20.4014 15.9934 20.0837 15.9934 19.7523C15.9934 19.421 15.8618 19.1032 15.6275 18.8689C15.3932 18.6346 15.0754 18.503 14.7441 18.503H13.2449C13.1787 18.503 13.1151 18.4767 13.0682 18.4298C13.0214 18.383 12.9951 18.3194 12.9951 18.2531V15.6046C12.9974 15.5471 13.018 15.4918 13.054 15.4468C13.0899 15.4019 13.1393 15.3696 13.195 15.3547C14.9638 15.0179 16.5599 14.0753 17.7091 12.689C18.8582 11.3028 19.4884 9.55949 19.4915 7.7589ZM6.49862 7.7589C6.49862 6.72112 6.80636 5.70664 7.38292 4.84375C7.95948 3.98087 8.77897 3.30833 9.73776 2.91119C10.6965 2.51404 11.7516 2.41013 12.7694 2.6126C13.7873 2.81506 14.7222 3.3148 15.456 4.04862C16.1898 4.78244 16.6896 5.71739 16.892 6.73524C17.0945 7.75308 16.9906 8.8081 16.5935 9.76689C16.1963 10.7257 15.5238 11.5452 14.6609 12.1217C13.798 12.6983 12.7835 13.006 11.7457 13.006C10.3549 13.0034 9.02184 12.4497 8.03839 11.4663C7.05493 10.4828 6.50126 9.14971 6.49862 7.7589Z" fill="black"/>
</svg>
