<?xml version="1.0" encoding="utf-8"?>
<!-- Generator: Adobe Illustrator 16.0.3, SVG Export Plug-In . SVG Version: 6.00 Build 0)  -->
<!DOCTYPE svg PUBLIC "-//W3C//DTD SVG 1.1//EN" "http://www.w3.org/Graphics/SVG/1.1/DTD/svg11.dtd">
<svg version="1.1" id="Ebene_1" xmlns="http://www.w3.org/2000/svg" xmlns:xlink="http://www.w3.org/1999/xlink" x="0px" y="0px"
	 width="45px" height="44.982px" viewBox="-3.492 -3.491 45 44.982" enable-background="new -3.492 -3.491 45 44.982"
	 xml:space="preserve">
<g>
	<circle id="path-1_2_" fill="none" stroke="#FFFFFF" stroke-width="8" stroke-opacity="0.5" cx="19.015" cy="19" r="15"/>
</g>
<g>
	<circle id="path-3_2_" fill="none" stroke="#638B54" stroke-width="4" cx="19.016" cy="19" r="15"/>
</g>
<g>
	<circle id="path-3_1_" fill="#729F62" cx="19.016" cy="19" r="15"/>
</g>
<path id="Page-1" fill="#FFFFFF" d="M26.216,14.764c0-2.006-1.612-3.633-3.601-3.633c0-2.004-1.611-3.631-3.601-3.631
	s-3.601,1.627-3.601,3.631c-1.986,0-3.601,1.627-3.601,3.633c0,0.855,0.308,1.633,0.799,2.254c-1.53,0.725-2.599,2.281-2.599,4.102
	c0,2.508,2.015,4.539,4.5,4.539h3.6V30.5h1.802v-4.842h3.6c2.486,0,4.5-2.031,4.5-4.539c0-1.82-1.067-3.377-2.599-4.102
	C25.909,16.396,26.216,15.619,26.216,14.764z"/>
<g>
	<circle id="path-3_3_" fill="none" cx="19.008" cy="19" r="22.5"/>
</g>
</svg>
