<svg width="74" height="74" viewBox="0 0 74 74" fill="none" xmlns="http://www.w3.org/2000/svg">
<rect width="74" height="74" fill="white"/>
<g filter="url(#filter0_i_1228_7664)">
<path d="M45.1379 25.2893C41.7869 25.8633 38.4091 26.8483 36.9754 27.7793C34.6782 29.2716 28.5374 29.4446 25.6547 30.5118C24.2058 31.0209 22.3228 31.9245 20.9445 33.0699C19.7227 34.0881 19.3727 34.1645 18.6345 35.189C18.1318 36.2517 16.5409 37.0535 15.3 38.498C14.8164 38.988 14.6701 39.7962 13.951 40.598C13.601 40.9925 13.2128 40.967 12.4237 41.9916C10.572 44.0533 8.80291 47.0187 7.0084 49.666C7.0084 49.8887 6.90022 50.2132 7.46021 49.8569C16.2609 43.8815 23.0635 40.9098 27.1871 39.0007C28.5552 38.1353 29.2743 36.874 30.0634 35.4734C31.1706 37.2488 32.0297 37.5479 34.3524 36.867C33.7924 37.4843 33.3406 37.8534 32.787 39.457C32.3542 40.5133 33.0924 41.4679 32.6661 42.2824C32.3797 42.4956 31.9852 42.976 31.6352 43.347C31.2661 44.0343 32.3924 43.3406 32.7361 43.2159C33.0479 43.0505 33.4297 42.605 33.6142 44.0012L33.8115 45.382C34.3142 46.4409 34.5242 44.3766 34.556 43.8586C34.6515 43.1726 35.0142 43.8713 35.2369 44.4313L35.8796 45.4877C36.9869 46.7445 35.7441 44.0813 35.6314 43.249C35.7142 43.1045 35.8955 43.2223 36.096 43.3814C37.2885 44.5013 36.0387 42.1087 35.4946 41.9496C35.2655 41.9279 35.2401 41.5359 35.1599 41.2432C35.0835 39.6613 35.1981 38.8556 35.4208 38.4649C35.9566 37.3736 36.1208 36.0519 37.8071 35.7324C38.0585 36.2962 37.9503 36.8906 38.3754 37.3341C38.7572 37.6905 38.9672 37.5887 39.1008 37.9641C39.4699 38.6832 39.5781 38.1486 39.7817 38.0596C39.9408 38.2161 39.9026 38.4401 39.9026 38.6501C40.1126 39.149 40.3799 38.7564 40.6217 38.6864L40.7744 39.0109C41.2708 39.6778 41.0417 38.1709 41.1931 38.1073C41.9059 38.1327 42.1833 38.3555 42.6758 38.4827C43.3567 38.2746 42.2495 37.7955 41.5845 37.35C40.1483 36.8791 39.93 36.1346 39.5896 35.4219C41.733 35.2488 43.8651 34.9565 45.976 34.5463C48.5023 33.9099 51.0063 33.5599 53.5931 32.1192C54.2453 31.6929 53.5994 33.4937 53.9367 33.8348C54.2294 34.1403 53.9151 35.4893 54.3026 36.4502C54.3853 36.8734 54.5921 37.2775 54.2962 37.7611C54.1753 38.4611 54.5489 38.3236 54.8117 38.372C55.238 38.5056 54.4108 39.5136 54.3771 40.1538C54.5298 41.0669 55.3125 38.862 55.4951 39.2406L55.6949 40.4573C55.9749 41.8573 56.4547 38.6119 56.3377 37.6447C56.2397 35.6223 56.1582 34.5157 55.9272 33.9506C55.6218 33.2952 55.3119 32.3744 56.1283 31.4307C56.9237 30.8707 57.331 31.4778 57.7656 31.9932C58.0647 32.4769 57.9438 33.1959 57.9947 33.3754C58.192 33.9322 58.5611 33.2227 58.8729 32.9191C59.3597 32.8046 59.662 33.3837 60.031 33.7018C60.801 34.2185 60.7119 33.9055 60.5083 33.4855L60.1201 32.7918C59.9229 32.4291 60.4956 32.4959 60.913 32.7918C61.3502 32.9866 61.8529 33.4887 62.0139 33.1832C62.1221 32.767 60.5248 31.8087 60.1087 31.8736C59.2598 31.908 58.4096 30.9986 58.1334 30.2827C58.1939 29.9684 58.5471 29.85 58.7526 29.6336C59.0453 29.3218 59.3762 29.0972 59.8026 29.1551C60.6935 28.9069 61.3394 28.5697 61.718 28.1433L64.1934 27.5833C64.8858 27.4344 64.9888 27.1678 65.5011 26.9406C66.5129 26.499 67.162 25.9097 66.9647 25.7888C66.6834 25.8887 64.6166 26.8273 63.8148 26.8452C64.9475 26.3507 67.1302 25.8353 66.9838 25.2498C66.9456 24.3946 66.1884 24.1044 65.5495 23.9052C64.9303 23.7079 64.5122 23.7716 64.1304 23.4725C63.8421 23.0016 63.3324 22.7725 62.4504 23.3134C61.9668 23.552 61.2261 23.5959 60.5987 23.7156L57.744 24.4595C55.518 24.9558 53.4321 24.9622 51.3805 24.854C49.7451 24.714 47.4669 24.9176 45.1735 25.3071L45.1379 25.2893Z" fill="#2F99C6"/>
<path d="M63.2542 24.9437C63.5214 24.9883 63.9096 25.281 63.6996 25.5482C63.4896 25.8219 63.0124 25.911 62.6178 25.7646C62.446 25.7137 62.3187 25.3573 62.4905 25.1792C62.656 25.001 62.8851 24.8915 63.2414 24.9501L63.2542 24.9437Z" fill="#2F99C6"/>
<path d="M63.2542 24.9437C63.5214 24.9883 63.9096 25.281 63.6996 25.5482C63.4896 25.8219 63.0124 25.911 62.6178 25.7646C62.446 25.7137 62.3187 25.3573 62.4905 25.1792C62.656 25.001 62.8851 24.8915 63.2414 24.9501L63.2542 24.9437Z" fill="white"/>
</g>
<defs>
<filter id="filter0_i_1228_7664" x="7" y="23" width="60" height="31.0154" filterUnits="userSpaceOnUse" color-interpolation-filters="sRGB">
<feFlood flood-opacity="0" result="BackgroundImageFix"/>
<feBlend mode="normal" in="SourceGraphic" in2="BackgroundImageFix" result="shape"/>
<feColorMatrix in="SourceAlpha" type="matrix" values="0 0 0 0 0 0 0 0 0 0 0 0 0 0 0 0 0 0 127 0" result="hardAlpha"/>
<feOffset dy="4"/>
<feGaussianBlur stdDeviation="7"/>
<feComposite in2="hardAlpha" operator="arithmetic" k2="-1" k3="1"/>
<feColorMatrix type="matrix" values="0 0 0 0 0 0 0 0 0 0 0 0 0 0 0 0 0 0 0.15 0"/>
<feBlend mode="normal" in2="shape" result="effect1_innerShadow_1228_7664"/>
</filter>
</defs>
</svg>
