<svg width="74" height="74" viewBox="0 0 74 74" fill="none" xmlns="http://www.w3.org/2000/svg">
<rect width="74" height="74" fill="white"/>
<g filter="url(#filter0_i_1228_7618)">
<path d="M36.0801 7.00004C33.2748 6.97454 31.4088 18.5035 31.192 22.8067C30.9914 26.803 32.3609 31.9529 34.0084 33.0079C33.9523 33.3437 33.9038 33.6812 33.8486 34.0169L30.5545 31.4412C30.5698 31.4199 30.5944 31.4089 30.608 31.3876C31.6009 29.8149 28.8075 24.665 25.6401 21.7441C22.4726 18.8232 13.0935 11.8983 11.1085 13.8807C9.6676 15.3199 15.0912 24.8453 20.1408 28.465C24.6871 31.7234 28.7225 32.7605 30.2093 31.7854C31.26 32.6168 32.1331 33.2935 33.3173 34.2295C33.0963 34.3187 32.8735 34.4054 32.6533 34.4956C30.9081 33.342 25.9869 33.2289 22.3723 34.2295C18.2204 35.3797 7.3902 39.6794 8.02692 42.4116C8.48937 44.3949 19.4497 44.8191 25.1887 42.4388C30.9268 40.0586 34.0229 36.7534 33.211 35.0796C33.1872 35.0303 33.1371 34.9946 33.1048 34.9469C33.3725 34.8619 33.6284 34.7633 33.9021 34.6817C37.4691 37.5015 41.1025 40.3731 45.1124 43.5542C44.8038 43.6791 44.4918 43.8007 44.1824 43.9265C42.2824 42.6675 36.9395 42.5162 32.9985 43.6077C28.4726 44.8608 16.6579 49.5822 17.3516 52.5592C17.8549 54.7219 29.7987 55.1809 36.0537 52.5864C42.3087 49.9919 45.6513 46.3875 44.7672 44.5632C44.7392 44.5063 44.6992 44.4587 44.661 44.4043C45.0214 44.2887 45.3793 44.1679 45.7499 44.0591C51.2569 48.4278 53.3625 50.1076 56.615 52.6927C56.1832 52.912 55.7462 53.1348 55.3144 53.3566C53.0948 52.1155 47.0633 52.4887 42.7482 54.1005C37.816 55.9426 25.1045 62.3455 26.1714 65.6031C26.945 67.9681 40.3195 67.3067 47.0514 63.7967C53.7842 60.2875 57.171 55.9443 56.0046 53.9951C55.9647 53.9287 55.8975 53.8692 55.8448 53.808C56.329 53.606 56.8161 53.4114 57.3061 53.224L63.6555 58.271L64.2132 57.8995L57.5714 52.6664C57.6445 52.2073 57.7278 51.7584 57.8111 51.3113C59.9703 51.9064 63.4472 47.6984 65.4348 40.4726C67.4495 33.1532 65.28 19.9309 62.8054 19.6716C59.3957 19.3145 55.7845 33.0852 55.0211 38.2938C54.3197 43.0815 55.3824 49.4045 57.2262 50.9662C57.1225 51.3564 57.0103 51.7449 56.9074 52.135C53.6558 49.5695 51.5901 47.9543 46.2013 43.7131C46.2285 43.2702 46.2693 42.8443 46.3076 42.4125C48.2713 42.682 50.9831 38.661 52.1257 32.1306C53.2937 25.4607 50.2274 13.9003 48.0078 13.8807C44.95 13.8527 42.931 26.4043 42.6947 31.0952C42.4771 35.4222 43.9698 40.9733 45.7499 42.1728C45.6921 42.5188 45.6207 42.863 45.5638 43.209C41.5275 40.0322 38.0693 37.2958 34.4598 34.4683C34.4853 34.0305 34.5023 33.5927 34.5397 33.1677C36.3402 33.3913 38.8072 29.7104 39.8528 23.7359C40.9239 17.616 38.1169 7.01874 36.0801 7.00004Z" fill="#2F99C6" stroke="#2F99C6" stroke-width="0.5"/>
<path d="M62.1942 25.1972C62.0633 33.7483 59.5155 42.3895 57.2262 50.9661C57.3886 51.1039 57.5569 51.2254 57.7312 51.2849C57.7584 51.2934 57.7822 51.3036 57.8111 51.3113C59.5181 42.0758 63.239 35.2598 62.1942 25.1972V25.1972ZM44.1824 43.9265C36.9166 46.8806 29.6423 50.071 22.1598 51.1251C31.1334 50.9355 36.744 46.9418 44.661 44.4042C44.5411 44.2342 44.3974 44.0676 44.1824 43.9265ZM36.0801 11.5956C36.6403 18.586 35.2079 25.8288 34.0084 33.0079C34.1311 33.0829 34.2656 33.1367 34.4062 33.1668C34.4496 33.177 34.4955 33.1617 34.5397 33.1668C35.2121 25.5194 37.714 19.7073 36.0801 11.5956V11.5956ZM47.9814 18.875C48.5901 26.4766 47.0557 34.3655 45.7499 42.1727C45.8995 42.2731 46.022 42.3496 46.175 42.3853C46.2166 42.3955 46.2659 42.4057 46.3076 42.4116C47.048 34.0892 49.759 27.7033 47.9823 18.875H47.9814ZM15.3853 17.8387C17.5845 21.064 20.3074 24.1278 23.4613 26.4723C24.1583 26.9909 26.9067 29.1748 30.2093 31.7854C30.3446 31.6926 30.4616 31.5756 30.5545 31.4403C27.109 28.7412 24.257 26.5072 23.6738 26.1008C21.1048 24.3071 18.336 21.4049 15.3853 17.8387V17.8387ZM55.3135 53.3575C47.4773 57.3699 39.6403 61.6204 31.3782 63.5314C41.3796 62.4416 47.2538 57.4167 55.8448 53.8089C55.6966 53.6272 55.5166 53.4739 55.3135 53.3566V53.3575ZM32.6534 34.4955C25.9826 37.2073 19.3051 40.1427 12.4372 41.1101C20.6721 40.9359 25.8381 37.2753 33.1048 34.9469C32.9852 34.7685 32.8318 34.6151 32.6534 34.4955V34.4955Z" fill="#216B8B"/>
</g>
<defs>
<filter id="filter0_i_1228_7618" x="7.74989" y="6.75" width="58.7284" height="64.5" filterUnits="userSpaceOnUse" color-interpolation-filters="sRGB">
<feFlood flood-opacity="0" result="BackgroundImageFix"/>
<feBlend mode="normal" in="SourceGraphic" in2="BackgroundImageFix" result="shape"/>
<feColorMatrix in="SourceAlpha" type="matrix" values="0 0 0 0 0 0 0 0 0 0 0 0 0 0 0 0 0 0 127 0" result="hardAlpha"/>
<feOffset dy="4"/>
<feGaussianBlur stdDeviation="7"/>
<feComposite in2="hardAlpha" operator="arithmetic" k2="-1" k3="1"/>
<feColorMatrix type="matrix" values="0 0 0 0 0 0 0 0 0 0 0 0 0 0 0 0 0 0 0.15 0"/>
<feBlend mode="normal" in2="shape" result="effect1_innerShadow_1228_7618"/>
</filter>
</defs>
</svg>
