<?xml version="1.0" encoding="utf-8"?>
<!-- Generator: Adobe Illustrator 16.0.3, SVG Export Plug-In . SVG Version: 6.00 Build 0)  -->
<!DOCTYPE svg PUBLIC "-//W3C//DTD SVG 1.1//EN" "http://www.w3.org/Graphics/SVG/1.1/DTD/svg11.dtd">
<svg version="1.1" id="Ebene_1" xmlns="http://www.w3.org/2000/svg" xmlns:xlink="http://www.w3.org/1999/xlink" x="0px" y="0px"
	 width="45px" height="44.982px" viewBox="0 0 45 44.982" enable-background="new 0 0 45 44.982" xml:space="preserve">
<g>
	<circle id="path-1_2_" fill="none" stroke="#FFFFFF" stroke-width="8" stroke-opacity="0.5" cx="22.507" cy="22.491" r="15"/>
</g>
<g>
	<circle id="path-3_2_" fill="none" stroke="#638B54" stroke-width="4" cx="22.508" cy="22.491" r="15"/>
</g>
<g>
	<circle id="path-3_1_" fill="#729F62" cx="22.508" cy="22.491" r="15"/>
</g>
<g>
	<circle id="path-3_3_" fill="none" cx="22.5" cy="22.491" r="22.5"/>
</g>
<g>
	<g>
		<g>
			<path fill="#FFFFFF" d="M32.616,21.964c0,3.784-0.924,10.747-3.271,10.747H17.511c0.073-0.018,0.155-0.036,0.229-0.063
				c1.7-0.521,3.318-1.874,4.387-3.618c0.273-0.439,0.52-0.905,0.73-1.381c0.146-0.329,0.184-0.476,0.284-0.758
				c0.082-0.292,0.164-0.585,0.191-0.868c0.183-1.134,0-2.33-0.494-3.373c-0.483-1.05-1.289-1.945-2.256-2.522
				c-0.248-0.164-0.467-0.255-0.777-0.401l-0.346-0.128l-0.457-0.118c-0.567-0.12-1.142-0.11-1.691,0
				c-1.097,0.22-2.038,0.876-2.614,1.708c-0.292,0.43-0.493,0.823-0.612,1.362c-0.101,0.493-0.082,0.987,0.046,1.425
				c0.237,0.905,0.859,1.563,1.517,1.91c0.092,0.037,0.146,0.073,0.265,0.119c0.082,0.027,0.12,0.056,0.237,0.082
				c0.202,0.064,0.366,0.082,0.539,0.082c0.339,0.019,0.659-0.045,0.914-0.155c0.53-0.21,0.841-0.557,1.015-0.795
				c0.165-0.256,0.22-0.402,0.22-0.402l0.019-0.055c0.082-0.228-0.028-0.484-0.266-0.575c-0.229-0.091-0.493,0.027-0.584,0.256
				c0,0-0.037,0.092-0.137,0.237c-0.101,0.137-0.284,0.339-0.594,0.467c-0.155,0.054-0.338,0.091-0.539,0.082
				c-0.091,0-0.22-0.028-0.293-0.046c-0.026,0-0.119-0.046-0.182-0.064l-0.156-0.082c-0.438-0.237-0.859-0.694-1.015-1.307
				c-0.173-0.612-0.018-1.297,0.439-1.937c0.448-0.621,1.16-1.096,1.983-1.251c0.411-0.083,0.84-0.073,1.262,0.009l0.282,0.082
				l0.348,0.127c0.155,0.092,0.402,0.192,0.576,0.32c0.777,0.475,1.416,1.206,1.791,2.046c0.384,0.85,0.512,1.811,0.357,2.706
				c-0.111,0.85-0.594,1.764-1.06,2.513c-0.978,1.535-2.367,2.622-3.719,3.015c-1.353,0.421-2.56,0.184-3.335-0.082
				c-0.292-0.1-0.521-0.201-0.704-0.283c-0.009,0-0.009-0.01-0.018-0.01c-2.44-1.333-4.103-3.938-4.103-6.916
				c0-2.513,0.941-4.871,4.395-6.918c3.455-2.056,7.383-0.932,9.787,0.786c1.736,1.252,3.39,3.436,4.377,5.684
				c0.631-2.039,1.078-4.742,1.817-5.849l-1.087-2.796c-0.138-0.347,0.036-0.749,0.384-0.886c0.356-0.128,0.749,0.045,0.896,0.393
				l1.087,2.797c0.257,0.027,0.539,0.091,0.832,0.182l0.795-2.833c0.101-0.365,0.484-0.576,0.841-0.475
				c0.365,0.11,0.575,0.484,0.476,0.85l-0.868,3.069C34.278,18.986,35.028,20.521,32.616,21.964z"/>
		</g>
	</g>
</g>
</svg>
