<svg width="74" height="74" viewBox="0 0 74 74" fill="none" xmlns="http://www.w3.org/2000/svg">
<g clip-path="url(#clip0_1228_7655)">
<rect width="74" height="74" fill="white"/>
<g filter="url(#filter0_i_1228_7655)">
<path d="M116 36.5007C116 42.2947 101.36 47 86.2945 47C71.2288 47 59 42.2947 59 36.5007C59 30.7053 71.2288 26 86.2945 26C101.36 26 116 30.7053 116 36.5007Z" fill="white" stroke="#12466A" stroke-width="1.13384" stroke-linecap="round"/>
<path d="M18.3296 35.4855C18.3296 50.0996 3.6052 61.9676 -11.5477 61.9676C-26.7005 61.9676 -39 50.0996 -39 35.4855C-39 20.8679 -26.7005 9 -11.5477 9C3.6052 9 18.3296 20.8679 18.3296 35.4855Z" fill="white" stroke="#12466A" stroke-width="1.13384" stroke-linecap="round"/>
<path d="M66.0135 37.4625C66.0135 51.9101 52.1174 63.6366 37.817 63.6366C23.5166 63.6366 11.9091 51.9101 11.9091 37.4625C11.9091 23.0149 23.5166 11.2884 37.817 11.2884C52.1174 11.2884 66.0135 23.0149 66.0135 37.4625Z" fill="white" stroke="#2F99C6" stroke-width="1.13384"/>
<path d="M63.4737 21.8398C63.7014 22.1628 62.4021 24.0319 62.6102 24.3617C62.8143 24.1315 63.0223 23.9048 63.2304 23.6814L63.25 23.6643C63.5209 23.3894 65.2402 22.5648 65.2755 22.9221C65.2755 22.9359 64.0861 24.4889 63.7446 24.7706C63.6151 24.8805 64.6592 24.5816 64.5375 24.7019C64.2078 25.0248 63.8702 25.7361 63.5797 26.09C63.8349 26.5263 65.6249 25.3203 65.621 25.5883C65.6053 25.7532 64.9811 26.6534 64.832 26.7909C64.3884 27.2891 64.7534 27.5055 65.354 27.399C65.6995 27.3406 65.3933 28.1686 64.7574 28.6806C65.4796 30.2679 65.6995 30.9001 66.0685 32.5802C66.2687 32.5218 66.4846 32.5115 66.673 32.6214C66.8457 32.7177 66.9478 32.8963 66.9438 33.075C66.9356 33.1912 66.8832 33.3016 66.795 33.3888C66.7068 33.4759 66.5879 33.5348 66.4571 33.556C66.359 33.5732 66.3236 33.6041 66.2726 33.6384C66.6058 35.5839 66.6822 37.5564 66.5003 39.5171C66.7947 39.4244 67.0184 39.7542 66.9988 39.9638C66.9713 40.2593 66.9203 40.4551 66.3864 40.5307C66.1236 42.4348 65.6288 44.3088 64.9105 46.1208C65.1107 46.5606 65.4208 47.0038 65.3697 47.4676C65.2912 48.2682 65.0086 49.2886 64.6514 49.1684C64.4276 49.0928 64.671 48.275 64.2235 47.691C63.9644 48.2407 64.6828 49.6906 64.3805 50.2197C64.4747 50.2609 63.5562 49.4123 63.6111 49.5051C63.6245 49.5244 63.6376 49.5439 63.6504 49.5635C64.1607 50.4362 63.9487 51.1268 64.357 52.0373C64.4551 52.2434 65.1617 53.2604 65.1617 53.3532C63.0616 52.5904 63.1833 51.7864 62.9988 51.0993C62.937 50.8447 62.8584 50.5934 62.7632 50.3468C62.5905 50.6217 62.9988 51.7418 62.8143 52.0098C62.7515 52.0991 62.1077 51.3329 62.0488 51.4223C62.2726 52.0063 62.2686 52.5423 62.4492 53.1402C62.567 53.5422 62.567 54.8272 62.5552 54.9921C62.512 55.3906 62.0488 54.2362 61.8251 53.738C61.6052 53.2535 61.2637 52.5458 61.248 52.508C60.9418 52.8997 61.935 55.1398 61.5189 54.8375C60.773 54.2912 60.2706 54.2705 60.7848 55.078C61.0596 55.5143 61.1538 56.0228 61.3344 56.5004C61.4678 56.8577 61.6602 57.7304 61.6563 57.8335C61.617 58.1599 60.5768 56.9058 60.3883 56.4076C60.1136 55.6827 59.6857 55.3563 59.4305 54.6347C59.0772 55.0058 60.1489 57.1807 59.776 57.538C59.882 57.6789 58.4649 56.0606 58.5002 56.2427C58.7789 57.7407 59.0262 59.2456 59.2186 60.7539C59.25 61.0082 58.9359 62.5543 58.8928 62.6196C58.6965 62.9151 58.5591 61.8225 58.3039 61.4995C57.9781 61.0975 58.0174 60.1149 57.9506 59.6201C57.774 58.2698 57.6248 57.9469 57.3775 56.6103C57.4443 59.627 57.5385 62.8704 56.0036 57.7442C56.0782 57.9641 56.1214 59.6682 56.1214 60.0324C56.1214 60.8914 56.0664 61.8087 55.5326 62.4718C55.2853 62.7811 54.3903 63.2002 54.3903 63.2002C54.0841 63.4408 53.0242 62.7879 53.4089 62.9597C53.6287 63.0559 54.8652 61.7228 54.9202 60.7539C54.9595 59.9534 54.826 59.7301 54.7907 59.0017C54.5159 59.1941 54.6729 60.9841 54.3903 61.1662C54.5355 61.2693 53.6719 60.857 53.5777 61.0529C53.0713 62.1455 52.8672 62.41 52.4432 63.3274C52.1606 63.9458 50.402 64.5162 50.6101 64.2654C51.191 63.5782 51.9918 63.1453 51.9408 62.1626C51.3127 62.5303 51.352 63.1281 50.6925 63.4511C50.6375 63.5473 50.088 62.1558 50.0369 62.2588C49.4324 63.4167 49.4324 63.8049 48.7926 64.9525C48.4393 65.595 48.2509 66.4093 47.4108 66.6017C47.2852 66.6292 46.1508 66.8079 46.296 66.7975C46.4255 66.7872 47.3323 65.3476 47.4462 65.1106C47.9643 64.0317 48.4785 62.0596 48.2312 62.1558C48.0546 62.7227 47.5011 64.2997 47.348 64.4784C44.9064 67.3438 46.241 64.444 46.4805 63.7603C46.559 63.5335 46.8063 62.7879 46.8573 62.6505C46.7151 62.6973 46.5725 62.7431 46.4295 62.7879C46.3392 63.214 45.9427 63.5679 45.6444 63.8599C44.9653 64.523 44.3215 65.3098 43.348 65.5675C43.034 65.65 41.4991 66.0382 41.6522 65.8802C42.2096 65.3133 42.9123 63.6778 42.4805 63.75C41.9309 64.5918 41.2754 65.3854 40.7925 66.265C40.7415 66.3543 39.5128 66.8972 39.4893 66.5502C39.4657 66.21 39.6855 65.8871 39.8818 65.5607C40.2155 65.0144 40.5884 64.4887 40.9574 63.963C40.8161 63.9802 39.9682 65.035 39.5678 65.2239C39.0507 65.5207 38.5693 65.8626 38.1311 66.2444C37.9348 66.4334 34.6492 66.9418 34.6924 66.8972C34.9161 66.6704 37.7346 64.6089 37.7189 64.523C37.4951 64.6742 36.2194 65.3305 35.9956 65.3373C35.03 65.8974 32.8199 66.6429 31.7679 66.99C31.3832 67.1171 32.2547 66.0039 33.0908 65.5607C34.0604 65.0487 33.8484 65.3545 34.7513 64.7704C35.2616 64.444 35.556 64.0455 35.3244 64.0248C34.7827 64.3478 34.2213 64.6399 33.6207 64.8735C33.256 65.0333 32.8581 65.1268 32.451 65.1484C32.451 65.1484 32.1055 65.1312 31.9406 64.9147C31.8684 64.8137 31.8372 64.6943 31.8521 64.5758C31.8671 64.4573 31.9273 64.3467 32.0231 64.2619C32.1683 64.1417 32.6826 64.0832 32.7375 64.0695C32.796 64.0544 31.0169 64.1765 30.4244 64.0248C30.1944 63.966 31.3559 63.6774 31.0632 63.6049C30.838 63.5491 28.8318 63.8647 28.5798 63.8029C28.2858 63.7307 29.7419 63.2803 29.4247 63.2025C29.2694 63.1645 26.3784 63.6437 26.2202 63.6049C26.004 63.5517 28.5197 62.9801 28.3016 62.9262C27.9953 62.8504 24.7253 63.26 24.4254 63.1845C24.0196 63.0824 26.589 62.4957 26.2202 62.3992C25.9527 62.3291 25.6988 62.2613 25.464 62.1968C25.1747 62.1173 22.0496 62.3429 21.8288 62.2755C21.472 62.1666 24.083 61.776 23.9759 61.7125C23.234 62.1008 22.9631 61.2453 22.131 61.4652C21.5186 61.6266 20.0269 61.4308 19.9994 61.3621C19.8738 61.0597 21.5264 60.5581 21.8523 60.4688C22.394 60.3142 22.9121 60.0977 23.4146 59.8503C20.3449 60.431 20.129 60.0565 22.1192 58.9467C21.4283 59.2456 20.706 59.4758 19.9484 59.6098C19.4028 59.706 17.5735 59.8778 17.3027 59.5445C17.1339 59.3384 18.3625 58.9742 18.5824 58.8093C18.7786 58.6615 20.8709 57.9641 20.7256 57.8404C18.9984 58.3042 17.8208 58.6993 16.0033 58.7062C15.5009 58.7062 13.9543 57.7682 14.3272 57.8198C17.1142 58.2149 17.9661 57.5449 19.077 57.1807C18.7904 57.0742 18.1349 57.1017 18.284 56.8234C18.335 56.7272 18.8925 56.2839 18.971 56.2118C18.9278 56.2461 17.8208 56.6103 17.3223 56.71C16.6903 57.0192 13.7501 56.4695 14.4175 56.0056C14.5941 55.8785 16.0347 56.1328 16.8905 55.7514C17.2791 55.5796 15.5401 55.5865 17.6677 54.7894C17.1339 54.9096 16.5882 54.9955 16.0465 55.0574C15.6069 55.1089 15.1554 55.1261 14.7276 55.212C14.7276 55.212 12.0779 54.9715 11.8816 54.7447C11.6461 54.4698 14.0642 54.2877 14.4842 54.2087C15.2771 54.0541 16.0818 54.0335 16.9337 53.8857C15.9719 53.9888 15.0102 53.7002 16.4587 53.2535C16.1407 53.281 14.0171 53.7895 14.0092 53.5044C14.0092 53.4837 15.8699 52.4152 15.8542 52.3843C15.4145 52.5217 14.9749 52.6385 14.5274 52.7176C14.1741 52.7863 12.7217 52.3224 13.0082 51.996C13.2202 51.7555 13.6363 51.8105 14.0406 51.7555C14.4567 51.6971 14.8689 51.6044 15.2732 51.4841C16.4391 50.6114 15.9562 50.4808 14.7864 50.6595C10.4567 52.4908 13.6206 49.8143 14.0877 49.3298C13.3837 49.585 12.6596 49.7951 11.9209 49.9586L10.2094 50.3468C9.77758 50.3503 11.0808 49.4948 11.3635 49.1512C11.4655 49.0275 12.1682 48.2029 12.0583 47.9315C11.0965 48.1617 11.4066 48.1445 10.4096 48.172C10.1348 48.1754 9.86001 48.0689 9.75795 47.8627C9.61271 47.5638 9.86394 47.1618 10.2683 47.1447C11.1005 47.1103 11.9091 46.856 12.702 46.6533L9.97385 46.4815C9.58523 46.4747 8.23488 45.9662 8.38797 45.6432C8.46648 45.4714 12.6 45.626 12.6 45.626C12.5489 45.4645 11.6932 45.1691 11.2849 45.2275C11.018 45.2618 9.27119 45.1588 9.11418 44.9801C8.92968 44.7739 10.5509 44.3857 10.8414 44.3479C11.2889 44.2895 11.7324 44.2208 12.176 44.1486C12.0426 43.6264 7.07294 43.5852 7.34773 43.1076C7.39876 43.0148 11.1005 41.9153 10.6451 41.7092C10.284 41.5408 8.35657 41.0117 8.11319 40.6991C7.86196 40.3795 9.65981 40.4242 10.1937 40.4826C10.5862 40.5238 11.4537 40.596 11.5126 40.5857C11.9366 39.9466 8.44685 39.5721 8.0386 39.3041C7.56755 38.9915 11.336 38.2528 11.336 37.7374C11.1279 37.7374 9.65589 37.6858 9.17306 37.5175C8.78051 37.3801 7.51259 36.7616 7.93262 36.552C8.2074 36.4146 9.72262 36.607 10.0838 36.6551C10.4999 36.7032 11.3321 36.5142 11.3399 36.2943L8.33694 36.0607C7.89336 36.0504 6.92378 35.748 7.23781 35.4285C7.3438 35.3151 11.4263 35.0334 11.4263 35.0334H11.438C11.4851 34.5249 6.98266 35.0403 7.05724 34.5352C6.46843 34.5386 10.6137 33.5285 10.7236 33.1849C10.7864 32.9925 9.16521 33.5491 9.00426 33.0337C8.97286 32.9375 12.1996 32.271 9.57738 31.869C9.65196 31.4842 11.9405 31.7144 12.0308 31.333H12.0229C11.3046 31.3536 8.35656 31.1784 8.38012 31.1681C9.22409 30.7008 10.0092 30.5393 10.1623 30.5187C10.81 30.4363 11.7874 29.7594 9.87571 29.6117C9.87571 29.6117 10.5862 29.1066 11.0848 29.1238C11.3164 29.1307 10.2918 28.5706 10.5195 28.5844C10.5784 28.416 12.863 28.4813 12.9219 28.3164C12.0465 28.2717 9.57738 28.1995 9.92282 27.9968C10.0602 27.9178 11.6579 27.4986 11.8267 27.4986C12.808 27.5055 9.69907 26.9558 9.81683 26.6947C9.54205 26.674 13.0985 26.4885 12.8198 26.4988C12.2598 26.423 11.7109 26.294 11.1829 26.114C10.8217 25.901 13.4361 25.4646 14.1073 25.5402C14.1387 25.4749 12.1957 24.7156 12.231 24.6469C12.3566 24.4064 13.7894 24.695 13.9228 24.4511C13.3419 24.3171 13.4636 24.1762 12.8591 24.0731C12.8355 24.0663 11.7285 23.8567 11.7992 23.544C11.8581 23.276 13.7187 23.5062 14.5666 23.654C14.6294 23.6677 15.1947 23.6643 15.1947 23.6643C15.7286 23.4753 15.1005 23.0733 14.3154 22.6816C13.5774 22.3105 11.23 21.9189 11.8816 21.7952C13.02 21.5822 16.2192 22.0082 16.3331 21.8467C16.0858 21.8227 15.8345 21.565 15.5794 21.5615C15.5794 21.5615 13.6952 21.4035 14.0642 21.242C14.9042 20.8709 16.1368 20.6373 16.6118 20.7266C17.0789 20.5136 17.5343 20.3246 15.5715 20.2937C16.1839 19.878 16.1486 19.3592 15.3596 19.4416C15.3596 19.5859 15.2928 19.6821 14.7982 20.1906C14.6805 20.3109 14.6962 19.6547 14.6962 19.6169C14.5332 19.6608 14.3721 19.7101 14.2133 19.7646C13.9385 19.8574 12.5686 19.9845 12.5254 19.7028C12.4861 19.5104 14.0563 18.7064 14.6844 18.5552C14.6648 17.7409 15.4616 17.0125 15.8581 16.8098C16.5647 16.4456 18.1702 16.37 18.0838 16.559C17.6915 16.3562 17.2687 16.2023 16.8277 16.102L15.6814 15.5901C15.4263 15.4767 16.3566 15.4492 16.545 15.2568C16.3169 15.0461 16.0944 14.8307 15.8777 14.6109C15.6422 14.3188 18.5863 14.6796 19.0377 14.6555C19.3125 14.6418 21.3262 15.1847 21.3262 15.1847C20.9533 14.9888 21.2477 14.8136 20.8159 14.0783C20.6314 13.7588 21.6167 14.2226 22.021 14.4734C22.4097 14.7139 22.7787 14.9785 23.1594 15.2293C23.3557 15.0988 22.1388 14.3772 22.3351 14.2535C22.3743 14.2261 23.8267 14.7964 23.866 14.7689C23.8447 14.7579 24.2294 14.6033 24.8596 14.3629C25.1062 14.2689 23.5938 10.5752 23.906 10.4583C24.2014 10.3478 26.3183 13.8151 26.6556 13.6902C26.9836 13.5688 24.8017 10.2395 25.1542 10.1099C25.551 9.96409 28.4845 13.0172 28.8922 12.8684C29.3111 12.7154 27.7474 10.9485 28.155 10.8005C28.4086 10.7085 30.6404 12.2327 30.8823 12.1453C31.0698 12.0775 28.4023 9.61323 28.5798 9.54928C29.0199 9.39075 32.2759 11.6436 32.6267 11.5186C30.6571 9.31284 33.8911 11.0725 33.9387 11.0651C33.7183 10.7927 33.4569 10.5477 33.1615 10.3367C33.0947 10.2886 32.3764 9.64268 32.7297 9.37125C32.9181 9.22351 33.3695 10.0103 34.9161 10.4123C35.7994 10.7765 35.7091 10.0344 35.293 9.31284C34.9083 8.64629 36.5923 10.8005 36.7375 10.7971C36.0702 9.9038 34.6296 7.12079 34.9318 7.0074C35.2498 6.89059 36.2743 8.18933 36.4902 8.56727C37.1262 9.69078 36.922 7.94882 36.922 7.94882C36.922 7.94882 38.555 10.457 38.767 10.7559C39.0614 10.7559 38.7277 10.7902 39.0221 10.8005C38.716 10.189 38.2999 9.59801 38.0172 9.02079C37.8798 8.73219 37.3578 7.06581 37.9191 7.26853C38.5943 7.50903 38.9005 8.23399 39.1831 8.79747C39.5364 9.49494 39.9211 9.45027 40.2155 10.1649C40.4549 10.1855 40.765 10.9345 41.0006 10.962C40.9291 10.7946 40.8506 10.6296 40.765 10.4673C40.6277 10.1993 39.9407 9.38499 40.1213 9.09982C40.2979 8.82152 42.0722 10.3745 42.3077 11.1476C42.5433 11.1888 42.504 10.268 42.7395 10.3127C43.0025 10.3608 42.4098 9.68391 42.1036 9.5293C42.1036 9.5293 41.5619 8.83182 41.8288 8.58788C42.0447 8.39204 43.4186 9.43309 44.1056 10.0103C45.032 10.7868 44.6002 8.85244 44.8789 9.22694C45.1341 9.57053 45.8995 11.8725 45.8485 12.034C46.2253 12.1371 45.7621 9.72514 46.241 9.82478C46.3745 9.85226 46.7239 10.0859 46.7592 10.1065L46.7631 10.1099C46.873 10.0378 48.2626 10.8212 48.6316 11.1613C49.087 11.5805 49.613 11.9756 49.7857 12.5494C49.8407 12.7212 49.9467 11.5186 50.0919 11.5874C50.2646 11.6664 50.5002 13.7725 50.6768 13.8584C50.9123 13.398 50.4334 11.3572 50.5119 11.2472C50.7671 10.9036 51.8505 13.745 51.823 14.4563C51.9879 14.5422 52.3019 12.7452 52.459 12.8346C52.6356 12.9376 52.6552 14.9235 52.8319 15.0266C52.824 14.9751 53.1223 13.8241 53.0438 12.9892C52.985 12.3501 51.2538 10.292 51.5129 10.2886C51.7641 10.2852 53.6405 11.8347 53.8682 12.2986C54.0488 12.6696 54.3589 12.9445 53.7504 15.6176C53.9074 15.7206 53.9153 15.7 54.0723 15.8031C54.0998 15.6244 54.3392 15.4183 54.3942 15.2362L55.0615 12.9136C55.352 12.5769 55.089 16.3494 54.9634 16.4181C55.9055 17.363 55.6582 15.3668 55.8937 15.5454C56.1371 15.7275 56.1646 17.308 56.404 17.5004C56.4236 17.1328 56.3059 14.5044 56.404 14.202C56.5414 13.8 57.0242 14.4047 57.4011 14.9373C57.6013 15.2156 57.6366 15.5626 57.6366 15.8993C57.6366 16.748 57.5581 17.5829 57.4992 18.4246C57.7151 18.6136 58.5316 17.2908 58.7554 17.4729C59.0027 17.6756 58.3 19.0293 59.1597 20.0154C59.1863 19.9308 59.2125 19.846 59.2382 19.7612C59.4855 18.9538 59.7249 17.7993 59.8741 17.6138C60.0508 17.387 60.2156 16.102 60.4708 16.2669C60.6945 16.4147 60.7456 16.6964 60.7848 16.961C60.8044 17.1259 60.8123 17.2908 60.8084 17.4557C60.8005 18.6514 60.5336 19.8505 60.0311 20.9534C60.2078 21.1527 62.0213 18.1326 62.1901 18.3319C62.4335 18.6239 61.0282 22.1388 61.2559 22.4377C61.6406 21.8158 62.7554 20.0085 62.9831 20.012C63.2971 20.0189 62.567 22.6507 61.9899 23.3379C61.9782 23.355 63.4855 21.8261 63.4737 21.8398ZM14.1505 63.7568C14.1113 64.1245 14.1505 63.1796 14.1505 63.7259V63.7603V63.7568ZM19.9523 17.7615C19.866 17.6997 18.7511 17.5622 17.919 17.5691C17.55 17.4763 16.9376 17.5932 16.4626 17.7718C15.9798 17.9539 15.6422 18.1979 15.8502 18.3594C16.918 18.2563 18.0092 18.3628 19.0456 18.6342C16.8944 18.0982 15.2693 17.6207 19.9484 17.7615H19.9523ZM21.7109 16.2738C20.8748 16.157 20.0544 15.9302 19.2379 15.731C18.938 15.6544 18.6356 15.5856 18.3311 15.5248C18.9396 15.81 19.5088 16.1776 20.0701 16.559L19.5755 16.0436C19.6893 16.0436 21.5421 16.4044 21.7109 16.2738ZM48.6787 12.9617C48.6682 12.8723 48.6445 12.7846 48.6081 12.7006C48.3843 12.2436 47.8151 11.9687 47.4501 11.5186C47.5207 11.8622 47.7641 12.2058 47.8073 12.5494C48.1684 12.6799 48.3294 12.8208 48.6827 12.9617H48.6787Z" fill="#2F99C6"/>
</g>
</g>
<defs>
<filter id="filter0_i_1228_7655" x="-39.5669" y="7" width="156.134" height="64" filterUnits="userSpaceOnUse" color-interpolation-filters="sRGB">
<feFlood flood-opacity="0" result="BackgroundImageFix"/>
<feBlend mode="normal" in="SourceGraphic" in2="BackgroundImageFix" result="shape"/>
<feColorMatrix in="SourceAlpha" type="matrix" values="0 0 0 0 0 0 0 0 0 0 0 0 0 0 0 0 0 0 127 0" result="hardAlpha"/>
<feOffset dy="4"/>
<feGaussianBlur stdDeviation="7"/>
<feComposite in2="hardAlpha" operator="arithmetic" k2="-1" k3="1"/>
<feColorMatrix type="matrix" values="0 0 0 0 0 0 0 0 0 0 0 0 0 0 0 0 0 0 0.15 0"/>
<feBlend mode="normal" in2="shape" result="effect1_innerShadow_1228_7655"/>
</filter>
<clipPath id="clip0_1228_7655">
<rect width="74" height="74" fill="white"/>
</clipPath>
</defs>
</svg>
