<svg width="24" height="25" viewBox="0 0 24 25" fill="none" xmlns="http://www.w3.org/2000/svg">
<path fill-rule="evenodd" clip-rule="evenodd" d="M11.5252 0.189527L11.3916 0.305595C11.2881 0.398616 11.1566 0.522585 11.0042 0.675481C10.6279 1.05307 10.2522 1.48137 9.90055 1.95443C8.87387 3.33558 8.24997 4.81499 8.24997 6.34999C8.24997 7.88502 8.87389 9.36427 9.90061 10.7451C10.2523 11.2181 10.628 11.6463 11.0043 12.0237L11.2163 12.2311C11.2295 12.2436 11.2423 12.2558 11.255 12.2676V17.0298C10.7815 16.103 10.1911 15.2654 9.4693 14.5437C8.58959 13.6639 7.52539 12.9728 6.31973 12.4483C5.11964 11.9262 3.84256 11.5938 2.56367 11.4111C1.77858 11.299 1.14804 11.262 0.7477 11.2639C0.363944 11.2675 0.0540952 11.5486 0.00474136 11.9121L-0.00213623 12.0403L0.00454614 12.3362C0.013171 12.5569 0.0306989 12.8231 0.0605077 13.1279C0.129134 13.8295 0.248477 14.5687 0.430503 15.3216C0.942712 17.4402 1.85507 19.3114 3.27832 20.731C4.15707 21.6112 5.22159 22.3036 6.42768 22.8291C7.62831 23.3523 8.90597 23.6854 10.1854 23.8685C10.796 23.9559 11.3129 23.9978 11.7037 24.0111L11.9813 24.0156C11.9869 24.0158 11.9924 24.0159 11.998 24.016L11.9996 24.0161L12.0046 24.016L12.005 24.016L12.007 24.016L12.0102 24.016C12.0168 24.0159 12.0233 24.0158 12.0298 24.0156L12.2994 24.0112C12.687 23.9977 13.2039 23.9558 13.8145 23.8683C15.0938 23.6849 16.3714 23.3514 17.572 22.8275C18.7759 22.3021 19.8388 21.6102 20.7177 20.7299C22.1393 19.3115 23.0525 17.4406 23.5667 15.3222C23.7494 14.5694 23.8696 13.8304 23.939 13.1288L23.9754 12.7015C23.9895 12.5031 23.9975 12.3284 24.001 12.1804L24.003 12.0141C24.0032 11.6026 23.6716 11.2678 23.2601 11.2639C22.8529 11.262 22.2223 11.2989 21.4372 11.4111C20.1583 11.5937 18.8812 11.926 17.6811 12.448C16.4751 12.9725 15.4105 13.6638 14.5306 14.5437C13.8139 15.2604 13.2268 16.0912 12.755 17.0103V12.2677C12.83 12.1972 12.914 12.1157 13.0057 12.0238C13.3822 11.6464 13.758 11.2182 14.1098 10.7452C15.1368 9.36435 15.761 7.88507 15.761 6.34999C15.761 4.88926 15.1941 3.47502 14.248 2.14393C13.7252 1.40855 13.1718 0.809654 12.6973 0.376757L12.4914 0.195097C12.2136 -0.04159 11.8057 -0.0439412 11.5252 0.189527ZM12.007 1.79499L12.1694 1.96377C12.4477 2.26154 12.7423 2.61478 13.0254 3.01298C13.8066 4.11207 14.261 5.24565 14.261 6.34999C14.261 7.51253 13.7579 8.70494 12.9062 9.85001L12.6729 10.1514C12.515 10.3475 12.3529 10.5339 12.1894 10.7095L12.004 10.9L12.0665 10.9646C11.7386 10.6358 11.41 10.2612 11.1043 9.85011C10.2529 8.70503 9.74997 7.51259 9.74997 6.34999C9.74997 5.18737 10.2529 3.99471 11.1044 2.8493C11.3337 2.54087 11.5758 2.25303 11.8209 1.98958L12.007 1.79499ZM22.466 12.801L22.4557 12.9298C22.4002 13.5181 22.2918 14.2152 22.109 14.9684C21.6547 16.8404 20.8594 18.4696 19.6572 19.6691C18.9187 20.4088 18.0126 20.9986 16.9721 21.4527C15.9064 21.9177 14.7563 22.2179 13.6016 22.3835L13.3717 22.4148C13.2222 22.434 13.0805 22.45 12.9475 22.4632L12.785 22.477L12.7962 22.3496C12.8511 21.7614 12.9588 21.0644 13.141 20.3109C13.5939 18.4382 14.3885 16.8072 15.5913 15.6043C16.3295 14.8662 17.2369 14.2769 18.2794 13.8235C19.3449 13.3601 20.4947 13.0609 21.6493 12.896C21.885 12.8624 22.1041 12.8363 22.3039 12.8165L22.466 12.801ZM1.53297 12.801L1.54404 12.9299C1.59881 13.5189 1.7064 14.2159 1.8885 14.9691C2.341 16.8408 3.13524 18.4697 4.33873 19.6701C5.07694 20.4095 5.98444 20.9998 7.0269 21.454C8.0928 21.9185 9.24302 22.2183 10.3979 22.3836C10.6335 22.4174 10.8526 22.4435 11.0522 22.4633L11.214 22.478L11.2037 22.3505C11.1567 21.8456 11.0708 21.2613 10.9325 20.6302L10.8589 20.3109C10.4061 18.4382 9.61147 16.8072 8.40864 15.6043C7.67062 14.8663 6.76341 14.2771 5.72131 13.8238C4.65583 13.3602 3.50605 13.061 2.35152 12.896C2.11589 12.8624 1.89674 12.8363 1.69699 12.8165L1.53297 12.801Z" fill="black"/>
<mask id="mask0_1038_6766" style="mask-type:luminance" maskUnits="userSpaceOnUse" x="-1" y="0" width="26" height="25">
<path fill-rule="evenodd" clip-rule="evenodd" d="M11.5252 0.189527L11.3916 0.305595C11.2881 0.398616 11.1566 0.522585 11.0042 0.675481C10.6279 1.05307 10.2522 1.48137 9.90055 1.95443C8.87387 3.33558 8.24997 4.81499 8.24997 6.34999C8.24997 7.88502 8.87389 9.36427 9.90061 10.7451C10.2523 11.2181 10.628 11.6463 11.0043 12.0237L11.2163 12.2311C11.2295 12.2436 11.2423 12.2558 11.255 12.2676V17.0298C10.7815 16.103 10.1911 15.2654 9.4693 14.5437C8.58959 13.6639 7.52539 12.9728 6.31973 12.4483C5.11964 11.9262 3.84256 11.5938 2.56367 11.4111C1.77858 11.299 1.14804 11.262 0.7477 11.2639C0.363944 11.2675 0.0540952 11.5486 0.00474136 11.9121L-0.00213623 12.0403L0.00454614 12.3362C0.013171 12.5569 0.0306989 12.8231 0.0605077 13.1279C0.129134 13.8295 0.248477 14.5687 0.430503 15.3216C0.942712 17.4402 1.85507 19.3114 3.27832 20.731C4.15707 21.6112 5.22159 22.3036 6.42768 22.8291C7.62831 23.3523 8.90597 23.6854 10.1854 23.8685C10.796 23.9559 11.3129 23.9978 11.7037 24.0111L11.9813 24.0156C11.9869 24.0158 11.9924 24.0159 11.998 24.016L11.9996 24.0161L12.0046 24.016L12.005 24.016L12.007 24.016L12.0102 24.016C12.0168 24.0159 12.0233 24.0158 12.0298 24.0156L12.2994 24.0112C12.687 23.9977 13.2039 23.9558 13.8145 23.8683C15.0938 23.6849 16.3714 23.3514 17.572 22.8275C18.7759 22.3021 19.8388 21.6102 20.7177 20.7299C22.1393 19.3115 23.0525 17.4406 23.5667 15.3222C23.7494 14.5694 23.8696 13.8304 23.939 13.1288L23.9754 12.7015C23.9895 12.5031 23.9975 12.3284 24.001 12.1804L24.003 12.0141C24.0032 11.6026 23.6716 11.2678 23.2601 11.2639C22.8529 11.262 22.2223 11.2989 21.4372 11.4111C20.1583 11.5937 18.8812 11.926 17.6811 12.448C16.4751 12.9725 15.4105 13.6638 14.5306 14.5437C13.8139 15.2604 13.2268 16.0912 12.755 17.0103V12.2677C12.83 12.1972 12.914 12.1157 13.0057 12.0238C13.3822 11.6464 13.758 11.2182 14.1098 10.7452C15.1368 9.36435 15.761 7.88507 15.761 6.34999C15.761 4.88926 15.1941 3.47502 14.248 2.14393C13.7252 1.40855 13.1718 0.809654 12.6973 0.376757L12.4914 0.195097C12.2136 -0.04159 11.8057 -0.0439412 11.5252 0.189527ZM12.007 1.79499L12.1694 1.96377C12.4477 2.26154 12.7423 2.61478 13.0254 3.01298C13.8066 4.11207 14.261 5.24565 14.261 6.34999C14.261 7.51253 13.7579 8.70494 12.9062 9.85001L12.6729 10.1514C12.515 10.3475 12.3529 10.5339 12.1894 10.7095L12.004 10.9L12.0665 10.9646C11.7386 10.6358 11.41 10.2612 11.1043 9.85011C10.2529 8.70503 9.74997 7.51259 9.74997 6.34999C9.74997 5.18737 10.2529 3.99471 11.1044 2.8493C11.3337 2.54087 11.5758 2.25303 11.8209 1.98958L12.007 1.79499ZM22.466 12.801L22.4557 12.9298C22.4002 13.5181 22.2918 14.2152 22.109 14.9684C21.6547 16.8404 20.8594 18.4696 19.6572 19.6691C18.9187 20.4088 18.0126 20.9986 16.9721 21.4527C15.9064 21.9177 14.7563 22.2179 13.6016 22.3835L13.3717 22.4148C13.2222 22.434 13.0805 22.45 12.9475 22.4632L12.785 22.477L12.7962 22.3496C12.8511 21.7614 12.9588 21.0644 13.141 20.3109C13.5939 18.4382 14.3885 16.8072 15.5913 15.6043C16.3295 14.8662 17.2369 14.2769 18.2794 13.8235C19.3449 13.3601 20.4947 13.0609 21.6493 12.896C21.885 12.8624 22.1041 12.8363 22.3039 12.8165L22.466 12.801ZM1.53297 12.801L1.54404 12.9299C1.59881 13.5189 1.7064 14.2159 1.8885 14.9691C2.341 16.8408 3.13524 18.4697 4.33873 19.6701C5.07694 20.4095 5.98444 20.9998 7.0269 21.454C8.0928 21.9185 9.24302 22.2183 10.3979 22.3836C10.6335 22.4174 10.8526 22.4435 11.0522 22.4633L11.214 22.478L11.2037 22.3505C11.1567 21.8456 11.0708 21.2613 10.9325 20.6302L10.8589 20.3109C10.4061 18.4382 9.61147 16.8072 8.40864 15.6043C7.67062 14.8663 6.76341 14.2771 5.72131 13.8238C4.65583 13.3602 3.50605 13.061 2.35152 12.896C2.11589 12.8624 1.89674 12.8363 1.69699 12.8165L1.53297 12.801Z" fill="white"/>
</mask>
<g mask="url(#mask0_1038_6766)">
<rect width="24" height="24" fill="black"/>
</g>
</svg>
