<?xml version="1.0" encoding="utf-8"?>
<!-- Generator: Adobe Illustrator 16.0.0, SVG Export Plug-In . SVG Version: 6.00 Build 0)  -->
<!DOCTYPE svg PUBLIC "-//W3C//DTD SVG 1.1//EN" "http://www.w3.org/Graphics/SVG/1.1/DTD/svg11.dtd">
<svg version="1.1" id="Ebene_1" xmlns="http://www.w3.org/2000/svg" xmlns:xlink="http://www.w3.org/1999/xlink" x="0px" y="0px"
	 width="45px" height="44.982px" viewBox="0 0 45 44.982" enable-background="new 0 0 45 44.982" xml:space="preserve">
<g>
	<circle id="path-1_2_" fill="none" stroke="#FFFFFF" stroke-width="8" stroke-opacity="0.5" cx="22.507" cy="22.491" r="15"/>
</g>
<g>
	<circle id="path-3_2_" fill="none" stroke="#638B54" stroke-width="4" cx="22.508" cy="22.491" r="15"/>
</g>
<g>
	<circle id="path-3_1_" fill="#729F62" cx="22.508" cy="22.491" r="15"/>
</g>
<g>
	<circle id="path-3_3_" fill="none" cx="22.5" cy="22.491" r="22.5"/>
</g>
<g>
	<path fill="#FFFFFF" d="M35.006,22.398c-0.002-0.03-0.002-0.04-0.008-0.047c-0.027-0.195-0.119-0.376-0.262-0.513
		c-0.795-0.938-1.745-1.771-2.712-2.535c-2.075-1.643-4.45-3.014-7.077-3.567c-1.502-0.316-3.052-0.338-4.562-0.063
		c-1.388,0.245-2.726,0.757-3.974,1.391c-1.958,0.989-3.748,2.357-5.304,3.893c-0.288,0.283-0.575,0.571-0.837,0.882
		c-0.35,0.407-0.35,0.896,0,1.305c0.797,0.938,1.745,1.771,2.711,2.534c2.077,1.642,4.456,3.015,7.078,3.565
		c1.515,0.322,3.039,0.337,4.567,0.063c1.384-0.244,2.718-0.757,3.974-1.393c1.953-0.991,3.742-2.354,5.297-3.891
		c0.289-0.283,0.576-0.571,0.838-0.881c0.142-0.135,0.232-0.317,0.262-0.508c0.01-0.038,0.01-0.044,0.01-0.052
		c0.002-0.026,0.002-0.033,0.002-0.044v-0.091C35.006,22.41,35.006,22.402,35.006,22.398z M22.507,27.726
		c-2.903,0-5.255-2.345-5.255-5.237c0-2.891,2.353-5.232,5.255-5.232c2.902,0,5.256,2.342,5.256,5.232
		C27.764,25.382,25.41,27.726,22.507,27.726z"/>
	<path fill="#FFFFFF" d="M22.381,19.063c-0.336,0.669-0.576,1.323-0.717,1.955l0.908,0.885c0.059,0.06,0.063,0.155,0.011,0.218
		c-0.027,0.033-0.066,0.053-0.107,0.053c-0.036-0.001-0.07-0.017-0.095-0.04l-0.786-0.77c-0.029,0.175-0.055,0.344-0.07,0.515
		l0.922,0.881c0.06,0.057,0.066,0.148,0.015,0.214c-0.029,0.037-0.07,0.055-0.107,0.055c-0.037,0-0.07-0.015-0.095-0.041
		l-0.752-0.718c-0.004,0.21,0.003,0.413,0.025,0.615l0.915,0.858c0.059,0.058,0.067,0.155,0.015,0.219
		c-0.028,0.032-0.068,0.051-0.111,0.053c-0.034,0-0.067-0.015-0.091-0.039l-0.652-0.612c0.117,0.539,0.325,1.041,0.63,1.491
		c0.029,0.041,0.071,0.063,0.115,0.063h0.011v0.925c0,0.084,0.063,0.15,0.144,0.15c0.077,0,0.141-0.066,0.141-0.15v-0.927h0.011
		c0.044,0,0.088-0.021,0.115-0.063c1.028-1.509,0.978-3.564-0.14-5.791C22.583,18.963,22.432,18.963,22.381,19.063z"/>
</g>
</svg>
