<?xml version="1.0" encoding="UTF-8"?>
<!-- Generator: CustomSymbols v2.6.3.42 by @serious_bret https://bretlester.com/app_content/CustomSymbols/ -->
<!-- Guides: Left/Right -0.008/-0.008 Cap/Base 0.012/0.01 -->
<!-- Settings: RefScale 1.0 Min/Max Stroke Scales 0.5/2.2100000381469727 -->
<!DOCTYPE svg
PUBLIC "-//W3C//DTD SVG 1.1//EN"
       "http://www.w3.org/Graphics/SVG/1.1/DTD/svg11.dtd">
<svg version="1.1" xmlns="http://www.w3.org/2000/svg" xmlns:xlink="http://www.w3.org/1999/xlink" width="3300" height="2200">
<![CDATA[<svg width="24" height="24" viewBox="0 0 24 24" fill="none" xmlns="http://www.w3.org/2000/svg">
<path fill-rule="evenodd" clip-rule="evenodd" d="M21.9989 15.6629C22 15.6503 22 15.6379 22 15.6254C22 15.613 22 15.6005 21.9989 15.588C21.9989 15.5798 21.9978 15.5716 21.9968 15.5633C21.9968 15.5591 21.9957 15.5549 21.9957 15.5509C21.9946 15.5445 21.9938 15.5384 21.9938 15.5331C21.9928 15.5259 21.9917 15.5198 21.9906 15.5124V15.5103C21.9656 15.3569 21.8928 15.2118 21.7813 15.1008C21.1437 14.3486 20.3842 13.6788 19.6125 13.0672C17.951 11.75 16.0501 10.6469 13.951 10.2032C12.7387 9.94741 11.5176 9.93604 10.2989 10.1526C9.18962 10.3494 8.12083 10.7599 7.12083 11.2689C5.55526 12.0649 4.12513 13.1627 2.87925 14.3928C2.64912 14.6211 2.41875 14.8533 2.20938 15.1008C1.93021 15.4307 1.93021 15.8202 2.20938 16.149C2.84696 16.9015 3.60615 17.571 4.37817 18.1826C6.04058 19.5001 7.94166 20.6029 10.0395 21.0466C11.252 21.3026 12.4728 21.3141 13.6917 21.0972C14.8 20.9004 15.8688 20.4899 16.8699 19.9809C18.4354 19.1849 19.8656 18.0871 21.1115 16.857C21.3416 16.6287 21.572 16.3965 21.7813 16.149C21.8928 16.038 21.9656 15.894 21.9906 15.7395V15.7374C21.9917 15.7302 21.9928 15.7239 21.9938 15.7167C21.9946 15.7104 21.9957 15.7053 21.9957 15.6989C21.9957 15.6949 21.9968 15.6907 21.9968 15.6865C21.9978 15.6782 21.9978 15.6711 21.9989 15.6629ZM16.6733 15.6752C16.6733 18.2548 14.581 20.346 12 20.346C9.41896 20.346 7.32657 18.2548 7.32657 15.6752C7.32657 13.0956 9.41896 11.0044 12 11.0044C14.581 11.0044 16.6733 13.0956 16.6733 15.6752ZM12.2742 18.1059C13.3334 16.6094 13.2814 14.5684 12.1291 12.3566C12.0776 12.258 11.9215 12.258 11.87 12.3566C11.5233 13.0226 11.2781 13.6723 11.1308 14.297L12.0689 15.1775C12.1291 15.2349 12.134 15.3312 12.0795 15.3939C12.0504 15.4268 12.0102 15.4441 11.9702 15.4441C11.9348 15.4441 11.8995 15.4311 11.8711 15.4046L11.0601 14.643C11.0296 14.8151 11.0046 14.9844 10.9895 15.1515L11.9399 16.0248C12.0011 16.0806 12.0069 16.1769 11.9525 16.2404C11.9235 16.2745 11.8826 16.2925 11.8421 16.2925C11.8075 16.2925 11.7725 16.2795 11.7445 16.2534L10.9682 15.5407C10.9645 15.748 10.974 15.951 10.9954 16.1501L11.9385 17.0044C11.9996 17.0601 12.0059 17.1561 11.9525 17.22C11.9235 17.2544 11.8826 17.2727 11.8413 17.2727C11.8067 17.2727 11.7725 17.2601 11.7445 17.2352L11.0734 16.6273C11.1916 17.1618 11.4065 17.6589 11.7228 18.1059C11.7508 18.1452 11.7946 18.1686 11.8413 18.1686H11.8513V19.0862C11.8513 19.1703 11.9172 19.2391 11.9985 19.2391C12.0799 19.2391 12.1457 19.1703 12.1457 19.0862V18.1686H12.1557C12.2025 18.1686 12.2466 18.1452 12.2742 18.1059Z" fill="black"/>
</svg>
]]>
 <g id="Notes">
  <rect height="2200" id="artboard" style="fill:white;opacity:1" width="3300" x="0" y="0"/>
  <line id="" style="fill:none;stroke:black;opacity:1;stroke-width:0.5;" x1="263" x2="3036" y1="292" y2="292"/>
  <text id="reftext1" style="stroke:none;fill:black;font-family:-apple-system,&quot;SF Pro Display&quot;,&quot;SF Pro Text&quot;,Helvetica,sans-serif;font-weight:bold;" transform="matrix(1 0 0 1 263 322)">Weight/Scale Variations</text>
  <text id="reftext2" style="stroke:none;fill:black;font-family:-apple-system,&quot;SF Pro Display&quot;,&quot;SF Pro Text&quot;,Helvetica,sans-serif;text-anchor:middle;" transform="matrix(1 0 0 1 559.711 322)">Ultralight</text>
  <text style="stroke:none;fill:black;font-family:-apple-system,&quot;SF Pro Display&quot;,&quot;SF Pro Text&quot;,Helvetica,sans-serif;text-anchor:middle;" transform="matrix(1 0 0 1 856.422 322)">Thin</text>
  <text style="stroke:none;fill:black;font-family:-apple-system,&quot;SF Pro Display&quot;,&quot;SF Pro Text&quot;,Helvetica,sans-serif;text-anchor:middle;" transform="matrix(1 0 0 1 1153.13 322)">Light</text>
  <text style="stroke:none;fill:black;font-family:-apple-system,&quot;SF Pro Display&quot;,&quot;SF Pro Text&quot;,Helvetica,sans-serif;text-anchor:middle;" transform="matrix(1 0 0 1 1449.84 322)">Regular</text>
  <text style="stroke:none;fill:black;font-family:-apple-system,&quot;SF Pro Display&quot;,&quot;SF Pro Text&quot;,Helvetica,sans-serif;text-anchor:middle;" transform="matrix(1 0 0 1 1746.56 322)">Medium</text>
  <text style="stroke:none;fill:black;font-family:-apple-system,&quot;SF Pro Display&quot;,&quot;SF Pro Text&quot;,Helvetica,sans-serif;text-anchor:middle;" transform="matrix(1 0 0 1 2043.27 322)">Semibold</text>
  <text style="stroke:none;fill:black;font-family:-apple-system,&quot;SF Pro Display&quot;,&quot;SF Pro Text&quot;,Helvetica,sans-serif;text-anchor:middle;" transform="matrix(1 0 0 1 2339.98 322)">Bold</text>
  <text style="stroke:none;fill:black;font-family:-apple-system,&quot;SF Pro Display&quot;,&quot;SF Pro Text&quot;,Helvetica,sans-serif;text-anchor:middle;" transform="matrix(1 0 0 1 2636.69 322)">Heavy</text>
  <text style="stroke:none;fill:black;font-family:-apple-system,&quot;SF Pro Display&quot;,&quot;SF Pro Text&quot;,Helvetica,sans-serif;text-anchor:middle;" transform="matrix(1 0 0 1 2933.4 322)">Black</text>
  <line id="" style="fill:none;stroke:black;opacity:1;stroke-width:0.5;" x1="263" x2="3036" y1="1903" y2="1903"/>
  <g id="" transform="matrix(1 0 0 1 263 1933)">
   <path d="M9.24805 0.830078C13.5547 0.830078 17.1387-2.74414 17.1387-7.05078C17.1387-11.3574 13.5449-14.9316 9.23828-14.9316C4.94141-14.9316 1.36719-11.3574 1.36719-7.05078C1.36719-2.74414 4.95117 0.830078 9.24805 0.830078ZM9.24805-0.654297C5.70312-0.654297 2.87109-3.49609 2.87109-7.05078C2.87109-10.6055 5.69336-13.4473 9.23828-13.4473C12.793-13.4473 15.6348-10.6055 15.6445-7.05078C15.6543-3.49609 12.8027-0.654297 9.24805-0.654297ZM6.39648-6.31836L8.50586-6.31836L8.50586-4.19922C8.50586-3.75977 8.79883-3.45703 9.22852-3.45703C9.67773-3.45703 9.9707-3.75977 9.9707-4.19922L9.9707-6.31836L12.0996-6.31836C12.5391-6.31836 12.8418-6.61133 12.8418-7.04102C12.8418-7.48047 12.5391-7.7832 12.0996-7.7832L9.9707-7.7832L9.9707-9.89258C9.9707-10.3418 9.67773-10.6445 9.22852-10.6445C8.79883-10.6445 8.50586-10.3418 8.50586-9.89258L8.50586-7.7832L6.39648-7.7832C5.94727-7.7832 5.64453-7.48047 5.64453-7.04102C5.64453-6.61133 5.94727-6.31836 6.39648-6.31836Z"/>
  </g>
  <g id="" transform="matrix(1 0 0 1 281.506 1933)">
   <path d="M11.709 2.91016C17.1582 2.91016 21.6699-1.61133 21.6699-7.05078C21.6699-12.5 17.1484-17.0117 11.6992-17.0117C6.25977-17.0117 1.74805-12.5 1.74805-7.05078C1.74805-1.61133 6.26953 2.91016 11.709 2.91016ZM11.709 1.25C7.09961 1.25 3.41797-2.44141 3.41797-7.05078C3.41797-11.6602 7.08984-15.3516 11.6992-15.3516C16.3086-15.3516 20-11.6602 20.0098-7.05078C20.0195-2.44141 16.3184 1.25 11.709 1.25ZM7.98828-6.23047L10.8789-6.23047L10.8789-3.32031C10.8789-2.83203 11.2109-2.5 11.6895-2.5C12.1777-2.5 12.5195-2.83203 12.5195-3.32031L12.5195-6.23047L15.4297-6.23047C15.918-6.23047 16.25-6.5625 16.25-7.04102C16.25-7.5293 15.918-7.87109 15.4297-7.87109L12.5195-7.87109L12.5195-10.7617C12.5195-11.2695 12.1777-11.6016 11.6895-11.6016C11.2109-11.6016 10.8789-11.2598 10.8789-10.7617L10.8789-7.87109L7.98828-7.87109C7.48047-7.87109 7.14844-7.5293 7.14844-7.04102C7.14844-6.5625 7.49023-6.23047 7.98828-6.23047Z"/>
  </g>
  <g id="" transform="matrix(1 0 0 1 304.924 1933)">
   <path d="M14.9707 5.66406C21.9336 5.66406 27.6953-0.0976562 27.6953-7.05078C27.6953-14.0137 21.9238-19.7754 14.9609-19.7754C8.00781-19.7754 2.25586-14.0137 2.25586-7.05078C2.25586-0.0976562 8.01758 5.66406 14.9707 5.66406ZM14.9707 3.84766C8.93555 3.84766 4.08203-1.01562 4.08203-7.05078C4.08203-13.0957 8.92578-17.9492 14.9609-17.9492C21.0059-17.9492 25.8594-13.0957 25.8691-7.05078C25.8789-1.01562 21.0156 3.84766 14.9707 3.84766ZM10.0586-6.14258L14.0625-6.14258L14.0625-2.12891C14.0625-1.5918 14.4336-1.2207 14.9512-1.2207C15.4883-1.2207 15.8594-1.5918 15.8594-2.12891L15.8594-6.14258L19.8828-6.14258C20.4102-6.14258 20.791-6.51367 20.791-7.03125C20.791-7.56836 20.4199-7.94922 19.8828-7.94922L15.8594-7.94922L15.8594-11.9531C15.8594-12.5098 15.4883-12.8809 14.9512-12.8809C14.4336-12.8809 14.0625-12.5 14.0625-11.9531L14.0625-7.94922L10.0586-7.94922C9.50195-7.94922 9.13086-7.56836 9.13086-7.03125C9.13086-6.51367 9.51172-6.14258 10.0586-6.14258Z"/>
  </g>
  <text style="stroke:none;fill:black;font-family:-apple-system,&quot;SF Pro Display&quot;,&quot;SF Pro Text&quot;,Helvetica,sans-serif;font-weight:bold;" transform="matrix(1 0 0 1 263 1953)">Design Variations</text>
  <text style="stroke:none;fill:black;font-family:-apple-system,&quot;SF Pro Display&quot;,&quot;SF Pro Text&quot;,Helvetica,sans-serif;" transform="matrix(1 0 0 1 263 1971)">Symbols are supported in up to nine weights and three scales.</text>
  <text style="stroke:none;fill:black;font-family:-apple-system,&quot;SF Pro Display&quot;,&quot;SF Pro Text&quot;,Helvetica,sans-serif;" transform="matrix(1 0 0 1 263 1989)">For optimal layout with text and other symbols, vertically align</text>
  <text style="stroke:none;fill:black;font-family:-apple-system,&quot;SF Pro Display&quot;,&quot;SF Pro Text&quot;,Helvetica,sans-serif;" transform="matrix(1 0 0 1 263 2007)">symbols with the adjacent text.</text>
  <line id="" style="fill:none;stroke:#00AEEF;stroke-width:0.5;opacity:1.0;" x1="776" x2="776" y1="1919" y2="1933"/>
  <g id="" transform="matrix(1 0 0 1 776 1933)">
   <path d="M3.31055 0.126953C3.82812 0.126953 4.08203-0.0683594 4.26758-0.605469L5.52734-4.0625L11.2891-4.0625L12.5488-0.605469C12.7344-0.0683594 12.9883 0.126953 13.4961 0.126953C14.0137 0.126953 14.3457-0.185547 14.3457-0.673828C14.3457-0.839844 14.3164-0.986328 14.2383-1.20117L9.6582-13.3887C9.43359-13.9941 9.0332-14.2871 8.4082-14.2871C7.80273-14.2871 7.39258-13.9941 7.17773-13.3984L2.59766-1.19141C2.51953-0.976562 2.49023-0.830078 2.49023-0.664062C2.49023-0.175781 2.80273 0.126953 3.31055 0.126953ZM6.00586-5.53711L8.37891-12.1094L8.42773-12.1094L10.8008-5.53711Z"/>
  </g>
  <line id="" style="fill:none;stroke:#00AEEF;stroke-width:0.5;opacity:1.0;" x1="792.836" x2="792.836" y1="1919" y2="1933"/>
  <text style="stroke:none;fill:black;font-family:-apple-system,&quot;SF Pro Display&quot;,&quot;SF Pro Text&quot;,Helvetica,sans-serif;font-weight:bold;" transform="matrix(1 0 0 1 776 1953)">Margins</text>
  <text style="stroke:none;fill:black;font-family:-apple-system,&quot;SF Pro Display&quot;,&quot;SF Pro Text&quot;,Helvetica,sans-serif;" transform="matrix(1 0 0 1 776 1971)">Leading and trailing margins on the left and right side of each symbol</text>
  <text style="stroke:none;fill:black;font-family:-apple-system,&quot;SF Pro Display&quot;,&quot;SF Pro Text&quot;,Helvetica,sans-serif;" transform="matrix(1 0 0 1 776 1989)">can be adjusted by modifying the x-location of the margin guidelines.</text>
  <text style="stroke:none;fill:black;font-family:-apple-system,&quot;SF Pro Display&quot;,&quot;SF Pro Text&quot;,Helvetica,sans-serif;" transform="matrix(1 0 0 1 776 2007)">Modifications are automatically applied proportionally to all</text>
  <text style="stroke:none;fill:black;font-family:-apple-system,&quot;SF Pro Display&quot;,&quot;SF Pro Text&quot;,Helvetica,sans-serif;" transform="matrix(1 0 0 1 776 2025)">scales and weights.</text>
  <g id="" transform="matrix(1 0 0 1 1289 1933)">
   <path d="M2.8418 1.86523L4.54102 3.57422C5.40039 4.44336 6.38672 4.38477 7.31445 3.35938L17.4902-7.85156C17.7539-7.76367 18.0273-7.7832 18.3398-7.8418L19.4043-8.03711L20.0684-7.36328L20.0293-6.80664C19.9902-6.30859 20.1172-5.92773 20.6055-5.44922L21.3672-4.70703C21.8457-4.22852 22.4609-4.19922 22.9297-4.66797L25.8398-7.58789C26.3086-8.05664 26.2891-8.65234 25.8105-9.13086L25.0391-9.89258C24.5605-10.3711 24.1895-10.5273 23.7109-10.4883L23.1348-10.4395L22.4902-11.0742L22.7344-12.1973C22.8613-12.7637 22.7051-13.2031 22.1191-13.7891L19.9219-15.9766C16.582-19.2969 12.1484-19.2188 9.25781-16.3281C8.83789-15.918 8.80859-15.3418 9.04297-14.9512C9.27734-14.5898 9.73633-14.3555 10.3809-14.5215C11.8457-14.8633 13.3691-14.9219 14.7949-13.9844L14.209-12.5293C14.0137-12.0508 13.9844-11.6504 14.1113-11.2891L3.04688-0.898438C2.06055 0.0195312 1.98242 0.996094 2.8418 1.86523ZM10.752-15.957C13.1836-17.7344 16.4746-17.4316 18.7012-15.2051L21.1328-12.793C21.3672-12.5586 21.4062-12.373 21.3379-12.0312L21.0156-10.5469L22.5195-9.0625L23.5059-9.12109C23.7598-9.13086 23.8379-9.11133 24.0332-8.91602L24.6094-8.33984L22.168-5.89844L21.5918-6.47461C21.3965-6.66992 21.3672-6.74805 21.377-7.01172L21.4453-7.98828L19.9512-9.47266L18.4277-9.21875C18.1055-9.15039 17.959-9.17969 17.7148-9.41406L15.7129-11.416C15.459-11.6504 15.4297-11.8164 15.5859-12.1875L16.4648-14.2773C14.9023-15.7324 12.8711-16.3574 10.8398-15.7617C10.6836-15.7227 10.625-15.8496 10.752-15.957ZM5.27344 2.30469L4.10156 1.14258C3.63281 0.683594 3.74023 0.341797 4.14062-0.0195312L14.9512-10.1953L16.416-8.71094L6.42578 2.27539C6.07422 2.67578 5.74219 2.77344 5.27344 2.30469Z"/>
  </g>
  <text style="stroke:none;fill:black;font-family:-apple-system,&quot;SF Pro Display&quot;,&quot;SF Pro Text&quot;,Helvetica,sans-serif;font-weight:bold;" transform="matrix(1 0 0 1 1289 1953)">Exporting</text>
  <text style="stroke:none;fill:black;font-family:-apple-system,&quot;SF Pro Display&quot;,&quot;SF Pro Text&quot;,Helvetica,sans-serif;" transform="matrix(1 0 0 1 1289 1971)">Symbols should be outlined when exporting to ensure the</text>
  <text style="stroke:none;fill:black;font-family:-apple-system,&quot;SF Pro Display&quot;,&quot;SF Pro Text&quot;,Helvetica,sans-serif;" transform="matrix(1 0 0 1 1289 1989)">design is preserved when submitting to Xcode.</text>
  <text id="template-version" style="stroke:none;fill:black;font-family:-apple-system,&quot;SF Pro Display&quot;,&quot;SF Pro Text&quot;,Helvetica,sans-serif;text-anchor:end;" transform="matrix(1 0 0 1 3036 1933)">Template v.2.0</text>
  <text style="stroke:none;fill:black;font-family:-apple-system,&quot;SF Pro Display&quot;,&quot;SF Pro Text&quot;,Helvetica,sans-serif;text-anchor:end;" transform="matrix(1 0 0 1 3036 1951)">Requires Xcode 12 or greater</text>
  <text style="stroke:none;fill:black;font-family:-apple-system,&quot;SF Pro Display&quot;,&quot;SF Pro Text&quot;,Helvetica,sans-serif;" transform="matrix(1 0 0 1 263 726)">Small</text>
  <text style="stroke:none;fill:black;font-family:-apple-system,&quot;SF Pro Display&quot;,&quot;SF Pro Text&quot;,Helvetica,sans-serif;" transform="matrix(1 0 0 1 263 1156)">Medium</text>
  <text style="stroke:none;fill:black;font-family:-apple-system,&quot;SF Pro Display&quot;,&quot;SF Pro Text&quot;,Helvetica,sans-serif;" transform="matrix(1 0 0 1 263 1586)">Large</text>
 </g>
 <g id="Guides">
  <g id="H-reference" style="fill:#27AAE1;stroke:none;" transform="matrix(1 0 0 1 339 696)">
   <path d="M0.976562 0L3.66211 0L12.9883-24.4629L45.752-24.4629L55.127 0L57.7637 0L30.6152-70.459L28.125-70.459ZM29.3457-67.1387L29.4434-67.1387L44.873-26.709L13.8672-26.709Z"/>
  </g>
  <line id="Baseline-S" style="fill:none;stroke:#27AAE1;opacity:1;stroke-width:0.5;" x1="263" x2="3036" y1="696" y2="696"/>
  <line id="Capline-S" style="fill:none;stroke:#27AAE1;opacity:1;stroke-width:0.5;" x1="263" x2="3036" y1="625.541" y2="625.541"/>
  <g id="H-reference" style="fill:#27AAE1;stroke:none;" transform="matrix(1 0 0 1 339 1126)">
   <path d="M0.976562 0L3.66211 0L12.9883-24.4629L45.752-24.4629L55.127 0L57.7637 0L30.6152-70.459L28.125-70.459ZM29.3457-67.1387L29.4434-67.1387L44.873-26.709L13.8672-26.709Z"/>
  </g>
  <line id="Baseline-M" style="fill:none;stroke:#27AAE1;opacity:1;stroke-width:0.5;" x1="263" x2="3036" y1="1126" y2="1126"/>
  <line id="Capline-M" style="fill:none;stroke:#27AAE1;opacity:1;stroke-width:0.5;" x1="263" x2="3036" y1="1055.54" y2="1055.54"/>
  <g id="H-reference" style="fill:#27AAE1;stroke:none;" transform="matrix(1 0 0 1 339 1556)">
   <path d="M0.976562 0L3.66211 0L12.9883-24.4629L45.752-24.4629L55.127 0L57.7637 0L30.6152-70.459L28.125-70.459ZM29.3457-67.1387L29.4434-67.1387L44.873-26.709L13.8672-26.709Z"/>
  </g>
  <line id="Baseline-L" style="fill:none;stroke:#27AAE1;opacity:1;stroke-width:0.5;" x1="263" x2="3036" y1="1556" y2="1556"/>
  <line id="Capline-L" style="fill:none;stroke:#27AAE1;opacity:1;stroke-width:0.5;" x1="263" x2="3036" y1="1485.54" y2="1485.54"/>
  <line id="left-margin" x1="1414.531165484407" x2="1414.531165484407" y1="1030.79" y2="1150.12" style="fill:none;stroke:#00AEEF;stroke-width:0.5;opacity:1.0;"/>
  <line id="right-margin" x1="1487.7288345155928" x2="1487.7288345155928" y1="1030.79" y2="1150.12" style="fill:none;stroke:#00AEEF;stroke-width:0.5;opacity:1.0;"/>
 </g>
 <g id="Symbols">
  <g id="Black-L" transform="matrix(1.0,0.0,0.0,1.0,2888.2110073571703,1474.2080889031345)">  <path stroke-dasharray="none" stroke-miterlimit="4" stroke="none" stroke-width="1px" fill-opacity="1" fill="#000000" stroke-linecap="butt" clip-rule="evenodd" stroke-linejoin="miter" fill-rule="evenodd" stroke-opacity="1" d="M85.189,60.653C85.193,60.604,85.193,60.556,85.193,60.508C85.193,60.46,85.193,60.412,85.189,60.363C85.189,60.331,85.185,60.3,85.181,60.268C85.181,60.251,85.177,60.235,85.177,60.22C85.172,60.195,85.169,60.171,85.169,60.151C85.165,60.123,85.161,60.099,85.157,60.07L85.157,60.062C85.06,59.468,84.778,58.906,84.346,58.477C81.877,55.564,78.936,52.97,75.948,50.602C69.514,45.501,62.153,41.229,54.024,39.511C49.33,38.521,44.601,38.476,39.882,39.315C35.586,40.077,31.447,41.667,27.575,43.638C21.512,46.72,15.974,50.971,11.15,55.735C10.258,56.619,9.366,57.518,8.556,58.477C7.475,59.754,7.475,61.262,8.556,62.536C11.025,65.45,13.965,68.042,16.954,70.411C23.392,75.512,30.753,79.783,38.877,81.501C43.572,82.493,48.3,82.537,53.02,81.697C57.312,80.935,61.451,79.345,65.327,77.374C71.39,74.292,76.928,70.041,81.753,65.277C82.644,64.393,83.536,63.494,84.346,62.536C84.778,62.106,85.06,61.548,85.157,60.95L85.157,60.942C85.161,60.914,85.165,60.889,85.169,60.862C85.172,60.837,85.177,60.817,85.177,60.793C85.177,60.777,85.181,60.761,85.181,60.745C85.185,60.713,85.185,60.685,85.189,60.653ZM64.566,60.701C64.566,70.69,56.464,78.788,46.469,78.788C36.474,78.788,28.372,70.69,28.372,60.701C28.372,50.712,36.474,42.614,46.469,42.614C56.464,42.614,64.566,50.712,64.566,60.701ZM47.531,70.114C51.632,64.319,51.431,56.415,46.969,47.85C46.769,47.468,46.165,47.468,45.966,47.85C44.623,50.429,43.673,52.945,43.103,55.364L46.736,58.774C46.969,58.996,46.988,59.369,46.777,59.612C46.664,59.739,46.508,59.806,46.354,59.806C46.217,59.806,46.08,59.756,45.97,59.653L42.829,56.704C42.711,57.37,42.614,58.026,42.556,58.673L46.236,62.055C46.473,62.271,46.496,62.644,46.285,62.89C46.173,63.022,46.014,63.091,45.858,63.091C45.724,63.091,45.588,63.041,45.48,62.94L42.473,60.18C42.459,60.983,42.496,61.769,42.579,62.54L46.231,65.848C46.467,66.064,46.492,66.436,46.285,66.683C46.173,66.816,46.014,66.887,45.854,66.887C45.72,66.887,45.588,66.838,45.48,66.742L42.881,64.388C43.339,66.458,44.171,68.383,45.396,70.114C45.504,70.266,45.674,70.356,45.854,70.356L45.893,70.356L45.893,73.91C45.893,74.235,46.148,74.502,46.463,74.502C46.778,74.502,47.033,74.235,47.033,73.91L47.033,70.356L47.072,70.356C47.253,70.356,47.424,70.266,47.531,70.114ZM47.531,70.114"/>
</g>
  <g id="Heavy-L" transform="matrix(1.0,0.0,0.0,1.0,2591.5010073571702,1474.2080889031345)">  <path stroke-opacity="1" stroke-linejoin="miter" clip-rule="evenodd" stroke-miterlimit="4" fill="#000000" stroke-linecap="butt" stroke-width="1px" stroke="none" stroke-dasharray="none" fill-opacity="1" fill-rule="evenodd" d="M85.189,60.653C85.193,60.604,85.193,60.556,85.193,60.508C85.193,60.46,85.193,60.412,85.189,60.363C85.189,60.331,85.185,60.3,85.181,60.268C85.181,60.251,85.177,60.235,85.177,60.22C85.172,60.195,85.169,60.171,85.169,60.151C85.165,60.123,85.161,60.099,85.157,60.07L85.157,60.062C85.06,59.468,84.778,58.906,84.346,58.477C81.877,55.564,78.936,52.97,75.948,50.602C69.514,45.501,62.153,41.229,54.024,39.511C49.33,38.521,44.601,38.476,39.882,39.315C35.586,40.077,31.447,41.667,27.575,43.638C21.512,46.72,15.974,50.971,11.15,55.735C10.258,56.619,9.366,57.518,8.556,58.477C7.475,59.754,7.475,61.262,8.556,62.536C11.025,65.45,13.965,68.042,16.954,70.411C23.392,75.512,30.753,79.783,38.877,81.501C43.572,82.493,48.3,82.537,53.02,81.697C57.312,80.935,61.451,79.345,65.327,77.374C71.39,74.292,76.928,70.041,81.753,65.277C82.644,64.393,83.536,63.494,84.346,62.536C84.778,62.106,85.06,61.548,85.157,60.95L85.157,60.942C85.161,60.914,85.165,60.889,85.169,60.862C85.172,60.837,85.177,60.817,85.177,60.793C85.177,60.777,85.181,60.761,85.181,60.745C85.185,60.713,85.185,60.685,85.189,60.653ZM64.566,60.701C64.566,70.69,56.464,78.788,46.469,78.788C36.474,78.788,28.372,70.69,28.372,60.701C28.372,50.712,36.474,42.614,46.469,42.614C56.464,42.614,64.566,50.712,64.566,60.701ZM47.531,70.114C51.632,64.319,51.431,56.415,46.969,47.85C46.769,47.468,46.165,47.468,45.966,47.85C44.623,50.429,43.673,52.945,43.103,55.364L46.736,58.774C46.969,58.996,46.988,59.369,46.777,59.612C46.664,59.739,46.508,59.806,46.354,59.806C46.217,59.806,46.08,59.756,45.97,59.653L42.829,56.704C42.711,57.37,42.614,58.026,42.556,58.673L46.236,62.055C46.473,62.271,46.496,62.644,46.285,62.89C46.173,63.022,46.014,63.091,45.858,63.091C45.724,63.091,45.588,63.041,45.48,62.94L42.473,60.18C42.459,60.983,42.496,61.769,42.579,62.54L46.231,65.848C46.467,66.064,46.492,66.436,46.285,66.683C46.173,66.816,46.014,66.887,45.854,66.887C45.72,66.887,45.588,66.838,45.48,66.742L42.881,64.388C43.339,66.458,44.171,68.383,45.396,70.114C45.504,70.266,45.674,70.356,45.854,70.356L45.893,70.356L45.893,73.91C45.893,74.235,46.148,74.502,46.463,74.502C46.778,74.502,47.033,74.235,47.033,73.91L47.033,70.356L47.072,70.356C47.253,70.356,47.424,70.266,47.531,70.114ZM47.531,70.114"/>
</g>
  <g id="Bold-L" transform="matrix(1.0,0.0,0.0,1.0,2294.79100735717,1474.2080889031345)">  <path stroke-dasharray="none" clip-rule="evenodd" stroke-miterlimit="4" fill="#000000" stroke-linecap="butt" fill-rule="evenodd" fill-opacity="1" stroke-width="1px" stroke-opacity="1" stroke-linejoin="miter" stroke="none" d="M85.189,60.653C85.193,60.604,85.193,60.556,85.193,60.508C85.193,60.46,85.193,60.412,85.189,60.363C85.189,60.331,85.185,60.3,85.181,60.268C85.181,60.251,85.177,60.235,85.177,60.22C85.172,60.195,85.169,60.171,85.169,60.151C85.165,60.123,85.161,60.099,85.157,60.07L85.157,60.062C85.06,59.468,84.778,58.906,84.346,58.477C81.877,55.564,78.936,52.97,75.948,50.602C69.514,45.501,62.153,41.229,54.024,39.511C49.33,38.521,44.601,38.476,39.882,39.315C35.586,40.077,31.447,41.667,27.575,43.638C21.512,46.72,15.974,50.971,11.15,55.735C10.258,56.619,9.366,57.518,8.556,58.477C7.475,59.754,7.475,61.262,8.556,62.536C11.025,65.45,13.965,68.042,16.954,70.411C23.392,75.512,30.753,79.783,38.877,81.501C43.572,82.493,48.3,82.537,53.02,81.697C57.312,80.935,61.451,79.345,65.327,77.374C71.39,74.292,76.928,70.041,81.753,65.277C82.644,64.393,83.536,63.494,84.346,62.536C84.778,62.106,85.06,61.548,85.157,60.95L85.157,60.942C85.161,60.914,85.165,60.889,85.169,60.862C85.172,60.837,85.177,60.817,85.177,60.793C85.177,60.777,85.181,60.761,85.181,60.745C85.185,60.713,85.185,60.685,85.189,60.653ZM64.566,60.701C64.566,70.69,56.464,78.788,46.469,78.788C36.474,78.788,28.372,70.69,28.372,60.701C28.372,50.712,36.474,42.614,46.469,42.614C56.464,42.614,64.566,50.712,64.566,60.701ZM47.531,70.114C51.632,64.319,51.431,56.415,46.969,47.85C46.769,47.468,46.165,47.468,45.966,47.85C44.623,50.429,43.673,52.945,43.103,55.364L46.736,58.774C46.969,58.996,46.988,59.369,46.777,59.612C46.664,59.739,46.508,59.806,46.354,59.806C46.217,59.806,46.08,59.756,45.97,59.653L42.829,56.704C42.711,57.37,42.614,58.026,42.556,58.673L46.236,62.055C46.473,62.271,46.496,62.644,46.285,62.89C46.173,63.022,46.014,63.091,45.858,63.091C45.724,63.091,45.588,63.041,45.48,62.94L42.473,60.18C42.459,60.983,42.496,61.769,42.579,62.54L46.231,65.848C46.467,66.064,46.492,66.436,46.285,66.683C46.173,66.816,46.014,66.887,45.854,66.887C45.72,66.887,45.588,66.838,45.48,66.742L42.881,64.388C43.339,66.458,44.171,68.383,45.396,70.114C45.504,70.266,45.674,70.356,45.854,70.356L45.893,70.356L45.893,73.91C45.893,74.235,46.148,74.502,46.463,74.502C46.778,74.502,47.033,74.235,47.033,73.91L47.033,70.356L47.072,70.356C47.253,70.356,47.424,70.266,47.531,70.114ZM47.531,70.114"/>
</g>
  <g id="Semibold-L" transform="matrix(1.0,0.0,0.0,1.0,1998.0810073571702,1474.2080889031345)">  <path stroke="none" stroke-opacity="1" fill-opacity="1" stroke-linecap="butt" fill="#000000" fill-rule="evenodd" clip-rule="evenodd" stroke-miterlimit="4" stroke-dasharray="none" stroke-linejoin="miter" stroke-width="1px" d="M85.189,60.653C85.193,60.604,85.193,60.556,85.193,60.508C85.193,60.46,85.193,60.412,85.189,60.363C85.189,60.331,85.185,60.3,85.181,60.268C85.181,60.251,85.177,60.235,85.177,60.22C85.172,60.195,85.169,60.171,85.169,60.151C85.165,60.123,85.161,60.099,85.157,60.07L85.157,60.062C85.06,59.468,84.778,58.906,84.346,58.477C81.877,55.564,78.936,52.97,75.948,50.602C69.514,45.501,62.153,41.229,54.024,39.511C49.33,38.521,44.601,38.476,39.882,39.315C35.586,40.077,31.447,41.667,27.575,43.638C21.512,46.72,15.974,50.971,11.15,55.735C10.258,56.619,9.366,57.518,8.556,58.477C7.475,59.754,7.475,61.262,8.556,62.536C11.025,65.45,13.965,68.042,16.954,70.411C23.392,75.512,30.753,79.783,38.877,81.501C43.572,82.493,48.3,82.537,53.02,81.697C57.312,80.935,61.451,79.345,65.327,77.374C71.39,74.292,76.928,70.041,81.753,65.277C82.644,64.393,83.536,63.494,84.346,62.536C84.778,62.106,85.06,61.548,85.157,60.95L85.157,60.942C85.161,60.914,85.165,60.889,85.169,60.862C85.172,60.837,85.177,60.817,85.177,60.793C85.177,60.777,85.181,60.761,85.181,60.745C85.185,60.713,85.185,60.685,85.189,60.653ZM64.566,60.701C64.566,70.69,56.464,78.788,46.469,78.788C36.474,78.788,28.372,70.69,28.372,60.701C28.372,50.712,36.474,42.614,46.469,42.614C56.464,42.614,64.566,50.712,64.566,60.701ZM47.531,70.114C51.632,64.319,51.431,56.415,46.969,47.85C46.769,47.468,46.165,47.468,45.966,47.85C44.623,50.429,43.673,52.945,43.103,55.364L46.736,58.774C46.969,58.996,46.988,59.369,46.777,59.612C46.664,59.739,46.508,59.806,46.354,59.806C46.217,59.806,46.08,59.756,45.97,59.653L42.829,56.704C42.711,57.37,42.614,58.026,42.556,58.673L46.236,62.055C46.473,62.271,46.496,62.644,46.285,62.89C46.173,63.022,46.014,63.091,45.858,63.091C45.724,63.091,45.588,63.041,45.48,62.94L42.473,60.18C42.459,60.983,42.496,61.769,42.579,62.54L46.231,65.848C46.467,66.064,46.492,66.436,46.285,66.683C46.173,66.816,46.014,66.887,45.854,66.887C45.72,66.887,45.588,66.838,45.48,66.742L42.881,64.388C43.339,66.458,44.171,68.383,45.396,70.114C45.504,70.266,45.674,70.356,45.854,70.356L45.893,70.356L45.893,73.91C45.893,74.235,46.148,74.502,46.463,74.502C46.778,74.502,47.033,74.235,47.033,73.91L47.033,70.356L47.072,70.356C47.253,70.356,47.424,70.266,47.531,70.114ZM47.531,70.114"/>
</g>
  <g id="Medium-L" transform="matrix(1.0,0.0,0.0,1.0,1701.3710073571701,1474.2080889031345)">  <path stroke-linecap="butt" fill="#000000" stroke-miterlimit="4" clip-rule="evenodd" stroke-width="1px" fill-rule="evenodd" fill-opacity="1" stroke="none" stroke-dasharray="none" stroke-opacity="1" stroke-linejoin="miter" d="M85.189,60.653C85.193,60.604,85.193,60.556,85.193,60.508C85.193,60.46,85.193,60.412,85.189,60.363C85.189,60.331,85.185,60.3,85.181,60.268C85.181,60.251,85.177,60.235,85.177,60.22C85.172,60.195,85.169,60.171,85.169,60.151C85.165,60.123,85.161,60.099,85.157,60.07L85.157,60.062C85.06,59.468,84.778,58.906,84.346,58.477C81.877,55.564,78.936,52.97,75.948,50.602C69.514,45.501,62.153,41.229,54.024,39.511C49.33,38.521,44.601,38.476,39.882,39.315C35.586,40.077,31.447,41.667,27.575,43.638C21.512,46.72,15.974,50.971,11.15,55.735C10.258,56.619,9.366,57.518,8.556,58.477C7.475,59.754,7.475,61.262,8.556,62.536C11.025,65.45,13.965,68.042,16.954,70.411C23.392,75.512,30.753,79.783,38.877,81.501C43.572,82.493,48.3,82.537,53.02,81.697C57.312,80.935,61.451,79.345,65.327,77.374C71.39,74.292,76.928,70.041,81.753,65.277C82.644,64.393,83.536,63.494,84.346,62.536C84.778,62.106,85.06,61.548,85.157,60.95L85.157,60.942C85.161,60.914,85.165,60.889,85.169,60.862C85.172,60.837,85.177,60.817,85.177,60.793C85.177,60.777,85.181,60.761,85.181,60.745C85.185,60.713,85.185,60.685,85.189,60.653ZM64.566,60.701C64.566,70.69,56.464,78.788,46.469,78.788C36.474,78.788,28.372,70.69,28.372,60.701C28.372,50.712,36.474,42.614,46.469,42.614C56.464,42.614,64.566,50.712,64.566,60.701ZM47.531,70.114C51.632,64.319,51.431,56.415,46.969,47.85C46.769,47.468,46.165,47.468,45.966,47.85C44.623,50.429,43.673,52.945,43.103,55.364L46.736,58.774C46.969,58.996,46.988,59.369,46.777,59.612C46.664,59.739,46.508,59.806,46.354,59.806C46.217,59.806,46.08,59.756,45.97,59.653L42.829,56.704C42.711,57.37,42.614,58.026,42.556,58.673L46.236,62.055C46.473,62.271,46.496,62.644,46.285,62.89C46.173,63.022,46.014,63.091,45.858,63.091C45.724,63.091,45.588,63.041,45.48,62.94L42.473,60.18C42.459,60.983,42.496,61.769,42.579,62.54L46.231,65.848C46.467,66.064,46.492,66.436,46.285,66.683C46.173,66.816,46.014,66.887,45.854,66.887C45.72,66.887,45.588,66.838,45.48,66.742L42.881,64.388C43.339,66.458,44.171,68.383,45.396,70.114C45.504,70.266,45.674,70.356,45.854,70.356L45.893,70.356L45.893,73.91C45.893,74.235,46.148,74.502,46.463,74.502C46.778,74.502,47.033,74.235,47.033,73.91L47.033,70.356L47.072,70.356C47.253,70.356,47.424,70.266,47.531,70.114ZM47.531,70.114"/>
</g>
  <g id="Regular-L" transform="matrix(1.0,0.0,0.0,1.0,1404.66100735717,1474.2080889031345)">  <path fill-rule="evenodd" stroke-miterlimit="4" stroke="none" stroke-opacity="1" fill-opacity="1" stroke-width="1px" clip-rule="evenodd" fill="#000000" stroke-linecap="butt" stroke-dasharray="none" stroke-linejoin="miter" d="M85.189,60.653C85.193,60.604,85.193,60.556,85.193,60.508C85.193,60.46,85.193,60.412,85.189,60.363C85.189,60.331,85.185,60.3,85.181,60.268C85.181,60.251,85.177,60.235,85.177,60.22C85.172,60.195,85.169,60.171,85.169,60.151C85.165,60.123,85.161,60.099,85.157,60.07L85.157,60.062C85.06,59.468,84.778,58.906,84.346,58.477C81.877,55.564,78.936,52.97,75.948,50.602C69.514,45.501,62.153,41.229,54.024,39.511C49.33,38.521,44.601,38.476,39.882,39.315C35.586,40.077,31.447,41.667,27.575,43.638C21.512,46.72,15.974,50.971,11.15,55.735C10.258,56.619,9.366,57.518,8.556,58.477C7.475,59.754,7.475,61.262,8.556,62.536C11.025,65.45,13.965,68.042,16.954,70.411C23.392,75.512,30.753,79.783,38.877,81.501C43.572,82.493,48.3,82.537,53.02,81.697C57.312,80.935,61.451,79.345,65.327,77.374C71.39,74.292,76.928,70.041,81.753,65.277C82.644,64.393,83.536,63.494,84.346,62.536C84.778,62.106,85.06,61.548,85.157,60.95L85.157,60.942C85.161,60.914,85.165,60.889,85.169,60.862C85.172,60.837,85.177,60.817,85.177,60.793C85.177,60.777,85.181,60.761,85.181,60.745C85.185,60.713,85.185,60.685,85.189,60.653ZM64.566,60.701C64.566,70.69,56.464,78.788,46.469,78.788C36.474,78.788,28.372,70.69,28.372,60.701C28.372,50.712,36.474,42.614,46.469,42.614C56.464,42.614,64.566,50.712,64.566,60.701ZM47.531,70.114C51.632,64.319,51.431,56.415,46.969,47.85C46.769,47.468,46.165,47.468,45.966,47.85C44.623,50.429,43.673,52.945,43.103,55.364L46.736,58.774C46.969,58.996,46.988,59.369,46.777,59.612C46.664,59.739,46.508,59.806,46.354,59.806C46.217,59.806,46.08,59.756,45.97,59.653L42.829,56.704C42.711,57.37,42.614,58.026,42.556,58.673L46.236,62.055C46.473,62.271,46.496,62.644,46.285,62.89C46.173,63.022,46.014,63.091,45.858,63.091C45.724,63.091,45.588,63.041,45.48,62.94L42.473,60.18C42.459,60.983,42.496,61.769,42.579,62.54L46.231,65.848C46.467,66.064,46.492,66.436,46.285,66.683C46.173,66.816,46.014,66.887,45.854,66.887C45.72,66.887,45.588,66.838,45.48,66.742L42.881,64.388C43.339,66.458,44.171,68.383,45.396,70.114C45.504,70.266,45.674,70.356,45.854,70.356L45.893,70.356L45.893,73.91C45.893,74.235,46.148,74.502,46.463,74.502C46.778,74.502,47.033,74.235,47.033,73.91L47.033,70.356L47.072,70.356C47.253,70.356,47.424,70.266,47.531,70.114ZM47.531,70.114"/>
</g>
  <g id="Light-L" transform="matrix(1.0,0.0,0.0,1.0,1107.9510073571703,1474.2080889031345)">  <path fill="#000000" stroke-linecap="butt" stroke-opacity="1" stroke-width="1px" fill-opacity="1" stroke="none" stroke-miterlimit="4" stroke-linejoin="miter" stroke-dasharray="none" clip-rule="evenodd" fill-rule="evenodd" d="M85.189,60.653C85.193,60.604,85.193,60.556,85.193,60.508C85.193,60.46,85.193,60.412,85.189,60.363C85.189,60.331,85.185,60.3,85.181,60.268C85.181,60.251,85.177,60.235,85.177,60.22C85.172,60.195,85.169,60.171,85.169,60.151C85.165,60.123,85.161,60.099,85.157,60.07L85.157,60.062C85.06,59.468,84.778,58.906,84.346,58.477C81.877,55.564,78.936,52.97,75.948,50.602C69.514,45.501,62.153,41.229,54.024,39.511C49.33,38.521,44.601,38.476,39.882,39.315C35.586,40.077,31.447,41.667,27.575,43.638C21.512,46.72,15.974,50.971,11.15,55.735C10.258,56.619,9.366,57.518,8.556,58.477C7.475,59.754,7.475,61.262,8.556,62.536C11.025,65.45,13.965,68.042,16.954,70.411C23.392,75.512,30.753,79.783,38.877,81.501C43.572,82.493,48.3,82.537,53.02,81.697C57.312,80.935,61.451,79.345,65.327,77.374C71.39,74.292,76.928,70.041,81.753,65.277C82.644,64.393,83.536,63.494,84.346,62.536C84.778,62.106,85.06,61.548,85.157,60.95L85.157,60.942C85.161,60.914,85.165,60.889,85.169,60.862C85.172,60.837,85.177,60.817,85.177,60.793C85.177,60.777,85.181,60.761,85.181,60.745C85.185,60.713,85.185,60.685,85.189,60.653ZM64.566,60.701C64.566,70.69,56.464,78.788,46.469,78.788C36.474,78.788,28.372,70.69,28.372,60.701C28.372,50.712,36.474,42.614,46.469,42.614C56.464,42.614,64.566,50.712,64.566,60.701ZM47.531,70.114C51.632,64.319,51.431,56.415,46.969,47.85C46.769,47.468,46.165,47.468,45.966,47.85C44.623,50.429,43.673,52.945,43.103,55.364L46.736,58.774C46.969,58.996,46.988,59.369,46.777,59.612C46.664,59.739,46.508,59.806,46.354,59.806C46.217,59.806,46.08,59.756,45.97,59.653L42.829,56.704C42.711,57.37,42.614,58.026,42.556,58.673L46.236,62.055C46.473,62.271,46.496,62.644,46.285,62.89C46.173,63.022,46.014,63.091,45.858,63.091C45.724,63.091,45.588,63.041,45.48,62.94L42.473,60.18C42.459,60.983,42.496,61.769,42.579,62.54L46.231,65.848C46.467,66.064,46.492,66.436,46.285,66.683C46.173,66.816,46.014,66.887,45.854,66.887C45.72,66.887,45.588,66.838,45.48,66.742L42.881,64.388C43.339,66.458,44.171,68.383,45.396,70.114C45.504,70.266,45.674,70.356,45.854,70.356L45.893,70.356L45.893,73.91C45.893,74.235,46.148,74.502,46.463,74.502C46.778,74.502,47.033,74.235,47.033,73.91L47.033,70.356L47.072,70.356C47.253,70.356,47.424,70.266,47.531,70.114ZM47.531,70.114"/>
</g>
  <g id="Thin-L" transform="matrix(1.0,0.0,0.0,1.0,811.2410073571702,1474.2080889031345)">  <path fill="#000000" stroke-linejoin="miter" clip-rule="evenodd" stroke-linecap="butt" stroke="none" stroke-width="1px" stroke-miterlimit="4" stroke-dasharray="none" fill-rule="evenodd" fill-opacity="1" stroke-opacity="1" d="M85.189,60.653C85.193,60.604,85.193,60.556,85.193,60.508C85.193,60.46,85.193,60.412,85.189,60.363C85.189,60.331,85.185,60.3,85.181,60.268C85.181,60.251,85.177,60.235,85.177,60.22C85.172,60.195,85.169,60.171,85.169,60.151C85.165,60.123,85.161,60.099,85.157,60.07L85.157,60.062C85.06,59.468,84.778,58.906,84.346,58.477C81.877,55.564,78.936,52.97,75.948,50.602C69.514,45.501,62.153,41.229,54.024,39.511C49.33,38.521,44.601,38.476,39.882,39.315C35.586,40.077,31.447,41.667,27.575,43.638C21.512,46.72,15.974,50.971,11.15,55.735C10.258,56.619,9.366,57.518,8.556,58.477C7.475,59.754,7.475,61.262,8.556,62.536C11.025,65.45,13.965,68.042,16.954,70.411C23.392,75.512,30.753,79.783,38.877,81.501C43.572,82.493,48.3,82.537,53.02,81.697C57.312,80.935,61.451,79.345,65.327,77.374C71.39,74.292,76.928,70.041,81.753,65.277C82.644,64.393,83.536,63.494,84.346,62.536C84.778,62.106,85.06,61.548,85.157,60.95L85.157,60.942C85.161,60.914,85.165,60.889,85.169,60.862C85.172,60.837,85.177,60.817,85.177,60.793C85.177,60.777,85.181,60.761,85.181,60.745C85.185,60.713,85.185,60.685,85.189,60.653ZM64.566,60.701C64.566,70.69,56.464,78.788,46.469,78.788C36.474,78.788,28.372,70.69,28.372,60.701C28.372,50.712,36.474,42.614,46.469,42.614C56.464,42.614,64.566,50.712,64.566,60.701ZM47.531,70.114C51.632,64.319,51.431,56.415,46.969,47.85C46.769,47.468,46.165,47.468,45.966,47.85C44.623,50.429,43.673,52.945,43.103,55.364L46.736,58.774C46.969,58.996,46.988,59.369,46.777,59.612C46.664,59.739,46.508,59.806,46.354,59.806C46.217,59.806,46.08,59.756,45.97,59.653L42.829,56.704C42.711,57.37,42.614,58.026,42.556,58.673L46.236,62.055C46.473,62.271,46.496,62.644,46.285,62.89C46.173,63.022,46.014,63.091,45.858,63.091C45.724,63.091,45.588,63.041,45.48,62.94L42.473,60.18C42.459,60.983,42.496,61.769,42.579,62.54L46.231,65.848C46.467,66.064,46.492,66.436,46.285,66.683C46.173,66.816,46.014,66.887,45.854,66.887C45.72,66.887,45.588,66.838,45.48,66.742L42.881,64.388C43.339,66.458,44.171,68.383,45.396,70.114C45.504,70.266,45.674,70.356,45.854,70.356L45.893,70.356L45.893,73.91C45.893,74.235,46.148,74.502,46.463,74.502C46.778,74.502,47.033,74.235,47.033,73.91L47.033,70.356L47.072,70.356C47.253,70.356,47.424,70.266,47.531,70.114ZM47.531,70.114"/>
</g>
  <g id="Ultralight-L" transform="matrix(1.0,0.0,0.0,1.0,514.5310073571702,1474.2080889031345)">  <path stroke-opacity="1" clip-rule="evenodd" fill-opacity="1" stroke-width="1px" stroke-miterlimit="4" stroke="none" stroke-linecap="butt" fill="#000000" fill-rule="evenodd" stroke-dasharray="none" stroke-linejoin="miter" d="M85.189,60.653C85.193,60.604,85.193,60.556,85.193,60.508C85.193,60.46,85.193,60.412,85.189,60.363C85.189,60.331,85.185,60.3,85.181,60.268C85.181,60.251,85.177,60.235,85.177,60.22C85.172,60.195,85.169,60.171,85.169,60.151C85.165,60.123,85.161,60.099,85.157,60.07L85.157,60.062C85.06,59.468,84.778,58.906,84.346,58.477C81.877,55.564,78.936,52.97,75.948,50.602C69.514,45.501,62.153,41.229,54.024,39.511C49.33,38.521,44.601,38.476,39.882,39.315C35.586,40.077,31.447,41.667,27.575,43.638C21.512,46.72,15.974,50.971,11.15,55.735C10.258,56.619,9.366,57.518,8.556,58.477C7.475,59.754,7.475,61.262,8.556,62.536C11.025,65.45,13.965,68.042,16.954,70.411C23.392,75.512,30.753,79.783,38.877,81.501C43.572,82.493,48.3,82.537,53.02,81.697C57.312,80.935,61.451,79.345,65.327,77.374C71.39,74.292,76.928,70.041,81.753,65.277C82.644,64.393,83.536,63.494,84.346,62.536C84.778,62.106,85.06,61.548,85.157,60.95L85.157,60.942C85.161,60.914,85.165,60.889,85.169,60.862C85.172,60.837,85.177,60.817,85.177,60.793C85.177,60.777,85.181,60.761,85.181,60.745C85.185,60.713,85.185,60.685,85.189,60.653ZM64.566,60.701C64.566,70.69,56.464,78.788,46.469,78.788C36.474,78.788,28.372,70.69,28.372,60.701C28.372,50.712,36.474,42.614,46.469,42.614C56.464,42.614,64.566,50.712,64.566,60.701ZM47.531,70.114C51.632,64.319,51.431,56.415,46.969,47.85C46.769,47.468,46.165,47.468,45.966,47.85C44.623,50.429,43.673,52.945,43.103,55.364L46.736,58.774C46.969,58.996,46.988,59.369,46.777,59.612C46.664,59.739,46.508,59.806,46.354,59.806C46.217,59.806,46.08,59.756,45.97,59.653L42.829,56.704C42.711,57.37,42.614,58.026,42.556,58.673L46.236,62.055C46.473,62.271,46.496,62.644,46.285,62.89C46.173,63.022,46.014,63.091,45.858,63.091C45.724,63.091,45.588,63.041,45.48,62.94L42.473,60.18C42.459,60.983,42.496,61.769,42.579,62.54L46.231,65.848C46.467,66.064,46.492,66.436,46.285,66.683C46.173,66.816,46.014,66.887,45.854,66.887C45.72,66.887,45.588,66.838,45.48,66.742L42.881,64.388C43.339,66.458,44.171,68.383,45.396,70.114C45.504,70.266,45.674,70.356,45.854,70.356L45.893,70.356L45.893,73.91C45.893,74.235,46.148,74.502,46.463,74.502C46.778,74.502,47.033,74.235,47.033,73.91L47.033,70.356L47.072,70.356C47.253,70.356,47.424,70.266,47.531,70.114ZM47.531,70.114"/>
</g>
  <g id="Black-M" transform="matrix(1.0,0.0,0.0,1.0,2898.6575250830774,1054.6754996644938)">  <path stroke-dasharray="none" stroke-miterlimit="4" stroke="none" stroke-width="1px" fill-opacity="1" fill="#000000" stroke-linecap="butt" clip-rule="evenodd" stroke-linejoin="miter" fill-rule="evenodd" stroke-opacity="1" d="M66.038,47.018C66.041,46.98,66.041,46.943,66.041,46.905C66.041,46.868,66.041,46.831,66.038,46.793C66.038,46.769,66.035,46.744,66.032,46.719C66.032,46.706,66.028,46.694,66.028,46.682C66.025,46.663,66.023,46.644,66.023,46.628C66.02,46.607,66.016,46.588,66.013,46.566L66.013,46.56C65.938,46.099,65.719,45.664,65.385,45.331C63.471,43.073,61.191,41.062,58.874,39.226C53.887,35.272,48.18,31.961,41.879,30.629C38.24,29.861,34.574,29.827,30.916,30.477C27.586,31.068,24.378,32.3,21.376,33.828C16.676,36.217,12.383,39.513,8.643,43.205C7.952,43.891,7.261,44.588,6.632,45.331C5.794,46.321,5.794,47.49,6.632,48.477C8.546,50.736,10.825,52.746,13.143,54.582C18.133,58.537,23.84,61.847,30.137,63.179C33.777,63.948,37.442,63.982,41.101,63.331C44.428,62.74,47.636,61.508,50.641,59.98C55.341,57.591,59.634,54.295,63.374,50.603C64.065,49.917,64.756,49.22,65.385,48.477C65.719,48.144,65.938,47.712,66.013,47.248L66.013,47.242C66.016,47.22,66.02,47.201,66.023,47.18C66.025,47.161,66.028,47.145,66.028,47.126C66.028,47.114,66.032,47.101,66.032,47.089C66.035,47.064,66.035,47.043,66.038,47.018ZM50.051,47.055C50.051,54.799,43.77,61.076,36.022,61.076C28.275,61.076,21.993,54.799,21.993,47.055C21.993,39.311,28.275,33.034,36.022,33.034C43.77,33.034,50.051,39.311,50.051,47.055ZM36.846,54.352C40.025,49.859,39.869,43.732,36.41,37.093C36.255,36.797,35.787,36.797,35.632,37.093C34.591,39.092,33.855,41.043,33.413,42.918L36.229,45.561C36.41,45.733,36.425,46.022,36.261,46.211C36.174,46.309,36.053,46.361,35.933,46.361C35.827,46.361,35.721,46.322,35.636,46.243L33.201,43.956C33.109,44.473,33.034,44.981,32.989,45.483L35.842,48.104C36.026,48.272,36.043,48.561,35.88,48.752C35.793,48.854,35.67,48.908,35.548,48.908C35.445,48.908,35.34,48.869,35.255,48.791L32.925,46.651C32.914,47.273,32.943,47.883,33.007,48.481L35.838,51.045C36.021,51.212,36.04,51.5,35.88,51.692C35.793,51.796,35.67,51.85,35.546,51.85C35.442,51.85,35.34,51.813,35.255,51.738L33.241,49.913C33.596,51.518,34.241,53.01,35.19,54.352C35.274,54.47,35.406,54.54,35.546,54.54L35.576,54.54L35.576,57.294C35.576,57.547,35.774,57.753,36.018,57.753C36.262,57.753,36.46,57.547,36.46,57.294L36.46,54.54L36.49,54.54C36.63,54.54,36.763,54.47,36.846,54.352ZM36.846,54.352"/>
</g>
  <g id="Heavy-M" transform="matrix(1.0,0.0,0.0,1.0,2601.9475250830774,1054.6754996644938)">  <path stroke-opacity="1" stroke-linejoin="miter" clip-rule="evenodd" stroke-miterlimit="4" fill="#000000" stroke-linecap="butt" stroke-width="1px" stroke="none" stroke-dasharray="none" fill-opacity="1" fill-rule="evenodd" d="M66.038,47.018C66.041,46.98,66.041,46.943,66.041,46.905C66.041,46.868,66.041,46.831,66.038,46.793C66.038,46.769,66.035,46.744,66.032,46.719C66.032,46.706,66.028,46.694,66.028,46.682C66.025,46.663,66.023,46.644,66.023,46.628C66.02,46.607,66.016,46.588,66.013,46.566L66.013,46.56C65.938,46.099,65.719,45.664,65.385,45.331C63.471,43.073,61.191,41.062,58.874,39.226C53.887,35.272,48.18,31.961,41.879,30.629C38.24,29.861,34.574,29.827,30.916,30.477C27.586,31.068,24.378,32.3,21.376,33.828C16.676,36.217,12.383,39.513,8.643,43.205C7.952,43.891,7.261,44.588,6.632,45.331C5.794,46.321,5.794,47.49,6.632,48.477C8.546,50.736,10.825,52.746,13.143,54.582C18.133,58.537,23.84,61.847,30.137,63.179C33.777,63.948,37.442,63.982,41.101,63.331C44.428,62.74,47.636,61.508,50.641,59.98C55.341,57.591,59.634,54.295,63.374,50.603C64.065,49.917,64.756,49.22,65.385,48.477C65.719,48.144,65.938,47.712,66.013,47.248L66.013,47.242C66.016,47.22,66.02,47.201,66.023,47.18C66.025,47.161,66.028,47.145,66.028,47.126C66.028,47.114,66.032,47.101,66.032,47.089C66.035,47.064,66.035,47.043,66.038,47.018ZM50.051,47.055C50.051,54.799,43.77,61.076,36.022,61.076C28.275,61.076,21.993,54.799,21.993,47.055C21.993,39.311,28.275,33.034,36.022,33.034C43.77,33.034,50.051,39.311,50.051,47.055ZM36.846,54.352C40.025,49.859,39.869,43.732,36.41,37.093C36.255,36.797,35.787,36.797,35.632,37.093C34.591,39.092,33.855,41.043,33.413,42.918L36.229,45.561C36.41,45.733,36.425,46.022,36.261,46.211C36.174,46.309,36.053,46.361,35.933,46.361C35.827,46.361,35.721,46.322,35.636,46.243L33.201,43.956C33.109,44.473,33.034,44.981,32.989,45.483L35.842,48.104C36.026,48.272,36.043,48.561,35.88,48.752C35.793,48.854,35.67,48.908,35.548,48.908C35.445,48.908,35.34,48.869,35.255,48.791L32.925,46.651C32.914,47.273,32.943,47.883,33.007,48.481L35.838,51.045C36.021,51.212,36.04,51.5,35.88,51.692C35.793,51.796,35.67,51.85,35.546,51.85C35.442,51.85,35.34,51.813,35.255,51.738L33.241,49.913C33.596,51.518,34.241,53.01,35.19,54.352C35.274,54.47,35.406,54.54,35.546,54.54L35.576,54.54L35.576,57.294C35.576,57.547,35.774,57.753,36.018,57.753C36.262,57.753,36.46,57.547,36.46,57.294L36.46,54.54L36.49,54.54C36.63,54.54,36.763,54.47,36.846,54.352ZM36.846,54.352"/>
</g>
  <g id="Bold-M" transform="matrix(1.0,0.0,0.0,1.0,2305.2375250830773,1054.6754996644938)">  <path stroke-dasharray="none" clip-rule="evenodd" stroke-miterlimit="4" fill="#000000" stroke-linecap="butt" fill-rule="evenodd" fill-opacity="1" stroke-width="1px" stroke-opacity="1" stroke-linejoin="miter" stroke="none" d="M66.038,47.018C66.041,46.98,66.041,46.943,66.041,46.905C66.041,46.868,66.041,46.831,66.038,46.793C66.038,46.769,66.035,46.744,66.032,46.719C66.032,46.706,66.028,46.694,66.028,46.682C66.025,46.663,66.023,46.644,66.023,46.628C66.02,46.607,66.016,46.588,66.013,46.566L66.013,46.56C65.938,46.099,65.719,45.664,65.385,45.331C63.471,43.073,61.191,41.062,58.874,39.226C53.887,35.272,48.18,31.961,41.879,30.629C38.24,29.861,34.574,29.827,30.916,30.477C27.586,31.068,24.378,32.3,21.376,33.828C16.676,36.217,12.383,39.513,8.643,43.205C7.952,43.891,7.261,44.588,6.632,45.331C5.794,46.321,5.794,47.49,6.632,48.477C8.546,50.736,10.825,52.746,13.143,54.582C18.133,58.537,23.84,61.847,30.137,63.179C33.777,63.948,37.442,63.982,41.101,63.331C44.428,62.74,47.636,61.508,50.641,59.98C55.341,57.591,59.634,54.295,63.374,50.603C64.065,49.917,64.756,49.22,65.385,48.477C65.719,48.144,65.938,47.712,66.013,47.248L66.013,47.242C66.016,47.22,66.02,47.201,66.023,47.18C66.025,47.161,66.028,47.145,66.028,47.126C66.028,47.114,66.032,47.101,66.032,47.089C66.035,47.064,66.035,47.043,66.038,47.018ZM50.051,47.055C50.051,54.799,43.77,61.076,36.022,61.076C28.275,61.076,21.993,54.799,21.993,47.055C21.993,39.311,28.275,33.034,36.022,33.034C43.77,33.034,50.051,39.311,50.051,47.055ZM36.846,54.352C40.025,49.859,39.869,43.732,36.41,37.093C36.255,36.797,35.787,36.797,35.632,37.093C34.591,39.092,33.855,41.043,33.413,42.918L36.229,45.561C36.41,45.733,36.425,46.022,36.261,46.211C36.174,46.309,36.053,46.361,35.933,46.361C35.827,46.361,35.721,46.322,35.636,46.243L33.201,43.956C33.109,44.473,33.034,44.981,32.989,45.483L35.842,48.104C36.026,48.272,36.043,48.561,35.88,48.752C35.793,48.854,35.67,48.908,35.548,48.908C35.445,48.908,35.34,48.869,35.255,48.791L32.925,46.651C32.914,47.273,32.943,47.883,33.007,48.481L35.838,51.045C36.021,51.212,36.04,51.5,35.88,51.692C35.793,51.796,35.67,51.85,35.546,51.85C35.442,51.85,35.34,51.813,35.255,51.738L33.241,49.913C33.596,51.518,34.241,53.01,35.19,54.352C35.274,54.47,35.406,54.54,35.546,54.54L35.576,54.54L35.576,57.294C35.576,57.547,35.774,57.753,36.018,57.753C36.262,57.753,36.46,57.547,36.46,57.294L36.46,54.54L36.49,54.54C36.63,54.54,36.763,54.47,36.846,54.352ZM36.846,54.352"/>
</g>
  <g id="Semibold-M" transform="matrix(1.0,0.0,0.0,1.0,2008.5275250830778,1054.6754996644938)">  <path stroke="none" stroke-opacity="1" fill-opacity="1" stroke-linecap="butt" fill="#000000" fill-rule="evenodd" clip-rule="evenodd" stroke-miterlimit="4" stroke-dasharray="none" stroke-linejoin="miter" stroke-width="1px" d="M66.038,47.018C66.041,46.98,66.041,46.943,66.041,46.905C66.041,46.868,66.041,46.831,66.038,46.793C66.038,46.769,66.035,46.744,66.032,46.719C66.032,46.706,66.028,46.694,66.028,46.682C66.025,46.663,66.023,46.644,66.023,46.628C66.02,46.607,66.016,46.588,66.013,46.566L66.013,46.56C65.938,46.099,65.719,45.664,65.385,45.331C63.471,43.073,61.191,41.062,58.874,39.226C53.887,35.272,48.18,31.961,41.879,30.629C38.24,29.861,34.574,29.827,30.916,30.477C27.586,31.068,24.378,32.3,21.376,33.828C16.676,36.217,12.383,39.513,8.643,43.205C7.952,43.891,7.261,44.588,6.632,45.331C5.794,46.321,5.794,47.49,6.632,48.477C8.546,50.736,10.825,52.746,13.143,54.582C18.133,58.537,23.84,61.847,30.137,63.179C33.777,63.948,37.442,63.982,41.101,63.331C44.428,62.74,47.636,61.508,50.641,59.98C55.341,57.591,59.634,54.295,63.374,50.603C64.065,49.917,64.756,49.22,65.385,48.477C65.719,48.144,65.938,47.712,66.013,47.248L66.013,47.242C66.016,47.22,66.02,47.201,66.023,47.18C66.025,47.161,66.028,47.145,66.028,47.126C66.028,47.114,66.032,47.101,66.032,47.089C66.035,47.064,66.035,47.043,66.038,47.018ZM50.051,47.055C50.051,54.799,43.77,61.076,36.022,61.076C28.275,61.076,21.993,54.799,21.993,47.055C21.993,39.311,28.275,33.034,36.022,33.034C43.77,33.034,50.051,39.311,50.051,47.055ZM36.846,54.352C40.025,49.859,39.869,43.732,36.41,37.093C36.255,36.797,35.787,36.797,35.632,37.093C34.591,39.092,33.855,41.043,33.413,42.918L36.229,45.561C36.41,45.733,36.425,46.022,36.261,46.211C36.174,46.309,36.053,46.361,35.933,46.361C35.827,46.361,35.721,46.322,35.636,46.243L33.201,43.956C33.109,44.473,33.034,44.981,32.989,45.483L35.842,48.104C36.026,48.272,36.043,48.561,35.88,48.752C35.793,48.854,35.67,48.908,35.548,48.908C35.445,48.908,35.34,48.869,35.255,48.791L32.925,46.651C32.914,47.273,32.943,47.883,33.007,48.481L35.838,51.045C36.021,51.212,36.04,51.5,35.88,51.692C35.793,51.796,35.67,51.85,35.546,51.85C35.442,51.85,35.34,51.813,35.255,51.738L33.241,49.913C33.596,51.518,34.241,53.01,35.19,54.352C35.274,54.47,35.406,54.54,35.546,54.54L35.576,54.54L35.576,57.294C35.576,57.547,35.774,57.753,36.018,57.753C36.262,57.753,36.46,57.547,36.46,57.294L36.46,54.54L36.49,54.54C36.63,54.54,36.763,54.47,36.846,54.352ZM36.846,54.352"/>
</g>
  <g id="Medium-M" transform="matrix(1.0,0.0,0.0,1.0,1711.8175250830777,1054.6754996644938)">  <path stroke-linecap="butt" fill="#000000" stroke-miterlimit="4" clip-rule="evenodd" stroke-width="1px" fill-rule="evenodd" fill-opacity="1" stroke="none" stroke-dasharray="none" stroke-opacity="1" stroke-linejoin="miter" d="M66.038,47.018C66.041,46.98,66.041,46.943,66.041,46.905C66.041,46.868,66.041,46.831,66.038,46.793C66.038,46.769,66.035,46.744,66.032,46.719C66.032,46.706,66.028,46.694,66.028,46.682C66.025,46.663,66.023,46.644,66.023,46.628C66.02,46.607,66.016,46.588,66.013,46.566L66.013,46.56C65.938,46.099,65.719,45.664,65.385,45.331C63.471,43.073,61.191,41.062,58.874,39.226C53.887,35.272,48.18,31.961,41.879,30.629C38.24,29.861,34.574,29.827,30.916,30.477C27.586,31.068,24.378,32.3,21.376,33.828C16.676,36.217,12.383,39.513,8.643,43.205C7.952,43.891,7.261,44.588,6.632,45.331C5.794,46.321,5.794,47.49,6.632,48.477C8.546,50.736,10.825,52.746,13.143,54.582C18.133,58.537,23.84,61.847,30.137,63.179C33.777,63.948,37.442,63.982,41.101,63.331C44.428,62.74,47.636,61.508,50.641,59.98C55.341,57.591,59.634,54.295,63.374,50.603C64.065,49.917,64.756,49.22,65.385,48.477C65.719,48.144,65.938,47.712,66.013,47.248L66.013,47.242C66.016,47.22,66.02,47.201,66.023,47.18C66.025,47.161,66.028,47.145,66.028,47.126C66.028,47.114,66.032,47.101,66.032,47.089C66.035,47.064,66.035,47.043,66.038,47.018ZM50.051,47.055C50.051,54.799,43.77,61.076,36.022,61.076C28.275,61.076,21.993,54.799,21.993,47.055C21.993,39.311,28.275,33.034,36.022,33.034C43.77,33.034,50.051,39.311,50.051,47.055ZM36.846,54.352C40.025,49.859,39.869,43.732,36.41,37.093C36.255,36.797,35.787,36.797,35.632,37.093C34.591,39.092,33.855,41.043,33.413,42.918L36.229,45.561C36.41,45.733,36.425,46.022,36.261,46.211C36.174,46.309,36.053,46.361,35.933,46.361C35.827,46.361,35.721,46.322,35.636,46.243L33.201,43.956C33.109,44.473,33.034,44.981,32.989,45.483L35.842,48.104C36.026,48.272,36.043,48.561,35.88,48.752C35.793,48.854,35.67,48.908,35.548,48.908C35.445,48.908,35.34,48.869,35.255,48.791L32.925,46.651C32.914,47.273,32.943,47.883,33.007,48.481L35.838,51.045C36.021,51.212,36.04,51.5,35.88,51.692C35.793,51.796,35.67,51.85,35.546,51.85C35.442,51.85,35.34,51.813,35.255,51.738L33.241,49.913C33.596,51.518,34.241,53.01,35.19,54.352C35.274,54.47,35.406,54.54,35.546,54.54L35.576,54.54L35.576,57.294C35.576,57.547,35.774,57.753,36.018,57.753C36.262,57.753,36.46,57.547,36.46,57.294L36.46,54.54L36.49,54.54C36.63,54.54,36.763,54.47,36.846,54.352ZM36.846,54.352"/>
</g>
  <g id="Regular-M" transform="matrix(1.0,0.0,0.0,1.0,1415.1075250830777,1054.6754996644938)">  <path fill-rule="evenodd" stroke-miterlimit="4" stroke="none" stroke-opacity="1" fill-opacity="1" stroke-width="1px" clip-rule="evenodd" fill="#000000" stroke-linecap="butt" stroke-dasharray="none" stroke-linejoin="miter" d="M66.038,47.018C66.041,46.98,66.041,46.943,66.041,46.905C66.041,46.868,66.041,46.831,66.038,46.793C66.038,46.769,66.035,46.744,66.032,46.719C66.032,46.706,66.028,46.694,66.028,46.682C66.025,46.663,66.023,46.644,66.023,46.628C66.02,46.607,66.016,46.588,66.013,46.566L66.013,46.56C65.938,46.099,65.719,45.664,65.385,45.331C63.471,43.073,61.191,41.062,58.874,39.226C53.887,35.272,48.18,31.961,41.879,30.629C38.24,29.861,34.574,29.827,30.916,30.477C27.586,31.068,24.378,32.3,21.376,33.828C16.676,36.217,12.383,39.513,8.643,43.205C7.952,43.891,7.261,44.588,6.632,45.331C5.794,46.321,5.794,47.49,6.632,48.477C8.546,50.736,10.825,52.746,13.143,54.582C18.133,58.537,23.84,61.847,30.137,63.179C33.777,63.948,37.442,63.982,41.101,63.331C44.428,62.74,47.636,61.508,50.641,59.98C55.341,57.591,59.634,54.295,63.374,50.603C64.065,49.917,64.756,49.22,65.385,48.477C65.719,48.144,65.938,47.712,66.013,47.248L66.013,47.242C66.016,47.22,66.02,47.201,66.023,47.18C66.025,47.161,66.028,47.145,66.028,47.126C66.028,47.114,66.032,47.101,66.032,47.089C66.035,47.064,66.035,47.043,66.038,47.018ZM50.051,47.055C50.051,54.799,43.77,61.076,36.022,61.076C28.275,61.076,21.993,54.799,21.993,47.055C21.993,39.311,28.275,33.034,36.022,33.034C43.77,33.034,50.051,39.311,50.051,47.055ZM36.846,54.352C40.025,49.859,39.869,43.732,36.41,37.093C36.255,36.797,35.787,36.797,35.632,37.093C34.591,39.092,33.855,41.043,33.413,42.918L36.229,45.561C36.41,45.733,36.425,46.022,36.261,46.211C36.174,46.309,36.053,46.361,35.933,46.361C35.827,46.361,35.721,46.322,35.636,46.243L33.201,43.956C33.109,44.473,33.034,44.981,32.989,45.483L35.842,48.104C36.026,48.272,36.043,48.561,35.88,48.752C35.793,48.854,35.67,48.908,35.548,48.908C35.445,48.908,35.34,48.869,35.255,48.791L32.925,46.651C32.914,47.273,32.943,47.883,33.007,48.481L35.838,51.045C36.021,51.212,36.04,51.5,35.88,51.692C35.793,51.796,35.67,51.85,35.546,51.85C35.442,51.85,35.34,51.813,35.255,51.738L33.241,49.913C33.596,51.518,34.241,53.01,35.19,54.352C35.274,54.47,35.406,54.54,35.546,54.54L35.576,54.54L35.576,57.294C35.576,57.547,35.774,57.753,36.018,57.753C36.262,57.753,36.46,57.547,36.46,57.294L36.46,54.54L36.49,54.54C36.63,54.54,36.763,54.47,36.846,54.352ZM36.846,54.352"/>
</g>
  <g id="Light-M" transform="matrix(1.0,0.0,0.0,1.0,1118.3975250830779,1054.6754996644938)">  <path fill="#000000" stroke-linecap="butt" stroke-opacity="1" stroke-width="1px" fill-opacity="1" stroke="none" stroke-miterlimit="4" stroke-linejoin="miter" stroke-dasharray="none" clip-rule="evenodd" fill-rule="evenodd" d="M66.038,47.018C66.041,46.98,66.041,46.943,66.041,46.905C66.041,46.868,66.041,46.831,66.038,46.793C66.038,46.769,66.035,46.744,66.032,46.719C66.032,46.706,66.028,46.694,66.028,46.682C66.025,46.663,66.023,46.644,66.023,46.628C66.02,46.607,66.016,46.588,66.013,46.566L66.013,46.56C65.938,46.099,65.719,45.664,65.385,45.331C63.471,43.073,61.191,41.062,58.874,39.226C53.887,35.272,48.18,31.961,41.879,30.629C38.24,29.861,34.574,29.827,30.916,30.477C27.586,31.068,24.378,32.3,21.376,33.828C16.676,36.217,12.383,39.513,8.643,43.205C7.952,43.891,7.261,44.588,6.632,45.331C5.794,46.321,5.794,47.49,6.632,48.477C8.546,50.736,10.825,52.746,13.143,54.582C18.133,58.537,23.84,61.847,30.137,63.179C33.777,63.948,37.442,63.982,41.101,63.331C44.428,62.74,47.636,61.508,50.641,59.98C55.341,57.591,59.634,54.295,63.374,50.603C64.065,49.917,64.756,49.22,65.385,48.477C65.719,48.144,65.938,47.712,66.013,47.248L66.013,47.242C66.016,47.22,66.02,47.201,66.023,47.18C66.025,47.161,66.028,47.145,66.028,47.126C66.028,47.114,66.032,47.101,66.032,47.089C66.035,47.064,66.035,47.043,66.038,47.018ZM50.051,47.055C50.051,54.799,43.77,61.076,36.022,61.076C28.275,61.076,21.993,54.799,21.993,47.055C21.993,39.311,28.275,33.034,36.022,33.034C43.77,33.034,50.051,39.311,50.051,47.055ZM36.846,54.352C40.025,49.859,39.869,43.732,36.41,37.093C36.255,36.797,35.787,36.797,35.632,37.093C34.591,39.092,33.855,41.043,33.413,42.918L36.229,45.561C36.41,45.733,36.425,46.022,36.261,46.211C36.174,46.309,36.053,46.361,35.933,46.361C35.827,46.361,35.721,46.322,35.636,46.243L33.201,43.956C33.109,44.473,33.034,44.981,32.989,45.483L35.842,48.104C36.026,48.272,36.043,48.561,35.88,48.752C35.793,48.854,35.67,48.908,35.548,48.908C35.445,48.908,35.34,48.869,35.255,48.791L32.925,46.651C32.914,47.273,32.943,47.883,33.007,48.481L35.838,51.045C36.021,51.212,36.04,51.5,35.88,51.692C35.793,51.796,35.67,51.85,35.546,51.85C35.442,51.85,35.34,51.813,35.255,51.738L33.241,49.913C33.596,51.518,34.241,53.01,35.19,54.352C35.274,54.47,35.406,54.54,35.546,54.54L35.576,54.54L35.576,57.294C35.576,57.547,35.774,57.753,36.018,57.753C36.262,57.753,36.46,57.547,36.46,57.294L36.46,54.54L36.49,54.54C36.63,54.54,36.763,54.47,36.846,54.352ZM36.846,54.352"/>
</g>
  <g id="Thin-M" transform="matrix(1.0,0.0,0.0,1.0,821.6875250830777,1054.6754996644938)">  <path fill="#000000" stroke-linejoin="miter" clip-rule="evenodd" stroke-linecap="butt" stroke="none" stroke-width="1px" stroke-miterlimit="4" stroke-dasharray="none" fill-rule="evenodd" fill-opacity="1" stroke-opacity="1" d="M66.038,47.018C66.041,46.98,66.041,46.943,66.041,46.905C66.041,46.868,66.041,46.831,66.038,46.793C66.038,46.769,66.035,46.744,66.032,46.719C66.032,46.706,66.028,46.694,66.028,46.682C66.025,46.663,66.023,46.644,66.023,46.628C66.02,46.607,66.016,46.588,66.013,46.566L66.013,46.56C65.938,46.099,65.719,45.664,65.385,45.331C63.471,43.073,61.191,41.062,58.874,39.226C53.887,35.272,48.18,31.961,41.879,30.629C38.24,29.861,34.574,29.827,30.916,30.477C27.586,31.068,24.378,32.3,21.376,33.828C16.676,36.217,12.383,39.513,8.643,43.205C7.952,43.891,7.261,44.588,6.632,45.331C5.794,46.321,5.794,47.49,6.632,48.477C8.546,50.736,10.825,52.746,13.143,54.582C18.133,58.537,23.84,61.847,30.137,63.179C33.777,63.948,37.442,63.982,41.101,63.331C44.428,62.74,47.636,61.508,50.641,59.98C55.341,57.591,59.634,54.295,63.374,50.603C64.065,49.917,64.756,49.22,65.385,48.477C65.719,48.144,65.938,47.712,66.013,47.248L66.013,47.242C66.016,47.22,66.02,47.201,66.023,47.18C66.025,47.161,66.028,47.145,66.028,47.126C66.028,47.114,66.032,47.101,66.032,47.089C66.035,47.064,66.035,47.043,66.038,47.018ZM50.051,47.055C50.051,54.799,43.77,61.076,36.022,61.076C28.275,61.076,21.993,54.799,21.993,47.055C21.993,39.311,28.275,33.034,36.022,33.034C43.77,33.034,50.051,39.311,50.051,47.055ZM36.846,54.352C40.025,49.859,39.869,43.732,36.41,37.093C36.255,36.797,35.787,36.797,35.632,37.093C34.591,39.092,33.855,41.043,33.413,42.918L36.229,45.561C36.41,45.733,36.425,46.022,36.261,46.211C36.174,46.309,36.053,46.361,35.933,46.361C35.827,46.361,35.721,46.322,35.636,46.243L33.201,43.956C33.109,44.473,33.034,44.981,32.989,45.483L35.842,48.104C36.026,48.272,36.043,48.561,35.88,48.752C35.793,48.854,35.67,48.908,35.548,48.908C35.445,48.908,35.34,48.869,35.255,48.791L32.925,46.651C32.914,47.273,32.943,47.883,33.007,48.481L35.838,51.045C36.021,51.212,36.04,51.5,35.88,51.692C35.793,51.796,35.67,51.85,35.546,51.85C35.442,51.85,35.34,51.813,35.255,51.738L33.241,49.913C33.596,51.518,34.241,53.01,35.19,54.352C35.274,54.47,35.406,54.54,35.546,54.54L35.576,54.54L35.576,57.294C35.576,57.547,35.774,57.753,36.018,57.753C36.262,57.753,36.46,57.547,36.46,57.294L36.46,54.54L36.49,54.54C36.63,54.54,36.763,54.47,36.846,54.352ZM36.846,54.352"/>
</g>
  <g id="Ultralight-M" transform="matrix(1.0,0.0,0.0,1.0,524.9775250830777,1054.6754996644938)">  <path stroke-opacity="1" clip-rule="evenodd" fill-opacity="1" stroke-width="1px" stroke-miterlimit="4" stroke="none" stroke-linecap="butt" fill="#000000" fill-rule="evenodd" stroke-dasharray="none" stroke-linejoin="miter" d="M66.038,47.018C66.041,46.98,66.041,46.943,66.041,46.905C66.041,46.868,66.041,46.831,66.038,46.793C66.038,46.769,66.035,46.744,66.032,46.719C66.032,46.706,66.028,46.694,66.028,46.682C66.025,46.663,66.023,46.644,66.023,46.628C66.02,46.607,66.016,46.588,66.013,46.566L66.013,46.56C65.938,46.099,65.719,45.664,65.385,45.331C63.471,43.073,61.191,41.062,58.874,39.226C53.887,35.272,48.18,31.961,41.879,30.629C38.24,29.861,34.574,29.827,30.916,30.477C27.586,31.068,24.378,32.3,21.376,33.828C16.676,36.217,12.383,39.513,8.643,43.205C7.952,43.891,7.261,44.588,6.632,45.331C5.794,46.321,5.794,47.49,6.632,48.477C8.546,50.736,10.825,52.746,13.143,54.582C18.133,58.537,23.84,61.847,30.137,63.179C33.777,63.948,37.442,63.982,41.101,63.331C44.428,62.74,47.636,61.508,50.641,59.98C55.341,57.591,59.634,54.295,63.374,50.603C64.065,49.917,64.756,49.22,65.385,48.477C65.719,48.144,65.938,47.712,66.013,47.248L66.013,47.242C66.016,47.22,66.02,47.201,66.023,47.18C66.025,47.161,66.028,47.145,66.028,47.126C66.028,47.114,66.032,47.101,66.032,47.089C66.035,47.064,66.035,47.043,66.038,47.018ZM50.051,47.055C50.051,54.799,43.77,61.076,36.022,61.076C28.275,61.076,21.993,54.799,21.993,47.055C21.993,39.311,28.275,33.034,36.022,33.034C43.77,33.034,50.051,39.311,50.051,47.055ZM36.846,54.352C40.025,49.859,39.869,43.732,36.41,37.093C36.255,36.797,35.787,36.797,35.632,37.093C34.591,39.092,33.855,41.043,33.413,42.918L36.229,45.561C36.41,45.733,36.425,46.022,36.261,46.211C36.174,46.309,36.053,46.361,35.933,46.361C35.827,46.361,35.721,46.322,35.636,46.243L33.201,43.956C33.109,44.473,33.034,44.981,32.989,45.483L35.842,48.104C36.026,48.272,36.043,48.561,35.88,48.752C35.793,48.854,35.67,48.908,35.548,48.908C35.445,48.908,35.34,48.869,35.255,48.791L32.925,46.651C32.914,47.273,32.943,47.883,33.007,48.481L35.838,51.045C36.021,51.212,36.04,51.5,35.88,51.692C35.793,51.796,35.67,51.85,35.546,51.85C35.442,51.85,35.34,51.813,35.255,51.738L33.241,49.913C33.596,51.518,34.241,53.01,35.19,54.352C35.274,54.47,35.406,54.54,35.546,54.54L35.576,54.54L35.576,57.294C35.576,57.547,35.774,57.753,36.018,57.753C36.262,57.753,36.46,57.547,36.46,57.294L36.46,54.54L36.49,54.54C36.63,54.54,36.763,54.47,36.846,54.352ZM36.846,54.352"/>
</g>
  <g id="Black-S" transform="matrix(1.0,0.0,0.0,1.0,2906.4744021400497,632.5080104755799)">  <path stroke-dasharray="none" stroke-miterlimit="4" stroke="none" stroke-width="1px" fill-opacity="1" fill="#000000" stroke-linecap="butt" clip-rule="evenodd" stroke-linejoin="miter" fill-rule="evenodd" stroke-opacity="1" d="M51.708,36.815C51.71,36.786,51.71,36.756,51.71,36.727C51.71,36.698,51.71,36.668,51.708,36.639C51.708,36.62,51.705,36.601,51.703,36.581C51.703,36.571,51.7,36.561,51.7,36.552C51.698,36.537,51.696,36.522,51.696,36.51C51.693,36.493,51.691,36.479,51.688,36.461L51.688,36.456C51.629,36.096,51.458,35.755,51.196,35.494C49.698,33.726,47.912,32.152,46.099,30.714C42.193,27.618,37.725,25.025,32.791,23.982C29.942,23.381,27.072,23.354,24.207,23.863C21.6,24.326,19.088,25.291,16.737,26.487C13.057,28.358,9.696,30.938,6.768,33.83C6.227,34.366,5.685,34.912,5.193,35.494C4.537,36.269,4.537,37.185,5.193,37.958C6.692,39.726,8.476,41.3,10.291,42.738C14.198,45.834,18.667,48.426,23.598,49.469C26.447,50.071,29.317,50.098,32.182,49.588C34.787,49.126,37.299,48.161,39.652,46.964C43.332,45.093,46.693,42.513,49.622,39.622C50.163,39.085,50.704,38.539,51.196,37.958C51.458,37.697,51.629,37.358,51.688,36.995L51.688,36.99C51.691,36.973,51.693,36.958,51.696,36.942C51.698,36.927,51.7,36.915,51.7,36.9C51.7,36.89,51.703,36.88,51.703,36.871C51.705,36.851,51.705,36.834,51.708,36.815ZM39.19,36.844C39.19,42.907,34.272,47.823,28.206,47.823C22.139,47.823,17.221,42.907,17.221,36.844C17.221,30.781,22.139,25.865,28.206,25.865C34.272,25.865,39.19,30.781,39.19,36.844ZM28.85,42.557C31.34,39.04,31.217,34.243,28.509,29.044C28.388,28.812,28.021,28.812,27.9,29.044C27.085,30.609,26.509,32.136,26.163,33.605L28.368,35.674C28.509,35.809,28.521,36.035,28.392,36.183C28.324,36.26,28.23,36.301,28.136,36.301C28.052,36.301,27.969,36.27,27.903,36.208L25.996,34.418C25.925,34.822,25.866,35.22,25.83,35.613L28.064,37.666C28.208,37.797,28.222,38.023,28.094,38.173C28.026,38.253,27.93,38.295,27.834,38.295C27.753,38.295,27.671,38.264,27.605,38.203L25.78,36.528C25.772,37.015,25.794,37.492,25.844,37.96L28.061,39.968C28.205,40.099,28.219,40.325,28.094,40.475C28.026,40.556,27.93,40.599,27.833,40.599C27.751,40.599,27.671,40.569,27.605,40.511L26.028,39.082C26.305,40.338,26.811,41.507,27.554,42.557C27.62,42.65,27.723,42.705,27.833,42.705L27.856,42.705L27.856,44.861C27.856,45.059,28.011,45.221,28.202,45.221C28.393,45.221,28.548,45.059,28.548,44.861L28.548,42.705L28.572,42.705C28.682,42.705,28.785,42.65,28.85,42.557ZM28.85,42.557"/>
</g>
  <g id="Heavy-S" transform="matrix(1.0,0.0,0.0,1.0,2609.7644021400497,632.5080104755799)">  <path stroke-opacity="1" stroke-linejoin="miter" clip-rule="evenodd" stroke-miterlimit="4" fill="#000000" stroke-linecap="butt" stroke-width="1px" stroke="none" stroke-dasharray="none" fill-opacity="1" fill-rule="evenodd" d="M51.708,36.815C51.71,36.786,51.71,36.756,51.71,36.727C51.71,36.698,51.71,36.668,51.708,36.639C51.708,36.62,51.705,36.601,51.703,36.581C51.703,36.571,51.7,36.561,51.7,36.552C51.698,36.537,51.696,36.522,51.696,36.51C51.693,36.493,51.691,36.479,51.688,36.461L51.688,36.456C51.629,36.096,51.458,35.755,51.196,35.494C49.698,33.726,47.912,32.152,46.099,30.714C42.193,27.618,37.725,25.025,32.791,23.982C29.942,23.381,27.072,23.354,24.207,23.863C21.6,24.326,19.088,25.291,16.737,26.487C13.057,28.358,9.696,30.938,6.768,33.83C6.227,34.366,5.685,34.912,5.193,35.494C4.537,36.269,4.537,37.185,5.193,37.958C6.692,39.726,8.476,41.3,10.291,42.738C14.198,45.834,18.667,48.426,23.598,49.469C26.447,50.071,29.317,50.098,32.182,49.588C34.787,49.126,37.299,48.161,39.652,46.964C43.332,45.093,46.693,42.513,49.622,39.622C50.163,39.085,50.704,38.539,51.196,37.958C51.458,37.697,51.629,37.358,51.688,36.995L51.688,36.99C51.691,36.973,51.693,36.958,51.696,36.942C51.698,36.927,51.7,36.915,51.7,36.9C51.7,36.89,51.703,36.88,51.703,36.871C51.705,36.851,51.705,36.834,51.708,36.815ZM39.19,36.844C39.19,42.907,34.272,47.823,28.206,47.823C22.139,47.823,17.221,42.907,17.221,36.844C17.221,30.781,22.139,25.865,28.206,25.865C34.272,25.865,39.19,30.781,39.19,36.844ZM28.85,42.557C31.34,39.04,31.217,34.243,28.509,29.044C28.388,28.812,28.021,28.812,27.9,29.044C27.085,30.609,26.509,32.136,26.163,33.605L28.368,35.674C28.509,35.809,28.521,36.035,28.392,36.183C28.324,36.26,28.23,36.301,28.136,36.301C28.052,36.301,27.969,36.27,27.903,36.208L25.996,34.418C25.925,34.822,25.866,35.22,25.83,35.613L28.064,37.666C28.208,37.797,28.222,38.023,28.094,38.173C28.026,38.253,27.93,38.295,27.834,38.295C27.753,38.295,27.671,38.264,27.605,38.203L25.78,36.528C25.772,37.015,25.794,37.492,25.844,37.96L28.061,39.968C28.205,40.099,28.219,40.325,28.094,40.475C28.026,40.556,27.93,40.599,27.833,40.599C27.751,40.599,27.671,40.569,27.605,40.511L26.028,39.082C26.305,40.338,26.811,41.507,27.554,42.557C27.62,42.65,27.723,42.705,27.833,42.705L27.856,42.705L27.856,44.861C27.856,45.059,28.011,45.221,28.202,45.221C28.393,45.221,28.548,45.059,28.548,44.861L28.548,42.705L28.572,42.705C28.682,42.705,28.785,42.65,28.85,42.557ZM28.85,42.557"/>
</g>
  <g id="Bold-S" transform="matrix(1.0,0.0,0.0,1.0,2313.0544021400497,632.5080104755799)">  <path stroke-dasharray="none" clip-rule="evenodd" stroke-miterlimit="4" fill="#000000" stroke-linecap="butt" fill-rule="evenodd" fill-opacity="1" stroke-width="1px" stroke-opacity="1" stroke-linejoin="miter" stroke="none" d="M51.708,36.815C51.71,36.786,51.71,36.756,51.71,36.727C51.71,36.698,51.71,36.668,51.708,36.639C51.708,36.62,51.705,36.601,51.703,36.581C51.703,36.571,51.7,36.561,51.7,36.552C51.698,36.537,51.696,36.522,51.696,36.51C51.693,36.493,51.691,36.479,51.688,36.461L51.688,36.456C51.629,36.096,51.458,35.755,51.196,35.494C49.698,33.726,47.912,32.152,46.099,30.714C42.193,27.618,37.725,25.025,32.791,23.982C29.942,23.381,27.072,23.354,24.207,23.863C21.6,24.326,19.088,25.291,16.737,26.487C13.057,28.358,9.696,30.938,6.768,33.83C6.227,34.366,5.685,34.912,5.193,35.494C4.537,36.269,4.537,37.185,5.193,37.958C6.692,39.726,8.476,41.3,10.291,42.738C14.198,45.834,18.667,48.426,23.598,49.469C26.447,50.071,29.317,50.098,32.182,49.588C34.787,49.126,37.299,48.161,39.652,46.964C43.332,45.093,46.693,42.513,49.622,39.622C50.163,39.085,50.704,38.539,51.196,37.958C51.458,37.697,51.629,37.358,51.688,36.995L51.688,36.99C51.691,36.973,51.693,36.958,51.696,36.942C51.698,36.927,51.7,36.915,51.7,36.9C51.7,36.89,51.703,36.88,51.703,36.871C51.705,36.851,51.705,36.834,51.708,36.815ZM39.19,36.844C39.19,42.907,34.272,47.823,28.206,47.823C22.139,47.823,17.221,42.907,17.221,36.844C17.221,30.781,22.139,25.865,28.206,25.865C34.272,25.865,39.19,30.781,39.19,36.844ZM28.85,42.557C31.34,39.04,31.217,34.243,28.509,29.044C28.388,28.812,28.021,28.812,27.9,29.044C27.085,30.609,26.509,32.136,26.163,33.605L28.368,35.674C28.509,35.809,28.521,36.035,28.392,36.183C28.324,36.26,28.23,36.301,28.136,36.301C28.052,36.301,27.969,36.27,27.903,36.208L25.996,34.418C25.925,34.822,25.866,35.22,25.83,35.613L28.064,37.666C28.208,37.797,28.222,38.023,28.094,38.173C28.026,38.253,27.93,38.295,27.834,38.295C27.753,38.295,27.671,38.264,27.605,38.203L25.78,36.528C25.772,37.015,25.794,37.492,25.844,37.96L28.061,39.968C28.205,40.099,28.219,40.325,28.094,40.475C28.026,40.556,27.93,40.599,27.833,40.599C27.751,40.599,27.671,40.569,27.605,40.511L26.028,39.082C26.305,40.338,26.811,41.507,27.554,42.557C27.62,42.65,27.723,42.705,27.833,42.705L27.856,42.705L27.856,44.861C27.856,45.059,28.011,45.221,28.202,45.221C28.393,45.221,28.548,45.059,28.548,44.861L28.548,42.705L28.572,42.705C28.682,42.705,28.785,42.65,28.85,42.557ZM28.85,42.557"/>
</g>
  <g id="Semibold-S" transform="matrix(1.0,0.0,0.0,1.0,2016.3444021400499,632.5080104755799)">  <path stroke="none" stroke-opacity="1" fill-opacity="1" stroke-linecap="butt" fill="#000000" fill-rule="evenodd" clip-rule="evenodd" stroke-miterlimit="4" stroke-dasharray="none" stroke-linejoin="miter" stroke-width="1px" d="M51.708,36.815C51.71,36.786,51.71,36.756,51.71,36.727C51.71,36.698,51.71,36.668,51.708,36.639C51.708,36.62,51.705,36.601,51.703,36.581C51.703,36.571,51.7,36.561,51.7,36.552C51.698,36.537,51.696,36.522,51.696,36.51C51.693,36.493,51.691,36.479,51.688,36.461L51.688,36.456C51.629,36.096,51.458,35.755,51.196,35.494C49.698,33.726,47.912,32.152,46.099,30.714C42.193,27.618,37.725,25.025,32.791,23.982C29.942,23.381,27.072,23.354,24.207,23.863C21.6,24.326,19.088,25.291,16.737,26.487C13.057,28.358,9.696,30.938,6.768,33.83C6.227,34.366,5.685,34.912,5.193,35.494C4.537,36.269,4.537,37.185,5.193,37.958C6.692,39.726,8.476,41.3,10.291,42.738C14.198,45.834,18.667,48.426,23.598,49.469C26.447,50.071,29.317,50.098,32.182,49.588C34.787,49.126,37.299,48.161,39.652,46.964C43.332,45.093,46.693,42.513,49.622,39.622C50.163,39.085,50.704,38.539,51.196,37.958C51.458,37.697,51.629,37.358,51.688,36.995L51.688,36.99C51.691,36.973,51.693,36.958,51.696,36.942C51.698,36.927,51.7,36.915,51.7,36.9C51.7,36.89,51.703,36.88,51.703,36.871C51.705,36.851,51.705,36.834,51.708,36.815ZM39.19,36.844C39.19,42.907,34.272,47.823,28.206,47.823C22.139,47.823,17.221,42.907,17.221,36.844C17.221,30.781,22.139,25.865,28.206,25.865C34.272,25.865,39.19,30.781,39.19,36.844ZM28.85,42.557C31.34,39.04,31.217,34.243,28.509,29.044C28.388,28.812,28.021,28.812,27.9,29.044C27.085,30.609,26.509,32.136,26.163,33.605L28.368,35.674C28.509,35.809,28.521,36.035,28.392,36.183C28.324,36.26,28.23,36.301,28.136,36.301C28.052,36.301,27.969,36.27,27.903,36.208L25.996,34.418C25.925,34.822,25.866,35.22,25.83,35.613L28.064,37.666C28.208,37.797,28.222,38.023,28.094,38.173C28.026,38.253,27.93,38.295,27.834,38.295C27.753,38.295,27.671,38.264,27.605,38.203L25.78,36.528C25.772,37.015,25.794,37.492,25.844,37.96L28.061,39.968C28.205,40.099,28.219,40.325,28.094,40.475C28.026,40.556,27.93,40.599,27.833,40.599C27.751,40.599,27.671,40.569,27.605,40.511L26.028,39.082C26.305,40.338,26.811,41.507,27.554,42.557C27.62,42.65,27.723,42.705,27.833,42.705L27.856,42.705L27.856,44.861C27.856,45.059,28.011,45.221,28.202,45.221C28.393,45.221,28.548,45.059,28.548,44.861L28.548,42.705L28.572,42.705C28.682,42.705,28.785,42.65,28.85,42.557ZM28.85,42.557"/>
</g>
  <g id="Medium-S" transform="matrix(1.0,0.0,0.0,1.0,1719.6344021400498,632.5080104755799)">  <path stroke-linecap="butt" fill="#000000" stroke-miterlimit="4" clip-rule="evenodd" stroke-width="1px" fill-rule="evenodd" fill-opacity="1" stroke="none" stroke-dasharray="none" stroke-opacity="1" stroke-linejoin="miter" d="M51.708,36.815C51.71,36.786,51.71,36.756,51.71,36.727C51.71,36.698,51.71,36.668,51.708,36.639C51.708,36.62,51.705,36.601,51.703,36.581C51.703,36.571,51.7,36.561,51.7,36.552C51.698,36.537,51.696,36.522,51.696,36.51C51.693,36.493,51.691,36.479,51.688,36.461L51.688,36.456C51.629,36.096,51.458,35.755,51.196,35.494C49.698,33.726,47.912,32.152,46.099,30.714C42.193,27.618,37.725,25.025,32.791,23.982C29.942,23.381,27.072,23.354,24.207,23.863C21.6,24.326,19.088,25.291,16.737,26.487C13.057,28.358,9.696,30.938,6.768,33.83C6.227,34.366,5.685,34.912,5.193,35.494C4.537,36.269,4.537,37.185,5.193,37.958C6.692,39.726,8.476,41.3,10.291,42.738C14.198,45.834,18.667,48.426,23.598,49.469C26.447,50.071,29.317,50.098,32.182,49.588C34.787,49.126,37.299,48.161,39.652,46.964C43.332,45.093,46.693,42.513,49.622,39.622C50.163,39.085,50.704,38.539,51.196,37.958C51.458,37.697,51.629,37.358,51.688,36.995L51.688,36.99C51.691,36.973,51.693,36.958,51.696,36.942C51.698,36.927,51.7,36.915,51.7,36.9C51.7,36.89,51.703,36.88,51.703,36.871C51.705,36.851,51.705,36.834,51.708,36.815ZM39.19,36.844C39.19,42.907,34.272,47.823,28.206,47.823C22.139,47.823,17.221,42.907,17.221,36.844C17.221,30.781,22.139,25.865,28.206,25.865C34.272,25.865,39.19,30.781,39.19,36.844ZM28.85,42.557C31.34,39.04,31.217,34.243,28.509,29.044C28.388,28.812,28.021,28.812,27.9,29.044C27.085,30.609,26.509,32.136,26.163,33.605L28.368,35.674C28.509,35.809,28.521,36.035,28.392,36.183C28.324,36.26,28.23,36.301,28.136,36.301C28.052,36.301,27.969,36.27,27.903,36.208L25.996,34.418C25.925,34.822,25.866,35.22,25.83,35.613L28.064,37.666C28.208,37.797,28.222,38.023,28.094,38.173C28.026,38.253,27.93,38.295,27.834,38.295C27.753,38.295,27.671,38.264,27.605,38.203L25.78,36.528C25.772,37.015,25.794,37.492,25.844,37.96L28.061,39.968C28.205,40.099,28.219,40.325,28.094,40.475C28.026,40.556,27.93,40.599,27.833,40.599C27.751,40.599,27.671,40.569,27.605,40.511L26.028,39.082C26.305,40.338,26.811,41.507,27.554,42.557C27.62,42.65,27.723,42.705,27.833,42.705L27.856,42.705L27.856,44.861C27.856,45.059,28.011,45.221,28.202,45.221C28.393,45.221,28.548,45.059,28.548,44.861L28.548,42.705L28.572,42.705C28.682,42.705,28.785,42.65,28.85,42.557ZM28.85,42.557"/>
</g>
  <g id="Regular-S" transform="matrix(1.0,0.0,0.0,1.0,1422.9244021400498,632.5080104755799)">  <path fill-rule="evenodd" stroke-miterlimit="4" stroke="none" stroke-opacity="1" fill-opacity="1" stroke-width="1px" clip-rule="evenodd" fill="#000000" stroke-linecap="butt" stroke-dasharray="none" stroke-linejoin="miter" d="M51.708,36.815C51.71,36.786,51.71,36.756,51.71,36.727C51.71,36.698,51.71,36.668,51.708,36.639C51.708,36.62,51.705,36.601,51.703,36.581C51.703,36.571,51.7,36.561,51.7,36.552C51.698,36.537,51.696,36.522,51.696,36.51C51.693,36.493,51.691,36.479,51.688,36.461L51.688,36.456C51.629,36.096,51.458,35.755,51.196,35.494C49.698,33.726,47.912,32.152,46.099,30.714C42.193,27.618,37.725,25.025,32.791,23.982C29.942,23.381,27.072,23.354,24.207,23.863C21.6,24.326,19.088,25.291,16.737,26.487C13.057,28.358,9.696,30.938,6.768,33.83C6.227,34.366,5.685,34.912,5.193,35.494C4.537,36.269,4.537,37.185,5.193,37.958C6.692,39.726,8.476,41.3,10.291,42.738C14.198,45.834,18.667,48.426,23.598,49.469C26.447,50.071,29.317,50.098,32.182,49.588C34.787,49.126,37.299,48.161,39.652,46.964C43.332,45.093,46.693,42.513,49.622,39.622C50.163,39.085,50.704,38.539,51.196,37.958C51.458,37.697,51.629,37.358,51.688,36.995L51.688,36.99C51.691,36.973,51.693,36.958,51.696,36.942C51.698,36.927,51.7,36.915,51.7,36.9C51.7,36.89,51.703,36.88,51.703,36.871C51.705,36.851,51.705,36.834,51.708,36.815ZM39.19,36.844C39.19,42.907,34.272,47.823,28.206,47.823C22.139,47.823,17.221,42.907,17.221,36.844C17.221,30.781,22.139,25.865,28.206,25.865C34.272,25.865,39.19,30.781,39.19,36.844ZM28.85,42.557C31.34,39.04,31.217,34.243,28.509,29.044C28.388,28.812,28.021,28.812,27.9,29.044C27.085,30.609,26.509,32.136,26.163,33.605L28.368,35.674C28.509,35.809,28.521,36.035,28.392,36.183C28.324,36.26,28.23,36.301,28.136,36.301C28.052,36.301,27.969,36.27,27.903,36.208L25.996,34.418C25.925,34.822,25.866,35.22,25.83,35.613L28.064,37.666C28.208,37.797,28.222,38.023,28.094,38.173C28.026,38.253,27.93,38.295,27.834,38.295C27.753,38.295,27.671,38.264,27.605,38.203L25.78,36.528C25.772,37.015,25.794,37.492,25.844,37.96L28.061,39.968C28.205,40.099,28.219,40.325,28.094,40.475C28.026,40.556,27.93,40.599,27.833,40.599C27.751,40.599,27.671,40.569,27.605,40.511L26.028,39.082C26.305,40.338,26.811,41.507,27.554,42.557C27.62,42.65,27.723,42.705,27.833,42.705L27.856,42.705L27.856,44.861C27.856,45.059,28.011,45.221,28.202,45.221C28.393,45.221,28.548,45.059,28.548,44.861L28.548,42.705L28.572,42.705C28.682,42.705,28.785,42.65,28.85,42.557ZM28.85,42.557"/>
</g>
  <g id="Light-S" transform="matrix(1.0,0.0,0.0,1.0,1126.21440214005,632.5080104755799)">  <path fill="#000000" stroke-linecap="butt" stroke-opacity="1" stroke-width="1px" fill-opacity="1" stroke="none" stroke-miterlimit="4" stroke-linejoin="miter" stroke-dasharray="none" clip-rule="evenodd" fill-rule="evenodd" d="M51.708,36.815C51.71,36.786,51.71,36.756,51.71,36.727C51.71,36.698,51.71,36.668,51.708,36.639C51.708,36.62,51.705,36.601,51.703,36.581C51.703,36.571,51.7,36.561,51.7,36.552C51.698,36.537,51.696,36.522,51.696,36.51C51.693,36.493,51.691,36.479,51.688,36.461L51.688,36.456C51.629,36.096,51.458,35.755,51.196,35.494C49.698,33.726,47.912,32.152,46.099,30.714C42.193,27.618,37.725,25.025,32.791,23.982C29.942,23.381,27.072,23.354,24.207,23.863C21.6,24.326,19.088,25.291,16.737,26.487C13.057,28.358,9.696,30.938,6.768,33.83C6.227,34.366,5.685,34.912,5.193,35.494C4.537,36.269,4.537,37.185,5.193,37.958C6.692,39.726,8.476,41.3,10.291,42.738C14.198,45.834,18.667,48.426,23.598,49.469C26.447,50.071,29.317,50.098,32.182,49.588C34.787,49.126,37.299,48.161,39.652,46.964C43.332,45.093,46.693,42.513,49.622,39.622C50.163,39.085,50.704,38.539,51.196,37.958C51.458,37.697,51.629,37.358,51.688,36.995L51.688,36.99C51.691,36.973,51.693,36.958,51.696,36.942C51.698,36.927,51.7,36.915,51.7,36.9C51.7,36.89,51.703,36.88,51.703,36.871C51.705,36.851,51.705,36.834,51.708,36.815ZM39.19,36.844C39.19,42.907,34.272,47.823,28.206,47.823C22.139,47.823,17.221,42.907,17.221,36.844C17.221,30.781,22.139,25.865,28.206,25.865C34.272,25.865,39.19,30.781,39.19,36.844ZM28.85,42.557C31.34,39.04,31.217,34.243,28.509,29.044C28.388,28.812,28.021,28.812,27.9,29.044C27.085,30.609,26.509,32.136,26.163,33.605L28.368,35.674C28.509,35.809,28.521,36.035,28.392,36.183C28.324,36.26,28.23,36.301,28.136,36.301C28.052,36.301,27.969,36.27,27.903,36.208L25.996,34.418C25.925,34.822,25.866,35.22,25.83,35.613L28.064,37.666C28.208,37.797,28.222,38.023,28.094,38.173C28.026,38.253,27.93,38.295,27.834,38.295C27.753,38.295,27.671,38.264,27.605,38.203L25.78,36.528C25.772,37.015,25.794,37.492,25.844,37.96L28.061,39.968C28.205,40.099,28.219,40.325,28.094,40.475C28.026,40.556,27.93,40.599,27.833,40.599C27.751,40.599,27.671,40.569,27.605,40.511L26.028,39.082C26.305,40.338,26.811,41.507,27.554,42.557C27.62,42.65,27.723,42.705,27.833,42.705L27.856,42.705L27.856,44.861C27.856,45.059,28.011,45.221,28.202,45.221C28.393,45.221,28.548,45.059,28.548,44.861L28.548,42.705L28.572,42.705C28.682,42.705,28.785,42.65,28.85,42.557ZM28.85,42.557"/>
</g>
  <g id="Thin-S" transform="matrix(1.0,0.0,0.0,1.0,829.5044021400499,632.5080104755799)">  <path fill="#000000" stroke-linejoin="miter" clip-rule="evenodd" stroke-linecap="butt" stroke="none" stroke-width="1px" stroke-miterlimit="4" stroke-dasharray="none" fill-rule="evenodd" fill-opacity="1" stroke-opacity="1" d="M51.708,36.815C51.71,36.786,51.71,36.756,51.71,36.727C51.71,36.698,51.71,36.668,51.708,36.639C51.708,36.62,51.705,36.601,51.703,36.581C51.703,36.571,51.7,36.561,51.7,36.552C51.698,36.537,51.696,36.522,51.696,36.51C51.693,36.493,51.691,36.479,51.688,36.461L51.688,36.456C51.629,36.096,51.458,35.755,51.196,35.494C49.698,33.726,47.912,32.152,46.099,30.714C42.193,27.618,37.725,25.025,32.791,23.982C29.942,23.381,27.072,23.354,24.207,23.863C21.6,24.326,19.088,25.291,16.737,26.487C13.057,28.358,9.696,30.938,6.768,33.83C6.227,34.366,5.685,34.912,5.193,35.494C4.537,36.269,4.537,37.185,5.193,37.958C6.692,39.726,8.476,41.3,10.291,42.738C14.198,45.834,18.667,48.426,23.598,49.469C26.447,50.071,29.317,50.098,32.182,49.588C34.787,49.126,37.299,48.161,39.652,46.964C43.332,45.093,46.693,42.513,49.622,39.622C50.163,39.085,50.704,38.539,51.196,37.958C51.458,37.697,51.629,37.358,51.688,36.995L51.688,36.99C51.691,36.973,51.693,36.958,51.696,36.942C51.698,36.927,51.7,36.915,51.7,36.9C51.7,36.89,51.703,36.88,51.703,36.871C51.705,36.851,51.705,36.834,51.708,36.815ZM39.19,36.844C39.19,42.907,34.272,47.823,28.206,47.823C22.139,47.823,17.221,42.907,17.221,36.844C17.221,30.781,22.139,25.865,28.206,25.865C34.272,25.865,39.19,30.781,39.19,36.844ZM28.85,42.557C31.34,39.04,31.217,34.243,28.509,29.044C28.388,28.812,28.021,28.812,27.9,29.044C27.085,30.609,26.509,32.136,26.163,33.605L28.368,35.674C28.509,35.809,28.521,36.035,28.392,36.183C28.324,36.26,28.23,36.301,28.136,36.301C28.052,36.301,27.969,36.27,27.903,36.208L25.996,34.418C25.925,34.822,25.866,35.22,25.83,35.613L28.064,37.666C28.208,37.797,28.222,38.023,28.094,38.173C28.026,38.253,27.93,38.295,27.834,38.295C27.753,38.295,27.671,38.264,27.605,38.203L25.78,36.528C25.772,37.015,25.794,37.492,25.844,37.96L28.061,39.968C28.205,40.099,28.219,40.325,28.094,40.475C28.026,40.556,27.93,40.599,27.833,40.599C27.751,40.599,27.671,40.569,27.605,40.511L26.028,39.082C26.305,40.338,26.811,41.507,27.554,42.557C27.62,42.65,27.723,42.705,27.833,42.705L27.856,42.705L27.856,44.861C27.856,45.059,28.011,45.221,28.202,45.221C28.393,45.221,28.548,45.059,28.548,44.861L28.548,42.705L28.572,42.705C28.682,42.705,28.785,42.65,28.85,42.557ZM28.85,42.557"/>
</g>
  <g id="Ultralight-S" transform="matrix(1.0,0.0,0.0,1.0,532.7944021400499,632.5080104755799)">  <path stroke-opacity="1" clip-rule="evenodd" fill-opacity="1" stroke-width="1px" stroke-miterlimit="4" stroke="none" stroke-linecap="butt" fill="#000000" fill-rule="evenodd" stroke-dasharray="none" stroke-linejoin="miter" d="M51.708,36.815C51.71,36.786,51.71,36.756,51.71,36.727C51.71,36.698,51.71,36.668,51.708,36.639C51.708,36.62,51.705,36.601,51.703,36.581C51.703,36.571,51.7,36.561,51.7,36.552C51.698,36.537,51.696,36.522,51.696,36.51C51.693,36.493,51.691,36.479,51.688,36.461L51.688,36.456C51.629,36.096,51.458,35.755,51.196,35.494C49.698,33.726,47.912,32.152,46.099,30.714C42.193,27.618,37.725,25.025,32.791,23.982C29.942,23.381,27.072,23.354,24.207,23.863C21.6,24.326,19.088,25.291,16.737,26.487C13.057,28.358,9.696,30.938,6.768,33.83C6.227,34.366,5.685,34.912,5.193,35.494C4.537,36.269,4.537,37.185,5.193,37.958C6.692,39.726,8.476,41.3,10.291,42.738C14.198,45.834,18.667,48.426,23.598,49.469C26.447,50.071,29.317,50.098,32.182,49.588C34.787,49.126,37.299,48.161,39.652,46.964C43.332,45.093,46.693,42.513,49.622,39.622C50.163,39.085,50.704,38.539,51.196,37.958C51.458,37.697,51.629,37.358,51.688,36.995L51.688,36.99C51.691,36.973,51.693,36.958,51.696,36.942C51.698,36.927,51.7,36.915,51.7,36.9C51.7,36.89,51.703,36.88,51.703,36.871C51.705,36.851,51.705,36.834,51.708,36.815ZM39.19,36.844C39.19,42.907,34.272,47.823,28.206,47.823C22.139,47.823,17.221,42.907,17.221,36.844C17.221,30.781,22.139,25.865,28.206,25.865C34.272,25.865,39.19,30.781,39.19,36.844ZM28.85,42.557C31.34,39.04,31.217,34.243,28.509,29.044C28.388,28.812,28.021,28.812,27.9,29.044C27.085,30.609,26.509,32.136,26.163,33.605L28.368,35.674C28.509,35.809,28.521,36.035,28.392,36.183C28.324,36.26,28.23,36.301,28.136,36.301C28.052,36.301,27.969,36.27,27.903,36.208L25.996,34.418C25.925,34.822,25.866,35.22,25.83,35.613L28.064,37.666C28.208,37.797,28.222,38.023,28.094,38.173C28.026,38.253,27.93,38.295,27.834,38.295C27.753,38.295,27.671,38.264,27.605,38.203L25.78,36.528C25.772,37.015,25.794,37.492,25.844,37.96L28.061,39.968C28.205,40.099,28.219,40.325,28.094,40.475C28.026,40.556,27.93,40.599,27.833,40.599C27.751,40.599,27.671,40.569,27.605,40.511L26.028,39.082C26.305,40.338,26.811,41.507,27.554,42.557C27.62,42.65,27.723,42.705,27.833,42.705L27.856,42.705L27.856,44.861C27.856,45.059,28.011,45.221,28.202,45.221C28.393,45.221,28.548,45.059,28.548,44.861L28.548,42.705L28.572,42.705C28.682,42.705,28.785,42.65,28.85,42.557ZM28.85,42.557"/>
</g>
 </g>
</svg>
