<svg width="24" height="24" viewBox="0 0 24 24" fill="none" xmlns="http://www.w3.org/2000/svg">
<g clip-path="url(#clip0_2840_4690)">
<rect width="24" height="24" fill="white"/>
<path d="M4.26562 22.5469C3.5197 22.5469 2.80433 22.2506 2.27689 21.7231C1.74944 21.1957 1.45313 20.4803 1.45312 19.7344V17.625C1.4561 15.0152 2.49417 12.5131 4.33958 10.6677C6.185 8.82229 8.68706 7.78423 11.2969 7.78125H12.7031C13.7498 7.78547 14.7603 7.39884 15.5368 6.69706C16.3133 5.99528 16.7999 5.02891 16.9013 3.98719C16.9747 3.24487 17.3401 2.56215 17.9169 2.0892C18.4938 1.61626 19.2349 1.39184 19.9772 1.46531C20.7195 1.53879 21.4022 1.90414 21.8752 2.48099C22.3481 3.05784 22.5725 3.79894 22.4991 4.54125C22.2641 6.97368 21.1295 9.23077 19.3176 10.8705C17.5057 12.5103 15.1469 13.4145 12.7031 13.4063H11.2969C10.1784 13.4075 9.10604 13.8524 8.31514 14.6433C7.52424 15.4342 7.07937 16.5065 7.07812 17.625V19.7344C7.07812 20.4803 6.78181 21.1957 6.25436 21.7231C5.72692 22.2506 5.01155 22.5469 4.26562 22.5469Z" stroke="#12466A" stroke-width="1.5" stroke-linecap="round" stroke-linejoin="round"/>
<path d="M1.45312 18.3281C2.36866 18.0731 3.31526 17.9469 4.26562 17.9531C5.21598 17.947 6.16257 18.0732 7.07812 18.3281" stroke="#12466A" stroke-width="1.5" stroke-linecap="round" stroke-linejoin="round"/>
<path d="M4.3125 10.6922C5.15651 11.1359 5.93461 11.6951 6.62437 12.3534C7.31693 13.0012 7.91497 13.7432 8.40094 14.5575" stroke="#12466A" stroke-width="1.5" stroke-linecap="round" stroke-linejoin="round"/>
<path d="M12.075 7.78125C12.5545 8.65467 12.9152 9.58824 13.1475 10.5572C13.3701 11.4814 13.4625 12.4321 13.4221 13.3819" stroke="#12466A" stroke-width="1.5" stroke-linecap="round" stroke-linejoin="round"/>
<path d="M16.2816 5.8125C17.1756 6.16365 18.0168 6.6369 18.781 7.21875C19.5409 7.78225 20.2178 8.44971 20.7919 9.20156" stroke="#12466A" stroke-width="1.5" stroke-linecap="round" stroke-linejoin="round"/>
</g>
<defs>
<clipPath id="clip0_2840_4690">
<rect width="24" height="24" fill="white"/>
</clipPath>
</defs>
</svg>
