<?xml version="1.0" encoding="utf-8"?>
<!-- Generator: Adobe Illustrator 16.0.3, SVG Export Plug-In . SVG Version: 6.00 Build 0)  -->
<!DOCTYPE svg PUBLIC "-//W3C//DTD SVG 1.1//EN" "http://www.w3.org/Graphics/SVG/1.1/DTD/svg11.dtd">
<svg version="1.1" id="Ebene_1" xmlns="http://www.w3.org/2000/svg" xmlns:xlink="http://www.w3.org/1999/xlink" x="0px" y="0px"
	 width="45px" height="44.982px" viewBox="0 0 45 44.982" enable-background="new 0 0 45 44.982" xml:space="preserve">
<g>
	<circle id="path-1_2_" fill="none" stroke="#FFFFFF" stroke-width="8" stroke-opacity="0.5" cx="22.507" cy="22.491" r="15"/>
</g>
<g>
	<circle id="path-3_2_" fill="none" stroke="#638B54" stroke-width="4" cx="22.508" cy="22.491" r="15"/>
</g>
<g>
	<circle id="path-3_1_" fill="#729F62" cx="22.508" cy="22.491" r="15"/>
</g>
<g>
	<circle id="path-3_3_" fill="none" cx="22.5" cy="22.491" r="22.5"/>
</g>
<path fill="#FFFFFF" d="M35.422,25.257c-0.522-0.918-2.285,0.504-2.883,0.771c-1.391,0.623-2.872,1.071-4.402,1.13
	c1.826-0.586,3.187-1.418,4.379-2.934c0.791-0.999,1.977-2.419,2.213-3.714c0.216-0.624-0.527-1.168-1.055-0.77
	c-0.494,0.372-0.754,1.503-1.068,2.033c-0.984,1.661-2.104,3.105-3.906,3.889c0.939-1.079,2.105-2.709,1.425-4.202
	c-0.177-0.386,0.203-0.398,0.499-0.645c0.26-0.211,0.494-0.443,0.705-0.7c0.564-0.685,0.906-1.581,0.895-2.472
	c-0.014-0.807-0.278-1.557-0.728-2.222c-0.271-0.405,0.006-0.679,0.079-1.146c0.066-0.427,0.05-0.845-0.077-1.257
	c-0.38-1.246-1.337-2.112-2.567-2.485c-1.492-0.451-3.147-0.293-4.646,0.042c-0.205,0.046-0.891,0.094-0.831,0.437
	c0.04,0.258,0.532,0.195,0.724,0.213c2.076,0.186,4.021,1.326,4.543,3.462c-1.5-0.588-3.158-0.858-4.75-1.055
	c-0.738-0.092,0.131,0.613,0.262,0.695c0.689,0.433,1.394,0.837,2.117,1.203c0.75,0.38,1.537,0.742,2.359,0.925
	c0.328,0.073,0.682,0.121,1.014,0.049c0.432-0.094,0.377-0.061,0.595,0.313c0.169,0.293,0.256,0.628,0.274,0.965
	c0.053,1.042-0.748,1.967-1.621,2.43c-1.012-0.659-2.229-0.983-3.404-1.186c0.416-1.317-1.823-1.563-1.715-0.197
	c-0.893-0.063-1.786-0.063-2.678,0c0.109-1.366-2.131-1.122-1.714,0.197c-1.102,0.189-2.229,0.489-3.201,1.06
	c-0.756,0.443-1.785-1.41-1.813-2.042c-0.084-0.531,0.152-0.982,0.384-1.436c0.246-0.296,0.729-0.04,1.142-0.091
	c0.875-0.111,1.721-0.501,2.505-0.886c0.711-0.351,1.402-0.741,2.079-1.155c0.051-0.032,1.33-0.947,0.528-0.846
	c-1.602,0.192-3.272,0.465-4.779,1.057c0.516-2.107,2.414-3.237,4.463-3.449c0.199-0.021,0.398-0.034,0.596-0.034
	c0.601,0-0.041-0.481-0.261-0.539c-1.531-0.393-3.233-0.587-4.782-0.19c-1.168,0.298-2.17,1.014-2.649,2.146
	c-0.312,0.732-0.336,1.493-0.077,2.25c0.158,0.459-0.16,0.646-0.372,1.069c-0.219,0.435-0.367,0.908-0.407,1.396
	c-0.127,1.628,0.813,3.104,2.201,3.897c-0.91,1.528,0.316,3.292,1.307,4.426c-1.715-0.744-2.783-2.063-3.752-3.632
	c-0.387-0.623-0.628-1.308-0.979-1.939c-0.224-0.738-1.351-0.563-1.337,0.209c0.006,0.375,0.276,0.799,0.433,1.116
	c0.446,0.9,1.007,1.747,1.615,2.544c1.249,1.643,2.623,2.571,4.584,3.199c-1.698-0.063-3.356-0.604-4.875-1.349
	c-0.486-0.241-0.976-0.623-1.481-0.807c-0.568-0.316-1.236,0.293-0.954,0.886c0.177,0.372,0.768,0.567,1.101,0.736
	c0.798,0.411,1.625,0.766,2.477,1.046c1.648,0.484,3.214,0.758,4.942,0.651c-1.285,0.224-2.592,0.722-3.175,1.979
	c-0.297,0.645-0.335,2.473,0.653,2.663c0.578,0.105,0.766-0.499,0.553-0.918c-0.256-0.509-0.232-1.033,0.118-1.49
	c0.747-0.968,2.28-1.111,3.406-1.166c-1.293,0.727-1.459,2.092-0.936,3.384c0.181,0.446,1.3,2.769,1.973,1.653
	c0.219-0.363-0.052-0.646-0.242-0.928c-0.366-0.537-0.748-1.191-0.804-1.854c-0.129-1.517,1.832-1.438,2.855-1.535
	c0.964,0.085,2.354-0.028,2.85,1.007c0.102,0.644-0.117,1.246-0.418,1.806c-0.189,0.349-0.732,0.862-0.678,1.289
	c0.069,0.541,0.729,0.632,1.04,0.241c0.354-0.439,0.671-0.922,0.911-1.437c0.621-1.338,0.564-2.841-0.831-3.623
	c1.125,0.051,2.659,0.194,3.405,1.164c0.35,0.455,0.374,0.979,0.117,1.488c-0.205,0.405-0.053,0.992,0.518,0.923
	c1.021-0.128,0.98-2.034,0.688-2.667c-0.582-1.258-1.89-1.754-3.174-1.979c1.928,0.119,3.758-0.192,5.561-0.868
	C33.08,27.229,36.049,26.354,35.422,25.257z"/>
</svg>
