<svg width="74" height="74" viewBox="0 0 74 74" fill="none" xmlns="http://www.w3.org/2000/svg">
<rect width="74" height="74" fill="white"/>
<g filter="url(#filter0_i_1228_7560)">
<path d="M35.1256 62.3908C35.7838 67.2776 41.6979 69.8264 43.8232 62.0216C43.8232 62.0216 44.5863 59.5253 45.399 57.214C46.2126 54.9018 48.0699 45.7101 49.5837 40.8243C50.5824 37.457 51.5334 34.4046 51.1786 31.1709C50.5652 27.0882 50.8734 26.0771 51.7986 23.2536C52.7277 20.4301 52.5694 17.4539 51.9608 16.481C51.3503 15.508 51.6698 14.7544 51.5478 14.0199C51.4981 12.3506 50.3707 12.3793 50.1007 13.4381C49.8307 14.4969 50.0912 15.2791 49.5837 15.88C49.0762 16.481 48.3436 18.0931 48.5249 20.1439C48.7061 22.1948 48.832 23.9786 47.5157 26.1534C45.8807 30.7321 44.9306 28.7576 44.3049 26.8021C43.6791 24.8466 42.6069 18.8752 43.3796 16.5573C43.9204 14.4969 43.5675 12.2839 42.6069 11.0629C41.6435 9.8419 42.4123 9.01202 42.1109 8.03905C41.8104 7.05654 41.2238 6.97069 40.6868 8.14398C40.1497 9.30773 40.4178 10.6623 39.6127 11.391C38.8114 12.1236 38.8209 15.2123 39.7558 17.0667C40.6906 18.9201 40.061 23.0189 39.9179 24.6883C39.7748 26.3528 39.6127 28.4628 38.3631 24.4879C37.619 21.7217 36.3981 18.5834 36.6842 16.542C36.9704 14.4978 36.503 12.7389 36.1119 11.9729C35.7303 11.2098 35.2534 11.0476 35.0722 10.2273C34.91 9.48324 35.0435 8.8222 34.9195 7.79199C34.7955 6.76179 33.3933 6.72364 33.2884 7.75384C33.1835 8.79358 33.2121 8.78404 33.2693 9.98308C33.3265 11.1821 33.2502 10.937 32.7733 11.5427C32.2963 12.1484 31.8289 13.9217 32.2486 15.53C32.6684 17.142 33.2788 16.5506 33.8798 19.3741C34.4903 22.1938 35.158 32.824 32.449 26.887C32.449 26.887 31.2184 24.5242 30.875 23.3099C30.5412 22.0889 30.3981 21.0015 30.4076 19.6708C30.4172 18.3353 30.0547 16.1891 28.8242 15.2257C27.6032 14.2622 27.8894 13.213 27.5173 11.9061C27.1453 10.5898 26.0865 11.1049 26.0197 11.9157C25.9625 12.7169 26.2487 14.1859 26.2677 15.4546C26.2868 16.728 25.6668 16.8664 26.2677 19.4896C26.8687 22.1128 28.4522 21.5309 28.9673 30.3124C29.0817 34.5095 26.8496 32.1267 26.1819 29.3413C25.5142 26.556 25.1994 25.2301 24.1883 24.5337C23.1771 23.8278 22.8624 22.79 22.5571 21.0329C21.0309 18.3811 20.9069 21.176 21.0404 21.6434C21.1787 22.1108 21.9371 23.9042 21.4744 25.2968C21.007 26.6828 21.5317 28.8644 22.5905 29.7897C24.2217 31.0393 24.9905 32.0981 25.538 35.7801C26.0817 39.4621 29.1914 46.1489 30.2693 48.5451C31.3472 50.9412 31.3949 52.3415 32.4156 54.917C33.4267 57.4926 34.5046 57.5498 35.1628 62.4337L35.1256 62.3908Z" fill="#2F99C6"/>
</g>
<defs>
<filter id="filter0_i_1228_7560" x="21" y="7" width="31.4563" height="64" filterUnits="userSpaceOnUse" color-interpolation-filters="sRGB">
<feFlood flood-opacity="0" result="BackgroundImageFix"/>
<feBlend mode="normal" in="SourceGraphic" in2="BackgroundImageFix" result="shape"/>
<feColorMatrix in="SourceAlpha" type="matrix" values="0 0 0 0 0 0 0 0 0 0 0 0 0 0 0 0 0 0 127 0" result="hardAlpha"/>
<feOffset dy="4"/>
<feGaussianBlur stdDeviation="7"/>
<feComposite in2="hardAlpha" operator="arithmetic" k2="-1" k3="1"/>
<feColorMatrix type="matrix" values="0 0 0 0 0 0 0 0 0 0 0 0 0 0 0 0 0 0 0.15 0"/>
<feBlend mode="normal" in2="shape" result="effect1_innerShadow_1228_7560"/>
</filter>
</defs>
</svg>
