<svg width="74" height="74" viewBox="0 0 74 74" fill="none" xmlns="http://www.w3.org/2000/svg">
<rect width="74" height="74" fill="white"/>
<g filter="url(#filter0_i_1228_7647)">
<path opacity="0.672" d="M8.93778 32.6086C7.16016 32.6212 5.76636 34.1914 5.00166 34.9012C4.23104 35.8423 3.37149 36.2832 2.7787 36.3832C1.82505 36.8056 0.89363 37.2116 0 37.657V50.5316C0.145974 50.6465 0.308992 50.7791 0.347523 50.7858L1.55163 51.8283C1.72205 52.0269 2.04586 52.2374 2.15331 52.4997C1.82727 52.3959 1.6361 52.1255 1.43529 51.9669C1.26042 51.8602 1.10333 51.6875 0.879551 51.5734C0.56659 51.3255 0.272588 51.0545 0 50.7628V51.6661C0.100774 51.7602 0.199325 51.8506 0.300841 51.9439C0.505353 52.201 0.293431 52.2292 0.115594 52.2914C0.0800266 52.2944 0.0370493 52.2914 0 52.2914V52.9398C0.148244 52.9308 0.296961 52.9463 0.440146 52.9858C0.761734 53.048 1.05072 52.7257 1.459 53.148C2.22815 53.3614 3.30554 53.4911 3.8435 53.8423L4.12137 54.1202C4.16805 53.9483 4.16138 53.769 4.16731 53.5882C4.4726 53.7934 4.82679 53.9542 4.97795 54.2365L4.9083 53.8194C5.07354 53.8786 5.11207 53.975 5.18617 54.0743L5.20914 53.7734C5.31732 53.7653 5.57074 53.9631 5.7182 54.1202L5.60334 53.6341L5.69597 53.7734C5.54999 53.2147 4.8379 53.3236 4.33033 53.1251C4.14953 52.9576 3.72865 52.9413 3.47301 52.8702C3.27072 52.2996 3.05064 52.1247 2.84835 51.9669C1.87247 51.4423 1.24264 50.599 0.647623 49.9522C0.655032 49.8914 0.66837 49.8225 0.671334 49.7669C0.730613 48.731 0.866955 48.6013 1.04183 48.2627C1.3686 47.6343 1.87173 47.4847 2.29187 47.1275C2.93431 46.5547 3.5308 45.7997 4.26067 45.4603C5.42551 44.909 6.18872 43.8835 7.03938 42.9595C8.42576 41.5249 9.07264 40.014 9.44758 38.2816C9.53798 37.8303 9.48611 37.3746 9.72545 36.916C10.1589 36.4121 10.6635 36.0801 11.1378 35.6882C11.4638 35.4436 11.8299 35.4888 12.1796 35.3873L13.9624 35.1561C13.9217 34.45 13.0792 34.0491 12.7124 33.952L11.6935 33.6971C11.3149 33.5549 10.9725 33.5185 10.4894 33.1414C9.95071 32.7598 9.47574 32.619 8.96075 32.6086H8.93852H8.93778Z" fill="#2F99C6"/>
<path d="M74.0001 20.0022C73.7853 20.2009 73.5526 20.3792 73.305 20.535C72.364 21.2841 71.1613 21.9481 70.3181 22.5497C69.8268 22.9388 69.2689 23.1811 68.7205 23.476C68.1048 23.7449 66.2827 25.8486 65.2231 27.1809C65.0252 27.4106 64.3206 28.8348 64.3206 29.0097C64.3206 29.0912 64.0234 29.8544 63.6492 30.7236C63.1483 31.6765 62.903 32.7405 62.4451 33.7572C62.2206 34.1077 62.0398 34.5137 61.8894 34.8686C61.6997 35.4911 60.8083 36.2869 61.0091 36.5359C61.1765 36.7374 61.0424 37.268 60.3377 39.0367C59.845 40.2719 59.5871 41.2233 59.6894 41.4908C59.7827 41.7339 60.4934 41.7746 60.8935 41.5605C61.0987 41.4508 61.2092 41.4827 61.4263 41.6991C61.6374 41.9102 61.9005 41.9769 62.4681 41.9769C62.8801 41.9769 63.255 42.0407 63.3017 42.1162C63.3484 42.1918 63.5514 42.2548 63.7648 42.2548C64.1975 42.2548 65.1542 41.9088 65.1542 41.7457C66.2656 40.4164 67.4142 38.7633 69.0214 37.9941C69.5252 37.6177 70.2455 37.1739 70.5493 37.1605C70.6515 37.551 70.5211 39.4072 70.364 39.7317C70.1906 40.0882 70.2766 41.888 70.4804 42.1399C70.6071 42.2963 70.6908 43.2559 70.8509 45.7745C70.8701 46.0776 70.9346 47.4506 70.9894 48.8311C71.0769 51.0199 71.0672 51.3845 70.8738 51.6794C70.7516 51.8654 70.6419 52.1507 70.6419 52.3048C70.6419 52.4582 70.5382 52.7094 70.3878 52.8605C70.2366 53.0117 70.1099 53.2414 70.1099 53.3933C70.1099 53.7364 70.141 53.7423 70.4567 53.3933C71.0043 52.7887 71.2147 52.5604 71.5222 52.4671C72.0587 52.3041 73.1338 52.4071 74.0001 52.513V52.0499C73.7926 51.9914 73.5777 51.9351 73.3976 51.8876C72.793 51.7305 72.4759 51.5675 72.3788 51.3786C72.2917 51.2085 72.1911 51.0457 72.0779 50.8917C71.8845 50.6517 71.7475 50.0559 71.6608 48.9696C71.5207 47.4358 71.4585 45.8041 71.4066 44.5C71.3303 42.5927 71.3473 41.9221 71.4763 41.7672C71.6778 41.5242 71.563 40.6461 71.3132 40.5631C71.0887 40.489 71.0895 36.733 71.3132 36.4655C71.7734 36.0928 72.2454 35.8712 72.7493 35.5392C73.0827 35.2614 73.2117 35.4436 73.0272 35.932C72.9775 36.2758 73.0887 36.3299 73.1902 36.6263C73.2376 36.7774 73.4643 36.9679 73.5369 36.8575C73.6703 37.1101 73.7585 37.3687 73.9534 37.5762C73.9682 37.5895 73.9852 37.5881 73.9993 37.5984V20L74.0001 20.0022Z" fill="#2F99C6"/>
<path d="M23.9288 41.9599C24.5008 41.599 24.8365 41.2974 25.0566 40.6898C25.3885 40.3438 30.4176 36.7707 30.4176 36.7707C30.1879 36.5166 34.1448 32.6731 34.3678 32.9213L35.8565 31.8973C35.3089 32.2137 38.0298 29.2883 39.1005 28.671C39.3843 28.4102 39.5658 27.6662 39.7444 27.3069C40.0423 26.5214 40.4024 26.0376 41.05 25.4448C42.0104 24.9253 43.2382 24.6319 44.0066 24.6452C44.5757 24.6578 45.5997 24.952 46.0369 25.3106C46.0369 25.3106 46.9816 26.4466 47.2165 26.4251C47.4055 26.5911 47.8086 26.8801 47.9516 27.0586C48.3369 27.5373 48.2243 28.2635 47.8152 28.6792L47.7989 28.1553C47.5818 28.1553 46.5259 28.0308 46.3348 28.1034C45.7116 28.1509 45.1536 29.5839 45.0995 30.3264C44.9943 30.954 45.2492 31.7269 45.27 32.4308V33.8031C45.6204 34.5159 45.7175 35.2399 45.7108 35.9986C45.7108 37.0301 45.3137 37.5088 44.8068 38.3772C44.403 39.0715 43.8154 39.6287 43.2137 40.1534C42.9522 40.3823 40.6329 42.9291 40.6329 42.9291C39.8252 44.0072 38.1394 45.0765 37.9549 46.4288C37.9297 46.6955 38.0179 46.9964 38.0898 47.2528C38.2587 47.8515 38.4143 49.0015 39.0331 49.2519C39.6607 49.5083 40.4424 49.1741 41.1345 49.5446L41.5243 50.0893C41.7184 50.2197 42.2134 50.2389 42.3853 50.4005C42.7802 50.7776 42.8662 51.4593 42.5994 51.9195C42.5528 51.2652 42.3105 51.0925 41.8673 50.6383C41.851 50.9762 41.8748 51.1526 41.5932 51.3704C41.5658 51.0147 41.4265 50.5316 41.036 50.4071C40.7714 50.3234 40.6425 50.539 40.2209 50.4812C39.7 50.4079 39.6985 50.2048 38.939 50.1811C39.1702 50.7272 40.7203 50.5435 40.4676 51.1207C40.9433 51.6372 41.0901 51.8454 40.6788 52.5315C40.4639 51.5438 40.3972 51.7654 40.0705 51.3852C39.9267 51.3519 39.8074 51.3482 39.7 51.2259C39.5021 51.0222 38.3899 50.8636 37.8549 50.3664C37.4214 50.522 37.1013 50.8554 36.7449 51.1466C36.6501 51.2244 36.4819 51.2052 36.4233 51.2563C36.2277 51.4267 36.3003 51.5883 36.2862 52.0106C35.1029 51.7528 36.0402 50.9658 36.1951 50.7213C36.2988 50.5583 36.324 50.4516 36.3774 50.2723L36.1032 50.3642C36.0173 50.1389 35.9417 49.887 35.8513 49.8603C35.6401 49.7988 35.4104 50.3716 34.8665 50.4553C34.9836 49.8395 35.2563 49.3409 35.9187 49.286C36.2573 49.2579 36.6301 49.4298 36.8701 49.1978C37.0443 49.0304 37.0124 48.7466 36.9702 48.5339L36.5597 46.8874C36.0654 47.4713 35.5993 48.0767 35.0006 48.5643C34.7902 48.7369 34.5175 49.0089 34.273 48.8088H33.7246V48.6258C34.0136 48.5072 34.2648 48.4035 34.37 48.0752C34.4908 47.6973 34.233 47.3246 33.8143 47.4084C31.2194 48.9755 31.3187 48.8466 29.607 49.6328L29.8819 49.0837C29.5877 48.7473 28.8415 50.4597 28.0754 50.296C27.9435 50.2493 28.1028 49.927 28.0524 49.8158C27.7278 50.0144 27.424 50.2011 27.1454 50.4642C26.8764 50.7183 26.2918 51.3504 25.8791 51.3474C25.5316 51.3445 25.8354 50.8777 25.9109 50.6383C26.0843 50.0603 26.1821 49.369 26.5882 48.9918L26.3133 48.7177C25.4634 49.0533 25.1551 49.2957 24.6742 49.7432C23.4887 51.037 22.12 52.3404 20.8241 53.2999C20.415 53.583 19.0346 54.487 18.7197 53.6793L18.9938 53.0161L18.1713 53.3822C18.261 52.8116 19.5259 51.8395 19.84 51.3697C19.6829 51.5846 18.0483 52.5427 18.1706 52.3759C18.1002 51.9017 19.1568 51.6075 19.6481 50.7539C19.8274 49.9788 20.1816 49.3127 20.8396 48.6406L22.9277 47.0356C23.5835 46.3784 24.6142 45.6959 25.0321 45.1483L24.8321 44.9372C25.061 44.4503 25.1744 43.9294 25.3063 43.4107C23.9036 43.6456 23.4709 43.064 23.9243 41.9621L23.9288 41.9599Z" fill="#12466A"/>
</g>
<defs>
<filter id="filter0_i_1228_7647" x="0" y="20" width="74" height="38.2365" filterUnits="userSpaceOnUse" color-interpolation-filters="sRGB">
<feFlood flood-opacity="0" result="BackgroundImageFix"/>
<feBlend mode="normal" in="SourceGraphic" in2="BackgroundImageFix" result="shape"/>
<feColorMatrix in="SourceAlpha" type="matrix" values="0 0 0 0 0 0 0 0 0 0 0 0 0 0 0 0 0 0 127 0" result="hardAlpha"/>
<feOffset dy="4"/>
<feGaussianBlur stdDeviation="7"/>
<feComposite in2="hardAlpha" operator="arithmetic" k2="-1" k3="1"/>
<feColorMatrix type="matrix" values="0 0 0 0 0 0 0 0 0 0 0 0 0 0 0 0 0 0 0.15 0"/>
<feBlend mode="normal" in2="shape" result="effect1_innerShadow_1228_7647"/>
</filter>
</defs>
</svg>
