<svg width="75" height="74" viewBox="0 0 75 74" fill="none" xmlns="http://www.w3.org/2000/svg">
<rect width="74" height="74" transform="translate(0.098999)" fill="white"/>
<g filter="url(#filter0_i_1228_7596)">
<path d="M40.8656 60.4409C42.8097 62.8314 46.3253 65.6928 49.0493 65.5222C57.11 65.3662 54.9281 52.7954 54.1989 44.526C53.7212 42.8589 54.155 42.4299 52.7482 34.5816C51.3423 26.7344 42.291 7.17713 37.429 7.00164C34.1971 6.88757 35.2705 12.7577 35.7102 16.4917C36.0387 18.9144 35.7199 20.5864 36.1586 23.9655C36.5954 27.3437 37.1784 31.5944 37.429 36.0713C38.2811 45.5204 35.0891 53.3472 40.8666 60.435L40.8656 60.4409ZM26.4434 11.8666C20.2915 21.3586 15.5046 41.6704 19.419 57.1524C21.131 63.158 25.213 68.992 30.3285 66.3441C32.8633 64.9987 35.5054 62.0329 36.2327 57.6379C36.961 53.2439 34.7216 49.5089 33.9163 41.7581C33.112 34.0074 33.461 11.9416 33.1695 10.2969C33.0018 4.64424 28.0413 9.40973 26.4424 11.8666H26.4434Z" fill="#2F99C6"/>
</g>
<defs>
<filter id="filter0_i_1228_7596" x="18" y="7" width="37.0229" height="64" filterUnits="userSpaceOnUse" color-interpolation-filters="sRGB">
<feFlood flood-opacity="0" result="BackgroundImageFix"/>
<feBlend mode="normal" in="SourceGraphic" in2="BackgroundImageFix" result="shape"/>
<feColorMatrix in="SourceAlpha" type="matrix" values="0 0 0 0 0 0 0 0 0 0 0 0 0 0 0 0 0 0 127 0" result="hardAlpha"/>
<feOffset dy="4"/>
<feGaussianBlur stdDeviation="7"/>
<feComposite in2="hardAlpha" operator="arithmetic" k2="-1" k3="1"/>
<feColorMatrix type="matrix" values="0 0 0 0 0 0 0 0 0 0 0 0 0 0 0 0 0 0 0.15 0"/>
<feBlend mode="normal" in2="shape" result="effect1_innerShadow_1228_7596"/>
</filter>
</defs>
</svg>
