<svg width="48" height="48" viewBox="0 0 48 48" fill="none" xmlns="http://www.w3.org/2000/svg">
<g clip-path="url(#clip0_1038_5424)">
<path d="M16 6L16 29" stroke="black" stroke-width="2" stroke-linecap="round"/>
<path d="M25 42L25 46" stroke="black" stroke-width="2" stroke-linecap="round" stroke-linejoin="round"/>
<path d="M28 42L28 46" stroke="black" stroke-width="2" stroke-linecap="round" stroke-linejoin="round"/>
<path d="M19 11L16 14" stroke="black" stroke-width="2" stroke-linecap="round"/>
<path d="M10 14L16 17" stroke="black" stroke-width="2" stroke-linecap="round"/>
<circle cx="35.5" cy="21.5" r="1.5" fill="black"/>
<path d="M11.302 9.30199L10.9745 10.2468C11.3364 10.3723 11.7382 10.28 12.0091 10.0091C12.28 9.73823 12.3723 9.33643 12.2468 8.97449L11.302 9.30199ZM21.5893 5.41072L20.6643 5.79084C20.7659 6.03792 20.9621 6.23411 21.2092 6.33566L21.5893 5.41072ZM22.9534 14.7809L22.3251 14.003C22.0543 14.2216 21.9168 14.5653 21.9618 14.9104L22.9534 14.7809ZM13.0357 18.7131L13.8468 18.1283C13.6842 17.9027 13.435 17.7551 13.1591 17.7208C12.8831 17.6865 12.6053 17.7686 12.3924 17.9475L13.0357 18.7131ZM12.2468 8.97449C12.0872 8.51385 12 8.01816 12 7.5H10C10 8.24411 10.1254 8.96104 10.3571 9.62949L12.2468 8.97449ZM12 7.5C12 5.01472 14.0147 3 16.5 3V1C12.9101 1 10 3.91015 10 7.5H12ZM16.5 3C18.3786 3 19.9906 4.1514 20.6643 5.79084L22.5142 5.0306C21.5429 2.66716 19.2173 1 16.5 1V3ZM26 10.5C26 7.78266 24.3328 5.45707 21.9694 4.48578L21.2092 6.33566C22.8486 7.00941 24 8.62142 24 10.5H26ZM23.5818 15.5588C25.055 14.3689 26 12.5444 26 10.5H24C24 11.9147 23.3484 13.1764 22.3251 14.003L23.5818 15.5588ZM24 15.5C24 15.2129 23.9813 14.9296 23.945 14.6514L21.9618 14.9104C21.987 15.1029 22 15.2997 22 15.5H24ZM17.5 22C21.0898 22 24 19.0898 24 15.5H22C22 17.9853 19.9853 20 17.5 20V22ZM12.2245 19.298C13.4031 20.9326 15.3269 22 17.5 22V20C15.9969 20 14.6657 19.264 13.8468 18.1283L12.2245 19.298ZM9.5 21C11.0903 21 12.5494 20.4276 13.6789 19.4788L12.3924 17.9475C11.6098 18.6049 10.6024 19 9.5 19V21ZM3 14.5C3 18.0899 5.91015 21 9.5 21V19C7.01472 19 5 16.9853 5 14.5H3ZM9.5 8C5.91015 8 3 10.9101 3 14.5H5C5 12.0147 7.01472 10 9.5 10V8ZM11.6295 8.35714C10.961 8.12544 10.2441 8 9.5 8V10C10.0182 10 10.5138 10.0872 10.9745 10.2468L11.6295 8.35714Z" fill="black"/>
<path d="M13 39C13 39 19.9999 41.5 26.9999 26C33.9999 10.5 43.5 18.5 43.5 18.5" stroke="black" stroke-width="2" stroke-linecap="round" stroke-linejoin="round"/>
<path d="M13 39C13 39 34.5 47 37.5 32.5C40.5 18 42 18.0002 43.5 18.5" stroke="black" stroke-width="2" stroke-linecap="round" stroke-linejoin="round"/>
<path d="M28.5 40.5C28.5 40.5 26 37.9999 30 31.4999C34 24.9999 38.5 27 38.5 27" stroke="black" stroke-width="2" stroke-linecap="round" stroke-linejoin="round"/>
</g>
<defs>
<clipPath id="clip0_1038_5424">
<rect width="48" height="48" fill="white"/>
</clipPath>
</defs>
</svg>
