<svg width="75" height="74" viewBox="0 0 75 74" fill="none" xmlns="http://www.w3.org/2000/svg">
<rect width="74" height="74" transform="translate(0.098999)" fill="white"/>
<g filter="url(#filter0_i_1228_7622)">
<path d="M46.0575 62.373C47.555 64.7897 44.1543 64.0078 44.0857 63.9292C42.8552 62.9795 42.4946 61.9637 42.1414 60.9466C42.0852 58.9761 42.3011 57.0049 41.1305 55.0344C41.1574 54.3823 40.9227 54.1234 40.1228 54.713C39.9231 53.7708 39.8607 52.6451 39.1556 52.3887C33.1779 54.6556 30.058 53.8263 27.3561 52.5447C26.8882 53.9162 26.6074 55.4063 24.6855 55.8381C22.7574 57.0361 24.8852 57.7287 25.0474 58.6647C25.8898 60.0063 27.2563 61.4601 27.2251 62.6083C25.8523 64.0559 25.0537 63.0201 24.1364 62.5084C23.5998 62.2713 23.2316 61.4289 23.0444 59.9439C23.1318 57.9222 22.1771 56.7304 20.2178 55.4824C19.0822 56.2748 18.0713 56.2437 17.0792 56.0814C15.4131 55.1829 15.1511 56.2873 14.3524 56.6305C14.2401 57.8785 13.3228 58.8332 14.7892 60.649C16.7422 62.7518 16.268 63.538 15.201 63.9935C13.12 63.5567 13.1481 62.9265 12.453 62.3649C12.4717 61.4789 11.9039 61.6161 11.3878 61.666C12.2327 59.089 11.9432 56.0315 11.673 54.5339C11.7828 53.9474 11.5607 53.2173 12.7088 53.0863C14.1876 53.0975 15.1299 52.6096 14.6806 50.8306L14.0067 50.6996C14.4354 49.3393 13.6261 49.7605 12.9958 49.9233C14.1377 48.2036 14.8971 46.8159 13.3078 47.4861C13.2142 45.4706 13.1955 43.4701 14.5246 41.7267C15.2858 40.4226 14.6244 40.4413 13.462 40.9243C11.6917 41.698 11.59 43.1244 11.3591 44.5022C11.0721 45.2198 10.8993 45.9935 11.1657 46.9881C10.5916 46.7966 10.5916 47.5622 10.3982 48.0027C9.87094 47.2976 9.47221 47.6552 9.15274 48.6766C9.31497 47.3538 8.11693 48.0227 7 48.5768C7.6115 47.8218 8.80955 46.8172 7.13104 47.0437C7.59902 46.3486 7.71134 45.6984 7.62398 45.0719C7.92724 44.675 8.12317 44.217 8.07949 43.6118L9.48969 42.6883C12.1478 42.5098 11.8733 41.1433 12.682 40.3521C13.3209 39.8248 13.9512 39.2851 14.8597 39.1603C16.8414 38.8146 17.0143 38.4677 17.6364 38.1245C19.2862 36.3961 21.5924 35.9093 23.3408 35.5818C25.088 35.2573 25.7993 35.2448 26.2174 34.4436C26.7852 34.2939 27.8616 34.5834 27.4866 33.6137C28.123 33.731 28.4225 33.4122 28.3664 32.6278C29.7828 33.0815 30.4442 32.9211 30.2589 32.085C31.5955 33.2269 32.2369 32.8743 32.4366 31.748C34.7909 32.4887 34.4346 30.8713 35.3662 30.3753C37.313 30.9119 37.1427 29.911 37.6999 29.4393C40.3456 31.096 40.3393 29.7762 40.8135 29C42.1489 29.9921 44.0021 32.2634 44.0551 30.1169C45.0535 30.9094 46.0937 31.8017 46.2859 30.7116C47.0328 31.3605 47.9563 33.1888 48.3887 31.7736C49.1312 32.382 49.8176 34.75 50.6207 33.3273C50.859 34.262 52.2805 35.3241 52.0995 33.7703C52.5363 34.5534 53.9902 35.6548 53.6283 34.3912C54.4738 34.8199 55.8933 36.474 55.806 34.9091C56.6758 33.8608 56.979 33.7048 57.3909 33.3803C58.8522 35.4332 58.2582 36.5545 58.3268 37.9729C58.5078 38.653 59.007 39.0193 59.1068 39.7113C59.319 41.1714 59.3077 42.2858 60.6855 43.0851C62.651 44.3231 64.4294 45.7807 66.2077 47.2596C67.4557 47.9522 66.8192 48.1207 66.9584 48.505C66.4654 49.6719 65.9538 50.795 64.6496 50.6078C64.1692 50.4456 63.7386 49.7305 63.1958 50.2459C62.3971 51.2318 61.1204 51.2643 59.9273 51.4627C57.1469 50.6266 55.9027 50.9261 55.26 51.6717L53.6002 52.8916C53.5347 52.3176 53.2196 52.2477 52.535 52.9166C51.8755 51.4689 51.2684 51.3179 50.6943 51.9837C48.8411 52.0586 49.0532 54.7916 48.5166 56.5513C48.6851 58.3702 48.2046 60.6384 49.6036 61.3996C51.5504 63.0207 48.8486 63.8331 47.8939 62.7474C46.9791 62.0922 46.3308 61.1999 46.1055 59.9208C46.1804 57.2813 45.8634 55.5155 45.6875 53.4376C44.2492 56.1519 44.6517 58.5012 44.8825 60.8817L46.0575 62.373Z" fill="#2F99C6"/>
</g>
<defs>
<filter id="filter0_i_1228_7622" x="7" y="29" width="60" height="39.1117" filterUnits="userSpaceOnUse" color-interpolation-filters="sRGB">
<feFlood flood-opacity="0" result="BackgroundImageFix"/>
<feBlend mode="normal" in="SourceGraphic" in2="BackgroundImageFix" result="shape"/>
<feColorMatrix in="SourceAlpha" type="matrix" values="0 0 0 0 0 0 0 0 0 0 0 0 0 0 0 0 0 0 127 0" result="hardAlpha"/>
<feOffset dy="4"/>
<feGaussianBlur stdDeviation="7"/>
<feComposite in2="hardAlpha" operator="arithmetic" k2="-1" k3="1"/>
<feColorMatrix type="matrix" values="0 0 0 0 0 0 0 0 0 0 0 0 0 0 0 0 0 0 0.15 0"/>
<feBlend mode="normal" in2="shape" result="effect1_innerShadow_1228_7622"/>
</filter>
</defs>
</svg>
