<?xml version="1.0" encoding="UTF-8" ?>
<svg
    width="74"
    height="74"
    viewBox="0 0 74 74"><path  d="M37 44.1495C46.4302 44.1495 54.0748 36.5049 54.0748 27.0748C54.0748 17.6446 46.4302 10 37 10C27.5699 10 19.9253 17.6446 19.9253 27.0748C19.9253 36.5049 27.5699 44.1495 37 44.1495Z" fill="#574339"/>
<path  d="M25.0072 63.6636C34.4 63.6636 42.0144 56.0493 42.0144 46.6564C42.0144 37.2636 34.4 29.6492 25.0072 29.6492C15.6144 29.6492 8 37.2636 8 46.6564C8 56.0493 15.6144 63.6636 25.0072 63.6636Z" fill="#7a4e3a"/>
<path  d="M48.9928 63.6636C58.3856 63.6636 66 56.0493 66 46.6564C66 37.2636 58.3856 29.6492 48.9928 29.6492C39.6 29.6492 31.9856 37.2636 31.9856 46.6564C31.9856 56.0493 39.6 63.6636 48.9928 63.6636Z" fill="#c3aa76"/><path d="M25.5 59C26.8807 59 28 57.8807 28 56.5C28 55.1193 26.8807 54 25.5 54C24.1193 54 23 55.1193 23 56.5C23 57.8807 24.1193 59 25.5 59Z" fill="#443d2c"/>
<path d="M15.5 51C16.8807 51 18 49.8807 18 48.5C18 47.1193 16.8807 46 15.5 46C14.1193 46 13 47.1193 13 48.5C13 49.8807 14.1193 51 15.5 51Z" fill="#443d2c"/>
<path d="M22.5 41C23.8807 41 25 39.8807 25 38.5C25 37.1193 23.8807 36 22.5 36C21.1193 36 20 37.1193 20 38.5C20 39.8807 21.1193 41 22.5 41Z" fill="#443d2c"/>
<path d="M48.5 41C49.8807 41 51 39.8807 51 38.5C51 37.1193 49.8807 36 48.5 36C47.1193 36 46 37.1193 46 38.5C46 39.8807 47.1193 41 48.5 41Z" fill="#443d2c"/>
<path d="M45.5 60C46.8807 60 48 58.8807 48 57.5C48 56.1193 46.8807 55 45.5 55C44.1193 55 43 56.1193 43 57.5C43 58.8807 44.1193 60 45.5 60Z" fill="#443d2c"/>
<path d="M41.5 51C42.8807 51 44 49.8807 44 48.5C44 47.1193 42.8807 46 41.5 46C40.1193 46 39 47.1193 39 48.5C39 49.8807 40.1193 51 41.5 51Z" fill="#443d2c"/>
<path d="M59.5 50C60.8807 50 62 48.8807 62 47.5C62 46.1193 60.8807 45 59.5 45C58.1193 45 57 46.1193 57 47.5C57 48.8807 58.1193 50 59.5 50Z" fill="#443d2c"/>
<path d="M28.5 28C29.8807 28 31 26.8807 31 25.5C31 24.1193 29.8807 23 28.5 23C27.1193 23 26 24.1193 26 25.5C26 26.8807 27.1193 28 28.5 28Z" fill="#443d2c"/>
<path d="M40.5 20C41.8807 20 43 18.8807 43 17.5C43 16.1193 41.8807 15 40.5 15C39.1193 15 38 16.1193 38 17.5C38 18.8807 39.1193 20 40.5 20Z" fill="#443d2c"/>
<path d="M39.5 28C40.8807 28 42 26.8807 42 25.5C42 24.1193 40.8807 23 39.5 23C38.1193 23 37 24.1193 37 25.5C37 26.8807 38.1193 28 39.5 28Z" fill="#443d2c"/></svg>