<svg width="74" height="74" viewBox="0 0 74 74" fill="none" xmlns="http://www.w3.org/2000/svg">
<rect width="74" height="74" fill="white"/>
<g filter="url(#filter0_i_1228_7592)">
<path d="M11.8637 32.167C10.764 32.1479 8.99615 32.5498 7.62175 33.2943C6.69594 34.1427 6.19221 34.8214 5.76589 35.9455C5.51138 36.4599 5.24413 37.5278 4.83796 37.9011C3.30661 38.7845 -0.584331 42.9936 0.198312 42.5407L0 42.6733V65.3742C0.408289 64.9235 0.79855 64.4473 1.19305 63.9817L1.78905 66.336C1.8495 66.6404 1.9057 67.0572 1.65649 67.2958C1.31183 67.6277 0.782643 67.3881 0.297998 67.4283C0.191949 67.4368 0.0922628 67.4368 0 67.4612V68.2905C0.0615085 68.2534 0.142106 68.2078 0.198312 68.2237C0.327692 68.2619 0.408289 68.6309 0.530246 68.9533L0.92793 68.8208C0.851575 69.0774 0.811276 69.2163 0.662807 69.4507C0.537669 69.6469 0.0933233 70.0955 0 70.5112V70.7763C0.0636295 70.9927 0.265123 71.1899 0.795369 71.3066C0.816579 70.7021 0.713711 70.49 0.993681 70.2461C1.07852 70.1718 1.32243 70.1909 1.45818 70.0796C1.96721 69.6628 2.4264 69.1771 3.04891 68.9533C3.81247 69.666 5.41699 69.8876 5.70014 70.1793C5.85391 70.3553 6.02465 70.3638 6.23039 70.4115C6.69807 70.9555 6.78397 70.6544 7.09151 72.068C7.68114 71.086 7.47329 70.7869 6.79351 70.0467C7.15408 69.2206 4.93659 69.4698 4.60572 68.6882C5.69166 68.7221 5.68424 69.0159 6.42976 69.1188C7.03212 69.2036 7.21028 68.8993 7.58888 69.0191C8.14776 69.1972 8.37788 69.9025 8.41712 70.4115C8.82011 70.0997 8.7586 69.8335 8.78193 69.351C9.41717 70 9.77561 70.2376 9.84242 71.174C10.2242 70.5154 10.1097 69.5578 9.54443 69.0191C9.29839 68.7858 8.59529 68.7412 8.31744 68.5557L7.75538 67.7932C6.76488 67.2629 5.63651 67.7295 4.73828 67.3626C3.85383 67.0042 3.62264 65.3689 3.38085 64.5131C3.27692 64.1472 3.14542 63.7028 3.18148 63.32C3.44554 61.3857 5.87088 59.8586 7.02576 58.3145C7.02576 58.3145 10.361 54.6664 10.7375 54.3376C11.5965 53.5889 12.412 52.7808 12.991 51.7872C13.7143 50.5432 14.2795 49.8825 14.2827 48.4074C14.2933 47.3214 14.1554 46.28 13.6538 45.2577V43.3032C13.6241 42.2958 13.271 41.1865 13.4205 40.2882C13.499 39.2246 14.2859 37.1736 15.1778 37.1068C15.4514 37.0007 16.9551 37.1725 17.2659 37.1725L17.2977 37.9361C17.8841 37.3411 18.0485 36.3008 17.4981 35.6157C17.2924 35.3612 16.708 34.9264 16.4376 34.6878C16.1004 34.7196 14.7408 33.0971 14.7472 33.0971C14.1215 32.5838 12.6782 32.1871 11.8637 32.1691V32.167Z" fill="#2F99C6"/>
<path d="M49.7019 73.2939C50.4856 72.4286 50.7783 72.0871 51.2184 71.9524C52.5398 71.5515 56.3459 72.3607 56.4848 72.1762C56.7139 71.8718 54.9991 71.4105 53.9258 71.1316C53.0605 70.9057 52.5801 70.6692 52.4412 70.3988C52.3199 70.1648 52.1794 69.9414 52.0212 69.7307C51.7455 69.3892 51.562 68.5196 51.4379 66.9649C51.2375 64.7686 51.1452 62.4228 51.0699 60.5564C50.9618 57.8267 50.9851 56.8924 51.1686 56.6707C51.4581 56.3229 51.2746 55.0651 50.9172 54.9453C50.5959 54.8382 50.5959 49.4456 50.9172 49.0617C51.5758 48.5293 52.2694 48.2186 52.9905 47.7414C53.4677 47.3448 53.6554 47.6131 53.3914 48.3119C53.3203 48.8051 53.4868 48.8634 53.6289 49.2876C53.6978 49.505 54.0117 49.7733 54.1167 49.6153C54.3076 49.9758 54.4328 50.3714 54.7117 50.6662C54.928 50.8826 55.156 50.7298 55.156 50.7914C55.156 50.8529 55.2398 51.417 55.4021 51.5804C55.6385 51.8168 55.7149 51.8243 55.7806 51.6164C56.4848 49.4021 56.5124 48.0701 55.8761 46.9354C55.4201 46.1188 55.4169 46.0775 55.7679 45.8664C58.1721 44.4263 60.784 41.9044 62.0079 39.846C62.9888 38.1948 63.8722 36.1195 64.0758 34.9868C64.1522 34.5722 64.3028 34.1194 64.412 33.9815C64.5371 33.8224 64.6082 31.3854 64.6029 27.3874C64.5923 23.8983 64.6029 20.1145 64.6029 18.9777C64.6251 14.7293 64.5923 12.7303 64.4724 11.0558L64.3484 9.33355H64.955C65.6581 9.33355 66.3177 9.6411 66.6666 10.1342C66.8013 10.3251 67.3771 10.814 67.9466 11.2234C69.5787 12.4747 71.0454 13.9234 72.5841 15.285C73.6658 16.2543 73.9999 16.4134 73.9999 15.9563C72.5449 13.1969 70.7336 10.8395 68.9626 8.49895C68.2435 7.70358 67.5171 6.34191 67.5097 5.7756C67.5097 5.60593 67.2838 5.25702 67.0134 5.00357C66.7419 4.74905 66.5213 4.44151 66.5213 4.32273C66.5213 3.67265 63.8033 2.98227 62.5169 3.30466C62.0057 3.43298 61.0757 4.63558 60.6716 5.69183C60.3079 6.64203 60.2474 8.74498 60.5592 9.62837C60.8731 10.4874 60.9919 11.4609 61.1849 12.286C61.4978 13.6116 61.4532 16.6181 61.1064 17.6245C60.3917 19.7009 59.7681 20.5886 57.3831 22.9163C56.1349 23.9397 55.1454 25.4202 53.7806 26.259C52.4327 27.3322 50.7263 28.2994 49.5206 29.1594C48.8175 29.7173 48.0168 30.0672 47.232 30.4882C46.3508 30.8732 43.7271 33.867 42.2127 35.7727C41.9285 36.1025 40.9338 38.1333 40.9338 38.3836C40.9338 38.5003 40.4958 39.6138 39.9602 40.8588C39.2423 42.2226 38.9103 43.7179 38.2539 45.1718C37.9336 45.6734 37.6537 46.2705 37.4384 46.7774C37.168 47.6682 35.9092 48.8188 36.1976 49.1741C36.4362 49.4626 36.2347 50.2007 35.2262 52.7321C34.522 54.4999 34.1625 55.8849 34.3089 56.2677C34.4425 56.6156 35.4478 56.675 36.0205 56.3685C36.3143 56.2115 36.485 56.255 36.7947 56.5647C37.0969 56.8669 37.4522 56.9634 38.2634 56.9634C38.8531 56.9634 39.3897 57.0514 39.4565 57.1607C39.5233 57.2688 39.8277 57.3569 40.1331 57.3569C40.7524 57.3569 42.1141 56.8436 42.1141 56.6103C43.7048 54.7088 45.3422 52.3556 47.6424 51.2548C48.3646 50.7171 49.4082 50.0808 49.844 50.0617C49.9904 50.6206 49.7857 53.275 49.5609 53.7385C49.3127 54.2496 49.4389 56.833 49.7305 57.1935C49.9119 57.4184 50.0572 58.7716 50.2852 62.3762C50.3128 62.8088 50.3997 64.7803 50.4782 66.756C50.6033 69.8887 50.5811 70.4115 50.3043 70.8336C50.1303 71.0998 49.9861 71.4975 49.9861 71.718C49.9861 71.9386 49.8101 72.296 49.5937 72.5134C49.3774 72.7287 49.2003 73.0829 49.2003 73.2992C49.2003 73.7913 49.248 73.7902 49.6998 73.2897L49.7019 73.2939Z" fill="#12466A"/>
</g>
<defs>
<filter id="filter0_i_1228_7592" x="0" y="3.22281" width="74" height="74.4439" filterUnits="userSpaceOnUse" color-interpolation-filters="sRGB">
<feFlood flood-opacity="0" result="BackgroundImageFix"/>
<feBlend mode="normal" in="SourceGraphic" in2="BackgroundImageFix" result="shape"/>
<feColorMatrix in="SourceAlpha" type="matrix" values="0 0 0 0 0 0 0 0 0 0 0 0 0 0 0 0 0 0 127 0" result="hardAlpha"/>
<feOffset dy="4"/>
<feGaussianBlur stdDeviation="7"/>
<feComposite in2="hardAlpha" operator="arithmetic" k2="-1" k3="1"/>
<feColorMatrix type="matrix" values="0 0 0 0 0 0 0 0 0 0 0 0 0 0 0 0 0 0 0.15 0"/>
<feBlend mode="normal" in2="shape" result="effect1_innerShadow_1228_7592"/>
</filter>
</defs>
</svg>
