<svg width="24" height="25" viewBox="0 0 24 25" fill="none" xmlns="http://www.w3.org/2000/svg">
<path fill-rule="evenodd" clip-rule="evenodd" d="M11.7437 0.576552C10.0402 0.649396 8.45197 1.44548 7.37456 2.75678L7.32139 2.82296C6.28535 2.85732 5.29905 3.3333 4.62087 4.13793L4.48309 4.31168C3.99862 4.96166 3.74318 5.74957 3.74912 6.55243L3.75202 6.64043L3.58302 6.74111C1.63752 7.94676 0.528738 10.179 0.788065 12.4967L0.82085 12.7435C1.1732 15.0327 2.81499 16.9075 5.01999 17.5676L5.14602 17.6024L5.20879 17.7138C5.8877 18.8533 7.01086 19.6708 8.32059 19.9592L8.56671 20.0068C9.48121 20.159 10.4116 20.0436 11.25 19.6872V23.8214L11.2569 23.9232C11.3065 24.2893 11.6203 24.5714 12 24.5714C12.4142 24.5714 12.75 24.2356 12.75 23.8214V19.6868C13.6642 20.0751 14.6877 20.177 15.6806 19.9579L15.9239 19.8976C17.129 19.5653 18.1557 18.7794 18.7917 17.7106L18.854 17.5984L18.9668 17.5681C21.4891 16.8172 23.2494 14.4909 23.25 11.8216L23.2444 11.5721C23.158 9.58379 22.0909 7.77927 20.4183 6.74196L20.247 6.63943L20.2509 6.55243C20.2574 5.67659 19.9528 4.81853 19.3792 4.13793L19.2313 3.97272C18.5711 3.27837 17.667 2.86667 16.7098 2.82462L16.678 2.82443L16.6255 2.75678C15.4942 1.37991 13.7998 0.571075 12 0.571075L11.7437 0.576552ZM12.75 17.9841C13.5068 18.5051 14.4505 18.6933 15.3573 18.4931C16.3734 18.2689 17.2264 17.5829 17.6633 16.6385C17.7625 16.4241 17.9569 16.269 18.188 16.2198C20.2646 15.7781 21.7496 13.9444 21.75 11.8229C21.7465 10.0728 20.7265 8.48422 19.1366 7.75278C18.824 7.60897 18.6493 7.27087 18.713 6.93271C18.8354 6.28207 18.6589 5.61086 18.2322 5.10464C17.8056 4.59841 17.1739 4.3108 16.5 4.32143L16.431 4.33286L16.3625 4.33892C16.0993 4.35564 15.8466 4.2328 15.6971 4.01543C14.8599 2.79823 13.4773 2.07108 12 2.07108C10.5227 2.07108 9.14011 2.79823 8.30298 4.01543C8.15348 4.2328 7.90078 4.35564 7.6375 4.33892C7.58972 4.33589 7.55028 4.33109 7.50134 4.32399L7.30844 4.32579C6.77252 4.36099 6.26754 4.59093 5.88913 4.97205L5.76781 5.10464C5.34114 5.61086 5.16463 6.28207 5.28708 6.93271C5.35072 7.27085 5.1761 7.60893 4.86352 7.75276C3.10532 8.56176 2.06356 10.4065 2.27876 12.3299C2.49396 14.2533 3.91767 15.8222 5.81119 16.2227C6.04246 16.2716 6.23714 16.4266 6.33652 16.6411C6.77391 17.5851 7.62713 18.2706 8.64318 18.4943C9.54997 18.694 10.4935 18.5054 11.25 17.9842V15.5714V13.2942C10.3116 13.176 9.43025 12.7497 8.75098 12.0705C7.88228 11.2018 7.42737 10.0025 7.50138 8.77625C7.52633 8.36278 7.88174 8.04784 8.2952 8.07279C8.70866 8.09774 9.02361 8.45315 8.99866 8.86661C8.95051 9.66442 9.24647 10.4446 9.81164 11.0098C10.208 11.4062 10.7102 11.6702 11.25 11.7759V8.82143C11.25 8.40721 11.5858 8.07143 12 8.07143C12.3797 8.07143 12.6935 8.35358 12.7432 8.71966L12.75 8.82143V12.5661C12.7501 12.5701 12.7501 12.5742 12.75 12.5782V14.7845C14.8121 14.5681 15.75 13.3924 15.75 11.0714C15.75 10.6572 16.0858 10.3214 16.5 10.3214C16.9142 10.3214 17.25 10.6572 17.25 11.0714C17.25 14.2265 15.6823 16.0337 12.75 16.2898V17.9841Z" fill="black"/>
<mask id="mask0_1038_6767" style="mask-type:luminance" maskUnits="userSpaceOnUse" x="0" y="0" width="24" height="25">
<path fill-rule="evenodd" clip-rule="evenodd" d="M11.7437 0.576552C10.0402 0.649396 8.45197 1.44548 7.37456 2.75678L7.32139 2.82296C6.28535 2.85732 5.29905 3.3333 4.62087 4.13793L4.48309 4.31168C3.99862 4.96166 3.74318 5.74957 3.74912 6.55243L3.75202 6.64043L3.58302 6.74111C1.63752 7.94676 0.528738 10.179 0.788065 12.4967L0.82085 12.7435C1.1732 15.0327 2.81499 16.9075 5.01999 17.5676L5.14602 17.6024L5.20879 17.7138C5.8877 18.8533 7.01086 19.6708 8.32059 19.9592L8.56671 20.0068C9.48121 20.159 10.4116 20.0436 11.25 19.6872V23.8214L11.2569 23.9232C11.3065 24.2893 11.6203 24.5714 12 24.5714C12.4142 24.5714 12.75 24.2356 12.75 23.8214V19.6868C13.6642 20.0751 14.6877 20.177 15.6806 19.9579L15.9239 19.8976C17.129 19.5653 18.1557 18.7794 18.7917 17.7106L18.854 17.5984L18.9668 17.5681C21.4891 16.8172 23.2494 14.4909 23.25 11.8216L23.2444 11.5721C23.158 9.58379 22.0909 7.77927 20.4183 6.74196L20.247 6.63943L20.2509 6.55243C20.2574 5.67659 19.9528 4.81853 19.3792 4.13793L19.2313 3.97272C18.5711 3.27837 17.667 2.86667 16.7098 2.82462L16.678 2.82443L16.6255 2.75678C15.4942 1.37991 13.7998 0.571075 12 0.571075L11.7437 0.576552ZM12.75 17.9841C13.5068 18.5051 14.4505 18.6933 15.3573 18.4931C16.3734 18.2689 17.2264 17.5829 17.6633 16.6385C17.7625 16.4241 17.9569 16.269 18.188 16.2198C20.2646 15.7781 21.7496 13.9444 21.75 11.8229C21.7465 10.0728 20.7265 8.48422 19.1366 7.75278C18.824 7.60897 18.6493 7.27087 18.713 6.93271C18.8354 6.28207 18.6589 5.61086 18.2322 5.10464C17.8056 4.59841 17.1739 4.3108 16.5 4.32143L16.431 4.33286L16.3625 4.33892C16.0993 4.35564 15.8466 4.2328 15.6971 4.01543C14.8599 2.79823 13.4773 2.07108 12 2.07108C10.5227 2.07108 9.14011 2.79823 8.30298 4.01543C8.15348 4.2328 7.90078 4.35564 7.6375 4.33892C7.58972 4.33589 7.55028 4.33109 7.50134 4.32399L7.30844 4.32579C6.77252 4.36099 6.26754 4.59093 5.88913 4.97205L5.76781 5.10464C5.34114 5.61086 5.16463 6.28207 5.28708 6.93271C5.35072 7.27085 5.1761 7.60893 4.86352 7.75276C3.10532 8.56176 2.06356 10.4065 2.27876 12.3299C2.49396 14.2533 3.91767 15.8222 5.81119 16.2227C6.04246 16.2716 6.23714 16.4266 6.33652 16.6411C6.77391 17.5851 7.62713 18.2706 8.64318 18.4943C9.54997 18.694 10.4935 18.5054 11.25 17.9842V15.5714V13.2942C10.3116 13.176 9.43025 12.7497 8.75098 12.0705C7.88228 11.2018 7.42737 10.0025 7.50138 8.77625C7.52633 8.36278 7.88174 8.04784 8.2952 8.07279C8.70866 8.09774 9.02361 8.45315 8.99866 8.86661C8.95051 9.66442 9.24647 10.4446 9.81164 11.0098C10.208 11.4062 10.7102 11.6702 11.25 11.7759V8.82143C11.25 8.40721 11.5858 8.07143 12 8.07143C12.3797 8.07143 12.6935 8.35358 12.7432 8.71966L12.75 8.82143V12.5661C12.7501 12.5701 12.7501 12.5742 12.75 12.5782V14.7845C14.8121 14.5681 15.75 13.3924 15.75 11.0714C15.75 10.6572 16.0858 10.3214 16.5 10.3214C16.9142 10.3214 17.25 10.6572 17.25 11.0714C17.25 14.2265 15.6823 16.0337 12.75 16.2898V17.9841Z" fill="white"/>
</mask>
<g mask="url(#mask0_1038_6767)">
<rect y="0.571411" width="24" height="24" fill="black"/>
</g>
</svg>
