<svg width="74" height="74" viewBox="0 0 74 74" fill="none" xmlns="http://www.w3.org/2000/svg">
<rect width="74" height="74" fill="white"/>
<g filter="url(#filter0_i_1228_7561)">
<path d="M35.1718 37.4321C34.5255 40.4418 35.3424 44.1057 35.9321 47.577C35.2961 49.7808 34.9493 51.4217 32.3311 53.712C29.7122 56.0024 22.5975 55.1839 19.2402 52.7513C15.883 50.3186 15.787 47.3521 17.5034 43.3116C19.2198 39.2719 24.5245 36.579 26.8385 34.6787C24.0072 34.9838 17.4051 38.6075 14.154 37.5076C10.9029 36.4076 8.37828 32.9552 7.39233 27.9013C6.40559 22.8481 7.41199 20.09 8.94673 19.2558C10.0553 18.6527 13.882 19.2369 15.9144 19.7652C17.9468 20.2936 25.5679 22.1271 30.0589 24.8066C34.5515 27.4861 33.6418 27.5758 34.7709 28.6954C34.0923 30.3724 34.4406 34.229 36.0391 34.9822C36.0391 34.9822 35.3047 36.8133 35.1718 37.4321Z" fill="#808080"/>
<path d="M30.9741 19.5978C30.7712 19.7472 30.8962 20.1151 30.9984 20.2857C31.1007 20.4564 31.2013 20.4925 31.3177 20.5806C31.552 20.7551 31.7784 20.9108 31.8586 21.0964C32.1259 21.69 32.4577 22.2718 32.7431 22.7671C33.1197 23.3961 33.5128 23.9929 33.9469 24.4866C34.3887 24.9537 34.833 25.3751 35.2992 25.7155C35.6263 25.9357 35.9628 26.0017 36.3056 26.0591C36.2718 26.1912 36.2387 26.3264 36.2317 26.4774C36.1609 26.372 36.1051 26.3044 36.0115 26.3044C35.7725 26.3044 35.5689 26.6999 35.5689 27.1897C35.5689 27.3124 35.5689 27.4272 35.5925 27.5333C34.8172 28.2842 34.2904 29.6122 34.2904 31.1453C34.2904 32.8491 34.9218 34.2997 35.8386 34.9783C35.1789 36.3133 34.7331 38.7247 34.7331 41.4891C34.7331 45.6971 36.4149 49.1125 36.9935 49.1062C37.5722 49.0968 39.2784 45.6971 39.2784 41.4891C39.2784 38.7113 38.8381 36.2842 38.1729 34.9539C39.0747 34.2667 39.6959 32.8318 39.6959 31.1453C39.6959 29.6287 39.1982 28.3133 38.4434 27.5585C38.4685 27.4453 38.4921 27.3226 38.4921 27.189C38.4921 26.6999 38.2877 26.3052 38.0503 26.3052C37.9402 26.3052 37.8561 26.3862 37.7798 26.5261C37.7735 26.3681 37.7487 26.2114 37.7059 26.0591C38.0683 25.9899 38.3978 25.8689 38.7131 25.7155C39.1754 25.3145 39.6888 24.9081 40.0654 24.4866C40.4986 23.9929 40.9169 23.3953 41.2935 22.7671C41.6166 22.2042 41.8832 21.642 42.1529 21.0964C42.2331 20.9108 42.4595 20.7551 42.6938 20.5806C42.811 20.4925 42.8746 20.4674 43.0374 20.2857C43.2001 20.1033 43.2489 19.7503 43.0625 19.5978C42.8754 19.4453 42.6144 19.4657 42.3746 19.6961C42.134 19.9256 41.998 20.6018 41.8832 21.0225C41.619 21.5602 41.3265 22.1028 41.0718 22.5949C40.7345 23.1398 40.3406 23.7381 39.9176 24.2413C39.5182 24.6926 39.1077 25.0236 38.6887 25.3712C38.3223 25.6652 37.871 25.7729 37.5589 25.7155C37.4142 25.4521 37.2223 25.2729 36.9928 25.2729C36.7616 25.2729 36.5666 25.4474 36.4282 25.7155C35.6326 25.7808 34.6883 24.7988 34.0939 24.2413C33.6701 23.7381 33.2762 23.1406 32.9389 22.5949C32.6456 22.0524 32.4074 21.5595 32.1291 21.0225C32.0269 20.7198 31.9632 20.3762 31.8578 20.0892C31.8097 19.9455 31.735 19.8122 31.6377 19.6961C31.3184 19.3682 31.1769 19.4476 30.9741 19.5978Z" fill="#0E3855"/>
<path d="M38.8279 37.4321C39.4742 40.4418 38.658 44.1057 38.0676 47.577C38.7044 49.7808 39.0504 51.4217 41.6693 53.712C44.2875 56.0024 51.403 55.1839 54.7603 52.7513C58.1167 50.3186 58.2127 47.3521 56.4963 43.3116C54.7807 39.2719 49.4752 36.579 47.1612 34.6787C49.9933 34.9838 56.5954 38.6075 59.8465 37.5076C63.0976 36.4076 65.6214 32.9552 66.6082 27.9013C67.5941 22.8481 66.5877 20.09 65.053 19.2558C63.9444 18.6527 60.1185 19.2369 58.0853 19.7652C56.0529 20.2936 48.4326 22.1271 43.9408 24.8066C39.449 27.4861 40.3579 27.5758 39.2296 28.6954C39.9074 30.3724 39.5599 34.229 37.9606 34.9822C37.9606 34.9822 38.695 36.8133 38.8279 37.4321ZM35.1718 37.4321C34.5255 40.4418 35.3424 44.1057 35.9321 47.577C35.2961 49.7808 34.9493 51.4217 32.3311 53.712C29.7122 56.0024 22.5975 55.1839 19.2402 52.7513C15.883 50.3186 15.787 47.3521 17.5034 43.3116C19.2198 39.2719 24.5245 36.579 26.8385 34.6787C24.0072 34.9838 17.4051 38.6075 14.154 37.5076C10.9029 36.4076 8.37828 32.9552 7.39233 27.9013C6.40559 22.8481 7.41199 20.09 8.94673 19.2558C10.0553 18.6527 13.882 19.2369 15.9144 19.7652C17.9468 20.2936 25.5679 22.1271 30.0589 24.8066C34.5515 27.4861 33.6418 27.5758 34.7709 28.6954C34.0923 30.3724 34.4406 34.229 36.0391 34.9822C36.0391 34.9822 35.3047 36.8133 35.1718 37.4321Z" fill="#2F99C6"/>
<path d="M38.8278 37.4321C39.4741 40.4418 38.658 44.1057 38.0675 47.577C38.7044 49.7808 39.0503 51.4217 41.6693 53.712C44.2875 56.0024 51.403 55.1839 54.7602 52.7513C58.1167 50.3186 58.2126 47.3521 56.4963 43.3116C54.7807 39.2719 49.4751 36.579 47.1612 34.6787C49.9933 34.9838 56.5953 38.6075 59.8464 37.5076C63.0975 36.4076 65.6214 32.9552 66.6081 27.9013C67.5941 22.8481 66.5877 20.09 65.0529 19.2558C63.9443 18.6527 60.1185 19.2369 58.0853 19.7652C56.0528 20.2936 48.4326 22.1271 43.9408 24.8066C39.449 27.4861 40.3579 27.5758 39.2296 28.6954C39.9073 30.3724 39.5598 34.229 37.9606 34.9822C37.9606 34.9822 38.695 36.8133 38.8278 37.4321Z" fill="#2F99C6"/>
</g>
<defs>
<filter id="filter0_i_1228_7561" x="7" y="19" width="60" height="40.0644" filterUnits="userSpaceOnUse" color-interpolation-filters="sRGB">
<feFlood flood-opacity="0" result="BackgroundImageFix"/>
<feBlend mode="normal" in="SourceGraphic" in2="BackgroundImageFix" result="shape"/>
<feColorMatrix in="SourceAlpha" type="matrix" values="0 0 0 0 0 0 0 0 0 0 0 0 0 0 0 0 0 0 127 0" result="hardAlpha"/>
<feOffset dy="4"/>
<feGaussianBlur stdDeviation="7"/>
<feComposite in2="hardAlpha" operator="arithmetic" k2="-1" k3="1"/>
<feColorMatrix type="matrix" values="0 0 0 0 0 0 0 0 0 0 0 0 0 0 0 0 0 0 0.15 0"/>
<feBlend mode="normal" in2="shape" result="effect1_innerShadow_1228_7561"/>
</filter>
</defs>
</svg>
