<svg width="74" height="74" viewBox="0 0 74 74" fill="none" xmlns="http://www.w3.org/2000/svg">
<rect width="74" height="74" fill="white"/>
<g filter="url(#filter0_i_1228_7571)">
<path d="M36.5155 33.5823C36.5155 33.5823 38.2038 29.1759 38.0168 28.5661C37.8271 27.9564 37.6402 27.4876 37.1253 27.2979C36.6104 27.1109 23.0687 20.2357 19.2152 20.4065C17.6569 20.4769 18.3642 19.729 17.6678 19.9837C17.5323 20.0379 17.1339 19.4526 17.142 19.2303C16.9008 19.2168 16.6 18.9973 16.2098 18.4715C16.2098 18.4715 15.4402 18.2873 15.3237 17.7344C15.2315 17.3008 15.2288 17.9702 14.9497 18.3902C14.6678 18.813 14.4809 19.0948 14.2451 19.2818C14.012 19.4715 14.5269 19.1409 15.4646 19.4227C16.4022 19.7046 17.1529 19.9376 16.7301 20.1734C16.3074 20.4065 18.0905 20.7831 17.5269 21.0162C16.9659 21.252 19.0282 21.6259 18.5106 21.7669C17.9957 21.9078 19.871 22.2817 20.2937 22.7966C20.7165 23.3115 29.0604 26.4551 29.8111 26.6909C30.5617 26.9239 36.0928 27.8616 35.9085 28.4713C35.7188 29.081 35.25 31.1433 35.1091 31.52C34.9681 31.894 36.5182 33.5796 36.5182 33.5796L36.5155 33.5823ZM36.5155 41.3138C36.5155 41.3138 38.2038 45.7202 38.0168 46.3272C37.8271 46.9397 37.6402 47.4085 37.1253 47.5955C36.6104 47.7852 23.0687 54.6603 19.2152 54.4869C17.6569 54.4191 18.3642 55.1644 17.6678 54.9096C17.5323 54.8582 17.1339 55.4408 17.142 55.6657C16.9008 55.6766 16.6 55.8961 16.2098 56.4245C16.2098 56.4245 15.4402 56.6088 15.3237 57.1589C15.2315 57.5925 15.2288 56.9258 14.9497 56.5031C14.6678 56.083 14.4809 55.7985 14.2451 55.6142C14.012 55.4245 14.5269 55.7524 15.4646 55.4733C16.4022 55.1915 17.1529 54.9584 16.7301 54.7227C16.3074 54.4869 18.0905 54.1129 17.5269 53.8771C16.9659 53.6441 19.0282 53.2674 18.5106 53.1292C17.9957 52.9883 19.871 52.6143 20.2937 52.0967C20.7165 51.5818 29.0604 48.4383 29.8111 48.2052C30.5617 47.9694 36.0928 47.0318 35.9085 46.4221C35.7188 45.815 35.25 43.75 35.1091 43.3761C34.9681 42.9994 36.5182 41.3138 36.5182 41.3138H36.5155Z" fill="#2F99C6"/>
<path d="M52.3038 32.4793C52.4501 32.0484 53.713 30.3601 53.3336 30.0295C53.8772 29.5866 54.4553 29.1878 55.0625 28.8371C56.3362 28.1055 57.3931 28.0811 57.6289 27.7477C58.2521 26.8589 58.1139 26.1028 58.2413 26.2437C58.2413 26.2437 60.9594 23.8725 60.7778 23.7858C60.4906 23.6503 61.0109 23.4443 61.0109 23.4443C60.9621 23.0947 61.0705 22.9592 61.29 22.9755C60.8835 22.4958 61.3523 22.466 61.626 22.4471C61.6369 22.0026 62.0949 21.8969 62.0949 21.8969C61.8781 21.4037 62.1193 21.0541 62.3984 20.9864C62.3984 20.9864 62.3577 21.0325 62.5095 20.5365C62.6287 20.1517 63.0054 20.8184 63.0054 20.8184C63.0867 20.5962 63.0217 20.0867 62.355 19.9078C61.6586 19.7208 61.2006 20.0189 61.1735 20.252C61.4282 20.1815 61.7372 20.1978 61.6613 20.4959C61.6152 20.6775 61.3578 20.7073 61.3578 20.7073C61.4255 20.9728 61.5204 21.1544 61.1572 21.2059C61.206 21.5853 61.1897 21.7316 60.8889 21.6178C60.8293 22.4335 60.6179 22.4633 60.3686 22.2953C60.4093 22.8915 60.0163 23.1056 59.8104 22.9403C59.6071 22.7777 59.8402 23.7072 59.4093 24.0459C58.9811 24.3847 57.7047 25.4903 57.6749 25.6719C57.6424 25.8589 57.4581 25.9673 57.0896 26.0269C56.721 26.0892 56.0598 26.6258 55.3688 26.9944C54.6777 27.3629 52.6669 29.1461 52.6507 29.3466C52.6344 29.5472 52.4501 29.0539 52.2496 29.3602C52.0518 29.6691 51.6669 31.2517 51.4664 31.3737C51.2686 31.4983 52.3038 32.4793 52.3038 32.4793Z" fill="#2F99C6"/>
<path d="M52.3038 42.6959C52.4501 43.1295 53.713 44.8178 53.3336 45.1457C54.0626 45.7364 54.656 46.1023 55.0625 46.338C56.3362 47.0697 57.3931 47.0968 57.6289 47.4274C58.2521 48.319 58.1139 49.0751 58.2413 48.9342C58.2413 48.9342 60.9594 51.3054 60.7778 51.3921C60.4906 51.5276 61.0109 51.7336 61.0109 51.7336C60.9621 52.0804 61.0705 52.2159 61.29 52.2024C60.8835 52.6821 61.3523 52.7092 61.626 52.7281C61.6369 53.1726 62.0949 53.2782 62.0949 53.2782C61.8781 53.7742 62.1193 54.121 62.3984 54.1888C62.3984 54.1888 62.3577 54.1454 62.5095 54.6386C62.6287 55.0235 63.0054 54.3595 63.0054 54.3595C63.0867 54.5817 63.0217 55.0912 62.355 55.2674C61.6586 55.4543 61.2006 55.1562 61.1735 54.9232C61.4282 54.9964 61.7372 54.9801 61.6613 54.6793C61.6152 54.4977 61.3578 54.4679 61.3578 54.4679C61.4255 54.2023 61.5204 54.0208 61.1572 53.9693C61.206 53.5899 61.1897 53.4436 60.8889 53.5574C60.8293 52.7417 60.6179 52.7119 60.3686 52.8799C60.4093 52.2837 60.0163 52.0696 59.8104 52.2376C59.6071 52.3975 59.8402 51.468 59.4093 51.1293C58.9811 50.7932 57.7047 49.6848 57.6749 49.5033C57.6424 49.3163 57.4581 49.2106 57.0896 49.151C56.721 49.0859 56.0598 48.5494 55.3688 48.1808C54.6777 47.8123 52.6669 46.0291 52.6507 45.8286C52.6344 45.6307 52.4501 46.1212 52.2496 45.815C52.0518 45.5061 51.6669 43.9262 51.4664 43.8015C51.2686 43.6796 52.3038 42.6959 52.3038 42.6959Z" fill="#2F99C6"/>
<path d="M41.9761 45.7662C42.0954 45.3597 40.1036 50.7824 39.8624 50.9748C39.6239 51.1645 39.7675 53.0398 39.5263 53.3514C39.2879 53.6631 38.9058 53.6414 38.9058 54.0506C38.9058 54.4571 39.0955 54.9828 39.3583 55.0804C38.9735 55.4733 38.7188 55.4327 38.7106 55.8229C38.6998 56.4191 39.4125 55.934 39.4125 55.934C39.3204 56.3866 38.8082 57.0993 38.4125 57.1833C37.8895 57.2944 37.2933 56.6874 37.2933 56.6874C37.8218 56.8283 37.979 56.3893 38.0332 56.2619C38.1145 56.0614 38.0332 55.5898 37.4668 55.1888C37.4668 55.1888 37.8136 54.7389 37.8353 54.4923C37.8733 54.0614 37.8218 53.8799 37.9166 53.4463C38.0142 53.0154 38.4722 51.2864 38.5426 50.8555C38.6158 50.4219 40.174 46.2947 40.4152 45.815C40.6564 45.3326 41.8569 46.1727 41.9761 45.7662ZM41.9761 29.2789C42.0954 29.6854 40.1036 24.26 39.8624 24.0676C39.6239 23.8779 39.7675 22.0053 39.5263 21.691C39.2879 21.3793 38.9058 21.401 38.9058 20.9945C38.9058 20.5853 39.0955 20.0623 39.3583 19.9647C38.9735 19.5718 38.7188 19.6124 38.7106 19.2195C38.6998 18.6233 39.4125 19.1111 39.4125 19.1111C39.3204 18.6558 38.8082 17.9458 38.4125 17.8591C37.8895 17.7507 37.2933 18.355 37.2933 18.355C37.8218 18.2141 37.979 18.6531 38.0332 18.7832C38.1145 18.981 38.0332 19.4553 37.4668 19.8536C37.4668 19.8536 37.8136 20.3035 37.8353 20.5501C37.8733 20.9837 37.8218 21.1625 37.9166 21.5961C38.0142 22.0297 38.4722 23.756 38.5426 24.1896C38.6158 24.6232 40.174 28.7504 40.4152 29.2301C40.6564 29.7097 41.8569 28.8697 41.9761 29.2789Z" fill="#2F99C6"/>
<path d="M61.2737 37.4358C61.2737 41.7203 58.9079 45.1999 56.3524 45.1999C53.7942 45.1999 53.0707 41.7203 53.0707 37.4358C53.0707 33.1541 53.7942 29.6745 56.3497 29.6745C58.9079 29.6745 61.271 33.1541 61.271 37.4358H61.2737Z" fill="#2F99C6"/>
<path d="M60.1355 42.33C60.1355 42.33 59.1301 43.2514 57.9296 42.7284C56.7291 42.2027 56.0868 40.8639 55.1464 41.5523C54.2522 42.2054 54.8727 43.9641 55.5529 44.5115C56.16 44.9993 56.8483 45.2568 57.7155 44.8421C58.981 44.2351 59.5041 43.2704 60.1355 42.3273V42.33ZM60.1355 32.5389C60.1355 32.5389 59.1301 31.6121 57.9296 32.1379C56.7291 32.6636 56.0868 33.9996 55.1464 33.314C54.2522 32.6582 54.8727 30.9021 55.5529 30.3547C56.16 29.8669 57.1437 29.6339 57.8347 30.0431C59.1978 30.8506 59.5068 31.5932 60.1355 32.5362V32.5389Z" fill="#2F99C6"/>
<path d="M61.2248 38.8613C61.0216 38.6553 60.6747 38.7068 60.6856 38.8911C60.7181 39.425 62.2627 43.124 62.6015 43.6444C62.7858 43.9289 65.1109 44.3327 65.5255 44.3489C65.9402 44.3625 66.9835 44.4086 66.9998 44.1186C67.016 43.8259 65.6719 43.807 65.3494 43.7392C64.7911 43.6173 63.2546 43.1539 63.1001 43.0156C62.9457 42.8774 61.3197 38.9616 61.2248 38.864V38.8613ZM61.2248 36.2624C61.0216 36.4711 60.6747 36.4196 60.6856 36.2353C60.7181 35.7015 62.2627 31.9997 62.6015 31.4821C62.7858 31.1975 65.1109 30.7937 65.5255 30.7775C65.9402 30.7612 66.9835 30.7152 66.9998 31.0078C67.016 31.3005 65.6719 31.3168 65.3494 31.3872C64.7911 31.5065 63.2546 31.9726 63.1001 32.1108C62.9457 32.2463 61.3197 36.1622 61.2248 36.2624Z" fill="#2F99C6"/>
<path d="M35.7676 32.3899C37.8109 35.3871 37.7161 40.0536 35.7676 42.4845C33.9845 44.7093 26.8627 46.1212 21.1257 45.5088C15.4565 44.9045 10.5569 41.5577 8.29677 39.5144C6.58949 37.9697 6.54613 37.3599 8.29677 35.36C9.83602 33.5985 15.8792 29.3574 21.3154 29.1759C27.0822 28.9808 34.1064 29.9482 35.7676 32.3899Z" fill="#12466A"/>
<path d="M53.4447 37.5605C53.4799 43.2839 50.2686 46.8963 44.9083 46.086C39.548 45.2757 36.7405 40.3653 36.6619 37.4358C36.586 34.5633 39.426 29.9374 44.9083 28.978C50.2469 28.0404 53.4148 32.2354 53.4447 37.5605Z" fill="#12466A"/>
<path d="M46.7917 44.3625C46.4313 43.1321 45.247 43.685 44.4313 44.1267C43.6726 44.5332 31.8924 44.3191 28.3505 46.1456C26.7055 46.9938 24.9982 48.9125 24.9982 48.9125C24.9982 48.9125 22.8113 48.6415 21.6271 49.8041C20.6515 50.7634 19.3019 53.0831 18.9171 53.8256C16.8521 57.8039 16.0418 60.7116 16.1936 61.8878C16.5188 64.3809 18.3995 63.9148 19.535 63.6221C22.4942 62.8498 26.3478 61.2916 32.0252 56.4841C32.7298 55.8852 38.8326 50.5249 39.7431 49.9504C40.651 49.3732 43.8189 46.9722 46.0519 45.6361C46.4069 45.4221 46.9408 44.8746 46.7917 44.3625ZM46.7917 30.4956C46.4313 31.7286 45.247 31.1731 44.4313 30.7341C43.6726 30.3276 31.8924 30.5417 28.3505 28.7152C26.7055 27.867 24.9982 25.9483 24.9982 25.9483C24.9982 25.9483 22.8113 26.2193 21.6271 25.054C20.6515 24.0974 19.3019 21.7777 18.9171 21.0324C16.8521 17.0569 16.0418 14.1492 16.1936 12.973C16.5188 10.4799 18.3995 10.9433 19.535 11.2387C22.4942 12.011 26.3478 13.5665 32.0252 18.3767C32.7298 18.9729 38.8326 24.3332 39.7431 24.9104C40.651 25.4876 43.8189 27.8859 46.0519 29.2246C46.4069 29.4387 46.9408 29.9861 46.7917 30.4956Z" fill="#2F99C6"/>
</g>
<defs>
<filter id="filter0_i_1228_7571" x="7" y="11" width="59.9999" height="56.8596" filterUnits="userSpaceOnUse" color-interpolation-filters="sRGB">
<feFlood flood-opacity="0" result="BackgroundImageFix"/>
<feBlend mode="normal" in="SourceGraphic" in2="BackgroundImageFix" result="shape"/>
<feColorMatrix in="SourceAlpha" type="matrix" values="0 0 0 0 0 0 0 0 0 0 0 0 0 0 0 0 0 0 127 0" result="hardAlpha"/>
<feOffset dy="4"/>
<feGaussianBlur stdDeviation="7"/>
<feComposite in2="hardAlpha" operator="arithmetic" k2="-1" k3="1"/>
<feColorMatrix type="matrix" values="0 0 0 0 0 0 0 0 0 0 0 0 0 0 0 0 0 0 0.15 0"/>
<feBlend mode="normal" in2="shape" result="effect1_innerShadow_1228_7571"/>
</filter>
</defs>
</svg>
