<svg width="75" height="74" viewBox="0 0 75 74" fill="none" xmlns="http://www.w3.org/2000/svg">
<rect width="74" height="74" transform="translate(0.0991211)" fill="white"/>
<g filter="url(#filter0_i_1228_7632)">
<path d="M62.5173 47.6869C61.1207 47.6155 60.3372 47.5346 58.9434 47.4159C57.3802 47.2784 56.4922 47.2729 54.9422 47.031C52.8859 46.7121 51.7477 46.3987 49.7518 45.8103C45.0343 44.4138 37.705 42.8467 38.2548 40.6584C39.9483 40.0701 42.9779 42.0055 45.991 41.5931C47.3546 41.4062 48.5092 41.7581 49.4164 40.7145C50.2852 39.7094 48.6082 37.769 49.8673 37.3369C50.4941 37.1208 50.7415 37.4029 51.5553 37.5623C52.3635 37.7218 55.4646 39.6517 57.8564 41.1648C61.5688 43.5082 63.2194 44.2054 67.0001 47.8233C65.697 47.8326 63.6516 47.7298 62.5036 47.6715L62.5173 47.6869Z" fill="#2F99C6" stroke="#0D314A" stroke-linecap="round" stroke-linejoin="round"/>
<path d="M51.5832 37.4826C50.7046 36.0327 50.2829 35.1711 49.3317 33.7674C48.0154 31.8248 47.2588 30.7158 45.6164 29.0388C42.5121 25.8706 40.2248 24.5082 36.1593 22.7344C31.3109 20.6175 28.162 20.2217 22.8753 20.0325C18.6845 19.8819 16.2982 20.2607 12.1794 21.0453C10.1379 21.4346 9.02174 21.8008 7 22.2841M50.9768 40.863C51.972 41.6474 52.741 42.0103 53.2839 41.9516C54.0987 41.862 54.0987 41.5909 52.7863 40.775M49.9502 45.9544C47.4897 45.9984 46.1399 45.9214 43.7025 46.2678C41.2227 46.6197 39.8553 47.0761 37.5113 47.9558C35.0827 48.8685 33.5553 49.2479 31.5435 50.8864C30.2898 51.9091 29.6784 52.6184 28.7283 53.927L49.9502 45.9544Z" stroke="#0D314A" stroke-linecap="round" stroke-linejoin="round"/>
<path d="M32.782 37.6402C34.9085 37.6402 36.6323 35.9164 36.6323 33.7899C36.6323 31.6634 34.9085 29.9395 32.782 29.9395C30.6555 29.9395 28.9316 31.6634 28.9316 33.7899C28.9316 35.9164 30.6555 37.6402 32.782 37.6402Z" stroke="#0D314A" stroke-width="1.00176" stroke-linecap="round" stroke-linejoin="round"/>
<path d="M66.611 47.7738C65.1067 47.5154 63.9322 46.9765 62.0348 46.4707C59.9344 45.911 58.1089 45.9044 55.6127 45.4574C53.6663 45.1082 52.5721 44.8993 50.6367 44.4814C46.4965 43.5874 44.2312 42.8226 40.1294 41.7608" stroke="#0D314A" stroke-width="1.1921" stroke-linecap="round" stroke-linejoin="round"/>
</g>
<defs>
<filter id="filter0_i_1228_7632" x="6.5" y="19.5" width="61" height="38.927" filterUnits="userSpaceOnUse" color-interpolation-filters="sRGB">
<feFlood flood-opacity="0" result="BackgroundImageFix"/>
<feBlend mode="normal" in="SourceGraphic" in2="BackgroundImageFix" result="shape"/>
<feColorMatrix in="SourceAlpha" type="matrix" values="0 0 0 0 0 0 0 0 0 0 0 0 0 0 0 0 0 0 127 0" result="hardAlpha"/>
<feOffset dy="4"/>
<feGaussianBlur stdDeviation="7"/>
<feComposite in2="hardAlpha" operator="arithmetic" k2="-1" k3="1"/>
<feColorMatrix type="matrix" values="0 0 0 0 0 0 0 0 0 0 0 0 0 0 0 0 0 0 0.15 0"/>
<feBlend mode="normal" in2="shape" result="effect1_innerShadow_1228_7632"/>
</filter>
</defs>
</svg>
