<svg width="74" height="74" viewBox="0 0 74 74" fill="none" xmlns="http://www.w3.org/2000/svg">
<rect width="74" height="74" fill="white"/>
<g filter="url(#filter0_i_1228_7578)">
<path d="M37 40.642C37.4518 46.2463 40.3123 50.2526 42.2596 51.3565C44.2074 52.4604 49.1596 53.9353 53.3448 50.5914C57.5306 47.247 57.219 42.8846 56.0034 39.3388C57.267 39.7216 58.6733 39.8432 60.9801 37.9783C63.2874 36.114 68.0136 30.387 66.8057 26.7543C65.5977 23.1217 57.5153 23.8566 53.124 24.4412C48.7323 25.0259 38.3288 29.2488 38.3288 29.2488C38.3288 29.2488 38.6888 31.3682 38.5271 32.5365C38.3655 33.7048 37.283 36.1078 37.283 36.1078L37 40.642Z" fill="#2F99C6"/>
<path d="M37 40.642C36.5482 46.2463 33.6877 50.2526 31.7404 51.3565C29.7926 52.4604 24.8404 53.9353 20.6552 50.5914C16.4694 47.247 16.781 42.8846 17.9966 39.3388C16.733 39.7216 15.3267 39.8432 13.0199 37.9783C10.7126 36.114 5.98638 30.387 7.19433 26.7543C8.40229 23.1217 16.4847 23.8566 20.876 24.4412C25.2677 25.0259 35.6712 29.2488 35.6712 29.2488C35.6712 29.2488 35.3112 31.3682 35.4729 32.5365C35.6345 33.7048 36.717 36.1078 36.717 36.1078L37 40.642Z" fill="#2F99C6"/>
<path d="M50.8506 24.9177C55.0559 24.3782 59.1288 23.3421 63.5634 24.4437C68.7455 26.2031 66.5618 29.5928 66.4436 30.442C64.6206 34.357 61.0674 40.5181 55.919 39.4647C58.6265 47.8863 53.6248 51.1333 49.474 52.5568C45.1076 52.9049 42.8164 52.3034 41.1173 50.6946C39.7146 49.3667 38.6615 47.3995 37.6522 44.3005C37.7113 43.9453 37.6573 41.9765 38.9769 41.0961C39.2581 40.9087 39.9959 37.8102 40.2863 37.692C40.6898 37.5272 41.2385 39.1596 41.6191 39.2057C42.3757 39.2973 42.8241 37.8599 42.631 36.7614C42.4817 35.9121 40.5874 34.0473 41.3236 33.8221C41.7465 33.6921 42.6671 33.2989 42.9148 33.2324C43.5552 33.0599 44.7163 33.2974 42.7533 31.7863C42.5367 31.6199 44.8228 32.6406 45.074 32.5029C45.7119 32.1543 44.968 30.8772 45.4322 31.1423C47.5394 32.3453 48.3541 32.3176 47.944 31.0834C47.8507 30.8034 47.4029 30.6586 46.4119 30.6606C44.6119 30.6657 41.8265 31.0333 41.8744 30.7896C42.0451 29.9322 44.9609 30.2301 44.2017 28.9335C43.9419 28.4892 38.2076 29.9583 38.2743 29.3154C45.5702 26.6054 45.7536 26.5957 50.8506 24.9177ZM47.2724 51.5873C47.4406 51.445 47.5542 51.2935 47.5257 51.25C47.4416 51.122 45.9126 51.1978 45.8301 51.3421C45.7893 51.4128 46.4313 51.9835 46.9076 51.8622C46.9408 51.8535 47.1048 51.7296 47.2724 51.5873ZM50.845 50.0122C50.7864 49.9784 49.5509 50.4826 49.5137 50.5461C49.4734 50.6157 49.9799 50.9981 50.092 50.9679C50.8766 50.7749 50.8399 50.4366 50.845 50.0122ZM48.1386 48.173C48.0117 46.2851 47.7666 44.9097 47.4783 44.4684C47.2857 44.1731 47.0921 43.4922 46.8261 43.7927C46.7405 45.1646 45.6477 44.2534 45.3287 44.5641C45.4169 44.8201 45.5402 46.9506 45.478 47.1748C45.8499 46.7929 46.3431 46.4208 46.7385 46.3532C47.1334 46.2856 47.3499 46.4622 47.6036 46.6184C47.8471 46.8349 47.8991 46.9311 47.9455 47.2557C47.9964 48.172 47.7483 48.5574 46.9815 48.6122C46.2147 48.6665 45.852 47.957 45.4581 47.5254C45.4464 48.4709 45.3461 50.0388 45.2059 50.9142C45.8571 50.2113 46.2035 49.6191 46.9127 49.6406C47.6214 49.6626 48.0087 50.3219 48.2425 50.5994L48.2476 50.241C48.2527 50.0445 48.2018 49.1138 48.1386 48.173ZM44.2613 51.2541C44.4386 51.0068 44.7428 50.7729 44.2843 50.8292C44.0973 50.8522 42.6457 50.5988 42.4695 50.6188C42.1673 50.6531 42.5968 51.1947 42.8939 51.3708C43.1909 51.5464 43.249 51.6866 43.7101 51.5622C44.0005 51.4844 44.161 51.3943 44.2619 51.2541H44.2613ZM52.857 48.8958C53.0368 48.7309 53.4383 48.4284 53.3359 48.3685C53.0531 48.4289 51.7616 48.7606 52.1743 48.9388C52.3256 49.0263 52.6292 49.1041 52.857 48.8958ZM50.6544 48.1587C50.5424 47.8244 50.4354 47.5024 50.417 47.4435C50.3915 47.3606 50.3569 47.378 50.2672 47.5178C50.0787 47.8106 49.5162 48.0215 49.0934 47.958L48.7367 47.9042C48.7444 48.4509 48.8835 49.0836 48.966 49.4845C49.1071 49.0637 49.4459 48.9096 49.9254 48.7852C50.4043 48.6608 50.5571 48.8477 50.8394 48.9787C50.8496 48.8625 50.767 48.4939 50.6544 48.1592V48.1587ZM44.9751 49.9503C45.0108 49.3258 45.0546 48.82 45.073 48.1576C44.8294 48.2421 44.5747 48.4254 44.3097 48.5395C43.623 48.5927 43.3111 48.5641 43.1165 48.4294L42.4583 47.4727C42.2264 47.1359 42.1648 48.4525 42.0181 48.9424C41.8937 49.357 41.7378 50.325 41.8586 50.5031C42.5097 49.8612 43.2011 49.291 43.839 49.1328C44.3964 49.1154 44.8977 50.2625 44.9751 49.9508V49.9503ZM54.8827 46.2539C54.9887 46.0056 54.9591 45.7154 54.8318 45.7497C54.79 45.7609 54.5312 45.8321 54.4904 45.9575C54.3314 46.2309 54.336 46.5319 54.2031 46.8052C54.2224 46.8769 54.5291 46.9859 54.6382 46.9598C54.791 46.7637 54.8124 46.4971 54.8827 46.2534V46.2539ZM52.8519 46.365C52.6746 45.9079 52.4112 45.3351 52.2675 45.0919L52.0056 44.6496C52.1406 45.3381 52.079 45.8679 51.6566 46.0599C51.2342 46.2513 50.7156 45.9913 50.3951 45.8516C50.4129 45.9181 50.6845 46.6818 50.6229 46.7422C50.7589 47.3166 50.7971 47.3985 50.8613 47.874C50.8669 47.9559 51.2388 48.261 51.2944 48.3102C51.381 48.3875 51.5583 47.6493 51.6128 47.527C51.7962 47.1154 52.5105 46.9061 52.9018 47.1497C53.0231 47.2255 53.1341 47.2669 53.1484 47.2419C53.1627 47.2163 53.0292 46.8221 52.8519 46.3655V46.365ZM41.1107 44.6297C41.0352 44.5406 41.1871 46.1735 41.264 46.2805C41.2864 46.3117 41.6971 46.8861 41.6288 47.4799C41.5605 48.0732 41.4163 48.3875 40.9461 48.473C40.915 48.9434 41.3827 49.6918 41.3944 49.6467C42.1393 47.4958 42.2901 44.062 41.9263 44.4459C41.6614 45.0039 41.4653 45.0469 41.1112 44.6292L41.1107 44.6297ZM39.9852 46.9521C40.1869 46.2913 40.9084 46.3199 40.939 46.3036C41.0505 46.0015 40.7296 44.9982 40.617 44.2964C40.5049 43.5946 39.6515 45.3417 39.5608 45.8249C39.4701 46.3076 39.302 47.1431 39.3055 47.7665C39.4049 47.9247 39.9567 49.0642 40.0529 48.9736C40.0529 48.9736 40.3179 49.1072 40.323 48.711C40.3281 48.2928 39.7834 47.6135 39.9852 46.9521ZM52.7031 44.2944C52.2232 44.5263 52.9731 45.1011 53.2238 44.9547C53.6752 44.386 53.1831 44.0625 52.7031 44.2944ZM55.6999 44.2626C55.8742 44.0671 55.863 43.8772 55.8701 43.6284C55.889 43.4892 55.8752 43.4928 55.6082 43.699C55.3326 43.9125 55.2419 44.1971 55.4019 44.3481C55.4911 44.4326 55.4972 44.4311 55.7005 44.2626H55.6999ZM49.4368 44.5324C49.2788 44.2027 49.0893 43.9284 49.0557 43.8787C48.4453 42.9798 48.0708 43.1713 47.8716 43.5404C47.5781 44.083 48.3475 44.9926 48.4315 45.4548C48.482 45.7323 48.5737 46.2416 48.6231 46.257C48.671 46.2713 48.7454 45.7046 49.2467 45.6273C49.7481 45.5506 49.7012 45.7502 50.0609 46.0461L49.7842 45.4564C49.7073 45.2915 49.5942 44.8616 49.4368 44.5324ZM39.0803 45.6816C39.3025 44.9547 39.5898 43.3039 39.5328 43.0878C39.5694 42.7213 39.5959 42.3134 39.5674 42.0456C39.4196 41.866 39.2851 41.8516 39.3305 42.0205C39.2632 42.4147 39.1155 42.813 39.0222 43.1861C38.9061 43.7594 38.8042 43.8951 38.6687 43.656C38.5352 43.4206 38.4343 43.6115 38.5209 43.9355C38.5632 44.0942 38.5652 44.3133 38.526 44.4234C38.4231 44.708 38.7074 46.1392 38.8582 46.0942C38.9168 46.0768 39.0171 45.891 39.0813 45.6816H39.0803ZM54.4486 44.3225C54.1078 43.6827 54.2856 43.9709 53.5484 42.9036C53.046 42.0523 50.014 37.821 49.179 39.0843L48.8992 39.5123C50.0038 40.6087 50.9143 42.0185 51.9032 42.9025C52.0953 42.4623 52.3572 42.4685 52.5681 42.4224C53.0098 42.5053 53.3099 42.8355 53.4597 43.4032C53.53 43.6694 53.5692 43.9468 53.5468 44.0185C53.4923 44.1951 53.691 44.3988 53.8714 44.3502C53.9173 44.3407 53.9647 44.3404 54.0108 44.3494C54.0569 44.3584 54.1007 44.3764 54.1399 44.4024C54.3019 44.5176 54.4879 44.4694 54.4486 44.3225ZM45.1127 45.5475C45.0974 45.3008 45.1509 45.0248 45.0933 44.8119C45.0358 44.5995 44.8967 43.3504 44.8712 43.2506C43.8023 43.6084 43.5312 43.7779 42.6381 43.8219C42.6075 45.4308 42.4521 46.5795 42.2927 46.9833C42.6361 47.0192 43.1231 46.149 43.7957 46.1167C44.4682 46.0845 44.644 46.5841 44.8442 47.3842C45.2049 47.2378 45.1581 46.3199 45.1127 45.5475ZM38.3084 44.7233C38.3518 44.6292 38.3268 44.537 38.2137 44.3701C38.0343 44.105 37.9625 44.1843 37.9961 44.6087C38.0155 44.8493 38.0445 44.9066 38.1352 44.8825C38.1984 44.8656 38.2763 44.794 38.3084 44.7239V44.7233ZM50.5592 43.4672C50.7823 43.4016 51.1879 43.5183 51.4421 43.6786C51.3519 43.5567 50.8577 42.749 50.6458 42.4413C50.0904 41.5547 48.7382 40.2387 48.2746 39.8726C48.2807 40.596 48.188 40.4746 47.8915 40.9819C47.8008 41.1396 48.267 41.4851 49.0709 42.7408C49.3074 43.1104 49.5147 43.4636 49.532 43.526C49.5616 43.6335 49.9722 44.2391 50.0094 44.2294C50.1123 43.8316 50.336 43.5332 50.5597 43.4672H50.5592ZM53.8749 41.7114C53.9091 41.5025 54.0084 41.4339 54.0502 41.5911C54.095 41.7585 54.2718 41.8158 54.4603 41.7242C54.6035 41.6545 54.6264 41.5895 54.577 41.3945C54.535 41.2277 54.4945 41.0605 54.4558 40.8928C53.8092 39.5752 52.6017 38.4378 51.6841 37.4775C51.463 37.241 51.1665 36.9758 51.0243 36.8883C50.7757 36.7353 50.7589 36.7363 50.5683 36.9108C50.39 37.0736 50.3508 37.0849 50.1699 37.0183C49.8627 36.9057 49.747 36.9789 49.6008 37.3751C49.4485 37.7887 49.4903 37.8676 50.0094 38.1481C51.3372 38.8683 52.0204 40.0933 52.9288 41.2051C53.3196 41.6832 53.6829 42.0026 53.7736 41.9458C53.8123 41.9212 53.8581 41.8163 53.8755 41.7119L53.8749 41.7114ZM48.1009 42.5611C48.2354 42.3461 47.9047 41.6397 47.4711 41.0577C47.2449 40.7536 47.0228 40.4818 46.9764 40.4531C46.577 40.6139 46.3324 40.941 46.1006 41.2317C45.7424 41.7446 45.7847 41.8752 46.4491 42.3093C46.6529 42.4843 47.1216 43.009 47.2979 43.1436C47.5292 43.1385 48.0204 42.6901 48.1009 42.5611ZM54.2637 39.7477C53.6859 38.9799 52.9793 38.2888 52.2762 37.6572C52.8198 38.4823 53.7155 39.2819 54.2744 39.9627C54.3528 40.0738 54.4328 40.1363 54.4527 40.1025C54.4716 40.0687 54.387 39.909 54.2642 39.7477H54.2637ZM45.1667 40.1839C45.1453 40.1035 45.0939 40.0467 45.0531 40.0574C44.9614 40.082 44.8819 40.3963 44.9568 40.4398C45.0638 40.5013 45.2049 40.3287 45.1667 40.1839ZM58.2708 38.2274C58.2912 37.8686 58.2535 37.8343 58.0212 38.0027C57.7262 38.2172 57.795 38.6513 58.1103 38.5663C58.2071 38.5407 58.2596 38.4286 58.2708 38.2274ZM56.2899 38.401C56.3205 38.2597 56.3837 38.1194 56.43 38.0887C56.4759 38.058 56.51 37.8686 56.5049 37.6674C56.4963 37.3203 56.51 37.2978 56.7658 37.2308C56.9141 37.1919 57.1377 37.1606 57.2626 37.1612C57.5392 37.1612 57.529 37.0547 57.2305 36.8269C56.9242 36.5868 56.667 36.3662 56.3704 36.1143L56.1875 36.4553C55.9328 36.9308 55.7728 37.0117 55.2694 36.9221C54.9245 36.8602 54.82 36.7992 54.6973 36.5904C54.6147 36.4491 54.5296 36.2705 54.5087 36.1932C54.4568 36.0002 53.6141 35.5482 53.4133 35.6055C53.1469 35.7744 53.0343 35.991 52.8646 36.2541C53.5713 36.9119 54.443 37.3362 55.1961 37.9484C55.4595 38.0959 55.6908 38.3073 55.8915 38.4593C56.1162 38.7521 56.2166 38.7373 56.2899 38.401ZM60.05 37.1699C60.0291 37.0931 59.8141 36.53 59.5558 36.6682C59.2975 36.8064 59.298 37.1309 59.5201 37.2722C59.7428 37.414 60.0704 37.2466 60.05 37.1699ZM60.4764 36.3989C60.5253 36.206 60.5427 36.0268 60.5151 36.0012C60.4326 35.9234 59.918 36.1834 59.8518 36.336C59.8029 36.4486 59.8273 36.5192 59.9669 36.6733C60.1993 36.9293 60.3643 36.8412 60.4764 36.3989ZM54.4288 37.9203C50.901 35.4827 56.2135 38.8791 51.9964 36.316C51.757 36.1246 51.5165 36.1113 51.5649 36.293C52.4728 36.9103 53.3644 37.6546 54.4282 37.9203H54.4288ZM58.333 36.5331C58.2876 36.4041 58.2871 36.1655 58.333 36.0033C58.3875 35.4837 58.1633 35.3777 57.769 35.0419C57.5285 34.9431 57.3313 35.0194 57.3777 35.1929C57.4261 35.3736 57.1377 35.7842 56.9742 35.7673C56.9079 35.7601 56.9614 35.8374 57.0985 35.9449C57.4215 36.2285 57.7776 36.4844 58.116 36.7317C58.3299 36.9134 58.4344 36.8177 58.3335 36.5325L58.333 36.5331ZM47.4569 39.3546C47.5236 39.1499 47.57 38.9497 47.5588 38.9093C47.5262 38.7864 47.087 38.4665 46.9881 38.4931C46.8822 38.5218 47.0034 39.4503 47.1384 39.6362C47.2668 39.8143 47.3224 39.7652 47.4569 39.3546ZM62.3666 34.099C61.9988 34.1517 61.7379 34.5454 61.529 34.83C61.4536 35.1745 61.5341 35.2405 61.9066 35.1402C62.1965 34.8607 62.2933 34.5515 62.3666 34.099ZM59.8625 35.2303C59.8217 35.0767 57.9814 33.6588 57.933 33.7432C57.9208 33.7637 57.9697 33.8789 58.0416 33.9992C58.1903 34.2469 58.1791 34.3089 57.9346 34.5761C57.8383 34.6815 57.771 34.8126 57.7853 34.8663C58.143 35.2764 58.6555 35.3475 59.0284 35.3404C59.2399 35.2871 59.4895 35.2544 59.5838 35.2682C59.7927 35.2989 59.8778 35.2871 59.8625 35.2303ZM47.8655 38.2013C47.8466 38.1302 47.8655 38.0027 47.9098 37.9182C47.9531 37.8338 47.9546 37.735 47.9149 37.6992C47.8324 37.6275 47.2215 37.436 47.143 37.457C47.0044 37.4944 47.3555 38.0549 47.6658 38.2904C47.8079 38.3984 47.9078 38.3539 47.867 38.2013H47.8655ZM45.6176 38.5515C45.6319 38.059 45.8678 37.7247 46.0986 37.3562C46.1867 37.132 46.1826 37.1217 45.907 36.854C45.5504 36.507 44.482 35.9034 44.3928 35.9981C44.351 36.0427 44.4264 36.1476 44.5915 36.2756C45.0164 36.6052 45.2681 37.3813 44.9757 37.4601C44.6562 37.7288 44.3683 38.0001 44.0244 38.2131C43.788 38.2771 43.7697 38.3001 43.8701 38.4076C43.9322 38.4742 43.9842 38.6154 43.9847 38.7209C43.9847 38.9001 44.002 38.9052 44.2277 38.7926C44.6491 38.7055 45.0821 38.7731 45.4311 38.7337C45.5397 38.7122 45.613 38.64 45.6176 38.5509V38.5515ZM60.5569 34.4297C60.5788 34.0662 60.6629 33.6086 60.6593 33.4213C60.6542 33.2339 61.3716 33.4607 61.3716 33.4607C61.7629 33.4822 62.0951 33.4806 62.1093 33.4556C62.1236 33.432 62.0609 33.3409 61.9703 33.2534C61.7053 32.9979 59.9119 31.7714 59.8813 31.8247C59.8661 31.8513 59.9272 31.97 60.0189 32.0888C60.1626 32.2782 60.1743 32.3442 60.1106 32.615C60.0107 33.0389 59.6821 33.6439 59.5043 33.7294C59.2781 33.839 59.4024 34.0253 59.9359 34.378C60.4922 34.7455 60.6451 34.7583 60.5574 34.4287L60.5569 34.4297ZM54.4685 35.5574C54.4889 35.4908 54.6453 35.4345 54.9255 35.3936C55.4029 35.3235 55.4248 35.2666 55.0733 35.0173C54.939 34.9217 54.8131 34.8149 54.6968 34.6979C54.5133 34.4988 54.4114 34.5392 54.145 34.9145C53.8963 35.2646 53.8953 35.3521 54.1368 35.5553C54.3202 35.7099 54.4232 35.7104 54.469 35.5553L54.4685 35.5574ZM63.5298 32.7993C63.3413 32.4656 63.0188 32.5219 63.112 32.8725C63.1538 33.0292 63.2002 33.0512 63.3861 33.0005C63.5711 32.9513 63.596 32.916 63.5298 32.7993ZM55.6118 34.3995C55.4707 33.9613 55.4483 33.7837 55.5089 33.5989C55.5517 33.4678 55.5547 33.3174 55.517 33.2641C55.3489 33.0312 56.5014 32.7845 56.8708 32.9749C57.2483 33.1694 57.0053 32.9104 56.4912 32.5705C55.6464 31.9782 54.7874 31.3358 53.8663 30.9212C53.7236 30.9596 53.4755 31.6399 53.5127 31.8897C53.5346 32.0351 53.4938 32.1697 53.4072 32.2393C53.286 32.3366 53.285 32.4169 53.4021 32.8321C53.5249 33.2641 53.5738 33.3363 53.8877 33.5497C54.5673 34.032 55.1171 34.4599 55.7866 34.9636C55.7866 34.9636 55.7101 34.7092 55.6108 34.3995H55.6118ZM49.3766 36.0324C49.4021 35.9879 49.1779 35.8359 48.8778 35.6946C48.3082 35.2917 47.2735 34.9907 46.9978 34.9713C46.9382 35.2595 47.0335 35.8261 47.2154 36.1266C47.3076 36.1614 47.4375 36.2469 47.5037 36.316C47.6963 36.5172 48.134 36.5131 48.7622 36.3032C49.0745 36.1988 49.3512 36.077 49.3766 36.0329V36.0324ZM63.836 32.1164C63.864 32.0248 63.5981 31.927 63.4875 31.989C63.377 32.0514 63.4605 32.2721 63.4977 32.3074C63.6582 32.4594 63.8085 32.2081 63.8365 32.1164H63.836ZM62.2286 32.3944C62.2153 32.2869 62.2286 32.1584 62.2551 32.1077C62.3468 31.9398 62.2219 31.688 61.981 31.5585L61.744 31.4305C61.5647 31.6214 61.4608 31.8902 61.364 32.1021C61.4302 32.2429 62.1053 32.6852 62.1802 32.636C62.2199 32.6099 62.2413 32.5009 62.2281 32.3944H62.2286ZM51.3845 34.9436C51.1257 34.5167 51.1757 33.9454 51.0738 33.6296L50.8985 33.4725L51.2811 33.498C51.4915 33.5124 51.6938 33.5651 51.731 33.6158C51.81 33.7258 52.6725 33.7591 52.8111 33.6588C52.8636 33.6204 52.8942 33.5446 52.8789 33.4899C52.8432 33.3598 50.9428 32.0888 50.2555 31.7356C49.7664 31.4848 49.717 31.4745 49.718 31.6302C49.718 31.8518 49.9259 32.3233 50.0685 32.4297C50.2092 32.5347 50.6183 32.8976 50.495 33.0594C50.3717 33.2216 48.9074 33.1761 48.35 33.5211C49.3354 34.0422 50.2922 34.7993 51.3382 35.1453C51.4034 35.112 51.4228 35.0286 51.3845 34.9436ZM57.799 32.3125C57.6951 31.8672 57.7002 31.7632 57.8388 31.5093C58.0528 31.1193 58.4787 31.0307 58.9928 31.2698C59.3596 31.4413 59.1752 31.236 58.6351 30.8736C57.6569 30.2163 57.1286 29.9732 56.7622 30.0115L56.4341 30.0458C56.6369 30.6243 56.7831 31.2565 56.8381 31.8349C56.9034 32.3903 57.446 32.5377 57.8948 32.8659C57.9081 32.8433 57.8643 32.5946 57.799 32.313V32.3125ZM62.8736 31.3358C62.6081 31.0655 62.0767 30.7594 62.0054 30.8352C61.878 30.9713 62.0207 31.2928 62.2724 31.4392C62.5679 31.6107 63.0606 31.5257 62.8736 31.3358ZM64.3919 30.8649C64.3836 30.8342 64.3636 30.808 64.3362 30.7921C64.3088 30.7761 64.2762 30.7718 64.2456 30.7799C64.1254 30.8121 64.1173 30.9125 64.2304 30.9775C64.3424 31.0425 64.4245 30.9852 64.3924 30.8649H64.3919ZM59.5899 31.5544C59.4228 31.4623 59.4218 31.4653 59.5553 31.6143C59.6327 31.6998 59.7112 31.7433 59.73 31.7105C59.7489 31.6778 59.6857 31.6071 59.5899 31.5544ZM60.2543 30.721C60.1799 30.4067 60.0602 30.3335 59.8182 30.1503C59.6796 30.3192 59.5369 30.4845 59.3953 30.6509C59.3652 30.6801 59.8284 31.1321 60.0342 31.2749C60.1819 31.3773 60.1911 31.3727 60.2314 31.1802C60.2543 31.0696 60.265 30.8628 60.2543 30.721ZM63.2909 30.2506C63.3072 30.0909 62.9098 29.6885 62.7722 29.7254C62.7161 29.7408 62.6479 29.8227 62.6219 29.9081C62.5837 30.0325 62.6306 30.0975 62.8603 30.2378C63.1813 30.4333 63.271 30.4359 63.2903 30.2506H63.2909ZM46.1582 34.6928C46.1837 34.4502 45.5009 34.1681 45.1295 34.2679C44.9599 34.314 44.8676 34.7952 45.0164 34.8592C45.3812 35.0173 46.1358 34.9068 46.1582 34.6928ZM64.0031 29.7152C63.9909 29.6691 62.9317 29.061 62.8853 29.0732C62.8731 29.0784 62.87 29.1782 62.8787 29.2985C62.9036 29.6394 63.3841 29.8616 63.917 29.7797C63.9715 29.771 64.0103 29.7418 64.0031 29.7152ZM65.0012 29.1255C64.9971 29.1102 64.9901 29.0959 64.9805 29.0834C64.9709 29.0708 64.959 29.0603 64.9454 29.0524C64.9317 29.0445 64.9167 29.0394 64.9011 29.0374C64.8855 29.0353 64.8697 29.0364 64.8545 29.0405C64.7342 29.0727 64.7261 29.1736 64.8392 29.2386C64.9513 29.3036 65.0333 29.2463 65.0012 29.126V29.1255ZM60.5804 29.8769C60.5712 29.8431 60.3674 29.7039 60.1269 29.5672C59.6989 29.3246 59.6903 29.3236 59.7433 29.5217C59.7784 29.6532 59.8992 29.7725 60.0877 29.8611C60.3694 29.9936 60.6135 30.0013 60.5804 29.8774V29.8769ZM63.781 28.4119C63.7806 28.2949 63.7527 28.1796 63.6995 28.0756C63.6179 27.9297 63.6337 27.9102 63.8472 27.8851C64.1896 27.8452 64.0887 27.6302 63.6842 27.5381C63.5161 27.4997 63.1686 27.2658 62.9801 27.427C62.6876 27.6768 63.0122 28.2209 63.3973 28.4498C63.7219 28.6422 63.7708 28.6376 63.781 28.4119ZM54.9118 30.2849C54.8557 30.073 54.8465 29.8165 54.8893 29.686C55.005 29.3328 54.8374 29.2969 53.9962 29.4899C52.9691 29.7264 52.9762 29.8093 54.0798 30.4359C55.0172 30.9688 55.0886 30.956 54.9118 30.2849ZM61.151 28.9826C61.1367 28.8598 60.9487 28.7272 60.4403 28.4825C59.567 28.0617 59.4656 27.9773 59.4315 27.641C59.3983 27.3072 59.2699 27.2335 58.4558 27.0804C57.633 26.9259 57.4827 26.9233 57.5204 27.0656C57.4935 27.3143 57.4855 27.5646 57.4964 27.8145C57.5881 27.9415 58.3987 28.265 59.193 28.4922C59.4804 28.5742 59.9308 28.7549 60.1947 28.8941C60.9487 29.2918 61.1897 29.3138 61.1515 28.9832L61.151 28.9826ZM51.7137 30.9739C51.6989 30.9196 51.784 30.7958 51.9022 30.6985C52.1177 30.5214 52.2537 30.2429 52.1534 30.1846C51.9598 30.072 49.5091 30.5096 49.4154 30.6734C49.3323 30.8178 51.0906 31.8349 51.3168 31.774C51.5573 31.5518 51.623 31.2785 51.7142 30.9744L51.7137 30.9739ZM57.8643 29.4756C57.9336 29.2637 57.9259 29.2452 57.7206 29.1321C57.5343 29.0393 57.3411 28.9611 57.1428 28.8982C56.8043 28.784 56.4688 28.6611 56.1366 28.5296C55.4182 28.2471 54.068 27.8539 53.7695 27.8401L53.5759 27.8314L53.7812 28.3863C53.906 28.7231 54.0385 28.9627 54.119 28.9965C54.1913 29.0267 54.5016 29.0487 54.8078 29.0451C55.5721 29.0359 56.5554 29.2381 57.1158 29.5201C57.3726 29.6496 57.6299 29.7428 57.687 29.7274C57.744 29.7121 57.8245 29.599 57.8643 29.4756ZM64.9605 27.2304C64.9783 27.059 64.6002 26.6848 64.5401 26.7989C64.5141 26.8475 64.4005 27.2033 64.3975 27.3067C64.3924 27.447 64.7021 27.4961 64.7944 27.4715C64.8621 27.4531 64.9533 27.3006 64.9605 27.2304ZM61.2947 28.1375C61.1428 27.9809 60.214 27.6374 60.0566 27.6799C59.8003 27.749 60.0092 28.052 60.3241 28.0679C60.4729 28.0756 60.7108 28.1309 60.8519 28.1907C61.1556 28.3192 61.4378 28.2854 61.2952 28.1375H61.2947ZM57.8663 28.6729C57.8317 28.5429 57.2417 28.2445 56.7531 28.1099C55.8859 27.7792 55.0126 27.5591 54.1119 27.3047C53.9775 27.2492 53.8357 27.214 53.691 27.2002C53.5315 27.1936 53.5076 27.2156 53.5585 27.3226C54.8083 27.8677 56.2166 28.2163 57.4643 28.7119C57.7287 28.8173 57.9004 28.8009 57.8668 28.6729H57.8663ZM53.1265 29.3655C53.2386 29.2596 53.232 29.2447 53.0129 29.129C52.5161 28.8654 52.4407 28.7472 52.3607 28.1063C52.2965 27.5882 52.267 27.5033 52.1162 27.405C51.8767 27.2499 51.7361 27.3108 51.6933 27.5893C51.5486 28.0254 51.4875 28.4887 51.5216 28.868C51.5827 29.0185 51.6566 29.1552 51.6846 29.1715C51.7137 29.1879 51.7045 29.3005 51.6653 29.4208C51.5236 29.8523 51.813 29.9174 52.5931 29.6307C52.8208 29.5467 53.0608 29.4275 53.1265 29.3655ZM50.1979 29.816C50.0043 29.0323 50.1062 28.2384 50.4527 27.6901C49.9707 27.4157 49.369 27.1414 49.0781 26.8291C48.7688 26.3377 48.5762 26.5522 48.0642 26.7216V27.6C48.4652 27.7444 48.8712 28.0136 48.8376 28.3269C48.804 28.6407 48.7174 29.0891 48.4147 29.448C48.2196 29.6793 48.1304 29.7269 47.8324 29.7602C47.6388 29.7817 47.4019 29.7607 47.3061 29.7141C47.0972 29.6118 46.7915 29.2289 46.7278 28.9908C46.7023 28.8961 46.5958 28.7743 46.4909 28.7206C46.3712 28.6591 46.2733 28.5235 46.2295 28.3602C46.1913 28.2158 46.0532 27.9793 45.9223 27.8334C45.6594 27.5401 45.4795 27.5468 45.0246 27.8642C44.724 28.0751 44.726 28.2706 45.0312 28.3714C45.2656 28.4492 45.3736 28.6325 45.2839 28.8009C45.263 29.8667 45.2493 29.9194 45.7017 29.968C47.1914 30.1165 48.4412 30.2624 49.8744 30.0796C50.1444 30.0146 50.1944 29.9737 50.1944 29.816H50.1979ZM62.2658 26.6044C62.2209 26.437 59.0947 25.2202 59.0254 25.341C59.0091 25.3682 60.2344 26.0587 60.614 26.2512C60.993 26.4442 61.7216 26.8568 61.7461 26.9489C61.8072 27.1767 61.7766 26.8025 62.0569 26.7267C62.1807 26.6935 62.2744 26.6382 62.2658 26.6039V26.6044ZM62.6092 26.0198C62.5368 25.9686 61.9957 25.9185 61.9804 25.9456C61.9652 25.9727 62.5704 26.3577 62.6428 26.4088C62.7141 26.46 62.8364 26.4196 62.8517 26.3925C62.867 26.3653 62.681 26.0705 62.6092 26.0193V26.0198ZM59.9486 26.2225C59.8334 25.79 57.8745 25.4378 57.3502 25.6748C57.0231 25.8222 56.6736 26.1898 56.8662 26.2942C57.0343 26.3848 57.7323 26.3013 58.9836 26.6423C60.2349 26.9837 61.7986 27.858 61.8974 27.899C62.1481 28.0013 61.6717 27.341 61.6172 27.1362L59.9486 26.2225ZM62.6713 25.6512C63.0702 25.2904 62.2938 25.1516 61.7461 25.1368C61.2784 25.124 59.9094 25.1573 59.9201 25.1992C59.9369 25.2622 61.6844 25.7731 62.0436 25.8151C62.576 25.877 62.7212 25.8391 62.6713 25.6512ZM55.8192 26.9346C55.7213 26.6602 55.6933 26.6459 54.9622 26.4928C54.1159 26.3162 53.5509 26.3515 53.4424 26.588C53.3476 26.7948 53.4475 26.8573 53.9075 26.8844C54.5429 26.9561 55.1573 27.1782 55.7799 27.2509C55.8956 27.2238 55.9022 27.168 55.8192 26.9346ZM55.9139 25.9927C55.8324 25.6871 55.6286 25.6354 54.8501 25.7224C53.9289 25.8248 53.9493 25.8207 54.0125 25.9169C54.0405 25.9599 54.1959 26.0075 54.3569 26.0229C54.5184 26.0382 54.899 26.0792 55.2027 26.1119C55.8757 26.1862 55.9618 26.1713 55.9139 25.9927ZM59.7978 24.931C59.7601 24.8952 59.6195 24.8967 59.4839 24.9361C59.2975 24.9873 59.271 25.0139 59.3744 25.0472C59.5532 25.1056 59.8849 25.0165 59.7973 24.9336L59.7978 24.931ZM59.1354 24.9848C59.1303 24.9402 59.0249 24.9192 58.8965 24.9387C58.6891 24.9694 58.6784 24.9848 58.8007 25.0713C58.9459 25.1742 59.1451 25.1225 59.1354 24.9842V24.9848ZM51.838 26.7994C51.8134 26.6796 51.8222 26.5552 51.8635 26.4401C51.9857 26.1381 51.9144 26.0807 51.3738 26.0459C50.7599 26.0065 50.6157 26.0357 50.5327 26.2174C50.4425 26.414 50.7406 26.6551 51.3071 26.844C51.8635 27.0298 51.8991 27.0272 51.8385 26.7994H51.838ZM57.4485 24.7861C57.5555 24.6531 57.526 24.6403 57.1005 24.631C56.4479 24.6172 56.1488 24.7078 56.2008 24.9029C56.616 25.1378 56.7953 25.0042 57.286 24.93C57.3115 24.93 57.3843 24.866 57.4485 24.7861ZM55.1441 25.015C55.1757 24.911 55.1879 24.8184 55.1711 24.8092C53.2748 24.8143 51.1935 25.1342 50.2397 25.425C49.286 25.7157 49.1458 25.7536 48.9395 25.7767C48.7337 25.7992 48.5431 25.8401 48.5166 25.8678C48.3526 26.0377 48.6664 26.0111 50.0334 25.7383C51.384 25.4685 51.5822 25.4465 51.7076 25.5524C51.9328 25.7418 53.342 25.6251 54.6596 25.3073C55.0162 25.2213 55.0957 25.1731 55.1436 25.015H55.1441Z" fill="#216B8B"/>
<path d="M23.1494 24.9177C18.9441 24.3782 14.8712 23.3421 10.4366 24.4437C5.25453 26.2031 7.43821 29.5928 7.55641 30.442C9.37937 34.357 12.9326 40.5181 18.081 39.4647C15.3735 47.8863 20.3752 51.1333 24.526 52.5568C28.8924 52.9049 31.1836 52.3034 32.8827 50.6946C34.2854 49.3667 35.3385 47.3995 36.3478 44.3005C36.2887 43.9453 36.3427 41.9765 35.0231 41.0961C34.7419 40.9087 34.0041 37.8102 33.7137 37.692C33.3102 37.5272 32.7615 39.1596 32.3809 39.2057C31.6243 39.2973 31.1759 37.8599 31.369 36.7614C31.5183 35.9121 33.4126 34.0473 32.6764 33.8221C32.2535 33.6921 31.3329 33.2989 31.0852 33.2324C30.4448 33.0599 29.2837 33.2974 31.2467 31.7863C31.4633 31.6199 29.1772 32.6406 28.926 32.5029C28.2881 32.1543 29.032 30.8772 28.5678 31.1423C26.4606 32.3453 25.6459 32.3176 26.056 31.0834C26.1493 30.8034 26.5971 30.6586 27.5881 30.6606C29.3881 30.6657 32.1735 31.0333 32.1256 30.7896C31.9549 29.9322 29.0391 30.2301 29.7983 28.9335C30.0581 28.4892 35.7924 29.9583 35.7257 29.3154C28.4298 26.6054 28.2464 26.5957 23.1494 24.9177ZM26.7276 51.5873C26.5594 51.445 26.4458 51.2935 26.4743 51.25C26.5584 51.122 28.0874 51.1978 28.1699 51.3421C28.2107 51.4128 27.5687 51.9835 27.0924 51.8622C27.0592 51.8535 26.8952 51.7296 26.7276 51.5873ZM23.155 50.0122C23.2136 49.9784 24.4491 50.4826 24.4863 50.5461C24.5266 50.6157 24.0201 50.9981 23.908 50.9679C23.1234 50.7749 23.1601 50.4366 23.155 50.0122ZM25.8614 48.173C25.9883 46.2851 26.2334 44.9097 26.5217 44.4684C26.7143 44.1731 26.9079 43.4922 27.1739 43.7927C27.2595 45.1646 28.3523 44.2534 28.6713 44.5641C28.5831 44.8201 28.4598 46.9506 28.522 47.1748C28.1501 46.7929 27.6569 46.4208 27.2615 46.3532C26.8666 46.2856 26.6501 46.4622 26.3964 46.6184C26.1529 46.8349 26.1009 46.9311 26.0545 47.2557C26.0036 48.172 26.2517 48.5574 27.0185 48.6122C27.7853 48.6665 28.148 47.957 28.5419 47.5254C28.5536 48.4709 28.6539 50.0388 28.7941 50.9142C28.1429 50.2113 27.7965 49.6191 27.0873 49.6406C26.3786 49.6626 25.9913 50.3219 25.7575 50.5994L25.7524 50.241C25.7473 50.0445 25.7982 49.1138 25.8614 48.173ZM29.7387 51.2541C29.5614 51.0068 29.2572 50.7729 29.7157 50.8292C29.9027 50.8522 31.3543 50.5988 31.5305 50.6188C31.8327 50.6531 31.4032 51.1947 31.1061 51.3708C30.8091 51.5464 30.751 51.6866 30.2899 51.5622C29.9995 51.4844 29.839 51.3943 29.7381 51.2541H29.7387ZM21.143 48.8958C20.9632 48.7309 20.5617 48.4284 20.6641 48.3685C20.9469 48.4289 22.2384 48.7606 21.8257 48.9388C21.6744 49.0263 21.3708 49.1041 21.143 48.8958ZM23.3456 48.1587C23.4576 47.8244 23.5646 47.5024 23.583 47.4435C23.6085 47.3606 23.6431 47.378 23.7328 47.5178C23.9213 47.8106 24.4838 48.0215 24.9066 47.958L25.2633 47.9042C25.2556 48.4509 25.1165 49.0836 25.034 49.4845C24.8929 49.0637 24.5541 48.9096 24.0746 48.7852C23.5957 48.6608 23.4429 48.8477 23.1606 48.9787C23.1504 48.8625 23.233 48.4939 23.3456 48.1592V48.1587ZM29.0249 49.9503C28.9892 49.3258 28.9454 48.82 28.927 48.1576C29.1706 48.2421 29.4253 48.4254 29.6903 48.5395C30.377 48.5927 30.6889 48.5641 30.8835 48.4294L31.5417 47.4727C31.7736 47.1359 31.8352 48.4525 31.9819 48.9424C32.1063 49.357 32.2622 50.325 32.1414 50.5031C31.4903 49.8612 30.7989 49.291 30.161 49.1328C29.6036 49.1154 29.1023 50.2625 29.0249 49.9508V49.9503ZM19.1173 46.2539C19.0113 46.0056 19.0409 45.7154 19.1682 45.7497C19.21 45.7609 19.4688 45.8321 19.5096 45.9575C19.6686 46.2309 19.664 46.5319 19.7969 46.8052C19.7776 46.8769 19.4709 46.9859 19.3618 46.9598C19.209 46.7637 19.1876 46.4971 19.1173 46.2534V46.2539ZM21.1481 46.365C21.3254 45.9079 21.5888 45.3351 21.7325 45.0919L21.9944 44.6496C21.8594 45.3381 21.921 45.8679 22.3434 46.0599C22.7658 46.2513 23.2844 45.9913 23.6049 45.8516C23.5871 45.9181 23.3155 46.6818 23.3771 46.7422C23.2411 47.3166 23.2029 47.3985 23.1387 47.874C23.1331 47.9559 22.7612 48.261 22.7056 48.3102C22.619 48.3875 22.4417 47.6493 22.3872 47.527C22.2038 47.1154 21.4895 46.9061 21.0982 47.1497C20.9769 47.2255 20.8659 47.2669 20.8516 47.2419C20.8373 47.2163 20.9708 46.8221 21.1481 46.3655V46.365ZM32.8893 44.6297C32.9648 44.5406 32.8129 46.1735 32.736 46.2805C32.7136 46.3117 32.3029 46.8861 32.3712 47.4799C32.4395 48.0732 32.5837 48.3875 33.0539 48.473C33.085 48.9434 32.6173 49.6918 32.6056 49.6467C31.8607 47.4958 31.7099 44.062 32.0737 44.4459C32.3386 45.0039 32.5347 45.0469 32.8888 44.6292L32.8893 44.6297ZM34.0148 46.9521C33.8131 46.2913 33.0916 46.3199 33.061 46.3036C32.9495 46.0015 33.2704 44.9982 33.383 44.2964C33.4951 43.5946 34.3485 45.3417 34.4392 45.8249C34.5299 46.3076 34.698 47.1431 34.6945 47.7665C34.5951 47.9247 34.0433 49.0642 33.9471 48.9736C33.9471 48.9736 33.6821 49.1072 33.677 48.711C33.6719 48.2928 34.2166 47.6135 34.0148 46.9521ZM21.2969 44.2944C21.7768 44.5263 21.0269 45.1011 20.7762 44.9547C20.3248 44.386 20.8169 44.0625 21.2969 44.2944ZM18.3001 44.2626C18.1258 44.0671 18.137 43.8772 18.1299 43.6284C18.111 43.4892 18.1248 43.4928 18.3918 43.699C18.6674 43.9125 18.7581 44.1971 18.5981 44.3481C18.5089 44.4326 18.5028 44.4311 18.2995 44.2626H18.3001ZM24.5632 44.5324C24.7212 44.2027 24.9107 43.9284 24.9443 43.8787C25.5547 42.9798 25.9292 43.1713 26.1284 43.5404C26.4219 44.083 25.6525 44.9926 25.5685 45.4548C25.518 45.7323 25.4263 46.2416 25.3769 46.257C25.329 46.2713 25.2546 45.7046 24.7533 45.6273C24.2519 45.5506 24.2988 45.7502 23.9391 46.0461L24.2158 45.4564C24.2927 45.2915 24.4058 44.8616 24.5632 44.5324ZM34.9197 45.6816C34.6975 44.9547 34.4102 43.3039 34.4672 43.0878C34.4306 42.7213 34.4041 42.3134 34.4326 42.0456C34.5804 41.866 34.7149 41.8516 34.6695 42.0205C34.7368 42.4147 34.8845 42.813 34.9778 43.1861C35.0939 43.7594 35.1958 43.8951 35.3313 43.656C35.4648 43.4206 35.5657 43.6115 35.4791 43.9355C35.4368 44.0942 35.4348 44.3133 35.474 44.4234C35.5769 44.708 35.2926 46.1392 35.1418 46.0942C35.0832 46.0768 34.9829 45.891 34.9187 45.6816H34.9197ZM19.5514 44.3225C19.8922 43.6827 19.7144 43.9709 20.4516 42.9036C20.954 42.0523 23.986 37.821 24.821 39.0843L25.1008 39.5123C23.9962 40.6087 23.0857 42.0185 22.0968 42.9025C21.9047 42.4623 21.6428 42.4685 21.4319 42.4224C20.9902 42.5053 20.6901 42.8355 20.5403 43.4032C20.47 43.6694 20.4308 43.9468 20.4532 44.0185C20.5077 44.1951 20.309 44.3988 20.1286 44.3502C20.0827 44.3407 20.0353 44.3404 19.9892 44.3494C19.9431 44.3584 19.8993 44.3764 19.8601 44.4024C19.6981 44.5176 19.5121 44.4694 19.5514 44.3225ZM28.8873 45.5475C28.9026 45.3008 28.8491 45.0248 28.9067 44.8119C28.9642 44.5995 29.1033 43.3504 29.1288 43.2506C30.1977 43.6084 30.4688 43.7779 31.3619 43.8219C31.3925 45.4308 31.5479 46.5795 31.7073 46.9833C31.3639 47.0192 30.8769 46.149 30.2043 46.1167C29.5318 46.0845 29.356 46.5841 29.1558 47.3842C28.7951 47.2378 28.8419 46.3199 28.8873 45.5475ZM35.6916 44.7233C35.6482 44.6292 35.6732 44.537 35.7863 44.3701C35.9657 44.105 36.0375 44.1843 36.0039 44.6087C35.9845 44.8493 35.9555 44.9066 35.8648 44.8825C35.8016 44.8656 35.7237 44.794 35.6916 44.7239V44.7233ZM23.4408 43.4672C23.2177 43.4016 22.8121 43.5183 22.5579 43.6786C22.6481 43.5567 23.1423 42.749 23.3542 42.4413C23.9096 41.5547 25.2618 40.2387 25.7254 39.8726C25.7193 40.596 25.812 40.4746 26.1085 40.9819C26.1992 41.1396 25.733 41.4851 24.9291 42.7408C24.6926 43.1104 24.4853 43.4636 24.468 43.526C24.4384 43.6335 24.0278 44.2391 23.9906 44.2294C23.8877 43.8316 23.664 43.5332 23.4403 43.4672H23.4408ZM20.1251 41.7114C20.0909 41.5025 19.9916 41.4339 19.9498 41.5911C19.905 41.7585 19.7282 41.8158 19.5397 41.7242C19.3965 41.6545 19.3736 41.5895 19.423 41.3945C19.465 41.2277 19.5055 41.0605 19.5442 40.8928C20.1908 39.5752 21.3983 38.4378 22.3159 37.4775C22.537 37.241 22.8335 36.9758 22.9757 36.8883C23.2243 36.7353 23.2411 36.7363 23.4317 36.9108C23.61 37.0736 23.6492 37.0849 23.8301 37.0183C24.1373 36.9057 24.253 36.9789 24.3992 37.3751C24.5515 37.7887 24.5097 37.8676 23.9906 38.1481C22.6628 38.8683 21.9796 40.0933 21.0712 41.2051C20.6804 41.6832 20.3171 42.0026 20.2264 41.9458C20.1877 41.9212 20.1419 41.8163 20.1245 41.7119L20.1251 41.7114ZM25.8991 42.5611C25.7646 42.3461 26.0953 41.6397 26.5289 41.0577C26.7551 40.7536 26.9772 40.4818 27.0236 40.4531C27.423 40.6139 27.6676 40.941 27.8994 41.2317C28.2576 41.7446 28.2153 41.8752 27.5509 42.3093C27.3471 42.4843 26.8784 43.009 26.7021 43.1436C26.4708 43.1385 25.9796 42.6901 25.8991 42.5611ZM19.7363 39.7477C20.3141 38.9799 21.0207 38.2888 21.7238 37.6572C21.1802 38.4823 20.2845 39.2819 19.7256 39.9627C19.6472 40.0738 19.5672 40.1363 19.5473 40.1025C19.5284 40.0687 19.613 39.909 19.7358 39.7477H19.7363ZM28.8333 40.1839C28.8547 40.1035 28.9061 40.0467 28.9469 40.0574C29.0386 40.082 29.1181 40.3963 29.0432 40.4398C28.9362 40.5013 28.7951 40.3287 28.8333 40.1839ZM15.7292 38.2274C15.7088 37.8686 15.7465 37.8343 15.9788 38.0027C16.2738 38.2172 16.205 38.6513 15.8897 38.5663C15.7929 38.5407 15.7404 38.4286 15.7292 38.2274ZM17.7101 38.401C17.6795 38.2597 17.6163 38.1194 17.57 38.0887C17.5241 38.058 17.49 37.8686 17.4951 37.6674C17.5037 37.3203 17.49 37.2978 17.2342 37.2308C17.0859 37.1919 16.8623 37.1606 16.7374 37.1612C16.4608 37.1612 16.471 37.0547 16.7695 36.8269C17.0758 36.5868 17.333 36.3662 17.6296 36.1143L17.8125 36.4553C18.0672 36.9308 18.2272 37.0117 18.7306 36.9221C19.0755 36.8602 19.18 36.7992 19.3027 36.5904C19.3853 36.4491 19.4704 36.2705 19.4913 36.1932C19.5432 36.0002 20.3859 35.5482 20.5867 35.6055C20.8531 35.7744 20.9657 35.991 21.1354 36.2541C20.4287 36.9119 19.557 37.3362 18.8039 37.9484C18.5405 38.0959 18.3092 38.3073 18.1085 38.4593C17.8838 38.7521 17.7834 38.7373 17.7101 38.401ZM13.95 37.1699C13.9709 37.0931 14.1859 36.53 14.4442 36.6682C14.7025 36.8064 14.702 37.1309 14.4799 37.2722C14.2572 37.414 13.9296 37.2466 13.95 37.1699ZM13.5236 36.3989C13.4747 36.206 13.4573 36.0268 13.4849 36.0012C13.5674 35.9234 14.082 36.1834 14.1482 36.336C14.1971 36.4486 14.1727 36.5192 14.0331 36.6733C13.8007 36.9293 13.6357 36.8412 13.5236 36.3989ZM19.5712 37.9203C23.099 35.4827 17.7865 38.8791 22.0036 36.316C22.243 36.1246 22.4835 36.1113 22.4351 36.293C21.5272 36.9103 20.6356 37.6546 19.5718 37.9203H19.5712ZM15.667 36.5331C15.7124 36.4041 15.7129 36.1655 15.667 36.0033C15.6125 35.4837 15.8367 35.3777 16.231 35.0419C16.4715 34.9431 16.6687 35.0194 16.6223 35.1929C16.5739 35.3736 16.8623 35.7842 17.0258 35.7673C17.0921 35.7601 17.0386 35.8374 16.9015 35.9449C16.5785 36.2285 16.2224 36.4844 15.884 36.7317C15.6701 36.9134 15.5656 36.8177 15.6665 36.5325L15.667 36.5331ZM26.5431 39.3546C26.4764 39.1499 26.43 38.9497 26.4412 38.9093C26.4738 38.7864 26.913 38.4665 27.0119 38.4931C27.1178 38.5218 26.9966 39.4503 26.8616 39.6362C26.7332 39.8143 26.6776 39.7652 26.5431 39.3546ZM11.6334 34.099C12.0012 34.1517 12.2621 34.5454 12.471 34.83C12.5464 35.1745 12.4659 35.2405 12.0934 35.1402C11.8035 34.8607 11.7067 34.5515 11.6334 34.099ZM14.1375 35.2303C14.1783 35.0767 16.0186 33.6588 16.067 33.7432C16.0792 33.7637 16.0303 33.8789 15.9584 33.9992C15.8097 34.2469 15.8209 34.3089 16.0654 34.5761C16.1617 34.6815 16.229 34.8126 16.2147 34.8663C15.857 35.2764 15.3445 35.3475 14.9716 35.3404C14.7601 35.2871 14.5105 35.2544 14.4162 35.2682C14.2073 35.2989 14.1222 35.2871 14.1375 35.2303ZM26.1345 38.2013C26.1534 38.1302 26.1345 38.0027 26.0902 37.9182C26.0469 37.8338 26.0454 37.735 26.0851 37.6992C26.1676 37.6275 26.7785 37.436 26.857 37.457C26.9956 37.4944 26.6445 38.0549 26.3342 38.2904C26.1921 38.3984 26.0922 38.3539 26.133 38.2013H26.1345ZM28.3824 38.5515C28.3681 38.059 28.1322 37.7247 27.9014 37.3562C27.8133 37.132 27.8174 37.1217 28.093 36.854C28.4496 36.507 29.518 35.9034 29.6072 35.9981C29.649 36.0427 29.5736 36.1476 29.4085 36.2756C28.9836 36.6052 28.7319 37.3813 29.0243 37.4601C29.3438 37.7288 29.6317 38.0001 29.9756 38.2131C30.212 38.2771 30.2303 38.3001 30.1299 38.4076C30.0678 38.4742 30.0158 38.6154 30.0153 38.7209C30.0153 38.9001 29.998 38.9052 29.7723 38.7926C29.3509 38.7055 28.9179 38.7731 28.5689 38.7337C28.4603 38.7122 28.387 38.64 28.3824 38.5509V38.5515ZM13.4431 34.4297C13.4212 34.0662 13.3371 33.6086 13.3407 33.4213C13.3458 33.2339 12.6284 33.4607 12.6284 33.4607C12.2371 33.4822 11.9049 33.4806 11.8907 33.4556C11.8764 33.432 11.9391 33.3409 12.0297 33.2534C12.2947 32.9979 14.0881 31.7714 14.1187 31.8247C14.1339 31.8513 14.0728 31.97 13.9811 32.0888C13.8374 32.2782 13.8257 32.3442 13.8894 32.615C13.9893 33.0389 14.3179 33.6439 14.4957 33.7294C14.7219 33.839 14.5976 34.0253 14.0641 34.378C13.5078 34.7455 13.3549 34.7583 13.4426 34.4287L13.4431 34.4297ZM19.5315 35.5574C19.5111 35.4908 19.3547 35.4345 19.0745 35.3936C18.5971 35.3235 18.5752 35.2666 18.9267 35.0173C19.061 34.9217 19.1869 34.8149 19.3032 34.6979C19.4867 34.4988 19.5886 34.5392 19.855 34.9145C20.1037 35.2646 20.1047 35.3521 19.8632 35.5553C19.6798 35.7099 19.5768 35.7104 19.531 35.5553L19.5315 35.5574ZM10.4702 32.7993C10.6587 32.4656 10.9812 32.5219 10.888 32.8725C10.8462 33.0292 10.7998 33.0512 10.6139 33.0005C10.4289 32.9513 10.404 32.916 10.4702 32.7993ZM18.3882 34.3995C18.5293 33.9613 18.5517 33.7837 18.4911 33.5989C18.4483 33.4678 18.4453 33.3174 18.483 33.2641C18.6511 33.0312 17.4986 32.7845 17.1292 32.9749C16.7517 33.1694 16.9947 32.9104 17.5088 32.5705C18.3536 31.9782 19.2126 31.3358 20.1337 30.9212C20.2764 30.9596 20.5245 31.6399 20.4873 31.8897C20.4654 32.0351 20.5062 32.1697 20.5928 32.2393C20.714 32.3366 20.715 32.4169 20.5979 32.8321C20.4751 33.2641 20.4262 33.3363 20.1123 33.5497C19.4327 34.032 18.8829 34.4599 18.2134 34.9636C18.2134 34.9636 18.2899 34.7092 18.3892 34.3995H18.3882ZM24.6234 36.0324C24.5979 35.9879 24.8221 35.8359 25.1222 35.6946C25.6918 35.2917 26.7265 34.9907 27.0022 34.9713C27.0618 35.2595 26.9665 35.8261 26.7846 36.1266C26.6924 36.1614 26.5625 36.2469 26.4963 36.316C26.3037 36.5172 25.866 36.5131 25.2378 36.3032C24.9255 36.1988 24.6488 36.077 24.6234 36.0329V36.0324ZM10.164 32.1164C10.136 32.0248 10.4019 31.927 10.5125 31.989C10.623 32.0514 10.5395 32.2721 10.5023 32.3074C10.3418 32.4594 10.1915 32.2081 10.1635 32.1164H10.164ZM11.7714 32.3944C11.7847 32.2869 11.7714 32.1584 11.7449 32.1077C11.6532 31.9398 11.7781 31.688 12.019 31.5585L12.256 31.4305C12.4353 31.6214 12.5392 31.8902 12.636 32.1021C12.5698 32.2429 11.8947 32.6852 11.8198 32.636C11.7801 32.6099 11.7587 32.5009 11.7719 32.3944H11.7714ZM22.6155 34.9436C22.8743 34.5167 22.8243 33.9454 22.9262 33.6296L23.1015 33.4725L22.7189 33.498C22.5085 33.5124 22.3062 33.5651 22.269 33.6158C22.19 33.7258 21.3275 33.7591 21.1889 33.6588C21.1364 33.6204 21.1058 33.5446 21.1211 33.4899C21.1568 33.3598 23.0572 32.0888 23.7445 31.7356C24.2336 31.4848 24.283 31.4745 24.282 31.6302C24.282 31.8518 24.0741 32.3233 23.9315 32.4297C23.7908 32.5347 23.3817 32.8976 23.505 33.0594C23.6283 33.2216 25.0926 33.1761 25.65 33.5211C24.6646 34.0422 23.7078 34.7993 22.6618 35.1453C22.5966 35.112 22.5772 35.0286 22.6155 34.9436ZM16.201 32.3125C16.3049 31.8672 16.2998 31.7632 16.1612 31.5093C15.9472 31.1193 15.5213 31.0307 15.0072 31.2698C14.6404 31.4413 14.8248 31.236 15.3649 30.8736C16.3431 30.2163 16.8714 29.9732 17.2378 30.0115L17.5659 30.0458C17.3631 30.6243 17.2169 31.2565 17.1619 31.8349C17.0966 32.3903 16.554 32.5377 16.1052 32.8659C16.0919 32.8433 16.1357 32.5946 16.201 32.313V32.3125ZM11.1264 31.3358C11.3919 31.0655 11.9233 30.7594 11.9946 30.8352C12.122 30.9713 11.9793 31.2928 11.7276 31.4392C11.4321 31.6107 10.9394 31.5257 11.1264 31.3358ZM9.60813 30.8649C9.61637 30.8342 9.63639 30.808 9.66379 30.7921C9.69119 30.7761 9.72375 30.7718 9.75435 30.7799C9.8746 30.8121 9.88275 30.9125 9.76964 30.9775C9.65755 31.0425 9.57553 30.9852 9.60762 30.8649H9.60813ZM14.4101 31.5544C14.5772 31.4623 14.5782 31.4653 14.4447 31.6143C14.3673 31.6998 14.2888 31.7433 14.27 31.7105C14.2511 31.6778 14.3143 31.6071 14.4101 31.5544ZM13.7457 30.721C13.8201 30.4067 13.9398 30.3335 14.1818 30.1503C14.3204 30.3192 14.4631 30.4845 14.6047 30.6509C14.6348 30.6801 14.1716 31.1321 13.9658 31.2749C13.8181 31.3773 13.8089 31.3727 13.7686 31.1802C13.7457 31.0696 13.735 30.8628 13.7457 30.721ZM10.7091 30.2506C10.6928 30.0909 11.0902 29.6885 11.2278 29.7254C11.2839 29.7408 11.3521 29.8227 11.3781 29.9081C11.4163 30.0325 11.3694 30.0975 11.1397 30.2378C10.8187 30.4333 10.729 30.4359 10.7097 30.2506H10.7091ZM27.8418 34.6928C27.8163 34.4502 28.4991 34.1681 28.8705 34.2679C29.0401 34.314 29.1324 34.7952 28.9836 34.8592C28.6188 35.0173 27.8642 34.9068 27.8418 34.6928ZM9.99688 29.7152C10.0091 29.6691 11.0683 29.061 11.1147 29.0732C11.1269 29.0784 11.13 29.1782 11.1213 29.2985C11.0964 29.6394 10.6159 29.8616 10.083 29.7797C10.0285 29.771 9.98974 29.7418 9.99688 29.7152ZM8.99878 29.1255C9.00286 29.1102 9.00989 29.0959 9.01947 29.0834C9.02905 29.0708 9.041 29.0603 9.05462 29.0524C9.06825 29.0445 9.08329 29.0394 9.09889 29.0374C9.11448 29.0353 9.13033 29.0364 9.14551 29.0405C9.26575 29.0727 9.27391 29.1736 9.1608 29.2386C9.04871 29.3036 8.96668 29.2463 8.99878 29.126V29.1255ZM13.4196 29.8769C13.4288 29.8431 13.6326 29.7039 13.8731 29.5672C14.3011 29.3246 14.3097 29.3236 14.2567 29.5217C14.2216 29.6532 14.1008 29.7725 13.9123 29.8611C13.6306 29.9936 13.3865 30.0013 13.4196 29.8774V29.8769ZM10.219 28.4119C10.2194 28.2949 10.2473 28.1796 10.3005 28.0756C10.3821 27.9297 10.3663 27.9102 10.1528 27.8851C9.8104 27.8452 9.91128 27.6302 10.3158 27.5381C10.4839 27.4997 10.8314 27.2658 11.0199 27.427C11.3124 27.6768 10.9878 28.2209 10.6027 28.4498C10.2781 28.6422 10.2292 28.6376 10.219 28.4119ZM19.0882 30.2849C19.1443 30.073 19.1535 29.8165 19.1107 29.686C18.995 29.3328 19.1626 29.2969 20.0038 29.4899C21.0309 29.7264 21.0238 29.8093 19.9202 30.4359C18.9828 30.9688 18.9114 30.956 19.0882 30.2849ZM12.849 28.9826C12.8633 28.8598 13.0513 28.7272 13.5597 28.4825C14.433 28.0617 14.5344 27.9773 14.5685 27.641C14.6017 27.3072 14.7301 27.2335 15.5442 27.0804C16.367 26.9259 16.5173 26.9233 16.4796 27.0656C16.5065 27.3143 16.5145 27.5646 16.5036 27.8145C16.4119 27.9415 15.6013 28.265 14.807 28.4922C14.5196 28.5742 14.0692 28.7549 13.8053 28.8941C13.0513 29.2918 12.8103 29.3138 12.8485 28.9832L12.849 28.9826ZM22.2863 30.9739C22.3011 30.9196 22.216 30.7958 22.0978 30.6985C21.8823 30.5214 21.7463 30.2429 21.8466 30.1846C22.0402 30.072 24.4909 30.5096 24.5846 30.6734C24.6677 30.8178 22.9094 31.8349 22.6832 31.774C22.4427 31.5518 22.377 31.2785 22.2858 30.9744L22.2863 30.9739ZM16.1357 29.4756C16.0664 29.2637 16.0741 29.2452 16.2794 29.1321C16.4657 29.0393 16.6589 28.9611 16.8572 28.8982C17.1957 28.784 17.5312 28.6611 17.8634 28.5296C18.5818 28.2471 19.932 27.8539 20.2305 27.8401L20.4241 27.8314L20.2188 28.3863C20.094 28.7231 19.9615 28.9627 19.881 28.9965C19.8087 29.0267 19.4984 29.0487 19.1922 29.0451C18.4279 29.0359 17.4446 29.2381 16.8842 29.5201C16.6274 29.6496 16.3701 29.7428 16.313 29.7274C16.256 29.7121 16.1755 29.599 16.1357 29.4756ZM9.03954 27.2304C9.02171 27.059 9.39975 26.6848 9.45987 26.7989C9.48586 26.8475 9.59947 27.2033 9.60253 27.3067C9.60762 27.447 9.29785 27.4961 9.20564 27.4715C9.13787 27.4531 9.04667 27.3006 9.03954 27.2304ZM12.7053 28.1375C12.8572 27.9809 13.786 27.6374 13.9434 27.6799C14.1997 27.749 13.9908 28.052 13.6759 28.0679C13.5271 28.0756 13.2892 28.1309 13.1481 28.1907C12.8444 28.3192 12.5622 28.2854 12.7048 28.1375H12.7053ZM16.1337 28.6729C16.1683 28.5429 16.7583 28.2445 17.2469 28.1099C18.1141 27.7792 18.9874 27.5591 19.8881 27.3047C20.0225 27.2492 20.1643 27.214 20.309 27.2002C20.4685 27.1936 20.4924 27.2156 20.4415 27.3226C19.1917 27.8677 17.7834 28.2163 16.5357 28.7119C16.2713 28.8173 16.0996 28.8009 16.1332 28.6729H16.1337ZM20.8735 29.3655C20.7614 29.2596 20.768 29.2447 20.9871 29.129C21.4839 28.8654 21.5593 28.7472 21.6393 28.1063C21.7035 27.5882 21.733 27.5033 21.8838 27.405C22.1233 27.2499 22.2639 27.3108 22.3067 27.5893C22.4514 28.0254 22.5125 28.4887 22.4784 28.868C22.4173 29.0185 22.3434 29.1552 22.3154 29.1715C22.2863 29.1879 22.2955 29.3005 22.3347 29.4208C22.4764 29.8523 22.187 29.9174 21.4069 29.6307C21.1792 29.5467 20.9392 29.4275 20.8735 29.3655ZM23.8021 29.816C23.9957 29.0323 23.8938 28.2384 23.5473 27.6901C24.0293 27.4157 24.631 27.1414 24.9219 26.8291C25.2312 26.3377 25.4238 26.5522 25.9358 26.7216V27.6C25.5348 27.7444 25.1288 28.0136 25.1624 28.3269C25.196 28.6407 25.2826 29.0891 25.5853 29.448C25.7804 29.6793 25.8696 29.7269 26.1676 29.7602C26.3612 29.7817 26.5981 29.7607 26.6939 29.7141C26.9028 29.6118 27.2085 29.2289 27.2722 28.9908C27.2977 28.8961 27.4042 28.7743 27.5091 28.7206C27.6288 28.6591 27.7267 28.5235 27.7705 28.3602C27.8087 28.2158 27.9468 27.9793 28.0777 27.8334C28.3406 27.5401 28.5205 27.5468 28.9754 27.8642C29.276 28.0751 29.274 28.2706 28.9688 28.3714C28.7344 28.4492 28.6264 28.6325 28.7161 28.8009C28.737 29.8667 28.7507 29.9194 28.2983 29.968C26.8086 30.1165 25.5588 30.2624 24.1256 30.0796C23.8556 30.0146 23.8056 29.9737 23.8056 29.816H23.8021ZM11.7342 26.6044C11.7791 26.437 14.9053 25.2202 14.9746 25.341C14.9909 25.3682 13.7656 26.0587 13.386 26.2512C13.007 26.4442 12.2784 26.8568 12.2539 26.9489C12.1928 27.1767 12.2234 26.8025 11.9431 26.7267C11.8193 26.6935 11.7256 26.6382 11.7342 26.6039V26.6044ZM11.3908 26.0198C11.4632 25.9686 12.0043 25.9185 12.0196 25.9456C12.0348 25.9727 11.4296 26.3577 11.3572 26.4088C11.2859 26.46 11.1636 26.4196 11.1483 26.3925C11.133 26.3653 11.319 26.0705 11.3908 26.0193V26.0198ZM14.0514 26.2225C14.1666 25.79 16.1255 25.4378 16.6498 25.6748C16.9769 25.8222 17.3264 26.1898 17.1338 26.2942C16.9657 26.3848 16.2677 26.3013 15.0164 26.6423C13.7651 26.9837 12.2014 27.858 12.1026 27.899C11.8519 28.0013 12.3283 27.341 12.3828 27.1362L14.0514 26.2225ZM11.3287 25.6512C10.9298 25.2904 11.7062 25.1516 12.2539 25.1368C12.7216 25.124 14.0906 25.1573 14.0799 25.1992C14.0631 25.2622 12.3156 25.7731 11.9564 25.8151C11.424 25.877 11.2788 25.8391 11.3287 25.6512ZM18.1808 26.9346C18.2787 26.6602 18.3067 26.6459 19.0378 26.4928C19.8841 26.3162 20.4491 26.3515 20.5576 26.588C20.6524 26.7948 20.5525 26.8573 20.0925 26.8844C19.4571 26.9561 18.8427 27.1782 18.2201 27.2509C18.1044 27.2238 18.0978 27.168 18.1808 26.9346ZM18.0861 25.9927C18.1676 25.6871 18.3714 25.6354 19.1499 25.7224C20.0711 25.8248 20.0507 25.8207 19.9875 25.9169C19.9595 25.9599 19.8041 26.0075 19.6431 26.0229C19.4816 26.0382 19.101 26.0792 18.7973 26.1119C18.1243 26.1862 18.0382 26.1713 18.0861 25.9927ZM14.2022 24.931C14.2399 24.8952 14.3805 24.8967 14.5161 24.9361C14.7025 24.9873 14.729 25.0139 14.6256 25.0472C14.4468 25.1056 14.1151 25.0165 14.2027 24.9336L14.2022 24.931ZM14.8646 24.9848C14.8697 24.9402 14.9751 24.9192 15.1035 24.9387C15.3109 24.9694 15.3216 24.9848 15.1993 25.0713C15.0541 25.1742 14.8549 25.1225 14.8646 24.9842V24.9848ZM22.162 26.7994C22.1866 26.6796 22.1778 26.5552 22.1365 26.4401C22.0143 26.1381 22.0856 26.0807 22.6262 26.0459C23.2401 26.0065 23.3843 26.0357 23.4673 26.2174C23.5575 26.414 23.2594 26.6551 22.6929 26.844C22.1365 27.0298 22.1009 27.0272 22.1615 26.7994H22.162ZM16.5515 24.7861C16.4445 24.6531 16.474 24.6403 16.8995 24.631C17.5521 24.6172 17.8512 24.7078 17.7992 24.9029C17.384 25.1378 17.2047 25.0042 16.714 24.93C16.6885 24.93 16.6157 24.866 16.5515 24.7861ZM18.8559 25.015C18.8243 24.911 18.8121 24.8184 18.8289 24.8092C20.7252 24.8143 22.8065 25.1342 23.7603 25.425C24.714 25.7157 24.8542 25.7536 25.0605 25.7767C25.2663 25.7992 25.4569 25.8401 25.4834 25.8678C25.6474 26.0377 25.3336 26.0111 23.9666 25.7383C22.616 25.4685 22.4178 25.4465 22.2924 25.5524C22.0672 25.7418 20.658 25.6251 19.3404 25.3073C18.9838 25.2213 18.9043 25.1731 18.8564 25.015H18.8559Z" fill="#216B8B"/>
<path d="M31.8726 22.108C31.7044 22.2319 31.8081 22.5371 31.8928 22.6786C31.9776 22.8202 32.0611 22.8502 32.1576 22.9232C32.352 23.068 32.5398 23.1971 32.6063 23.351C32.8281 23.8434 33.1033 24.326 33.34 24.7369C33.6524 25.2586 33.9785 25.7536 34.3385 26.1632C34.705 26.5506 35.0735 26.9002 35.4602 27.1826C35.7315 27.3652 36.0107 27.4199 36.295 27.4676C36.267 27.5771 36.2396 27.6893 36.2337 27.8145C36.175 27.7271 36.1287 27.671 36.0511 27.671C35.8528 27.671 35.6839 27.9991 35.6839 28.4054C35.6839 28.5071 35.6839 28.6023 35.7035 28.6904C35.0604 29.3132 34.6235 30.4147 34.6235 31.6865C34.6235 33.0997 35.1472 34.303 35.9076 34.8658C35.3604 35.9732 34.9907 37.9734 34.9907 40.2665C34.9907 43.7569 36.3857 46.5899 36.8657 46.5847C37.3457 46.5769 38.7609 43.7569 38.7609 40.2665C38.7609 37.9623 38.3957 35.9491 37.8439 34.8456C38.592 34.2756 39.1072 33.0854 39.1072 31.6865C39.1072 30.4284 38.6944 29.3373 38.0683 28.7113C38.0891 28.6173 38.1087 28.5156 38.1087 28.4047C38.1087 27.9991 37.9391 27.6717 37.7422 27.6717C37.6509 27.6717 37.5811 27.7389 37.5178 27.8549C37.5126 27.7239 37.492 27.5939 37.4565 27.4676C37.7572 27.4102 38.0304 27.3097 38.292 27.1826C38.6754 26.8499 39.1013 26.5128 39.4137 26.1632C39.7731 25.7536 40.12 25.258 40.4324 24.7369C40.7004 24.2699 40.9215 23.8036 41.1452 23.351C41.2118 23.1971 41.3996 23.068 41.5939 22.9232C41.6911 22.8502 41.7439 22.8293 41.8789 22.6786C42.0139 22.5273 42.0544 22.2345 41.8998 22.108C41.7446 21.9815 41.5281 21.9984 41.3291 22.1895C41.1296 22.3799 41.0167 22.9408 40.9215 23.2897C40.7024 23.7358 40.4598 24.1858 40.2485 24.5941C39.9687 25.046 39.642 25.5423 39.2911 25.9597C38.9598 26.3341 38.6194 26.6086 38.2717 26.8969C37.9678 27.1408 37.5935 27.2302 37.3346 27.1826C37.2146 26.9641 37.0554 26.8154 36.865 26.8154C36.6733 26.8154 36.5115 26.9602 36.3967 27.1826C35.7367 27.2367 34.9535 26.4221 34.4604 25.9597C34.1089 25.5423 33.7822 25.0467 33.5024 24.5941C33.2591 24.1441 33.0615 23.7352 32.8307 23.2897C32.7459 23.0386 32.6931 22.7536 32.6057 22.5156C32.5657 22.3964 32.5038 22.2858 32.4231 22.1895C32.1583 21.9176 32.0409 21.9834 31.8726 22.108Z" fill="#0E3855"/>
</g>
<defs>
<filter id="filter0_i_1228_7578" x="7" y="22" width="60" height="34.6522" filterUnits="userSpaceOnUse" color-interpolation-filters="sRGB">
<feFlood flood-opacity="0" result="BackgroundImageFix"/>
<feBlend mode="normal" in="SourceGraphic" in2="BackgroundImageFix" result="shape"/>
<feColorMatrix in="SourceAlpha" type="matrix" values="0 0 0 0 0 0 0 0 0 0 0 0 0 0 0 0 0 0 127 0" result="hardAlpha"/>
<feOffset dy="4"/>
<feGaussianBlur stdDeviation="7"/>
<feComposite in2="hardAlpha" operator="arithmetic" k2="-1" k3="1"/>
<feColorMatrix type="matrix" values="0 0 0 0 0 0 0 0 0 0 0 0 0 0 0 0 0 0 0.15 0"/>
<feBlend mode="normal" in2="shape" result="effect1_innerShadow_1228_7578"/>
</filter>
</defs>
</svg>
