<svg width="75" height="74" viewBox="0 0 75 74" fill="none" xmlns="http://www.w3.org/2000/svg">
<rect width="74" height="74" transform="translate(0.098999)" fill="white"/>
<g filter="url(#filter0_i_1228_7626)">
<path d="M14 52C17.7649 53.3385 21.093 56.1421 34.9226 56.7558L41.3289 56.9523C41.9764 55.2721 43.0927 54.0219 46.2788 53.5884C49.4649 53.1548 51.9155 54.4427 51.9155 54.4427C52.2792 52.7497 55.0683 53.5777 55.4491 55.05C55.4491 55.05 56.0375 55.4586 57.173 56.1677C58.3077 56.874 59.4032 58.0074 59.4032 58.0074C60.4456 59.0753 60.0205 59.4555 58.9139 59.5182C54.6425 60.102 50.2249 60.2686 44.1594 59.3701C42.7327 59.0597 42.1657 58.6119 41.3895 57.6764C33.0191 57.0071 25.4242 57.4286 17.5439 54.0191L14 52Z" fill="#2F99C6"/>
</g>
<defs>
<filter id="filter0_i_1228_7626" x="14" y="52" width="46" height="12" filterUnits="userSpaceOnUse" color-interpolation-filters="sRGB">
<feFlood flood-opacity="0" result="BackgroundImageFix"/>
<feBlend mode="normal" in="SourceGraphic" in2="BackgroundImageFix" result="shape"/>
<feColorMatrix in="SourceAlpha" type="matrix" values="0 0 0 0 0 0 0 0 0 0 0 0 0 0 0 0 0 0 127 0" result="hardAlpha"/>
<feOffset dy="4"/>
<feGaussianBlur stdDeviation="7"/>
<feComposite in2="hardAlpha" operator="arithmetic" k2="-1" k3="1"/>
<feColorMatrix type="matrix" values="0 0 0 0 0 0 0 0 0 0 0 0 0 0 0 0 0 0 0.15 0"/>
<feBlend mode="normal" in2="shape" result="effect1_innerShadow_1228_7626"/>
</filter>
</defs>
</svg>
