<?xml version="1.0" encoding="utf-8"?>
<!-- Generator: Adobe Illustrator 16.0.3, SVG Export Plug-In . SVG Version: 6.00 Build 0)  -->
<!DOCTYPE svg PUBLIC "-//W3C//DTD SVG 1.1//EN" "http://www.w3.org/Graphics/SVG/1.1/DTD/svg11.dtd">
<svg version="1.1" id="Ebene_1" xmlns="http://www.w3.org/2000/svg" xmlns:xlink="http://www.w3.org/1999/xlink" x="0px" y="0px"
	 width="45px" height="44.982px" viewBox="0 0 45 44.982" enable-background="new 0 0 45 44.982" xml:space="preserve">
<g>
	<circle id="path-1_2_" fill="none" stroke="#FFFFFF" stroke-width="8" stroke-opacity="0.5" cx="22.507" cy="22.491" r="15"/>
</g>
<g>
	<circle id="path-3_2_" fill="none" stroke="#638B54" stroke-width="4" cx="22.508" cy="22.491" r="15"/>
</g>
<g>
	<circle id="path-3_1_" fill="#729F62" cx="22.508" cy="22.491" r="15"/>
</g>
<g>
	<circle id="path-3_3_" fill="none" cx="22.5" cy="22.491" r="22.5"/>
</g>
<g id="artwork">
	<g id="New_Symbol_1">
	</g>
	<path fill="#FFFFFF" d="M36.826,22.615c0-1.568-1.375-3.199-3.34-4.417c-5.768-4.422-13.809-4.721-16.536-2.938
		c1.271,1.174,2.148,2.422,2.175,3.57c-1.013,0.486-2.015,0.982-2.949,1.434c-0.739,0.36-1.17,0.65-1.47-0.029
		c-1.88-4.35-5.42-3.471-5.42-3.471c0,2.5-0.42,4.621,2.71,6.509c-2.5,1.49-2.46,3.611-2.5,6.361c0,0,4.33,0.869,5.569-4.07
		c0.16-0.66,0.9-0.4,2.051,0.359c0.736,0.486,1.535,0.926,2.355,1.326c-0.318,1.494-1.029,2.5-1.979,3.1
		c0.707,0.928,1.813,1.07,2.813,0.932c1.863-0.258,3.299-0.762,4.182-2.156c0.137,0.035,0.277,0.076,0.408,0.109
		c0.779,0.197,1.605,0.246,2.443,0.195c-0.369,1.066-0.955,1.641,0.023,2.316c0.633,0.436,1.445,0.332,2.035,0.033
		c1.104-0.559,2.199-2.215,2.83-3.785C34.838,26.615,36.826,24.494,36.826,22.615z M33.527,24.164
		c-0.82,0.109-1.58-0.471-1.691-1.29c-0.109-0.819,0.471-1.569,1.291-1.681c0.82-0.109,1.58,0.471,1.689,1.291
		C34.916,23.304,34.348,24.054,33.527,24.164z"/>
</g>
</svg>
