<svg width="24" height="24" viewBox="0 0 24 24" fill="none" xmlns="http://www.w3.org/2000/svg">
<path d="M16.4929 2.068C16.5662 2.02352 16.6504 2 16.7362 2C16.822 2 16.9061 2.02352 16.9795 2.068C17.0505 2.11504 17.108 2.17993 17.1462 2.25618C17.1843 2.33242 17.2017 2.41734 17.1967 2.50244C17.0403 4.71806 16.2322 10.4787 11.9834 10.4787C11.4715 10.5502 10.9502 10.5111 10.4546 10.3639C9.95912 10.2168 9.5009 9.96513 9.11093 9.62584C8.72095 9.28655 8.40829 8.86757 8.19403 8.39715C7.97977 7.92674 7.8689 7.41584 7.8689 6.89893C7.8689 6.38202 7.97977 5.87112 8.19403 5.40071C8.40829 4.9303 8.72095 4.51131 9.11093 4.17202C9.5009 3.83274 9.95912 3.58104 10.4546 3.43392C10.9502 3.28679 11.4715 3.24767 11.9834 3.31918C13.5565 3.21599 15.0915 2.79009 16.4929 2.068V2.068Z" stroke="black" stroke-width="1.15" stroke-linecap="round" stroke-linejoin="round"/>
<path d="M8.40363 11.7125C8.71492 10.4673 9.312 9.3118 10.1475 8.33753C10.983 7.36326 12.034 6.59702 13.2172 6.09955" stroke="black" stroke-width="1.15" stroke-linecap="round" stroke-linejoin="round"/>
<path d="M18.9344 4.74419C19.6295 4.67468 20.7938 4.63993 21.541 4.62255C21.5994 4.62118 21.6574 4.63207 21.7113 4.65452C21.7651 4.67697 21.8137 4.71048 21.8538 4.75288C21.894 4.79243 21.9255 4.83987 21.9465 4.89221C21.9674 4.94454 21.9773 5.00065 21.9755 5.05699V18.5245C21.9766 18.5819 21.9662 18.6389 21.9448 18.6922C21.9234 18.7454 21.8914 18.7938 21.8509 18.8343C21.8103 18.8749 21.7619 18.9069 21.7087 18.9283C21.6554 18.9497 21.5984 18.9601 21.541 18.9589C16.6319 19.0371 11.9834 20.3665 11.9834 22C11.9834 20.3665 7.32628 19.0371 2.42584 18.9589C2.36919 18.959 2.31311 18.9477 2.26088 18.9257C2.20865 18.9038 2.16132 18.8717 2.12167 18.8312C2.08202 18.7907 2.05085 18.7428 2.02997 18.6901C2.00909 18.6374 1.99893 18.5811 2.00009 18.5245V5.05699C1.99939 5.00001 2.01063 4.94352 2.03308 4.89115C2.05552 4.83877 2.08868 4.79167 2.13042 4.75288C2.16853 4.71261 2.21428 4.68035 2.265 4.65797C2.31573 4.63559 2.3704 4.62355 2.42584 4.62255C3.87995 4.64424 5.33113 4.76033 6.7702 4.9701" stroke="black" stroke-width="1.15" stroke-linecap="round" stroke-linejoin="round"/>
<path d="M11.9834 12.4424V21.8958" stroke="black" stroke-width="1.15" stroke-linecap="round" stroke-linejoin="round"/>
</svg>
