<svg width="74" height="74" viewBox="0 0 74 74" fill="none" xmlns="http://www.w3.org/2000/svg">
<g clip-path="url(#clip0_1228_7601)">
<rect width="74" height="74" fill="white"/>
<g filter="url(#filter0_i_1228_7601)">
<path fill-rule="evenodd" clip-rule="evenodd" d="M40.7837 53.174C40.9086 53.1438 41.0336 53.1748 41.1548 53.1816C41.1624 53.1748 41.0427 53.0657 40.9776 53.0165C40.7579 52.859 40.564 52.8188 40.3353 52.8764C40.2891 52.8908 40.2747 52.8832 40.2316 52.8204C40.1573 52.7128 40.1096 52.6916 39.9104 52.681C39.4125 52.6469 38.9137 52.6282 38.4146 52.625C38.1003 52.269 37.8633 51.8562 37.602 51.451C37.4603 51.0837 37.4406 50.6656 37.4316 50.3021C37.4679 50.1203 37.5808 49.9651 37.7292 49.9492C37.8969 49.9544 38.0646 49.9401 38.2291 49.9068C39.484 49.7144 40.789 49.4538 41.7508 48.6139C42.1856 48.1989 42.6188 47.5339 42.6809 46.9553C42.7551 46.2191 42.8134 45.6579 42.8937 44.8801C42.9893 44.369 43.0905 43.859 43.1974 43.3502C43.2429 43.2063 43.2626 43.0624 43.2701 42.8223C43.2793 42.5264 43.2529 42.2304 43.1914 41.9407C43.1043 41.6151 43.0217 41.2379 43.1171 41.013C43.236 40.7941 43.5307 40.6577 43.7503 40.5441C44.0661 40.4343 44.3388 40.4419 44.6099 40.5744C44.7811 40.6911 44.9757 40.7729 45.1666 40.8372C45.2196 40.8509 45.2453 40.8683 45.2453 40.891C45.2453 40.9092 45.2719 40.8887 45.2802 40.8645C45.2984 40.8115 45.2878 40.6653 45.2499 40.5343C45.2135 40.3987 45.2188 40.4071 45.0378 40.2185L44.8735 40.0465C44.7735 39.8284 44.6122 39.5656 44.4463 39.5315C44.3861 39.3756 44.3194 39.2222 44.2464 39.0718C44.1434 38.7848 43.9578 38.4947 43.7298 38.3993C43.1421 38.2213 42.4044 38.1645 42.0538 38.3667C41.7554 38.5341 41.5842 38.706 41.3669 38.937C41.2199 39.0817 41.0866 39.3339 40.9442 39.7375C40.7382 40.3752 40.661 40.7441 40.4595 41.3886C40.3671 41.6143 40.2296 41.8187 40.0553 41.9893C39.8811 42.16 39.6738 42.2932 39.4462 42.3808C38.9713 42.5807 38.5282 42.7844 38.0882 43.0382C37.967 43.1472 37.2869 43.4062 37.1203 43.4062C36.3607 43.5175 35.611 43.6887 34.8785 43.9182C34.5528 44.0106 34.1203 44.2462 34.0703 44.3393C34.0158 44.4476 33.881 44.6249 33.8272 44.6574C33.3933 45.0164 32.8972 45.3239 32.5147 45.5564C32.5147 45.6019 32.5223 45.6481 32.5246 45.6935C31.7823 46.2744 31.0159 46.9174 30.2259 47.3256C29.976 47.4574 29.8071 47.6611 29.6155 47.8717C29.6231 47.9035 29.6231 47.9293 29.6269 47.9626L29.2913 48.2474C29.1081 48.2701 28.9195 48.361 28.7968 48.4465C28.1712 48.6238 27.535 48.7964 26.9942 48.9252C26.8011 48.9646 26.6534 49.0646 26.461 49.1373C26.3118 49.1963 26.152 49.3115 26.0725 49.4531C25.9968 49.5591 26.0256 49.6621 26.0831 49.678C26.2702 49.7303 26.3596 49.728 26.5951 49.7583C26.4951 49.8265 26.3868 49.9628 26.4201 50.0605C26.4482 50.1324 26.4838 50.1529 26.5587 50.1718C26.6867 50.1643 26.8306 50.1779 26.9503 50.1809C26.5754 50.4793 26.0021 50.9307 25.6257 51.2291C25.5931 51.2624 25.5923 51.264 25.5984 51.2943C25.6098 51.3526 25.6666 51.3889 25.7688 51.4026C25.8718 51.4116 25.8991 51.3798 26.0013 51.3601C26.0013 51.3867 25.9907 51.4079 25.9847 51.4336C26.23 51.3988 26.4966 51.3806 26.7511 51.3594C27.2267 51.114 27.56 50.9262 28.072 50.6444L28.6658 50.3839C28.9013 50.3263 29.158 50.2756 29.3595 50.2347C29.9449 50.2264 30.5357 50.2233 31.1143 50.2264C32.1671 50.243 33.1017 50.1582 34.084 50.0188C34.268 50.1476 34.6793 50.0825 35.0595 50.134C35.067 50.1506 35.0163 50.1938 34.9148 50.2551C34.8088 50.3082 35.2587 50.1506 35.3541 50.1173C35.1632 50.5535 35.2844 50.8747 35.4094 51.1504C35.4306 51.1928 35.4753 51.2746 35.5078 51.3306C35.5427 51.3874 35.5699 51.4374 35.5699 51.4427C35.9433 51.8464 36.1698 52.2501 36.4386 52.7158C36.2485 52.7772 36.0327 52.8249 35.8297 52.8787C35.7403 52.9067 35.6957 52.9627 35.6487 53.0627C35.8335 53.1665 36.0122 53.1695 36.2569 53.1687C36.3538 53.1513 36.4523 53.14 36.5492 53.1248C36.6022 53.14 36.6371 53.1665 36.6878 53.19L37.04 53.1104C37.0832 53.1377 37.0779 53.1884 37.096 53.224C37.1937 53.218 37.2755 53.0953 37.4096 53.1074C38.5176 53.1551 39.6166 53.1968 40.6496 53.2937C40.7079 53.2611 40.7496 53.2119 40.792 53.1771L40.7837 53.174ZM37.043 52.6015C37.0256 52.5515 37.0203 52.5439 36.9673 52.4932C36.8363 52.3508 36.7772 52.2304 36.6651 52.0478C36.4833 51.7843 36.3659 51.4647 36.2751 51.1935C36.3356 51.136 36.3129 51.0534 36.3281 50.9974C36.3281 50.8466 36.2925 50.6906 36.2788 50.5679C36.3735 50.5891 36.3152 50.3794 36.3417 50.3733C36.3947 50.3566 36.3871 50.5475 36.3977 50.5929C36.4311 50.6588 36.3977 50.7505 36.3977 50.7929C36.3478 50.8686 36.3902 50.9428 36.3856 51.0133C36.4235 51.0057 36.4636 51.036 36.4879 51.0421C36.5712 51.1602 36.6098 51.2617 36.6651 51.3836C36.6045 51.4026 36.5606 51.4366 36.5061 51.4639C36.6409 51.5434 36.7484 51.5253 36.8666 51.5548C36.9249 51.5502 36.9249 51.5502 36.9559 51.5745C36.9999 51.6396 37.0302 51.7207 37.0953 51.7411C37.3013 51.9229 37.377 52.0766 37.5179 52.3069C37.6073 52.4508 37.6618 52.6401 37.5406 52.6954C37.3801 52.7408 37.3286 52.7257 37.1483 52.7272C37.0892 52.7045 37.0635 52.6303 37.0423 52.6045L37.043 52.6015Z" fill="#12466A"/>
<path d="M11.0676 46.0366C10.8525 46.0351 10.7185 46.0904 10.5314 46.1199C10.4859 46.2184 10.3625 46.1949 10.317 46.2154C10.3011 46.2078 10.3322 46.2706 10.3398 46.3229C10.183 46.3441 10.1201 46.5327 9.94593 46.5728C9.91337 46.7667 9.76114 46.925 9.60057 47.0742C9.593 47.2014 9.46425 47.2863 9.40896 47.3719C8.64704 47.6877 7.56173 48.6094 6.82027 49.2092C6.3454 49.5561 5.52213 50.0045 5.76979 50.1643C5.56152 50.3029 5.49335 50.4748 5.38808 50.5937C4.8814 50.78 4.30353 51.061 3.83774 51.2496L2.70472 51.6078C2.451 51.676 1.82087 51.9199 2.04883 51.9062C2.22454 51.8282 2.65397 51.8873 2.57293 52.0388C2.76228 51.9736 3.18943 51.8472 3.16898 51.9911C3.2326 52.0903 3.89455 51.7911 4.2543 51.6927C4.29974 51.6684 4.31867 51.7101 4.32549 51.7646C4.36563 51.8479 4.50347 51.7782 4.59966 51.7646C4.80642 51.704 4.94805 51.7192 5.06468 51.7646C5.43201 51.8343 5.78646 51.9199 6.12576 52.0509C5.73723 52.3213 6.07426 52.4265 6.29314 52.3728L6.96114 52.2183C6.90055 52.369 7.20274 52.2493 7.13988 52.4568C7.22622 52.6462 7.56855 52.3985 7.52083 52.6242C7.80485 52.8045 8.01313 52.6598 8.33198 52.6007C8.41377 52.8348 8.49406 52.6583 8.70233 52.7325C8.72733 52.6962 8.97726 52.9317 8.91667 52.9347L8.70233 52.887C8.51148 52.7992 8.25018 52.8166 8.10628 52.8628C7.98965 52.9173 7.93512 52.9241 7.87907 53.1135C8.05175 52.9946 8.25927 53.0128 8.28578 53.0059C8.3032 53.0521 8.32365 53.0794 8.35773 53.09C8.50466 53.1082 8.66068 53.0824 8.8947 53.1142L8.88259 53.2695C8.98104 53.1264 9.22946 53.0431 9.28854 53.1029C9.28096 53.3112 9.33246 53.2453 9.53847 53.2097C9.77325 53.2309 10.0065 53.243 10.2299 53.1976C10.4269 53.3081 10.6745 53.2491 10.9093 53.2453L11.291 53.2218C11.3721 53.2263 11.4652 53.2551 11.4819 53.3051C11.4743 53.1589 11.5251 53.2294 11.6129 53.2695C11.5826 53.0847 11.7409 53.2748 11.8038 53.2771C11.8038 52.9832 11.4652 53.0468 11.2789 53.0271C11.1439 53.0403 11.008 53.0403 10.873 53.0271C10.7063 53.0135 10.4769 52.9779 10.3246 52.8832C10.3064 52.8492 10.1322 52.7863 10.0505 52.7295C10.1391 52.6242 10.3322 52.4031 10.42 52.5508C10.642 52.3538 10.7684 52.2751 10.9093 52.169C10.8669 52.3894 11.0532 52.1433 11.1123 52.1334C11.2289 51.9986 11.4077 51.9327 11.4819 51.7517C11.5561 51.57 11.906 51.3056 11.9946 51.3708C12.0196 51.3079 12.2521 50.8732 12.1855 51.2996C12.2256 51.2102 12.393 50.8247 12.4483 51.1686C12.4756 51.0277 12.6104 50.5952 12.6149 50.9186C12.6672 50.8247 12.68 50.7134 12.7702 50.6566C12.9012 50.649 13.0156 50.0363 13.0087 49.8931C13.1466 49.6023 13.0277 49.238 12.9966 48.9631C12.9512 48.7488 12.8338 48.514 12.8656 48.4382C12.9262 48.258 12.8414 48.1133 12.83 47.9611C12.9512 48.0012 12.8997 47.9005 12.8664 47.8172C13.0651 47.8226 13.2621 47.7778 13.4389 47.6869C13.5169 47.6559 13.6109 47.6309 13.6889 47.6263C13.5465 47.3605 13.1602 47.181 12.8421 46.9826C12.8082 46.9 12.7553 46.8265 12.6876 46.7682C12.5058 46.5183 12.3604 46.3646 12.0908 46.2078C11.8212 46.051 11.3766 46.054 11.0653 46.0412L11.0676 46.0366ZM9.64374 52.9151C9.44304 53.0256 9.28172 52.7999 9.29081 52.7159C9.4544 52.5894 9.73917 52.784 9.64374 52.9151ZM75.9947 33C75.257 33.8149 74.4481 34.2072 73.8892 34.3012L72.3025 35.0116L70.244 36.0052C69.5495 36.3801 68.5149 37.0868 67.7583 37.804C66.7745 38.4341 66.0906 38.5538 64.8235 38.9643L65.0371 39.0347C64.0017 39.3301 63.0815 39.9368 62.2196 40.6919L62.6938 40.6207C62.1886 41.0614 61.591 41.3015 60.942 41.7567C60.5655 41.9635 60.2906 41.9135 59.8536 42.1119C60.0005 42.1483 60.0702 42.1452 59.8301 42.3247C59.4477 42.605 59.1485 42.8541 58.6941 42.964C57.9284 43.3101 57.2316 43.5479 56.3508 44.0523C56.0857 44.222 55.8873 44.2416 55.4753 44.7627L55.7358 44.7392C55.1079 45.077 54.446 45.3679 53.984 45.9457L54.8126 45.6617L54.4574 46.2775C54.5445 46.282 54.6785 46.207 54.6944 46.3244L52.8714 47.4135C53.2501 47.4718 53.5212 47.3961 53.7477 47.2711C53.5735 47.468 53.3486 47.5991 53.3213 47.9581C53.5235 48.1504 53.7091 48.1679 53.9128 48.1474L54.4808 48.0997L54.3392 48.289L54.7414 47.9815C54.7944 48.3254 55.2579 48.1921 55.5222 48.0997C56.1887 47.6945 56.8605 47.409 57.5103 47.1295C58.348 46.6592 59.2598 46.1805 60.0907 45.686C60.9359 45.3504 61.31 45.3027 61.9129 45.1649L63.617 45.0467L64.7296 44.8574L64.7061 44.999L65.3211 44.8574L68.2324 45.2361C68.521 45.2951 69.1004 45.3573 69.0133 45.8041L68.7292 46.7508C68.6179 47.1083 68.6012 47.3613 68.6581 47.6741C68.8375 47.9013 68.9345 48.0944 69.014 48.2648C69.1011 48.52 69.317 48.5465 69.5101 48.6208C70.2251 49.132 70.7885 49.6887 71.3808 50.2302C71.5891 50.493 71.3732 50.5218 71.1915 50.5846C70.8022 50.6202 70.275 50.4415 70.0312 50.727C69.7676 51.03 69.8153 51.2011 69.7714 51.3897C70.01 51.1739 70.2538 50.8573 70.4818 50.9164V51.3185C70.8075 51.2579 71.1513 51.2125 71.4997 51.3185C71.8284 51.3814 72.1245 51.0527 72.5411 51.4844C72.7941 51.8108 73.1947 51.8191 73.5355 52.1706C74.0331 52.2645 74.4625 52.5704 74.8851 52.8333L75.1926 53.1173C75.2411 52.9416 75.2343 52.7583 75.2404 52.5727C75.5532 52.7825 75.7955 53.0188 75.9508 53.3074L75.9985 52.8098V52.2418C75.7917 52.2039 75.5713 52.1736 75.3835 52.0994C75.3638 51.8767 75.354 51.7245 74.9579 51.6025C74.823 51.5631 74.7231 51.4147 74.6034 51.2004C74.3966 50.6179 74.1717 50.4142 73.9642 50.2537C73.5613 50.0567 73.0947 49.6856 72.5684 49.1411C72.5411 49.1055 72.4275 49.0714 72.4267 49.0229C72.4267 48.8836 71.5807 48.4125 71.7171 48.1944C71.7246 48.1323 71.761 48.0618 71.764 48.005C71.8239 46.9462 71.964 46.8137 72.1427 46.4668C72.476 45.8253 72.9667 45.6723 73.3969 45.3073C74.0528 44.7218 74.6867 43.9501 75.432 43.6032C75.629 43.5064 75.8189 43.3955 76 43.2715V33H75.9947ZM70.6931 45.8276C70.6931 45.8276 70.575 46.076 70.6219 46.0881C70.6825 46.0275 70.7408 46.0404 70.7408 46.0404C70.5636 46.3661 70.3697 46.6948 70.2675 47.106C70.1879 46.722 70.2675 46.3941 70.3152 46.0646C70.331 46.0212 70.3561 45.9817 70.3888 45.949C70.4216 45.9162 70.461 45.8911 70.5045 45.8753V46.0169C70.553 45.9124 70.6242 45.8791 70.6939 45.8276H70.6931ZM70.3387 47.8869L70.528 48.3368C70.6265 48.4473 71.3043 49.0032 71.4035 49.0229L72.6577 50.1113C72.8327 50.3142 73.1402 50.5066 73.2492 50.774C73.1553 50.7406 72.9637 50.8103 72.8948 50.5619C72.808 50.4303 72.7044 50.3106 72.5865 50.2059C72.4078 50.0969 72.2003 49.9674 71.9715 49.8515C71.324 49.3486 70.8658 48.7957 70.3144 48.2656C70.2349 48.1997 70.2993 48.0285 70.3379 47.8869H70.3387Z" fill="#2F99C6"/>
</g>
</g>
<defs>
<filter id="filter0_i_1228_7601" x="2" y="33" width="74" height="24.3074" filterUnits="userSpaceOnUse" color-interpolation-filters="sRGB">
<feFlood flood-opacity="0" result="BackgroundImageFix"/>
<feBlend mode="normal" in="SourceGraphic" in2="BackgroundImageFix" result="shape"/>
<feColorMatrix in="SourceAlpha" type="matrix" values="0 0 0 0 0 0 0 0 0 0 0 0 0 0 0 0 0 0 127 0" result="hardAlpha"/>
<feOffset dy="4"/>
<feGaussianBlur stdDeviation="7"/>
<feComposite in2="hardAlpha" operator="arithmetic" k2="-1" k3="1"/>
<feColorMatrix type="matrix" values="0 0 0 0 0 0 0 0 0 0 0 0 0 0 0 0 0 0 0.15 0"/>
<feBlend mode="normal" in2="shape" result="effect1_innerShadow_1228_7601"/>
</filter>
<clipPath id="clip0_1228_7601">
<rect width="74" height="74" fill="white"/>
</clipPath>
</defs>
</svg>
