<svg width="24" height="24" viewBox="0 0 24 24" fill="none" xmlns="http://www.w3.org/2000/svg">
<path d="M8.14947 4.71649L8.14947 14.5863" stroke="black" stroke-width="1.15" stroke-linecap="round"/>
<path d="M12.0116 20.1649L12.0116 21.8814" stroke="black" stroke-width="1.15" stroke-linecap="round" stroke-linejoin="round"/>
<path d="M9.43684 6.86212L8.14947 8.14949" stroke="black" stroke-width="1.15" stroke-linecap="round"/>
<path d="M13.299 20.1649L13.299 21.8814" stroke="black" stroke-width="1.15" stroke-linecap="round" stroke-linejoin="round"/>
<path d="M5.57474 8.14948L8.14948 9.43684" stroke="black" stroke-width="1.15" stroke-linecap="round"/>
<circle cx="16.5174" cy="11.3679" r="0.643684" fill="black"/>
<path d="M10.548 4.46362L10.0161 4.68218C10.0745 4.82426 10.1873 4.93707 10.3294 4.99546L10.548 4.46362ZM11.1333 8.48457L10.772 8.03726C10.6164 8.163 10.5373 8.36061 10.5632 8.55903L11.1333 8.48457ZM6.87741 10.172L7.34382 9.83571C7.25032 9.70601 7.10703 9.62111 6.94836 9.60138C6.78969 9.58165 6.62998 9.62888 6.50756 9.73173L6.87741 10.172ZM6.13345 6.13345L5.94514 6.67674C6.15325 6.74888 6.38429 6.69579 6.54004 6.54004C6.69579 6.38429 6.74888 6.15325 6.67674 5.94514L6.13345 6.13345ZM12.5866 6.64755C12.5866 5.42029 11.8335 4.37028 10.7665 3.93178L10.3294 4.99546C10.9801 5.26287 11.4366 5.90258 11.4366 6.64755H12.5866ZM11.4946 8.93188C12.1596 8.39475 12.5866 7.5708 12.5866 6.64755H11.4366C11.4366 7.20867 11.1784 7.70907 10.772 8.03726L11.4946 8.93188ZM11.7283 8.79316C11.7283 8.66361 11.7199 8.53574 11.7035 8.41012L10.5632 8.55903C10.5732 8.6354 10.5783 8.71353 10.5783 8.79316H11.7283ZM8.79316 11.7283C10.4142 11.7283 11.7283 10.4142 11.7283 8.79316H10.5783C10.5783 9.77909 9.77909 10.5783 8.79316 10.5783V11.7283ZM6.411 10.5083C6.943 11.2461 7.81178 11.7283 8.79316 11.7283V10.5783C8.19699 10.5783 7.66897 10.2867 7.34382 9.83571L6.411 10.5083ZM5.36018 11.2992C6.07818 11.2992 6.73729 11.0407 7.24727 10.6122L6.50756 9.73173C6.19703 9.9926 5.79764 10.1492 5.36018 10.1492V11.2992ZM2.425 8.36404C2.425 9.98509 3.73912 11.2992 5.36018 11.2992V10.1492C4.37425 10.1492 3.575 9.34996 3.575 8.36404H2.425ZM5.36018 5.42886C3.73912 5.42886 2.425 6.74298 2.425 8.36404H3.575C3.575 7.37811 4.37425 6.57886 5.36018 6.57886V5.42886ZM6.32177 5.59016C6.01976 5.48548 5.69597 5.42886 5.36018 5.42886V6.57886C5.56605 6.57886 5.76262 6.61348 5.94514 6.67674L6.32177 5.59016ZM6.67674 5.94514C6.61348 5.76262 6.57886 5.56605 6.57886 5.36018H5.42886C5.42886 5.69597 5.48548 6.01976 5.59016 6.32177L6.67674 5.94514ZM6.57886 5.36018C6.57886 4.37425 7.37811 3.575 8.36404 3.575V2.425C6.74298 2.425 5.42886 3.73912 5.42886 5.36018H6.57886ZM8.36404 3.575C9.109 3.575 9.74871 4.03147 10.0161 4.68218L11.0798 4.24505C10.6413 3.17804 9.59129 2.425 8.36404 2.425V3.575Z" fill="black"/>
<path d="M6.8621 18.8775C6.8621 18.8775 9.86595 19.9503 12.8698 13.2989C15.8737 6.64751 19.9504 10.0805 19.9504 10.0805" stroke="black" stroke-width="1.15" stroke-linecap="round" stroke-linejoin="round"/>
<path d="M6.86211 18.8776C6.86211 18.8776 16.0883 22.3105 17.3756 16.0883C18.663 9.866 19.3067 9.86607 19.9504 10.0806" stroke="black" stroke-width="1.15" stroke-linecap="round" stroke-linejoin="round"/>
<path d="M13.5135 19.5212C13.5135 19.5212 12.4407 18.4484 14.1572 15.6591C15.8737 12.8698 17.8047 13.7281 17.8047 13.7281" stroke="black" stroke-width="1.15" stroke-linecap="round" stroke-linejoin="round"/>
</svg>
