<?xml version="1.0" encoding="UTF-8"?>
<svg width="24" height="24" stroke-linecap="round" stroke-linejoin="round" version="1.1" viewBox="0 0 24 24" xmlns="http://www.w3.org/2000/svg">
 <path d="m5.9845 4.5944c-0.52658-1.4656 0.42036-2.9278 1.6973-3.3877 1.4405-0.50989 3.0222 0.24007 3.5392 1.678 2.1877 1.0938 1.8611 3.6352 0.63167 4.5912 0.48816 2.6465-2.9855 4.5561-4.9991 2.0656-1.9718 1.1831-3.9087-0.08249-4.268-1.791-0.33787-1.6046 1.13-3.7335 3.399-3.1561z" fill="none" stroke="#000" stroke-width="1"/>
 <path d="m21.464 8.9098c-0.39098 0.2825-1.2396 0.31188-1.4294 2.3504-0.19549 2.0984 0.47121 8.0083-4.1539 9.1654-3.7053 0.9266-6.9337-0.45878-8.7982-1.2475 0 0 2.234 0.39098 3.5392-1.0283 2.3063-2.5086 3.0216-6.1675 4.9381-8.4388 2.0905-2.4781 4.5539-1.4148 5.9042-0.80117z" fill="none" stroke="#000" stroke-width="1"/>
 <path d="m12.709 22.952 0.0011-2.0973" fill="none" stroke="#000" stroke-width="1"/>
 <path d="m8.6649 2.9626v11.384" fill="none" stroke="#000" stroke-width="1"/>
 <circle cx="18.259" cy="9.9483" r=".3" fill="#000" stroke="#000" stroke-width="1"/>
 <path d="m19.86 13.369c-1.3876-0.68591-3.7154-0.02825-4.8918 2.1334-0.8814 1.6227-1.1142 3.6544 0.2147 5.0036" fill="none" stroke="#000" stroke-width="1"/>
 <path d="m5.337 7.1425 3.06 1.5854" fill="none" stroke="#000" stroke-width="1"/>
 <path d="m10.152 5.4452-1.4656 1.3221" fill="none" stroke="#000" stroke-width="1"/>
 <path d="m14.4,22.952v-2.0385" fill="none" stroke="#000" stroke-width="1"/>
</svg>