<svg width="74" height="74" viewBox="0 0 74 74" fill="none" xmlns="http://www.w3.org/2000/svg">
<rect width="74" height="74" fill="white"/>
<g filter="url(#filter0_i_1228_7644)">
<path d="M53.0301 66.116C42.1674 61.1208 25.5722 48.0934 18.5016 39.0487C11.4301 30.0041 9.81292 17.4176 11.767 14.8823C12.4816 14.2898 13.3781 12.8728 17.2577 13.7961C24.2088 16.878 35.6554 35.6871 43.1167 42.8582C50.578 50.0302 58.2575 53.8544 60.96 57.8171C66.4464 67.9315 56.9141 67.851 53.0301 66.1151V66.116Z" fill="#2A8AB2"/>
<path d="M11.9212 14.7003C13.2907 13.4704 16.0035 13.1845 17.8598 14.0871C17.69 13.9268 15.1633 12.2023 15.6467 10.7202C16.227 8.94284 20.1768 8.16501 20.1768 8.16501L18.8637 7C15.1339 8.91426 11.2534 10.7592 11.9212 14.7003Z" fill="#216B8B"/>
<path d="M58.9133 65.339C58.2854 65.4066 57.7882 66.6963 51.3273 63.7478C44.8656 60.7994 32.7677 52.3818 23.5628 42.6667C14.3579 32.9516 11.9265 20.6501 11.9265 20.6501" stroke="#9BC8E7" stroke-width="0.5"/>
<path d="M56.125 64.1082C57.1626 62.6634 60.2965 57.7331 58.0773 56.918C55.8573 56.1038 56.992 59.099 56.6299 60.4607C56.267 61.824 55.0873 65.5521 56.125 64.1073V64.1082ZM52.1916 62.7162C52.8491 60.2095 55.4632 55.4004 54.5511 55.9375C53.639 56.4745 52.4411 57.4238 51.9898 58.6434C51.5394 59.8639 51.5333 65.2221 52.1916 62.7162ZM47.043 58.4503C47.4233 58.2788 48.9712 52.5126 50.2297 51.623C51.4883 50.7335 47.3046 52.0215 46.5467 53.3537C45.7897 54.685 46.6637 58.6218 47.043 58.4503ZM46.1024 48.3722C46.7433 47.3112 42.1812 49.5979 41.4129 51.0574C40.6437 52.5161 41.166 56.3316 41.7767 55.5338C42.3865 54.7369 45.4614 49.4333 46.1024 48.3722ZM36.7095 51.7729C39.1435 53.2315 42.5129 44.5974 42.2687 44.7819C42.0244 44.9664 40.5493 43.7789 39.9239 44.348C39.2985 44.9171 34.2764 50.3134 36.7104 51.7729H36.7095ZM32.1473 48.4086C34.2807 50.063 39.4553 43.506 38.4739 41.7971C37.4925 40.0881 37.1885 41.4723 35.8736 42.4207C34.5588 43.3683 30.0139 46.7525 32.1473 48.4086ZM28.4375 45.5987C28.24 46.6997 32.9009 39.4081 36.0581 39.1119C36.5086 37.6481 30.9945 39.4878 29.988 41.1128C28.9815 42.7395 27.819 43.9487 28.4375 45.5996V45.5987ZM25.1304 40.2761C26.1438 42.251 26.8636 37.5077 31.9871 35.9521C37.1106 34.3973 31.043 34.6875 29.5193 35.4194C27.9966 36.1513 24.117 38.3029 25.1304 40.2769V40.2761ZM21.8095 37.0296C22.13 37.6619 27.3634 32.6701 30.7129 31.5406C31.3938 30.4926 27.036 31.1595 25.3859 32.114C23.7367 33.0686 20.6566 36.6346 21.8086 37.0296H21.8095ZM27.2413 28.9828C26.3872 27.1101 23.6016 29.6524 22.5007 30.4579C21.4006 31.2635 20.2261 32.6831 20.6592 33.0998C22.3049 31.3206 27.9819 31.2461 27.2413 28.9828ZM16.9883 30.4051C18.2789 32.0889 25.4076 26.4336 24.7813 26.6199C24.1542 26.8061 21.0091 26.5965 19.6544 27.3301C18.3006 28.0655 15.696 28.7203 16.9883 30.4051ZM14.6366 24.8866C14.9026 26.153 18.4262 21.9841 23.2465 22.308C22.965 19.7952 18.6098 21.2227 17.0741 21.8905C15.5383 22.5583 13.4465 23.1066 14.6366 24.8875V24.8866Z" fill="#267A9E"/>
</g>
<defs>
<filter id="filter0_i_1228_7644" x="11" y="7" width="51.6213" height="64" filterUnits="userSpaceOnUse" color-interpolation-filters="sRGB">
<feFlood flood-opacity="0" result="BackgroundImageFix"/>
<feBlend mode="normal" in="SourceGraphic" in2="BackgroundImageFix" result="shape"/>
<feColorMatrix in="SourceAlpha" type="matrix" values="0 0 0 0 0 0 0 0 0 0 0 0 0 0 0 0 0 0 127 0" result="hardAlpha"/>
<feOffset dy="4"/>
<feGaussianBlur stdDeviation="7"/>
<feComposite in2="hardAlpha" operator="arithmetic" k2="-1" k3="1"/>
<feColorMatrix type="matrix" values="0 0 0 0 0 0 0 0 0 0 0 0 0 0 0 0 0 0 0.15 0"/>
<feBlend mode="normal" in2="shape" result="effect1_innerShadow_1228_7644"/>
</filter>
</defs>
</svg>
