<svg width="74" height="74" viewBox="0 0 74 74" fill="none" xmlns="http://www.w3.org/2000/svg">
<rect width="74" height="74" fill="white"/>
<g filter="url(#filter0_i_1228_7652)">
<path d="M66.1835 9.29572C62.5256 6.5261 8.00635 23.9871 7.03192 29.2977C6.07998 34.4922 26.7341 45.4133 26.9403 50.0643C26.9403 50.0643 27.3525 50.3641 27.8622 50.7577C32.4982 47.973 46.174 65.6739 53.2348 65.2092C60.4981 64.7332 69.8376 12.0541 66.1797 9.29198L66.1835 9.29572Z" fill="#2F99C6"/>
<path d="M20.1942 64.1261L18.4065 63.0917C18.4815 62.893 18.6201 62.4546 19.6096 60.7118C21.7308 56.9903 24.2868 53.3811 26.6929 49.9182C32.933 41.1745 36.1486 37.2956 40.6122 33.158C41.954 31.9175 51.9119 22.8028 53.7933 21.195C45.3682 30.3921 38.7571 36.4148 36.1299 39.6529C31.5988 45.2446 31.0778 46.4477 28.1208 51.0088C25.1675 55.5698 22.3492 59.7524 20.1942 64.1261Z" fill="#0D314A"/>
</g>
<defs>
<filter id="filter0_i_1228_7652" x="7" y="9" width="60" height="60.2182" filterUnits="userSpaceOnUse" color-interpolation-filters="sRGB">
<feFlood flood-opacity="0" result="BackgroundImageFix"/>
<feBlend mode="normal" in="SourceGraphic" in2="BackgroundImageFix" result="shape"/>
<feColorMatrix in="SourceAlpha" type="matrix" values="0 0 0 0 0 0 0 0 0 0 0 0 0 0 0 0 0 0 127 0" result="hardAlpha"/>
<feOffset dy="4"/>
<feGaussianBlur stdDeviation="7"/>
<feComposite in2="hardAlpha" operator="arithmetic" k2="-1" k3="1"/>
<feColorMatrix type="matrix" values="0 0 0 0 0 0 0 0 0 0 0 0 0 0 0 0 0 0 0.15 0"/>
<feBlend mode="normal" in2="shape" result="effect1_innerShadow_1228_7652"/>
</filter>
</defs>
</svg>
