<svg width="74" height="74" viewBox="0 0 74 74" fill="none" xmlns="http://www.w3.org/2000/svg">
<rect width="74" height="74" fill="white"/>
<g filter="url(#filter0_i_1228_7650)">
<path d="M35.4277 28.2154C35.4277 28.2154 35.5903 23.4532 33.9689 19.7645C32.4571 16.3176 25.8619 13.8042 23.0575 15.6411C19.9205 17.6895 18.7111 25.4375 22.604 28.3628C27.1204 31.753 30.6165 32.1234 30.6165 32.1234L35.4277 28.2154ZM43.2966 31.4506C43.2966 31.4506 47.8547 30.0673 50.8178 27.3385C53.5919 24.795 53.8414 17.7424 51.1995 15.6788C48.2439 13.3734 40.5263 14.734 39.0145 19.3638C37.2646 24.7307 38.0394 28.1587 38.0394 28.1587L43.2966 31.4506ZM42.0154 39.6559C42.0154 39.6559 44.8122 43.5109 48.3573 45.4234C51.6682 47.2148 58.4107 45.1475 59.4992 41.9765C60.7162 38.4313 56.9103 31.5753 52.0423 31.6585C46.3958 31.7605 43.41 33.6125 43.41 33.6125L42.0154 39.6559ZM33.9046 40.9409C33.9046 40.9409 30.9188 44.6523 30.0042 48.5792C29.15 52.2453 32.9144 58.2056 36.263 58.421C40.0047 58.6629 45.6172 53.1902 44.2528 48.5112C42.673 43.0914 40.0992 40.699 40.0992 40.699L33.9046 40.9409ZM29.8795 34.221C29.8795 34.221 25.3441 32.7734 21.3529 33.3328C17.6226 33.8581 13.416 39.5198 14.4214 42.7172C15.5439 46.2926 22.672 49.5581 26.5422 46.6026C31.0322 43.1783 32.3399 39.9129 32.3399 39.9129L29.8795 34.221Z" fill="#2F99C6"/>
<path d="M40.5603 29.1791C41.9668 30.1647 42.9362 31.6573 43.2646 33.343C43.5929 35.0287 43.2547 36.776 42.321 38.2174C41.3874 39.6588 39.931 40.6819 38.2584 41.0714C36.5857 41.461 34.8272 41.1865 33.3528 40.3059C31.9463 39.3204 30.9769 37.8278 30.6485 36.1421C30.3201 34.4564 30.6584 32.7091 31.5921 31.2676C32.5257 29.8262 33.9821 28.8032 35.6547 28.4136C37.3273 28.0241 39.0858 28.2985 40.5603 29.1791Z" fill="#0E3855"/>
</g>
<defs>
<filter id="filter0_i_1228_7650" x="14.2704" y="14.5788" width="45.4576" height="47.8499" filterUnits="userSpaceOnUse" color-interpolation-filters="sRGB">
<feFlood flood-opacity="0" result="BackgroundImageFix"/>
<feBlend mode="normal" in="SourceGraphic" in2="BackgroundImageFix" result="shape"/>
<feColorMatrix in="SourceAlpha" type="matrix" values="0 0 0 0 0 0 0 0 0 0 0 0 0 0 0 0 0 0 127 0" result="hardAlpha"/>
<feOffset dy="4"/>
<feGaussianBlur stdDeviation="7"/>
<feComposite in2="hardAlpha" operator="arithmetic" k2="-1" k3="1"/>
<feColorMatrix type="matrix" values="0 0 0 0 0 0 0 0 0 0 0 0 0 0 0 0 0 0 0.15 0"/>
<feBlend mode="normal" in2="shape" result="effect1_innerShadow_1228_7650"/>
</filter>
</defs>
</svg>
