<svg width="74" height="74" viewBox="0 0 74 74" fill="none" xmlns="http://www.w3.org/2000/svg">
<rect width="74" height="74" fill="white"/>
<g filter="url(#filter0_i_1228_7586)">
<path d="M10.3984 46.713C12.2978 46.713 13.0781 46.0824 13.8383 45.5565C14.5984 45.0298 15.378 44.4006 17.2781 44.4006C19.1775 44.4006 19.8511 44.9896 20.718 45.5565C21.5842 46.1233 22.2577 46.713 24.1571 46.713C26.0572 46.713 26.8167 46.0665 27.597 45.5565C28.3773 45.0465 29.1375 44.4006 31.0369 44.4006C32.937 44.4006 33.4428 44.9591 34.4767 45.5565C35.5106 46.1545 36.0172 46.713 37.9166 46.713C39.8167 46.713 40.5963 46.0824 41.3565 45.5565C42.1166 45.0298 42.8969 44.4006 44.7963 44.4006C46.6957 44.4006 47.3693 44.9896 48.2362 45.5565C49.1024 46.1233 49.7759 46.713 51.676 46.713C53.5755 46.713 54.4202 46.3541 55.5185 45.1996C56.6176 44.0451 56.2628 42.8858 65.0897 38.3358C67.0307 37.1231 66.2802 36.7136 65.044 37.4946L59.273 40.0273L50.7565 42.8477C53.4722 40.3683 61.4648 38.2409 66.1437 35.6409C67.637 34.169 66.8713 32.7582 66.1437 31.8483C65.0384 30.4381 63.5118 30.4229 61.5875 30.4991C60.4233 30.6883 59.169 30.3924 57.7505 28.7702C56.3438 27.4092 55.1208 26.9574 54.082 27.0031C52.1029 27.0863 50.8369 28.9316 50.2908 29.407C49.8321 29.9628 49.3733 30.5594 48.099 30.5836C44.4284 31.1075 40.502 32.1137 36.2937 33.799C29.8491 33.5149 24.2569 34.4525 19.919 37.1668C17.5366 37.9235 15.0489 39.1487 12.4399 41.1291C11.3422 41.7112 10.9153 42.8089 8.73182 42.6883C7.96263 42.628 6.7548 43.8164 7.04377 45.2599C7.33273 46.704 8.49899 46.713 10.3977 46.713H10.3984Z" fill="#2F99C6" stroke="#2F99C6" stroke-width="0.143" stroke-linecap="round" stroke-linejoin="round"/>
<path d="M31.5794 35.327C27.4009 35.6444 22.7095 36.0754 18.9987 37.1841M36.6485 35.3797C39.306 33.9563 43.6557 32.0763 48.099 32.1075L36.6485 35.3797ZM36.487 33.4574C35.9409 33.6791 35.1239 34.079 34.5661 34.3257L36.487 33.4574Z" stroke="white" stroke-width="0.547" stroke-linecap="round"/>
<path d="M62.6435 32.9494C63.3712 32.9889 63.9325 33.334 63.7357 33.5405C63.349 33.8385 62.0829 33.9009 61.8397 33.4546C61.7184 33.0118 62.1848 32.9764 62.6401 32.9487L62.6435 32.9494ZM53.5817 33.5405C53.8547 33.5149 54.1201 33.5357 54.3786 33.5405C55.258 33.5523 56.0763 33.7858 56.6986 34.6777C57.2752 35.5044 57.5856 36.5833 56.4859 38.0503C55.8851 38.8347 54.8214 39.297 53.0737 39.315C51.0364 39.3732 49.6838 38.2755 49.6159 36.9963C49.5473 36.0594 49.9416 33.9549 52.7356 33.6237C53.0176 33.5939 53.3038 33.5634 53.5775 33.5405H53.5817Z" fill="white"/>
<path d="M51.304 36.9457C50.7773 36.4551 52.6185 35.1669 55.5262 35.4018C56.3771 35.5349 54.7071 36.8882 54.0959 37.0095C52.5298 37.6241 51.8299 37.4377 51.3033 36.9457H51.304Z" fill="#2F99C6" stroke="#2F99C6" stroke-width="0.547"/>
<path d="M53.0308 32.395C48.2528 32.2793 48.1246 36.1717 48.2632 37.3137" stroke="white" stroke-width="0.547" stroke-linecap="round"/>
</g>
<defs>
<filter id="filter0_i_1228_7586" x="6.92847" y="26.9285" width="60.1431" height="23.8561" filterUnits="userSpaceOnUse" color-interpolation-filters="sRGB">
<feFlood flood-opacity="0" result="BackgroundImageFix"/>
<feBlend mode="normal" in="SourceGraphic" in2="BackgroundImageFix" result="shape"/>
<feColorMatrix in="SourceAlpha" type="matrix" values="0 0 0 0 0 0 0 0 0 0 0 0 0 0 0 0 0 0 127 0" result="hardAlpha"/>
<feOffset dy="4"/>
<feGaussianBlur stdDeviation="7"/>
<feComposite in2="hardAlpha" operator="arithmetic" k2="-1" k3="1"/>
<feColorMatrix type="matrix" values="0 0 0 0 0 0 0 0 0 0 0 0 0 0 0 0 0 0 0.15 0"/>
<feBlend mode="normal" in2="shape" result="effect1_innerShadow_1228_7586"/>
</filter>
</defs>
</svg>
