<svg xmlns="http://www.w3.org/2000/svg" width="74" height="74" viewBox="0 0 19.579 19.579">
  <path d="M0 0h19.579v19.579H0Z" style="fill:#fff;fill-opacity:.989964;stroke:none"/>
  <path d="M3.724.712c-.135.415-.289.93-.35 1.274a4.078 4.078 0 0 0-.057.77c0 .053.044.057.047.11.002.043-.036.14-.03.192.005.043.034.097.04.143.005.034-.013.06-.007.095.005.034.04.047.045.08.015.09-.018.146-.003.22.015.077.061.13.057.24-.077.744-.187 1.95-.102 2.343a.7.7 0 0 0-.038.315c-.055.09-.046.267-.026.337 0 0-.137.502-.185 1-.005.057.04.13.025.184-.03.118-.04.24-.03.361.018.14.123.437.123.437s-.23.87-.255 1.314c-.016.29.06.864.09.873.044.014.09-.07.09-.07s.067.163.125.195c.616.33 1.088-.12 1.466-.433.356-.296.635-.94.765-1.509.1-.44.182-1.366.24-1.894 0 0 .315-.602.425-.91.15-.415.274-1.025.431-1.604.233-.855.477-1.642.477-1.642.408-.712.787-1.39 1.014-2.365" style="fill:#fff;stroke:#0e3855;stroke-width:.238123"/>
  <path d="M3.724.712c-.135.415-.289.93-.35 1.274a4.082 4.082 0 0 0-.057.77c0 .053.044.057.047.11.002.043-.036.14-.03.192.005.043.034.097.04.143.005.034-.013.06-.007.095.005.034.04.047.045.08.015.09-.018.146-.003.22.015.077.061.13.057.24-.077.744-.187 1.95-.102 2.343a.7.7 0 0 0-.038.315c-.055.09-.046.267-.026.337 0 0-.137.502-.185 1-.005.057.04.13.025.184a1.13 1.13 0 0 0-.03.361c.018.14.123.437.123.437s-.23.87-.255 1.314c-.016.29.06.864.09.873.044.014.09-.07.09-.07s.067.163.125.195c.616.33 1.088-.12 1.466-.433.356-.296.635-.94.765-1.509.1-.44.182-1.366.24-1.894 0 0 .315-.602.425-.91.15-.415.274-1.025.431-1.604.233-.855.477-1.642.477-1.642.408-.712.787-1.44 1.014-2.415" style="fill:#fff;stroke:#0e3855;stroke-width:.0650811"/>
  <path d="M3.724.712c-.135.415-.289.93-.35 1.274a4.082 4.082 0 0 0-.057.77c0 .053.044.057.047.11.002.043-.036.14-.03.192.005.043.034.097.04.143.005.034-.013.06-.007.095.005.034.04.047.045.08.015.09-.018.146-.003.22.015.077.061.13.057.24-.077.744-.187 1.95-.102 2.343a.7.7 0 0 0-.038.315c-.055.09-.046.267-.026.337 0 0-.137.502-.185 1-.005.057.04.13.025.184a1.13 1.13 0 0 0-.03.361c.018.14.123.437.123.437s-.23.87-.255 1.314c-.016.29.06.864.09.873.044.014.09-.07.09-.07s.067.163.125.195c.616.33 1.088-.12 1.466-.433.356-.296.635-.94.765-1.509.1-.44.182-1.366.24-1.894 0 0 .315-.602.425-.91.15-.415.274-1.025.431-1.604.233-.855.477-1.642.477-1.642.408-.712.787-1.44 1.014-2.415" style="fill:#fff;stroke:#0e3855;stroke-width:.0650811"/>
  <path d="M11.849.75c0 .083.213.12.365.193.178.109.342.275.463.426.076.094.111.206.15.322.037.108.076.145.11.252.097.301.186.608.223.922.12 1.026-.055 1.98.027 3.068.007.1.07.352.07.352s-.063.115-.074.21c-.087.708.087 1.54.34 2.207.252.663.751 1.586.954 1.824.395.464.948.847 1.557.84.25-.005.507-.163.698-.325.604-.508.156-1.797.144-1.797-.032-.208-.103-.525-.132-.73-.02-.146 0-.2-.013-.35-.04-.45-.02-.696-.026-1.036 0 0 .05-.125.073-.267.02-.11-.054-.18-.032-.294.033-.173-.048-.484-.104-.479.096-.018.182-.13.193-.299.013-.18.054-.29-.003-.418-.032-.074-.134-.13-.134-.13s.12-.062.143-.128c.038-.1.042-.287.076-.44.038-.173.105-.359.153-.53.126-.45.107-.89.247-1.337.18-.57.477-1.475.665-2.045" style="fill:#fff;stroke:#0e3855;stroke-width:.238123"/>
  <path d="M3.324 10.462c.031-.253.06-.36.05-.542-.015-.33-.174-1.015-.185-.973-.052.206-.21.85-.23 1.21-.015.28.06.837.087.847.043.013.088-.07.088-.07-.01-.3.103-.277.19-.472zM3.27 6.943c.136.11.236.277.413.274m.135-.262s-.245-.062-.362-.158a2.509 2.509 0 0 1-.159-.165m.881-.126s-.295-.015-.472-.053a4.259 4.259 0 0 1-.379-.128m.093.05c.25.156.5.32.76.565m-.732-2.945c.286.208.628.035.953-.022M3.374 3.6c.254.213.49.052.731.005m-.312-.838c0-.158.105-.16.247-.255-.314.057-.407-.186-.6-.159" style="fill:#fff;stroke:#0e3855;stroke-width:.0517838"/>
  <path d="M4.564 2.797c-.245-.205-.489-.4-.882-.476m-.086-.598c.316-.107.66.241.856.405M3.895.838s.124-.075.253-.005c.21.114.49.525.49.525" style="fill:#fff;stroke:#0e3855;stroke-width:.0517838"/>
  <path d="M11.717.702c.1.064.205.116.312.152.247.084.485.312.648.515.076.094.111.206.15.322.037.108.076.145.11.252.097.301.186.608.223.922.12 1.026-.055 1.98.027 3.068.007.1.07.352.07.352s-.063.115-.074.21c-.087.708.087 1.54.34 2.207.252.663.751 1.586.954 1.824.395.464.948.847 1.557.84.25-.005.507-.163.698-.325.604-.508.156-1.797.144-1.797-.032-.208-.103-.525-.132-.73-.02-.146 0-.2-.013-.35-.04-.45-.02-.696-.026-1.036 0 0 .05-.125.073-.267.02-.11-.054-.18-.032-.294.033-.173-.048-.484-.104-.479.096-.018.182-.13.193-.299.013-.18.054-.29-.003-.418-.032-.074-.134-.13-.134-.13s.12-.062.143-.128c.038-.1.042-.287.076-.44.038-.173.105-.359.153-.53.126-.45.107-.89.247-1.337.18-.57.494-1.51.682-2.08" style="fill:#fff;stroke:#0e3855;stroke-width:.0666498"/>
  <path d="M16.04 11.045c.25.08.36.091.593.045.603-.508.156-1.797.144-1.797-.085-.23-.145-.367-.222-.646-.04-.142-.1-.37-.25-.394-.36-.06-1.335.63-1.235 1.191.073.41.024.627.203.963.133.252.574.578.767.638zm-.762-3.987c.41.043.82.088 1.165-.204M14.7 6.752s.282-.226.448-.29c.265-.103.84-.14.84-.14m-.065-.326c.238-.13.477-.256.74-.173m-2.115.344c.52-.478 1.063-.662 1.61-.81m-1.933.157c.443-.147.871-.302 1.194-.508m-.098-.227c.221-.07.388-.143 1.066-.183m-.373 1.94c.04-.247.31-.304.526-.405m-1.232 1.435c.25-.035.42.01.83-.19m-.956 1.382c.041-.153.06-.275.24-.628" style="fill:#fff;stroke:#0e3855;stroke-width:.0666498"/>
  <path d="M15.257 5.896c.285-.18.285-.28 1.04-.594m-.132 3.864c.2-.086.333-.24.31-.54-.01-.154-.033-.343-.17-.373-.244-.04-.767.26-1.05.634.178.441.686.375.91.28z" style="fill:#fff;stroke:#0e3855;stroke-width:.0666498"/>
  <path d="M12.338.714c.167.32.305.57.305.57m.477.907s-.072-.84-.106-1.479" style="fill:#fff;stroke:#0e3855;stroke-width:.0452897"/>
  <g style="fill:#0e3855">
    <path d="M142.065 279.344h3.734v.104h-3.734z" style="color:#000;fill:#0e3855;stroke:none;stroke-width:1.34203" transform="matrix(1.91474 0 0 .32303 -265.804 -78.004)"/>
    <path d="M141.395 278.674v1.445h5.074v-1.445z" style="color:#000;fill:#0e3855;stroke:none" transform="matrix(1.91474 0 0 .32303 -265.804 -78.004)"/>
  </g>
</svg>
