<svg width="75" height="74" viewBox="0 0 75 74" fill="none" xmlns="http://www.w3.org/2000/svg">
<rect width="74" height="74" transform="translate(0.098999)" fill="white"/>
<g filter="url(#filter0_i_1228_7667)">
<path d="M46.6181 35.9736C45.916 35.4656 44.7451 32.4195 45.1611 32.2405C46.0429 31.858 47.5078 33.072 48.0744 33.5874C49.2471 33.1446 50.18 33.1827 51.1462 33.1606C51.7468 32.0185 52.3687 30.9035 53.1485 30C53.9818 31.4361 54.0303 32.778 53.74 34.0093C53.6404 34.6415 53.666 35.1735 53.8087 35.6231C55.2328 39.6096 55.1338 42.4491 54.7646 45.3932C54.3978 48.3379 52.7544 49.4135 51.397 49.9566C50.9646 50.8717 51.2932 52.1805 51.4243 53.389C51.8404 55.7291 52.3056 57.9308 53.4941 58.1578C55.3446 58.9401 54.0528 59.9659 53.4285 59.9991C53.1491 60.0102 51.4183 59.5834 51.2652 59.0508C51.145 57.1043 50.3348 55.2248 49.6285 53.3336C49.3546 52.4744 48.6702 52.1233 48.8779 50.6614C46.2828 51.5372 46.8355 54.325 46.4687 55.2691C46.4304 56.4308 46.3703 57.5907 46.7426 58.7513C46.9509 59.2353 47.2904 59.1756 47.608 59.1892C49.1081 59.5582 48.604 61.1609 47.8157 60.9419C47.8157 60.9419 46.1784 61.3325 45.4721 60.0877C45.2698 59.9954 44.7657 58.7513 44.7439 58.5908C45.0506 58.8761 44.6892 52.2493 43.6981 50.8939L40.7848 50.8262C40.4453 51.8016 39.7609 52.6528 38.2158 53.1989C37.6863 53.4449 37.747 53.7463 37.8757 54.0532C38.3148 55.7279 38.3136 57.7943 39.8325 57.6018C41.3502 57.4081 41.1024 59.5342 39.6485 59.2377C39.3582 59.5145 37.2362 59.0016 37.5551 58.4782C37.0182 56.9419 36.5913 55.4062 35.8904 53.8699C35.8412 53.3988 35.871 52.9492 36.301 52.6011C37.0346 52.2094 36.98 51.4105 36.9399 50.6183C36.1018 51.8441 35.0949 53.0359 32.5229 53.9585C30.9238 54.0532 30.4805 54.929 30.1331 55.8718C29.1529 58.1639 29.4978 58.4794 29.8841 58.7273C31.9708 59.493 30.1033 60.3577 29.4304 60.1123C27.518 59.7906 27.6231 58.9751 27.6558 58.1768C28.1818 56.7297 28.5911 55.3878 28.6348 54.373C28.729 53.8238 28.5747 53.253 29.4073 52.7592C32.2763 51.7112 31.9502 50.0365 32.32 48.5851V45.7819C30.1738 47.6656 27.4251 48.5679 24.4911 49.1706C21.4764 49.3699 19.8804 48.6638 18.4823 47.8335C16.3719 46.4289 15.4215 44.3938 15 42.0721C16.5638 43.6705 19.069 44.3624 24.3089 42.4171C27.1979 41.7086 30.0256 40.1613 33.0257 41.0795C33.8061 41.7615 34.4663 41.9331 34.937 41.2621C35.95 40.3193 37.1494 40.4251 38.2389 40.569C39.3284 40.7129 39.92 40.8796 40.4016 40.7578C42.2964 40.347 43.245 40.2252 45.0208 40.6188C46.7984 41.0069 47.1239 40.3636 46.8428 39.5598C46.2628 38.4454 46.1753 36.9706 46.6393 35.9613L46.6181 35.9736Z" fill="#2F99C6"/>
</g>
<defs>
<filter id="filter0_i_1228_7667" x="15" y="30" width="40" height="35" filterUnits="userSpaceOnUse" color-interpolation-filters="sRGB">
<feFlood flood-opacity="0" result="BackgroundImageFix"/>
<feBlend mode="normal" in="SourceGraphic" in2="BackgroundImageFix" result="shape"/>
<feColorMatrix in="SourceAlpha" type="matrix" values="0 0 0 0 0 0 0 0 0 0 0 0 0 0 0 0 0 0 127 0" result="hardAlpha"/>
<feOffset dy="4"/>
<feGaussianBlur stdDeviation="7"/>
<feComposite in2="hardAlpha" operator="arithmetic" k2="-1" k3="1"/>
<feColorMatrix type="matrix" values="0 0 0 0 0 0 0 0 0 0 0 0 0 0 0 0 0 0 0.15 0"/>
<feBlend mode="normal" in2="shape" result="effect1_innerShadow_1228_7667"/>
</filter>
</defs>
</svg>
