<svg width="74" height="74" viewBox="0 0 74 74" fill="none" xmlns="http://www.w3.org/2000/svg">
<g clip-path="url(#clip0_1228_7621)">
<rect width="74" height="74" fill="white"/>
<g filter="url(#filter0_i_1228_7621)">
<path d="M117 37.5007C117 43.2947 102.36 48 87.2945 48C72.2288 48 60 43.2947 60 37.5007C60 31.7053 72.2288 27 87.2945 27C102.36 27 117 31.7053 117 37.5007Z" fill="white" stroke="#12466A" stroke-width="1.13384" stroke-linecap="round"/>
<path d="M19.3296 36.4855C19.3296 51.0996 4.6052 62.9676 -10.5477 62.9676C-25.7005 62.9676 -38 51.0996 -38 36.4855C-38 21.8679 -25.7005 10 -10.5477 10C4.6052 10 19.3296 21.8679 19.3296 36.4855Z" fill="white" stroke="#12466A" stroke-width="1.13384" stroke-linecap="round"/>
<path d="M66.5823 37.3878C66.5823 52.143 52.2261 64.1255 37.4522 64.1255C22.6783 64.1255 10.6864 52.143 10.6864 37.3878C10.6864 22.6291 22.6783 10.6467 37.4522 10.6467C52.2261 10.6467 66.5823 22.6291 66.5823 37.3878Z" fill="white" stroke="#12466A" stroke-width="1.13384"/>
<path d="M16.9966 30.5472C16.1571 31.1369 13.9551 30.6841 13.3184 31.2352M34.6458 54.5894C32.979 54.8772 29.7874 56.0494 28.3599 56.0494L34.6458 54.5894ZM27.0541 18.4805C26.8716 18.0769 23.3636 16.7572 22.8364 16.7572L27.0541 18.4805ZM26.0564 22.0676C25.1237 22.0676 24.1423 22.1483 23.2176 21.9974C22.0497 21.8113 20.8898 21.5341 19.6935 21.5341L26.0564 22.0676ZM23.8341 25.9143C22.2119 25.9143 20.7236 25.5984 19.1582 25.3878C18.6796 25.3176 18.2619 25.0544 17.7793 25.0544L23.8341 25.9143ZM21.8388 28.6379C20.7398 28.6379 19.4745 28.7994 18.3917 28.6379C17.7266 28.5396 16.9885 28.3045 16.3194 28.3045L21.8388 28.6379ZM20.1517 32.0214H15.4758H20.1517ZM19.8476 35.475C18.4809 35.475 16.8952 35.675 15.5488 35.475C14.535 35.3206 13.7239 35.0749 12.7141 35.0749L19.8476 35.475ZM19.0811 39.255H12.56H19.0811ZM18.7729 42.9087H12.487H18.7729ZM18.7729 44.8988C17.2399 45.2954 14.9162 45.8956 13.2535 45.8956L18.7729 44.8988ZM20.0747 47.8856C18.6553 49.1983 16.0558 50.4057 13.9429 50.4057L20.0747 47.8856ZM21.1494 51.7359C19.73 51.7359 18.124 52.2764 16.7776 52.6625C16.5911 52.7186 15.3217 52.866 15.3217 52.9959L21.1494 51.7359ZM20.7682 54.1892C19.1744 54.9544 17.6293 55.881 16.0112 56.5794C15.8449 56.6496 15.7029 56.5162 15.5529 56.6461L20.7682 54.1892ZM25.9064 59.1696C24.3653 59.8365 22.5526 61.0404 20.9993 61.4264C20.7033 61.4966 19.9165 61.8827 19.6164 61.623L25.9064 59.1696ZM27.0541 54.0559C26.6485 54.0559 25.6793 54.9263 25.367 55.186C24.6451 55.7862 21.8712 57.1094 20.9182 57.1094L27.0541 54.0559ZM30.6593 57.2428C29.0737 57.7938 27.0297 58.9696 25.294 58.9696L30.6593 57.2428ZM28.437 61.1597C27.0784 62.1249 24.9696 64.0132 22.9905 64.0132L28.437 61.1597ZM31.8111 63.4832C30.4728 64.4449 26.8554 65.74 25.217 65.74L31.8111 63.4832ZM31.1217 59.2363C30.3795 59.2363 29.3778 59.0854 28.6641 59.2363C27.7313 59.4294 26.4052 59.9664 25.5982 59.9664L31.1217 59.2363ZM31.1217 61.623C30.5661 61.8968 28.3964 63.3498 27.3623 63.3498L31.1217 61.623ZM30.2011 15.1638C29.3251 14.2723 25.3305 13.5703 23.9152 13.5703L30.2011 15.1638ZM21.9199 15.2972C19.8273 15.2972 17.9618 14.3004 15.857 14.3004L21.9199 15.2972ZM19.9246 16.5572H16.1612C15.7151 16.5572 15.4312 16.6976 15.0095 16.7572C14.9284 16.7678 14.4255 16.9573 14.6283 16.9573L19.9246 16.5572ZM26.4417 20.2074C24.9534 20.2074 23.5867 18.9684 22.147 18.7473C21.6928 18.6771 21.1575 18.7473 20.6871 18.7473L26.4417 20.2074ZM23.9111 14.1003C24.0166 14.1003 22.6012 13.3422 22.3782 13.2404C22.2971 13.2018 18.3957 11.461 18.3876 11.4469L23.9111 14.1003ZM29.9699 13.0404C29.8118 13.0404 29.0047 12.0541 28.8182 11.9102C27.857 11.1837 26.1416 10.1869 24.9088 10.1869L29.9699 13.0404ZM31.2717 18.1506C29.5238 16.6379 27.6583 14.8304 24.9858 14.8304L31.2717 18.1506ZM30.8905 21.6008C29.5117 21.6008 28.3518 21.162 27.0541 20.8707C26.2308 20.6882 25.2291 20.804 24.3694 20.804L30.8905 21.6008ZM28.437 24.6543C27.4515 24.6543 26.5593 24.2226 25.5982 24.0576C24.7749 23.9172 23.7611 24.0576 22.9135 24.0576L28.437 24.6543ZM28.437 28.5045C25.5455 28.5045 22.8121 28.0412 19.9206 28.0412L28.437 28.5045ZM24.7587 30.4279C23.0676 30.4279 21.3643 30.3647 19.6935 30.3647L24.7587 30.4279ZM22.9135 33.4814C21.7293 33.4814 20.4924 33.5692 19.3082 33.4814C18.4728 33.4218 17.7469 33.1515 16.9317 33.1515L22.9135 33.4814ZM23.2987 36.3384C21.2791 36.9561 20.026 37.9283 17.6212 37.9283L23.2987 36.3384ZM23.3758 39.8552C20.9953 40.5396 18.5863 41.375 16.0071 41.375C15.8287 41.375 15.7435 41.5785 15.5529 41.5785L23.3758 39.8552ZM22.07 43.3054C21.2305 44.3969 19.3934 45.0146 18.0226 45.4112C17.4747 45.572 16.8976 45.6457 16.3194 45.6288C16.218 45.6288 16.1653 45.5937 16.1653 45.6955L22.07 43.3054ZM24.5235 46.5589C23.9841 46.9029 23.0554 47.6154 22.3011 47.8856C21.1291 48.3068 18.4282 49.3457 17.0858 49.3457L24.5235 46.5589ZM27.1838 50.5741C25.8612 51.2908 24.5142 51.9732 23.1446 52.6204C22.7878 52.7853 21.8915 52.9222 21.6725 53.2276L27.1838 50.5741ZM23.5259 54.3893C22.1967 54.95 20.916 55.5928 19.6935 56.3127C19.3893 56.4882 18.4485 56.7233 18.3146 57.0427L23.5259 54.3893ZM34.6458 60.0997C33.9402 60.7104 32.61 61.6897 31.657 61.6897L34.6458 60.0997ZM37.1805 62.353C36.1301 63.0339 33.2305 65.1433 31.8881 65.1433L37.1805 62.353ZM42.3187 62.0231C41.467 62.7602 39.2609 64.9433 37.9469 64.9433L42.3187 62.0231ZM33.1129 11.7137C32.6384 11.303 32.2815 10.7941 31.8111 10.3834C31.3528 9.99035 30.7161 9.73062 30.2011 9.39017C29.7955 9.11992 29.1386 9.26733 28.8222 8.99006L33.1129 11.7137ZM36.4099 11.647C36.4099 11.0082 33.5793 9.12343 32.9628 9.12343L36.4099 11.647ZM38.3282 15.4305C36.7749 14.0863 34.6215 13.1737 32.4235 13.1737L38.3282 15.4305ZM37.1805 18.2173C37.1805 17.5715 36.341 17.5048 35.8016 17.1538C34.5647 16.3571 32.5573 15.4972 30.9676 15.4972L37.1805 18.2173ZM37.0264 19.8774C35.1122 19.8774 33.3968 19.1965 31.5799 19.2106C31.1338 19.2176 29.8929 19 29.8929 19.544L37.0264 19.8774ZM35.7205 22.6642C34.3498 22.6642 30.4931 22.3378 29.4346 22.7976L35.7205 22.6642ZM33.8023 25.3878C30.8134 26.2477 27.1717 25.9143 24.0652 25.9143L33.8023 25.3878ZM33.4981 27.8412L27.5934 27.8482C27.3096 27.8482 27.0662 27.6411 26.8229 27.6411L33.4981 27.8412ZM32.3464 29.9646C31.5394 29.9435 30.7688 30.1576 29.9699 30.2314C27.6827 30.4384 25.4806 30.3998 23.2987 29.8312L32.3464 29.9646ZM29.6658 32.3548C27.3298 32.3548 24.9655 32.4846 22.6093 32.4846L29.6658 32.3548ZM27.5934 34.6783C25.5576 35.3381 23.1 35.6049 20.9223 35.6049L27.5934 34.6783ZM29.2034 36.9351C29.0331 37.0825 24.3085 38.3565 24.0733 38.3951C23.392 38.5145 22.7513 38.6198 22.07 38.7251C21.8794 38.7567 21.34 38.9251 21.5346 38.9251L29.2034 36.9351ZM27.5934 41.0486C26.247 41.9822 21.632 43.372 19.8476 43.372L27.5934 41.0486ZM27.0541 44.7654C25.9186 45.0076 24.8844 45.6359 23.757 45.9588C23.4772 46.0395 22.2646 46.1237 22.147 46.2255L27.0541 44.7654ZM25.1399 49.279C24.0774 49.6651 22.7999 50.3039 21.6117 50.4057C21.2143 50.4408 19.8354 50.2828 19.5394 50.539L25.1399 49.279ZM30.6593 50.8058C29.1102 51.9254 26.6364 53.5259 24.6005 53.5259L30.6593 50.8058ZM31.2717 53.2591C30.0632 54.656 28.4045 55.5475 26.6729 56.3829C26.4376 56.4917 24.6776 56.962 24.6776 57.0427L31.2717 53.2591ZM35.1081 58.2395C34.4187 58.6361 33.7374 59.1135 33.0399 59.4996C32.3707 59.8681 31.511 59.9909 30.8094 60.2963L35.1081 58.2395ZM36.7952 64.4133C35.9436 65.1503 32.4397 67 31.1987 67L36.7952 64.4133ZM35.4164 61.5563C34.2687 62.2653 32.3342 63.1498 30.8905 63.1498L35.4164 61.5563ZM31.734 43.5054C30.9919 43.5054 30.2741 43.8108 29.5117 43.8353C28.566 43.8753 27.6186 43.8753 26.6729 43.8353C26.0362 43.8002 25.4481 43.5721 24.8317 43.5721L31.734 43.5054ZM32.5005 45.8289C31.6367 45.8289 30.9554 46.2044 30.124 46.2781C28.8182 46.3905 27.4556 46.2922 26.1335 46.2922L32.5005 45.8289ZM31.9652 47.289C30.3309 48.1875 28.733 48.3665 26.827 48.549C26.2105 48.6087 25.5982 48.6929 24.9858 48.749C24.7763 48.7704 24.5706 48.814 24.3734 48.8789L31.9652 47.289ZM36.7181 56.4495C35.8138 56.4495 34.9257 56.9409 34.0335 57.0462C32.9653 57.1649 31.8902 57.2305 30.8135 57.2428L36.7181 56.4495ZM31.5799 40.1185H27.2082C27.0379 40.1185 25.8293 40.0412 25.8293 40.3185L31.5799 40.1185ZM41.244 20.0073C39.5813 18.5683 37.4765 18.3507 35.2623 18.3507L41.244 20.0073ZM41.7793 15.1638C40.8101 14.2161 35.5826 13.3036 33.9564 13.3036C33.1534 13.3036 31.7259 13.1035 31.3488 13.9705L41.7793 15.1638ZM39.7111 11.7137C39.78 10.5554 38.7418 9.21468 38.2511 8.19333C38.0889 7.8599 37.659 7 37.1805 7L39.7111 11.7137ZM44.6181 12.2436C44.6181 11.9909 44.683 11.6926 44.6181 11.4469C44.4478 10.7941 42.6715 8.3267 41.9334 8.3267L44.6181 12.2436ZM44.7722 15.2305C44.7722 14.8444 42.6958 13.0404 42.0105 13.0404L44.7722 15.2305ZM43.2352 17.1538C41.5603 17.1538 40.1288 16.0272 38.4093 16.0272L43.2352 17.1538ZM39.8611 23.0608C38.4214 23.6364 33.5752 23.2328 31.8111 23.0608H39.8611ZM38.0199 25.6511C36.0733 25.8932 34.1592 26.0477 32.1923 26.0477L38.0199 25.6511ZM38.174 29.2346C36.1276 29.5687 34.0475 29.7239 31.9652 29.6979L38.174 29.2346ZM37.0264 32.4882C34.9817 32.5409 32.9361 32.562 30.8905 32.5513L37.0264 32.4882ZM36.9493 35.0082H30.2741H36.9493ZM33.6522 37.7283C32.0909 38.181 30.5661 38.5917 28.8952 38.5917L33.6522 37.7283ZM35.4164 41.1819C33.6482 41.6908 31.8881 41.6452 30.047 41.6452L35.4164 41.1819ZM36.0287 43.7686C34.2646 44.3407 32.2491 44.8321 30.3511 44.8321L36.0287 43.7686ZM34.2646 47.9523C33.4292 48.549 29.1548 49.6125 27.8976 49.6125L34.2646 47.9523ZM37.0264 51.4025C36.1991 51.4025 31.8273 51.3217 31.657 51.4691L37.0264 51.4025ZM36.8723 53.2591C35.7165 53.5926 34.2403 53.3925 33.0358 53.3925L36.8723 53.2591ZM39.4028 57.3761C38.3282 58.3799 35.7408 59.833 34.1105 59.833L39.4028 57.3761ZM48.7587 15.2972C48.1098 14.7356 46.293 13.637 45.3846 13.637L48.7587 15.2972ZM48.3734 19.0807C47.6556 18.456 46.1024 16.8239 44.9993 16.8239L48.3734 19.0807ZM46.7634 20.2741C45.6522 19.6247 43.7219 18.0173 42.3187 18.0173L46.7634 20.2741ZM46.4552 23.5943C45.8266 22.9836 44.7398 22.4782 43.8516 22.1974C43.4867 22.0851 43.0649 22.1202 42.7364 21.9307C42.5458 21.8184 41.5482 21.7657 41.5482 22.0676L46.4552 23.5943ZM44.1558 26.8444C41.9131 26.8444 40.2423 24.8543 38.024 24.8543L44.1558 26.8444ZM42.1646 28.3712C40.6438 28.3712 39.2528 27.4621 37.8658 27.0445C37.513 26.9392 36.9534 27.0445 36.5681 27.0445L42.1646 28.3712ZM42.5458 31.2913H36.8682C36.5154 31.2913 35.1163 31.0877 34.7999 31.3615L42.5458 31.2913ZM40.1693 37.265C38.8148 37.265 37.1521 37.5668 35.7976 37.3317C35.4164 37.265 35.2785 36.9982 34.7999 36.9982L40.1693 37.265ZM40.4775 39.3919C38.8554 39.3919 37.1926 39.8482 35.5705 39.9184C34.5526 39.964 33.5184 39.9184 32.5005 39.9184L40.4775 39.3919ZM40.6276 42.3086C38.4214 43.0948 35.611 42.7087 33.267 42.7087L40.6276 42.3086ZM41.6293 45.162C39.3281 45.807 36.9032 46.0551 34.4917 45.8921L41.6293 45.162ZM39.0176 48.4156C38.1984 49.0018 35.7327 49.3808 34.6458 49.1457C34.4025 49.093 34.2078 48.8789 33.9564 48.8789L39.0176 48.4156ZM42.1646 52.7994C40.4694 54.2629 37.9632 55.3194 35.5664 55.3194L42.1646 52.7994ZM43.3123 55.9827C41.5847 56.7303 40.0598 57.7552 38.101 58.0395C37.586 58.1132 34.5728 58.2395 34.4917 58.3062L43.3123 55.9827ZM41.7793 59.9629C40.6235 60.4648 38.5593 61.6054 37.3305 61.7564C36.9655 61.802 34.9338 61.8406 34.7999 61.9564L41.7793 59.9629ZM39.7111 62.4197C38.5918 63.0655 37.878 64.0693 36.7952 64.7432C36.4505 64.9573 35.8341 65.1082 35.5664 65.3399L39.7111 62.4197ZM45.7658 63.0831C45.7658 63.4235 45.3197 63.778 45.0764 64.0132C44.1234 64.9433 43.6691 65.6733 42.1646 65.6733L45.7658 63.0831ZM46.6134 60.8263C45.3562 61.3703 44.1152 61.8897 42.6999 61.8897L46.6134 60.8263ZM44.2775 35.8927C42.4768 34.3343 39.4839 33.7271 37.0182 33.7271L44.2775 35.8927ZM45.121 38.2828H41.39C41.2116 38.2828 40.1653 38.2197 40.1653 38.539L45.121 38.2828ZM44.6789 40.3641C42.7161 40.7046 40.7817 40.9608 38.7905 40.9608L44.6789 40.3641ZM45.3684 43.8494C44.7479 43.8494 44.245 43.9792 43.6489 44.0178C42.1078 44.1231 40.437 44.1688 38.8878 44.0178L45.3684 43.8494ZM45.6644 46.0992C43.7178 46.3238 41.4752 47.3978 39.4799 46.8222L45.6644 46.0992ZM45.4657 47.7558C44.8371 48.2998 43.8273 48.6578 43.0122 48.9491C41.5482 49.4686 40.3802 49.9669 38.7905 49.9669L45.4657 47.7558ZM45.3197 50.7742C43.4826 51.9359 40.9804 51.7078 38.8391 51.7078L45.3197 50.7742ZM46.5444 53.1082C45.0845 54.3717 42.0551 54.7017 40.1166 54.5121C39.6218 54.463 39.0906 54.3015 38.5958 54.3015L46.5444 53.1082ZM46.7918 55.8704C46.3457 56.3337 43.5799 56.8567 42.9148 56.8883C42.4282 56.9128 41.4468 56.7128 41.098 57.0181L46.7918 55.8704ZM49.294 57.9517C49.294 58.2185 48.7344 58.5133 48.5073 58.6748C47.3799 59.4715 46.074 59.9488 44.6303 59.9488L49.294 57.9517ZM55.6732 58.2501C55.6732 59.3627 56.0504 61.7248 55.2312 62.6654C54.9554 62.9848 54.4363 63.0304 54.1524 63.3042L55.6732 58.2501ZM53.8604 59.9488C52.9804 60.7069 52.66 61.9494 52.1896 62.9216C51.9341 63.4481 51.6867 64.1571 51.1108 64.4098L53.8604 59.9488ZM50.1781 61.2229C49.4076 62.5531 48.9736 63.971 48.2153 65.3013C48.0085 65.6628 47.7165 66.6596 47.0838 66.6596L50.1781 61.2229ZM48.2639 60.9245C47.6597 61.9705 47.5583 63.1252 46.9865 64.1114L48.2639 60.9245ZM51.1108 56.253C49.4694 57.0656 47.6037 57.4768 45.7131 57.4428L51.1108 56.253ZM50.9162 54.9368C48.706 55.5159 47.8868 55.53 45.563 55.53L50.9162 54.9368ZM49.7361 51.9605C49.1724 51.943 48.7344 52.0798 48.1909 52.1185C47.2176 52.1816 46.2443 52.1746 45.271 52.1746C45.1088 52.1746 43.7989 52.1746 43.7989 51.964L49.7361 51.9605ZM48.3613 49.5844C47.0473 49.5844 45.5225 49.7423 44.2369 49.4124C43.7989 49.3001 43.2717 48.8614 42.8175 48.8614L48.3613 49.5844ZM48.706 46.9064C47.5299 46.8222 46.3457 46.8643 45.1697 46.8643C44.6952 46.8643 43.7908 46.745 43.4055 47.0749L48.706 46.9064ZM53.8077 52.2167C53.3738 52.2167 52.9155 52.5853 52.4856 52.6835C51.5529 52.9047 50.6039 53.2802 49.6387 53.2802L53.8077 52.2167ZM53.7753 55.7897C53.4022 56.0775 53.1386 56.4706 52.7736 56.7865C52.2383 57.2498 51.5894 57.6043 51.0257 58.0395C50.5918 58.3729 49.878 59.0152 49.2575 59.0152L53.7753 55.7897ZM53.8604 57.7376C53.0656 59.1135 51.2122 59.7242 49.7361 60.2858C49.5536 60.356 49.5982 60.4156 49.3913 60.4156L53.8604 57.7376ZM48.5559 30.1296C46.5079 30.1296 44.6222 29.2381 42.5661 29.2381L48.5559 30.1296ZM46.3011 27.5358C45.1899 26.7918 43.0811 26.5601 41.686 26.5601L46.3011 27.5358ZM48.4018 26.6549C47.4164 25.9775 46.147 25.5247 44.9628 25.2123C44.829 25.1772 43.588 25.0018 43.588 25.1281L48.4018 26.6549ZM50.0808 23.1205C48.8804 22.4958 46.2687 21.4218 44.8777 21.4218L50.0808 23.1205ZM49.294 12.4999C49.294 11.6049 48.6208 11.3276 48.0166 10.7169C47.8219 10.5203 47.4164 9.86751 47.0351 9.86751L49.294 12.4999ZM53.5644 14.4548C53.5644 13.6686 53.8401 12.4191 53.4184 11.7768C53.1751 11.4083 52.7979 11.0398 52.4856 10.7169C52.364 10.5905 52.0395 10.415 52.0395 10.2501L53.5644 14.4548ZM53.4184 17.554C52.6479 16.666 51.4839 16.2904 50.4214 15.7289C50.3038 15.6657 49.0994 14.9567 49.0994 15.3463L53.4184 17.554ZM52.9277 19.9336C52.2301 19.0456 50.3038 17.8032 49.148 17.4697C48.8439 17.382 48.4343 17.1293 48.1179 17.1293L52.9277 19.9336ZM51.8489 22.3132C51.192 21.6955 49.5211 21.2182 48.6046 20.955C48.4667 20.9128 47.6272 20.618 47.6272 20.8672L51.8489 22.3132ZM50.0808 32.081C49.8172 32.1582 49.5617 32.0915 49.294 32.1266C47.9557 32.2916 46.5566 32.2144 45.198 32.2144C45.0115 32.2144 44.8939 32.081 44.6789 32.081H50.0808ZM51.0135 35.6084C50.0848 35.6084 49.0264 35.7488 48.1179 35.6084C47.4488 35.5031 46.7553 35.2328 46.1024 35.0573C45.2427 34.8222 44.3586 34.6467 43.6975 34.0781L51.0135 35.6084ZM49.5901 39.2164C47.3636 39.6481 45.8956 39.8552 43.6489 39.8552L49.5901 39.2164ZM48.852 37.816C47.6731 37.7204 46.5062 37.536 45.3643 37.265C45.0155 37.1737 44.7438 36.9351 44.387 36.8403C43.7056 36.6613 42.3349 36.5104 41.832 36.0752L48.852 37.816ZM48.5073 41.4697C48.1585 41.6031 47.9638 41.8839 47.6232 41.9962C46.3254 42.4314 44.9182 42.4033 43.5515 42.4033C42.9757 42.4033 42.27 42.4455 41.7347 42.2349L48.5073 41.4697ZM50.4701 44.8251C48.7587 45.141 48.7749 45.1164 46.6945 45.3796C46.4187 45.4147 45.7861 45.4498 45.5184 45.334L50.4701 44.8251ZM53.0737 48.2226C51.8165 49.0158 49.3913 49.6686 47.8219 49.6686L53.0737 48.2226ZM53.8604 50.3916C52.7127 50.9427 51.4596 51.9184 50.1781 51.9184L53.8604 50.3916ZM17.2886 50.9602C17.2886 50.9602 14.3728 52.5537 12.3004 52.5537L17.2886 50.9602ZM18.0551 23.482C18.0551 23.482 13.8577 21.8921 11.2298 21.8921L18.0551 23.482ZM16.4451 26.5355C15.9098 26.2056 12.2274 25.4089 10.9986 25.7388L16.4451 26.5355ZM15.1433 29.5224C15.1433 29.5224 10.7715 28.7923 9.4657 29.1258L15.1433 29.5224ZM14.2227 32.776C14.2227 32.776 9.31565 32.8426 8.46806 32.8426L14.2227 32.776ZM14.4498 40.4729C14.4498 40.4729 9.54275 41.3364 8.69922 41.203L14.4498 40.4729ZM15.0662 43.9898C15.0662 43.9898 9.92802 44.9865 9.16154 44.9865L15.0662 43.9898ZM19.1298 53.4171C17.2886 54.8772 14.4498 54.8105 13.4522 55.0105L19.1298 53.4171ZM23.8827 57.2673C23.0392 57.7973 20.4356 59.5241 17.978 59.5908L23.8827 57.2673ZM16.291 47.3767C16.291 47.3767 12.1544 49.5001 10.6134 49.6335L16.291 47.3767ZM14.4498 36.7596C12.4586 37.0228 9.4657 37.3562 8.0828 36.9561L14.4498 36.7596ZM19.8192 19.3685C15.9098 17.4416 12.9169 18.7719 11.9192 19.1685L19.8192 19.3685ZM57.121 19.4493C57.121 18.2559 57.3075 17.0766 57.3075 15.8903C57.3075 15.5639 57.4454 14.704 56.9993 14.511L57.121 19.4493ZM55.219 18.8631C55.219 18.477 55.3609 17.8347 55.1582 17.4838C55.0243 17.2486 54.4241 16.9292 54.4241 16.7397L55.219 18.8631ZM56.5086 22.58C55.1703 21.7131 53.8564 20.6145 52.0882 20.6145L56.5086 22.58ZM55.0203 25.437C53.6901 24.7982 49.9388 24.5455 48.6735 24.5841L55.0203 25.437ZM55.7097 27.1462H51.2933C51.0906 27.1462 50.0645 27.1111 50.0645 27.413L55.7097 27.1462ZM55.2839 29.4838C53.7631 29.747 52.2301 29.7505 50.681 29.7505L55.2839 29.4838ZM54.6675 30.9158C54.1727 30.9719 53.7428 31.1825 53.2562 31.2878C52.0927 31.5371 50.8982 31.6621 49.6996 31.6598L54.6675 30.9158ZM54.1159 33.4674C52.6884 34.0816 50.608 34.4221 49.0872 34.4221L54.1159 33.4674ZM54.9716 36.7596C55.0203 37.0298 53.6333 37.1035 53.3778 37.1281C51.999 37.279 50.0767 37.7142 48.7141 37.7142L54.9716 36.7596ZM54.3633 39.2515C52.7127 39.4902 50.9324 39.9956 49.2697 39.9956L54.3633 39.2515ZM52.8871 41.5891C51.0338 41.912 49.2372 42.4911 47.3069 42.4911L52.8871 41.5891ZM54.1767 44.5654C52.7898 45.2322 50.8837 45.2006 49.3305 45.2006L54.1767 44.5654ZM54.7283 46.6853C53.171 47.1381 51.5853 47.2714 49.9429 47.2714L54.7283 46.6853ZM56.2612 49.3422C54.4809 50.1986 52.7492 50.9357 50.681 50.9357L56.2612 49.3422ZM57.4292 52.4765C55.9855 53.0415 53.463 54.5999 51.9706 54.5999L57.4292 52.4765ZM57.49 55.186C56.6627 55.8985 55.6854 56.4636 54.7323 57.0427C54.5904 57.1234 53.5157 57.8921 53.1953 57.8921L57.49 55.186ZM58.1632 56.3513C58.4796 57.9798 58.7472 59.5908 58.9621 61.2369C58.9784 61.3562 59.0514 62.2969 59.2055 62.2969L58.1632 56.3513ZM59.5745 53.0591C59.5745 53.2837 59.8097 53.3013 59.8827 53.4803C60.0652 53.9435 60.2072 54.4174 60.3694 54.8842C60.637 55.6739 60.8925 56.26 61.1724 56.9901C61.3184 57.3761 61.2859 57.7798 61.4765 58.1553L59.5745 53.0591ZM59.2095 21.3059C60.1098 20.5268 60.8925 17.1889 60.4951 16.1571L59.2095 21.3059ZM61.0466 23.4855C61.3021 23.5136 61.7604 22.8502 61.9064 22.6888C62.4741 22.057 63.1108 20.3723 63.4393 20.0845L61.0466 23.4855ZM59.027 24.9702C59.027 24.1278 59.3069 23.1345 58.9621 22.3168C58.7999 21.9342 58.1673 21.4323 58.1673 21.0953L59.027 24.9702ZM62.3363 26.0336C62.3363 25.5984 63.8814 23.9558 64.1774 23.6435C64.3842 23.4259 65.2197 22.8748 65.2197 22.58L62.3363 26.0336ZM63.4393 27.5709C63.7881 27.3463 64.2018 27.2199 64.5465 26.9883C65.2278 26.5215 65.7144 25.8687 66.3227 25.3422L63.4393 27.5709ZM60.6816 26.9321C59.6597 25.9073 58.2606 24.2822 56.5694 24.2822L60.6816 26.9321ZM59.4529 29.0591C58.7715 28.7923 56.9953 28.0061 56.3302 27.9324C55.949 27.8903 55.5961 27.764 55.219 27.7324C55.146 27.7254 54.4606 27.785 54.6675 27.785L59.4529 29.0591ZM59.6354 30.2278C58.804 30.2278 57.9483 30.2875 57.121 30.1857C56.5857 30.119 56.0828 29.9646 55.5394 29.926C55.0446 29.8944 53.6252 29.7049 53.6252 29.8558L59.6354 30.2278ZM59.027 32.776C56.6911 32.776 55.0811 31.9266 52.8263 31.9266L59.027 32.776ZM59.027 34.952H53.8726H59.027ZM58.0416 37.609C57.3156 37.8687 55.4461 38.5496 54.7283 38.7742C54.4282 38.8725 52.8871 38.9427 52.8871 38.8304L58.0416 37.609ZM58.4106 40.3676C57.0237 40.7678 56.3018 40.9608 54.8175 40.9608C54.412 40.9608 53.9983 40.687 53.5603 40.687L58.4106 40.3676ZM58.0416 42.3858C56.7698 42.7269 55.4473 42.9054 54.1159 42.9158C53.8158 42.9158 52.6681 43.0316 52.7046 42.7052L58.0416 42.3858ZM58.9621 48.2787C57.7617 48.2787 56.5167 48.363 55.3244 48.2682C54.6107 48.2121 53.8888 47.8014 53.1953 47.8014L58.9621 48.2787ZM60.0652 51.3077C59.753 51.3077 59.465 51.4446 59.1446 51.4656C57.6117 51.5709 56.022 51.4656 54.4809 51.4656L60.0652 51.3077ZM57.6725 52.5817C57.6725 53.5294 56.7398 54.635 56.2977 55.4773C56.0269 55.8558 55.7289 56.2192 55.4055 56.5654L57.6725 52.5817ZM61.294 50.2442C61.2616 50.6022 61.5455 50.9006 61.6833 51.234C61.8983 51.7534 62.608 53.6663 63.0095 54.0137L61.294 50.2442ZM63.5651 49.9248C64.222 50.9602 64.1653 52.7818 65.098 53.5891L63.5651 49.9248ZM64.3599 45.5692C64.5505 45.5481 65.3454 47.4294 65.3454 47.8541L64.3599 45.5692ZM62.7053 30.9684C62.7053 30.1331 62.4823 29.6066 61.6671 29.0766C61.367 28.8801 60.3126 28.6309 60.3126 28.2097L62.7053 30.9684ZM61.9672 32.7233C61.2737 32.7233 60.049 31.3966 59.2095 31.3966L61.9672 32.7233ZM62.3971 34.952C61.7077 34.952 61.1115 34.6712 60.4343 34.58C60.0409 34.5309 59.607 34.58 59.2095 34.58L62.3971 34.952ZM62.3971 37.8722C62.3971 37.2404 60.9696 37.5809 60.2477 37.451C59.6272 37.3317 58.6661 37.0193 58.0416 37.2896L62.3971 37.8722ZM62.2754 39.6797C60.9615 39.6797 59.6637 39.8903 58.3498 39.8903L62.2754 39.6797ZM61.1724 41.6417C60.0652 41.6417 58.3701 42.6525 57.2427 42.6525L61.1724 41.6417ZM60.56 43.7651C59.4407 44.1793 58.22 44.5619 56.9993 44.5619L60.56 43.7651ZM60.925 45.7833C59.4296 46.1573 57.8826 46.3544 56.3261 46.3694L60.925 45.7833ZM60.925 48.7034C59.611 49.616 58.3538 50.5145 56.9385 51.3077C56.8777 51.3428 55.8962 51.8201 55.8962 51.5709L60.925 48.7034ZM63.7476 31.7686C63.7476 31.3475 64.7533 29.568 65.0372 29.3258L63.7476 31.7686ZM64.6073 34.8467C64.948 34.4958 66.3552 32.8813 66.9392 32.8813L64.6073 34.8467ZM62.6445 36.3349C62.8554 36.3349 64.149 36.4121 64.3599 36.2296L62.6445 36.3349ZM63.3177 39.1989C64.1166 39.1989 64.6032 38.2442 65.2805 38.2442L63.3177 39.1989ZM63.3177 41.4276C63.3177 41.4136 64.2585 41.0415 64.3843 40.9959C65.2359 40.7011 66.0875 39.9956 67 39.9956L63.3177 41.4276ZM62.7053 43.2878C63.7192 43.2878 65.0656 41.8558 65.9578 41.8558L62.7053 43.2878ZM60.925 47.1661C60.925 46.3659 63.0743 44.9655 63.0743 43.9792L60.925 47.1661ZM62.3363 49.1316C62.7621 48.5771 63.1352 48.0436 63.1352 47.3767L62.3363 49.1316ZM37.5495 60.4402C37.4968 60.033 38.9973 59.7628 39.3298 59.6435C40.8101 59.11 42.2092 58.394 43.6854 57.8394C43.9774 57.7271 44.5127 57.4147 44.8533 57.4147L37.5495 60.4402ZM14.4823 20.8813C15.9828 20.8813 16.7209 21.0918 17.9821 21.9974C18.339 22.2536 18.5985 22.5589 19.0243 22.7414L14.4823 20.8813ZM33.3156 21.3586C34.6053 21.3586 35.8462 20.9409 37.1805 21.148C37.9794 21.2708 38.6485 21.8921 39.4515 21.8921L33.3156 21.3586ZM13.44 27.5709C11.9476 27.5709 10.4633 27.413 8.96282 27.413L13.44 27.5709ZM13.9916 23.8014C13.221 23.8014 11.6475 22.8538 11.169 23.2749L13.9916 23.8014ZM10.9257 30.5999C10.0983 30.5999 9.29537 30.8035 8.46806 30.8631C8.20852 30.8842 7.61642 30.7508 7.42582 30.9158L10.9257 30.5999ZM10.1876 35.4294H7H10.1876ZM12.1504 47.1661C11.1284 47.3872 10.0821 47.8014 9.02366 47.8014L12.1504 47.1661Z" stroke="#2F99C6" stroke-width="1.13384" stroke-linecap="round"/>
</g>
</g>
<defs>
<filter id="filter0_i_1228_7621" x="-38.5669" y="6.43307" width="156.134" height="65.1339" filterUnits="userSpaceOnUse" color-interpolation-filters="sRGB">
<feFlood flood-opacity="0" result="BackgroundImageFix"/>
<feBlend mode="normal" in="SourceGraphic" in2="BackgroundImageFix" result="shape"/>
<feColorMatrix in="SourceAlpha" type="matrix" values="0 0 0 0 0 0 0 0 0 0 0 0 0 0 0 0 0 0 127 0" result="hardAlpha"/>
<feOffset dy="4"/>
<feGaussianBlur stdDeviation="7"/>
<feComposite in2="hardAlpha" operator="arithmetic" k2="-1" k3="1"/>
<feColorMatrix type="matrix" values="0 0 0 0 0 0 0 0 0 0 0 0 0 0 0 0 0 0 0.15 0"/>
<feBlend mode="normal" in2="shape" result="effect1_innerShadow_1228_7621"/>
</filter>
<clipPath id="clip0_1228_7621">
<rect width="74" height="74" fill="white"/>
</clipPath>
</defs>
</svg>
