<svg width="74" height="74" viewBox="0 0 74 74" fill="none" xmlns="http://www.w3.org/2000/svg">
<rect width="74" height="74" fill="white"/>
<g filter="url(#filter0_i_1228_7682)">
<path d="M28.5514 16.861C28.1386 20.8969 27.2451 22.7893 25.133 19.2358C25.9346 24.0575 25.3204 33.7341 20.3445 26.671C15.9123 26.6536 12.8819 24.0169 9.25958 22.4801C9.45769 27.1244 13.1919 35.5966 9.51074 36.0558C12.7708 41.8863 9.7047 41.8117 7 42.1192C11.6659 45.4249 11.9643 48.4189 9.12447 51.0407C11.6775 52.0296 16.2638 51.4883 15.1879 55.4828C16.7296 55.5126 19.3407 54.1375 19.3208 56.8728C26.4444 55.6286 36.2345 54.7956 36.1408 60.5805L36.0638 65.3309C36.7642 65.0433 37.2375 65.1569 37.9371 65.3309C37.9371 65.3309 37.5806 66.1167 37.86 60.5813C38.1393 55.0443 47.5366 55.6286 54.6601 56.8728C54.6411 54.1375 57.2704 55.5134 58.8121 55.4828C57.7362 51.4875 62.3034 52.0296 64.8565 51.0407C62.0166 48.418 62.3341 45.4249 67 42.1192C64.2953 41.8117 61.23 41.8863 64.4893 36.0558C60.8089 35.5966 64.5423 27.1244 64.7404 22.4801C61.1181 24.0169 58.0686 26.6528 53.6365 26.671C48.6606 33.7341 48.0662 24.0575 48.867 19.2358C46.7549 22.7893 45.8614 20.8969 45.4486 16.861C40.3658 19.8632 37.0004 8 37.0004 8C37.0004 8 33.6351 19.8624 28.5514 16.8601V16.861Z" fill="#2F99C6"/>
<path d="M28.5514 16.861C28.1386 20.8969 27.2451 22.7893 25.133 19.2358C25.9346 24.0575 25.3204 33.7341 20.3445 26.671C15.9123 26.6536 12.8819 24.0169 9.25958 22.4801C9.45769 27.1244 13.1919 35.5966 9.51074 36.0558C12.7708 41.8863 9.7047 41.8117 7 42.1192C11.6659 45.4249 11.9643 48.4189 9.12447 51.0407C11.6775 52.0296 16.2638 51.4883 15.1879 55.4828C16.7296 55.5126 19.3407 54.1375 19.3208 56.8728C26.4444 55.6286 36.2345 54.7956 36.1408 60.5805L36.0638 65.3309C36.7642 65.0433 37.2375 65.1569 37.9371 65.3309C37.9371 65.3309 37.5806 66.1167 37.86 60.5813C38.1393 55.0443 47.5366 55.6286 54.6601 56.8728C54.6411 54.1375 57.2704 55.5134 58.8121 55.4828C57.7362 51.4875 62.3034 52.0296 64.8565 51.0407C62.0166 48.418 62.3341 45.4249 67 42.1192C64.2953 41.8117 61.23 41.8863 64.4893 36.0558C60.8089 35.5966 64.5423 27.1244 64.7404 22.4801C61.1181 24.0169 58.0686 26.6528 53.6365 26.671C48.6606 33.7341 48.0662 24.0575 48.867 19.2358C46.7549 22.7893 45.8614 20.8969 45.4486 16.861C40.3658 19.8632 37.0004 8 37.0004 8C37.0004 8 33.6351 19.8624 28.5514 16.8601V16.861Z" stroke="#2F99C6"/>
</g>
<defs>
<filter id="filter0_i_1228_7682" x="7" y="8" width="60" height="61.3694" filterUnits="userSpaceOnUse" color-interpolation-filters="sRGB">
<feFlood flood-opacity="0" result="BackgroundImageFix"/>
<feBlend mode="normal" in="SourceGraphic" in2="BackgroundImageFix" result="shape"/>
<feColorMatrix in="SourceAlpha" type="matrix" values="0 0 0 0 0 0 0 0 0 0 0 0 0 0 0 0 0 0 127 0" result="hardAlpha"/>
<feOffset dy="4"/>
<feGaussianBlur stdDeviation="7"/>
<feComposite in2="hardAlpha" operator="arithmetic" k2="-1" k3="1"/>
<feColorMatrix type="matrix" values="0 0 0 0 0 0 0 0 0 0 0 0 0 0 0 0 0 0 0.15 0"/>
<feBlend mode="normal" in2="shape" result="effect1_innerShadow_1228_7682"/>
</filter>
</defs>
</svg>
