<?xml version="1.0" encoding="utf-8"?>
<!-- Generator: Adobe Illustrator 16.0.3, SVG Export Plug-In . SVG Version: 6.00 Build 0)  -->
<!DOCTYPE svg PUBLIC "-//W3C//DTD SVG 1.1//EN" "http://www.w3.org/Graphics/SVG/1.1/DTD/svg11.dtd">
<svg version="1.1" id="Ebene_1" xmlns="http://www.w3.org/2000/svg" xmlns:xlink="http://www.w3.org/1999/xlink" x="0px" y="0px"
	 width="45px" height="44.982px" viewBox="0 0 45 44.982" enable-background="new 0 0 45 44.982" xml:space="preserve">
<g>
	<circle id="path-1_1_" fill="none" stroke="#FFFFFF" stroke-width="8" stroke-opacity="0.5" cx="22.508" cy="22.491" r="15"/>
</g>
<g>
	<circle id="path-3_6_" fill="none" stroke="#638B54" stroke-width="4" cx="22.508" cy="22.491" r="15"/>
</g>
<g>
	<circle id="path-3_5_" fill="#729F62" cx="22.508" cy="22.491" r="15"/>
</g>
<g>
	<circle id="path-3_4_" fill="none" cx="22.5" cy="22.491" r="22.5"/>
</g>
<path fill="#FFFFFF" d="M30.038,24.085c-2.018-1.532-2.201-2.423-4.381-4.672c-2.236-2.306-3.982-3.188-4.904-3.585
	c0.308-0.386,0.566-0.802,0.748-1.231c1.026-0.819,3.127-1.532,3.127-1.532s-2.162-1.122-3.463-1.588
	c-0.138-0.175-0.291-0.345-0.477-0.511c-1.825-1.602-4.563-1.141-5.984,0.707c-1.353,1.762-3.568,5.737-2.35,10.155
	c0.048,0.199,0.107,0.4,0.184,0.608c0.002,0.009,0.004,0.018,0.006,0.027c0.004,0.008,0.008,0.012,0.012,0.021
	c0.316,0.845,0.857,1.753,1.719,2.709c0.945,1.05,1.952,1.764,2.975,2.245c0.109,0.791,0.551,1.586,1.196,2.018
	c-0.026,0.046-0.054,0.084-0.08,0.134c-0.557,0.94-1.11,1.883-1.11,1.883c-0.02,0.029-0.037,0.065-0.051,0.1
	c-0.008,0.017-0.004,0.033-0.01,0.049c-1.344,0.363-2.677,0.757-3.755,1.691c-0.292,0.254,0.085,0.73,0.407,0.529
	c1.021-0.642,2.318-1.088,3.557-1.129c-0.438,0.28-0.822,0.623-1.104,1.065c-0.203,0.318,0.281,0.703,0.526,0.408
	c0.726-0.871,2.138-1.352,3.415-1.496c-0.4,0.574-0.777,1.156-0.917,1.869c-0.069,0.35,0.45,0.629,0.614,0.262
	c0.189-0.432,0.46-0.826,0.751-1.192c0.218-0.275,0.603-0.851,0.961-0.955c0.013-0.002,0.022-0.009,0.036-0.013
	c0.645,0.351,1.334,0.615,1.779,1.242c0.215,0.301,0.797,0.125,0.644-0.271c-0.292-0.752-0.964-1.634-1.78-1.927
	c0.153-0.364,0.402-0.954,0.651-1.545c0.063-0.159,0.135-0.315,0.203-0.473c0.021-0.002,0.038-0.002,0.058-0.004
	c0.858-0.174,1.531-1.043,1.848-1.943c0.932-0.237,1.699-0.481,2.221-0.573c2.107-0.375,7.689,0.635,7.689,0.635L30.038,24.085z
	 M21.806,29.531c-0.555,0.941-1.109,1.883-1.109,1.883c-0.02,0.029-0.035,0.068-0.05,0.099c-0.004,0.014-0.002,0.024-0.009,0.037
	c-0.61,0.146-1.26,0.309-1.881,0.524c0.088-0.209,0.435-1.028,0.781-1.854c0.064-0.16,0.135-0.314,0.204-0.474
	c0.021-0.004,0.038,0,0.058-0.004c0.561-0.112,1.035-0.524,1.394-1.047c0.188,0.283,0.427,0.523,0.696,0.703
	C21.86,29.443,21.833,29.482,21.806,29.531z M16.874,12.241c0.103-0.767,0.805-1.305,1.571-1.204
	c0.767,0.104,1.308,0.807,1.204,1.573c-0.102,0.768-0.807,1.306-1.57,1.205C17.312,13.713,16.771,13.01,16.874,12.241z"/>
</svg>
