<?xml version="1.0" encoding="utf-8"?>
<!-- Generator: Adobe Illustrator 16.0.3, SVG Export Plug-In . SVG Version: 6.00 Build 0)  -->
<!DOCTYPE svg PUBLIC "-//W3C//DTD SVG 1.1//EN" "http://www.w3.org/Graphics/SVG/1.1/DTD/svg11.dtd">
<svg version="1.1" id="Ebene_1" xmlns="http://www.w3.org/2000/svg" xmlns:xlink="http://www.w3.org/1999/xlink" x="0px" y="0px"
	 width="45px" height="44.982px" viewBox="0 0 45 44.982" enable-background="new 0 0 45 44.982" xml:space="preserve">
<g>
	<circle id="path-1_2_" fill="none" stroke="#FFFFFF" stroke-width="8" stroke-opacity="0.5" cx="22.507" cy="22.491" r="15"/>
</g>
<g>
	<circle id="path-3_2_" fill="none" stroke="#638B54" stroke-width="4" cx="22.508" cy="22.491" r="15"/>
</g>
<g>
	<circle id="path-3_1_" fill="#729F62" cx="22.508" cy="22.491" r="15"/>
</g>
<g>
	<circle id="path-3_3_" fill="none" cx="22.5" cy="22.491" r="22.5"/>
</g>
<path fill="#FFFFFF" d="M36.142,17.689c-0.09-0.33-2.082,0.417-2.829-1.203c-0.357-0.773-0.962-1.296-1.646-1.488l-0.4-2.1
	c-1.264,1.266-2.262,3.284-2.612,4.047c-0.278,0.359-0.577,0.696-0.892,0.971c-1.551,1.361-3.571,1.474-5.555,1.687
	c-2.104,0.226-3.523,0.248-4.876,0.61c-0.036,0.009-0.062,0-0.103,0.015c-1.188,0.417-1.913-0.776-1.934-0.927
	c-0.031-0.105-0.199-0.366-0.246-1.021c-0.147-1.99,0.638-4.091,1.83-5.646c0.563-0.735,1.209-1.471,1.912-2.072
	c0.328-0.28,0.867-1.108,0.19-1.053c-0.907,0.115-2.181,0.401-3.574,1.048c-3.458,1.604-6.786,6.185-4.763,9.974
	c0.442,0.829,1.272,2.073,2.563,2.574c0.201,0.078,0.398,0.135,0.592,0.184c-0.031,0.115-0.06,0.238-0.086,0.363
	c-0.518,1.387-0.444,3.072-0.816,3.842c-0.488,1.008-1.17,1.338-1.17,1.338l0.4,3.035h0.004c0,0.002,0,0.002,0,0.002h3.126
	c0-0.438-0.704-0.791-1.563-0.791c-0.068,0-0.133,0.006-0.198,0.01l-0.166-1.729c0,0,1.07-0.301,3.061-1.834
	c0.851-0.652,1.266-1.199,1.412-1.664c0.201,0.502,0.392,0.979,0.408,1.348c0.049,1.07-0.785,1.91-0.785,1.91l1.522,2.748h0.004
	c0,0,0,0,0,0.002h3.125c0-0.438-0.702-0.793-1.563-0.793c-0.135,0-0.266,0.012-0.391,0.027l-0.613-1.746
	c0,0,0.887-0.992,2.209-2.813c0.267-0.365,0.408-0.717,0.465-1.047c0.519,0.035,1.031,0.031,1.541-0.006l-0.637,6.404l1.367-0.027
	h1.918c0-0.438-0.703-0.793-1.563-0.793c-0.008,0-0.014,0.002-0.02,0.002l1.436-5.139c0.449,0.373,0.875,0.867,1.177,1.414
	l0.854,4.543l1.367-0.027h1.918c0-0.438-0.703-0.793-1.563-0.793c-0.11,0-0.216,0.006-0.32,0.018l-0.251-2.455l-0.256-2.502
	c-0.055-2.277,0.27-4.869,1.818-5.917c1.399-0.95,2.877-0.277,4.121-1.012C36.337,18.469,36.192,17.878,36.142,17.689z"/>
</svg>
