<svg width="74" height="74" viewBox="0 0 74 74" fill="none" xmlns="http://www.w3.org/2000/svg">
<rect width="74" height="74" fill="white"/>
<g filter="url(#filter0_i_1228_7614)">
<path d="M7 43.0776C8.14494 42.2204 8.47635 42.0808 10.2 41.4121L8.64336 39.1379L13.4945 40.0688L12.0325 37.6048L17.4421 38.706L16.121 35.7807L21.3421 37.762L20.1469 34.2078L25.6824 36.6934L24.1728 33.0126L29.5824 35.6235L28.7016 32.0066L33.2312 34.9946L32.6649 31.3151L37.0894 34.8054L37.3197 31L41.1779 34.6168L41.4715 31.1259L45.3714 34.9946L45.1822 31.3151L49.2923 35.6391L49.2714 32.1325L52.6684 36.1578L52.6057 32.7614L56.3798 37.1018L56.5057 34.1452L59.9027 38.7999L59.9653 35.0259L62.9846 39.7439L63.3616 36.6614C65.5452 40.3768 64.335 38.1547 67 43.2401" fill="#2F99C6"/>
</g>
<defs>
<filter id="filter0_i_1228_7614" x="7" y="31" width="60" height="16.2401" filterUnits="userSpaceOnUse" color-interpolation-filters="sRGB">
<feFlood flood-opacity="0" result="BackgroundImageFix"/>
<feBlend mode="normal" in="SourceGraphic" in2="BackgroundImageFix" result="shape"/>
<feColorMatrix in="SourceAlpha" type="matrix" values="0 0 0 0 0 0 0 0 0 0 0 0 0 0 0 0 0 0 127 0" result="hardAlpha"/>
<feOffset dy="4"/>
<feGaussianBlur stdDeviation="7"/>
<feComposite in2="hardAlpha" operator="arithmetic" k2="-1" k3="1"/>
<feColorMatrix type="matrix" values="0 0 0 0 0 0 0 0 0 0 0 0 0 0 0 0 0 0 0.15 0"/>
<feBlend mode="normal" in2="shape" result="effect1_innerShadow_1228_7614"/>
</filter>
</defs>
</svg>
