<svg width="24" height="24" viewBox="0 0 24 24" fill="none" xmlns="http://www.w3.org/2000/svg">
<g clip-path="url(#clip0_2840_4646)">
<rect width="24" height="24" fill="white"/>
<path d="M8.08034 4.33594C7.07658 4.33594 6.11393 4.73468 5.40416 5.44445C4.6944 6.15421 4.29565 7.11686 4.29565 8.12062C4.29565 9.12438 4.6944 10.087 5.40416 10.7968C6.11393 11.5066 7.07658 11.9053 8.08034 11.9053C9.12902 11.9647 10.1165 12.4181 10.8451 13.1747C11.5737 13.9312 11.9896 14.9351 12.0094 15.9853V18.0937C11.9977 18.6457 12.0968 19.1945 12.3008 19.7075C12.5048 20.2206 12.8096 20.6875 13.1971 21.0808C13.5846 21.4741 14.047 21.7857 14.557 21.9973C15.067 22.2088 15.6142 22.316 16.1663 22.3125C16.7268 22.3141 17.2822 22.2053 17.8007 21.9923C18.3192 21.7792 18.7906 21.4662 19.1881 21.0709C19.5856 20.6757 19.9013 20.206 20.1173 19.6888C20.3333 19.1715 20.4453 18.6168 20.4469 18.0562V16.6369C20.4426 15.0172 20.1193 13.4142 19.4955 11.9194C18.8717 10.4247 17.9596 9.06744 16.8112 7.92519C15.6629 6.78294 14.3008 5.87806 12.8028 5.26222C11.3047 4.64637 9.70003 4.33162 8.08034 4.33594Z" stroke="#12466A" stroke-width="1.5" stroke-linecap="round" stroke-linejoin="round"/>
<path d="M14.8219 17.3916C14.8219 17.5762 14.8583 17.7591 14.9289 17.9297C14.9996 18.1003 15.1032 18.2553 15.2338 18.3859C15.3644 18.5165 15.5194 18.6201 15.69 18.6908C15.8606 18.7614 16.0435 18.7978 16.2281 18.7978C16.4128 18.7978 16.5957 18.7614 16.7663 18.6908C16.9369 18.6201 17.0919 18.5165 17.2225 18.3859C17.3531 18.2553 17.4567 18.1003 17.5274 17.9297C17.598 17.7591 17.6344 17.5762 17.6344 17.3916C17.6344 17.0186 17.4862 16.6609 17.2225 16.3972C16.9588 16.1335 16.6011 15.9853 16.2281 15.9853C15.8552 15.9853 15.4975 16.1335 15.2338 16.3972C14.9701 16.6609 14.8219 17.0186 14.8219 17.3916Z" stroke="#12466A" stroke-width="1.5" stroke-linecap="round" stroke-linejoin="round"/>
<path d="M19.7194 20.4309C20.8108 20.2954 21.8174 19.7728 22.5562 18.9581" stroke="#12466A" stroke-width="1.5" stroke-linecap="round" stroke-linejoin="round"/>
<path d="M20.3962 15.5166C21.454 14.7892 22.2183 13.7091 22.5525 12.4697" stroke="#12466A" stroke-width="1.5" stroke-linecap="round" stroke-linejoin="round"/>
<path d="M19.3051 11.4675C20.0813 10.5506 21.0338 9.07687 20.7451 7.60312" stroke="#12466A" stroke-width="1.5" stroke-linecap="round" stroke-linejoin="round"/>
<path d="M16.9688 8.08593C17.8249 7.17755 18.3127 5.98332 18.3375 4.73531" stroke="#12466A" stroke-width="1.5" stroke-linecap="round" stroke-linejoin="round"/>
<path d="M14.0551 5.86406C14.3785 4.81618 14.5206 3.72073 14.4751 2.625" stroke="#12466A" stroke-width="1.5" stroke-linecap="round" stroke-linejoin="round"/>
<path d="M10.9125 4.66031C10.9749 3.57535 10.6117 2.50883 9.90002 1.6875" stroke="#12466A" stroke-width="1.5" stroke-linecap="round" stroke-linejoin="round"/>
<path d="M8.00909 4.33687C7.93971 3.94968 7.57877 2.85937 5.68127 2.08687" stroke="#12466A" stroke-width="1.5" stroke-linecap="round" stroke-linejoin="round"/>
<path d="M5.70002 5.16844C5.29888 4.87109 4.83808 4.66416 4.34934 4.56188C3.86059 4.4596 3.35549 4.4644 2.86877 4.57594" stroke="#12466A" stroke-width="1.5" stroke-linecap="round" stroke-linejoin="round"/>
<path d="M13.5628 21.4144C12.8602 21.8148 12.0633 22.0205 11.2547 22.0101C10.446 21.9997 9.65469 21.7737 8.96252 21.3553" stroke="#12466A" stroke-width="1.5" stroke-linecap="round" stroke-linejoin="round"/>
<path d="M12.0112 17.9287C11.3283 18.2283 10.5755 18.3319 9.83701 18.2279C9.09856 18.1239 8.40362 17.8165 7.82996 17.34" stroke="#12466A" stroke-width="1.5" stroke-linecap="round" stroke-linejoin="round"/>
<path d="M10.2647 12.6562C9.80184 13.2052 9.17919 13.596 8.4836 13.7741C7.788 13.9523 7.05415 13.9089 6.3844 13.65" stroke="#12466A" stroke-width="1.5" stroke-linecap="round" stroke-linejoin="round"/>
<path d="M5.65034 11.0334C5.16429 11.3221 4.61838 11.4952 4.05479 11.5392C3.4912 11.5833 2.92502 11.4971 2.40002 11.2875" stroke="#12466A" stroke-width="1.5" stroke-linecap="round" stroke-linejoin="round"/>
<path d="M4.27588 8.20312C3.7926 8.36753 3.27291 8.3932 2.77578 8.2772C2.27865 8.1612 1.82399 7.90819 1.46338 7.54688" stroke="#12466A" stroke-width="1.5" stroke-linecap="round" stroke-linejoin="round"/>
</g>
<defs>
<clipPath id="clip0_2840_4646">
<rect width="24" height="24" fill="white"/>
</clipPath>
</defs>
</svg>
