<svg width="74" height="74" viewBox="0 0 74 74" fill="none" xmlns="http://www.w3.org/2000/svg">
<rect width="74" height="74" fill="white"/>
<g filter="url(#filter0_i_1228_7651)">
<mask id="path-1-outside-1_1228_7651" maskUnits="userSpaceOnUse" x="15" y="6" width="44" height="62" fill="black">
<rect fill="white" x="15" y="6" width="44" height="62"/>
<path fill-rule="evenodd" clip-rule="evenodd" d="M18.8133 31.6178C18.8087 31.6211 18.804 31.6244 18.7992 31.6278C17.3751 32.4203 15.1083 26.7704 16.3675 23.9677C17.6248 21.164 23.6448 17.9053 26.6547 16.6707C28.5899 15.877 29.8858 15.8489 30.9213 15.8265C31.4964 15.814 31.9911 15.8033 32.4704 15.6641C32.9494 15.5252 33.2421 15.5257 33.4692 15.5261C33.8779 15.5268 34.0742 15.5271 34.7619 14.7137C35.3962 13.9643 35.6668 11.9344 35.9011 10.1777C36.0623 8.96873 36.2063 7.88915 36.4396 7.44541C36.9192 6.53255 40.6782 7.18586 41.3602 7.94871C41.9088 8.56194 41.4014 10.0981 40.8933 11.6366C40.4627 12.9405 40.0315 14.2461 40.242 14.993C40.5854 16.2115 40.5984 16.2198 41.2658 16.6484C41.4903 16.7925 41.7889 16.9842 42.199 17.2855C42.8788 17.7854 43.9867 18.1102 45.241 18.4779C46.9932 18.9915 49.0308 19.5888 50.5855 20.864C53.254 23.0529 57.1117 27.2046 57.1275 30.4258C57.1443 33.646 55.2978 36.5543 53.0744 36.7152C52.5377 36.7542 52.2819 36.7527 52.182 36.6967C52.1716 39.8605 52.008 45.2101 51.1391 49.4084C49.8206 55.7836 47.5903 58.7926 43.7652 61.2894C41.5871 62.7107 39.6528 63.359 38.1159 63.8742C36.953 64.264 36.0177 64.5774 35.3767 65.0918C34.6388 65.6847 34.3792 66.0722 34.1992 66.3408C34.0167 66.6132 33.9162 66.7632 33.4819 66.881C32.6194 67.1149 31.7312 66.9807 31.1292 66.6807C30.5469 66.1547 30.1709 65.8122 29.5985 64.4967C29.0237 63.8747 27.9998 63.3437 26.8097 62.7264C24.9334 61.7532 22.6437 60.5655 21.0482 58.4689C18.4409 55.0424 17.4313 53.6638 16.8698 45.9691C16.4591 40.3212 17.9768 34.3793 18.8133 31.6178ZM21.923 29.088C23.192 28.3347 25.0903 27.8363 27.3336 27.5811C25.4578 27.9803 23.6442 28.504 21.923 29.088ZM51.0628 33.0063C50.5831 32.5887 50.0995 32.1958 49.6126 31.8266C50.1565 32.1978 50.6432 32.5912 51.0628 33.0063ZM52.1625 34.4145C52.1717 34.8276 52.1833 35.5325 52.1825 36.4404C52.1942 36.4154 52.2072 36.3887 52.221 36.3603C52.3907 36.0122 52.6894 35.3992 52.1625 34.4145Z"/>
</mask>
<path d="M18.7992 31.6278L19.2854 32.5016L19.3333 32.475L19.378 32.4433L18.7992 31.6278ZM18.8133 31.6178L19.7703 31.9077L20.6154 29.118L18.2358 30.8015L18.8133 31.6178ZM16.3675 23.9677L17.2797 24.3775L17.28 24.3769L16.3675 23.9677ZM26.6547 16.6707L27.0342 17.5959L26.6547 16.6707ZM30.9213 15.8265L30.8996 14.8267H30.8996L30.9213 15.8265ZM32.4704 15.6641L32.1919 14.7037L32.1915 14.7038L32.4704 15.6641ZM33.4692 15.5261L33.4675 16.5261H33.4675L33.4692 15.5261ZM34.7619 14.7137L33.9986 14.0677L33.9983 14.0681L34.7619 14.7137ZM35.9011 10.1777L34.9099 10.0455V10.0455L35.9011 10.1777ZM36.4396 7.44541L37.3247 7.91082L37.3249 7.91052L36.4396 7.44541ZM41.3602 7.94871L40.6146 8.61517L40.6149 8.61545L41.3602 7.94871ZM40.8933 11.6366L41.8429 11.9502V11.9502L40.8933 11.6366ZM40.242 14.993L41.2045 14.7218L41.2045 14.7218L40.242 14.993ZM41.2658 16.6484L41.8061 15.8069L41.2658 16.6484ZM42.199 17.2855L42.7914 16.4799L42.7911 16.4797L42.199 17.2855ZM45.241 18.4779L45.5223 17.5182L45.241 18.4779ZM50.5855 20.864L51.2197 20.0908L51.2197 20.0908L50.5855 20.864ZM57.1275 30.4258L56.1275 30.4307L56.1275 30.431L57.1275 30.4258ZM53.0744 36.7152L53.0022 35.7178L53.0018 35.7178L53.0744 36.7152ZM52.182 36.6967L52.6715 35.8247L51.1876 34.9917L51.182 36.6934L52.182 36.6967ZM51.1391 49.4084L50.1598 49.2057L50.1598 49.2058L51.1391 49.4084ZM43.7652 61.2894L44.3117 62.1268L44.3118 62.1268L43.7652 61.2894ZM38.1159 63.8742L38.4337 64.8223H38.4337L38.1159 63.8742ZM35.3767 65.0918L34.7509 64.3118L34.7504 64.3123L35.3767 65.0918ZM34.1992 66.3408L35.03 66.8974L35.03 66.8974L34.1992 66.3408ZM33.4819 66.881L33.7436 67.8462H33.7436L33.4819 66.881ZM31.1292 66.6807L30.4588 67.4227L30.5605 67.5146L30.6831 67.5757L31.1292 66.6807ZM29.5985 64.4967L30.5155 64.0977L30.4479 63.9424L30.3329 63.818L29.5985 64.4967ZM26.8097 62.7264L27.2702 61.8387L26.8097 62.7264ZM21.0482 58.4689L21.844 57.8633H21.844L21.0482 58.4689ZM16.8698 45.9691L15.8724 46.0416L15.8725 46.0419L16.8698 45.9691ZM21.923 29.088L21.4125 28.2281L22.2443 30.035L21.923 29.088ZM27.3336 27.5811L27.5417 28.5592L27.2206 26.5875L27.3336 27.5811ZM51.0628 33.0063L50.4063 33.7606L51.7661 32.2953L51.0628 33.0063ZM49.6126 31.8266L50.1763 31.0006L49.0084 32.6234L49.6126 31.8266ZM52.1825 36.4404L51.1825 36.4396L53.0892 36.8623L52.1825 36.4404ZM52.1625 34.4145L53.0442 33.9427L51.1627 34.4368L52.1625 34.4145ZM52.221 36.3603L53.12 36.7984L53.12 36.7984L52.221 36.3603ZM19.378 32.4433C19.3826 32.44 19.3869 32.437 19.3908 32.4342L18.2358 30.8015C18.2306 30.8051 18.2254 30.8088 18.2203 30.8124L19.378 32.4433ZM15.4554 23.5579C15.0495 24.4611 14.9546 25.5199 15.018 26.5216C15.0821 27.5353 15.3134 28.5703 15.6341 29.4788C15.9503 30.3744 16.3784 31.2181 16.8798 31.8074C17.1276 32.0987 17.4465 32.3911 17.8395 32.56C18.2698 32.7448 18.7922 32.7761 19.2854 32.5016L18.3129 30.754C18.4502 30.6776 18.5902 30.7057 18.6289 30.7224C18.6303 30.7229 18.5483 30.6821 18.403 30.5114C18.1182 30.1766 17.7913 29.5813 17.5201 28.8131C17.2535 28.0578 17.0652 27.2044 17.014 26.3953C16.962 25.5741 17.0559 24.8756 17.2797 24.3775L15.4554 23.5579ZM26.2752 15.7455C24.7169 16.3847 22.4041 17.5361 20.3105 18.8913C19.2628 19.5695 18.2501 20.3115 17.4081 21.0796C16.5791 21.8358 15.8513 22.6748 15.4551 23.5585L17.28 24.3769C17.5123 23.8587 18.0086 23.239 18.756 22.5571C19.4904 21.8871 20.4065 21.2116 21.3973 20.5703C23.3804 19.2865 25.5826 18.1913 27.0342 17.5959L26.2752 15.7455ZM30.8996 14.8267C29.818 14.8502 28.3783 14.8829 26.2752 15.7455L27.0342 17.5959C28.8015 16.871 29.9536 16.8477 30.9429 16.8263L30.8996 14.8267ZM32.1915 14.7038C31.8607 14.7999 31.502 14.8137 30.8996 14.8267L30.9429 16.8263C31.4908 16.8144 32.1216 16.8067 32.7493 16.6244L32.1915 14.7038ZM33.4708 14.5261C33.2004 14.5257 32.8008 14.5271 32.1919 14.7037L32.7488 16.6246C32.9337 16.571 33.0689 16.548 33.1701 16.5373C33.2732 16.5263 33.3559 16.5259 33.4675 16.5261L33.4708 14.5261ZM33.9983 14.0681C33.839 14.2565 33.725 14.3775 33.642 14.4556C33.559 14.5338 33.5263 14.5504 33.5322 14.5472C33.5498 14.5376 33.58 14.5276 33.6031 14.5242C33.608 14.5235 33.6034 14.5245 33.5808 14.5253C33.5555 14.5261 33.5256 14.5262 33.4708 14.5261L33.4675 16.5261C33.6667 16.5264 34.0559 16.5397 34.4897 16.3031C34.8527 16.1051 35.1758 15.7731 35.5255 15.3594L33.9983 14.0681ZM34.9099 10.0455C34.7915 10.9335 34.6702 11.8388 34.5038 12.6135C34.421 12.9992 34.3318 13.3289 34.2354 13.5923C34.135 13.8669 34.048 14.0094 33.9986 14.0677L35.5252 15.3598C35.793 15.0434 35.9777 14.6512 36.1137 14.2795C36.2538 13.8966 36.3658 13.4685 36.4592 13.0334C36.6453 12.1667 36.7765 11.1786 36.8923 10.3099L34.9099 10.0455ZM35.5545 6.97999C35.3564 7.3567 35.2422 7.88335 35.159 8.34836C35.0689 8.8514 34.9896 9.44787 34.9099 10.0455L36.8923 10.3099C36.9738 9.69856 37.0471 9.15075 37.1276 8.70083C37.215 8.21286 37.2894 7.97786 37.3247 7.91082L35.5545 6.97999ZM42.1057 7.28226C41.9067 7.0596 41.655 6.89991 41.439 6.78603C41.2104 6.66551 40.9539 6.56141 40.6917 6.47265C40.1671 6.2951 39.5543 6.15714 38.9561 6.07743C38.3647 5.99862 37.7348 5.96962 37.1877 6.03978C36.9151 6.07474 36.62 6.13951 36.3479 6.26287C36.0791 6.38473 35.7537 6.60082 35.5544 6.98029L37.3249 7.91052C37.2454 8.06178 37.1424 8.0986 37.1737 8.08443C37.2016 8.07178 37.2842 8.04378 37.4421 8.02354C37.756 7.98329 38.1984 7.99414 38.6919 8.0599C39.1787 8.12477 39.6635 8.23612 40.0505 8.36709C40.244 8.43259 40.3969 8.49755 40.5063 8.55522C40.6282 8.61951 40.6432 8.64711 40.6146 8.61517L42.1057 7.28226ZM41.8429 11.9502C42.0903 11.201 42.3693 10.3622 42.5061 9.629C42.575 9.25959 42.6189 8.863 42.5865 8.48249C42.5542 8.10234 42.4377 7.65339 42.1055 7.28198L40.6149 8.61545C40.5569 8.55065 40.5828 8.52368 40.5937 8.65211C40.6046 8.78018 40.5928 8.97877 40.54 9.26236C40.4331 9.83515 40.2044 10.5337 39.9438 11.323L41.8429 11.9502ZM41.2045 14.7218C41.1736 14.6121 41.1696 14.3173 41.3013 13.7498C41.4243 13.2201 41.6237 12.6138 41.8429 11.9502L39.9438 11.323C39.7323 11.9633 39.5008 12.6617 39.3532 13.2975C39.2143 13.8955 39.0999 14.6271 39.2795 15.2643L41.2045 14.7218ZM41.8061 15.8069C41.624 15.69 41.5475 15.6395 41.496 15.5984C41.477 15.5833 41.4728 15.5781 41.4752 15.5807C41.4785 15.5843 41.4812 15.5882 41.4811 15.588C41.4769 15.5813 41.4515 15.5378 41.4012 15.3877C41.3506 15.2367 41.2923 15.0333 41.2045 14.7218L39.2795 15.2643C39.432 15.8054 39.5598 16.2865 39.7837 16.6458C40.0548 17.0808 40.4398 17.3064 40.7255 17.4898L41.8061 15.8069ZM42.7911 16.4797C42.3551 16.1594 42.0354 15.9541 41.8061 15.8069L40.7255 17.4898C40.9452 17.6309 41.2227 17.8091 41.6069 18.0914L42.7911 16.4797ZM45.5223 17.5182C44.887 17.332 44.3299 17.1683 43.8479 16.9921C43.3607 16.814 43.0179 16.6464 42.7914 16.4799L41.6066 18.0912C42.0599 18.4245 42.6109 18.6693 43.1612 18.8705C43.7167 19.0735 44.3408 19.256 44.9597 19.4375L45.5223 17.5182ZM51.2197 20.0908C49.4809 18.6646 47.2372 18.021 45.5223 17.5182L44.9597 19.4375C46.7491 19.962 48.5808 20.5131 49.9513 21.6372L51.2197 20.0908ZM58.1275 30.4209C58.1179 28.4682 56.9741 26.4021 55.6481 24.6535C54.2913 22.8645 52.6013 21.2241 51.2197 20.0908L49.9513 21.6371C51.2382 22.6928 52.8113 24.2227 54.0545 25.862C55.3284 27.5419 56.1213 29.1622 56.1275 30.4307L58.1275 30.4209ZM53.1465 37.7126C54.6847 37.6013 55.9468 36.561 56.7827 35.2576C57.63 33.9367 58.1368 32.2134 58.1275 30.4206L56.1275 30.431C56.1349 31.8584 55.7269 33.1993 55.0993 34.1778C54.4604 35.1739 53.6875 35.6682 53.0022 35.7178L53.1465 37.7126ZM51.6925 37.5687C51.987 37.734 52.3141 37.7391 52.4469 37.7414C52.6386 37.7448 52.8749 37.7323 53.147 37.7125L53.0018 35.7178C52.7371 35.7371 52.5772 35.7434 52.4818 35.7417C52.4348 35.7409 52.4281 35.7384 52.4458 35.7412C52.4561 35.7429 52.4815 35.7474 52.5168 35.7581C52.5516 35.7686 52.6069 35.7884 52.6715 35.8247L51.6925 37.5687ZM52.1183 49.611C53.009 45.3075 53.1716 39.8722 53.182 36.7L51.182 36.6934C51.1716 39.8489 51.007 45.1126 50.1598 49.2057L52.1183 49.611ZM44.3118 62.1268C46.3105 60.8221 47.9379 59.3524 49.2325 57.3453C50.5209 55.3477 51.4435 52.8742 52.1184 49.6109L50.1598 49.2058C49.5162 52.3178 48.6644 54.5363 47.5518 56.2612C46.4453 57.9766 45.0449 59.2598 43.2186 60.452L44.3118 62.1268ZM38.4337 64.8223C39.9789 64.3044 42.0187 63.6232 44.3117 62.1268L43.2187 60.4519C41.1556 61.7982 39.3266 62.4137 37.7981 62.926L38.4337 64.8223ZM36.0025 65.8718C36.4735 65.4938 37.2084 65.233 38.4337 64.8223L37.7981 62.926C36.6977 63.2949 35.5619 63.6611 34.7509 64.3118L36.0025 65.8718ZM35.03 66.8974C35.1708 66.6873 35.3652 66.3838 36.003 65.8714L34.7504 64.3123C33.9124 64.9855 33.5876 65.4572 33.3685 65.7842L35.03 66.8974ZM33.7436 67.8462C34.0458 67.7642 34.3291 67.6448 34.58 67.4331C34.8088 67.24 34.9549 67.0094 35.03 66.8974L33.3685 65.7842C33.3447 65.8196 33.3276 65.8451 33.3118 65.8679C33.2965 65.89 33.2866 65.9035 33.2798 65.9123C33.2677 65.928 33.2724 65.9195 33.29 65.9047C33.3092 65.8885 33.3237 65.8814 33.3221 65.8822C33.3165 65.8848 33.2881 65.8975 33.2202 65.9159L33.7436 67.8462ZM30.6831 67.5757C31.4992 67.9824 32.6389 68.1457 33.7436 67.8462L33.2202 65.9159C32.5998 66.0841 31.9631 65.979 31.5752 65.7857L30.6831 67.5757ZM28.6816 64.8957C28.986 65.5954 29.2597 66.0866 29.562 66.4872C29.8647 66.8884 30.1716 67.1632 30.4588 67.4227L31.7995 65.9386C31.5046 65.6721 31.3322 65.5128 31.1584 65.2824C30.984 65.0513 30.7835 64.7136 30.5155 64.0977L28.6816 64.8957ZM26.3493 63.6141C26.9521 63.9267 27.4746 64.1982 27.9181 64.4659C28.3657 64.7361 28.6715 64.967 28.8642 65.1755L30.3329 63.818C29.9507 63.4044 29.4571 63.0588 28.9516 62.7537C28.4419 62.446 27.8575 62.1433 27.2702 61.8387L26.3493 63.6141ZM20.2524 59.0744C22.0037 61.3759 24.4981 62.6539 26.3493 63.6141L27.2702 61.8387C25.3686 60.8524 23.2836 59.7551 21.844 57.8633L20.2524 59.0744ZM15.8725 46.0419C16.1547 49.9099 16.5547 52.2959 17.2552 54.1697C17.9624 56.0615 18.9569 57.3718 20.2524 59.0744L21.844 57.8633C20.5323 56.1395 19.7184 55.0472 19.1286 53.4694C18.532 51.8736 18.1464 49.723 17.8672 45.8963L15.8725 46.0419ZM17.8562 31.3279C17.0107 34.1194 15.448 40.2052 15.8724 46.0416L17.8672 45.8966C17.4702 40.4372 18.943 34.6392 19.7703 31.9077L17.8562 31.3279ZM22.4334 29.9479C23.5232 29.3009 25.2568 28.8238 27.4466 28.5747L27.2206 26.5875C24.9239 26.8488 22.8608 27.3684 21.4125 28.2281L22.4334 29.9479ZM27.1254 26.603C25.2044 27.0118 23.3525 27.5469 21.6016 28.1411L22.2443 30.035C23.9359 29.461 25.7112 28.9488 27.5417 28.5592L27.1254 26.603ZM51.7193 32.2519C51.2229 31.8198 50.7219 31.4128 50.2168 31.0298L49.0084 32.6234C49.4771 32.9789 49.9433 33.3576 50.4063 33.7606L51.7193 32.2519ZM49.0489 32.6526C49.5514 32.9955 49.9896 33.3512 50.3596 33.7172L51.7661 32.2953C51.2968 31.8311 50.7616 31.4001 50.1763 31.0006L49.0489 32.6526ZM53.1825 36.4412C53.1833 35.5245 53.1716 34.8118 53.1622 34.3923L51.1627 34.4368C51.1718 34.8434 51.1833 35.5405 51.1825 36.4396L53.1825 36.4412ZM51.3221 35.9222C51.3091 35.9488 51.292 35.9838 51.2759 36.0185L53.0892 36.8623C53.0963 36.847 53.1052 36.8287 53.12 36.7984L51.3221 35.9222ZM51.2808 34.8863C51.4607 35.2226 51.4673 35.4268 51.4573 35.5327C51.4457 35.6562 51.4041 35.7539 51.3221 35.9222L53.12 36.7984C53.2076 36.6185 53.4001 36.2357 53.4486 35.7196C53.4987 35.1858 53.3912 34.5911 53.0442 33.9427L51.2808 34.8863Z" fill="#144D75" mask="url(#path-1-outside-1_1228_7651)"/>
<path d="M31.1292 66.6807C31.7312 66.9807 32.6194 67.1149 33.4819 66.881C34.3444 66.6471 33.8905 66.2859 35.3767 65.0918C36.8649 63.8977 39.939 63.7862 43.7652 61.2894C47.5903 58.7926 49.8206 55.7836 51.1391 49.4084C52.4585 43.0331 52.1516 34.0032 52.1516 34.0032C41.4509 23.7072 28.6136 26.422 19.3301 30.034C19.3301 30.034 16.3103 38.2744 16.8698 45.9691C17.4313 53.6638 18.4409 55.0424 21.0482 58.4689C23.6556 61.8953 28.1172 62.894 29.5985 64.4967C30.1709 65.8122 30.5469 66.1547 31.1292 66.6807Z" fill="#2F99C6"/>
<path d="M18.7992 31.6278C19.49 31.1373 17.4294 32.7144 21.2871 29.5307C26.3004 25.3937 47.5459 27.3813 51.9839 34.1157C53.4504 36.3421 50.85 36.877 53.0744 36.7152C55.2978 36.5543 57.1443 33.646 57.1275 30.4258C57.1117 27.2046 53.254 23.0529 50.5855 20.864C47.918 18.6761 43.8283 18.4836 42.199 17.2855C40.5697 16.0885 40.7009 16.6214 40.242 14.993C39.7831 13.3647 42.3737 9.08165 41.3602 7.94871C40.6782 7.18586 36.9192 6.53255 36.4396 7.44541C35.8672 8.53393 35.8327 13.4486 34.7619 14.7137C33.6921 15.9789 33.8116 15.2753 32.4704 15.6641C31.1282 16.0539 29.6647 15.4361 26.6547 16.6707C23.6448 17.9053 17.6248 21.164 16.3675 23.9677C15.1083 26.7704 17.3751 32.4203 18.7992 31.6278Z" fill="#216B8B"/>
<path d="M30.7926 21.6475C29.7702 22.1706 29.0992 23.2394 28.6679 23.8838M31.5 65.5C31.9441 65.0618 33.1974 65.2197 33.4816 65.6056L31.5 65.5ZM30.1758 64.5046C30.989 63.1329 33.9506 63.2177 34.9809 64.5273L30.1758 64.5046ZM32.7496 20.0814C33.9664 20.9557 34.5191 21.8577 35.0984 22.8209L32.7496 20.0814ZM42.423 20.9765C43.4276 22.2604 43.8026 23.7298 44.2122 24.5549L42.423 20.9765ZM46.6715 23.7723C47.5271 24.8272 48.1123 25.9197 48.1814 27.4622L46.6715 23.7723ZM49.9153 26.9579C50.465 28.083 50.5864 28.7086 50.5864 29.8662L49.9153 26.9579ZM53.0457 27.4612C53.174 28.3494 53.1908 29.3797 53.0457 30.2018V27.4612ZM39.9064 23.6035C40.6101 24.3289 40.9575 25.3375 41.3048 26.1763L39.9064 23.6035ZM33.7562 23.6598C34.5882 25.3681 34.7954 26.0303 35.0421 26.7349L33.7562 23.6598ZM30.4571 22.5979C31.1992 23.2857 31.3265 24.6496 31.4637 25.3375L30.4571 22.5979ZM26.7109 21.2557C27.2932 21.9298 27.5853 22.9315 27.7728 23.8275C27.7925 23.8769 27.8547 23.8966 27.8853 23.9391C27.8952 23.9509 27.8853 24.172 27.8853 24.2193L26.7109 21.2557ZM23.5796 20.1376C23.8036 20.2955 23.7523 20.5393 23.8598 20.7524C24.2052 21.69 24.3276 22.3808 24.5309 22.9887L23.5796 20.1376ZM22.5177 22.5979C23.1256 23.2887 23.4937 24.0516 24.0829 25.9533L22.5177 22.5979ZM19.107 24.9457C20.088 25.3631 20.5232 26.3618 20.7285 27.3497L19.107 24.9457ZM17.4856 27.1257C18.2751 27.3576 18.6708 28.0435 18.883 28.8034L17.4856 27.1257ZM53.3812 30.1455C53.778 30.714 53.6615 31.4087 53.6615 32.1025L53.3812 30.1455ZM44.2674 25.449C44.6375 26.2898 44.753 27.1227 44.827 28.0208L44.2674 25.449ZM45.7774 22.5416C45.0747 23.3361 44.6425 23.8443 43.9319 24.5549L45.7774 22.5416ZM43.2056 24.9457C43.0329 24.8796 42.0282 25.8506 41.0808 26.7911C41.0512 26.8207 40.9279 26.9293 40.9131 26.9589L43.2056 24.9457ZM39.7387 23.8275C39.3498 24.7059 39.2058 23.9933 38.6205 25.5052L39.7387 23.8275ZM36.7761 25.225C36.0714 25.6138 35.581 26.3401 35.2099 27.0704L36.7761 25.225ZM33.3092 23.1012C33.0624 24.3891 32.2858 25.1717 32.0223 25.896L33.3092 23.1012ZM36.7761 20.9765C35.7813 21.7472 36.1484 21.5488 35.3777 22.6541L36.7761 20.9765ZM34.7066 18.2359C34.8447 18.3306 34.8724 18.5142 34.9859 18.6277C35.4467 19.0836 35.8602 19.6156 36.2718 20.0814L34.7066 18.2359ZM37.8932 18.8517C37.0208 20.1692 36.8136 20.3695 36.6636 20.6972L37.8932 18.8517ZM39.0676 19.8573C39.8837 20.786 40.3861 21.1205 41.1923 22.5979L39.0676 19.8573ZM42.3105 20.6962C41.5427 21.0594 40.9348 22.2791 40.7453 22.5979L42.3105 20.6962ZM46.9508 22.1499L47.0633 22.4854C47.5607 23.5611 48.3511 25.0088 48.4607 25.2259L46.9508 22.1499ZM49.9706 22.4301C49.9716 23.3499 49.3272 24.2766 48.7962 25.0019L49.9706 22.4301ZM50.8657 23.4367C52.1516 25.3681 52.7694 25.5615 53.102 26.8474L50.8657 23.4367ZM53.4938 24.2746C53.4572 25.372 53.1424 26.9392 53.0457 27.2944L53.4938 24.2746ZM52.3746 27.5185C51.7312 28.3711 51.1864 29.5623 50.5292 30.0903L52.3746 27.5185ZM50.5864 25.3937C49.7634 26.1112 48.5633 27.7326 48.2376 28.1333L50.5864 25.3937ZM54.7234 28.0208C54.1214 29.1577 53.5668 29.9462 53.326 30.3133L54.7234 28.0208ZM55.3945 30.3133C55.2603 30.5314 54.7954 31.3239 53.9961 32.3828L55.3945 30.3133ZM54.6119 27.0152C54.676 28.0612 54.9859 28.2043 55.1705 29.1962L54.6119 27.0152ZM56.1781 27.5599C55.4715 28.4185 55.7241 28.5468 55.283 29.1044L56.1781 27.5599ZM25.7606 23.9391C26.3201 24.9536 27.0622 26.3816 27.4935 27.0152L25.7606 23.9391Z" stroke="#0E3855"/>
<path d="M36.9992 22.2061C37.1255 22.7706 37.5696 23.8365 37.838 24.4424M29.115 19.131C29.2078 19.1863 29.3242 19.2159 29.3953 19.2988C29.9963 20.8225 30.2509 21.4324 30.6249 22.5979L29.115 19.131ZM32.9737 19.5781C32.1911 20.1604 31.1539 21.1995 30.849 21.6476L32.9737 19.5781ZM27.7166 19.9699C26.8847 20.2354 24.9237 21.4897 24.4747 23.1012C24.4747 23.1269 24.5487 23.1387 24.53 23.1565C24.5102 23.1753 24.4925 23.119 24.4747 23.1012L27.7166 19.9699ZM23.1326 21.5913C23.0586 21.6288 22.9786 21.6565 22.9085 21.7028C22.8651 21.7324 22.8345 21.7769 22.797 21.8144C21.6266 22.7618 21.4006 23.7753 21.1756 25.0582L23.1326 21.5913ZM20.2815 23.2128C20.8874 24.2144 21.0887 24.9408 21.2318 25.3938L20.2815 23.2128ZM19.1071 25.8961C19.0538 26.8208 19.0676 27.6231 19.2749 28.4126C19.3084 28.5143 19.3222 28.5162 19.3864 28.5804L19.1071 25.8961ZM21.9029 26.2879C22.2108 27.032 22.6855 27.4188 23.2451 27.8531L21.9029 26.2879ZM23.9714 25.8408C24.0227 26.7813 23.6477 27.5984 23.6359 28.4689L23.9714 25.8408ZM26.6547 22.1499C25.7192 24.1108 25.6836 23.1634 24.977 25.5615L26.6547 22.1499ZM20.7838 27.4613C20.8558 27.5649 20.8874 27.6902 20.9516 27.7968C21.1835 28.2054 21.2476 28.3455 21.4549 28.6919L20.7838 27.4613ZM18.9393 28.5804C19.0321 29.3462 19.5265 30.0479 19.8897 30.5936L18.9393 28.5804ZM37.838 25.3375C38.137 26.8464 38.3551 26.7241 38.8999 27.3507L37.838 25.3375ZM27.8291 25.1697C27.9219 25.2625 28.0216 25.3503 28.1084 25.449C28.5357 26.0481 28.9315 26.6333 29.339 27.183L27.8291 25.1697ZM31.1845 25.7846C30.4897 26.0806 30.0466 26.8524 29.7298 27.2945L31.1845 25.7846ZM47.1186 26.5672C46.2452 27.2668 45.0392 27.8975 44.38 28.8597L47.1186 26.5672ZM45.9452 27.629C46.7742 28.6524 46.3863 28.4274 47.2873 29.9225L45.9452 27.629ZM48.293 28.5804C47.9742 29.136 47.6446 29.7074 47.3426 30.2581L48.293 28.5804ZM50.1384 30.1456C49.9874 30.5976 49.5197 31.0022 49.1318 31.3762L50.1384 30.1456ZM52.0392 31.767C51.8369 32.1203 51.5102 32.5397 51.2003 32.9414L52.0392 31.767ZM53.9971 33.4447V34.3398C53.9971 34.3773 54.007 34.4158 53.9971 34.4513C53.9646 34.5766 53.8067 34.697 53.7168 34.7868L53.9971 33.4447Z" stroke="#12466A"/>
</g>
<defs>
<filter id="filter0_i_1228_7651" x="15" y="6" width="43.1276" height="66" filterUnits="userSpaceOnUse" color-interpolation-filters="sRGB">
<feFlood flood-opacity="0" result="BackgroundImageFix"/>
<feBlend mode="normal" in="SourceGraphic" in2="BackgroundImageFix" result="shape"/>
<feColorMatrix in="SourceAlpha" type="matrix" values="0 0 0 0 0 0 0 0 0 0 0 0 0 0 0 0 0 0 127 0" result="hardAlpha"/>
<feOffset dy="4"/>
<feGaussianBlur stdDeviation="7"/>
<feComposite in2="hardAlpha" operator="arithmetic" k2="-1" k3="1"/>
<feColorMatrix type="matrix" values="0 0 0 0 0 0 0 0 0 0 0 0 0 0 0 0 0 0 0.15 0"/>
<feBlend mode="normal" in2="shape" result="effect1_innerShadow_1228_7651"/>
</filter>
</defs>
</svg>
