<svg width="74" height="74" viewBox="0 0 74 74" fill="none" xmlns="http://www.w3.org/2000/svg">
<rect width="74" height="74" fill="white"/>
<g filter="url(#filter0_i_1228_7659)">
<path d="M30.2733 7.94291C30.2386 9.23231 30.6744 11.4157 31.2413 12.7931C31.8092 14.1706 32.0565 15.5631 31.7932 15.8883C31.528 16.2125 30.1009 16.6876 28.6203 16.9425C26.1315 17.3716 25.9122 17.53 25.7201 19.0396C25.6049 19.9382 25.9328 21.3317 26.4492 22.1366C27.5671 23.8823 26.8408 24.3668 23.7513 23.9348C21.3019 23.5919 20.3967 24.4052 19.2141 28.011C18.3642 30.602 18.382 30.8288 19.4708 31.1858C20.6234 31.5634 20.6178 31.6215 19.1738 34.4843C17.3306 38.1369 17.5836 38.9381 20.4641 38.568C21.5839 38.4237 22.5744 38.077 22.6662 37.7968C22.7581 37.5157 23.6239 37.5466 24.5881 37.8624C26.7396 38.5689 26.6178 39.193 24.1815 39.9511C23.1263 40.2791 22.1761 40.9837 21.9794 41.5825C21.7891 42.1626 21.2222 42.8963 20.719 43.213C20.2158 43.5307 19.365 44.2925 18.8271 44.9072C17.8825 45.9886 17.9088 46.0476 19.6658 46.7008C21.9194 47.5394 25.096 46.8647 26.0565 45.3439C29.4974 42.0079 28.2961 47.2433 24.3717 47.4082C23.8329 47.4214 23.2472 47.8749 23.0692 48.4165C22.8911 48.96 22.2511 49.3957 21.6392 49.3901C20.391 49.3779 19.9281 50.2241 20.5307 51.4142C21.046 52.4337 22.4563 52.8573 25.1045 52.7898C27.136 52.7373 27.1922 52.7739 26.8305 53.8758C26.5485 54.7379 25.9028 55.0509 24.188 55.1596C21.7348 55.3161 21.2766 55.8662 21.8969 57.9146C22.551 60.0764 24.7306 61.0134 26.8446 60.0427C28.5688 59.2508 29.7748 59.4486 28.1696 60.261C27.0292 60.8382 26.8605 61.779 27.627 63.2943C28.3711 64.7654 30.6725 65.7681 31.8897 65.1525C32.4866 64.8507 32.928 64.995 33.7676 65.769C35.6886 67.5401 35.9725 67.5101 41.5762 64.9566C43.1851 64.2238 43.409 63.4451 42.2321 62.6852C41.4328 62.1698 41.6436 62.0386 43.6021 61.8353C46.0478 61.5794 46.7862 60.8401 47.7467 57.6794C48.0419 56.7076 48.6613 55.2721 49.1214 54.4896C50.1709 52.7083 49.3716 50.9775 47.6914 51.3908C46.8537 51.5969 46.5782 51.4039 46.343 50.4471C46.135 49.601 45.6833 49.2196 44.8146 49.1577C44.1362 49.109 43.2929 48.6676 42.9405 48.1776C42.4111 47.4392 42.8824 47.4757 45.6674 48.3903C48.9068 49.4529 49.097 49.4463 50.6769 48.2254C53.3035 46.1957 52.8546 42.8344 50.0697 43.6778C48.2743 44.2213 47.0092 43.7968 46.9521 42.633C46.879 41.144 48.1843 40.757 51.2569 41.3567C53.6483 41.8233 54.3099 41.7381 55.1233 40.8544C56.6357 39.2136 56.051 37.9252 53.3672 36.9825C50.392 35.9386 49.8167 35.2302 51.2729 34.3999C53.0289 33.3982 53.4281 30.5608 52.0038 29.202C51.3647 28.5911 50.9149 27.8667 51.0049 27.5922C51.2176 26.9437 48.278 24.3996 47.5265 24.5805C47.2088 24.6573 46.7731 25.257 46.5576 25.9139C46.0478 27.4694 45.2363 27.6194 42.2996 26.7029C39.1389 25.7162 39.3881 25.1568 42.7184 25.7649C45.7592 26.3196 46.6607 25.8905 45.1033 24.6292C44.0163 23.7493 44.0191 23.7277 45.45 21.9988C47.5555 19.4538 47.3353 18.8878 43.8457 17.8692C42.2115 17.3913 40.2052 16.9603 39.3872 16.9069C38.0753 16.8235 37.6611 16.339 35.8947 12.8194C34.7356 10.5105 33.9672 8.1828 34.0722 7.30009C32.348 6.60947 31.5383 7.23262 30.2733 7.94291Z" fill="#12466A"/>
<path d="M43.6788 19.6262C43.2477 20.8369 41.4692 21.6278 40.3897 21.0899C39.1931 20.493 38.8932 19.0274 40.0458 19.4051C40.4487 19.5372 41.1703 19.3957 41.6482 19.0986C42.7052 18.4343 43.9861 18.7669 43.6797 19.6262H43.6788ZM31.4698 19.6571C31.854 19.882 32.3637 20.151 32.6018 20.2522C33.1359 20.4799 28.6923 21.789 28.0729 21.5856C27.2942 21.3298 27.6166 19.1933 28.5199 18.6254C29.0072 18.3199 29.6931 18.3359 30.0801 18.6629C30.4606 18.9843 31.0856 19.4313 31.4698 19.6571ZM38.9194 24.0332C39.4011 24.6292 39.3055 24.7004 38.4106 24.4137C37.8053 24.2197 37.244 23.7896 37.1643 23.4579C36.9788 22.6895 38.1407 23.0709 38.9185 24.0332H38.9194ZM37.6553 27.4938C37.4379 27.8874 36.7164 28.1123 36.053 27.9951C35.3876 27.877 34.6164 28.0617 34.3372 28.4037C33.7918 29.0737 31.5682 28.5883 31.3676 27.7552C31.302 27.4779 31.869 26.8463 32.6299 26.3524C33.6831 25.6684 34.4965 25.6122 36.0323 26.1154C37.5691 26.6195 37.9571 26.9494 37.6553 27.4929V27.4938ZM52.2201 31.7302C52.2997 32.062 52.1264 32.255 51.834 32.1594C51.5426 32.0629 51.3777 31.7593 51.4686 31.4838C51.5585 31.2074 51.7319 31.0153 51.8528 31.0546C51.9746 31.0949 52.1404 31.3985 52.2201 31.7302ZM28.7279 25.3301C28.4065 25.7265 27.9333 25.9814 27.6775 25.898C27.4207 25.8136 27.6185 25.3573 28.1142 24.8831C29.1449 23.8992 29.6153 24.2422 28.7289 25.3301H28.7279ZM50.1567 32.0957C49.9861 32.6139 49.4164 33.2071 48.8907 33.4141C48.0755 33.7365 48.0099 33.5613 48.4475 32.226C48.7942 31.169 49.2056 30.7407 49.7125 30.9075C50.1267 31.0434 50.3263 31.5784 50.1567 32.0957ZM26.3141 27.4076C26.8875 28.1563 26.8669 28.3259 26.1941 28.3587C25.7443 28.3803 24.96 28.1301 24.4512 27.8011C23.7062 27.3214 23.4017 27.4666 22.905 28.5396C21.8321 30.8541 20.8069 30.1513 21.625 27.6596C22.0242 26.4415 22.5452 25.3479 22.7832 25.227C23.3361 24.9478 25.4079 26.2278 26.3141 27.4076ZM29.8346 29.1009C29.8749 29.9227 26.5708 32.3618 25.2252 32.5043C24.8597 32.5417 24.1429 32.3037 23.6322 31.9739C22.831 31.4585 22.8329 31.2308 23.6444 30.35C24.1635 29.7877 24.9872 29.4579 25.4745 29.6172C26.5521 29.9714 28.5171 29.0577 28.3325 28.2894C28.2585 27.9839 28.5574 27.8527 28.9959 27.9961C29.4345 28.1404 29.8112 28.637 29.8346 29.1018V29.1009ZM37.0678 34.2022C36.1926 35.2761 32.9785 35.5507 31.6216 34.6661C30.8035 34.1319 30.6827 33.8761 31.2477 33.8724C31.7069 33.8724 32.7198 33.5819 33.4995 33.2324C34.2772 32.8847 35.0719 32.7854 35.2639 33.0131C35.4551 33.2399 35.9986 33.3336 36.4699 33.2192C37.5345 32.9634 37.7659 33.3439 37.0678 34.2022ZM45.9755 37.5944C46.4525 36.9797 47.9059 37.2636 47.6866 37.9289C47.4898 38.5286 43.6047 38.3506 41.6051 37.6497C40.0402 37.1015 40.012 37.0471 41.2143 36.8869C41.9265 36.7923 42.7904 36.3219 43.1362 35.8421C43.7416 35.0025 43.7987 35.0296 44.6561 36.5589C45.2699 37.6553 45.6794 37.9758 45.9755 37.5944ZM52.3597 39.8724C51.4836 40.3156 51.045 40.2453 50.3188 39.5444C49.4192 38.6767 49.4305 38.6636 50.7536 39.0609C51.5014 39.2858 52.341 39.2783 52.6193 39.0431C52.8976 38.8088 53.204 38.7723 53.3005 38.9625C53.3961 39.1527 52.9726 39.5622 52.3597 39.8724ZM27.4039 34.5546C26.3431 35.9601 25.8821 36.1663 24.4812 35.8571C23.3848 35.6144 22.6305 35.7793 22.2678 36.3415C20.7189 37.912 20.3281 36.677 20.8397 35.4504C21.5875 33.6803 21.67 33.6447 23.5619 34.2659C25.1062 34.772 25.8212 34.6886 26.9944 33.8649C27.8096 33.2933 28.519 32.8379 28.5705 32.8547C28.6221 32.8716 28.0973 33.6362 27.4039 34.5546ZM34.0748 37.7153C34.0982 38.181 33.8977 38.4902 33.6306 38.4031C33.3636 38.315 33.2558 37.9046 33.3917 37.4913C33.5276 37.0781 33.7272 36.7688 33.8359 36.8044C33.9446 36.84 34.0514 37.2495 34.0748 37.7153ZM39.9212 39.1368C39.7 39.2492 39.2615 39.1246 38.9466 38.8604C38.5999 38.5699 38.7573 38.4893 39.3495 38.657C39.8855 38.8088 40.1423 39.0243 39.9212 39.1368ZM37.5832 41.6434C37.4473 42.0567 37.0191 42.2909 36.6311 42.1635C36.1888 42.0183 35.903 42.3125 35.8627 42.9516C35.8206 43.6525 35.1937 44.1604 33.8574 44.5755C31.8708 45.194 30.8195 44.8669 32.5736 44.1754C33.1387 43.9524 33.8134 42.9778 34.1835 41.8477C34.7832 40.0223 34.9135 39.9342 36.3256 40.3981C37.3283 40.726 37.7472 41.1421 37.5832 41.6434ZM41.4392 42.6836C41.5263 43.0481 41.1112 43.5916 40.5162 43.8924C39.5173 44.3984 39.476 44.3384 39.9942 43.1127C40.579 41.7287 41.1665 41.5544 41.4392 42.6845V42.6836ZM45.1069 44.0985C44.882 44.7854 41.3905 45.7262 41.1122 45.1762C40.9229 44.8023 44.315 43.019 44.8688 43.2008C45.1331 43.288 45.2409 43.6919 45.1069 44.0976V44.0985ZM28.5855 40.1601C27.4985 41.1983 27.2352 40.831 28.1029 39.4854C28.459 38.9325 28.9116 38.6701 29.1065 38.9016C29.307 39.1387 29.0784 39.6887 28.5855 40.1601ZM51.1284 46.0551C51.0881 46.1769 50.7845 46.3419 50.4537 46.4215C50.1211 46.5012 49.929 46.3278 50.0246 46.0364C50.1201 45.744 50.4247 45.5791 50.6992 45.67C50.9757 45.7609 51.1678 45.9342 51.1284 46.0551ZM49.1568 47.903C48.8785 48.1373 48.4109 48.2507 48.1176 48.1541C47.7859 48.0454 47.918 47.7699 48.47 47.4232C49.4295 46.8207 49.9833 47.2077 49.1568 47.903ZM24.8635 43.5813C23.8599 45.3261 22.0429 46.3287 21.5725 45.3973C21.4413 45.1377 21.8443 44.6345 22.4684 44.2785C23.0924 43.9224 23.7568 43.1605 23.9461 42.5852C24.1354 42.0098 24.6049 41.53 24.99 41.5207C26.0011 41.4926 25.9936 41.6163 24.8635 43.5813ZM41.0812 50.6748C40.8085 50.8126 40.4843 50.5249 40.3597 50.0358C39.9896 48.5618 40.3991 48.096 41.0072 49.2983C41.3202 49.9177 41.3539 50.5371 41.0803 50.6758L41.0812 50.6748ZM43.9899 52.6164C43.1465 53.1459 41.8056 52.4674 42.0745 51.6475C42.2863 51.0019 44.7555 50.9494 44.7836 51.5894C44.7957 51.8715 44.4387 52.3344 43.9899 52.6164ZM35.5141 50.3862C34.3503 50.7864 34.3569 50.8238 35.6734 51.2718C36.4278 51.5294 36.9872 51.9211 36.9141 52.1413C36.6817 52.8498 35.2124 53.3595 34.2828 53.055C33.5857 52.8263 33.5107 52.3597 33.9558 51.0037C34.4384 49.5326 34.7092 49.3077 35.6303 49.6094C36.7033 49.9617 36.7014 49.9795 35.5141 50.3872V50.3862ZM28.2782 50.1595C27.5903 51.4001 24.8607 52.1844 23.1665 51.6288C22.1057 51.2802 22.1057 51.2202 23.1665 50.6139C23.7887 50.2597 24.4165 49.6066 24.5627 49.1634C24.737 48.6292 25.3995 48.4699 26.5221 48.6892C27.4545 48.8719 28.3681 49.0312 28.5508 49.0425C28.7336 49.0537 28.6099 49.556 28.2753 50.1595H28.2782ZM45.7038 55.8193C45.6072 56.1126 45.3046 55.9599 44.9888 55.4576C44.6889 54.9788 44.4678 54.5084 44.4987 54.4128C44.5296 54.3181 44.852 54.4803 45.2127 54.7754C45.5744 55.0697 45.7956 55.5391 45.7038 55.8193ZM29.233 53.858C29.0334 54.8401 28.727 55.4745 28.5536 55.2683C28.2407 54.8963 29.0231 51.8846 29.4007 52.0083C29.5085 52.0439 29.4326 52.876 29.2321 53.858H29.233ZM40.146 56.3675C40.0055 56.6261 39.3214 56.9953 38.628 57.1865C37.4576 57.5088 37.3986 57.4367 37.809 56.1848C38.1745 55.0725 38.4406 54.9291 39.3271 55.3658C39.9183 55.6572 40.2875 56.1079 40.146 56.3675ZM45.5135 57.6316C45.2924 57.744 44.8538 57.6194 44.539 57.3552C44.1923 57.0647 44.3506 56.9841 44.9419 57.1518C45.4779 57.3036 45.7347 57.5191 45.5135 57.6316ZM31.8043 55.0603C31.7893 56.7414 31.2496 56.7376 31.0631 55.0509C30.975 54.2572 31.1081 53.6753 31.3592 53.7578C31.6103 53.8402 31.8109 54.425 31.8053 55.0565L31.8043 55.0603ZM43.2384 59.9461C43.0275 60.589 42.3875 60.2685 41.5498 59.1018C40.8648 58.147 40.9004 58.1273 42.1008 58.7926C42.8064 59.1834 43.3189 59.7016 43.2384 59.9452V59.9461ZM27.2277 57.968C27.7206 58.5865 27.6156 58.6989 26.5952 58.6474C25.9224 58.6146 25.4295 58.8273 25.5007 59.1215C25.6516 59.7494 25.4042 59.7053 24.4577 58.9341C23.6303 58.2604 23.9058 57.0759 24.9047 57.0094C26.0217 56.9344 26.5924 57.1706 27.2286 57.968H27.2277ZM33.2296 61.1437C32.9382 61.4904 32.8585 61.333 33.0262 60.7408C33.1771 60.2057 33.3936 59.948 33.5041 60.1692C33.6166 60.3903 33.4929 60.8289 33.2296 61.1437ZM31.5241 63.0488C32.0864 63.417 32.3581 63.8781 32.1276 64.073C31.437 64.6539 29.3698 63.7244 29.3248 62.8126C29.2799 61.9074 29.8758 61.9721 31.5241 63.0488ZM37.3592 65.1712C37.0987 65.3905 36.6592 65.4964 36.3837 65.4055C36.1073 65.3155 36.0961 65.0616 36.3575 64.8423C36.618 64.6221 37.0575 64.5162 37.332 64.6071C37.6085 64.698 37.6207 64.951 37.3592 65.1712Z" fill="#34A4D3"/>
</g>
<defs>
<filter id="filter0_i_1228_7659" x="18" y="7" width="37.9412" height="64" filterUnits="userSpaceOnUse" color-interpolation-filters="sRGB">
<feFlood flood-opacity="0" result="BackgroundImageFix"/>
<feBlend mode="normal" in="SourceGraphic" in2="BackgroundImageFix" result="shape"/>
<feColorMatrix in="SourceAlpha" type="matrix" values="0 0 0 0 0 0 0 0 0 0 0 0 0 0 0 0 0 0 127 0" result="hardAlpha"/>
<feOffset dy="4"/>
<feGaussianBlur stdDeviation="7"/>
<feComposite in2="hardAlpha" operator="arithmetic" k2="-1" k3="1"/>
<feColorMatrix type="matrix" values="0 0 0 0 0 0 0 0 0 0 0 0 0 0 0 0 0 0 0.15 0"/>
<feBlend mode="normal" in2="shape" result="effect1_innerShadow_1228_7659"/>
</filter>
</defs>
</svg>
