<svg width="74" height="74" viewBox="0 0 74 74" fill="none" xmlns="http://www.w3.org/2000/svg">
<rect width="74" height="74" fill="white"/>
<g filter="url(#filter0_i_1228_7605)">
<path d="M35.6886 17.6075L35.6012 26.9335C33.6771 26.9796 32.4693 26.6253 31.0031 26.289C33.2928 15.354 14.7057 17.0447 9.09816 17.1601C18.5832 20.4668 24.3181 27.0395 35.5794 28.1239L35.4702 39.5786C33.0932 39.737 31.7643 39.3203 30.0978 38.9347C32.4487 27.5873 13.3619 29.3473 7.60081 29.4671C17.527 32.9634 23.4509 39.9654 35.4577 40.8894L35.3598 50.5023C32.4256 50.5897 31.0168 50.2222 29.1789 49.8111C31.4972 39.0065 12.6781 40.6772 7 40.7914C17.026 44.2029 22.9131 51.13 35.3492 51.7333L35.2506 57.0077L38.385 57.0514V51.7439H38.4287C51.0164 51.2136 56.911 44.2228 66.9956 40.7914C61.3182 40.6772 42.5096 39.0065 44.8274 49.8111C42.9445 50.2322 41.371 50.5373 38.4287 50.5117C38.3632 49.0399 38.385 41.24 38.385 40.9006C50.493 40.0234 56.4275 32.9784 66.3948 29.4671C60.6344 29.3473 41.5476 27.5873 43.8997 38.9347C42.2014 39.3278 40.8488 39.7514 38.3844 39.568V28.1239C49.6688 27.0489 55.4062 20.4705 64.8993 17.1601C59.2912 17.0447 40.7153 15.354 43.0044 26.289C41.5338 26.6259 40.3216 26.9827 38.3857 26.9335V17.5969C35.7104 17.6505 38.2703 17.6337 35.688 17.6075H35.6886Z" fill="#0D314A"/>
<path d="M67 40.7902C61.322 40.6766 42.5078 39.0102 44.8262 49.8154C51.4313 48.0542 61.8747 41.7522 66.9994 40.7902H67ZM66.3992 29.4615C60.6388 29.3417 41.552 27.5923 43.9034 38.9397C50.6047 37.0898 61.2003 30.4716 66.3992 29.4615ZM64.9044 17.1601C59.2955 17.0441 40.7134 15.3583 43.0025 26.294C49.5272 24.5102 59.8427 18.1334 64.9044 17.1601ZM7.00189 40.7902C12.6793 40.6766 31.4935 39.0102 29.1751 49.8154C22.57 48.0542 12.1266 41.7522 7.00189 40.7902ZM7.60208 29.4615C13.3625 29.3417 32.4493 27.5923 30.0979 38.9397C23.3966 37.0898 12.8016 30.4716 7.60208 29.4615ZM9.09693 17.1601C14.7057 17.0441 33.2878 15.3583 30.9988 26.294C24.4741 24.5102 14.158 18.1334 9.09693 17.1601Z" fill="#2F99C6"/>
</g>
<defs>
<filter id="filter0_i_1228_7605" x="7" y="17" width="60" height="44.0514" filterUnits="userSpaceOnUse" color-interpolation-filters="sRGB">
<feFlood flood-opacity="0" result="BackgroundImageFix"/>
<feBlend mode="normal" in="SourceGraphic" in2="BackgroundImageFix" result="shape"/>
<feColorMatrix in="SourceAlpha" type="matrix" values="0 0 0 0 0 0 0 0 0 0 0 0 0 0 0 0 0 0 127 0" result="hardAlpha"/>
<feOffset dy="4"/>
<feGaussianBlur stdDeviation="7"/>
<feComposite in2="hardAlpha" operator="arithmetic" k2="-1" k3="1"/>
<feColorMatrix type="matrix" values="0 0 0 0 0 0 0 0 0 0 0 0 0 0 0 0 0 0 0.15 0"/>
<feBlend mode="normal" in2="shape" result="effect1_innerShadow_1228_7605"/>
</filter>
</defs>
</svg>
