<svg width="74" height="74" viewBox="0 0 74 74" fill="none" xmlns="http://www.w3.org/2000/svg">
<rect width="74" height="74" fill="white"/>
<g filter="url(#filter0_i_1228_7637)">
<path d="M17.4856 41.0187C16.4943 37.9015 15.5934 35.7196 13.7563 32.6583C12.888 31.3 11.1403 28.2937 8.36779 29.1741C7.07656 29.8187 6.62006 31.4444 7.343 33.2918C7.57777 33.8937 7.27686 34.7507 7.43244 35.4746C8.37897 38.7139 9.1578 41.8534 11.9527 44.5588C12.5871 45.3386 13.0101 46.1845 12.5647 47.2866C12.1641 48.1437 11.1841 49.3902 9.99347 49.9697C9.83695 50.3927 9.34785 50.4262 9.70373 51.2609C10.0596 51.5171 10.7285 51.6727 11.2735 51.0047C11.7971 50.3032 12.7874 49.2347 13.8122 48.6887C13.9119 48.6002 14.2128 48.4884 14.4578 48.3999C14.6348 49.3688 14.6348 50.3144 14.8249 51.2833C14.9031 53.0646 14.3236 53.7213 14.2566 54.8458C14.4243 55.6135 14.9143 55.892 15.6037 55.8361C16.4505 56.0597 16.6955 55.1132 16.5949 54.4778C16.172 52.6081 16.2717 50.3591 16.1943 48.2658L17.1958 52.0733C17.0961 52.241 17.6635 53.3645 18.4209 52.8866C18.7656 52.6751 18.5653 51.9513 18.5653 51.9513C17.8526 51.1165 16.8809 49.3902 17.1902 47.854C18.2923 47.5652 18.5886 48.2434 19.0945 48.6673C19.5733 48.8564 19.9739 48.9561 20.2739 48.9841C20.6084 49.1182 22.8238 47.6816 19.2221 47.4478C18.5541 47.2801 17.6197 46.8469 15.8263 45.7336L17.4856 41.0187ZM8.4125 34.7899C10.9614 42.1963 13.3221 43.7744 14.1233 44.475C15.0643 45.3545 16.2027 46.3494 18.855 46.5013C21.2325 46.4351 21.7161 43.5182 21.8772 41.6401C21.4878 36.3298 18.6818 34.6483 15.7881 32.5745L8.4125 34.7899ZM21.8884 41.6028C23.897 42.5046 26.6536 43.5294 31.4655 43.3729C33.9594 43.0282 36.5605 43.0394 38.7834 41.8926C39.4075 41.6475 39.5939 42.1152 39.6963 43.5406C40.2982 49.2216 41.1087 50.8995 41.867 53.304C42.7912 55.5417 46.922 55.6973 48.87 56.5097C50.6736 57.6901 52.3766 59.6716 53.3968 60.061C55.1836 60.674 56.336 58.8704 53.4415 58.3133C52.562 57.6342 51.6267 57.0314 50.5805 55.3629C54.1486 55.8529 57.1885 55.1188 60.8563 56.0737C62.2118 56.5078 63.2459 54.7713 60.3951 54.4368L55.4631 54.6604C54.2613 54.571 53.448 54.5486 50.9317 53.4242C51.0249 52.3826 52.5686 52.2876 53.3921 51.7202C54.1607 51.164 53.3027 50.2362 52.4018 50.552C51.1096 51.4202 50.5646 52.3444 49.0945 52.4106C47.6692 52.4497 46.9574 51.2088 46.6304 49.2822C45.8395 46.6941 45.4212 44.1173 43.7181 41.478C48.0595 37.5465 49.6293 34.175 54.2939 32.5353C56.8093 31.5339 58.6409 29.7079 59.66 28.1157C59.9638 27.5754 60.0187 27.4916 60.2609 26.8022C61.8755 25.8892 63.367 25.1718 65.26 24.2197C67.0077 23.1278 66.3426 22.7608 65.2265 23.4623L60.0243 25.7448L52.3645 28.3049C54.8147 26.0671 62.0105 24.1405 66.228 21.7956C67.5751 20.4709 66.8829 19.1908 66.228 18.3775C65.2339 17.1086 63.8458 17.0863 62.1093 17.1534C61.0631 17.321 59.9498 17.0527 58.6688 15.5882C57.3999 14.3585 56.2978 13.9635 55.3625 14.0026C53.5747 14.0809 52.413 15.7392 51.9229 16.1621C51.5112 16.667 51.1096 17.1822 49.9554 17.2092C46.6388 17.6806 43.0325 18.6169 39.211 20.1271C34.0386 19.7926 29.6069 20.3134 25.9512 21.9503C23.5607 23.1521 23.0827 22.8008 17.8051 26.682C16.8139 27.2046 16.4543 28.1791 14.4829 28.071C13.6752 28.0151 12.1446 29.9641 12.9551 31.478" fill="#2F99C6"/>
<path d="M21.8884 41.6028C23.897 42.5046 26.6536 43.5294 31.4655 43.3729C33.9594 43.0282 36.5605 43.0394 38.7834 41.8926C39.4075 41.6475 39.5939 42.1152 39.6963 43.5406C40.2982 49.2216 41.1087 50.8995 41.867 53.304C42.7912 55.5417 46.922 55.6973 48.87 56.5097C50.6736 57.6901 52.3766 59.6716 53.3968 60.061C55.1836 60.674 56.336 58.8704 53.4415 58.3133C52.562 57.6342 51.6267 57.0314 50.5805 55.3629C54.1486 55.8529 57.1885 55.1188 60.8563 56.0737C62.2118 56.5078 63.2459 54.7713 60.3951 54.4368L55.4631 54.6604C54.2613 54.571 53.448 54.5486 50.9317 53.4242C51.0249 52.3826 52.5686 52.2876 53.3921 51.7202C54.1607 51.164 53.3027 50.2362 52.4018 50.552C51.1096 51.4202 50.5646 52.3444 49.0945 52.4106C47.6692 52.4497 46.9574 51.2088 46.6304 49.2822C45.8394 46.6941 45.4212 44.1173 43.7181 41.478C48.0595 37.5465 49.6293 34.175 54.2939 32.5353C56.8093 31.5339 58.6409 29.7079 59.66 28.1157C59.9638 27.5754 60.0187 27.4916 60.2609 26.8022C61.8754 25.8892 63.367 25.1718 65.26 24.2197C67.0077 23.1278 66.3426 22.7608 65.2265 23.4623L60.0243 25.7448L52.3645 28.3049C54.8147 26.0671 62.0105 24.1405 66.228 21.7956C67.5751 20.4709 66.8829 19.1908 66.228 18.3775C65.2339 17.1086 63.8458 17.0863 62.1093 17.1534C61.0631 17.321 59.9498 17.0527 58.6688 15.5882C57.3999 14.3585 56.2978 13.9635 55.3625 14.0026C53.5747 14.0809 52.413 15.7392 51.9229 16.1621C51.5112 16.667 51.1096 17.1822 49.9554 17.2092C46.6388 17.6807 43.0325 18.6169 39.211 20.1271C34.0386 19.7926 29.6069 20.3134 25.9512 21.9503C23.5607 23.1521 23.0827 22.8008 17.8051 26.682C16.8139 27.2046 16.4543 28.1791 14.4829 28.071C13.6752 28.0151 12.1446 29.9641 12.9551 31.478M17.4856 41.0187C16.4943 37.9015 15.5934 35.7196 13.7563 32.6583C12.888 31.3 11.1403 28.2937 8.36779 29.1741C7.07656 29.8187 6.62006 31.4444 7.343 33.2918C7.57777 33.8937 7.27686 34.7507 7.43244 35.4746C8.37897 38.7139 9.1578 41.8534 11.9527 44.5588C12.5871 45.3386 13.0101 46.1845 12.5647 47.2866C12.1641 48.1437 11.1841 49.3902 9.99347 49.9697C9.83695 50.3927 9.34785 50.4262 9.70373 51.2609C10.0596 51.5171 10.7285 51.6727 11.2735 51.0047C11.7971 50.3032 12.7874 49.2347 13.8122 48.6887C13.9119 48.6002 14.2128 48.4884 14.4578 48.3999C14.6348 49.3688 14.6348 50.3144 14.8249 51.2833C14.9031 53.0646 14.3236 53.7213 14.2566 54.8458C14.4243 55.6135 14.9143 55.892 15.6037 55.8361C16.4505 56.0597 16.6955 55.1132 16.5949 54.4778C16.172 52.6081 16.2717 50.3591 16.1943 48.2658L17.1958 52.0733C17.0961 52.241 17.6635 53.3645 18.4209 52.8866C18.7656 52.6751 18.5653 51.9513 18.5653 51.9513C17.8526 51.1165 16.8809 49.3902 17.1902 47.854C18.2923 47.5652 18.5886 48.2434 19.0945 48.6673C19.5733 48.8564 19.9739 48.9561 20.2739 48.9841C20.6084 49.1182 22.8238 47.6816 19.2221 47.4478C18.5541 47.2801 17.6197 46.8469 15.8263 45.7336L17.4856 41.0187ZM8.4125 34.7899C10.9614 42.1963 13.3221 43.7744 14.1233 44.475C15.0643 45.3545 16.2027 46.3494 18.855 46.5013C21.2325 46.4351 21.7161 43.5182 21.8772 41.6401C21.4878 36.3298 18.6818 34.6483 15.7881 32.5745L8.4125 34.7899Z" stroke="#2F99C6" stroke-width="0.597" stroke-linecap="round"/>
<path d="M39.1942 19.5364C38.7153 19.7321 37.6058 20.2594 37.1185 20.4755" stroke="white" stroke-width="0.597" stroke-linecap="round"/>
<path d="M63.0837 19.3464C63.7405 19.38 64.2259 19.707 64.0526 19.8924C63.7005 20.1616 62.5825 20.2259 62.3599 19.8253C62.2481 19.4247 62.671 19.3688 63.0837 19.3464ZM55.6354 19.8616C56.4254 19.8728 57.1493 20.0936 57.7064 20.8976C58.2291 21.6429 58.5076 22.6099 57.5173 23.9319C56.9714 24.6352 56.0193 25.0787 54.4439 25.1011C52.6077 25.1476 51.3751 24.1583 51.3155 23.0077C51.2512 22.1618 51.6332 20.2687 54.1551 19.9688C54.6675 19.9157 55.1603 19.8486 55.6354 19.857V19.8616Z" fill="white"/>
<path d="M21.2278 23.6552C23.597 22.4375 30.8888 21.6531 35.0475 21.859M39.7429 22.2C43.3837 20.2557 46.5931 19.0939 50.9987 18.9272L39.7429 22.2Z" stroke="white" stroke-width="0.597" stroke-linecap="round"/>
<path d="M56.7198 21.559C57.3542 22.0592 56.3192 22.839 55.5059 23.1054C54.6889 23.3728 53.2467 23.6626 52.9123 22.9443C52.5788 22.2269 55.4621 20.7345 56.7198 21.558V21.559Z" fill="#2F99C6"/>
<path d="M53.4853 33.8238C53.4853 33.8238 55.288 35.4206 56.7907 35.1318C58.9511 34.8616 59.4626 36.0979 62.4186 36.0336L65.3662 35.5119C65.928 35.4048 66.5624 35.3703 66.5801 35.9935C66.6891 36.7109 66.0454 37.0472 65.3998 37.0621C64.2418 37.0286 63.6856 37.009 62.5947 37.0099C61.4702 37.1255 60.3308 36.7118 59.225 36.4603L63.6782 39.3269C64.1905 39.516 64.6126 39.9054 64.9917 39.9837C66.3938 40.2837 66.3938 41.0299 65.7929 41.4305C64.3014 42.0547 63.7005 41.1296 63.1993 40.7066C62.0525 39.5607 60.4156 38.7362 58.4573 37.8465C57.4437 37.3556 56.2522 37.3118 55.2945 37.2559C55.0718 38.1353 55.6951 38.6142 56.0407 39.2933C56.4103 39.8236 56.8525 40.2993 57.3543 40.7066C57.7549 41.1966 57.699 42.0537 56.7087 42.132C56.0845 42.1432 55.4398 41.709 55.1715 41.097C55.028 40.2278 54.8715 39.8831 54.2259 39.2039C53.6697 38.4362 52.5788 38.1689 51.3099 38.3803L47.6068 38.8424C49.442 36.8646 51.0444 35.0619 53.4853 33.8238Z" fill="#2F99C6" stroke="#2F99C6" stroke-width="0.597"/>
<path d="M8.88763 34.8886C11.4365 42.295 13.3017 43.7828 14.1727 44.5737C15.0438 45.3647 16.2521 46.4472 18.9044 46.6C21.2819 46.5329 21.7645 43.616 21.9266 41.7379C21.5372 36.4276 18.7311 34.747 15.8366 32.6732M17.5349 41.1174C16.5437 38.0002 15.6419 35.8174 13.8057 32.7561C12.9365 31.3978 11.607 27.703 8.34357 28.5825L17.5349 41.1174Z" stroke="white" stroke-width="0.597" stroke-linecap="round"/>
<path d="M39.1197 43.3552C38.6464 39.5598 41.6369 36.8031 43.2738 34.1173M56.1134 29.775C57.3822 28.4456 59.0797 27.9406 60.7296 27.173L56.1134 29.775Z" stroke="white" stroke-width="0.597" stroke-linecap="round" stroke-linejoin="round"/>
</g>
<defs>
<filter id="filter0_i_1228_7637" x="6.70294" y="13.7015" width="60.5956" height="50.7835" filterUnits="userSpaceOnUse" color-interpolation-filters="sRGB">
<feFlood flood-opacity="0" result="BackgroundImageFix"/>
<feBlend mode="normal" in="SourceGraphic" in2="BackgroundImageFix" result="shape"/>
<feColorMatrix in="SourceAlpha" type="matrix" values="0 0 0 0 0 0 0 0 0 0 0 0 0 0 0 0 0 0 127 0" result="hardAlpha"/>
<feOffset dy="4"/>
<feGaussianBlur stdDeviation="7"/>
<feComposite in2="hardAlpha" operator="arithmetic" k2="-1" k3="1"/>
<feColorMatrix type="matrix" values="0 0 0 0 0 0 0 0 0 0 0 0 0 0 0 0 0 0 0.15 0"/>
<feBlend mode="normal" in2="shape" result="effect1_innerShadow_1228_7637"/>
</filter>
</defs>
</svg>
