<svg width="24" height="24" viewBox="0 0 24 24" fill="none" xmlns="http://www.w3.org/2000/svg">
<rect width="24" height="24" fill="white"/>
<path d="M7.59376 15.1922C7.13887 13.8832 7.00113 12.485 7.19187 11.1125C7.38261 9.73994 7.89639 8.43227 8.69097 7.29696C9.48554 6.16166 10.5382 5.23115 11.7625 4.58194C12.9867 3.93272 14.3476 3.58333 15.7331 3.5625C16.6417 3.57179 17.5395 3.76045 18.3749 4.11767C19.2104 4.47488 19.9671 4.99361 20.6015 5.64406C21.2359 6.29451 21.7356 7.06388 22.0719 7.90798C22.4081 8.75208 22.5743 9.6543 22.561 10.5628C22.5727 11.2891 22.4408 12.0105 22.1728 12.6856C21.9048 13.3607 21.5059 13.9761 20.9992 14.4965C20.4925 15.0169 19.8879 15.432 19.2201 15.7179C18.5524 16.0039 17.8348 16.1549 17.1084 16.1625C15.9308 16.1519 14.8056 15.6739 13.9803 14.8337C13.1551 13.9935 12.6973 12.8598 12.7078 11.6822C12.6996 10.7402 13.0658 9.8334 13.7259 9.16131C14.3861 8.48921 15.2861 8.10679 16.2281 8.09812C16.9812 8.10604 17.7004 8.41249 18.2277 8.95018C18.755 9.48787 19.0474 10.2129 19.0406 10.9659" stroke="#12466A" stroke-width="1.5" stroke-linecap="round" stroke-linejoin="round"/>
<path d="M7.13909 12.1744C7.17377 8.87533 1.46252 7.83376 1.46252 12.3169C1.46252 15.8325 2.86877 19.3481 7.79065 19.3481H22.5563C22.5563 19.3481 20.8538 15.9441 19.3228 15.6919" stroke="#12466A" stroke-width="1.5" stroke-linecap="round" stroke-linejoin="round"/>
<path d="M2.16565 5.98874L3.04596 9.50999" stroke="#12466A" stroke-width="1.5" stroke-linecap="round" stroke-linejoin="round"/>
<path d="M5.68129 5.98874L4.82629 9.40968" stroke="#12466A" stroke-width="1.5" stroke-linecap="round" stroke-linejoin="round"/>
</svg>
