<svg width="75" height="74" viewBox="0 0 75 74" fill="none" xmlns="http://www.w3.org/2000/svg">
<rect width="74" height="74" transform="translate(0.226074)" fill="white"/>
<g filter="url(#filter0_i_1228_7581)">
<path d="M30.2413 27.7373C30.69 26.91 31.4382 25.9256 31.8489 25.94C32.2621 25.9543 34.4587 28.2819 36.6274 30.1988C38.2667 31.7735 52.7146 39.9975 57.4652 43.9998C62.2184 48.0026 66.2279 53.3752 67.0002 57.8013C64.1027 54.9283 63.3274 53.3722 60.7092 50.7911C57.2615 47.3921 55.1507 45.6227 51.2016 42.8228C47.2525 40.0216 37.431 35.3554 34.6311 34.7868C31.832 34.2176 31.8341 34.5552 30.0461 34.6503C30.1673 33.3701 30.0444 32.1702 29.6768 31.0506C29.471 29.756 29.6189 28.8916 30.2442 27.7403L30.2413 27.7373Z" fill="#2F99C6" stroke="#0D314A" stroke-miterlimit="3.429" stroke-linecap="round" stroke-linejoin="round"/>
<path d="M31.8174 25.8453C31.1553 23.3864 29.2114 20.69 26.4157 18.9171C23.6204 17.1443 20.657 16.3559 16.9364 16.1058C13.2163 15.8557 10.9749 15.9985 7.39209 17.086C8.5734 17.1642 9.29251 17.5782 9.54939 18.3282C9.19238 19.297 8.40779 20.0596 7.19605 20.6169C7.83572 20.7352 8.09724 21.0605 7.98021 21.5971L7 23.3631" stroke="#0D314A" stroke-miterlimit="3.429" stroke-linecap="round" stroke-linejoin="round"/>
<path d="M29.9123 34.5096L25.5322 37.1899L29.9123 34.5096Z" fill="black"/>
<path d="M29.9123 34.5096L25.5322 37.1899" stroke="#0D314A" stroke-miterlimit="3.429" stroke-linecap="round" stroke-linejoin="round"/>
<path d="M21.2686 27.3642C22.589 27.9032 24.0023 27.5001 24.4253 26.4638C24.8483 25.4276 24.1208 24.1506 22.8004 23.6116C21.4801 23.0726 20.0668 23.4758 19.6438 24.512C19.2208 25.5483 19.9483 26.8252 21.2686 27.3642Z" stroke="#0D314A" stroke-width="0.99954" stroke-miterlimit="3.429" stroke-linecap="round" stroke-linejoin="round"/>
<path d="M21.4609 21.8789C23.8755 22.2541 24.8579 22.7501 25.7519 24.1435C26.3223 25.0278 26.2154 26.7706 25.5702 27.6997M30.1729 32.34C39.5694 34.3004 57.8608 43.9419 64.2292 54.8188M33.5513 30.1967C34.5856 30.4261 35.2075 30.898 35.5396 31.3628C35.87 31.8275 35.6029 32.1191 34.3735 31.8043L33.5513 30.1967Z" stroke="#0D314A" stroke-miterlimit="3.429" stroke-linecap="round" stroke-linejoin="round"/>
</g>
<defs>
<filter id="filter0_i_1228_7581" x="6.5" y="15.5001" width="61.0005" height="46.8012" filterUnits="userSpaceOnUse" color-interpolation-filters="sRGB">
<feFlood flood-opacity="0" result="BackgroundImageFix"/>
<feBlend mode="normal" in="SourceGraphic" in2="BackgroundImageFix" result="shape"/>
<feColorMatrix in="SourceAlpha" type="matrix" values="0 0 0 0 0 0 0 0 0 0 0 0 0 0 0 0 0 0 127 0" result="hardAlpha"/>
<feOffset dy="4"/>
<feGaussianBlur stdDeviation="7"/>
<feComposite in2="hardAlpha" operator="arithmetic" k2="-1" k3="1"/>
<feColorMatrix type="matrix" values="0 0 0 0 0 0 0 0 0 0 0 0 0 0 0 0 0 0 0.15 0"/>
<feBlend mode="normal" in2="shape" result="effect1_innerShadow_1228_7581"/>
</filter>
</defs>
</svg>
