<svg width="74" height="74" viewBox="0 0 74 74" fill="none" xmlns="http://www.w3.org/2000/svg">
<rect width="74" height="74" fill="white"/>
<g filter="url(#filter0_i_1228_7619)">
<path d="M59.3484 36.8699C59.3484 40.1582 56.5638 42.8265 54.6824 42.8265C52.8034 42.8265 52.2368 40.1582 52.2368 36.8699C52.2368 33.5793 52.8034 30.9085 54.6824 30.9085C56.5638 30.9085 59.3484 33.5793 59.3484 36.8675V36.8699Z" fill="#2F99C6"/>
<path d="M59.2564 37.8651C59.7068 38.4172 60.1063 38.9693 60.225 39.5141C63.1403 42.4561 65.4116 47.5289 66.5521 49.5822C66.8426 50.1028 67.0412 51.4467 66.9927 51.8123C66.9443 52.1755 66.6344 53.5218 66.4843 53.7785C66.3874 53.948 66.0968 53.6574 66.0968 53.3426C66.0968 53.0278 66.3632 52.0787 66.3632 52.0787C66.5424 51.9794 66.368 50.667 65.9516 49.897C65.9104 49.8219 62.5616 43.3689 60.8206 41.4682C60.3848 40.9911 60.0264 40.1969 59.7407 39.8313C59.5495 39.6256 59.3386 39.4391 59.1111 39.2744C58.1886 38.594 58.4937 37.1484 59.2564 37.8651ZM59.2564 35.8723C59.7068 35.3203 60.1063 34.7682 60.225 34.2234C63.1403 31.2814 65.4116 26.2086 66.5521 24.1553C66.8426 23.6322 67.0412 22.2908 66.9927 21.9252C66.9443 21.5619 66.6344 20.2132 66.4843 19.959C66.3874 19.7895 66.0968 20.0801 66.0968 20.3948C66.0968 20.7096 66.3632 21.6564 66.3632 21.6564C66.5424 21.7581 66.368 23.0705 65.9516 23.8405C65.9104 23.9131 62.5616 30.3685 60.8206 32.2693C60.3848 32.7463 60.0264 33.5405 59.7407 33.9062C59.5688 34.1289 59.1111 34.4631 59.1111 34.4631C58.0942 35.1483 58.7673 36.3397 59.2564 35.8723ZM55.7793 39.3398C57.3532 39.7926 58.145 38.7877 58.5518 39.4027C59.1983 40.3858 58.375 41.9936 57.1304 42.5432C55.8859 43.0977 54.5178 42.7442 54.0408 41.6715C53.5638 40.5965 54.4718 38.9669 55.7793 39.3422V39.3398ZM55.7793 34.158C57.3532 33.7052 58.145 34.7101 58.5518 34.0926C59.1983 33.112 58.375 31.5066 57.1304 30.9521C55.8859 30.4 54.5178 30.7535 54.0408 31.8262C53.5638 32.9013 54.4718 34.5309 55.7793 34.1556V34.158Z" fill="#2F99C6"/>
<path d="M61.7335 50.914C61.8545 50.9261 63.4551 51.0665 63.6125 51.3644C63.7771 51.6743 63.4745 51.9164 63.1984 51.8486C62.5662 51.6472 61.9396 51.4284 61.3194 51.1924C61.2516 51.2433 61.208 51.2844 61.2177 51.3038C61.2419 51.3619 60.2806 50.4563 60.0409 50.2336C60.0095 50.2491 59.9746 50.2559 59.9397 50.2534C59.9048 50.2508 59.8712 50.239 59.8424 50.219C59.5663 50.0447 57.7285 47.8461 57.3919 47.4393L57.3435 47.5071C57.3435 47.5071 55.973 46.9938 55.4694 47.0252C54.9657 47.0567 52.9584 45.0397 52.9366 45.0058L49.9655 44.1099L50.0769 43.1898L53.1763 43.7321L53.1787 43.9864C53.1836 43.9864 57.2467 45.5603 57.622 46.1051C57.6802 46.1896 57.7175 46.2867 57.7309 46.3884C58.2951 46.4683 60.4138 49.7227 60.4138 49.7227L61.9223 50.8026L61.7335 50.9164V50.914ZM22.8993 52.483L22.8291 52.3256C23.6233 51.4999 23.8921 51.7203 25.2553 50.9527C26.6161 50.1827 31.919 46.7637 31.919 46.7637L33.6406 46.3448C33.6406 46.3448 34.0256 46.7565 33.3815 47.0712C32.7398 47.3884 30.8245 49.4563 29.4685 50.6307C28.1126 51.805 23.4175 53.6647 23.4175 53.6647L23.2383 53.2555C22.7058 53.4424 22.1593 53.5865 21.6039 53.6865C20.5239 53.9068 13.807 53.5073 13.807 53.5073L12.7295 54.2192L12.5769 54.1465L11.0466 55.2361L10.9643 55.0424L9.91827 55.781L9.74393 55.5872C8.66641 56.1151 7.74387 56.6841 7.9182 57.5122C7.60655 57.3021 7.35759 57.0115 7.19772 56.6713C7.03786 56.3311 6.97306 55.954 7.01019 55.58C7.25475 56.0546 8.33468 55.9965 9.55022 55.3669L9.33229 55.1248L10.8142 54.6841L10.6834 54.3693L12.3445 53.8366L12.2137 53.7034C12.2113 53.7034 12.2113 53.7034 12.2137 53.7034L13.8167 53.0884L14.0637 52.9383L21.415 52.253L22.8993 52.483ZM28.5799 53.1223C28.6332 52.9552 28.6792 52.8317 28.6792 52.8317L32.689 51.0399C32.6502 50.621 32.6769 50.1004 32.8585 49.8292C33.1587 49.3812 37.7981 45.9429 37.7981 45.9429L40.636 40.5844C40.636 40.5844 41.1517 41.611 41.0258 41.8653C40.912 42.0977 39.527 45.1099 39.3163 45.5651C39.2122 45.9017 38.4761 46.6233 38.4761 46.6233C38.4761 46.6233 35.8343 50.2844 35.3162 51.1125C35.0111 51.5968 34.258 51.759 33.6575 51.7663C32.3597 52.8656 29.0763 53.9044 28.5775 53.994L27.9479 54.8536L27.8026 54.7131L26.9672 55.9819L26.8123 55.8173L26.0205 56.873L25.9236 56.7665L24.2093 58.7036L23.4344 58.752L23.6766 57.9408L25.6573 56.4807L25.5628 56.379L26.4563 55.4323L26.3304 55.2967L27.4442 54.3596L27.3426 54.2603L28.5799 53.1223Z" fill="#2F99C6"/>
<path d="M61.7335 22.8332C61.8545 22.8235 63.4551 22.6806 63.6125 22.3852C63.7771 22.0753 63.4745 21.8331 63.1984 21.9009C62.9224 21.9736 61.6148 22.4433 61.3194 22.5571C61.2516 22.5063 61.208 22.4627 61.2177 22.4458C61.2419 22.3852 60.2806 23.2932 60.0409 23.516C60.0098 23.5001 59.9749 23.4929 59.94 23.495C59.9051 23.4972 59.8714 23.5086 59.8424 23.5281C59.5663 23.7049 57.7285 25.9011 57.3919 26.3103L57.3435 26.2401C57.3435 26.2401 55.973 26.7534 55.4694 26.7243C54.9657 26.6929 52.9584 28.7099 52.9366 28.7438L49.9655 29.6397L50.0769 30.5598L53.1763 30.015L53.1787 29.7632C53.1836 29.7632 57.2467 28.1869 57.622 27.6445C57.6802 27.56 57.7175 27.4629 57.7309 27.3612C58.2951 27.2813 60.4138 24.0245 60.4138 24.0245L61.9223 22.947L61.7335 22.8332ZM22.8993 21.2665L22.8291 21.4239C23.6233 22.2496 23.8921 22.0293 25.2553 22.7969C26.6161 23.5669 31.919 26.9859 31.919 26.9859L33.6406 27.4048C33.6406 27.4048 34.0256 26.9931 33.3815 26.6783C32.7398 26.3611 30.8245 24.2933 29.4685 23.1189C28.1126 21.9445 23.4175 20.0849 23.4175 20.0849L23.2383 20.4941C22.7058 20.3072 22.1593 20.1631 21.6039 20.0631C20.5239 19.8428 13.807 20.2423 13.807 20.2423L12.7295 19.5304L12.5769 19.6006L11.0466 18.5134L10.9643 18.7071L9.91827 17.9686L9.74393 18.1623C8.66641 17.632 7.74387 17.0654 7.9182 16.2373C7.60655 16.4475 7.35759 16.738 7.19772 17.0782C7.03786 17.4184 6.97306 17.7955 7.01019 18.1696C7.25475 17.695 8.33468 17.7531 9.55022 18.3827L9.33229 18.6248L10.8142 19.0655L10.6834 19.3803L12.3445 19.913L12.2137 20.0462C12.2113 20.0462 12.2113 20.0462 12.2137 20.0462L13.8167 20.6588L14.0637 20.8113L21.415 21.4966L22.8993 21.2665ZM28.5799 20.6273C28.6332 20.792 28.6792 20.9179 28.6792 20.9179L32.689 22.7097C32.6502 23.1262 32.6769 23.6468 32.8585 23.9204C33.1587 24.3683 37.7981 27.8043 37.7981 27.8043L40.636 33.1652C40.636 33.1652 41.1517 32.141 41.0258 31.8867C40.912 31.6543 39.527 28.6421 39.3163 28.1869C39.2122 27.8479 38.4761 27.1287 38.4761 27.1287C38.4761 27.1287 35.8343 23.4676 35.3162 22.6395C35.0111 22.1552 34.258 21.993 33.6575 21.9833C32.3597 20.8864 29.0763 19.8476 28.5775 19.758L27.9479 18.896L27.8026 19.0364L26.9672 17.7701L26.8123 17.9347L26.0205 16.879L25.9236 16.9855L24.2093 15.0484L23.4344 15L23.6766 15.8112L25.6573 17.2713L25.5628 17.373L26.4563 18.3197L26.3304 18.4553L27.4442 19.39L27.3426 19.4917L28.5799 20.6273Z" fill="#2F99C6"/>
<path fill-rule="evenodd" clip-rule="evenodd" d="M11.3081 36.8724C11.2693 40.4826 15.3905 45.5482 20.1848 46.5821C23.7007 47.3376 27.5362 47.3424 30.2166 47.5434C35.241 47.9187 39.0644 45.5603 40.3961 40.8434C41.0475 37.9378 40.9627 35.2258 40.3961 32.8916C39.0644 28.1772 35.2531 26.1505 30.2166 26.194C27.6742 26.2158 24.0833 26.2183 20.7103 26.9059C15.6786 27.9302 11.2572 33.3565 11.3081 36.8724Z" fill="#12466A"/>
<path fill-rule="evenodd" clip-rule="evenodd" d="M54.537 36.8699C54.537 41.3011 50.8032 45.3036 46.9653 45.3763C41.9336 45.4731 40.0062 41.3011 40.0062 36.8675C40.0062 32.4364 42.1637 28.3418 46.9653 28.3612C51.7645 28.3806 54.537 32.4364 54.537 36.8675V36.8699Z" fill="#12466A"/>
<path d="M48.6216 42.9669C48.1567 42.6401 37.7907 41.318 27.3037 44.4367C25.9744 44.8314 19.3446 47.9889 18.9185 48.4635C18.4923 48.9357 20.4343 49.127 21.7127 48.7008C22.9912 48.2722 29.7372 45.4004 31.2821 45.1002C41.7521 43.0614 37.5825 43.6788 43.5052 43.7248C44.0766 43.7297 40.2848 45.3351 38.1055 45.9525C35.9263 46.5675 32.609 49.2214 32.0399 51.5895C31.4733 53.9576 30.8559 55.2845 31.9455 56.2313C32.5823 56.7858 34.9311 56.4686 36.9215 54.6695C38.1999 53.5121 38.9191 51.0181 40.7109 49.8364C42.9555 48.357 44.3188 44.5869 47.7693 43.7733C48.1494 43.6837 49.0962 43.2987 48.6216 42.9669ZM48.6216 30.7583C48.1567 31.0852 37.7907 32.4097 27.3037 29.291C25.9744 28.8963 19.3446 25.7364 18.9185 25.2642C18.4923 24.7896 20.4343 24.6007 21.7127 25.0269C22.9912 25.4531 29.7372 28.3273 31.2821 28.6275C41.7521 30.6639 37.5825 30.0489 43.5052 30.0004C44.0766 29.9956 40.2848 28.3902 38.1055 27.7728C35.9263 27.1577 32.609 24.5039 32.0399 22.1382C31.4733 19.7677 30.8559 18.4407 31.9455 17.494C32.5823 16.9419 34.9311 17.2567 36.9215 19.0582C38.1999 20.2156 38.9191 22.7096 40.7109 23.8889C42.9555 25.3707 44.3188 29.1408 47.7693 29.9544C48.1494 30.044 49.0962 30.4266 48.6216 30.7583Z" fill="#2F99C6"/>
</g>
<defs>
<filter id="filter0_i_1228_7619" x="7" y="15" width="60" height="47.752" filterUnits="userSpaceOnUse" color-interpolation-filters="sRGB">
<feFlood flood-opacity="0" result="BackgroundImageFix"/>
<feBlend mode="normal" in="SourceGraphic" in2="BackgroundImageFix" result="shape"/>
<feColorMatrix in="SourceAlpha" type="matrix" values="0 0 0 0 0 0 0 0 0 0 0 0 0 0 0 0 0 0 127 0" result="hardAlpha"/>
<feOffset dy="4"/>
<feGaussianBlur stdDeviation="7"/>
<feComposite in2="hardAlpha" operator="arithmetic" k2="-1" k3="1"/>
<feColorMatrix type="matrix" values="0 0 0 0 0 0 0 0 0 0 0 0 0 0 0 0 0 0 0.15 0"/>
<feBlend mode="normal" in2="shape" result="effect1_innerShadow_1228_7619"/>
</filter>
</defs>
</svg>
