<svg width="48" height="48" viewBox="0 0 48 48" fill="none" xmlns="http://www.w3.org/2000/svg">
<path fill-rule="evenodd" clip-rule="evenodd" d="M47.9974 23.5909C48 23.5608 48 23.5309 48 23.501C48 23.4712 48 23.4411 47.9974 23.4112C47.9974 23.3915 47.9948 23.3717 47.9923 23.352C47.9923 23.3418 47.9897 23.3317 47.9897 23.3221C47.9871 23.3068 47.9852 23.2922 47.9852 23.2795C47.9827 23.2622 47.9801 23.2476 47.9775 23.2297V23.2247C47.9174 22.8565 47.7427 22.5082 47.4752 22.242C45.945 20.4366 44.1222 18.8291 42.2701 17.3612C38.2823 14.1999 33.7203 11.5525 28.6823 10.4877C25.7728 9.87379 22.8422 9.84648 19.9174 10.3661C17.2551 10.8386 14.69 11.8239 12.29 13.0453C8.53264 14.9559 5.10032 17.5905 2.11019 20.5428C1.55788 21.0905 1.00501 21.6478 0.502506 22.242C-0.167502 23.0336 -0.167502 23.9685 0.502506 24.7575C2.03271 26.5637 3.85476 28.1704 5.70761 29.6383C9.6974 32.8002 14.26 35.447 19.2948 36.5118C22.2049 37.1263 25.1347 37.1538 28.0601 36.6334C30.72 36.1609 33.2851 35.1757 35.6877 33.9543C39.445 32.0437 42.8774 29.409 45.8675 26.4567C46.4198 25.909 46.9728 25.3517 47.4752 24.7575C47.7427 24.4913 47.9174 24.1456 47.9775 23.7748V23.7698C47.9801 23.7525 47.9827 23.7374 47.9852 23.72C47.9871 23.7049 47.9897 23.6927 47.9897 23.6774C47.9897 23.6678 47.9923 23.6577 47.9923 23.6475C47.9948 23.6278 47.9948 23.6106 47.9974 23.5909ZM35.2159 23.6206C35.2159 29.8115 30.1944 34.8303 23.9999 34.8303C17.8055 34.8303 12.7838 29.8115 12.7838 23.6206C12.7838 17.4294 17.8055 12.4106 23.9999 12.4106C30.1944 12.4106 35.2159 17.4294 35.2159 23.6206ZM24.658 29.4541C27.2001 25.8625 27.0754 20.9642 24.3099 15.6558C24.1863 15.4191 23.8117 15.4191 23.6881 15.6558C22.8559 17.2542 22.2675 18.8134 21.914 20.3128L24.1653 22.426C24.3099 22.5638 24.3216 22.7949 24.1908 22.9454C24.1209 23.0244 24.0246 23.0657 23.9285 23.0657C23.8436 23.0657 23.7587 23.0345 23.6907 22.9711L21.7443 21.1431C21.6711 21.5562 21.6111 21.9626 21.5748 22.3636L23.8558 24.4594C24.0026 24.5933 24.0166 24.8247 23.886 24.9769C23.8163 25.0588 23.7182 25.1019 23.6209 25.1019C23.5379 25.1019 23.454 25.0708 23.3868 25.0082L21.5237 23.2978C21.5148 23.7951 21.5377 24.2823 21.589 24.7603L23.8525 26.8105C23.9991 26.9443 24.0142 27.1747 23.886 27.328C23.8163 27.4106 23.7182 27.4545 23.6191 27.4545C23.5361 27.4545 23.454 27.4243 23.3868 27.3645L21.7762 25.9055C22.0599 27.1883 22.5757 28.3813 23.3348 29.4541C23.402 29.5485 23.5069 29.6046 23.6191 29.6046H23.6431V31.8068C23.6431 32.0088 23.8012 32.1739 23.9963 32.1739C24.1917 32.1739 24.3498 32.0088 24.3498 31.8068V29.6046H24.3736C24.4859 29.6046 24.5918 29.5485 24.658 29.4541Z" fill="black"/>
</svg>
