<svg width="24" height="25" viewBox="0 0 24 25" fill="none" xmlns="http://www.w3.org/2000/svg">
<path fill-rule="evenodd" clip-rule="evenodd" d="M12.2775 0.560553C11.7849 0.730694 11.3261 0.95878 10.908 1.2352C10.3699 0.952905 9.83931 0.724155 9.32024 0.558051C8.70376 0.360779 8.11271 0.255702 7.54999 0.255702C7.13577 0.255702 6.79999 0.591489 6.79999 1.0057C6.79999 1.41992 7.13577 1.7557 7.54999 1.7557C7.9456 1.7557 8.3858 1.83396 8.86307 1.98669C9.13075 2.07234 9.4063 2.18001 9.68808 2.30773C8.80307 3.33412 8.29018 4.64972 8.30001 6.05096L8.31196 6.33919C8.3248 6.53063 8.34738 6.72059 8.37956 6.90863L8.42799 7.1527L8.26049 7.25936C7.17022 7.97945 6.21744 8.87922 5.44724 9.91939C2.90604 13.3348 2.09625 17.7144 2.2505 21.9037C2.26708 22.3152 2.45627 22.6971 2.77026 22.9623C3.07762 23.222 3.47835 23.348 3.88082 23.3136C6.99306 23.0637 10.1553 22.1865 12.9625 20.4452L13.3297 21.8557H12.8L12.6982 21.8626C12.3321 21.9122 12.05 22.226 12.05 22.6057C12.05 23.0199 12.3858 23.3557 12.8 23.3557H14.283C14.294 23.3559 14.3049 23.3559 14.3159 23.3557H16.55L16.6518 23.3489C17.0178 23.2992 17.3 22.9854 17.3 22.6057C17.3 22.1915 16.9642 21.8557 16.55 21.8557H14.8797L14.278 19.5444C15.6066 18.5428 16.8323 17.3201 17.906 15.8476L18.1112 15.5593C19.905 12.9751 20.2727 10.6775 19.6304 8.76323L19.609 8.7047L19.6687 8.59714C20.7178 6.57012 20.4484 4.11672 18.9402 2.34116C18.8716 2.26036 18.8011 2.18172 18.7287 2.10525C19.2761 1.87781 19.804 1.7557 20.3 1.7557C20.7142 1.7557 21.05 1.41992 21.05 1.0057C21.05 0.591489 20.7142 0.255702 20.3 0.255702C19.3476 0.255702 18.3841 0.54768 17.4214 1.06654C15.9026 0.174196 14.0152 -0.039722 12.2775 0.560553ZM12.8212 18.7379C12.9093 18.6245 13.0305 18.5356 13.1751 18.4874C14.3659 17.6202 15.4676 16.5668 16.4385 15.3049L16.694 14.9638C18.4992 12.4886 18.7582 10.5004 18.0908 8.93122C17.9942 8.70396 18.0156 8.44368 18.1481 8.23528C19.1317 6.68831 18.992 4.71909 17.797 3.31224L17.6484 3.14611C17.5552 3.04698 17.4577 2.95268 17.3565 2.86331C17.1201 3.02401 16.8822 3.20042 16.6435 3.39135C16.1775 3.76416 15.743 4.16524 15.3534 4.56601L15.0586 4.87846C14.9785 4.96628 14.9172 5.03659 14.8762 5.08584C14.5977 5.41997 14.0944 5.44796 13.7806 5.14674L13.5045 4.89418C13.4129 4.81305 13.3051 4.7194 13.1824 4.61549C12.7027 4.20911 12.1775 3.80253 11.6258 3.42425C11.4321 3.29141 11.2395 3.16507 11.0483 3.04575C10.2566 3.83453 9.79196 4.89944 9.79989 6.03366C9.8066 6.45125 9.87774 6.86571 10.0111 7.26371C10.1253 7.60432 9.98186 7.97803 9.66917 8.15486C8.47915 8.82783 7.45139 9.73343 6.6517 10.8134C4.36602 13.8854 3.61033 17.9498 3.74836 21.8177L3.74799 21.8177L3.74938 21.8459L3.74836 21.8177C5.01758 21.7162 6.29567 21.502 7.54985 21.1575C7.54995 18.2056 8.14255 15.8551 9.14434 14.0517C9.76314 12.9377 10.4009 12.2488 10.8618 11.9171C11.1979 11.675 11.6666 11.7513 11.9086 12.0875C12.1287 12.3931 12.0856 12.8082 11.8234 13.063L11.6608 13.1975C11.5942 13.2559 11.4989 13.3473 11.3816 13.474C11.0701 13.8104 10.754 14.2428 10.4556 14.7801C9.6319 16.2629 9.11479 18.2065 9.05553 20.6752C10.3662 20.1927 11.6346 19.554 12.8212 18.7379ZM15.7065 2.22005C15.7902 2.1531 15.8739 2.08759 15.9577 2.02356C14.9589 1.64634 13.8263 1.61248 12.7672 1.97835C12.6375 2.02316 12.5109 2.07325 12.3878 2.1283L12.4741 2.18716C12.9217 2.49407 13.3512 2.81671 13.7559 3.14336L14.247 3.5517L14.2779 3.52039C14.6009 3.18816 14.9514 2.8561 15.3251 2.53588L15.7065 2.22005ZM15.0431 6.66393C14.9935 6.29786 14.6797 6.0157 14.3 6.0157C13.8858 6.0157 13.55 6.35149 13.55 6.7657V8.2057L13.5568 8.30747C13.6065 8.67355 13.9203 8.9557 14.3 8.9557C14.7142 8.9557 15.05 8.61992 15.05 8.2057V6.7657L15.0431 6.66393Z" fill="black"/>
<mask id="mask0_1038_6770" style="mask-type:luminance" maskUnits="userSpaceOnUse" x="2" y="0" width="20" height="24">
<path fill-rule="evenodd" clip-rule="evenodd" d="M12.2775 0.560553C11.7849 0.730694 11.3261 0.95878 10.908 1.2352C10.3699 0.952905 9.83931 0.724155 9.32024 0.558051C8.70376 0.360779 8.11271 0.255702 7.54999 0.255702C7.13577 0.255702 6.79999 0.591489 6.79999 1.0057C6.79999 1.41992 7.13577 1.7557 7.54999 1.7557C7.9456 1.7557 8.3858 1.83396 8.86307 1.98669C9.13075 2.07234 9.4063 2.18001 9.68808 2.30773C8.80307 3.33412 8.29018 4.64972 8.30001 6.05096L8.31196 6.33919C8.3248 6.53063 8.34738 6.72059 8.37956 6.90863L8.42799 7.1527L8.26049 7.25936C7.17022 7.97945 6.21744 8.87922 5.44724 9.91939C2.90604 13.3348 2.09625 17.7144 2.2505 21.9037C2.26708 22.3152 2.45627 22.6971 2.77026 22.9623C3.07762 23.222 3.47835 23.348 3.88082 23.3136C6.99306 23.0637 10.1553 22.1865 12.9625 20.4452L13.3297 21.8557H12.8L12.6982 21.8626C12.3321 21.9122 12.05 22.226 12.05 22.6057C12.05 23.0199 12.3858 23.3557 12.8 23.3557H14.283C14.294 23.3559 14.3049 23.3559 14.3159 23.3557H16.55L16.6518 23.3489C17.0178 23.2992 17.3 22.9854 17.3 22.6057C17.3 22.1915 16.9642 21.8557 16.55 21.8557H14.8797L14.278 19.5444C15.6066 18.5428 16.8323 17.3201 17.906 15.8476L18.1112 15.5593C19.905 12.9751 20.2727 10.6775 19.6304 8.76323L19.609 8.7047L19.6687 8.59714C20.7178 6.57012 20.4484 4.11672 18.9402 2.34116C18.8716 2.26036 18.8011 2.18172 18.7287 2.10525C19.2761 1.87781 19.804 1.7557 20.3 1.7557C20.7142 1.7557 21.05 1.41992 21.05 1.0057C21.05 0.591489 20.7142 0.255702 20.3 0.255702C19.3476 0.255702 18.3841 0.54768 17.4214 1.06654C15.9026 0.174196 14.0152 -0.039722 12.2775 0.560553ZM12.8212 18.7379C12.9093 18.6245 13.0305 18.5356 13.1751 18.4874C14.3659 17.6202 15.4676 16.5668 16.4385 15.3049L16.694 14.9638C18.4992 12.4886 18.7582 10.5004 18.0908 8.93122C17.9942 8.70396 18.0156 8.44368 18.1481 8.23528C19.1317 6.68831 18.992 4.71909 17.797 3.31224L17.6484 3.14611C17.5552 3.04698 17.4577 2.95268 17.3565 2.86331C17.1201 3.02401 16.8822 3.20042 16.6435 3.39135C16.1775 3.76416 15.743 4.16524 15.3534 4.56601L15.0586 4.87846C14.9785 4.96628 14.9172 5.03659 14.8762 5.08584C14.5977 5.41997 14.0944 5.44796 13.7806 5.14674L13.5045 4.89418C13.4129 4.81305 13.3051 4.7194 13.1824 4.61549C12.7027 4.20911 12.1775 3.80253 11.6258 3.42425C11.4321 3.29141 11.2395 3.16507 11.0483 3.04575C10.2566 3.83453 9.79196 4.89944 9.79989 6.03366C9.8066 6.45125 9.87774 6.86571 10.0111 7.26371C10.1253 7.60432 9.98186 7.97803 9.66917 8.15486C8.47915 8.82783 7.45139 9.73343 6.6517 10.8134C4.36602 13.8854 3.61033 17.9498 3.74836 21.8177L3.74799 21.8177L3.74938 21.8459L3.74836 21.8177C5.01758 21.7162 6.29567 21.502 7.54985 21.1575C7.54995 18.2056 8.14255 15.8551 9.14434 14.0517C9.76314 12.9377 10.4009 12.2488 10.8618 11.9171C11.1979 11.675 11.6666 11.7513 11.9086 12.0875C12.1287 12.3931 12.0856 12.8082 11.8234 13.063L11.6608 13.1975C11.5942 13.2559 11.4989 13.3473 11.3816 13.474C11.0701 13.8104 10.754 14.2428 10.4556 14.7801C9.6319 16.2629 9.11479 18.2065 9.05553 20.6752C10.3662 20.1927 11.6346 19.554 12.8212 18.7379ZM15.7065 2.22005C15.7902 2.1531 15.8739 2.08759 15.9577 2.02356C14.9589 1.64634 13.8263 1.61248 12.7672 1.97835C12.6375 2.02316 12.5109 2.07325 12.3878 2.1283L12.4741 2.18716C12.9217 2.49407 13.3512 2.81671 13.7559 3.14336L14.247 3.5517L14.2779 3.52039C14.6009 3.18816 14.9514 2.8561 15.3251 2.53588L15.7065 2.22005ZM15.0431 6.66393C14.9935 6.29786 14.6797 6.0157 14.3 6.0157C13.8858 6.0157 13.55 6.35149 13.55 6.7657V8.2057L13.5568 8.30747C13.6065 8.67355 13.9203 8.9557 14.3 8.9557C14.7142 8.9557 15.05 8.61992 15.05 8.2057V6.7657L15.0431 6.66393Z" fill="white"/>
</mask>
<g mask="url(#mask0_1038_6770)">
<rect y="0.285706" width="24" height="24" fill="black"/>
</g>
</svg>
