<svg width="74" height="74" viewBox="0 0 74 74" fill="none" xmlns="http://www.w3.org/2000/svg">
<rect width="74" height="74" fill="white"/>
<g filter="url(#filter0_i_1228_7604)">
<path d="M35.7455 16.1565V44.0073H35.5636L25.9384 17.545L24.2771 18.1396L33.7589 44.1751L17.8207 25.1941L16.4672 26.3273L33.8114 46.9802V67H39.0227V47.6447L57.2832 25.8726L55.9332 24.7394L39.4354 44.3815L48.9836 18.1431L47.3328 17.545L37.6936 44.0073H37.5117V16.153L35.7455 16.1565Z" fill="black"/>
<path d="M36.4871 17.0798C39.2705 17.0798 41.527 14.8234 41.527 12.0399C41.527 9.25646 39.2705 7 36.4871 7C33.7036 7 31.4471 9.25646 31.4471 12.0399C31.4471 14.8234 33.7036 17.0798 36.4871 17.0798Z" fill="#2F99C6"/>
<path d="M49.7881 18.7412C52.5716 18.7412 54.828 16.4847 54.828 13.7013C54.828 10.9178 52.5716 8.66133 49.7881 8.66133C47.0046 8.66133 44.7482 10.9178 44.7482 13.7013C44.7482 16.4847 47.0046 18.7412 49.7881 18.7412Z" fill="#2F99C6"/>
<path d="M59.7665 27.0548C62.55 27.0548 64.8064 24.7983 64.8064 22.0148C64.8064 19.2314 62.55 16.9749 59.7665 16.9749C56.983 16.9749 54.7266 19.2314 54.7266 22.0148C54.7266 24.7983 56.983 27.0548 59.7665 27.0548Z" fill="#2F99C6"/>
<path d="M24.0149 18.7412C26.7984 18.7412 29.0548 16.4847 29.0548 13.7013C29.0548 10.9178 26.7984 8.66133 24.0149 8.66133C21.2314 8.66133 18.975 10.9178 18.975 13.7013C18.975 16.4847 21.2314 18.7412 24.0149 18.7412Z" fill="#2F99C6"/>
<path d="M14.0399 27.0548C16.8234 27.0548 19.0799 24.7983 19.0799 22.0148C19.0799 19.2314 16.8234 16.9749 14.0399 16.9749C11.2565 16.9749 9 19.2314 9 22.0148C9 24.7983 11.2565 27.0548 14.0399 27.0548Z" fill="#2F99C6"/>
</g>
<defs>
<filter id="filter0_i_1228_7604" x="9" y="7" width="55.8064" height="64" filterUnits="userSpaceOnUse" color-interpolation-filters="sRGB">
<feFlood flood-opacity="0" result="BackgroundImageFix"/>
<feBlend mode="normal" in="SourceGraphic" in2="BackgroundImageFix" result="shape"/>
<feColorMatrix in="SourceAlpha" type="matrix" values="0 0 0 0 0 0 0 0 0 0 0 0 0 0 0 0 0 0 127 0" result="hardAlpha"/>
<feOffset dy="4"/>
<feGaussianBlur stdDeviation="7"/>
<feComposite in2="hardAlpha" operator="arithmetic" k2="-1" k3="1"/>
<feColorMatrix type="matrix" values="0 0 0 0 0 0 0 0 0 0 0 0 0 0 0 0 0 0 0.15 0"/>
<feBlend mode="normal" in2="shape" result="effect1_innerShadow_1228_7604"/>
</filter>
</defs>
</svg>
