<svg width="74" height="74" viewBox="0 0 74 74" fill="none" xmlns="http://www.w3.org/2000/svg">
<rect width="74" height="74" fill="white"/>
<g filter="url(#filter0_i_1228_7594)">
<path d="M36.647 40.5264C37.1041 46.1788 39.9987 50.2199 41.9689 51.3322C43.939 52.4456 48.9498 53.9332 53.1842 50.5606C57.4186 47.1875 57.1039 42.7876 55.8735 39.2115C57.1524 39.5975 58.5752 39.7202 60.909 37.8394C63.2429 35.959 68.0251 30.1829 66.8035 26.5196C65.5809 22.8558 57.4041 23.597 52.9608 24.1867C48.5175 24.7764 37.9925 29.0355 37.9925 29.0355C37.9925 29.0355 38.3562 31.1731 38.1926 32.3514C38.0291 33.5297 36.9339 35.9533 36.9339 35.9533L36.647 40.5264Z" fill="#2F99C6"/>
<path d="M37.353 40.5264C36.8959 46.1788 34.0013 50.2199 32.0311 51.3322C30.061 52.4456 25.0502 53.9332 20.8158 50.5606C16.5814 47.1875 16.8961 42.7876 18.1265 39.2115C16.8476 39.5975 15.4248 39.7202 13.091 37.8394C10.7571 35.959 5.97486 30.1829 7.19647 26.5196C8.41911 22.8558 16.5959 23.597 21.0392 24.1867C25.4825 24.7764 36.0075 29.0355 36.0075 29.0355C36.0075 29.0355 35.6438 31.1731 35.8074 32.3514C35.9709 33.5297 37.0661 35.9533 37.0661 35.9533L37.353 40.5264Z" fill="#2F99C6"/>
<path d="M52.6645 38.1455C51.9871 37.6166 50.8388 36.921 50.0054 36.4037C48.9103 36.5174 48.1473 37.5793 47.7119 38.6301C47.2891 39.6515 46.921 41.1533 47.6527 41.9647C48.5655 42.9776 50.5867 42.9929 51.655 42.1594C52.7633 41.2943 53.1769 39.4841 52.6645 38.1455Z" fill="#0D314A"/>
<path d="M21.3355 38.1455C22.0129 37.6166 23.1612 36.921 23.9946 36.4037C25.0897 36.5174 25.8527 37.5793 26.2881 38.6301C26.7109 39.6515 27.079 41.1533 26.3473 41.9647C25.4345 42.9776 23.4133 42.9929 22.345 42.1594C21.2367 41.2943 20.8231 39.4841 21.3355 38.1455Z" fill="#0D314A"/>
<path d="M62.1334 24.644C62.7987 23.8949 64.7872 25.5395 65.3262 26.5167C65.8657 27.4933 65.4277 28.6567 65.286 29.4626C65.1438 30.2686 64.7604 31.3354 64.6393 31.3145C64.5182 31.2935 61.6516 33.0997 60.8406 32.8507C60.029 32.6018 60.1707 32.7568 60.2542 32.0088C60.9519 31.7228 62.2071 30.7124 62.7446 29.7438C63.282 28.7753 63.482 27.8738 63.3866 27.0533C63.2908 26.2323 62.4586 25.1612 62.1334 24.644ZM56.8795 23.7602C56.0478 24.8162 55.4691 26.0397 55.3439 27.1692C55.2182 28.2982 55.0528 28.464 55.8386 29.9676C54.7256 29.6617 53.8176 29.7047 53.2013 29.3156C52.5856 28.926 52.5984 28.7924 52.1914 28.2209C51.7843 27.65 51.4689 26.7909 51.0294 26.1379C50.5893 25.4848 50.7784 25.0738 51.0191 24.644C51.6117 23.5852 55.2151 23.6405 56.879 23.7602H56.8795Z" fill="#216B8B"/>
<path d="M11.8666 24.644C11.2013 23.8949 9.21281 25.5395 8.67381 26.5167C8.1343 27.4933 8.5723 28.6567 8.714 29.4626C8.85622 30.2686 9.2396 31.3354 9.3607 31.3145C9.48179 31.2935 12.3484 33.0997 13.1594 32.8507C13.971 32.6018 13.8293 32.7568 13.7458 32.0088C13.0481 31.7228 11.7929 30.7124 11.2554 29.7438C10.718 28.7753 10.518 27.8738 10.6134 27.0533C10.7092 26.2323 11.5414 25.1612 11.8666 24.644ZM17.1205 23.7602C17.9522 24.8162 18.5309 26.0397 18.6561 27.1692C18.7818 28.2982 18.9472 28.464 18.1614 29.9676C19.2744 29.6617 20.1824 29.7047 20.7987 29.3156C21.4144 28.926 21.4016 28.7924 21.8086 28.2209C22.2157 27.65 22.5311 26.7909 22.9706 26.1379C23.4107 25.4848 23.2216 25.0738 22.9809 24.644C22.3883 23.5852 18.7849 23.6405 17.121 23.7602H17.1205Z" fill="#216B8B"/>
<path d="M56.4354 23.922C56.3948 24.0675 55.1126 26.1818 55.0327 27.2556C54.9527 28.33 54.9695 28.9575 55.6756 29.9177C56.7763 30.407 58.3852 31.5329 59.3481 32.1684C60.7355 32.0967 61.9799 30.7072 62.626 29.7981C63.2715 28.8895 63.5504 28.27 63.451 27.2976C63.352 26.3252 62.7301 25.1696 61.8415 24.5054C60.9528 23.8412 59.4149 23.7742 58.4989 23.7137C57.5834 23.6531 56.4769 23.7758 56.4359 23.922H56.4354Z" fill="#47C3EC"/>
<path d="M17.5646 23.922C17.6052 24.0675 18.8874 26.1818 18.9673 27.2556C19.0473 28.33 19.0305 28.9575 18.3244 29.9177C17.2237 30.407 15.6148 31.5329 14.6519 32.1684C13.2645 32.0967 12.0201 30.7072 11.374 29.7981C10.7285 28.8895 10.4496 28.27 10.549 27.2976C10.648 26.3252 11.2699 25.1696 12.1585 24.5054C13.0472 23.8412 14.5851 23.7742 15.5011 23.7137C16.4166 23.6531 17.5231 23.7758 17.5641 23.922H17.5646Z" fill="#47C3EC"/>
<path d="M60.4663 24.5289C59.5716 24.2218 58.9982 24.496 58.292 25.1744C57.5853 25.8528 56.811 27.6196 57.2416 28.6035C57.6728 29.5875 58.7466 30.2093 59.8667 30.0154C60.9868 29.8215 61.9808 28.2877 62.0589 27.1726C61.6422 26.0714 60.6342 25.464 60.4663 24.5289Z" fill="#0D314A"/>
<path d="M13.5337 24.5289C14.4284 24.2218 15.0018 24.496 15.708 25.1744C16.4147 25.8528 17.189 27.6196 16.7584 28.6035C16.3272 29.5875 15.2534 30.2093 14.1333 30.0154C13.0132 29.8215 12.0192 28.2877 11.9411 27.1726C12.3578 26.0714 13.3658 25.464 13.5337 24.5289Z" fill="#0D314A"/>
<path d="M53.7027 38.4404C53.7524 39.403 53.9775 40.3938 53.4765 41.2702C52.9955 42.1103 52.3041 42.8525 51.3875 43.1474C50.4916 43.436 49.7183 43.247 48.7357 43.3375C48.3266 43.3748 47.8107 43.3428 47.7742 43.6421C47.6912 44.3214 49.9075 44.8384 50.748 44.873C51.5884 44.9076 53.6102 44.2671 54.4818 43.2156C55.3872 42.1242 56.0887 40.3464 55.4734 39.066C54.8576 38.7263 54.365 38.6081 53.7027 38.4404ZM47.8276 34.9265C47.8725 34.6348 46.7969 34.1955 46.1816 34.3025C45.5658 34.409 45.0008 34.7977 44.6625 35.5936C44.3242 36.3885 44.2735 38.3909 44.8549 38.7769C45.4363 39.1624 45.7302 38.9856 45.8058 38.4314C45.9575 36.0845 46.994 35.5324 47.8276 34.9265Z" fill="#216B8B"/>
<path d="M20.2973 38.4404C20.2476 39.403 20.0225 40.3938 20.5235 41.2702C21.0045 42.1103 21.6959 42.8525 22.6125 43.1474C23.5084 43.436 24.2817 43.247 25.2643 43.3375C25.6734 43.3748 26.1893 43.3428 26.2258 43.6421C26.3088 44.3214 24.0925 44.8384 23.252 44.873C22.4116 44.9076 20.3898 44.2671 19.5182 43.2156C18.6128 42.1242 17.9113 40.3464 18.5266 39.066C19.1424 38.7263 19.635 38.6081 20.2973 38.4404ZM26.1724 34.9265C26.1275 34.6348 27.2031 34.1955 27.8184 34.3025C28.4342 34.409 28.9992 34.7977 29.3375 35.5936C29.6758 36.3885 29.7265 38.3909 29.1451 38.7769C28.5637 39.1624 28.2698 38.9856 28.1942 38.4314C28.0425 36.0845 27.006 35.5324 26.1724 34.9265Z" fill="#216B8B"/>
<path d="M50.0542 36.1714C49.6156 35.9358 48.7873 35.4785 48.089 34.992C47.3117 35.0731 46.6596 35.6027 46.3053 36.6406C45.9506 37.679 45.2791 40.7893 46.6411 40.6334C47.4694 40.5388 47.6038 37.923 48.4107 37.0544C49.2177 36.1853 50.1319 36.2061 50.0542 36.1714Z" fill="#3BB4E7"/>
<path d="M23.9458 36.1714C24.3844 35.9358 25.2127 35.4785 25.911 34.992C26.6883 35.0731 27.3404 35.6027 27.6947 36.6406C28.0494 37.679 28.7209 40.7893 27.3589 40.6334C26.5306 40.5388 26.3962 37.923 25.5893 37.0544C24.7823 36.1853 23.8681 36.2061 23.9458 36.1714Z" fill="#3BB4E7"/>
<path d="M41.4436 34.992C42.3543 35.1627 44.9861 38.8983 46.2188 41.3605C47.4515 43.8232 49.7955 46.1178 49.28 46.4577C48.7645 46.797 48.2562 45.3085 48.205 45.4285C48.1548 45.549 48.3719 47.2495 48.0658 47.7554C47.7596 48.2607 47.5354 48.0863 47.0163 48.3686C46.4967 48.6514 45.0004 49.5621 44.9364 49.4189C44.8724 49.2756 43.8762 48.6825 43.7416 48.8369C43.607 48.9902 43.4626 49.4659 43.0633 49.4892C42.664 49.5124 41.2982 50.5427 40.1208 48.8179C38.9434 47.0931 38.4085 44.6367 38.2713 42.9314C38.1341 41.2257 37.917 36.2299 38.1894 36.5672C38.4627 36.9055 40.4587 37.8453 40.4587 37.8453L39.3104 35.8451L41.5194 37.2845L41.4436 34.992Z" fill="#37ACDD"/>
<path d="M32.5564 34.992C31.6457 35.1627 29.0139 38.8983 27.7812 41.3605C26.5485 43.8232 24.2045 46.1178 24.72 46.4577C25.2355 46.797 25.7438 45.3085 25.795 45.4285C25.8452 45.549 25.6281 47.2495 25.9342 47.7554C26.2404 48.2607 26.4646 48.0863 26.9837 48.3686C27.5033 48.6514 28.9996 49.5621 29.0636 49.4189C29.1276 49.2756 30.1238 48.6825 30.2584 48.8369C30.393 48.9902 30.5374 49.4659 30.9367 49.4892C31.336 49.5124 32.7018 50.5427 33.8792 48.8179C35.0566 47.0931 35.5915 44.6367 35.7287 42.9314C35.8659 41.2257 36.083 36.2299 35.8106 36.5672C35.5373 36.9055 33.5413 37.8453 33.5413 37.8453L34.6896 35.8451L32.4806 37.2845L32.5564 34.992Z" fill="#37ACDD"/>
<path d="M42.5679 27.6833L41.0684 29.0676L42.6082 30.0453L40.1765 30.4114L42.1623 32.1628L40.2576 32.6109C47.0021 33.18 54.53 40.8582 57.2398 38.912C57.2398 38.912 59.0743 38.2567 59.962 37.6658C60.8498 37.0749 62.106 36.0567 62.0574 34.8987C62.0187 33.9641 61.3066 33.9667 60.1863 32.8166C59.066 31.6654 53.2749 28.3344 53.2749 28.3344C51.8187 27.7316 50.7594 26.3311 48.898 26.543L42.5679 27.6833Z" fill="#37ACDD"/>
<path d="M31.4321 27.6833L32.9316 29.0676L31.3918 30.0453L33.8235 30.4114L31.8377 32.1628L33.7424 32.6109C26.9979 33.18 19.47 40.8582 16.7602 38.912C16.7602 38.912 14.9257 38.2567 14.038 37.6658C13.1502 37.0749 11.894 36.0567 11.9426 34.8987C11.9813 33.9641 12.6934 33.9667 13.8137 32.8166C14.934 31.6654 20.7251 28.3344 20.7251 28.3344C22.1813 27.7316 23.2406 26.3311 25.102 26.543L31.4321 27.6833Z" fill="#37ACDD"/>
<path d="M51.1958 24.4037L47.9412 25.4628C47.9412 25.4628 48.2375 27.0507 48.2375 26.8746C48.2375 26.698 49.4257 26.4528 50.0373 26.5816C50.6483 26.7104 51.4706 27.2273 51.4706 27.2273L51.1958 24.4037Z" fill="#3BB4E7"/>
<path d="M22.8042 24.4037L26.0588 25.4628C26.0588 25.4628 25.7625 27.0507 25.7625 26.8746C25.7625 26.698 24.5743 26.4528 23.9627 26.5816C23.3517 26.7104 22.5294 27.2273 22.5294 27.2273L22.8042 24.4037Z" fill="#3BB4E7"/>
<path d="M48.469 26.514C48.6928 26.2171 48.7301 26.0689 48.4389 25.89C48.1478 25.711 47.2376 25.8982 47.0368 25.9973C46.8361 26.0969 46.4203 25.9799 46.5562 26.7178C46.692 27.4543 46.9612 28.3826 46.997 29.3449C47.4291 29.1613 47.734 28.574 47.8582 28.0894C47.9823 27.6048 48.2458 26.8114 48.4696 26.514H48.469Z" fill="#216B8B"/>
<path d="M25.531 26.514C25.3072 26.2171 25.2699 26.0689 25.5611 25.89C25.8522 25.711 26.7624 25.8982 26.9632 25.9973C27.1639 26.0969 27.5797 25.9799 27.4438 26.7178C27.308 27.4543 27.0388 28.3826 27.003 29.3449C26.5709 29.1613 26.266 28.574 26.1418 28.0894C26.0177 27.6048 25.7542 26.8114 25.5304 26.514H25.531Z" fill="#216B8B"/>
<path d="M31.3473 22.1169C31.1651 22.251 31.2774 22.5814 31.3691 22.7345C31.4609 22.8877 31.5513 22.9202 31.6557 22.9992C31.8661 23.1559 32.0694 23.2957 32.1414 23.4623C32.3814 23.9952 32.6793 24.5176 32.9355 24.9623C33.2736 25.527 33.6266 26.0628 34.0162 26.5061C34.4129 26.9254 34.8117 27.3037 35.2303 27.6094C35.524 27.807 35.8261 27.8663 36.1338 27.9178C36.1035 28.0364 36.0738 28.1578 36.0675 28.2934C36.004 28.1988 35.9538 28.1381 35.8698 28.1381C35.6553 28.1381 35.4724 28.4931 35.4724 28.9329C35.4724 29.043 35.4724 29.1461 35.4936 29.2414C34.7976 29.9155 34.3247 31.1077 34.3247 32.4842C34.3247 34.0138 34.8915 35.3162 35.7146 35.9254C35.1223 37.1239 34.7221 39.2889 34.7221 41.7708C34.7221 45.5487 36.232 48.615 36.7515 48.6094C37.271 48.6009 38.8028 45.5487 38.8028 41.7708C38.8028 39.2769 38.4075 37.0978 37.8103 35.9035C38.62 35.2865 39.1776 33.9983 39.1776 32.4842C39.1776 31.1225 38.7308 29.9416 38.0531 29.2639C38.0757 29.1623 38.0969 29.0522 38.0969 28.9322C38.0969 28.4931 37.9134 28.1388 37.7002 28.1388C37.6014 28.1388 37.5258 28.2115 37.4574 28.3371C37.4517 28.1952 37.4294 28.0545 37.391 27.9178C37.7164 27.8557 38.0122 27.747 38.2953 27.6094C38.7103 27.2494 39.1713 26.8844 39.5094 26.5061C39.8983 26.0628 40.2738 25.5263 40.612 24.9623C40.9021 24.4569 41.1414 23.9522 41.3835 23.4623C41.4555 23.2957 41.6588 23.1559 41.8691 22.9992C41.9743 22.9202 42.0315 22.8976 42.1776 22.7345C42.3237 22.5708 42.3675 22.2538 42.2002 22.1169C42.0322 21.9799 41.7978 21.9983 41.5826 22.2051C41.3666 22.4112 41.2444 23.0183 41.1414 23.3959C40.9042 23.8788 40.6416 24.3658 40.4129 24.8077C40.1101 25.2969 39.7564 25.8341 39.3767 26.2858C39.0181 26.691 38.6496 26.9882 38.2734 27.3002C37.9444 27.5642 37.5393 27.6609 37.259 27.6094C37.1291 27.3729 36.9569 27.2119 36.7508 27.2119C36.5433 27.2119 36.3682 27.3687 36.244 27.6094C35.5296 27.6679 34.6818 26.7863 34.1482 26.2858C33.7677 25.8341 33.4141 25.2976 33.1113 24.8077C32.848 24.3207 32.6341 23.8781 32.3842 23.3959C32.2924 23.1242 32.2353 22.8157 32.1407 22.5581C32.0975 22.4291 32.0304 22.3094 31.943 22.2051C31.6564 21.9108 31.5294 21.9821 31.3473 22.1169Z" fill="#0E3855"/>
</g>
<defs>
<filter id="filter0_i_1228_7594" x="7" y="22" width="60" height="34.639" filterUnits="userSpaceOnUse" color-interpolation-filters="sRGB">
<feFlood flood-opacity="0" result="BackgroundImageFix"/>
<feBlend mode="normal" in="SourceGraphic" in2="BackgroundImageFix" result="shape"/>
<feColorMatrix in="SourceAlpha" type="matrix" values="0 0 0 0 0 0 0 0 0 0 0 0 0 0 0 0 0 0 127 0" result="hardAlpha"/>
<feOffset dy="4"/>
<feGaussianBlur stdDeviation="7"/>
<feComposite in2="hardAlpha" operator="arithmetic" k2="-1" k3="1"/>
<feColorMatrix type="matrix" values="0 0 0 0 0 0 0 0 0 0 0 0 0 0 0 0 0 0 0.15 0"/>
<feBlend mode="normal" in2="shape" result="effect1_innerShadow_1228_7594"/>
</filter>
</defs>
</svg>
