<svg width="24" height="24" viewBox="0 0 24 24" fill="none" xmlns="http://www.w3.org/2000/svg">
  <path
      stroke-width="1.15"
      d="M15.25,19.5H2.25"
      stroke-linejoin="round"
      fill="#00000000"
      stroke="black"
      stroke-linecap="round"/>
  <path
      stroke-width="1.15"
      d="M15.25,15V21.5C15.25,22.03 15.039,22.539 14.664,22.914C14.289,23.289 13.78,23.5 13.25,23.5H4.25C3.72,23.5 3.211,23.289 2.836,22.914C2.461,22.539 2.25,22.03 2.25,21.5V2.5C2.25,1.97 2.461,1.461 2.836,1.086C3.211,0.711 3.72,0.5 4.25,0.5H6.75"
      stroke-linejoin="round"
      fill="#00000000"
      stroke="black"
      stroke-linecap="round"/>
  <path
      stroke-width="1.15"
      d="M20.25,0.5H10.25C9.698,0.5 9.25,0.948 9.25,1.5V11.5C9.25,12.052 9.698,12.5 10.25,12.5H20.25C20.802,12.5 21.25,12.052 21.25,11.5V1.5C21.25,0.948 20.802,0.5 20.25,0.5Z"
      stroke-linejoin="round"
      fill="#00000000"
      stroke="black"
      stroke-linecap="round"/>
  <path
      stroke-width="1.15"
      d="M13.375,6C14.203,6 14.875,5.328 14.875,4.5C14.875,3.672 14.203,3 13.375,3C12.547,3 11.875,3.672 11.875,4.5C11.875,5.328 12.547,6 13.375,6Z"
      stroke-linejoin="round"
      fill="#00000000"
      stroke="black"
      stroke-linecap="round"/>
  <path
      stroke-width="1.15"
      d="M21.25,10.25L18.859,6.663C18.791,6.561 18.7,6.478 18.593,6.419C18.485,6.361 18.365,6.33 18.243,6.329C18.121,6.327 18,6.356 17.892,6.412C17.783,6.467 17.69,6.549 17.62,6.649L15.62,9.5L14.384,8.511C14.303,8.446 14.209,8.399 14.108,8.372C14.008,8.345 13.903,8.34 13.8,8.356C13.697,8.372 13.599,8.409 13.512,8.465C13.424,8.521 13.349,8.594 13.291,8.681L10.75,12.5"
      stroke-linejoin="round"
      fill="#00000000"
      stroke="black"
      stroke-linecap="round"/>
  <path
      stroke-width="1.15"
      d="M8.75,21.75C8.612,21.75 8.5,21.638 8.5,21.5C8.5,21.362 8.612,21.25 8.75,21.25"
      fill="#00000000"
      stroke="black"/>
  <path
      stroke-width="1.15"
      d="M8.75,21.75C8.888,21.75 9,21.638 9,21.5C9,21.362 8.888,21.25 8.75,21.25"
      fill="#00000000"
      stroke="black"/>
</svg>
