<?xml version="1.0" encoding="utf-8"?>
<!-- Generator: Adobe Illustrator 16.0.3, SVG Export Plug-In . SVG Version: 6.00 Build 0)  -->
<!DOCTYPE svg PUBLIC "-//W3C//DTD SVG 1.1//EN" "http://www.w3.org/Graphics/SVG/1.1/DTD/svg11.dtd">
<svg version="1.1" id="Ebene_1" xmlns="http://www.w3.org/2000/svg" xmlns:xlink="http://www.w3.org/1999/xlink" x="0px" y="0px"
	 width="45px" height="44.982px" viewBox="0 0 45 44.982" enable-background="new 0 0 45 44.982" xml:space="preserve">
<g>
	<circle id="path-1_2_" fill="none" stroke="#FFFFFF" stroke-width="8" stroke-opacity="0.5" cx="22.507" cy="22.491" r="15"/>
</g>
<g>
	<circle id="path-3_2_" fill="none" stroke="#638B54" stroke-width="4" cx="22.508" cy="22.491" r="15"/>
</g>
<g>
	<circle id="path-3_1_" fill="#729F62" cx="22.508" cy="22.491" r="15"/>
</g>
<g>
	<circle id="path-3_3_" fill="none" cx="22.5" cy="22.491" r="22.5"/>
</g>
<path fill="#FFFFFF" d="M33.889,26.127c-1.371-1.065-2.813-1.021-4.385-0.913c0.071-0.086,0.141-0.173,0.225-0.259
	c0.652-0.685,1.57-1.095,2.498-1.201c0.375-0.041,0.39-0.564,0-0.591c-0.926-0.059-1.721,0.172-2.582,0.498
	c-0.674,0.259-1.406,0.46-2.014,0.833c-0.16-0.172-0.328-0.37-0.494-0.607c-0.125-0.183-0.254-0.379-0.369-0.578l-0.146-0.262
	l-0.019-0.048l-0.006-0.01c0.006,0.015,0.006,0.019,0.006,0.017l-0.002,0.003l-0.026-0.137c-0.071-0.457-0.114-1.003-0.151-1.488
	c-0.031-0.497-0.059-0.96-0.084-1.359c-0.008-0.146-0.015-0.282-0.021-0.411c2.118-2.635,3.698-5.853,3.479-6.484
	c-0.252-0.713-2.094-0.976-4.189-0.651c-0.068-0.247-0.188-0.483-0.373-0.683c-0.615-0.663-1.651-0.701-2.313-0.087
	c-0.482,0.449-0.63,1.119-0.438,1.706c-1.416,0.775-2.539,3.192-4.452,3.644c-5.595,1.323-6.328,5.185-6.836,6.664
	c-0.349,1.013-0.167,1.533,0.21,1.813c0.356,0.367,0.962,0.763,1.71,1.187c-0.338,0.068-0.556,0.243-0.533,0.65
	c0.079,1.364,1.499,1.847,2.511,2.487c1.379,1.079,2.54,2.028,3.312,3.657c0.197,0.416,0.878,0.118,0.74-0.314
	c-0.319-1.007-0.843-2.069-1.559-2.938c1.642,0.457,2.62,1.656,3.56,3.081c0.278,0.419,0.88,0.058,0.669-0.392
	c-0.394-0.83-0.823-1.626-1.428-2.322c-0.391-0.447-0.862-0.783-1.359-1.083c1.211,0.065,2.437,0.563,3.44,1.213
	c0.302,0.194,0.663-0.265,0.387-0.501c-0.937-0.808-1.993-1.303-3.123-1.75c0.354-0.065,0.705-0.168,1.048-0.318
	c1.626-0.713,3.28-2.869,1.957-4.14c-0.283-0.27-0.774-0.53-1.398-0.761c0.185-0.062,0.361-0.114,0.522-0.153
	c0.92-0.216,1.883-0.862,2.811-1.726c0,0.005,0,0.01-0.002,0.015c-0.009,0.519-0.023,1.045,0.01,1.659l0.025,0.261l0.041,0.199
	l0.04,0.149c0.067,0.204,0.11,0.323,0.17,0.471c0.109,0.278,0.229,0.539,0.354,0.792c0.252,0.504,0.533,0.967,0.867,1.369
	c0.328,0.398,0.738,0.757,1.226,0.941c0.085,0.034,0.164,0.052,0.239,0.071c0.056,0.039,0.121,0.072,0.201,0.093
	c0.554,0.14,1.123,0.171,1.672,0.321c0.613,0.166,1.18,0.503,1.676,0.894c0.372,0.296,0.859-0.163,0.531-0.53
	c-0.616-0.685-1.444-1.291-2.35-1.608c0.008-0.021,0.008-0.043,0.014-0.064c1.338-0.479,2.821-0.458,4.072,0.248
	C33.797,26.882,34.219,26.383,33.889,26.127z M27.23,13.94c0.461,0.501,0.436,1.282-0.065,1.742
	c-0.502,0.468-1.28,0.436-1.741-0.065c-0.461-0.493-0.437-1.273,0.065-1.743C25.99,13.415,26.762,13.448,27.23,13.94z M26.6,23.007
	c0-0.002,0-0.005,0-0.002V23.007L26.6,23.007z"/>
</svg>
