<svg width="75" height="74" viewBox="0 0 75 74" fill="none" xmlns="http://www.w3.org/2000/svg">
<rect width="74" height="74" transform="translate(0.0991211)" fill="white"/>
<g filter="url(#filter0_i_1228_7584)">
<path opacity="0.99" d="M60.5766 51.6562C59.1279 52.0436 58.3548 52.4152 56.8911 52.7392C53.7122 53.4432 51.817 53.519 48.5656 53.3207C46.3138 53.1824 43.5297 54.6002 42.8525 52.4484C42.4251 51.0922 43.8005 50.3808 43.9179 48.963C44.0429 47.4385 43.8905 46.5121 43.3365 45.0876C42.8117 43.7397 41.4454 43.4281 41.3038 41.9886C41.1022 39.9618 43.244 39.4586 44.3112 37.7234C45.0392 36.5404 45.0542 35.5857 46.0472 34.6135C47.3868 33.304 49.1937 34.1646 50.4983 32.82C52.0344 31.2355 49.9068 28.0208 52.0153 27.3718C52.9349 27.0894 52.9883 26.6721 54.4711 27.5618C58.0866 30.1734 59.3886 33.5131 61.9278 37.7284C64.4644 41.9436 65.0292 42.875 65.9931 45.5707C66.9586 48.2682 66.9469 49.0196 67.0003 50.7499C64.7927 50.3583 62.655 51.0131 60.5757 51.6546L60.5766 51.6562Z" fill="#2F99C6" stroke="#0D314A" stroke-linecap="round" stroke-linejoin="round"/>
<path opacity="0.99" d="M66.9608 50.5124C63.612 48.8546 62.6873 48.7947 59.9898 47.6067C57.4357 46.4829 56.0828 45.669 53.5037 44.6052C52.0433 44.0029 51.2727 43.4698 49.7274 43.1532C47.8389 42.7658 46.7159 43.1532 44.7891 43.1532" stroke="#0D314A" stroke-linecap="round" stroke-linejoin="round"/>
<path d="M34.874 33.9216C37.0455 34.7761 39.3158 34.1729 39.9448 32.5744C40.5738 30.9759 39.3233 28.9874 37.1517 28.1329C34.9801 27.2784 32.7098 27.8816 32.0809 29.4801C31.4519 31.0786 32.7024 33.0671 34.874 33.9216Z" stroke="#0D314A" stroke-width="1.0009" stroke-linecap="round" stroke-linejoin="round"/>
<path d="M55.0756 27.8599C54.8257 26.1297 53.8219 24.1487 52.3407 22.1893C50.5713 19.8509 49.0118 18.9888 46.5293 17.4284C43.6186 15.5966 41.7909 14.7451 38.4612 13.8779C34.9732 12.9699 32.8622 12.9074 29.2617 13.0707C24.2617 13.2965 15.2914 16.9244 7 26.0889M52.4815 53.4465C51.2119 54.0613 49.106 55.3075 47.4174 57.0478C46.067 58.4415 45.8379 59.6652 44.5125 61.0831" stroke="#0D314A" stroke-linecap="round" stroke-linejoin="round"/>
</g>
<defs>
<filter id="filter0_i_1228_7584" x="6.5" y="12.5" width="61.0005" height="53.083" filterUnits="userSpaceOnUse" color-interpolation-filters="sRGB">
<feFlood flood-opacity="0" result="BackgroundImageFix"/>
<feBlend mode="normal" in="SourceGraphic" in2="BackgroundImageFix" result="shape"/>
<feColorMatrix in="SourceAlpha" type="matrix" values="0 0 0 0 0 0 0 0 0 0 0 0 0 0 0 0 0 0 127 0" result="hardAlpha"/>
<feOffset dy="4"/>
<feGaussianBlur stdDeviation="7"/>
<feComposite in2="hardAlpha" operator="arithmetic" k2="-1" k3="1"/>
<feColorMatrix type="matrix" values="0 0 0 0 0 0 0 0 0 0 0 0 0 0 0 0 0 0 0.15 0"/>
<feBlend mode="normal" in2="shape" result="effect1_innerShadow_1228_7584"/>
</filter>
</defs>
</svg>
