<?xml version="1.0" encoding="utf-8"?>
<!-- Generator: Adobe Illustrator 16.0.3, SVG Export Plug-In . SVG Version: 6.00 Build 0)  -->
<!DOCTYPE svg PUBLIC "-//W3C//DTD SVG 1.1//EN" "http://www.w3.org/Graphics/SVG/1.1/DTD/svg11.dtd">
<svg version="1.1" id="Ebene_1" xmlns="http://www.w3.org/2000/svg" xmlns:xlink="http://www.w3.org/1999/xlink" x="0px" y="0px"
	 width="45px" height="44.982px" viewBox="0 0 45 44.982" enable-background="new 0 0 45 44.982" xml:space="preserve">
<g>
	<circle id="path-1_2_" fill="none" stroke="#FFFFFF" stroke-width="8" stroke-opacity="0.5" cx="22.507" cy="22.491" r="15"/>
</g>
<g>
	<circle id="path-3_2_" fill="none" stroke="#638B54" stroke-width="4" cx="22.508" cy="22.491" r="15"/>
</g>
<g>
	<circle id="path-3_1_" fill="#729F62" cx="22.508" cy="22.491" r="15"/>
</g>
<g>
	<circle id="path-3_3_" fill="none" cx="22.5" cy="22.491" r="22.5"/>
</g>
<g>
	<path fill="#FFFFFF" d="M25.013,21.497c0.002,0,0.002,0,0.002,0C25.011,21.495,25.009,21.493,25.013,21.497z"/>
	<path fill="#FFFFFF" d="M33.329,25.635c-0.125-0.607-0.359-1.174-0.658-1.67c-0.123-0.223-0.385-0.577-0.483-0.689
		c-0.185-0.227-0.353-0.431-0.565-0.635c-0.789-0.84-2.142-1.378-3.218-1.375c-1.081-0.034-1.912,0.169-2.528,0.22
		c-0.3,0.035-0.543,0.057-0.689,0.039c-0.077-0.004-0.126-0.019-0.172-0.027c0.014,0.008,0.043,0.029-0.021-0.002l-0.128-0.064
		c-0.371-0.213-0.702-0.381-0.969-0.67c-0.277-0.295-0.437-0.641-0.466-1.102c-0.004-0.248-0.01-0.487-0.016-0.723
		c1.555-0.406,2.396-1.699,1.924-3.262c-0.492-1.621-1.525-2.976-2.476-3.353l0.007-0.708c0.084-0.06,0.156-0.136,0.211-0.23
		l1.402-2.375c0.115-0.195,0.088-0.45-0.081-0.615C24.204,8.198,23.886,8.201,23.69,8.4l-1.285,1.307l-1.369-1.33
		c-0.162-0.158-0.419-0.191-0.619-0.065c-0.236,0.148-0.307,0.459-0.158,0.694l1.511,2.395c0.024,0.038,0.069,0.063,0.101,0.098
		l-0.008,0.823c-0.952,0.37-1.999,1.695-2.52,3.294c-0.484,1.492,0.25,2.761,1.684,3.246c-0.021,0.256-0.043,0.52-0.064,0.793
		c-0.092,0.672-0.056,1.59,0.238,2.472c0.297,0.894,0.939,1.783,1.784,2.314l0.078,0.053l0.039,0.027l0.112,0.063l0.115,0.061
		c0.066,0.038,0.348,0.164,0.506,0.219c0.311,0.104,0.631,0.178,0.928,0.211c0.603,0.068,1.115,0.027,1.563-0.037
		c0.874-0.162,1.531-0.342,2.003-0.385c0.473-0.045,0.709,0.006,1.1,0.31c0.088,0.071,0.203,0.172,0.273,0.269
		c0.17,0.215,0.145,0.193,0.233,0.334c0.132,0.221,0.221,0.448,0.269,0.676c0.209,0.889-0.378,1.934-1.568,2.469
		c-0.56,0.264-1.326,0.424-1.957,0.414c-0.443,0.003-1.166-0.231-1.807-0.596c-1.352-0.761-2.658-2.008-4.168-3.191
		c-0.771-0.585-1.598-1.206-2.765-1.611c-0.581-0.195-1.289-0.304-2.003-0.191l-0.266,0.047l-0.033,0.007l-0.113,0.03l-0.039,0.012
		l-0.078,0.023l-0.313,0.099c-0.082,0.021-0.252,0.09-0.402,0.153l-0.448,0.201c-1.043,0.549-1.955,1.49-2.366,2.627
		c-0.427,1.129-0.389,2.354-0.019,3.369c0.382,1.026,0.94,1.86,1.757,2.475c0.911,0.641,1.656,0.845,2.393,1.072
		c1.447,0.393,2.703,0.533,3.783,0.768c1.073,0.23,1.969,0.477,2.641,0.759c0.677,0.276,1.101,0.593,1.341,0.831
		c0.235,0.242,0.317,0.396,0.317,0.396l0.009,0.015c0.163,0.302,0.54,0.418,0.846,0.258c0.308-0.162,0.427-0.542,0.265-0.851
		c0,0-0.033-0.063-0.097-0.185c-0.062-0.125-0.172-0.296-0.331-0.506c-0.322-0.413-0.89-0.921-1.666-1.345
		c-0.771-0.432-1.736-0.813-2.822-1.178c-1.082-0.361-2.318-0.668-3.514-1.136c-0.576-0.223-1.201-0.534-1.537-0.834
		c-0.385-0.346-0.742-0.874-0.892-1.387c-0.353-1.063,0.116-2.173,1.166-2.665c0.139-0.038,0.163-0.084,0.382-0.145l0.314-0.086
		l0.078-0.021c-0.017,0.004-0.029,0.008-0.022,0.007h0.009l0.07-0.005c0.186-0.017,0.4,0.015,0.669,0.118
		c0.541,0.208,1.192,0.674,1.839,1.213c1.316,1.082,2.622,2.468,4.439,3.589c0.941,0.541,1.967,1.041,3.365,1.106
		c0.438,0.009,0.391,0.021,0.879-0.027c0.276-0.032,0.553-0.081,0.83-0.141c0.553-0.123,1.102-0.303,1.631-0.553
		c1.051-0.498,2.037-1.285,2.686-2.363C33.343,28.217,33.589,26.855,33.329,25.635z"/>
</g>
</svg>
