<svg width="74" height="74" viewBox="0 0 74 74" fill="none" xmlns="http://www.w3.org/2000/svg">
<rect width="74" height="74" fill="white"/>
<g filter="url(#filter0_i_1228_7671)">
<path d="M36.6552 40.1005C37.1017 45.6229 39.9298 49.5711 41.8547 50.6579C43.7795 51.7457 48.6751 53.1991 52.8122 49.904C56.9492 46.6085 56.6417 42.3098 55.4396 38.8158C56.6891 39.193 58.0792 39.3129 60.3594 37.4752C62.6396 35.6381 67.3119 29.9948 66.1184 26.4157C64.9239 22.8362 56.9351 23.5603 52.5939 24.1364C48.2528 24.7126 37.9696 28.8738 37.9696 28.8738C37.9696 28.8738 38.325 30.9622 38.1652 32.1134C38.0054 33.2647 36.9354 35.6326 36.9354 35.6326L36.6552 40.1005Z" fill="#2F99C6"/>
<path d="M37.3448 40.1005C36.8983 45.6229 34.0702 49.5711 32.1453 50.6579C30.2205 51.7457 25.3249 53.1991 21.1878 49.904C17.0508 46.6085 17.3583 42.3098 18.5604 38.8158C17.3109 39.193 15.9208 39.3129 13.6406 37.4752C11.3604 35.6381 6.68808 29.9948 7.88161 26.4157C9.07614 22.8362 17.0649 23.5603 21.4061 24.1364C25.7472 24.7126 36.0304 28.8738 36.0304 28.8738C36.0304 28.8738 35.675 30.9622 35.8348 32.1134C35.9946 33.2647 37.0646 35.6326 37.0646 35.6326L37.3448 40.1005Z" fill="#2F99C6"/>
<path d="M55.8904 39.0056C57.1669 39.3945 58.5876 39.518 60.918 37.6236C63.2494 35.7291 68.024 29.9118 66.8037 26.2215C65.5834 22.5312 57.4183 23.2778 52.9821 23.8717C48.5449 24.4656 38.0345 28.7551 38.0345 28.7551C38.0345 28.7551 38.3982 30.9086 38.2349 32.0954C47.7578 35.9705 50.799 37.6059 55.8904 39.0056Z" fill="#34A4D3"/>
<path d="M18.1096 39.0056C16.8331 39.3945 15.4124 39.518 13.082 37.6236C10.7506 35.7291 5.97601 29.9118 7.19632 26.2215C8.41663 22.5312 16.5817 23.2778 21.0179 23.8717C25.4551 24.4656 35.9655 28.7551 35.9655 28.7551C35.9655 28.7551 35.6018 30.9086 35.7651 32.0954C26.2422 35.9705 23.201 37.6059 18.1096 39.0056Z" fill="#34A4D3"/>
<path d="M55.5556 39.0597C55.5556 39.0597 58.0334 39.9807 60.468 37.6754C62.9035 35.3701 66.9733 28.5941 66.2183 26.2545C65.4634 23.9149 60.2838 23.0844 56.5507 23.4698C54.402 23.6918 52.7134 23.9009 52.7134 23.9009C51.8341 24.1869 54.1453 26.4459 55.0125 31.3269C55.8797 36.2079 55.1273 39.0613 55.5556 39.0597Z" fill="#2A8AB2"/>
<path d="M18.4444 39.0597C18.4444 39.0597 15.9666 39.9807 13.532 37.6754C11.0965 35.3701 7.02668 28.5941 7.78165 26.2545C8.53662 23.9149 13.7162 23.0844 17.4493 23.4698C19.598 23.6918 21.2866 23.9009 21.2866 23.9009C22.1659 24.1869 19.8547 26.4459 18.9875 31.3269C18.1203 36.2079 18.8727 39.0613 18.4444 39.0597Z" fill="#2A8AB2"/>
<path d="M60.4955 37.8621C60.4955 37.8621 63.8382 34.9394 65.2997 32.3827C66.7612 29.826 67.356 27.8953 66.7866 26.28C66.2172 24.6647 64.971 24.2644 63.2644 23.7275C61.8018 23.2687 60.1035 23.3953 60.1035 23.3953C63.9219 25.7104 64.5728 32.3447 60.4955 37.8621Z" fill="#216B8B"/>
<path d="M13.5045 37.8621C13.5045 37.8621 10.1618 34.9394 8.70029 32.3827C7.23878 29.826 6.64403 27.8953 7.21344 26.28C7.78285 24.6647 9.02905 24.2644 10.7356 23.7275C12.1982 23.2687 13.8965 23.3953 13.8965 23.3953C10.0781 25.7104 9.42719 32.3447 13.5045 37.8621Z" fill="#216B8B"/>
<path d="M31.4772 22.1142C31.2993 22.2452 31.4089 22.568 31.4986 22.7176C31.5883 22.8673 31.6765 22.899 31.7786 22.9763C31.9841 23.1294 32.1827 23.2659 32.2531 23.4287C32.4876 23.9494 32.7786 24.4597 33.0289 24.8942C33.3593 25.4459 33.7041 25.9694 34.0848 26.4025C34.4724 26.8121 34.862 27.1818 35.271 27.4804C35.5579 27.6735 35.8531 27.7314 36.1538 27.7818C36.1241 27.8976 36.0951 28.0163 36.0889 28.1487C36.0269 28.0563 35.9779 27.997 35.8958 27.997C35.6862 27.997 35.5076 28.3439 35.5076 28.7735C35.5076 28.8811 35.5076 28.9818 35.5283 29.0749C34.8483 29.7335 34.3862 30.8983 34.3862 32.2432C34.3862 33.7376 34.94 35.0101 35.7441 35.6052C35.1655 36.7763 34.7745 38.8914 34.7745 41.3163C34.7745 45.0073 36.2496 48.0032 36.7572 47.9976C37.2648 47.9894 38.7614 45.0073 38.7614 41.3163C38.7614 38.8797 38.3752 36.7508 37.7917 35.5839C38.5827 34.9811 39.1276 33.7225 39.1276 32.2432C39.1276 30.9128 38.691 29.759 38.0289 29.097C38.051 28.9976 38.0717 28.8901 38.0717 28.7728C38.0717 28.3439 37.8924 27.9976 37.6841 27.9976C37.5876 27.9976 37.5138 28.0687 37.4469 28.1914C37.4413 28.0528 37.4196 27.9153 37.382 27.7818C37.7 27.7211 37.9889 27.6149 38.2655 27.4804C38.671 27.1287 39.1214 26.7721 39.4517 26.4025C39.8317 25.9694 40.1986 25.4452 40.5289 24.8942C40.8124 24.4004 41.0462 23.9073 41.2827 23.4287C41.3531 23.2659 41.5517 23.1294 41.7572 22.9763C41.86 22.899 41.9158 22.877 42.0586 22.7176C42.2014 22.5576 42.2441 22.248 42.0807 22.1142C41.9165 21.9804 41.6876 21.9983 41.4772 22.2004C41.2662 22.4018 41.1469 22.9949 41.0462 23.3639C40.8145 23.8356 40.5579 24.3114 40.3345 24.7432C40.0386 25.2211 39.6931 25.7459 39.322 26.1873C38.9717 26.5832 38.6117 26.8735 38.2441 27.1783C37.9227 27.4363 37.5269 27.5308 37.2531 27.4804C37.1262 27.2494 36.9579 27.0921 36.7565 27.0921C36.5538 27.0921 36.3827 27.2452 36.2614 27.4804C35.5634 27.5376 34.7352 26.6763 34.2138 26.1873C33.842 25.7459 33.4965 25.2218 33.2007 24.7432C32.9434 24.2673 32.7345 23.8349 32.4903 23.3639C32.4007 23.0983 32.3448 22.797 32.2524 22.5452C32.2102 22.4192 32.1447 22.3022 32.0593 22.2004C31.7793 21.9128 31.6551 21.9825 31.4772 22.1142Z" fill="#0E3855"/>
</g>
<defs>
<filter id="filter0_i_1228_7671" x="7" y="22" width="60" height="33.9347" filterUnits="userSpaceOnUse" color-interpolation-filters="sRGB">
<feFlood flood-opacity="0" result="BackgroundImageFix"/>
<feBlend mode="normal" in="SourceGraphic" in2="BackgroundImageFix" result="shape"/>
<feColorMatrix in="SourceAlpha" type="matrix" values="0 0 0 0 0 0 0 0 0 0 0 0 0 0 0 0 0 0 127 0" result="hardAlpha"/>
<feOffset dy="4"/>
<feGaussianBlur stdDeviation="7"/>
<feComposite in2="hardAlpha" operator="arithmetic" k2="-1" k3="1"/>
<feColorMatrix type="matrix" values="0 0 0 0 0 0 0 0 0 0 0 0 0 0 0 0 0 0 0.15 0"/>
<feBlend mode="normal" in2="shape" result="effect1_innerShadow_1228_7671"/>
</filter>
</defs>
</svg>
