<svg width="24" height="24" viewBox="0 0 24 24" fill="none" xmlns="http://www.w3.org/2000/svg">
<path d="M24 0.499688C24 0.224507 23.7769 0.00136254 23.5017 0.00136254H16.5254C16.3099 -0.0145545 16.1086 0.110231 16.0271 0.310316C15.9436 0.494586 15.9878 0.711609 16.1367 0.848536L18.5684 3.28027C18.6598 3.3824 18.6598 3.53688 18.5684 3.63902L14.1635 8.07395C14.0727 8.15517 13.9353 8.15517 13.8445 8.07395C8.35183 4.16162 0.683596 7.66245 0.0418132 14.3755C-0.59997 21.0885 6.26598 25.9789 12.4005 23.1782C17.4073 20.8924 19.0907 14.6099 15.8975 10.1269C15.8163 10.0361 15.8163 9.89879 15.8975 9.80809L20.3325 5.36316C20.4346 5.27184 20.5891 5.27184 20.6912 5.36316L23.1229 7.79489C23.2614 7.941 23.4766 7.98487 23.6612 7.90447C23.8493 7.84183 23.9825 7.67357 24 7.47594V0.499688ZM8.80169 21.4285C4.00668 21.4283 1.00979 16.2375 3.40745 12.085C5.80521 7.93263 11.7989 7.93294 14.1961 12.0855C14.7427 13.0324 15.0304 14.1064 15.0304 15.1997C15.0304 18.6397 12.2416 21.4284 8.80169 21.4285Z" fill="black"/>
</svg>
