<svg width="24" height="25" viewBox="0 0 24 25" fill="none" xmlns="http://www.w3.org/2000/svg">
<path fill-rule="evenodd" clip-rule="evenodd" d="M10.7724 1.27826C11.4493 0.751611 12.3803 0.718696 13.0889 1.17946L13.2275 1.2782L16.6443 3.93607C17.7387 4.78682 18.173 6.23801 17.7273 7.54607C17.7073 7.60582 17.6876 7.66532 17.6681 7.72456C17.9689 8.7582 18.3872 9.27319 18.944 9.27319C19.2689 9.27319 19.681 8.94718 20.0866 8.3512C20.2504 8.1105 20.3982 7.84838 20.5258 7.58594L20.5718 7.4851L20.0385 5.88536C19.9075 5.4924 20.1199 5.06766 20.5128 4.93667C20.8731 4.8166 21.26 4.98505 21.4229 5.31663L21.4615 5.41102L21.775 6.35319L22.834 5.64915C23.1473 5.44027 23.5606 5.49825 23.8058 5.76946L23.8741 5.85716C24.0829 6.17048 24.025 6.5838 23.7537 6.82898L23.666 6.89722L21.98 8.02123C21.8326 8.35605 21.614 8.77299 21.3267 9.19517C20.6689 10.1617 19.8958 10.7732 18.944 10.7732C18.1316 10.7732 17.5143 10.4426 17.0467 9.85746C16.6836 11.3284 16.5323 12.5886 16.6387 13.6186C17.4287 12.9064 18.3492 12.6605 19.3686 13.0797C20.622 13.5958 20.8491 14.9237 20.4772 16.6825C20.3706 17.187 20.2152 17.7164 20.024 18.2571C19.9374 18.5018 19.8469 18.7394 19.755 18.9666L19.6164 19.299C19.5322 19.495 19.4658 19.6402 19.426 19.7231C19.2465 20.0964 18.7984 20.2536 18.4251 20.0742C18.0518 19.8947 17.8946 19.4466 18.0741 19.0733L18.238 18.7073C18.3647 18.4121 18.4917 18.0911 18.6098 17.757C18.7806 17.2741 18.918 16.806 19.0097 16.3722C19.2466 15.2516 19.1362 14.6062 18.7978 14.4668C18.253 14.2428 17.7095 14.5142 17.1576 15.2876C17.3507 15.639 17.2327 16.0831 16.886 16.2913C16.5308 16.5044 16.0701 16.3893 15.857 16.0341C14.6527 14.0276 14.9569 11.239 16.1633 7.50089C16.1682 7.48352 16.1737 7.46636 16.1799 7.44945C16.2209 7.32282 16.263 7.19511 16.3061 7.0663C16.5308 6.40691 16.342 5.68226 15.8366 5.21601L15.7235 5.12017L12.3064 2.46211C12.152 2.34192 11.9445 2.32475 11.7748 2.41064L11.6935 2.46217L8.27634 5.1203C7.68709 5.5784 7.45323 6.35981 7.69511 7.06977C7.73917 7.20116 7.78217 7.33144 7.8241 7.4606C7.8273 7.46984 7.83032 7.47915 7.83315 7.48852C9.04202 11.2217 9.34942 14.0251 8.14301 16.0343C7.92978 16.3894 7.46905 16.5044 7.11393 16.2912C6.76728 16.083 6.64942 15.639 6.84234 15.2877C6.29009 14.514 5.74676 14.2428 5.20262 14.4667C4.86383 14.6062 4.75345 15.2516 4.99038 16.3722C5.08208 16.806 5.21941 17.2741 5.39019 17.757C5.46898 17.9797 5.55166 18.1966 5.63557 18.404L5.84335 18.8933C5.87918 18.9737 5.90737 19.0346 5.92599 19.0733C6.10543 19.4466 5.94826 19.8947 5.57493 20.0742C5.20161 20.2536 4.7535 20.0964 4.57405 19.7231L4.43196 19.4104L4.38368 19.299C4.24468 18.9752 4.10587 18.6242 3.97603 18.2571C3.78479 17.7164 3.62947 17.187 3.52282 16.6825C3.15097 14.9237 3.37808 13.5958 4.6316 13.0796C5.65059 12.6603 6.57108 12.9062 7.36144 13.6189C7.46818 12.5874 7.31701 11.3257 6.95422 9.8564C6.48649 10.4422 5.86898 10.7732 5.05602 10.7732C4.10424 10.7732 3.33118 10.1617 2.67337 9.19517C2.38604 8.77299 2.16745 8.35605 2.02 8.02123L0.333994 6.89722C-0.010653 6.66746 -0.103783 6.20181 0.125981 5.85716C0.334858 5.54385 0.738683 5.4384 1.06932 5.59444L1.16604 5.64915L2.22402 6.35319L2.53851 5.41102C2.66949 5.01806 3.09423 4.80569 3.48719 4.93667C3.8474 5.05674 4.05587 5.42365 3.98722 5.78664L3.96153 5.88536L3.42752 7.4874L3.43171 7.49696C3.44487 7.525 3.45905 7.55471 3.47423 7.58594C3.60179 7.84838 3.7496 8.1105 3.91342 8.3512C4.31904 8.94718 4.73118 9.27319 5.05602 9.27319C5.61293 9.27319 6.03118 8.75812 6.33205 7.72429C6.31297 7.66646 6.29365 7.60838 6.27409 7.55007C5.84834 6.30049 6.222 4.92472 7.20373 4.06172L7.35553 3.9362L10.7724 1.27826ZM22.6855 16.1506C23.0984 16.1841 23.406 16.5458 23.3726 16.9587L23.3507 17.1798C23.3267 17.3922 23.2875 17.6728 23.2293 18.0043C23.0938 18.777 22.8996 19.5508 22.634 20.2799C21.8267 22.4958 20.521 23.8982 18.577 23.8982C16.9489 23.8982 15.8414 23.138 15.2467 21.9133C15.1324 21.6778 15.0437 21.4442 14.9764 21.219L14.968 21.1872L14.9527 21.196C14.1632 21.5662 13.3249 21.8254 12.4617 21.9652L12.0903 22.0177H11.9097C11.0399 21.9123 10.1916 21.6862 9.38863 21.3478L9.03102 21.1872L9.02368 21.219C8.97877 21.3691 8.9244 21.523 8.85926 21.6787L8.75331 21.9133C8.1586 23.138 7.05114 23.8982 5.42302 23.8982C3.47902 23.8982 2.17339 22.4958 1.36608 20.2799C1.10044 19.5508 0.906245 18.777 0.770704 18.0043L0.709781 17.6321C0.666187 17.344 0.64002 17.1138 0.627465 16.9587C0.594039 16.5458 0.901634 16.1841 1.3145 16.1506C1.72736 16.1172 2.08915 16.4248 2.12257 16.8377L2.14088 17.0209C2.16154 17.2014 2.19617 17.4489 2.24815 17.7452C2.36956 18.4373 2.543 19.1284 2.77546 19.7665C3.39128 21.4568 4.26777 22.3982 5.42302 22.3982C6.45053 22.3982 7.05025 21.9865 7.40398 21.2581C7.53521 20.9878 7.62187 20.6904 7.67023 20.3916C7.68743 20.2854 7.69759 20.1955 7.70297 20.1277L7.70802 20.0232C7.70802 19.4344 8.3555 19.0752 8.85505 19.3869C9.73876 19.9383 10.7217 20.3091 11.747 20.4794L12 20.5152L12.253 20.4794C13.1644 20.3281 14.0423 20.0182 14.8468 19.564L15.145 19.3869C15.6152 19.0935 16.2164 19.3944 16.2855 19.9217L16.2971 20.1277C16.3024 20.1955 16.3126 20.2854 16.3298 20.3916C16.3782 20.6904 16.4648 20.9878 16.5961 21.2581C16.9498 21.9865 17.5495 22.3982 18.577 22.3982C19.7323 22.3982 20.6088 21.4568 21.2246 19.7665C21.457 19.1284 21.6305 18.4373 21.7519 17.7452C21.8247 17.3303 21.8634 17.0112 21.8775 16.8377C21.9081 16.4592 22.2147 16.1692 22.5835 16.1492L22.6855 16.1506ZM12.7432 9.54642C12.6935 9.18034 12.3797 8.89819 12 8.89819C11.5858 8.89819 11.25 9.23397 11.25 9.64819V14.8982L11.2569 15C11.3065 15.366 11.6203 15.6482 12 15.6482C12.4142 15.6482 12.75 15.3124 12.75 14.8982V9.64819L12.7432 9.54642Z" fill="black"/>
<mask id="mask0_1038_6771" style="mask-type:luminance" maskUnits="userSpaceOnUse" x="0" y="0" width="25" height="24">
<path fill-rule="evenodd" clip-rule="evenodd" d="M10.7724 1.27826C11.4493 0.751611 12.3803 0.718696 13.0889 1.17946L13.2275 1.2782L16.6443 3.93607C17.7387 4.78682 18.173 6.23801 17.7273 7.54607C17.7073 7.60582 17.6876 7.66532 17.6681 7.72456C17.9689 8.7582 18.3872 9.27319 18.944 9.27319C19.2689 9.27319 19.681 8.94718 20.0866 8.3512C20.2504 8.1105 20.3982 7.84838 20.5258 7.58594L20.5718 7.4851L20.0385 5.88536C19.9075 5.4924 20.1199 5.06766 20.5128 4.93667C20.8731 4.8166 21.26 4.98505 21.4229 5.31663L21.4615 5.41102L21.775 6.35319L22.834 5.64915C23.1473 5.44027 23.5606 5.49825 23.8058 5.76946L23.8741 5.85716C24.0829 6.17048 24.025 6.5838 23.7537 6.82898L23.666 6.89722L21.98 8.02123C21.8326 8.35605 21.614 8.77299 21.3267 9.19517C20.6689 10.1617 19.8958 10.7732 18.944 10.7732C18.1316 10.7732 17.5143 10.4426 17.0467 9.85746C16.6836 11.3284 16.5323 12.5886 16.6387 13.6186C17.4287 12.9064 18.3492 12.6605 19.3686 13.0797C20.622 13.5958 20.8491 14.9237 20.4772 16.6825C20.3706 17.187 20.2152 17.7164 20.024 18.2571C19.9374 18.5018 19.8469 18.7394 19.755 18.9666L19.6164 19.299C19.5322 19.495 19.4658 19.6402 19.426 19.7231C19.2465 20.0964 18.7984 20.2536 18.4251 20.0742C18.0518 19.8947 17.8946 19.4466 18.0741 19.0733L18.238 18.7073C18.3647 18.4121 18.4917 18.0911 18.6098 17.757C18.7806 17.2741 18.918 16.806 19.0097 16.3722C19.2466 15.2516 19.1362 14.6062 18.7978 14.4668C18.253 14.2428 17.7095 14.5142 17.1576 15.2876C17.3507 15.639 17.2327 16.0831 16.886 16.2913C16.5308 16.5044 16.0701 16.3893 15.857 16.0341C14.6527 14.0276 14.9569 11.239 16.1633 7.50089C16.1682 7.48352 16.1737 7.46636 16.1799 7.44945C16.2209 7.32282 16.263 7.19511 16.3061 7.0663C16.5308 6.40691 16.342 5.68226 15.8366 5.21601L15.7235 5.12017L12.3064 2.46211C12.152 2.34192 11.9445 2.32475 11.7748 2.41064L11.6935 2.46217L8.27634 5.1203C7.68709 5.5784 7.45323 6.35981 7.69511 7.06977C7.73917 7.20116 7.78217 7.33144 7.8241 7.4606C7.8273 7.46984 7.83032 7.47915 7.83315 7.48852C9.04202 11.2217 9.34942 14.0251 8.14301 16.0343C7.92978 16.3894 7.46905 16.5044 7.11393 16.2912C6.76728 16.083 6.64942 15.639 6.84234 15.2877C6.29009 14.514 5.74676 14.2428 5.20262 14.4667C4.86383 14.6062 4.75345 15.2516 4.99038 16.3722C5.08208 16.806 5.21941 17.2741 5.39019 17.757C5.46898 17.9797 5.55166 18.1966 5.63557 18.404L5.84335 18.8933C5.87918 18.9737 5.90737 19.0346 5.92599 19.0733C6.10543 19.4466 5.94826 19.8947 5.57493 20.0742C5.20161 20.2536 4.7535 20.0964 4.57405 19.7231L4.43196 19.4104L4.38368 19.299C4.24468 18.9752 4.10587 18.6242 3.97603 18.2571C3.78479 17.7164 3.62947 17.187 3.52282 16.6825C3.15097 14.9237 3.37808 13.5958 4.6316 13.0796C5.65059 12.6603 6.57108 12.9062 7.36144 13.6189C7.46818 12.5874 7.31701 11.3257 6.95422 9.8564C6.48649 10.4422 5.86898 10.7732 5.05602 10.7732C4.10424 10.7732 3.33118 10.1617 2.67337 9.19517C2.38604 8.77299 2.16745 8.35605 2.02 8.02123L0.333994 6.89722C-0.010653 6.66746 -0.103783 6.20181 0.125981 5.85716C0.334858 5.54385 0.738683 5.4384 1.06932 5.59444L1.16604 5.64915L2.22402 6.35319L2.53851 5.41102C2.66949 5.01806 3.09423 4.80569 3.48719 4.93667C3.8474 5.05674 4.05587 5.42365 3.98722 5.78664L3.96153 5.88536L3.42752 7.4874L3.43171 7.49696C3.44487 7.525 3.45905 7.55471 3.47423 7.58594C3.60179 7.84838 3.7496 8.1105 3.91342 8.3512C4.31904 8.94718 4.73118 9.27319 5.05602 9.27319C5.61293 9.27319 6.03118 8.75812 6.33205 7.72429C6.31297 7.66646 6.29365 7.60838 6.27409 7.55007C5.84834 6.30049 6.222 4.92472 7.20373 4.06172L7.35553 3.9362L10.7724 1.27826ZM22.6855 16.1506C23.0984 16.1841 23.406 16.5458 23.3726 16.9587L23.3507 17.1798C23.3267 17.3922 23.2875 17.6728 23.2293 18.0043C23.0938 18.777 22.8996 19.5508 22.634 20.2799C21.8267 22.4958 20.521 23.8982 18.577 23.8982C16.9489 23.8982 15.8414 23.138 15.2467 21.9133C15.1324 21.6778 15.0437 21.4442 14.9764 21.219L14.968 21.1872L14.9527 21.196C14.1632 21.5662 13.3249 21.8254 12.4617 21.9652L12.0903 22.0177H11.9097C11.0399 21.9123 10.1916 21.6862 9.38863 21.3478L9.03102 21.1872L9.02368 21.219C8.97877 21.3691 8.9244 21.523 8.85926 21.6787L8.75331 21.9133C8.1586 23.138 7.05114 23.8982 5.42302 23.8982C3.47902 23.8982 2.17339 22.4958 1.36608 20.2799C1.10044 19.5508 0.906245 18.777 0.770704 18.0043L0.709781 17.6321C0.666187 17.344 0.64002 17.1138 0.627465 16.9587C0.594039 16.5458 0.901634 16.1841 1.3145 16.1506C1.72736 16.1172 2.08915 16.4248 2.12257 16.8377L2.14088 17.0209C2.16154 17.2014 2.19617 17.4489 2.24815 17.7452C2.36956 18.4373 2.543 19.1284 2.77546 19.7665C3.39128 21.4568 4.26777 22.3982 5.42302 22.3982C6.45053 22.3982 7.05025 21.9865 7.40398 21.2581C7.53521 20.9878 7.62187 20.6904 7.67023 20.3916C7.68743 20.2854 7.69759 20.1955 7.70297 20.1277L7.70802 20.0232C7.70802 19.4344 8.3555 19.0752 8.85505 19.3869C9.73876 19.9383 10.7217 20.3091 11.747 20.4794L12 20.5152L12.253 20.4794C13.1644 20.3281 14.0423 20.0182 14.8468 19.564L15.145 19.3869C15.6152 19.0935 16.2164 19.3944 16.2855 19.9217L16.2971 20.1277C16.3024 20.1955 16.3126 20.2854 16.3298 20.3916C16.3782 20.6904 16.4648 20.9878 16.5961 21.2581C16.9498 21.9865 17.5495 22.3982 18.577 22.3982C19.7323 22.3982 20.6088 21.4568 21.2246 19.7665C21.457 19.1284 21.6305 18.4373 21.7519 17.7452C21.8247 17.3303 21.8634 17.0112 21.8775 16.8377C21.9081 16.4592 22.2147 16.1692 22.5835 16.1492L22.6855 16.1506ZM12.7432 9.54642C12.6935 9.18034 12.3797 8.89819 12 8.89819C11.5858 8.89819 11.25 9.23397 11.25 9.64819V14.8982L11.2569 15C11.3065 15.366 11.6203 15.6482 12 15.6482C12.4142 15.6482 12.75 15.3124 12.75 14.8982V9.64819L12.7432 9.54642Z" fill="white"/>
</mask>
<g mask="url(#mask0_1038_6771)">
<rect y="0.857178" width="24" height="24" fill="black"/>
</g>
</svg>
