<svg xmlns="http://www.w3.org/2000/svg" width="74" height="74" viewBox="0 0 19.579 19.579">
  <path d="M0 0h19.579v19.579H0Z" style="fill:#fff;fill-opacity:.989964;stroke:none"/>
  <path d="M5.441.707c-.097.45-.225 1.1-.252 1.509-.016.256-.006.516.027.77.007.053.05.053.06.104.006.043-.02.144-.009.195.01.042.043.093.055.138.01.033-.006.06.003.095.01.033.044.043.053.076.025.086-.002.146.021.218.024.075.075.12.083.232.004.748.026 1.958.154 2.34a.696.696 0 0 0-.003.318c-.045.094-.017.27.01.337 0 0-.08.514-.074 1.015 0 .057.054.125.045.18-.014.083-.017.26.01.362.032.137.17.42.17.42s-.135.89-.11 1.335c.015.29.154.852.184.858.045.009.082-.08.082-.08s.084.156.146.18c.647.26 1.068-.237 1.41-.59.321-.333.53-1.002.595-1.582.052-.448.033-1.38.032-1.91 0 0 .248-.632.324-.95.103-.43.16-1.05.254-1.642.138-.875.295-1.684.295-1.684.295-.676.564-1.343.703-2.196" style="fill:#fff;stroke:#0e3855;stroke-width:.238123;"/>
  <path d="M5.441.707c-.097.45-.225 1.1-.252 1.509-.016.256-.006.516.027.77.007.053.05.053.06.104.006.043-.02.144-.009.195.01.042.043.093.055.138.01.033-.006.06.003.095.01.033.044.043.053.076.025.086-.002.146.021.218.024.075.075.12.083.232.004.748.026 1.958.154 2.34a.696.696 0 0 0-.003.318c-.045.094-.017.27.01.337 0 0-.08.514-.074 1.015 0 .057.054.125.045.18-.014.083-.017.26.01.362.032.137.17.42.17.42s-.135.89-.11 1.335c.015.29.154.852.184.858.045.009.082-.08.082-.08s.084.156.146.18c.647.26 1.068-.237 1.41-.59.321-.333.53-1.002.595-1.582.052-.448.033-1.38.032-1.91 0 0 .248-.632.324-.95.103-.43.16-1.05.254-1.642.138-.875.295-1.684.295-1.684.295-.676.564-1.362.703-2.215" style="fill:#fff;stroke:#0e3855;stroke-width:.0650811;"/>
  <path d="M13.248.73c.007.046.023.064.032.106.027.119.008.234-.008.356-.015.113.004.164-.013.275-.04.314-.11.624-.21.925-.346.973-.926 1.75-1.335 2.762a3.667 3.667 0 0 0-.092.346s-.109.076-.16.155c-.392.597-.605 1.419-.674 2.13-.068.706-.03 1.754.046 2.057.15.592.474 1.18 1.025 1.443.226.108.526.079.77.02.765-.19.935-1.542.924-1.548.063-.2.14-.516.206-.713.046-.14.088-.18.143-.32.164-.422.29-.633.437-.94 0 0 .1-.09.183-.206.066-.092.03-.185.101-.28.107-.14.172-.453.12-.474.094.026.22-.036.305-.182.091-.156.177-.237.183-.376.004-.081-.062-.178-.062-.178s.134-.002.184-.05c.078-.073.165-.238.263-.36.111-.138.254-.275.372-.407.313-.35.49-.75.815-1.09.512-.535 1.465-1.488 1.78-1.815.036-.038.521-.664.793-1.607" style="fill:#fff;stroke:#0e3855;stroke-width:.238123;"/>
  <path d="M6.063 10.646c.004-.254.02-.365-.009-.544-.05-.326-.284-.99-.29-.947-.03.21-.117.868-.097 1.228.015.28.15.826.18.832.043.01.08-.078.08-.078-.046-.298.07-.287.136-.491zm-.437-3.492c.146.093.264.25.44.228m.105-.276s-.249-.034-.376-.117c-.049-.032-.176-.146-.176-.146m.862-.222s-.295.017-.475-.002a4.264 4.264 0 0 1-.39-.086m.097.04c.265.129.531.263.818.479m-1.05-2.848c.307.176.628-.033.945-.125m-1.062-.26c.276.185.493-.001.728-.075m-.402-.798c-.017-.157.088-.172.218-.28-.306.09-.425-.14-.615-.092" style="fill:#fff;stroke:#0e3855;stroke-width:.0517838;"/>
  <path d="M6.46 2.89c-.266-.176-.53-.342-.928-.375m-.15-.585c.301-.142.681.168.894.31m-.694-1.222s.115-.09.25-.033c.222.09.544.468.544.468" style="fill:#fff;stroke:#0e3855;stroke-width:.0517838;"/>
  <path d="M13.248.706c.012.045.023.088.032.13.027.119.008.234-.008.356-.015.113.004.164-.013.275-.04.314-.11.624-.21.925-.346.973-.926 1.75-1.335 2.762a3.667 3.667 0 0 0-.092.346s-.109.076-.16.155c-.392.597-.605 1.419-.674 2.13-.068.706-.03 1.754.046 2.057.15.592.474 1.18 1.025 1.443.226.108.526.079.77.02.765-.19.935-1.542.924-1.548.063-.2.14-.516.206-.713.046-.14.088-.18.143-.32.164-.422.29-.633.437-.94 0 0 .1-.09.183-.206.066-.092.03-.185.101-.28.107-.14.172-.453.12-.474.094.026.22-.036.305-.182.091-.156.177-.237.183-.376.004-.081-.062-.178-.062-.178s.134-.002.184-.05c.078-.073.165-.238.263-.36.111-.138.254-.275.372-.407.313-.35.49-.75.815-1.09.512-.535 1.465-1.488 1.78-1.815.036-.038.522-.702.793-1.645" style="fill:#fff;stroke:#0e3855;stroke-width:.0666498;"/>
  <path d="M12.005 11c.19.183.282.24.512.304.766-.188.936-1.541.925-1.547.026-.244.034-.394.088-.678.027-.145.073-.375-.05-.463-.296-.214-1.474-.03-1.634.52-.117.4-.257.573-.246.953.008.285.258.772.405.912zm1.085-3.91c.35.22.697.443 1.136.334m-1.518-.864s.353-.078.53-.062c.283.025.815.247.815.247m.086-.321c.272-.011.542-.017.74.173m-2.048-.63c.677-.198 1.246-.122 1.802-.012m-1.802-.716c.463.065.915.116 1.296.074m.012-.246c.23.035.411.043 1.037.308m-1.194 1.573c.146-.203.412-.135.651-.13m-1.74.74c.238.08.37.195.827.199m-1.469.814c.105-.12.176-.22.494-.456" style="fill:#fff;stroke:#0e3855;stroke-width:.0666498;"/>
  <path d="M13.586 6.038c.335-.036.38-.125 1.194-.072m-1.83 3.406c.218.01.405-.07.517-.346.06-.144.123-.323.014-.41-.2-.145-.804-.107-1.223.102-.036.475.45.64.693.654z" style="fill:#fff;stroke:#0e3855;stroke-width:.0666498;"/>
  <path d="M13.313 1.769s.212-.54.428-1.058" style="fill:#fff;stroke:#0e3855;stroke-width:.0452897;"/>
  <g style="fill:#0e3855;stroke:none">
    <path d="M142.065 279.344h3.734v.104h-3.734z" style="color:#000;fill:#0e3855;stroke:none;stroke-width:1.34203" transform="matrix(1.10853 0 0 .32303 -149.764 -78.003)"/>
    <path d="M141.395 278.674v1.445h5.074v-1.445z" style="color:#000;fill:#0e3855;stroke:none" transform="matrix(1.10853 0 0 .32303 -149.764 -78.003)"/>
  </g>
</svg>
