<?xml version="1.0" encoding="UTF-8" ?>
<svg
    width="74"
    height="74"
    viewBox="0 0 74 74"><path  d="M37 44.1495C46.4302 44.1495 54.0748 36.5049 54.0748 27.0748C54.0748 17.6446 46.4302 10 37 10C27.5699 10 19.9253 17.6446 19.9253 27.0748C19.9253 36.5049 27.5699 44.1495 37 44.1495Z" fill="#f9ef2d"/>
<path  d="M25.0072 63.6636C34.4 63.6636 42.0144 56.0493 42.0144 46.6564C42.0144 37.2636 34.4 29.6492 25.0072 29.6492C15.6144 29.6492 8 37.2636 8 46.6564C8 56.0493 15.6144 63.6636 25.0072 63.6636Z" fill="#f2a92e"/>
<path  d="M48.9928 63.6636C58.3856 63.6636 66 56.0493 66 46.6564C66 37.2636 58.3856 29.6492 48.9928 29.6492C39.6 29.6492 31.9856 37.2636 31.9856 46.6564C31.9856 56.0493 39.6 63.6636 48.9928 63.6636Z" fill="#ff7f48"/></svg>