<svg width="74" height="74" viewBox="0 0 74 74" fill="none" xmlns="http://www.w3.org/2000/svg">
<rect width="74" height="74" fill="white"/>
<g filter="url(#filter0_i_1228_7612)">
<path d="M34.9116 33.3991C34.7616 33.6622 34.3969 33.7727 33.8384 33.7244C33.2799 33.6761 32.5385 33.4698 31.6568 33.1174C30.7751 32.7649 29.7704 32.2733 28.7001 31.6707C27.6298 31.068 26.515 30.3662 25.4196 29.6053C24.3242 28.8444 23.2697 28.0395 22.3165 27.2366C21.3632 26.4337 20.53 25.6486 19.8644 24.9263C19.1989 24.2039 18.7142 23.5586 18.438 23.0272C18.1618 22.4957 18.0996 22.0887 18.255 21.8293C18.405 21.5662 18.7697 21.4557 19.3282 21.504C19.8867 21.5523 20.628 21.7586 21.5097 22.111C22.3914 22.4634 23.3962 22.9551 24.4665 23.5577C25.5367 24.1604 26.6515 24.8622 27.7469 25.6231C28.8423 26.384 29.8968 27.1889 30.8501 27.9918C31.8033 28.7947 32.6366 29.5798 33.3021 30.3021C33.9676 31.0245 34.4524 31.6698 34.7285 32.2012C35.0047 32.7327 35.0669 33.1397 34.9116 33.3991Z" fill="#2F99C6"/>
<path d="M39.0165 33.5179C38.6319 33.4025 38.4565 33.1327 38.5006 32.724C38.5446 32.3152 38.8071 31.7755 39.2731 31.1358C39.739 30.496 40.3993 29.7688 41.216 28.9958C42.0327 28.2228 42.9899 27.4191 44.0327 26.6308C45.0754 25.8426 46.1834 25.0852 47.2929 24.4021C48.4025 23.719 49.492 23.1235 50.499 22.6499C51.5059 22.1762 52.4106 21.8336 53.1611 21.6417C53.9117 21.4499 54.4934 21.4124 54.8729 21.5317C55.2575 21.647 55.4329 21.9168 55.3888 22.3256C55.3448 22.7343 55.0823 23.274 54.6163 23.9138C54.1504 24.5535 53.4901 25.2807 52.6734 26.0537C51.8567 26.8268 50.8995 27.6304 49.8567 28.4187C48.814 29.2069 47.7061 29.9643 46.5965 30.6475C45.4869 31.3306 44.3974 31.926 43.3904 32.3997C42.3835 32.8734 41.4788 33.2159 40.7283 33.4078C39.9777 33.5997 39.396 33.6371 39.0165 33.5179Z" fill="#2F99C6"/>
<path d="M37.0643 35.7493C36.717 35.8591 36.3355 35.7458 35.9416 35.416C35.5477 35.0862 35.1492 34.5462 34.7688 33.8272C34.3885 33.1081 34.0338 32.224 33.725 31.2254C33.4163 30.2269 33.1596 29.1336 32.9697 28.0081C32.7797 26.8827 32.6602 25.7471 32.6181 24.6666C32.5759 23.586 32.6119 22.5817 32.7239 21.711C32.836 20.8404 33.0219 20.1206 33.2711 19.5929C33.5202 19.0651 33.8277 18.7398 34.176 18.6355C34.5233 18.5257 34.9048 18.639 35.2987 18.9688C35.6926 19.2987 36.0911 19.8386 36.4715 20.5577C36.8518 21.2767 37.2065 22.1609 37.5153 23.1594C37.824 24.1579 38.0807 25.2512 38.2706 26.3767C38.4606 27.5021 38.5801 28.6377 38.6222 29.7182C38.6644 30.7988 38.6284 31.8032 38.5164 32.6738C38.4043 33.5444 38.2184 34.2642 37.9692 34.792C37.7201 35.3197 37.4126 35.645 37.0643 35.7493Z" fill="#2F99C6"/>
<path d="M35.5824 34.3507C35.5824 34.6153 35.2128 34.8773 34.4946 35.1218C33.7764 35.3663 32.7237 35.5884 31.3966 35.7756C30.0695 35.9627 28.4941 36.1111 26.7602 36.2124C25.0263 36.3136 23.168 36.3658 21.2912 36.3658C19.4145 36.3658 17.5561 36.3136 15.8222 36.2124C14.0883 36.1111 12.5129 35.9627 11.1858 35.7756C9.85874 35.5884 8.80605 35.3663 8.08785 35.1218C7.36965 34.8773 7 34.6153 7 34.3507C7 34.0861 7.36965 33.824 8.08785 33.5795C8.80605 33.3351 9.85874 33.1129 11.1858 32.9258C12.5129 32.7387 14.0883 32.5903 15.8222 32.489C17.5561 32.3877 19.4145 32.3356 21.2912 32.3356C23.168 32.3356 25.0263 32.3877 26.7602 32.489C28.4941 32.5903 30.0695 32.7387 31.3966 32.9258C32.7237 33.1129 33.7764 33.3351 34.4946 33.5795C35.2128 33.824 35.5824 34.0861 35.5824 34.3507Z" fill="#2F99C6"/>
<path d="M34.2598 16.2308H38.5647V57.4576H34.2598V16.2308Z" fill="#0D314A"/>
<path d="M39.2345 52.0428C38.8872 52.1526 38.5057 52.0393 38.1118 51.7095C37.7179 51.3796 37.3194 50.8397 36.939 50.1206C36.5587 49.4015 36.204 48.5174 35.8952 47.5189C35.5865 46.5204 35.3298 45.4271 35.1399 44.3016C34.9499 43.1761 34.8304 42.0406 34.7883 40.96C34.7461 39.8795 34.7821 38.8751 34.8941 38.0045C35.0062 37.1339 35.1921 36.4141 35.4413 35.8863C35.6904 35.3586 35.9979 35.0332 36.3462 34.929C36.6935 34.8192 37.075 34.9325 37.4689 35.2623C37.8628 35.5921 38.2613 36.132 38.6417 36.8511C39.022 37.5702 39.3767 38.4543 39.6855 39.4528C39.9942 40.4514 40.2509 41.5447 40.4408 42.6701C40.6308 43.7956 40.7503 44.9311 40.7924 46.0117C40.8346 47.0923 40.7986 48.0966 40.6866 48.9672C40.5745 49.8379 40.3886 50.5577 40.1394 51.0854C39.8903 51.6132 39.5828 51.9385 39.2345 52.0428Z" fill="#2F99C6"/>
<path d="M67 34.2066C67 34.4712 66.6304 34.7332 65.9122 34.9777C65.194 35.2222 64.1413 35.4443 62.8142 35.6314C61.4872 35.8186 59.9117 35.967 58.1778 36.0683C56.4439 36.1695 54.5856 36.2217 52.7088 36.2217C50.8321 36.2217 48.9737 36.1695 47.2398 36.0683C45.5059 35.967 43.9305 35.8186 42.6034 35.6314C41.2763 35.4443 40.2237 35.2222 39.5055 34.9777C38.7873 34.7332 38.4176 34.4712 38.4176 34.2066C38.4053 33.9408 38.7658 33.6774 39.4785 33.4314C40.1912 33.1854 41.2419 32.9617 42.5701 32.7732C43.8984 32.5847 45.478 32.4351 47.2179 32.333C48.9579 32.2309 50.8239 32.1783 52.7085 32.1783C54.5931 32.1783 56.4591 32.2309 58.1991 32.333C59.939 32.4351 61.5186 32.5847 62.8469 32.7732C64.1751 32.9617 65.2258 33.1854 65.9385 33.4314C66.6512 33.6774 67.0117 33.9408 66.9994 34.2066H67Z" fill="#2F99C6"/>
<path d="M54.8325 46.9622C54.695 47.2097 54.3389 47.2986 53.7847 47.2238C53.2304 47.1489 52.4889 46.9118 51.6025 46.526C50.7161 46.1401 49.7024 45.6132 48.6193 44.9753C47.5361 44.3373 46.405 43.601 45.2905 42.8085C44.176 42.0159 43.1002 41.1827 42.1245 40.3565C41.1489 39.5303 40.2927 38.7274 39.6049 37.9938C38.9171 37.2602 38.4112 36.6102 38.1163 36.0811C37.8213 35.5521 37.7431 35.1543 37.886 34.9106C38.0236 34.6631 38.3796 34.5742 38.9339 34.649C39.4881 34.7239 40.2297 34.961 41.116 35.3468C42.0024 35.7327 43.0162 36.2596 44.0993 36.8975C45.1824 37.5354 46.3136 38.2718 47.428 39.0643C48.5425 39.8569 49.6184 40.6901 50.594 41.5163C51.5696 42.3425 52.4259 43.1454 53.1137 43.879C53.8015 44.6126 54.3073 45.2626 54.6023 45.7916C54.8972 46.3207 54.9754 46.7185 54.8325 46.9622Z" fill="#2F99C6"/>
<path d="M18.5719 47.0104C18.1873 46.895 18.012 46.6252 18.056 46.2165C18.1 45.8077 18.3625 45.268 18.8285 44.6283C19.2944 43.9885 19.9547 43.2613 20.7714 42.4883C21.5881 41.7153 22.5453 40.9116 23.5881 40.1233C24.6309 39.3351 25.7388 38.5777 26.8484 37.8946C27.958 37.2115 29.0474 36.616 30.0544 36.1424C31.0613 35.6687 31.966 35.3261 32.7166 35.1342C33.4671 34.9424 34.0488 34.905 34.4283 35.0242C34.813 35.1395 34.9883 35.4093 34.9443 35.8181C34.9002 36.2268 34.6377 36.7665 34.1718 37.4063C33.7058 38.046 33.0456 38.7732 32.2288 39.5462C31.4121 40.3193 30.4549 41.1229 29.4122 41.9112C28.3694 42.6994 27.2615 43.4568 26.1519 44.14C25.0423 44.8231 23.9528 45.4185 22.9459 45.8922C21.9389 46.3659 21.0342 46.7084 20.2837 46.9003C19.5331 47.0922 18.9514 47.1296 18.5719 47.0104Z" fill="#2F99C6"/>
</g>
<defs>
<filter id="filter0_i_1228_7612" x="7" y="16.2308" width="60" height="45.2267" filterUnits="userSpaceOnUse" color-interpolation-filters="sRGB">
<feFlood flood-opacity="0" result="BackgroundImageFix"/>
<feBlend mode="normal" in="SourceGraphic" in2="BackgroundImageFix" result="shape"/>
<feColorMatrix in="SourceAlpha" type="matrix" values="0 0 0 0 0 0 0 0 0 0 0 0 0 0 0 0 0 0 127 0" result="hardAlpha"/>
<feOffset dy="4"/>
<feGaussianBlur stdDeviation="7"/>
<feComposite in2="hardAlpha" operator="arithmetic" k2="-1" k3="1"/>
<feColorMatrix type="matrix" values="0 0 0 0 0 0 0 0 0 0 0 0 0 0 0 0 0 0 0.15 0"/>
<feBlend mode="normal" in2="shape" result="effect1_innerShadow_1228_7612"/>
</filter>
</defs>
</svg>
