<svg xmlns="http://www.w3.org/2000/svg" width="74" height="74" viewBox="0 0 19.579 19.579">
  <path d="M0 0h19.579v19.579H0z" style="fill:#fff;fill-opacity:.989964;stroke:none;"/>
  <path d="M4.913 16.407c.893.645 1.814 1.34 3.283.402 1.257-.584 2.344-1.408 3.19-2.57 4.042-1.557 5.722-3.398 5.636-5.45-.048-2.228-1.263-3.502-3.128-4.244-.342-.636-.845-1.002-1.517-1.225-.106-.28-.258-.314-.526-.434-.103-.123-.244-.467-.73-.387-.09-.158-.244-.196-.386-.183a.713.713 0 0 0-.48.26s-.664-.01-.764.512c-.258.027-.662.157-.758.588-.913.096-1.714.822-2.086 1.55-1.412.664-2.746 1.83-3.407 3.098-.66 1.267-.836 3.16-.557 4.506.279 1.348 1.31 2.914 2.23 3.577z" style="clip-rule:evenodd;fill:#2f99c6;fill-opacity:1;fill-rule:evenodd;stroke:#0e3855;stroke-width:.191226px;stroke-linecap:round;stroke-linejoin:round;stroke-miterlimit:1.5;stroke-opacity:1"/>
  <path d="M10.255 2.576s.583-.064.866-.077c-.09-.158-.244-.196-.386-.184a.713.713 0 0 0-.48.26z" style="clip-rule:evenodd;fill:none;fill-rule:evenodd;stroke:#0e3855;stroke-width:.0888005px;stroke-linecap:round;stroke-linejoin:round;stroke-miterlimit:1.5;stroke-opacity:1"/>
  <path d="M9.491 3.088c.96-.189 1.79-.38 2.36-.202-.103-.123-.244-.467-.73-.387-.238.004-.517.048-.866.077 0 0-.664-.011-.764.512z" style="clip-rule:evenodd;fill:none;fill-rule:evenodd;stroke:#0e3855;stroke-width:.0888005px;stroke-linecap:round;stroke-linejoin:round;stroke-miterlimit:1.5;stroke-opacity:1"/>
  <path d="M8.732 3.676c.292-.061.973-.158 1.671-.238.881-.101 1.789-.176 1.974-.119-.106-.28-.278-.333-.526-.433-.181-.073-.446-.086-.735-.067-.298.019-.62.072-.904.126-.333.063-.61.129-.72.143-.258.034-.663.157-.76.588Z" style="clip-rule:evenodd;fill:none;fill-rule:evenodd;stroke:#0e3855;stroke-width:.129677px;stroke-linecap:round;stroke-linejoin:round;stroke-miterlimit:1.5;stroke-opacity:1"/>
  <path d="M6.647 5.227c.882-.463 6.114-.844 7.246-.682-.341-.636-.844-1.002-1.516-1.226-.494-.106-3.51.297-3.645.357-.913.095-1.713.822-2.085 1.55Z" style="clip-rule:evenodd;fill:none;fill-rule:evenodd;stroke:#0e3855;stroke-width:.0888005px;stroke-linecap:round;stroke-linejoin:round;stroke-miterlimit:1.5;stroke-opacity:1"/>
  <path d="M4.912 16.407c.894.645 1.814 1.34 3.283.402 1.258-.584 2.345-1.408 3.19-2.57 4.043-1.557 5.723-3.398 5.636-5.45-.048-2.229-1.262-3.502-3.128-4.244-.384-.211-6.907.277-7.246.682C5.234 5.89 3.9 7.057 3.24 8.324c-.66 1.267-.836 3.159-.557 4.506.278 1.348 1.31 2.914 2.23 3.577Z" style="clip-rule:evenodd;fill:none;fill-rule:evenodd;stroke:#0e3855;stroke-width:.0888005px;stroke-linecap:round;stroke-linejoin:round;stroke-miterlimit:1.5;stroke-opacity:1"/>
  <path d="M7.159 16.888c-.071-.102 1.88-.898 3.15-2.15.373-.366.6-.74.61-.858a.296.296 0 0 0-.065-.166c-.034-.042-.073-.102-.057-.119.014-.017.103-.004.147.018.08.04.163.082.222.167.112.16-.024.31-.104.435-.129.198-.493.583-.665.749-1.297 1.242-3.174 2.015-3.238 1.924z" style="clip-rule:evenodd;fill:#216b8b;fill-opacity:1;fill-rule:evenodd;stroke:none;stroke-width:0;stroke-linecap:round;stroke-linejoin:round;stroke-miterlimit:1.5;stroke-dasharray:none;stroke-opacity:1"/>
  <path d="M9.218 4.885c1.43 1.43 1.854 2.681 2.405 3.906.487 1.08.768 2.686.902 3.439.064.356-.095 1.081-.095 1.081s.238-.692.223-1.05c-.032-.725-.128-2.336-.414-3.306-.267-.905-.959-1.953-1.304-2.512-.199-.323-.484-.588-.766-.844-.286-.26-.9-.662-.95-.714Z" style="clip-rule:evenodd;fill:#216b8b;fill-opacity:1;fill-rule:evenodd;stroke-width:.0469844;stroke-linecap:round;stroke-linejoin:round;stroke-miterlimit:1.5"/>
  <path d="M10.49 5.553a7.118 7.118 0 0 1 1.64 2.56c.123.331.577 1.533.618 1.574.025.024-.305-1.598-.56-2.2-.222-.525-.685-1.088-.968-1.411-.197-.225-.43-.348-.73-.523Zm1.59-.923c.116.233 1.412 1.32 1.971 2.1 1.072 1.495 1.028 2.348 1.145 3.274.064.505-.09 1.527-.064 1.527.094 0 .367-1.039.349-1.576-.022-.62-.177-1.476-.476-2.144-.312-.7-.912-1.523-1.4-2.053-.428-.465-.964-.78-1.525-1.127Zm2.989 1.495c.297.446.616.801.763 1.336.135.49.125.554.254.922-.062-.597-.222-1.334-.508-1.78-.076-.114-.51-.502-.51-.478Zm-6.241-.858c.626.625.924 1.465 1.336 2.226.5.923 1.693 3.275 1.662 3.306-.035.035-.777-1.244-1.134-1.884a101.96 101.96 0 0 1-1.4-2.656c-.167-.325-.324-.66-.464-.992Zm3.22 1.176c.227.302.415.654.605.986.11.192.215.432.302.635.113.264.366.732.366.732-.151-.76-.382-1.306-.764-1.844-.057-.08-.509-.47-.509-.509z" style="clip-rule:evenodd;fill:#216b8b;fill-opacity:1;fill-rule:evenodd;stroke-width:.0469844;stroke-linecap:round;stroke-linejoin:round;stroke-miterlimit:1.5"/>
  <path d="M11.858 5.521c.345.461.741 1.07.985 1.463.178.286.355.657.477.89.088.168.18.335.254.509.096.223.254.826.318.826.014 0-.186-.883-.349-1.3a5.594 5.594 0 0 0-.624-1.2c-.281-.397-.91-1.188-1.061-1.188ZM5.72 10.004c.315.63.587 1.305 1.018 1.908.16.225.74 1 .74 1S6.554 11.9 6.412 11.73c-.395-.473-.69-1.111-.69-1.725ZM3.559 8.32c-.115 1.618.35 2.831.759 3.79.357.839 1.625 1.996 1.625 1.996s-.948-.74-1.263-1.099c-.27-.306-.468-.674-.626-1.05-.183-.438-.4-1.033-.475-1.578-.083-.606-.16-1.367-.02-2.06Zm7.376-4.792c-.05.082.36.288.573.668.023.041.104.255.159.255.04 0-.116-.36-.128-.382-.22-.415-.546-.634-.604-.54Zm.445-.063c-.048.079.262.227.36.417.111.219.188.435.213.41.201-.211-.476-.985-.573-.827zm-2.257.223c-.146.117-.294.789-.152.93.045.046.023-.322.063-.474.045-.173.274-.497.09-.456zm1.551-.146c-.136.025.059.232.124.367.069.142.16.481.208.525.072.068.014-.272-.032-.396-.055-.148-.114-.53-.3-.496zm1.406-.077c-.099-.012.228.275.318.382.073.086.151.17.223.254.07.081.182.26.204.249.021-.011-.008-.23-.077-.313-.125-.147-.493-.551-.668-.572ZM9.9 3.076c-.072.016-.02.32.043.305.044-.011.034-.322-.043-.305Zm.876-.141c-.055.008.076.166.114.224.031.046.102.12.116.119.051-.005-.025-.154-.063-.211-.038-.057-.092-.143-.167-.132zm-.413.07c-.046.012.001.1-.02.176-.021.077-.027.126.045.12.04-.003.113-.33-.025-.296zM6.836 5.236c0 .185-.176.748-.185 1.129-.01.394.003.843.13 1.239.379 1.184 1.045 2.521 1.551 3.465.412.768 1.034 1.39 1.327 1.879.194.325.425 1.054.425 1.054s-.369-.565-.573-.833c-.317-.415-.963-1.05-1.327-1.656-.501-.839-1.44-2.405-1.68-3.373-.308-1.234-.143-1.297-.087-1.781.045-.397.37-1.023.419-1.123Z" style="clip-rule:evenodd;fill:#216b8b;fill-opacity:1;fill-rule:evenodd;stroke-width:.0469844;stroke-linecap:round;stroke-linejoin:round;stroke-miterlimit:1.5"/>
  <path d="M4.284 7.29c-.285 1.118.214 2.691.596 3.681.484 1.254.953 1.507 1.513 2.102.54.572 1.848 1.466 1.848 1.466s-2.432-1.315-3.365-2.922c-.43-.738-.716-1.814-.815-2.535-.081-.597-.016-1.338.223-1.792Z" style="clip-rule:evenodd;fill:#216b8b;fill-opacity:1;fill-rule:evenodd;stroke-width:.0469844;stroke-linecap:round;stroke-linejoin:round;stroke-miterlimit:1.5"/>
  <path d="M3.785 10.026c.26.698.88 2.015 1.48 2.784.528.678.87.81 1.262 1.125.345.28 1.094.779 1.086.77-.019-.018-.775-.357-1.12-.602-.41-.291-.966-.688-1.336-1.141-.38-.466-.72-1.165-.948-1.654-.19-.408-.424-1.012-.424-1.282Zm.499 4.254c.2.418.44.786.766 1.06.321.27.702.512 1.065.734a2.43 2.43 0 0 1-.997-.5c-.36-.315-.834-.684-.834-1.294Zm2.922-9.284c0 .179.003 2.014.407 2.904.487 1.075 2.515 3.55 2.515 3.55s-.674-.637-.962-.998c-.415-.521-1.2-1.519-1.53-2.128-.253-.467-.384-1.002-.452-1.529-.072-.554.063-1.799.022-1.799ZM6.827 16.34s.995-.514 1.97-1.253c.887-.672 1.32-1.045 1.32-1.045.097-.087.135-.043.046.039-.13.119-.21.22-.375.368-.212.193-.304.461-.688.751-.63.475-1.047.564-1.309.732-.523.334-.71.396-.913.501-.105.055-.146-.042-.05-.093zm7.084-7.986c-.02-.04-.023-.029-.023-.069m0-.185-.023.024" style="clip-rule:evenodd;fill:#216b8b;fill-opacity:1;fill-rule:evenodd;stroke-width:.0469844;stroke-linecap:round;stroke-linejoin:round;stroke-miterlimit:1.5"/>
</svg>
