<svg width="24" height="24" viewBox="0 0 24 24" fill="none" xmlns="http://www.w3.org/2000/svg">
<path fill-rule="evenodd" clip-rule="evenodd" d="M21.9989 15.6629C22 15.6503 22 15.6379 22 15.6254C22 15.613 22 15.6005 21.9989 15.588C21.9989 15.5798 21.9978 15.5716 21.9968 15.5633C21.9968 15.5591 21.9957 15.5549 21.9957 15.5509C21.9946 15.5445 21.9938 15.5384 21.9938 15.5331C21.9928 15.5259 21.9917 15.5198 21.9906 15.5124V15.5103C21.9656 15.3569 21.8928 15.2118 21.7813 15.1008C21.1437 14.3486 20.3842 13.6788 19.6125 13.0672C17.951 11.75 16.0501 10.6469 13.951 10.2032C12.7387 9.94741 11.5176 9.93604 10.2989 10.1526C9.18962 10.3494 8.12083 10.7599 7.12083 11.2689C5.55526 12.0649 4.12513 13.1627 2.87925 14.3928C2.64912 14.6211 2.41875 14.8533 2.20938 15.1008C1.93021 15.4307 1.93021 15.8202 2.20938 16.149C2.84696 16.9015 3.60615 17.571 4.37817 18.1826C6.04058 19.5001 7.94166 20.6029 10.0395 21.0466C11.252 21.3026 12.4728 21.3141 13.6917 21.0972C14.8 20.9004 15.8688 20.4899 16.8699 19.9809C18.4354 19.1849 19.8656 18.0871 21.1115 16.857C21.3416 16.6287 21.572 16.3965 21.7813 16.149C21.8928 16.038 21.9656 15.894 21.9906 15.7395V15.7374C21.9917 15.7302 21.9928 15.7239 21.9938 15.7167C21.9946 15.7104 21.9957 15.7053 21.9957 15.6989C21.9957 15.6949 21.9968 15.6907 21.9968 15.6865C21.9978 15.6782 21.9978 15.6711 21.9989 15.6629ZM16.6733 15.6752C16.6733 18.2548 14.581 20.346 12 20.346C9.41896 20.346 7.32657 18.2548 7.32657 15.6752C7.32657 13.0956 9.41896 11.0044 12 11.0044C14.581 11.0044 16.6733 13.0956 16.6733 15.6752ZM12.2742 18.1059C13.3334 16.6094 13.2814 14.5684 12.1291 12.3566C12.0776 12.258 11.9215 12.258 11.87 12.3566C11.5233 13.0226 11.2781 13.6723 11.1308 14.297L12.0689 15.1775C12.1291 15.2349 12.134 15.3312 12.0795 15.3939C12.0504 15.4268 12.0102 15.4441 11.9702 15.4441C11.9348 15.4441 11.8995 15.4311 11.8711 15.4046L11.0601 14.643C11.0296 14.8151 11.0046 14.9844 10.9895 15.1515L11.9399 16.0248C12.0011 16.0806 12.0069 16.1769 11.9525 16.2404C11.9235 16.2745 11.8826 16.2925 11.8421 16.2925C11.8075 16.2925 11.7725 16.2795 11.7445 16.2534L10.9682 15.5407C10.9645 15.748 10.974 15.951 10.9954 16.1501L11.9385 17.0044C11.9996 17.0601 12.0059 17.1561 11.9525 17.22C11.9235 17.2544 11.8826 17.2727 11.8413 17.2727C11.8067 17.2727 11.7725 17.2601 11.7445 17.2352L11.0734 16.6273C11.1916 17.1618 11.4065 17.6589 11.7228 18.1059C11.7508 18.1452 11.7946 18.1686 11.8413 18.1686H11.8513V19.0862C11.8513 19.1703 11.9172 19.2391 11.9985 19.2391C12.0799 19.2391 12.1457 19.1703 12.1457 19.0862V18.1686H12.1557C12.2025 18.1686 12.2466 18.1452 12.2742 18.1059Z" fill="black"/>
</svg>
