<svg width="74" height="74" viewBox="0 0 74 74" fill="none" xmlns="http://www.w3.org/2000/svg">
<rect width="74" height="74" fill="white"/>
<g filter="url(#filter0_i_1228_7599)">
<path d="M38.6776 36.9673C39.259 39.6754 38.4598 44.4536 37.9293 47.5761C37.6309 49.3336 39.6366 51.8479 40.2661 52.9342C40.8955 54.0191 41.9232 56.1968 42.4437 56.8651C42.9642 57.5342 43.7245 56.6529 44.7918 56.3424C45.2161 56.2187 45.765 56.73 46.062 56.6713C46.359 56.6126 46.8294 56.3891 47.2983 56.3021C47.9298 56.184 48.5593 56.2074 48.7573 56.2173C48.9554 56.2272 49.3896 55.3601 49.8748 55.0743C50.3366 54.802 50.872 55.2299 51.2483 55.133C51.6245 55.0361 51.3925 54.2631 52.1854 54.075C52.9775 53.8862 53.8856 54.9223 54.6855 54.3261C55.4847 53.7299 54.2527 52.2149 55.0306 50.8478C55.8086 49.4807 56.1474 50.1943 56.4402 49.7219C56.733 49.2494 56.3016 48.8739 56.9027 48.0605C57.5039 47.2472 58.1121 47.3604 58.2635 47.1058C58.4148 46.8511 58.2882 46.4749 58.3781 46.1121C58.5612 45.3744 58.8802 44.5915 58.9467 44.2909C59.0132 43.991 58.7147 42.9415 58.6001 42.0963C58.5138 41.4683 58.8668 40.9088 58.6008 40.7412C56.7889 39.6004 55.8312 38.5537 53.7498 36.8443C56.2973 37.1187 57.6234 37.7029 59.2607 37.2934C60.898 36.8839 63.181 34.1885 63.1867 33.4487C63.1923 32.709 63.2185 31.8277 63.553 30.7676C63.6775 30.3743 63.0601 29.7498 63.1485 29.259C63.256 28.6592 64.2058 28.1062 64.2468 27.6634C64.2737 27.3706 63.7765 27.2469 64.5262 26.2595C65.1762 25.4038 66.8495 24.9144 66.9874 24.5254C67.1246 24.1364 66.1034 23.613 65.6995 22.8853C65.4555 22.4468 65.7363 21.9538 65.6599 21.7423C65.5489 21.4368 65.2596 21.4248 65.2073 21.1016C65.1563 20.7776 65.7419 20.3215 65.7009 20.0343C65.6606 19.7479 65.2391 19.598 65.1988 19.4134C65.0545 18.7521 66.1324 17.9494 65.1054 17.1671C64.5806 16.7675 62.084 17.1502 60.2558 17.6254C58.4276 18.1007 52.9711 19.8724 48.9299 22.2827C44.8894 24.6923 41.9932 25.8599 39.0383 29.1083C39.2936 30.3269 38.7554 33.6348 37.8975 34.7642C37.8975 34.7642 38.5581 36.4107 38.6776 36.9673ZM35.3224 36.9673C34.741 39.6754 35.5402 44.4536 36.0707 47.5761C36.3691 49.3336 34.3634 51.8479 33.7339 52.9342C33.1045 54.0191 32.0768 56.1968 31.5563 56.8651C31.0358 57.5342 30.2755 56.6529 29.2082 56.3424C28.7839 56.2187 28.235 56.73 27.938 56.6713C27.641 56.6126 27.1706 56.3891 26.7017 56.3021C26.0702 56.184 25.4407 56.2074 25.2427 56.2173C25.0446 56.2272 24.6104 55.3601 24.1252 55.0743C23.6634 54.802 23.128 55.2299 22.7517 55.133C22.3755 55.0361 22.6075 54.2631 21.8146 54.075C21.0225 53.8862 20.1144 54.9223 19.3145 54.3261C18.5153 53.7299 19.7473 52.2149 18.9694 50.8478C18.1914 49.4807 17.8526 50.1943 17.5598 49.7219C17.267 49.2494 17.6984 48.8739 17.0973 48.0605C16.4961 47.2472 15.8879 47.3604 15.7365 47.1058C15.5852 46.8511 15.7118 46.4749 15.6219 46.1121C15.4388 45.3744 15.1198 44.5915 15.0533 44.2909C14.9868 43.991 15.2853 42.9415 15.3999 42.0963C15.4862 41.4683 15.1332 40.9088 15.3992 40.7412C17.2111 39.6004 18.1688 38.5537 20.2502 36.8443C17.7027 37.1187 16.3766 37.7029 14.7393 37.2934C13.102 36.8839 10.819 34.1885 10.8133 33.4487C10.8077 32.709 10.7815 31.8277 10.447 30.7676C10.3225 30.3743 10.9399 29.7498 10.8515 29.259C10.744 28.6592 9.7942 28.1062 9.75318 27.6634C9.7263 27.3706 10.2228 27.2469 9.47382 26.2595C8.82385 25.4038 7.1505 24.9144 7.01258 24.5254C6.87538 24.1364 7.89665 23.613 8.29978 22.8853C8.54449 22.4468 8.26371 21.9538 8.34009 21.7423C8.45113 21.4368 8.7404 21.4248 8.79203 21.1016C8.84366 20.7776 8.25805 20.3215 8.29907 20.0343C8.33939 19.7479 8.76091 19.598 8.80122 19.4134C8.9455 18.7521 7.86765 17.9494 8.89458 17.1671C9.41936 16.7675 11.916 17.1502 13.7442 17.6254C15.5724 18.1007 21.0289 19.8724 25.0701 22.2827C29.1106 24.6923 32.0068 25.8599 34.9617 29.1083C34.7064 30.3269 35.2446 33.6348 36.1025 34.7642C36.1025 34.7642 35.4419 36.4107 35.3224 36.9673Z" fill="#2F99C6"/>
<path d="M31.5506 20.7472C31.3675 20.8823 31.4799 21.2126 31.5718 21.3661C31.6638 21.5195 31.7543 21.5528 31.8597 21.6313C32.0705 21.7883 32.2741 21.9283 32.3463 22.0952C32.5868 22.6292 32.8852 23.1526 33.1419 23.5982C33.48 24.164 33.8343 24.7015 34.224 25.1456C34.6215 25.565 35.0218 25.9448 35.4405 26.2503C35.7347 26.4484 36.0381 26.5078 36.3458 26.5601C36.3161 26.6789 36.2864 26.8006 36.28 26.935C36.2164 26.8409 36.1654 26.7808 36.0813 26.7808C35.867 26.7808 35.6831 27.1358 35.6831 27.5764C35.6831 27.6868 35.6831 27.7907 35.705 27.8862C35.007 28.5609 34.5338 29.7555 34.5338 31.1346C34.5338 32.6672 35.101 33.9721 35.9264 34.5825C35.3323 35.7841 34.9313 37.9532 34.9313 40.4399C34.9313 44.2244 36.4448 47.2967 36.9646 47.291C37.4852 47.2833 39.0206 44.2244 39.0206 40.4399C39.0206 37.9405 38.6245 35.7579 38.0255 34.5605C38.8374 33.9424 39.3962 32.6524 39.3962 31.1346C39.3962 29.771 38.9478 28.5871 38.2688 27.9081C38.2914 27.8063 38.3134 27.696 38.3134 27.5764C38.3134 27.1358 38.1295 26.7808 37.9152 26.7808C37.8162 26.7808 37.7405 26.8536 37.6719 26.9795C37.6664 26.8376 37.6443 26.6969 37.6061 26.5601C37.9314 26.4972 38.2285 26.389 38.5114 26.2503C38.928 25.8896 39.3898 25.524 39.7279 25.1456C40.1183 24.7008 40.4938 24.164 40.8326 23.5982C41.124 23.0925 41.363 22.5868 41.6063 22.0952C41.6785 21.9283 41.8821 21.7883 42.0922 21.6313C42.1983 21.5528 42.2556 21.5302 42.402 21.3661C42.5484 21.202 42.5915 20.8844 42.4239 20.7472C42.2563 20.61 42.0208 20.6284 41.8051 20.8356C41.5886 21.0421 41.467 21.6504 41.363 22.0288C41.1261 22.5125 40.863 23.0005 40.6338 23.4433C40.3297 23.9334 39.9761 24.4723 39.5949 24.9242C39.2363 25.3309 38.8664 25.628 38.4902 25.9413C38.1606 26.2051 37.7546 26.302 37.4731 26.2503C37.343 26.0134 37.1711 25.8529 36.9646 25.8529C36.7567 25.8529 36.5813 26.0085 36.4561 26.2503C35.7411 26.3097 34.8917 25.4257 34.357 24.9242C33.9751 24.4716 33.6215 23.9341 33.318 23.4433C33.0535 22.9553 32.8399 22.5118 32.5889 22.0288C32.4969 21.7565 32.4404 21.4474 32.3456 21.1893C32.3021 21.06 32.2347 20.94 32.1468 20.8356C31.8597 20.5414 31.7331 20.6121 31.5506 20.7472Z" fill="#0E3855"/>
</g>
<defs>
<filter id="filter0_i_1228_7599" x="7" y="17" width="60" height="44.1099" filterUnits="userSpaceOnUse" color-interpolation-filters="sRGB">
<feFlood flood-opacity="0" result="BackgroundImageFix"/>
<feBlend mode="normal" in="SourceGraphic" in2="BackgroundImageFix" result="shape"/>
<feColorMatrix in="SourceAlpha" type="matrix" values="0 0 0 0 0 0 0 0 0 0 0 0 0 0 0 0 0 0 127 0" result="hardAlpha"/>
<feOffset dy="4"/>
<feGaussianBlur stdDeviation="7"/>
<feComposite in2="hardAlpha" operator="arithmetic" k2="-1" k3="1"/>
<feColorMatrix type="matrix" values="0 0 0 0 0 0 0 0 0 0 0 0 0 0 0 0 0 0 0.15 0"/>
<feBlend mode="normal" in2="shape" result="effect1_innerShadow_1228_7599"/>
</filter>
</defs>
</svg>
