<svg width="24" height="24" viewBox="0 0 24 24" fill="none" xmlns="http://www.w3.org/2000/svg">
<path fill-rule="evenodd" clip-rule="evenodd" d="M12.0386 0.540894C11.5047 0.540894 11.006 0.807489 10.7095 1.25148L7.72308 5.72915C7.39579 6.22013 7.3657 6.85129 7.64472 7.37099L7.71984 7.49675C7.96093 7.86135 8.3402 8.10961 8.76629 8.18707L8.85498 8.19901L6.42753 11.4364C6.06449 11.9204 6.00609 12.5681 6.27668 13.1092L6.35009 13.2403C6.56081 13.5783 6.88856 13.8224 7.26502 13.9304L7.38598 13.959L4.30814 17.9164C3.93309 18.3966 3.86484 19.0505 4.13334 19.5993C4.40184 20.1481 4.96 20.4956 5.57095 20.4942H11.1641V22.5089L11.1709 22.6187C11.2249 23.0501 11.593 23.3839 12.0391 23.3839C12.5224 23.3839 12.9141 22.9922 12.9141 22.5089V20.4942H18.5083C19.1173 20.4956 19.6754 20.1481 19.9439 19.5993L20.0041 19.4601C20.1989 18.9428 20.1129 18.3565 19.7681 17.9151L16.691 13.958L16.8146 13.9295C17.2381 13.8074 17.5989 13.5138 17.8015 13.1087L17.8622 12.9716C18.0599 12.462 17.984 11.882 17.6531 11.4382L15.224 8.19901L15.3148 8.18636C15.7874 8.09925 16.2019 7.80194 16.4336 7.36911C16.7115 6.84971 16.6811 6.21949 16.3543 5.72932L13.3681 1.25198C13.0712 0.807489 12.5726 0.540894 12.0386 0.540894ZM12.038 2.41201L14.739 6.46201L13.484 6.4628L13.3728 6.46949C12.722 6.54877 12.3741 7.31633 12.784 7.8628L16.068 12.242L14.9289 12.2423L14.8221 12.2484C14.162 12.3254 13.8135 13.1084 14.2381 13.6544L18.196 18.744H5.88098L9.84096 13.6546L9.90167 13.5665C10.2463 12.9982 9.84211 12.2423 9.15034 12.2423L8.00998 12.242L11.2952 7.8628L11.3566 7.76983C11.6837 7.2016 11.2783 6.4628 10.5952 6.4628L9.33698 6.46201L12.038 2.41201Z" fill="black"/>
<mask id="mask0_1038_6774" style="mask-type:luminance" maskUnits="userSpaceOnUse" x="3" y="0" width="18" height="24">
<path fill-rule="evenodd" clip-rule="evenodd" d="M12.0386 0.540894C11.5047 0.540894 11.006 0.807489 10.7095 1.25148L7.72308 5.72915C7.39579 6.22013 7.3657 6.85129 7.64472 7.37099L7.71984 7.49675C7.96093 7.86135 8.3402 8.10961 8.76629 8.18707L8.85498 8.19901L6.42753 11.4364C6.06449 11.9204 6.00609 12.5681 6.27668 13.1092L6.35009 13.2403C6.56081 13.5783 6.88856 13.8224 7.26502 13.9304L7.38598 13.959L4.30814 17.9164C3.93309 18.3966 3.86484 19.0505 4.13334 19.5993C4.40184 20.1481 4.96 20.4956 5.57095 20.4942H11.1641V22.5089L11.1709 22.6187C11.2249 23.0501 11.593 23.3839 12.0391 23.3839C12.5224 23.3839 12.9141 22.9922 12.9141 22.5089V20.4942H18.5083C19.1173 20.4956 19.6754 20.1481 19.9439 19.5993L20.0041 19.4601C20.1989 18.9428 20.1129 18.3565 19.7681 17.9151L16.691 13.958L16.8146 13.9295C17.2381 13.8074 17.5989 13.5138 17.8015 13.1087L17.8622 12.9716C18.0599 12.462 17.984 11.882 17.6531 11.4382L15.224 8.19901L15.3148 8.18636C15.7874 8.09925 16.2019 7.80194 16.4336 7.36911C16.7115 6.84971 16.6811 6.21949 16.3543 5.72932L13.3681 1.25198C13.0712 0.807489 12.5726 0.540894 12.0386 0.540894ZM12.038 2.41201L14.739 6.46201L13.484 6.4628L13.3728 6.46949C12.722 6.54877 12.3741 7.31633 12.784 7.8628L16.068 12.242L14.9289 12.2423L14.8221 12.2484C14.162 12.3254 13.8135 13.1084 14.2381 13.6544L18.196 18.744H5.88098L9.84096 13.6546L9.90167 13.5665C10.2463 12.9982 9.84211 12.2423 9.15034 12.2423L8.00998 12.242L11.2952 7.8628L11.3566 7.76983C11.6837 7.2016 11.2783 6.4628 10.5952 6.4628L9.33698 6.46201L12.038 2.41201Z" fill="white"/>
</mask>
<g mask="url(#mask0_1038_6774)">
<rect width="24" height="24" fill="black"/>
</g>
</svg>
