<svg width="48" height="48" viewBox="0 0 48 48" fill="none" xmlns="http://www.w3.org/2000/svg">
<path d="M24 37V47" stroke="black" stroke-width="2" stroke-linecap="round" stroke-linejoin="round"/>
<path d="M24 1C21.8783 1 19.8434 1.84285 18.3431 3.34315C16.8429 4.84344 16 6.87827 16 9V23C16 25.1217 16.8429 27.1566 18.3431 28.6569C19.8434 30.1571 21.8783 31 24 31C26.1217 31 28.1566 30.1571 29.6569 28.6569C31.1571 27.1566 32 25.1217 32 23V9C32 6.87827 31.1571 4.84344 29.6569 3.34315C28.1566 1.84285 26.1217 1 24 1V1Z" stroke="black" stroke-width="2" stroke-linecap="round" stroke-linejoin="round"/>
<path d="M38 17V23C38 26.713 36.525 30.274 33.8995 32.8995C31.274 35.525 27.713 37 24 37C20.287 37 16.726 35.525 14.1005 32.8995C11.475 30.274 10 26.713 10 23V17" stroke="black" stroke-width="2" stroke-linecap="round" stroke-linejoin="round"/>
</svg>
