<svg width="74" height="74" viewBox="0 0 74 74" fill="none" xmlns="http://www.w3.org/2000/svg">
<rect width="74" height="74" fill="white"/>
<g filter="url(#filter0_i_1228_7577)">
<path d="M55.7662 45.1828C54.9813 45.6687 54.2169 46.2843 52.3061 46.2843C50.3952 46.2843 49.7174 45.7223 48.846 45.1821C47.9745 44.6419 47.2974 44.0805 45.3865 44.0805C43.4756 44.0805 42.6908 44.6809 41.9264 45.1821C41.1621 45.684 40.3772 46.2843 38.4663 46.2843C36.5555 46.2843 36.0463 45.7521 35.0069 45.1821C33.9668 44.6128 33.4577 44.0805 31.5468 44.0805C29.6359 44.0805 28.8716 44.6961 28.0867 45.1821C27.3019 45.6687 26.5375 46.2843 24.6266 46.2843C22.7158 46.2843 22.0387 45.7223 21.1672 45.1821C20.2957 44.6419 19.618 44.0805 17.7071 44.0805C15.7962 44.0805 15.012 44.6809 14.247 45.1821C13.4827 45.684 12.6985 46.2843 10.7876 46.2843C8.87671 46.2843 8.36758 45.7521 7.06897 44.8508C6.7225 43.2309 7.75663 42.3019 8.49519 42.3627C10.6805 42.4857 11.107 41.3861 12.1999 40.8069C12.6919 40.4452 12.916 40.3004 13.3213 40.0042V39.9751C13.2922 39.6709 13.3286 39.2874 13.6321 38.9767C14.1029 38.5059 14.7905 38.5932 15.094 38.658C16.7292 37.479 17.5907 36.9507 18.5746 36.5381C18.6328 36.234 18.8497 35.6554 19.4719 35.467C20.0002 35.3083 20.4339 35.5543 20.7163 35.7566C20.9047 35.6918 20.9986 35.6627 21.2082 35.5827C21.5772 35.424 21.9395 35.2647 22.3012 35.1199C22.3448 34.8375 22.5326 34.1717 23.1984 33.9694C23.82 33.7882 24.3417 34.1505 24.587 34.3601C25.9405 33.9912 27.3297 33.7379 28.8273 33.5786C29.0666 33.2533 29.5659 32.7322 30.557 32.6741C30.9183 32.6498 31.2808 32.6974 31.6236 32.8142C31.9663 32.931 32.2825 33.1146 32.5538 33.3544C33.2415 33.3399 33.9358 33.3544 34.6743 33.3544L34.1817 34.2081C35.5134 32.768 36.0926 32.5947 37.5684 32.8407C38.3156 32.6125 39.0632 32.3857 39.8112 32.1603C39.9633 31.7913 40.3468 31.1401 41.295 30.8438C42.3728 30.5106 43.1616 30.8868 43.4585 31.068C43.5814 30.8293 43.791 30.6051 44.1164 30.4815C44.6453 30.2864 45.1148 30.5106 45.4044 30.699C45.6504 30.6408 45.8963 30.5979 46.1357 30.547C46.3235 30.2937 46.6203 30.0259 47.0832 30.0114C47.394 30.0048 47.6624 30.1053 47.8647 30.2501C48.7256 30.2144 49.1819 29.8884 49.5435 29.5194C49.5363 29.1941 49.6302 28.7743 50.0064 28.4701C50.3681 28.1805 50.7807 28.166 51.0994 28.2241C52.0257 27.6158 53.3243 26.9725 54.5833 27.0009C56.4915 27.0445 57.0674 27.6238 57.6294 28.6804C58.6278 29.8236 59.4702 30.1707 60.3569 30.2574C60.5453 29.975 60.8839 29.5988 61.4545 29.6206C62.084 29.6497 62.4509 30.1416 62.6235 30.424C63.5876 30.5615 63.9393 30.7209 64.6944 31.3212C66.7633 33.08 68.0904 36.4152 65.7907 37.971C61.1206 40.5682 53.1266 40.0042 50.417 42.4784C52.6796 41.8271 54.0219 41.4073 58.0916 40.7494C61.4162 40.2191 63.5895 39.6537 64.986 39.0633C66.2231 38.287 65.9262 39.6068 63.9876 40.8175C61.1675 42.3561 59.3056 43.1667 58.3845 43.7102C57.4641 44.2538 56.551 44.6961 55.7662 45.1821V45.1828Z" fill="#2F99C6" stroke="#2F99C6" stroke-width="0.148" stroke-linecap="round" stroke-linejoin="round"/>
<path d="M56.2865 34.3218C56.6191 35.0524 57.0205 36.2459 55.9202 37.7078C55.3199 38.4894 54.5006 38.9602 52.7544 38.974C50.7212 39.0322 49.3829 37.9399 49.3174 36.6592C49.2454 35.7255 49.5131 33.164 51.7057 32.5663C53.6807 32.0955 55.6055 32.8837 56.2859 34.3238L56.2865 34.3218ZM63.3773 32.5656C64.1079 32.6093 64.6673 32.9491 64.4723 33.1515C64.0861 33.449 62.8153 33.5211 62.572 33.0794C62.449 32.6377 62.9191 32.5947 63.3753 32.5656H63.3773Z" fill="white"/>
<path d="M49.9449 37.0308C49.7657 36.7127 50.3502 36.5216 51.0689 35.9497C51.5053 35.6039 51.8848 35.0075 52.3662 34.7992C53.1173 34.4739 53.4731 34.8647 54.2678 34.7463C55.0996 34.6227 55.6279 34.1671 55.8944 34.5651C56.1595 34.9632 55.4759 35.2422 54.6566 35.756C54.0781 36.1176 54.1501 36.8205 53.5312 37.046C52.9124 37.2708 52.5236 36.9448 52.0389 37.1114C50.8382 37.3098 50.1254 37.3488 49.9449 37.0321V37.0308Z" fill="#2F99C6" stroke="#2F99C6" stroke-width="0.547"/>
<path d="M31.7643 36.4383C32.981 36.5348 30.9081 34.9942 29.3384 35.2356C27.768 35.4815 27.8374 36.7246 27.8374 36.7246C29.7457 34.6643 30.5484 36.3418 31.765 36.4383H31.7643ZM30.9828 38.1951C31.5217 38.0245 30.7005 37.1425 29.8488 37.4103C28.9965 37.6853 28.8663 38.1349 28.8663 38.1349C30.754 37.1954 30.4446 38.3664 30.9828 38.1945V38.1951ZM40.0492 34.7145C40.5709 34.2629 39.9904 33.1409 38.4703 33.6037C37.4031 33.886 36.7359 34.417 36.3948 35.4385C39.5633 33.0073 39.5289 35.1668 40.0492 34.7145ZM45.5677 32.8043C46.3142 32.7157 44.9329 32.0082 44.0119 32.2905C43.0915 32.5656 43.2978 33.289 43.2978 33.289C44.5659 32.0492 44.8212 32.8936 45.5677 32.8043ZM49.166 32.8109C50.0282 32.4836 49.8153 31.8323 48.3626 31.8872C46.9099 31.9421 46.1515 32.8089 46.0616 33.5039C47.6677 31.7338 48.3037 33.1375 49.166 32.8103V32.8109ZM60.7139 31.5381C61.1087 31.753 60.9539 31.0058 60.0732 30.6137C59.572 30.3909 58.6199 30.5721 58.3633 31.1586C59.9496 30.1284 60.3192 31.3232 60.7139 31.5381ZM57.3206 31.4224C57.8774 31.2835 57.23 30.5172 56.51 30.3763C55.7899 30.2355 55.0355 30.6408 54.9191 31.3774C56.3387 29.9234 56.7639 31.5592 57.3206 31.4224C57.3206 31.4224 57.876 31.2855 57.3206 31.4224ZM47.8925 38.1502C48.7719 38.0291 46.9298 36.9501 46.0834 37.399C45.5181 37.6985 45.4758 38.1964 45.4758 38.1964C46.7043 37.2377 47.0131 38.2712 47.8925 38.1502ZM42.7357 33.3696C42.7357 33.3696 42.3496 32.5511 41.2791 32.8334C40.2007 33.123 40.4248 34.2371 40.4248 34.2371C41.6348 32.7408 41.7869 33.8034 42.7357 33.3703V33.3696Z" fill="white"/>
<path d="M57.3206 31.4224C57.8774 31.2835 57.23 30.5172 56.51 30.3763C55.7899 30.2355 55.0355 30.6408 54.9191 31.3774C56.3387 29.9234 56.7639 31.5592 57.3206 31.4224ZM57.3206 31.4224C57.876 31.2855 57.3206 31.4224 57.3206 31.4224ZM31.7643 36.4383C32.981 36.5348 30.9081 34.9942 29.3384 35.2356C27.768 35.4815 27.8374 36.7246 27.8374 36.7246C29.7457 34.6643 30.5484 36.3418 31.765 36.4383H31.7643ZM30.9828 38.1951C31.5217 38.0245 30.7005 37.1425 29.8488 37.4103C28.9965 37.6853 28.8663 38.1349 28.8663 38.1349C30.754 37.1954 30.4446 38.3664 30.9828 38.1945V38.1951ZM40.0492 34.7145C40.5709 34.2629 39.9904 33.1409 38.4703 33.6037C37.4031 33.886 36.7359 34.417 36.3948 35.4385C39.5633 33.0073 39.5289 35.1668 40.0492 34.7145ZM45.5677 32.8043C46.3142 32.7157 44.9329 32.0082 44.0119 32.2905C43.0915 32.5656 43.2978 33.289 43.2978 33.289C44.5659 32.0492 44.8212 32.8936 45.5677 32.8043ZM49.166 32.8109C50.0282 32.4836 49.8153 31.8323 48.3626 31.8872C46.9099 31.9421 46.1515 32.8089 46.0616 33.5039C47.6677 31.7338 48.3037 33.1375 49.166 32.8103V32.8109ZM60.7139 31.5381C61.1087 31.753 60.9539 31.0058 60.0732 30.6137C59.572 30.3909 58.6199 30.5721 58.3633 31.1586C59.9496 30.1284 60.3192 31.3232 60.7139 31.5381V31.5381ZM47.8925 38.1502C48.7719 38.0291 46.9298 36.9501 46.0834 37.399C45.5181 37.6985 45.4758 38.1964 45.4758 38.1964C46.7043 37.2377 47.0131 38.2712 47.8925 38.1502ZM42.7357 33.3696C42.7357 33.3696 42.3496 32.5511 41.2791 32.8334C40.2007 33.123 40.4248 34.2371 40.4248 34.2371C41.6348 32.7408 41.7869 33.8034 42.7357 33.3703V33.3696Z" stroke="white" stroke-width="0.547" stroke-linecap="round"/>
<path d="M44.7207 33.853C45.5386 33.9185 43.8598 32.969 42.7787 33.4113C42.1274 33.7644 42.0064 34.6385 42.0064 34.6385C43.3685 33.2434 43.9028 33.7875 44.7207 33.853ZM28.0828 35.8617C28.4246 35.7963 27.7561 35.3235 26.7947 35.3189C25.8327 35.3162 25.6244 36.2902 25.6244 36.2902C26.24 34.9889 27.7416 35.9265 28.0828 35.8617ZM26.0482 37.2503C26.6645 37.0235 25.0366 36.1361 24.2081 36.6532C23.3803 37.1696 23.3036 37.5326 23.3036 37.5326C24.8858 36.2948 25.4326 37.4784 26.0482 37.2509V37.2503ZM21.3074 38.2738C22.1868 38.2031 20.8624 37.161 19.7291 37.1564C18.5951 37.1511 18.2433 38.0933 18.2433 38.0933C20.2997 36.8059 20.426 38.3446 21.3067 38.2738H21.3074ZM46.4497 37.2575C47.5169 37.0407 45.3059 35.6045 43.8876 36.4628C42.4838 37.2053 42.7662 38.3922 42.7662 38.3922C44.962 35.7222 45.3819 37.4744 46.4491 37.2575H46.4497Z" fill="white" stroke="white" stroke-width="0.547" stroke-linecap="round"/>
<path d="M54.2388 31.7259C54.2388 31.7259 51.9365 30.5754 49.8814 32.3031C47.8264 34.0302 48.0393 36.0455 48.2502 37.319" stroke="white" stroke-width="0.547" stroke-linecap="round"/>
<path d="M18.5085 39.7503C19.0553 39.5434 17.9081 38.9397 17.0565 39.2075C16.2042 39.4772 16.2868 40.1993 16.2868 40.1993C17.3633 38.7856 17.9623 39.9566 18.5085 39.7496V39.7503Z" fill="white" stroke="white" stroke-width="0.547" stroke-linecap="round"/>
<path d="M52.0389 39.712C52.6096 40.2396 57.0753 39.8528 57.3094 36.6982" stroke="white" stroke-width="0.547" stroke-linecap="round"/>
</g>
<defs>
<filter id="filter0_i_1228_7577" x="6.92639" y="26.926" width="60.1475" height="23.4323" filterUnits="userSpaceOnUse" color-interpolation-filters="sRGB">
<feFlood flood-opacity="0" result="BackgroundImageFix"/>
<feBlend mode="normal" in="SourceGraphic" in2="BackgroundImageFix" result="shape"/>
<feColorMatrix in="SourceAlpha" type="matrix" values="0 0 0 0 0 0 0 0 0 0 0 0 0 0 0 0 0 0 127 0" result="hardAlpha"/>
<feOffset dy="4"/>
<feGaussianBlur stdDeviation="7"/>
<feComposite in2="hardAlpha" operator="arithmetic" k2="-1" k3="1"/>
<feColorMatrix type="matrix" values="0 0 0 0 0 0 0 0 0 0 0 0 0 0 0 0 0 0 0.15 0"/>
<feBlend mode="normal" in2="shape" result="effect1_innerShadow_1228_7577"/>
</filter>
</defs>
</svg>
