<svg width="28" height="28" viewBox="0 0 28 28" fill="none" xmlns="http://www.w3.org/2000/svg">
<g clip-path="url(#clip0_1038_5431)">
<path d="M9.33333 3.5L9.33333 16.9167" stroke="black" stroke-width="1.15" stroke-linecap="round"/>
<path d="M14.5833 24.5L14.5833 26.8333" stroke="black" stroke-width="1.15" stroke-linecap="round" stroke-linejoin="round"/>
<path d="M16.3333 24.5L16.3333 26.8333" stroke="black" stroke-width="1.15" stroke-linecap="round" stroke-linejoin="round"/>
<path d="M11.0833 6.41669L9.33333 8.16669" stroke="black" stroke-width="1.15" stroke-linecap="round"/>
<path d="M5.83333 8.16669L9.33333 9.91669" stroke="black" stroke-width="1.15" stroke-linecap="round"/>
<circle cx="20.7083" cy="12.5417" r="0.875" fill="black"/>
<path d="M12.5937 3.15627L12.0619 3.37484C12.1203 3.51692 12.2331 3.62972 12.3752 3.68811L12.5937 3.15627ZM13.3895 8.62221L13.0282 8.1749C12.8725 8.30063 12.7934 8.49825 12.8193 8.69666L13.3895 8.62221ZM7.60413 10.916L8.07055 10.5797C7.97704 10.45 7.83375 10.3651 7.67508 10.3454C7.51642 10.3257 7.3567 10.3729 7.23428 10.4757L7.60413 10.916ZM6.59282 5.42618L6.40451 5.96947C6.61262 6.04161 6.84366 5.98852 6.99941 5.83277C7.15516 5.67702 7.20825 5.44598 7.13611 5.23787L6.59282 5.42618ZM15.1583 6.12502C15.1583 4.5434 14.188 3.18978 12.8123 2.62443L12.3752 3.68811C13.3345 4.08237 14.0083 5.02569 14.0083 6.12502H15.1583ZM13.7508 9.06952C14.6083 8.3769 15.1583 7.31499 15.1583 6.12502H14.0083C14.0083 6.95286 13.627 7.69123 13.0282 8.1749L13.7508 9.06952ZM13.9917 9.04169C13.9917 8.87454 13.9808 8.70966 13.9596 8.54775L12.8193 8.69666C12.834 8.80933 12.8417 8.92447 12.8417 9.04169H13.9917ZM10.2083 12.825C12.2978 12.825 13.9917 11.1312 13.9917 9.04169H12.8417C12.8417 10.496 11.6627 11.675 10.2083 11.675V12.825ZM7.13772 11.2523C7.82374 12.2038 8.94349 12.825 10.2083 12.825V11.675C9.3287 11.675 8.5497 11.2443 8.07055 10.5797L7.13772 11.2523ZM5.54166 12.2417C6.46728 12.2417 7.31659 11.9085 7.97399 11.3563L7.23428 10.4757C6.77632 10.8605 6.18674 11.0917 5.54166 11.0917V12.2417ZM1.75833 8.45835C1.75833 10.5478 3.45218 12.2417 5.54166 12.2417V11.0917C4.08731 11.0917 2.90833 9.9127 2.90833 8.45835H1.75833ZM5.54166 4.67502C3.45218 4.67502 1.75833 6.36888 1.75833 8.45835H2.90833C2.90833 7.004 4.08731 5.82502 5.54166 5.82502V4.67502ZM6.78114 4.88289C6.39207 4.74803 5.97478 4.67502 5.54166 4.67502V5.82502C5.84486 5.82502 6.13493 5.87603 6.40451 5.96947L6.78114 4.88289ZM7.13611 5.23787C7.04267 4.96829 6.99166 4.67822 6.99166 4.37502H5.84166C5.84166 4.80814 5.91468 5.22543 6.04953 5.61449L7.13611 5.23787ZM6.99166 4.37502C6.99166 2.92067 8.17065 1.74169 9.625 1.74169V0.591687C7.53552 0.591687 5.84166 2.28554 5.84166 4.37502H6.99166ZM9.625 1.74169C10.7243 1.74169 11.6676 2.41549 12.0619 3.37484L13.1256 2.93771C12.5602 1.56205 11.2066 0.591687 9.625 0.591687V1.74169Z" fill="black"/>
<path d="M7.58331 22.75C7.58331 22.75 11.6666 24.2083 15.75 15.1667C19.8333 6.12499 25.375 10.7917 25.375 10.7917" stroke="black" stroke-width="1.15" stroke-linecap="round" stroke-linejoin="round"/>
<path d="M7.58333 22.75C7.58333 22.75 20.125 27.4167 21.875 18.9584C23.625 10.5 24.5 10.5001 25.375 10.7917" stroke="black" stroke-width="1.15" stroke-linecap="round" stroke-linejoin="round"/>
<path d="M16.625 23.625C16.625 23.625 15.1666 22.1666 17.5 18.3749C19.8333 14.5833 22.4583 15.75 22.4583 15.75" stroke="black" stroke-width="1.15" stroke-linecap="round" stroke-linejoin="round"/>
</g>
<defs>
<clipPath id="clip0_1038_5431">
<rect width="28" height="28" fill="white"/>
</clipPath>
</defs>
</svg>
