<svg width="74" height="74" viewBox="0 0 74 74" fill="none" xmlns="http://www.w3.org/2000/svg">
<rect width="74" height="74" fill="white"/>
<g filter="url(#filter0_i_1228_7662)">
<path d="M61.3141 38.5993C61.3141 40.4267 60.5882 42.1792 59.2961 43.4713C58.0039 44.7634 56.2514 45.4893 54.4241 45.4893C52.5967 45.4893 50.8442 44.7634 49.5521 43.4713C48.26 42.1792 47.5341 40.4267 47.5341 38.5993C47.5341 36.772 48.26 35.0195 49.5521 33.7273C50.8442 32.4352 52.5967 31.7093 54.4241 31.7093C56.2514 31.7093 58.0039 32.4352 59.2961 33.7273C60.5882 35.0195 61.3141 36.772 61.3141 38.5993Z" fill="#216B8B"/>
<path d="M57.6379 13C46.3079 14.2115 39.9112 16.8085 36.1393 20.373C34.8228 21.6106 33.7383 23.0737 32.937 24.6931C19.8544 32.0327 20.0292 26.2366 31.7199 25.6607C32.0003 25.6607 32.2522 25.6615 32.4905 25.6853C32.133 26.5338 31.8613 27.3925 31.6206 28.2672C24.8577 27.9097 22.1011 33.5302 20.4495 38.2968L21.4425 38.6201C23.1132 33.164 26.1312 29.1975 31.3728 29.2856C31.1463 30.2485 30.9382 29.6336 30.7769 30.6012C27.0773 31.6618 24.8394 34.3493 24.0204 35.8642C23.187 37.4046 23.0019 38.941 22.8645 40.5561L23.9068 40.6308C24.0506 38.9418 24.1483 37.6342 24.8895 36.4354C25.6307 35.2359 27.5691 32.5483 31.372 31.4949C31.8971 31.3321 32.0933 32.9122 32.5636 32.9845C32.759 31.7801 32.9823 30.6147 33.2595 29.4842C35.0255 30.6775 36.1075 31.5188 36.7597 32.3394C37.439 33.1926 37.7234 34.045 37.9514 35.4178L38.969 35.243C38.7283 33.7948 38.3835 32.7048 37.5788 31.6935C36.774 30.6822 35.5562 29.7567 33.6321 28.4666L33.4335 28.7645C33.6162 28.0988 33.8283 27.4378 34.0786 26.8023C35.5482 27.4219 37.1728 28.0853 38.6465 29.211C40.3251 30.4932 41.8051 32.372 42.594 35.641L43.587 35.4178C42.7497 31.9462 41.106 29.7964 39.2669 28.3919C37.6677 27.1701 35.947 26.4885 34.5004 25.8847C35.1939 24.4103 36.1131 23.0312 37.4556 21.7633C38.6608 20.6241 40.2298 19.5572 42.246 18.6102C45.1711 21.034 47.1905 23.5022 48.5521 29.3349C47.1619 30.4646 46.3984 31.5116 46.2181 32.6373C46.0338 33.7892 46.4858 34.9054 47.2111 36.1375L48.1049 35.6164C47.4248 34.4621 47.1094 33.6017 47.2366 32.8105C47.3454 32.1273 47.8292 31.3885 48.8254 30.5019L50.3642 30.1794C51.4327 30.8268 52.6648 31.514 53.6412 32.4133C54.859 33.535 55.6471 34.895 55.2801 37.0805L56.2969 37.2553C56.7211 34.737 55.7122 32.9114 54.3363 31.6443C53.0986 30.5035 51.6098 29.7321 50.5382 29.0624C49.2043 23.3235 47.0276 20.2523 44.2821 17.7657C47.6322 16.509 52.0174 15.5096 57.8365 14.8868L57.6379 13Z" fill="#0E3855"/>
<path d="M24.4009 51.3627C24.4009 53.0801 23.7186 54.7271 22.5043 55.9415C21.2899 57.1558 19.6429 57.838 17.9255 57.838C16.2082 57.838 14.5611 57.1558 13.3468 55.9415C12.1324 54.7271 11.4502 53.0801 11.4502 51.3627C11.4502 49.6454 12.1324 47.9983 13.3468 46.784C14.5611 45.5696 16.2082 44.8874 17.9255 44.8874C19.6429 44.8874 21.2899 45.5696 22.5043 46.784C23.7186 47.9983 24.4009 49.6454 24.4009 51.3627Z" fill="#2A8AB2"/>
<path d="M31.1376 47.1498C31.1376 48.9405 30.4263 50.6578 29.1601 51.924C27.8938 53.1902 26.1765 53.9016 24.3858 53.9016C22.5951 53.9016 20.8778 53.1902 19.6116 51.924C18.3454 50.6578 17.634 48.9405 17.634 47.1498C17.634 46.2631 17.8087 45.3852 18.148 44.566C18.4873 43.7468 18.9846 43.0025 19.6116 42.3756C20.2385 41.7486 20.9829 41.2513 21.802 40.912C22.6212 40.5726 23.4992 40.398 24.3858 40.398C25.2725 40.398 26.1505 40.5726 26.9696 40.912C27.7888 41.2513 28.5331 41.7486 29.1601 42.3756C29.787 43.0025 30.2843 43.7468 30.6237 44.566C30.963 45.3852 31.1376 46.2631 31.1376 47.1498ZM57.7666 48.1849C57.7666 49.9023 57.0844 51.5493 55.87 52.7637C54.6557 53.978 53.0086 54.6603 51.2913 54.6603C49.5739 54.6603 47.9269 53.978 46.7125 52.7637C45.4982 51.5493 44.8159 49.9023 44.8159 48.1849C44.8159 46.4676 45.4982 44.8205 46.7125 43.6062C47.9269 42.3918 49.5739 41.7096 51.2913 41.7096C53.0086 41.7096 54.6557 42.3918 55.87 43.6062C57.0844 44.8205 57.7666 46.4676 57.7666 48.1849Z" fill="#216B8B"/>
<path d="M51.5173 42.1299C51.5173 43.9572 50.7914 45.7097 49.4993 47.0019C48.2072 48.294 46.4547 49.0199 44.6273 49.0199C42.8 49.0199 41.0475 48.294 39.7553 47.0019C38.4632 45.7097 37.7373 43.9572 37.7373 42.1299C37.7373 40.3025 38.4632 38.55 39.7553 37.2579C41.0475 35.9658 42.8 35.2399 44.6273 35.2399C46.4547 35.2399 48.2072 35.9658 49.4993 37.2579C50.7914 38.55 51.5173 40.3025 51.5173 42.1299Z" fill="#2A8AB2"/>
<path d="M67 44.6298C67 46.787 66.1431 48.8559 64.6177 50.3812C63.0924 51.9066 61.0235 52.7635 58.8664 52.7635C56.7092 52.7635 54.6403 51.9066 53.115 50.3812C51.5896 48.8559 50.7327 46.787 50.7327 44.6298C50.7327 42.4726 51.5896 40.4038 53.115 38.8785C54.6403 37.3531 56.7092 36.4962 58.8664 36.4962C61.0235 36.4962 63.0924 37.3531 64.6177 38.8785C66.1431 40.4038 67 42.4726 67 44.6298Z" fill="#37ACDD"/>
<path d="M34.3885 26.3105C34.3885 28.4676 33.5316 30.5363 32.0063 32.0616C30.481 33.5869 28.4123 34.4438 26.2552 34.4438C24.0981 34.4438 22.0294 33.5869 20.5041 32.0616C18.9788 30.5363 18.1219 28.4676 18.1219 26.3105C18.1219 24.1534 18.9788 22.0847 20.5041 20.5594C22.0294 19.0341 24.0981 18.1772 26.2552 18.1772C28.4123 18.1772 30.481 19.0341 32.0063 20.5594C33.5316 22.0847 34.3885 24.1534 34.3885 26.3105ZM55.3461 25.9483C56.2536 27.5261 56.4999 29.3989 56.0311 31.1577C55.5624 32.9165 54.4167 34.4184 52.8444 35.3353C51.272 36.2523 49.4007 36.5098 47.6391 36.0516C45.8775 35.5934 44.3688 34.4568 43.4425 32.8899C42.9802 32.1081 42.6771 31.2425 42.5506 30.3431C42.4241 29.4437 42.4767 28.5281 42.7053 27.6491C42.934 26.77 43.3341 25.9449 43.8829 25.221C44.4316 24.4972 45.118 23.8891 45.9026 23.4315C46.6872 22.9739 47.5546 22.676 48.4547 22.5549C49.3549 22.4338 50.2701 22.4919 51.1478 22.7258C52.0254 22.9597 52.8482 23.3648 53.5687 23.9178C54.2892 24.4709 54.8933 25.1609 55.3461 25.9483ZM23.2666 43.7878C23.2666 45.9449 22.4097 48.0136 20.8844 49.5389C19.3591 51.0642 17.2904 51.9211 15.1333 51.9211C12.9762 51.9211 10.9075 51.0642 9.38218 49.5389C7.8569 48.0136 7 45.9449 7 43.7878C7 41.6307 7.8569 39.562 9.38218 38.0367C10.9075 36.5114 12.9762 35.6545 15.1333 35.6545C17.2904 35.6545 19.3591 36.5114 20.8844 38.0367C22.4097 39.562 23.2666 41.6307 23.2666 43.7878Z" fill="#37ACDD"/>
<path d="M44.5161 45.6873C44.2873 46.2712 44.1959 46.5778 43.3578 46.8217C43.8329 46.8114 44.4692 47.1506 44.5891 47.8171C44.8299 47.0259 44.9196 46.8582 45.7673 46.6866C44.8489 46.4817 44.6869 46.2132 44.5161 45.6873Z" fill="#0E3855" stroke="#0E3855" stroke-width="0.831209" stroke-linecap="round" stroke-linejoin="round"/>
<path d="M46.3364 51.9322C46.3364 54.0893 45.4795 56.158 43.9542 57.6833C42.4289 59.2086 40.3602 60.0655 38.2031 60.0655C36.046 60.0655 33.9773 59.2086 32.452 57.6833C30.9267 56.158 30.0698 54.0893 30.0698 51.9322C30.0698 50.8641 30.2802 49.8065 30.6889 48.8197C31.0977 47.8329 31.6968 46.9363 32.452 46.1811C33.2073 45.4258 34.1039 44.8267 35.0906 44.418C36.0774 44.0093 37.135 43.7989 38.2031 43.7989C39.2712 43.7989 40.3288 44.0093 41.3156 44.418C42.3024 44.8267 43.199 45.4258 43.9542 46.1811C44.7095 46.9363 45.3086 47.8329 45.7173 48.8197C46.126 49.8065 46.3364 50.8641 46.3364 51.9322Z" fill="#2A8AB2"/>
<path d="M40.8407 40.9786C40.8407 43.1358 39.9838 45.2046 38.4584 46.73C36.9331 48.2553 34.8642 49.1123 32.707 49.1123C30.5499 49.1123 28.481 48.2553 26.9557 46.73C25.4303 45.2046 24.5734 43.1358 24.5734 40.9786C24.5734 38.8214 25.4303 36.7526 26.9557 35.2272C28.481 33.7018 30.5499 32.8449 32.707 32.8449C34.8642 32.8449 36.9331 33.7018 38.4584 35.2272C39.9838 36.7526 40.8407 38.8214 40.8407 40.9786Z" fill="#37ACDD"/>
<path d="M38.5152 56.5239C38.0068 57.1936 37.778 57.5551 36.5784 57.567C37.2139 57.7243 37.9416 58.3908 37.8693 59.2917C38.4651 58.3598 38.6431 58.1763 39.8308 58.2621C38.6804 57.6663 38.5597 57.2635 38.5152 56.5239ZM61.2634 48.3731C61.4676 49.189 61.6066 49.5942 60.8646 50.5364C61.385 50.1399 62.3605 49.989 63.0183 50.6094C62.6648 49.5608 62.633 49.3082 63.4425 48.4351C62.2581 48.9594 61.868 48.8013 61.2634 48.3739V48.3731ZM52.957 51.3475C52.7282 51.9314 52.6368 52.238 51.7987 52.4819C52.2738 52.4716 52.9101 52.8108 53.0301 53.4773C53.2708 52.6861 53.3605 52.5184 54.2082 52.3468C53.2898 52.1419 53.1278 51.8734 52.957 51.3475ZM12.8792 48.0196C12.1817 48.4891 11.8489 48.7584 10.7104 48.3827C11.2602 48.7362 11.7353 49.6013 11.3762 50.4323C12.2413 49.7411 12.4677 49.6252 13.5648 50.0883C12.6671 49.1541 12.683 48.733 12.8792 48.0196ZM32.6738 42.5763C32.1646 43.2459 31.9358 43.6074 30.737 43.6193C31.3718 43.7766 32.1002 44.4431 32.0279 45.3448C32.6238 44.4122 32.8017 44.2294 33.9886 44.3144C32.8383 43.7186 32.7175 43.3159 32.673 42.5763H32.6738ZM23.4228 50.4172C22.8699 50.843 22.6109 51.0821 21.5654 50.8684C22.0921 51.1091 22.6156 51.7613 22.4035 52.4493C23.0764 51.8344 23.2615 51.7248 24.2808 52.0116C23.3783 51.3355 23.3394 50.9995 23.4228 50.4172ZM24.0011 30.5424C23.3036 31.0119 22.9708 31.2812 21.8323 30.9054C22.3821 31.2589 22.8572 32.1241 22.4981 32.955C23.3632 32.2639 23.5896 32.1479 24.6867 32.611C23.789 31.6768 23.8049 31.2557 24.0011 30.5424ZM49.7992 30.8593C49.8953 31.4798 49.9707 31.7904 49.3702 32.4228C49.7753 32.1749 50.4951 32.1479 50.9352 32.6627C50.7445 31.8579 50.7366 31.6681 51.3832 31.0937C50.4855 31.3781 50.2122 31.2287 49.7992 30.8593Z" fill="#0E3855" stroke="#0E3855" stroke-width="0.831209" stroke-linecap="round" stroke-linejoin="round"/>
</g>
<defs>
<filter id="filter0_i_1228_7662" x="7" y="13" width="60" height="51.0654" filterUnits="userSpaceOnUse" color-interpolation-filters="sRGB">
<feFlood flood-opacity="0" result="BackgroundImageFix"/>
<feBlend mode="normal" in="SourceGraphic" in2="BackgroundImageFix" result="shape"/>
<feColorMatrix in="SourceAlpha" type="matrix" values="0 0 0 0 0 0 0 0 0 0 0 0 0 0 0 0 0 0 127 0" result="hardAlpha"/>
<feOffset dy="4"/>
<feGaussianBlur stdDeviation="7"/>
<feComposite in2="hardAlpha" operator="arithmetic" k2="-1" k3="1"/>
<feColorMatrix type="matrix" values="0 0 0 0 0 0 0 0 0 0 0 0 0 0 0 0 0 0 0.15 0"/>
<feBlend mode="normal" in2="shape" result="effect1_innerShadow_1228_7662"/>
</filter>
</defs>
</svg>
