<svg xmlns="http://www.w3.org/2000/svg" width="74" height="74" viewBox="0 0 19.579 19.579">
  <path d="M0 0h19.579v19.579H0Z" style="fill:#fff;fill-opacity:.989964;stroke:none;"/>
  <path d="M5.187.557c0 .402.009 1.33.093 1.846.04.253.11.504.198.746.018.049.06.039.08.087.016.04.012.144.035.192.018.039.063.08.084.122.016.03.008.06.025.092.016.03.052.032.069.062.043.079.03.143.069.208.04.068.1.1.132.208.17.728.462 1.903.67 2.247a.698.698 0 0 0 .069.31c-.022.102.044.267.086.326 0 0 .035.52.153 1.006.014.056.08.11.084.166.005.084.042.258.09.35.063.127.26.373.26.373s.067.896.19 1.325c.08.279.34.796.37.796.047-.001.063-.097.063-.097s.116.133.182.144c.69.109.988-.47 1.242-.89.24-.396.293-1.095.229-1.675-.05-.448-.276-1.351-.395-1.868 0 0 .1-.673.104-1 .005-.44-.077-1.058-.118-1.656a56.982 56.982 0 0 1-.088-1.708c.104-.55.192-1.096.205-1.708" style="fill:#fff;stroke:#0e3855;stroke-width:.238123;"/>
  <path d="M12.146.56c.008.112-.024.416-.04.527-.04.314-.11.624-.21.925-.346.973-.927 1.75-1.335 2.762a3.46 3.46 0 0 0-.093.346s-.108.076-.16.155c-.391.597-.605 1.419-.673 2.13-.07.706-.03 1.754.046 2.057.149.592.474 1.18 1.024 1.443.226.108.526.079.77.02.765-.19.936-1.542.925-1.548.063-.2.14-.516.205-.713.046-.14.088-.18.143-.32.164-.422.29-.633.437-.94 0 0 .1-.09.183-.206.066-.092.03-.185.102-.28.106-.14.172-.453.119-.474.094.027.22-.036.306-.182.09-.156.177-.237.183-.376.004-.081-.063-.178-.063-.178s.134-.002.185-.05c.078-.073.164-.24.263-.36.11-.138.253-.275.37-.407.314-.35.492-.75.816-1.09.513-.535 1.466-1.488 1.78-1.815.034-.035.452-.565.73-1.397" style="fill:#fff;stroke:#0e3855;stroke-width:.238123;"/>
  <path d="M5.187.554c0 .402.009 1.334.093 1.849.04.253.11.504.198.746.018.049.06.039.08.087.016.04.012.144.035.192.018.039.063.08.084.122.016.03.008.06.025.092.016.03.052.032.069.062.043.079.03.143.069.208.04.068.1.1.132.208.17.728.462 1.903.67 2.247a.698.698 0 0 0 .069.31c-.022.102.044.267.086.326 0 0 .035.52.153 1.006.014.056.08.11.084.166.005.084.042.258.09.35.063.127.26.373.26.373s.067.896.19 1.325c.08.279.34.796.37.796.047-.001.063-.097.063-.097s.116.133.182.144c.69.109.988-.47 1.242-.89.24-.396.293-1.095.229-1.675-.05-.448-.276-1.351-.395-1.868 0 0 .1-.673.104-1 .005-.44-.077-1.058-.118-1.656a56.982 56.982 0 0 1-.088-1.708c.104-.55.192-1.103.205-1.715" style="fill:#fff;stroke:#0e3855;stroke-width:.0650811;"/>
  <path d="M8.01 10.426c-.053-.25-.062-.36-.13-.528-.123-.307-.498-.902-.494-.86.018.213.08.873.18 1.22.077.27.33.772.36.77.044 0 .06-.093.06-.093-.11-.28.006-.296.024-.51zM6.806 7.12c.164.058.313.184.48.123m.04-.292s-.25.022-.392-.03c-.055-.02-.204-.104-.204-.104m.79-.408s-.284.083-.463.104c-.11.013-.4.004-.4.004m.104.017c.287.066.577.138.904.285M6.008 4.276c.338.103.604-.172.893-.333m-1.093-.016c.31.118.48-.112.692-.235m-.57-.69c-.051-.15.048-.186.15-.321-.277.157-.445-.043-.62.047" style="fill:#fff;stroke:#0e3855;stroke-width:.0517838;"/>
  <path d="M6.669 2.778c-.3-.113-.593-.217-.99-.16m-.276-.537c.263-.205.702.012.94.102m-.948-1.035s.093-.113.238-.09c.236.04.634.337.634.337" style="fill:#fff;stroke:#0e3855;stroke-width:.0517838;"/>
  <path d="M12.146.542c.008.113-.024.434-.04.545-.04.314-.11.624-.21.925-.346.973-.927 1.75-1.335 2.762a3.46 3.46 0 0 0-.093.346s-.108.076-.16.155c-.391.597-.605 1.419-.673 2.13-.07.706-.03 1.754.046 2.057.149.592.474 1.18 1.024 1.443.226.108.526.079.77.02.765-.19.936-1.542.925-1.548.063-.2.14-.516.205-.713.046-.14.088-.18.143-.32.164-.422.29-.633.437-.94 0 0 .1-.09.183-.206.066-.092.03-.185.102-.28.106-.14.172-.453.119-.474.094.027.22-.036.306-.182.09-.156.177-.237.183-.376.004-.081-.063-.178-.063-.178s.134-.002.185-.05c.078-.073.164-.24.263-.36.11-.138.253-.275.37-.407.314-.35.492-.75.816-1.09.513-.535 1.466-1.488 1.78-1.815.034-.035.452-.606.73-1.438" style="fill:#fff;stroke:#0e3855;stroke-width:.0666498;"/>
  <path d="M10.852 10.62c.19.183.28.24.51.304.767-.188.938-1.541.927-1.547.026-.244.033-.393.087-.678.028-.145.074-.375-.05-.463-.296-.214-1.474-.03-1.634.52-.116.4-.256.573-.245.953.008.285.258.772.405.912zm1.084-3.911c.349.22.696.443 1.135.334m-1.518-.864s.354-.078.53-.062c.284.025.816.247.816.247m.086-.32c.272-.012.54-.018.74.172m-2.048-.63c.677-.198 1.246-.122 1.802-.012m-1.802-.716c.462.065.914.116 1.296.074m.012-.246c.23.035.41.043 1.037.308m-1.194 1.574c.145-.204.412-.136.65-.13m-1.74.74c.239.08.37.194.827.198m-1.468.814c.105-.12.176-.22.494-.456" style="fill:#fff;stroke:#0e3855;stroke-width:.0666498;"/>
  <path d="M12.433 5.658c.335-.036.379-.125 1.194-.071m-1.83 3.405c.217.012.405-.07.517-.346.058-.144.123-.323.013-.41-.2-.145-.803-.107-1.223.102-.035.475.45.64.693.654z" style="fill:#fff;stroke:#0e3855;stroke-width:.0666498;"/>
  <path d="M12.16 1.39s.153-.392.333-.83" style="fill:#fff;stroke:#0e3855;stroke-width:.0452897;"/>
  <g style="fill:#0e3855;stroke:none">
    <path d="M133.713 276.538h5.752v.582h-5.752z" style="color:#000;fill:#0e3855;stroke:none;stroke-width:1.02991;" transform="translate(-43.698 -96.243) scale(.39158)"/>
    <path d="M133.197 276.023v1.191h6.783v-1.19z" style="color:#000;fill:#0e3855;stroke:none;" transform="translate(-43.698 -96.243) scale(.39158)"/>
  </g>
</svg>
