<?xml version="1.0" encoding="utf-8"?>
<!-- Generator: Adobe Illustrator 16.0.3, SVG Export Plug-In . SVG Version: 6.00 Build 0)  -->
<!DOCTYPE svg PUBLIC "-//W3C//DTD SVG 1.1//EN" "http://www.w3.org/Graphics/SVG/1.1/DTD/svg11.dtd">
<svg version="1.1" id="Ebene_1" xmlns="http://www.w3.org/2000/svg" xmlns:xlink="http://www.w3.org/1999/xlink" x="0px" y="0px"
	 width="45px" height="44.982px" viewBox="0 0 45 44.982" enable-background="new 0 0 45 44.982" xml:space="preserve">
<g>
	<circle id="path-1_2_" fill="none" stroke="#FFFFFF" stroke-width="8" stroke-opacity="0.5" cx="22.507" cy="22.491" r="15"/>
</g>
<g>
	<circle id="path-3_2_" fill="none" stroke="#638B54" stroke-width="4" cx="22.508" cy="22.491" r="15"/>
</g>
<g>
	<circle id="path-3_1_" fill="#729F62" cx="22.508" cy="22.491" r="15"/>
</g>
<g>
	<circle id="path-3_3_" fill="none" cx="22.5" cy="22.491" r="22.5"/>
</g>
<path fill="#FFFFFF" d="M34.418,29.878c0,0-0.117-0.157-0.322-0.437c-0.215-0.275-0.48-0.676-0.871-1.146
	c-0.397-0.463-0.832-1.038-1.375-1.571c-0.269-0.27-0.525-0.568-0.826-0.836c-0.301-0.267-0.606-0.537-0.912-0.81
	c-0.307-0.271-0.655-0.496-0.977-0.742c-0.318-0.251-0.654-0.467-0.996-0.655c-0.338-0.19-0.652-0.4-0.973-0.554
	c-0.327-0.146-0.635-0.283-0.92-0.411c-0.405-0.204-0.789-0.306-1.102-0.396c0.308-0.117,0.692-0.253,1.09-0.497
	c0.272-0.151,0.568-0.313,0.883-0.487c0.307-0.181,0.604-0.415,0.923-0.634c0.323-0.216,0.642-0.46,0.937-0.737
	c0.299-0.272,0.629-0.525,0.91-0.821c0.282-0.296,0.564-0.592,0.842-0.884s0.508-0.611,0.754-0.903
	c0.496-0.577,0.879-1.187,1.236-1.681c0.35-0.501,0.581-0.922,0.771-1.215c0.181-0.294,0.285-0.461,0.285-0.461
	c0.172-0.281,0.092-0.653-0.187-0.833c-0.282-0.183-0.661-0.103-0.844,0.18c0,0-0.106,0.165-0.295,0.455
	c-0.193,0.282-0.45,0.721-0.789,1.182c-0.349,0.454-0.711,1.011-1.193,1.546c-0.237,0.269-0.461,0.567-0.725,0.832
	c-0.265,0.265-0.532,0.534-0.8,0.803s-0.574,0.491-0.854,0.736c-0.277,0.25-0.57,0.464-0.867,0.651
	c-0.295,0.191-0.565,0.399-0.846,0.555c-0.284,0.148-0.552,0.288-0.8,0.417c-0.476,0.283-0.931,0.384-1.226,0.516
	c0-0.005,0.002-0.009,0.002-0.014c0.033-0.033,0.049-0.05,0.086-0.088c0.237-0.278,0.653-0.607,1.008-1.13
	c0.188-0.251,0.392-0.523,0.607-0.811c0.203-0.296,0.377-0.635,0.575-0.972c0.097-0.17,0.195-0.343,0.294-0.519
	c0.079-0.185,0.158-0.373,0.238-0.562c0.148-0.382,0.348-0.753,0.454-1.155c0.116-0.398,0.231-0.797,0.345-1.188
	c0.1-0.395,0.148-0.792,0.221-1.172c0.073-0.379,0.129-0.749,0.141-1.11c0.025-0.357,0.048-0.695,0.068-1.007
	c0.033-0.318,0-0.576,0.002-0.821c-0.006-0.241-0.011-0.451-0.015-0.624c-0.008-0.346-0.013-0.543-0.013-0.543
	c-0.008-0.33-0.279-0.597-0.611-0.597c-0.337,0.001-0.609,0.275-0.609,0.612c0,0,0,0.198,0.002,0.543c0,0.173,0,0.383,0,0.624
	c-0.006,0.236,0.021,0.524-0.02,0.796c-0.025,0.279-0.055,0.582-0.085,0.901c-0.017,0.32-0.074,0.656-0.151,1.004
	c-0.074,0.346-0.125,0.711-0.224,1.068c-0.11,0.353-0.224,0.711-0.337,1.07c-0.102,0.363-0.294,0.688-0.432,1.029
	c-0.075,0.168-0.149,0.334-0.223,0.499c-0.093,0.154-0.185,0.306-0.275,0.456c-0.186,0.295-0.342,0.596-0.529,0.855
	c-0.198,0.251-0.385,0.489-0.557,0.708c-0.065,0.094-0.135,0.176-0.203,0.256c-0.25-0.899-0.711-1.654-1.514-1.65
	c-0.878,0.004-1.342,0.906-1.561,1.913c-0.146-0.143-0.298-0.303-0.44-0.502c-0.175-0.218-0.364-0.454-0.564-0.703
	c-0.19-0.257-0.35-0.556-0.539-0.85c-0.092-0.149-0.185-0.3-0.28-0.453c-0.075-0.164-0.151-0.33-0.228-0.497
	c-0.142-0.339-0.337-0.663-0.443-1.025c-0.117-0.357-0.233-0.715-0.348-1.067c-0.102-0.356-0.156-0.72-0.235-1.066
	c-0.081-0.347-0.142-0.683-0.161-1.002c-0.033-0.32-0.065-0.622-0.094-0.9c-0.043-0.271-0.019-0.559-0.028-0.796
	c-0.002-0.241-0.003-0.451-0.005-0.624c-0.002-0.346-0.004-0.544-0.004-0.544c-0.003-0.33-0.27-0.601-0.602-0.605
	c-0.337-0.004-0.614,0.265-0.618,0.602c0,0-0.003,0.198-0.008,0.543c-0.003,0.173-0.006,0.383-0.009,0.624
	c0.004,0.245-0.026,0.503,0.01,0.821c0.025,0.312,0.051,0.65,0.079,1.007c0.016,0.361,0.075,0.731,0.153,1.109
	c0.076,0.379,0.129,0.776,0.232,1.17c0.118,0.391,0.237,0.788,0.357,1.185c0.11,0.401,0.314,0.77,0.466,1.15
	c0.082,0.188,0.163,0.375,0.244,0.559c0.101,0.174,0.201,0.346,0.299,0.515c0.203,0.335,0.379,0.673,0.585,0.967
	c0.218,0.286,0.425,0.556,0.616,0.805c0.36,0.519,0.778,0.845,1.019,1.121c0.047,0.048,0.07,0.071,0.109,0.111
	c-0.005-0.002-0.008-0.003-0.013-0.005c-0.296-0.132-0.76-0.227-1.245-0.51c-0.249-0.127-0.519-0.264-0.804-0.41
	c-0.281-0.153-0.554-0.359-0.85-0.547c-0.299-0.184-0.595-0.396-0.874-0.643c-0.282-0.242-0.59-0.461-0.86-0.728
	c-0.271-0.267-0.541-0.533-0.807-0.796c-0.267-0.262-0.493-0.559-0.732-0.825c-0.488-0.53-0.856-1.083-1.208-1.535
	c-0.342-0.456-0.602-0.893-0.796-1.173c-0.191-0.287-0.3-0.452-0.3-0.452c-0.183-0.275-0.554-0.356-0.835-0.178
	c-0.285,0.18-0.369,0.557-0.189,0.842c0,0,0.105,0.167,0.289,0.459c0.193,0.291,0.428,0.71,0.782,1.208
	c0.363,0.491,0.751,1.097,1.253,1.67c0.248,0.29,0.481,0.607,0.761,0.896c0.28,0.289,0.565,0.583,0.85,0.876
	s0.616,0.543,0.918,0.813c0.299,0.274,0.618,0.515,0.944,0.728c0.322,0.216,0.62,0.447,0.929,0.625
	c0.315,0.17,0.612,0.331,0.887,0.479c0.399,0.24,0.785,0.372,1.094,0.487c-0.311,0.093-0.694,0.198-1.098,0.406
	c-0.284,0.13-0.591,0.271-0.917,0.419c-0.32,0.157-0.632,0.368-0.968,0.563c-0.339,0.191-0.673,0.41-0.99,0.664
	c-0.319,0.248-0.665,0.477-0.969,0.75c-0.303,0.274-0.607,0.549-0.906,0.818c-0.298,0.27-0.552,0.571-0.818,0.844
	c-0.538,0.539-0.966,1.117-1.36,1.584c-0.386,0.474-0.648,0.875-0.86,1.153c-0.203,0.279-0.319,0.438-0.319,0.438
	c-0.194,0.268-0.141,0.645,0.123,0.846c0.268,0.204,0.651,0.152,0.855-0.115c0,0,0.119-0.156,0.328-0.431
	c0.212-0.267,0.501-0.685,0.873-1.119c0.381-0.427,0.785-0.955,1.306-1.452c0.256-0.25,0.502-0.531,0.785-0.775
	c0.283-0.244,0.57-0.492,0.858-0.74c0.287-0.249,0.609-0.447,0.906-0.67c0.295-0.227,0.603-0.42,0.914-0.584
	c0.308-0.168,0.594-0.354,0.884-0.489c0.294-0.126,0.572-0.246,0.829-0.356c0.071-0.035,0.138-0.06,0.207-0.088
	c-0.052,0.065-0.103,0.125-0.157,0.194c-0.211,0.265-0.44,0.551-0.682,0.853c-0.201,0.328-0.412,0.674-0.631,1.031
	c-0.233,0.352-0.417,0.74-0.593,1.139c-0.171,0.401-0.394,0.791-0.524,1.213c-0.142,0.418-0.283,0.836-0.423,1.248
	c-0.136,0.412-0.208,0.832-0.31,1.231c-0.094,0.401-0.195,0.785-0.235,1.169c-0.053,0.379-0.104,0.737-0.15,1.067
	c-0.095,0.661-0.078,1.174-0.111,1.551c-0.019,0.371-0.03,0.583-0.03,0.583c-0.017,0.33,0.234,0.616,0.565,0.641
	c0.336,0.023,0.628-0.229,0.653-0.564c0,0,0.015-0.213,0.042-0.583c0.04-0.362,0.037-0.919,0.14-1.517
	c0.049-0.299,0.103-0.625,0.159-0.967c0.041-0.345,0.144-0.703,0.24-1.076c0.104-0.371,0.177-0.764,0.312-1.143
	c0.137-0.378,0.276-0.762,0.415-1.146c0.127-0.389,0.342-0.736,0.505-1.102c0.168-0.363,0.342-0.715,0.56-1.023
	c0.203-0.318,0.399-0.625,0.585-0.918c0.22-0.262,0.428-0.51,0.62-0.74c0.162-0.196,0.311-0.373,0.469-0.514
	c-0.707,1.086-1.325,2.514-1.32,3.723c0.01,2.306,1.4,3.664,3.107,3.656c1.707-0.006,3.083-1.379,3.072-3.684
	c-0.004-0.867-0.328-1.844-0.775-2.725c0.075,0.088,0.143,0.166,0.221,0.259c0.189,0.29,0.387,0.595,0.594,0.911
	c0.221,0.307,0.397,0.656,0.568,1.019c0.166,0.363,0.385,0.71,0.516,1.097c0.143,0.383,0.285,0.767,0.426,1.143
	c0.138,0.378,0.215,0.77,0.322,1.139c0.101,0.371,0.207,0.73,0.25,1.073c0.061,0.343,0.117,0.667,0.168,0.965
	c0.109,0.597,0.111,1.154,0.154,1.517c0.03,0.369,0.049,0.582,0.049,0.582c0.026,0.33,0.313,0.58,0.645,0.559
	c0.336-0.021,0.592-0.311,0.572-0.646c0,0-0.014-0.211-0.036-0.582c-0.037-0.377-0.024-0.89-0.125-1.551
	c-0.05-0.33-0.103-0.688-0.16-1.066c-0.044-0.383-0.147-0.766-0.246-1.166c-0.106-0.398-0.183-0.819-0.321-1.229
	c-0.144-0.409-0.289-0.825-0.435-1.243c-0.134-0.42-0.361-0.808-0.535-1.207c-0.181-0.398-0.367-0.785-0.604-1.135
	c-0.222-0.355-0.437-0.699-0.64-1.025c-0.245-0.301-0.476-0.584-0.69-0.847c-0.055-0.067-0.105-0.128-0.158-0.192
	c0.068,0.029,0.137,0.053,0.208,0.086c0.258,0.109,0.536,0.226,0.832,0.349c0.292,0.132,0.579,0.315,0.889,0.481
	c0.312,0.162,0.623,0.352,0.92,0.576c0.3,0.221,0.623,0.416,0.912,0.662c0.29,0.245,0.579,0.49,0.865,0.732s0.534,0.521,0.792,0.768
	c0.525,0.492,0.936,1.018,1.318,1.44c0.377,0.431,0.67,0.847,0.885,1.11c0.212,0.273,0.332,0.429,0.332,0.429
	c0.203,0.26,0.58,0.313,0.847,0.114C34.563,30.529,34.619,30.148,34.418,29.878z"/>
</svg>
