<svg width="75" height="74" viewBox="0 0 75 74" fill="none" xmlns="http://www.w3.org/2000/svg">
<rect width="74" height="74" transform="translate(0.226074)" fill="white"/>
<g filter="url(#filter0_i_1228_7579)">
<path d="M33.7988 31.4067C40.2986 34.9793 43.7556 37.2104 50.0731 41.2195C56.3911 45.2285 65.7879 51.3927 67.0002 53.4736C66.4883 53.8568 65.6648 53.8908 64.5317 53.5737C59.1514 51.9225 48.823 47.7113 42.2812 44.7952C35.7381 41.8791 33.9713 41.0921 28.6096 39.0644C29.3061 39.0953 29.8771 38.9945 30.3226 38.7621C30.9915 38.4134 31.0521 37.5269 30.3226 36.7467C29.5931 35.969 27.8319 35.0028 25.4629 34.4359C28.204 35.0838 29.7502 35.2727 30.1013 35.0028C30.6268 34.5979 30.2633 34.2399 30.5767 34.0934C30.8889 33.9469 31.7018 34.6479 32.4393 34.5824C33.1781 34.5169 33.468 33.4536 33.1954 32.7185C32.9228 31.9822 33.4068 31.7418 33.8 31.4079L33.7988 31.4067Z" fill="#2F99C6" stroke="#0D314A" stroke-linecap="round" stroke-linejoin="round"/>
<path d="M7 29.0087C8.11215 24.8024 10.4255 22.2653 14.5118 20.7717C16.793 19.9384 18.4517 19.8246 20.7087 20.2172C22.9664 20.611 25.3131 21.9191 27.8131 23.7446C29.8452 25.2283 31.6232 26.7244 32.4478 28.2279C33.2719 29.7344 33.4079 30.1369 33.7077 31.4537M30.0795 39.8032C29.6372 39.9599 29.1822 40.0779 28.7194 40.1555C27.6969 40.341 26.9297 39.9534 26.0593 40.2569C25.1889 40.5611 24.9459 42.1394 25.1425 43.4809M28.7225 35.4065C39.0484 40.3268 52.4839 46.8142 66.5487 53.6294L28.7225 35.4065Z" stroke="#0D314A" stroke-linecap="round" stroke-linejoin="round"/>
<path d="M22.5037 30.4045C23.5262 30.837 24.6362 30.5229 24.9832 29.7029C25.3301 28.8828 24.7824 27.8674 23.76 27.4349C22.7375 27.0023 21.6275 27.3164 21.2806 28.1365C20.9336 28.9565 21.4813 29.9719 22.5037 30.4045Z" stroke="#0D314A" stroke-width="0.998814" stroke-linecap="round" stroke-linejoin="round"/>
<path d="M24.8537 28.3769C25.4199 29.1187 25.6616 29.821 25.5646 30.093C25.4681 30.3638 24.8048 30.6154 23.9449 30.5666M21.307 28.0523C20.8773 28.673 20.2363 28.6761 19.8276 28.6588C20.1646 28.8776 21.0597 29.5861 21.6415 29.8946M33.9889 33.8554C35.8027 34.6096 38.2279 35.8559 39.0186 36.8686C37.8304 36.403 37.1084 35.9332 36.4172 35.5079C35.8027 35.1289 34.8476 34.5948 33.9889 33.8554Z" stroke="#0D314A" stroke-linecap="round" stroke-linejoin="round"/>
</g>
<defs>
<filter id="filter0_i_1228_7579" x="6.5" y="19.5" width="61" height="38.7886" filterUnits="userSpaceOnUse" color-interpolation-filters="sRGB">
<feFlood flood-opacity="0" result="BackgroundImageFix"/>
<feBlend mode="normal" in="SourceGraphic" in2="BackgroundImageFix" result="shape"/>
<feColorMatrix in="SourceAlpha" type="matrix" values="0 0 0 0 0 0 0 0 0 0 0 0 0 0 0 0 0 0 127 0" result="hardAlpha"/>
<feOffset dy="4"/>
<feGaussianBlur stdDeviation="7"/>
<feComposite in2="hardAlpha" operator="arithmetic" k2="-1" k3="1"/>
<feColorMatrix type="matrix" values="0 0 0 0 0 0 0 0 0 0 0 0 0 0 0 0 0 0 0.15 0"/>
<feBlend mode="normal" in2="shape" result="effect1_innerShadow_1228_7579"/>
</filter>
</defs>
</svg>
