<?xml version="1.0" encoding="UTF-8"?>
<!-- Generator: CustomSymbols v2.6.3.42 by @serious_bret https://bretlester.com/app_content/CustomSymbols/ -->
<!-- Guides: Left/Right -0.008/-0.008 Cap/Base 0.012/0.01 -->
<!-- Settings: RefScale 1.0 Min/Max Stroke Scales 0.5/2.2100000381469727 -->
<!DOCTYPE svg
PUBLIC "-//W3C//DTD SVG 1.1//EN"
       "http://www.w3.org/Graphics/SVG/1.1/DTD/svg11.dtd">
<svg version="1.1" xmlns="http://www.w3.org/2000/svg" xmlns:xlink="http://www.w3.org/1999/xlink" width="3300" height="2200">
<![CDATA[<svg width="24" height="24" viewBox="0 0 24 24" fill="none" xmlns="http://www.w3.org/2000/svg">
<path d="M17.1739 15.0434L14.5652 12.4347L11.9565 15.0434V5.04345C11.9565 4.81283 12.0481 4.59165 12.2112 4.42858C12.3742 4.2655 12.5954 4.17389 12.826 4.17389H16.3043C16.5349 4.17389 16.7561 4.2655 16.9192 4.42858C17.0823 4.59165 17.1739 4.81283 17.1739 5.04345V15.0434Z" stroke="black" stroke-width="1.15" stroke-linecap="round" stroke-linejoin="round"/>
<path d="M17.1739 5.47826H18.913C19.1437 5.47826 19.3648 5.56988 19.5279 5.73295C19.691 5.89603 19.7826 6.11721 19.7826 6.34783V21.1304C19.7826 21.361 19.691 21.5822 19.5279 21.7453C19.3648 21.9084 19.1437 22 18.913 22H6.73913C6.27788 22 5.83553 21.8168 5.50938 21.4906C5.18323 21.1645 5 20.7221 5 20.2609V3.73914" stroke="black" stroke-width="1.15" stroke-linecap="round" stroke-linejoin="round"/>
<path d="M18.913 5.47826V2.86956C18.913 2.63894 18.8214 2.41776 18.6583 2.25469C18.4953 2.09161 18.2741 2 18.0435 2H6.73913C6.27788 2 5.83553 2.18323 5.50938 2.50938C5.18323 2.83553 5 3.27788 5 3.73913C5 4.20037 5.18323 4.64273 5.50938 4.96888C5.83553 5.29503 6.27788 5.47826 6.73913 5.47826H9.7826" stroke="black" stroke-width="1.15" stroke-linecap="round" stroke-linejoin="round"/>
</svg>
]]>
 <g id="Notes">
  <rect height="2200" id="artboard" style="fill:white;opacity:1" width="3300" x="0" y="0"/>
  <line id="" style="fill:none;stroke:black;opacity:1;stroke-width:0.5;" x1="263" x2="3036" y1="292" y2="292"/>
  <text id="reftext1" style="stroke:none;fill:black;font-family:-apple-system,&quot;SF Pro Display&quot;,&quot;SF Pro Text&quot;,Helvetica,sans-serif;font-weight:bold;" transform="matrix(1 0 0 1 263 322)">Weight/Scale Variations</text>
  <text id="reftext2" style="stroke:none;fill:black;font-family:-apple-system,&quot;SF Pro Display&quot;,&quot;SF Pro Text&quot;,Helvetica,sans-serif;text-anchor:middle;" transform="matrix(1 0 0 1 559.711 322)">Ultralight</text>
  <text style="stroke:none;fill:black;font-family:-apple-system,&quot;SF Pro Display&quot;,&quot;SF Pro Text&quot;,Helvetica,sans-serif;text-anchor:middle;" transform="matrix(1 0 0 1 856.422 322)">Thin</text>
  <text style="stroke:none;fill:black;font-family:-apple-system,&quot;SF Pro Display&quot;,&quot;SF Pro Text&quot;,Helvetica,sans-serif;text-anchor:middle;" transform="matrix(1 0 0 1 1153.13 322)">Light</text>
  <text style="stroke:none;fill:black;font-family:-apple-system,&quot;SF Pro Display&quot;,&quot;SF Pro Text&quot;,Helvetica,sans-serif;text-anchor:middle;" transform="matrix(1 0 0 1 1449.84 322)">Regular</text>
  <text style="stroke:none;fill:black;font-family:-apple-system,&quot;SF Pro Display&quot;,&quot;SF Pro Text&quot;,Helvetica,sans-serif;text-anchor:middle;" transform="matrix(1 0 0 1 1746.56 322)">Medium</text>
  <text style="stroke:none;fill:black;font-family:-apple-system,&quot;SF Pro Display&quot;,&quot;SF Pro Text&quot;,Helvetica,sans-serif;text-anchor:middle;" transform="matrix(1 0 0 1 2043.27 322)">Semibold</text>
  <text style="stroke:none;fill:black;font-family:-apple-system,&quot;SF Pro Display&quot;,&quot;SF Pro Text&quot;,Helvetica,sans-serif;text-anchor:middle;" transform="matrix(1 0 0 1 2339.98 322)">Bold</text>
  <text style="stroke:none;fill:black;font-family:-apple-system,&quot;SF Pro Display&quot;,&quot;SF Pro Text&quot;,Helvetica,sans-serif;text-anchor:middle;" transform="matrix(1 0 0 1 2636.69 322)">Heavy</text>
  <text style="stroke:none;fill:black;font-family:-apple-system,&quot;SF Pro Display&quot;,&quot;SF Pro Text&quot;,Helvetica,sans-serif;text-anchor:middle;" transform="matrix(1 0 0 1 2933.4 322)">Black</text>
  <line id="" style="fill:none;stroke:black;opacity:1;stroke-width:0.5;" x1="263" x2="3036" y1="1903" y2="1903"/>
  <g id="" transform="matrix(1 0 0 1 263 1933)">
   <path d="M9.24805 0.830078C13.5547 0.830078 17.1387-2.74414 17.1387-7.05078C17.1387-11.3574 13.5449-14.9316 9.23828-14.9316C4.94141-14.9316 1.36719-11.3574 1.36719-7.05078C1.36719-2.74414 4.95117 0.830078 9.24805 0.830078ZM9.24805-0.654297C5.70312-0.654297 2.87109-3.49609 2.87109-7.05078C2.87109-10.6055 5.69336-13.4473 9.23828-13.4473C12.793-13.4473 15.6348-10.6055 15.6445-7.05078C15.6543-3.49609 12.8027-0.654297 9.24805-0.654297ZM6.39648-6.31836L8.50586-6.31836L8.50586-4.19922C8.50586-3.75977 8.79883-3.45703 9.22852-3.45703C9.67773-3.45703 9.9707-3.75977 9.9707-4.19922L9.9707-6.31836L12.0996-6.31836C12.5391-6.31836 12.8418-6.61133 12.8418-7.04102C12.8418-7.48047 12.5391-7.7832 12.0996-7.7832L9.9707-7.7832L9.9707-9.89258C9.9707-10.3418 9.67773-10.6445 9.22852-10.6445C8.79883-10.6445 8.50586-10.3418 8.50586-9.89258L8.50586-7.7832L6.39648-7.7832C5.94727-7.7832 5.64453-7.48047 5.64453-7.04102C5.64453-6.61133 5.94727-6.31836 6.39648-6.31836Z"/>
  </g>
  <g id="" transform="matrix(1 0 0 1 281.506 1933)">
   <path d="M11.709 2.91016C17.1582 2.91016 21.6699-1.61133 21.6699-7.05078C21.6699-12.5 17.1484-17.0117 11.6992-17.0117C6.25977-17.0117 1.74805-12.5 1.74805-7.05078C1.74805-1.61133 6.26953 2.91016 11.709 2.91016ZM11.709 1.25C7.09961 1.25 3.41797-2.44141 3.41797-7.05078C3.41797-11.6602 7.08984-15.3516 11.6992-15.3516C16.3086-15.3516 20-11.6602 20.0098-7.05078C20.0195-2.44141 16.3184 1.25 11.709 1.25ZM7.98828-6.23047L10.8789-6.23047L10.8789-3.32031C10.8789-2.83203 11.2109-2.5 11.6895-2.5C12.1777-2.5 12.5195-2.83203 12.5195-3.32031L12.5195-6.23047L15.4297-6.23047C15.918-6.23047 16.25-6.5625 16.25-7.04102C16.25-7.5293 15.918-7.87109 15.4297-7.87109L12.5195-7.87109L12.5195-10.7617C12.5195-11.2695 12.1777-11.6016 11.6895-11.6016C11.2109-11.6016 10.8789-11.2598 10.8789-10.7617L10.8789-7.87109L7.98828-7.87109C7.48047-7.87109 7.14844-7.5293 7.14844-7.04102C7.14844-6.5625 7.49023-6.23047 7.98828-6.23047Z"/>
  </g>
  <g id="" transform="matrix(1 0 0 1 304.924 1933)">
   <path d="M14.9707 5.66406C21.9336 5.66406 27.6953-0.0976562 27.6953-7.05078C27.6953-14.0137 21.9238-19.7754 14.9609-19.7754C8.00781-19.7754 2.25586-14.0137 2.25586-7.05078C2.25586-0.0976562 8.01758 5.66406 14.9707 5.66406ZM14.9707 3.84766C8.93555 3.84766 4.08203-1.01562 4.08203-7.05078C4.08203-13.0957 8.92578-17.9492 14.9609-17.9492C21.0059-17.9492 25.8594-13.0957 25.8691-7.05078C25.8789-1.01562 21.0156 3.84766 14.9707 3.84766ZM10.0586-6.14258L14.0625-6.14258L14.0625-2.12891C14.0625-1.5918 14.4336-1.2207 14.9512-1.2207C15.4883-1.2207 15.8594-1.5918 15.8594-2.12891L15.8594-6.14258L19.8828-6.14258C20.4102-6.14258 20.791-6.51367 20.791-7.03125C20.791-7.56836 20.4199-7.94922 19.8828-7.94922L15.8594-7.94922L15.8594-11.9531C15.8594-12.5098 15.4883-12.8809 14.9512-12.8809C14.4336-12.8809 14.0625-12.5 14.0625-11.9531L14.0625-7.94922L10.0586-7.94922C9.50195-7.94922 9.13086-7.56836 9.13086-7.03125C9.13086-6.51367 9.51172-6.14258 10.0586-6.14258Z"/>
  </g>
  <text style="stroke:none;fill:black;font-family:-apple-system,&quot;SF Pro Display&quot;,&quot;SF Pro Text&quot;,Helvetica,sans-serif;font-weight:bold;" transform="matrix(1 0 0 1 263 1953)">Design Variations</text>
  <text style="stroke:none;fill:black;font-family:-apple-system,&quot;SF Pro Display&quot;,&quot;SF Pro Text&quot;,Helvetica,sans-serif;" transform="matrix(1 0 0 1 263 1971)">Symbols are supported in up to nine weights and three scales.</text>
  <text style="stroke:none;fill:black;font-family:-apple-system,&quot;SF Pro Display&quot;,&quot;SF Pro Text&quot;,Helvetica,sans-serif;" transform="matrix(1 0 0 1 263 1989)">For optimal layout with text and other symbols, vertically align</text>
  <text style="stroke:none;fill:black;font-family:-apple-system,&quot;SF Pro Display&quot;,&quot;SF Pro Text&quot;,Helvetica,sans-serif;" transform="matrix(1 0 0 1 263 2007)">symbols with the adjacent text.</text>
  <line id="" style="fill:none;stroke:#00AEEF;stroke-width:0.5;opacity:1.0;" x1="776" x2="776" y1="1919" y2="1933"/>
  <g id="" transform="matrix(1 0 0 1 776 1933)">
   <path d="M3.31055 0.126953C3.82812 0.126953 4.08203-0.0683594 4.26758-0.605469L5.52734-4.0625L11.2891-4.0625L12.5488-0.605469C12.7344-0.0683594 12.9883 0.126953 13.4961 0.126953C14.0137 0.126953 14.3457-0.185547 14.3457-0.673828C14.3457-0.839844 14.3164-0.986328 14.2383-1.20117L9.6582-13.3887C9.43359-13.9941 9.0332-14.2871 8.4082-14.2871C7.80273-14.2871 7.39258-13.9941 7.17773-13.3984L2.59766-1.19141C2.51953-0.976562 2.49023-0.830078 2.49023-0.664062C2.49023-0.175781 2.80273 0.126953 3.31055 0.126953ZM6.00586-5.53711L8.37891-12.1094L8.42773-12.1094L10.8008-5.53711Z"/>
  </g>
  <line id="" style="fill:none;stroke:#00AEEF;stroke-width:0.5;opacity:1.0;" x1="792.836" x2="792.836" y1="1919" y2="1933"/>
  <text style="stroke:none;fill:black;font-family:-apple-system,&quot;SF Pro Display&quot;,&quot;SF Pro Text&quot;,Helvetica,sans-serif;font-weight:bold;" transform="matrix(1 0 0 1 776 1953)">Margins</text>
  <text style="stroke:none;fill:black;font-family:-apple-system,&quot;SF Pro Display&quot;,&quot;SF Pro Text&quot;,Helvetica,sans-serif;" transform="matrix(1 0 0 1 776 1971)">Leading and trailing margins on the left and right side of each symbol</text>
  <text style="stroke:none;fill:black;font-family:-apple-system,&quot;SF Pro Display&quot;,&quot;SF Pro Text&quot;,Helvetica,sans-serif;" transform="matrix(1 0 0 1 776 1989)">can be adjusted by modifying the x-location of the margin guidelines.</text>
  <text style="stroke:none;fill:black;font-family:-apple-system,&quot;SF Pro Display&quot;,&quot;SF Pro Text&quot;,Helvetica,sans-serif;" transform="matrix(1 0 0 1 776 2007)">Modifications are automatically applied proportionally to all</text>
  <text style="stroke:none;fill:black;font-family:-apple-system,&quot;SF Pro Display&quot;,&quot;SF Pro Text&quot;,Helvetica,sans-serif;" transform="matrix(1 0 0 1 776 2025)">scales and weights.</text>
  <g id="" transform="matrix(1 0 0 1 1289 1933)">
   <path d="M2.8418 1.86523L4.54102 3.57422C5.40039 4.44336 6.38672 4.38477 7.31445 3.35938L17.4902-7.85156C17.7539-7.76367 18.0273-7.7832 18.3398-7.8418L19.4043-8.03711L20.0684-7.36328L20.0293-6.80664C19.9902-6.30859 20.1172-5.92773 20.6055-5.44922L21.3672-4.70703C21.8457-4.22852 22.4609-4.19922 22.9297-4.66797L25.8398-7.58789C26.3086-8.05664 26.2891-8.65234 25.8105-9.13086L25.0391-9.89258C24.5605-10.3711 24.1895-10.5273 23.7109-10.4883L23.1348-10.4395L22.4902-11.0742L22.7344-12.1973C22.8613-12.7637 22.7051-13.2031 22.1191-13.7891L19.9219-15.9766C16.582-19.2969 12.1484-19.2188 9.25781-16.3281C8.83789-15.918 8.80859-15.3418 9.04297-14.9512C9.27734-14.5898 9.73633-14.3555 10.3809-14.5215C11.8457-14.8633 13.3691-14.9219 14.7949-13.9844L14.209-12.5293C14.0137-12.0508 13.9844-11.6504 14.1113-11.2891L3.04688-0.898438C2.06055 0.0195312 1.98242 0.996094 2.8418 1.86523ZM10.752-15.957C13.1836-17.7344 16.4746-17.4316 18.7012-15.2051L21.1328-12.793C21.3672-12.5586 21.4062-12.373 21.3379-12.0312L21.0156-10.5469L22.5195-9.0625L23.5059-9.12109C23.7598-9.13086 23.8379-9.11133 24.0332-8.91602L24.6094-8.33984L22.168-5.89844L21.5918-6.47461C21.3965-6.66992 21.3672-6.74805 21.377-7.01172L21.4453-7.98828L19.9512-9.47266L18.4277-9.21875C18.1055-9.15039 17.959-9.17969 17.7148-9.41406L15.7129-11.416C15.459-11.6504 15.4297-11.8164 15.5859-12.1875L16.4648-14.2773C14.9023-15.7324 12.8711-16.3574 10.8398-15.7617C10.6836-15.7227 10.625-15.8496 10.752-15.957ZM5.27344 2.30469L4.10156 1.14258C3.63281 0.683594 3.74023 0.341797 4.14062-0.0195312L14.9512-10.1953L16.416-8.71094L6.42578 2.27539C6.07422 2.67578 5.74219 2.77344 5.27344 2.30469Z"/>
  </g>
  <text style="stroke:none;fill:black;font-family:-apple-system,&quot;SF Pro Display&quot;,&quot;SF Pro Text&quot;,Helvetica,sans-serif;font-weight:bold;" transform="matrix(1 0 0 1 1289 1953)">Exporting</text>
  <text style="stroke:none;fill:black;font-family:-apple-system,&quot;SF Pro Display&quot;,&quot;SF Pro Text&quot;,Helvetica,sans-serif;" transform="matrix(1 0 0 1 1289 1971)">Symbols should be outlined when exporting to ensure the</text>
  <text style="stroke:none;fill:black;font-family:-apple-system,&quot;SF Pro Display&quot;,&quot;SF Pro Text&quot;,Helvetica,sans-serif;" transform="matrix(1 0 0 1 1289 1989)">design is preserved when submitting to Xcode.</text>
  <text id="template-version" style="stroke:none;fill:black;font-family:-apple-system,&quot;SF Pro Display&quot;,&quot;SF Pro Text&quot;,Helvetica,sans-serif;text-anchor:end;" transform="matrix(1 0 0 1 3036 1933)">Template v.2.0</text>
  <text style="stroke:none;fill:black;font-family:-apple-system,&quot;SF Pro Display&quot;,&quot;SF Pro Text&quot;,Helvetica,sans-serif;text-anchor:end;" transform="matrix(1 0 0 1 3036 1951)">Requires Xcode 12 or greater</text>
  <text style="stroke:none;fill:black;font-family:-apple-system,&quot;SF Pro Display&quot;,&quot;SF Pro Text&quot;,Helvetica,sans-serif;" transform="matrix(1 0 0 1 263 726)">Small</text>
  <text style="stroke:none;fill:black;font-family:-apple-system,&quot;SF Pro Display&quot;,&quot;SF Pro Text&quot;,Helvetica,sans-serif;" transform="matrix(1 0 0 1 263 1156)">Medium</text>
  <text style="stroke:none;fill:black;font-family:-apple-system,&quot;SF Pro Display&quot;,&quot;SF Pro Text&quot;,Helvetica,sans-serif;" transform="matrix(1 0 0 1 263 1586)">Large</text>
 </g>
 <g id="Guides">
  <g id="H-reference" style="fill:#27AAE1;stroke:none;" transform="matrix(1 0 0 1 339 696)">
   <path d="M0.976562 0L3.66211 0L12.9883-24.4629L45.752-24.4629L55.127 0L57.7637 0L30.6152-70.459L28.125-70.459ZM29.3457-67.1387L29.4434-67.1387L44.873-26.709L13.8672-26.709Z"/>
  </g>
  <line id="Baseline-S" style="fill:none;stroke:#27AAE1;opacity:1;stroke-width:0.5;" x1="263" x2="3036" y1="696" y2="696"/>
  <line id="Capline-S" style="fill:none;stroke:#27AAE1;opacity:1;stroke-width:0.5;" x1="263" x2="3036" y1="625.541" y2="625.541"/>
  <g id="H-reference" style="fill:#27AAE1;stroke:none;" transform="matrix(1 0 0 1 339 1126)">
   <path d="M0.976562 0L3.66211 0L12.9883-24.4629L45.752-24.4629L55.127 0L57.7637 0L30.6152-70.459L28.125-70.459ZM29.3457-67.1387L29.4434-67.1387L44.873-26.709L13.8672-26.709Z"/>
  </g>
  <line id="Baseline-M" style="fill:none;stroke:#27AAE1;opacity:1;stroke-width:0.5;" x1="263" x2="3036" y1="1126" y2="1126"/>
  <line id="Capline-M" style="fill:none;stroke:#27AAE1;opacity:1;stroke-width:0.5;" x1="263" x2="3036" y1="1055.54" y2="1055.54"/>
  <g id="H-reference" style="fill:#27AAE1;stroke:none;" transform="matrix(1 0 0 1 339 1556)">
   <path d="M0.976562 0L3.66211 0L12.9883-24.4629L45.752-24.4629L55.127 0L57.7637 0L30.6152-70.459L28.125-70.459ZM29.3457-67.1387L29.4434-67.1387L44.873-26.709L13.8672-26.709Z"/>
  </g>
  <line id="Baseline-L" style="fill:none;stroke:#27AAE1;opacity:1;stroke-width:0.5;" x1="263" x2="3036" y1="1556" y2="1556"/>
  <line id="Capline-L" style="fill:none;stroke:#27AAE1;opacity:1;stroke-width:0.5;" x1="263" x2="3036" y1="1485.54" y2="1485.54"/>
  <line id="left-margin" x1="1414.531165484407" x2="1414.531165484407" y1="1030.79" y2="1150.12" style="fill:none;stroke:#00AEEF;stroke-width:0.5;opacity:1.0;"/>
  <line id="right-margin" x1="1487.7288345155928" x2="1487.7288345155928" y1="1030.79" y2="1150.12" style="fill:none;stroke:#00AEEF;stroke-width:0.5;opacity:1.0;"/>
 </g>
 <g id="Symbols">
  <g id="Black-L" transform="matrix(1.0,0.0,0.0,1.0,2888.2110073571703,1474.2080889031345)">  <path stroke-linecap="round" stroke-opacity="1" fill-opacity="1" stroke-dasharray="none" stroke-miterlimit="4" stroke-width="1.15px" stroke-linejoin="round" fill="#000000" fill-rule="nonzero" stroke="none" d="M69.984,54.775L59.882,44.673C57.96,42.751,54.845,42.751,52.923,44.673L42.821,54.775L51.221,58.254L51.221,19.53C51.221,19.942,51.058,20.338,50.766,20.629C50.475,20.92,50.08,21.084,49.668,21.084L63.137,21.084C62.725,21.084,62.33,20.92,62.039,20.629C61.747,20.338,61.584,19.942,61.584,19.53L61.584,58.254L69.984,54.775ZM63.025,61.734C66.125,64.834,71.425,62.638,71.425,58.254L71.425,19.53C71.425,17.332,70.552,15.224,68.997,13.669C67.443,12.115,65.335,11.242,63.137,11.242L49.668,11.242C47.469,11.242,45.361,12.116,43.806,13.671C42.253,15.224,41.38,17.332,41.38,19.53L41.38,58.254C41.38,62.638,46.68,64.834,49.78,61.734L59.882,51.632L52.923,51.632L63.025,61.734Z"/>
  <path fill-rule="nonzero" stroke-linejoin="round" stroke-linecap="round" stroke-width="1.15px" stroke-dasharray="none" stroke="none" fill-opacity="1" stroke-miterlimit="4" fill="#000000" stroke-opacity="1" d="M66.504,26.135L73.239,26.135C72.827,26.135,72.432,25.971,72.141,25.68C71.849,25.389,71.686,24.993,71.686,24.581L71.686,81.826C71.686,81.414,71.849,81.019,72.141,80.727C72.432,80.436,72.827,80.272,73.239,80.272L26.097,80.272C25.616,80.272,25.154,80.081,24.814,79.741C24.474,79.401,24.283,78.94,24.283,78.459L24.283,14.48C24.283,11.762,22.08,9.559,19.362,9.559C16.644,9.559,14.441,11.762,14.441,14.48L14.441,78.459C14.441,81.55,15.669,84.515,17.855,86.7C20.041,88.886,23.005,90.114,26.097,90.114L73.239,90.114C75.437,90.114,77.545,89.241,79.1,87.686C80.654,86.132,81.527,84.024,81.527,81.826L81.527,24.581C81.527,22.383,80.654,20.275,79.1,18.721C77.545,17.166,75.437,16.293,73.239,16.293L66.504,16.293C63.787,16.293,61.584,18.496,61.584,21.214C61.584,23.932,63.787,26.135,66.504,26.135Z"/>
  <path fill-opacity="1" stroke-width="1.15px" stroke-linejoin="round" fill="#000000" stroke-miterlimit="4" stroke-dasharray="none" stroke="none" stroke-linecap="round" stroke-opacity="1" fill-rule="nonzero" d="M78.16,21.214L78.16,11.112C78.16,8.914,77.287,6.806,75.732,5.251C74.179,3.697,72.07,2.824,69.872,2.824L26.097,2.824C23.005,2.824,20.041,4.052,17.855,6.238C15.669,8.424,14.441,11.388,14.441,14.479C14.441,17.571,15.669,20.535,17.855,22.721C20.041,24.907,23.005,26.135,26.097,26.135L37.882,26.135C40.6,26.135,42.803,23.932,42.803,21.214C42.803,18.496,40.6,16.293,37.882,16.293L26.097,16.293C25.616,16.293,25.154,16.102,24.814,15.762C24.474,15.422,24.283,14.96,24.283,14.479C24.283,13.998,24.474,13.537,24.814,13.197C25.154,12.857,25.616,12.666,26.097,12.666L69.872,12.666C69.46,12.666,69.064,12.502,68.772,12.21C68.482,11.919,68.318,11.524,68.318,11.112L68.318,21.214C68.318,23.932,70.521,26.135,73.239,26.135C75.957,26.135,78.16,23.932,78.16,21.214Z"/>
</g>
  <g id="Heavy-L" transform="matrix(1.0,0.0,0.0,1.0,2591.5010073571702,1474.2080889031345)">  <path stroke-linecap="round" stroke-miterlimit="4" stroke-opacity="1" fill-rule="nonzero" fill-opacity="1" stroke-dasharray="none" stroke-width="1.15px" fill="#000000" stroke-linejoin="round" stroke="none" d="M69.603,55.156L59.501,45.054C57.79,43.342,55.015,43.342,53.304,45.054L43.202,55.156L50.683,58.254L50.683,19.53C50.683,19.799,50.576,20.058,50.385,20.248C50.195,20.438,49.937,20.545,49.668,20.545L63.137,20.545C62.868,20.545,62.61,20.438,62.42,20.248C62.229,20.058,62.122,19.799,62.122,19.53L62.122,58.254L69.603,55.156ZM63.406,61.353C66.166,64.113,70.887,62.158,70.887,58.254L70.887,19.53C70.887,17.475,70.07,15.504,68.616,14.05C67.163,12.597,65.192,11.781,63.137,11.781L49.668,11.781C47.612,11.781,45.641,12.598,44.188,14.052C42.735,15.504,41.919,17.475,41.919,19.53L41.919,58.254C41.919,62.158,46.639,64.113,49.399,61.353L59.501,51.251L53.304,51.251L63.406,61.353Z"/>
  <path stroke-opacity="1" stroke-linejoin="round" stroke-width="1.15px" stroke="none" stroke-dasharray="none" fill="#000000" fill-opacity="1" stroke-linecap="round" stroke-miterlimit="4" fill-rule="nonzero" d="M66.504,25.596L73.239,25.596C72.97,25.596,72.712,25.489,72.522,25.299C72.331,25.109,72.224,24.851,72.224,24.581L72.224,81.826C72.224,81.557,72.331,81.299,72.522,81.108C72.712,80.918,72.97,80.811,73.239,80.811L26.097,80.811C25.473,80.811,24.874,80.563,24.433,80.122C23.992,79.681,23.744,79.082,23.744,78.459L23.744,14.48C23.744,12.059,21.782,10.097,19.362,10.097C16.942,10.097,14.98,12.059,14.98,14.48L14.98,78.459C14.98,81.407,16.151,84.235,18.236,86.319C20.321,88.404,23.148,89.575,26.097,89.575L73.239,89.575C75.295,89.575,77.265,88.759,78.719,87.305C80.172,85.852,80.988,83.881,80.988,81.826L80.988,24.581C80.988,22.526,80.172,20.555,78.719,19.102C77.265,17.648,75.294,16.832,73.239,16.832L66.504,16.832C64.084,16.832,62.122,18.794,62.122,21.214C62.122,23.634,64.084,25.596,66.504,25.596Z"/>
  <path fill="#000000" fill-rule="nonzero" stroke="none" stroke-miterlimit="4" stroke-width="1.15px" stroke-dasharray="none" stroke-linejoin="round" stroke-opacity="1" stroke-linecap="round" fill-opacity="1" d="M77.621,21.214L77.621,11.112C77.621,9.057,76.805,7.086,75.351,5.632C73.899,4.179,71.927,3.363,69.872,3.363L26.097,3.363C23.148,3.363,20.321,4.534,18.236,6.619C16.151,8.704,14.98,11.531,14.98,14.479C14.98,17.428,16.151,20.255,18.236,22.34C20.321,24.425,23.148,25.596,26.097,25.596L37.882,25.596C40.302,25.596,42.264,23.634,42.264,21.214C42.264,18.794,40.302,16.832,37.882,16.832L26.097,16.832C25.473,16.832,24.874,16.584,24.433,16.143C23.992,15.702,23.744,15.103,23.744,14.479C23.744,13.856,23.992,13.257,24.433,12.816C24.874,12.375,25.473,12.127,26.097,12.127L69.872,12.127C69.603,12.127,69.344,12.02,69.153,11.829C68.964,11.639,68.857,11.381,68.857,11.112L68.857,21.214C68.857,23.634,70.819,25.596,73.239,25.596C75.659,25.596,77.621,23.634,77.621,21.214Z"/>
</g>
  <g id="Bold-L" transform="matrix(1.0,0.0,0.0,1.0,2294.79100735717,1474.2080889031345)">  <path stroke-opacity="1" fill-rule="nonzero" stroke-linejoin="round" stroke-dasharray="none" stroke-linecap="round" stroke="none" fill-opacity="1" stroke-miterlimit="4" fill="#000000" stroke-width="1.15px" d="M69.222,55.537L59.12,45.435C57.619,43.934,55.186,43.934,53.685,45.435L43.583,55.537L50.144,58.254L50.144,19.53C50.144,19.657,50.094,19.778,50.004,19.867C49.915,19.956,49.794,20.006,49.668,20.006L63.137,20.006C63.011,20.006,62.89,19.956,62.801,19.867C62.711,19.778,62.661,19.657,62.661,19.53L62.661,58.254L69.222,55.537ZM63.787,60.972C66.208,63.393,70.348,61.678,70.348,58.254L70.348,19.53C70.348,17.618,69.588,15.784,68.235,14.432C66.883,13.079,65.049,12.32,63.137,12.32L49.668,12.32C47.755,12.32,45.921,13.08,44.569,14.432C43.217,15.784,42.457,17.618,42.457,19.53L42.457,58.254C42.457,61.678,46.597,63.393,49.018,60.972L59.12,50.87L53.685,50.87L63.787,60.972Z"/>
  <path stroke="none" fill-rule="nonzero" fill-opacity="1" stroke-opacity="1" stroke-linejoin="round" stroke-miterlimit="4" stroke-linecap="round" fill="#000000" stroke-width="1.15px" stroke-dasharray="none" d="M66.504,25.057L73.239,25.057C73.113,25.057,72.992,25.007,72.903,24.918C72.813,24.829,72.763,24.708,72.763,24.581L72.763,81.826C72.763,81.7,72.813,81.579,72.903,81.489C72.992,81.4,73.113,81.35,73.239,81.35L26.097,81.35C25.33,81.35,24.594,81.045,24.052,80.503C23.51,79.961,23.205,79.225,23.205,78.459L23.205,14.48C23.205,12.357,21.485,10.636,19.362,10.636C17.24,10.636,15.519,12.357,15.519,14.48L15.519,78.459C15.519,81.264,16.633,83.955,18.617,85.938C20.601,87.922,23.291,89.036,26.097,89.036L73.239,89.036C75.152,89.036,76.985,88.277,78.338,86.924C79.69,85.572,80.45,83.738,80.45,81.826L80.45,24.581C80.45,22.669,79.69,20.835,78.338,19.483C76.985,18.13,75.151,17.371,73.239,17.371L66.504,17.371C64.382,17.371,62.661,19.092,62.661,21.214C62.661,23.337,64.382,25.057,66.504,25.057Z"/>
  <path stroke-linejoin="round" fill-rule="nonzero" stroke="none" stroke-opacity="1" stroke-width="1.15px" stroke-dasharray="none" stroke-miterlimit="4" stroke-linecap="round" fill-opacity="1" fill="#000000" d="M77.082,21.214L77.082,11.112C77.082,9.2,76.322,7.366,74.97,6.013C73.619,4.662,71.784,3.902,69.872,3.902L26.097,3.902C23.291,3.902,20.601,5.016,18.617,7C16.633,8.984,15.519,11.674,15.519,14.479C15.519,17.285,16.633,19.975,18.617,21.959C20.601,23.943,23.291,25.057,26.097,25.057L37.882,25.057C40.005,25.057,41.725,23.337,41.725,21.214C41.725,19.092,40.005,17.371,37.882,17.371L26.097,17.371C25.33,17.371,24.594,17.066,24.052,16.524C23.51,15.982,23.205,15.246,23.205,14.479C23.205,13.713,23.51,12.977,24.052,12.435C24.594,11.893,25.33,11.588,26.097,11.588L69.872,11.588C69.746,11.588,69.624,11.538,69.534,11.448C69.446,11.36,69.396,11.238,69.396,11.112L69.396,21.214C69.396,23.337,71.116,25.057,73.239,25.057C75.362,25.057,77.082,23.337,77.082,21.214Z"/>
</g>
  <g id="Semibold-L" transform="matrix(1.0,0.0,0.0,1.0,1998.0810073571702,1474.2080889031345)">  <path stroke-linecap="round" stroke-dasharray="none" fill-opacity="1" stroke-miterlimit="4" stroke-opacity="1" stroke-width="1.15px" stroke-linejoin="round" fill="#000000" stroke="none" fill-rule="nonzero" d="M68.841,55.918L58.739,45.816C57.449,44.525,55.356,44.525,54.066,45.816L43.964,55.918L49.605,58.254L49.605,19.53C49.605,19.514,49.611,19.498,49.623,19.486C49.635,19.474,49.651,19.467,49.668,19.467L63.137,19.467C63.154,19.467,63.17,19.474,63.182,19.486C63.194,19.498,63.2,19.514,63.2,19.53L63.2,58.254L68.841,55.918ZM64.168,60.591C66.25,62.672,69.809,61.198,69.809,58.254L69.809,19.53C69.809,17.761,69.106,16.064,67.854,14.813C66.603,13.562,64.906,12.859,63.137,12.859L49.668,12.859C47.898,12.859,46.201,13.562,44.95,14.813C43.699,16.064,42.996,17.761,42.996,19.53L42.996,58.254C42.996,61.198,46.555,62.672,48.637,60.591L58.739,50.489L54.066,50.489L64.168,60.591Z"/>
  <path stroke-opacity="1" stroke-miterlimit="4" fill-rule="nonzero" fill-opacity="1" stroke-width="1.15px" stroke-linejoin="round" stroke="none" stroke-dasharray="none" fill="#000000" stroke-linecap="round" d="M66.504,24.518L73.239,24.518C73.256,24.518,73.272,24.525,73.284,24.537C73.296,24.549,73.302,24.565,73.302,24.581L73.302,81.826C73.302,81.842,73.295,81.859,73.284,81.87C73.272,81.882,73.256,81.889,73.239,81.889L26.097,81.889C25.187,81.889,24.314,81.527,23.671,80.884C23.028,80.241,22.666,79.368,22.666,78.459L22.666,14.48C22.666,12.655,21.187,11.175,19.362,11.175C17.537,11.175,16.058,12.655,16.058,14.48L16.058,78.459C16.058,81.121,17.116,83.675,18.998,85.557C20.881,87.44,23.434,88.497,26.097,88.497L73.239,88.497C75.009,88.497,76.705,87.795,77.957,86.543C79.208,85.292,79.911,83.595,79.911,81.826L79.911,24.581C79.911,22.812,79.208,21.115,77.957,19.864C76.705,18.613,75.009,17.91,73.239,17.91L66.504,17.91C64.68,17.91,63.2,19.389,63.2,21.214C63.2,23.039,64.68,24.518,66.504,24.518Z"/>
  <path stroke-width="1.15px" stroke-dasharray="none" stroke="none" fill="#000000" fill-opacity="1" stroke-miterlimit="4" stroke-linejoin="round" fill-rule="nonzero" stroke-linecap="round" stroke-opacity="1" d="M76.543,21.214L76.543,11.112C76.543,9.343,75.84,7.646,74.589,6.394C73.339,5.144,71.642,4.44,69.872,4.44L26.097,4.44C23.434,4.44,20.881,5.498,18.998,7.381C17.115,9.264,16.058,11.817,16.058,14.479C16.058,17.142,17.115,19.695,18.998,21.578C20.881,23.461,23.434,24.518,26.097,24.518L37.882,24.518C39.707,24.518,41.187,23.039,41.187,21.214C41.187,19.389,39.707,17.91,37.882,17.91L26.097,17.91C25.187,17.91,24.314,17.548,23.671,16.905C23.028,16.262,22.666,15.389,22.666,14.479C22.666,13.57,23.028,12.697,23.671,12.054C24.314,11.411,25.187,11.049,26.097,11.049L69.872,11.049C69.888,11.049,69.904,11.056,69.916,11.067C69.928,11.08,69.935,11.095,69.935,11.112L69.935,21.214C69.935,23.039,71.414,24.518,73.239,24.518C75.064,24.518,76.543,23.039,76.543,21.214Z"/>
</g>
  <g id="Medium-L" transform="matrix(1.0,0.0,0.0,1.0,1701.3710073571701,1474.2080889031345)">  <path stroke-linejoin="round" fill="#000000" stroke="none" stroke-dasharray="none" stroke-linecap="round" fill-opacity="1" stroke-opacity="1" stroke-miterlimit="4" fill-rule="nonzero" stroke-width="1.15px" d="M68.46,56.299L58.358,46.197C57.278,45.117,55.527,45.117,54.447,46.197L44.345,56.299L49.066,58.254L49.066,19.53C49.066,19.371,49.129,19.218,49.242,19.105C49.355,18.992,49.508,18.929,49.668,18.929L63.137,18.929C63.297,18.929,63.45,18.992,63.563,19.105C63.676,19.218,63.739,19.371,63.739,19.53L63.739,58.254L68.46,56.299ZM64.549,60.21C66.291,61.952,69.27,60.718,69.27,58.254L69.27,19.53C69.27,17.904,68.624,16.344,67.474,15.194C66.323,14.044,64.763,13.398,63.137,13.398L49.668,13.398C48.041,13.398,46.481,14.044,45.331,15.194C44.181,16.344,43.535,17.904,43.535,19.53L43.535,58.254C43.535,60.718,46.514,61.952,48.256,60.21L58.358,50.108L54.447,50.108L64.549,60.21Z"/>
  <path stroke-width="1.15px" stroke="none" fill-opacity="1" stroke-miterlimit="4" stroke-dasharray="none" fill-rule="nonzero" stroke-opacity="1" stroke-linejoin="round" stroke-linecap="round" fill="#000000" d="M66.504,23.98L73.239,23.98C73.399,23.98,73.552,24.043,73.665,24.156C73.778,24.269,73.841,24.422,73.841,24.581L73.841,81.826C73.841,81.985,73.778,82.138,73.665,82.251C73.552,82.364,73.399,82.428,73.239,82.428L26.097,82.428C25.044,82.428,24.034,82.01,23.29,81.265C22.546,80.521,22.128,79.511,22.128,78.459L22.128,14.48C22.128,12.952,20.889,11.714,19.362,11.714C17.835,11.714,16.597,12.952,16.597,14.48L16.597,78.459C16.597,80.978,17.598,83.395,19.379,85.176C21.161,86.958,23.577,87.959,26.097,87.959L73.239,87.959C74.866,87.959,76.425,87.313,77.576,86.162C78.726,85.012,79.372,83.452,79.372,81.826L79.372,24.581C79.372,22.955,78.726,21.395,77.576,20.245C76.425,19.095,74.866,18.449,73.239,18.449L66.504,18.449C64.977,18.449,63.739,19.687,63.739,21.214C63.739,22.741,64.977,23.98,66.504,23.98Z"/>
  <path stroke-linejoin="round" stroke="none" stroke-linecap="round" stroke-width="1.15px" fill-opacity="1" fill-rule="nonzero" stroke-opacity="1" fill="#000000" stroke-dasharray="none" stroke-miterlimit="4" d="M76.004,21.214L76.004,11.112C76.004,9.486,75.358,7.926,74.208,6.775C73.059,5.626,71.499,4.979,69.872,4.979L26.097,4.979C23.577,4.979,21.161,5.98,19.379,7.762C17.597,9.543,16.597,11.96,16.597,14.479C16.597,16.999,17.598,19.415,19.379,21.197C21.161,22.979,23.577,23.98,26.097,23.98L37.882,23.98C39.41,23.98,40.648,22.741,40.648,21.214C40.648,19.687,39.41,18.449,37.882,18.449L26.097,18.449C25.044,18.449,24.034,18.03,23.29,17.286C22.546,16.542,22.128,15.532,22.128,14.479C22.128,13.427,22.546,12.417,23.29,11.673C24.034,10.928,25.044,10.51,26.097,10.51L69.872,10.51C70.031,10.51,70.184,10.574,70.297,10.686C70.41,10.8,70.474,10.952,70.474,11.112L70.474,21.214C70.474,22.741,71.712,23.98,73.239,23.98C74.766,23.98,76.004,22.741,76.004,21.214Z"/>
</g>
  <g id="Regular-L" transform="matrix(1.0,0.0,0.0,1.0,1404.66100735717,1474.2080889031345)">  <path stroke="none" stroke-linejoin="round" stroke-linecap="round" fill-opacity="1" fill="#000000" fill-rule="nonzero" stroke-dasharray="none" stroke-miterlimit="4" stroke-width="1.15px" stroke-opacity="1" d="M68.079,56.68L57.977,46.578C57.107,45.708,55.698,45.708,54.828,46.578L44.726,56.68L48.527,58.254L48.527,19.53C48.527,19.228,48.647,18.938,48.861,18.724C49.075,18.51,49.365,18.39,49.668,18.39L63.137,18.39C63.44,18.39,63.73,18.51,63.944,18.724C64.158,18.938,64.278,19.228,64.278,19.53L64.278,58.254L68.079,56.68ZM64.93,59.829C66.333,61.231,68.731,60.238,68.731,58.254L68.731,19.53C68.731,18.047,68.142,16.624,67.093,15.575C66.043,14.526,64.621,13.936,63.137,13.936L49.668,13.936C48.184,13.936,46.761,14.526,45.712,15.575C44.663,16.624,44.074,18.047,44.074,19.53L44.074,58.254C44.074,60.238,46.472,61.231,47.875,59.829L57.977,49.727L54.828,49.727L64.93,59.829Z"/>
  <path fill="#000000" fill-opacity="1" stroke-miterlimit="4" stroke-dasharray="none" stroke-opacity="1" stroke-linejoin="round" stroke-width="1.15px" stroke="none" fill-rule="nonzero" stroke-linecap="round" d="M66.504,23.441L73.239,23.441C73.542,23.441,73.832,23.561,74.046,23.775C74.26,23.989,74.38,24.279,74.38,24.581L74.38,81.826C74.38,82.128,74.26,82.418,74.046,82.632C73.832,82.846,73.542,82.967,73.239,82.967L26.097,82.967C24.901,82.967,23.754,82.492,22.909,81.646C22.064,80.801,21.589,79.654,21.589,78.459L21.589,14.48C21.589,13.25,20.592,12.253,19.362,12.253C18.132,12.253,17.135,13.25,17.135,14.48L17.135,78.459C17.135,80.835,18.08,83.115,19.76,84.795C21.441,86.476,23.72,87.42,26.097,87.42L73.239,87.42C74.723,87.42,76.145,86.831,77.195,85.781C78.244,84.732,78.833,83.309,78.833,81.826L78.833,24.581C78.833,23.098,78.244,21.675,77.195,20.626C76.145,19.577,74.723,18.987,73.239,18.987L66.504,18.987C65.275,18.987,64.278,19.984,64.278,21.214C64.278,22.444,65.275,23.441,66.504,23.441Z"/>
  <path stroke-opacity="1" stroke-linejoin="round" fill="#000000" stroke-dasharray="none" stroke-width="1.15px" fill-rule="nonzero" fill-opacity="1" stroke-miterlimit="4" stroke="none" stroke-linecap="round" d="M75.466,21.214L75.466,11.112C75.466,9.628,74.876,8.206,73.827,7.156C72.779,6.108,71.356,5.518,69.872,5.518L26.097,5.518C23.72,5.518,21.441,6.462,19.76,8.143C18.08,9.823,17.135,12.103,17.135,14.479C17.135,16.856,18.08,19.135,19.76,20.816C21.441,22.497,23.72,23.441,26.097,23.441L37.882,23.441C39.112,23.441,40.109,22.444,40.109,21.214C40.109,19.984,39.112,18.987,37.882,18.987L26.097,18.987C24.901,18.987,23.755,18.513,22.909,17.667C22.064,16.822,21.589,15.675,21.589,14.479C21.589,13.284,22.064,12.137,22.909,11.292C23.755,10.446,24.901,9.971,26.097,9.971L69.872,9.971C70.174,9.971,70.464,10.092,70.678,10.305C70.892,10.52,71.012,10.81,71.012,11.112L71.012,21.214C71.012,22.444,72.009,23.441,73.239,23.441C74.469,23.441,75.466,22.444,75.466,21.214Z"/>
</g>
  <g id="Light-L" transform="matrix(1.0,0.0,0.0,1.0,1107.9510073571703,1474.2080889031345)">  <path stroke-dasharray="none" fill-opacity="1" stroke-miterlimit="4" fill-rule="nonzero" stroke-linejoin="round" stroke-width="1.15px" fill="#000000" stroke-opacity="1" stroke-linecap="round" stroke="none" d="M67.817,56.942L57.715,46.84C56.99,46.116,55.815,46.116,55.09,46.84L44.988,56.942L48.156,58.254L48.156,19.53C48.156,19.129,48.315,18.745,48.599,18.461C48.882,18.178,49.267,18.019,49.668,18.019L63.137,18.019C63.538,18.019,63.923,18.178,64.206,18.461C64.49,18.745,64.649,19.129,64.649,19.53L64.649,58.254L67.817,56.942ZM65.192,59.566C66.361,60.735,68.36,59.907,68.36,58.254L68.36,19.53C68.36,18.145,67.81,16.817,66.83,15.837C65.851,14.858,64.522,14.308,63.137,14.308L49.668,14.308C48.282,14.308,46.954,14.858,45.974,15.838C44.995,16.817,44.445,18.145,44.445,19.53L44.445,58.254C44.445,59.907,46.444,60.735,47.613,59.566L57.715,49.464L55.09,49.464L65.192,59.566Z"/>
  <path stroke-miterlimit="4" stroke-linecap="round" stroke-dasharray="none" stroke-opacity="1" stroke-linejoin="round" fill-rule="nonzero" stroke-width="1.15px" stroke="none" fill="#000000" fill-opacity="1" d="M66.504,23.07L73.239,23.07C73.64,23.07,74.024,23.229,74.308,23.513C74.592,23.796,74.751,24.18,74.751,24.581L74.751,81.826C74.751,82.227,74.592,82.611,74.308,82.895C74.024,83.178,73.64,83.338,73.239,83.338L26.097,83.338C24.803,83.338,23.562,82.824,22.647,81.909C21.732,80.994,21.218,79.753,21.218,78.459L21.218,14.48C21.218,13.455,20.387,12.624,19.362,12.624C18.337,12.624,17.507,13.455,17.507,14.48L17.507,78.459C17.507,80.737,18.412,82.922,20.023,84.533C21.633,86.144,23.818,87.049,26.097,87.049L73.239,87.049C74.624,87.049,75.953,86.499,76.932,85.519C77.912,84.539,78.462,83.211,78.462,81.826L78.462,24.581C78.462,23.196,77.912,21.868,76.932,20.888C75.952,19.909,74.624,19.359,73.239,19.359L66.504,19.359C65.48,19.359,64.649,20.189,64.649,21.214C64.649,22.239,65.48,23.07,66.504,23.07Z"/>
  <path fill-rule="nonzero" fill-opacity="1" stroke-width="1.15px" stroke-linejoin="round" stroke-miterlimit="4" stroke="none" stroke-linecap="round" fill="#000000" stroke-dasharray="none" stroke-opacity="1" d="M75.095,21.214L75.095,11.112C75.095,9.727,74.544,8.398,73.565,7.419C72.586,6.44,71.257,5.889,69.872,5.889L26.097,5.889C23.818,5.889,21.634,6.794,20.023,8.405C18.412,10.016,17.507,12.201,17.507,14.479C17.507,16.758,18.412,18.943,20.023,20.554C21.634,22.165,23.818,23.07,26.097,23.07L37.882,23.07C38.907,23.07,39.738,22.239,39.738,21.214C39.738,20.189,38.907,19.359,37.882,19.359L26.097,19.359C24.803,19.359,23.562,18.845,22.647,17.93C21.732,17.015,21.218,15.773,21.218,14.479C21.218,13.185,21.732,11.944,22.647,11.029C23.562,10.114,24.803,9.6,26.097,9.6L69.872,9.6C70.273,9.6,70.657,9.76,70.94,10.043C71.224,10.327,71.383,10.711,71.383,11.112L71.383,21.214C71.383,22.239,72.214,23.07,73.239,23.07C74.264,23.07,75.095,22.239,75.095,21.214Z"/>
</g>
  <g id="Thin-L" transform="matrix(1.0,0.0,0.0,1.0,811.2410073571702,1474.2080889031345)">  <path stroke-linejoin="round" fill-opacity="1" stroke-dasharray="none" stroke-opacity="1" stroke-miterlimit="4" stroke-linecap="round" fill-rule="nonzero" stroke="none" fill="#000000" stroke-width="1.15px" d="M67.554,57.205L57.452,47.103C56.872,46.523,55.933,46.523,55.353,47.103L45.251,57.205L47.785,58.254L47.785,19.53C47.785,19.031,47.983,18.552,48.336,18.199C48.689,17.846,49.168,17.647,49.668,17.647L63.137,17.647C63.636,17.647,64.115,17.846,64.469,18.199C64.822,18.552,65.02,19.031,65.02,19.53L65.02,58.254L67.554,57.205ZM65.455,59.304C66.39,60.239,67.989,59.577,67.989,58.254L67.989,19.53C67.989,18.243,67.478,17.009,66.568,16.1C65.658,15.19,64.424,14.679,63.137,14.679L49.668,14.679C48.381,14.679,47.147,15.19,46.237,16.1C45.327,17.009,44.816,18.243,44.816,19.53L44.816,58.254C44.816,59.577,46.415,60.239,47.35,59.304L57.452,49.202L55.353,49.202L65.455,59.304Z"/>
  <path stroke-linejoin="round" fill="#000000" stroke-linecap="round" stroke-opacity="1" fill-opacity="1" stroke-width="1.15px" stroke="none" stroke-miterlimit="4" fill-rule="nonzero" stroke-dasharray="none" d="M66.504,22.699L73.239,22.699C73.739,22.699,74.217,22.897,74.571,23.25C74.924,23.603,75.122,24.082,75.122,24.581L75.122,81.826C75.122,82.325,74.924,82.804,74.571,83.157C74.217,83.51,73.739,83.709,73.239,83.709L26.097,83.709C24.704,83.709,23.369,83.156,22.384,82.171C21.4,81.186,20.847,79.851,20.847,78.459L20.847,14.48C20.847,13.66,20.182,12.995,19.362,12.995C18.542,12.995,17.878,13.66,17.878,14.48L17.878,78.459C17.878,80.638,18.744,82.729,20.285,84.27C21.826,85.812,23.917,86.678,26.097,86.678L73.239,86.678C74.526,86.678,75.76,86.167,76.67,85.257C77.58,84.347,78.091,83.112,78.091,81.826L78.091,24.581C78.091,23.295,77.58,22.061,76.67,21.151C75.76,20.241,74.526,19.73,73.239,19.73L66.504,19.73C65.685,19.73,65.02,20.394,65.02,21.214C65.02,22.034,65.685,22.699,66.504,22.699Z"/>
  <path stroke-width="1.15px" fill-rule="nonzero" stroke-linecap="round" stroke-miterlimit="4" fill-opacity="1" stroke-dasharray="none" stroke-linejoin="round" stroke="none" stroke-opacity="1" fill="#000000" d="M74.723,21.214L74.723,11.112C74.723,9.825,74.212,8.591,73.302,7.681C72.393,6.772,71.159,6.26,69.872,6.26L26.097,6.26C23.917,6.26,21.826,7.126,20.285,8.668C18.744,10.209,17.878,12.3,17.878,14.479C17.878,16.659,18.744,18.75,20.285,20.291C21.826,21.833,23.917,22.699,26.097,22.699L37.882,22.699C38.702,22.699,39.367,22.034,39.367,21.214C39.367,20.394,38.702,19.73,37.882,19.73L26.097,19.73C24.704,19.73,23.369,19.177,22.384,18.192C21.4,17.207,20.847,15.872,20.847,14.479C20.847,13.087,21.4,11.752,22.384,10.767C23.369,9.782,24.704,9.229,26.097,9.229L69.872,9.229C70.371,9.229,70.85,9.428,71.203,9.78C71.556,10.134,71.755,10.613,71.755,11.112L71.755,21.214C71.755,22.034,72.419,22.699,73.239,22.699C74.059,22.699,74.723,22.034,74.723,21.214Z"/>
</g>
  <g id="Ultralight-L" transform="matrix(1.0,0.0,0.0,1.0,514.5310073571702,1474.2080889031345)">  <path stroke-opacity="1" stroke-miterlimit="4" stroke-linecap="round" fill-rule="nonzero" fill="#000000" stroke="none" stroke-dasharray="none" stroke-width="1.15px" fill-opacity="1" stroke-linejoin="round" d="M67.292,57.467L57.19,47.365C56.755,46.93,56.05,46.93,55.615,47.365L45.513,57.467L47.414,58.254L47.414,19.53C47.414,18.932,47.651,18.359,48.074,17.937C48.497,17.514,49.07,17.276,49.668,17.276L63.137,17.276C63.735,17.276,64.308,17.514,64.731,17.937C65.154,18.359,65.391,18.932,65.391,19.53L65.391,58.254L67.292,57.467ZM65.717,59.042C66.419,59.743,67.618,59.246,67.618,58.254L67.618,19.53C67.618,18.342,67.146,17.202,66.305,16.362C65.465,15.522,64.325,15.05,63.137,15.05L49.668,15.05C48.479,15.05,47.339,15.522,46.499,16.362C45.659,17.202,45.187,18.342,45.187,19.53L45.187,58.254C45.187,59.246,46.386,59.743,47.088,59.042L57.19,48.94L55.615,48.94L65.717,59.042Z"/>
  <path stroke="none" stroke-width="1.15px" stroke-dasharray="none" stroke-linecap="round" fill="#000000" fill-rule="nonzero" fill-opacity="1" stroke-miterlimit="4" stroke-opacity="1" stroke-linejoin="round" d="M66.504,22.327L73.239,22.327C73.837,22.327,74.41,22.565,74.833,22.988C75.256,23.41,75.493,23.984,75.493,24.581L75.493,81.826C75.493,82.423,75.256,82.997,74.833,83.42C74.41,83.842,73.837,84.08,73.239,84.08L26.097,84.08C24.606,84.08,23.176,83.488,22.122,82.433C21.068,81.379,20.475,79.949,20.475,78.459L20.475,14.48C20.475,13.865,19.977,13.366,19.362,13.366C18.747,13.366,18.249,13.865,18.249,14.48L18.249,78.459C18.249,80.54,19.076,82.536,20.547,84.008C22.019,85.48,24.015,86.306,26.097,86.306L73.239,86.306C74.428,86.306,75.567,85.835,76.407,84.994C77.248,84.154,77.72,83.014,77.72,81.826L77.72,24.581C77.72,23.393,77.248,22.253,76.407,21.413C75.567,20.573,74.427,20.101,73.239,20.101L66.504,20.101C65.89,20.101,65.391,20.599,65.391,21.214C65.391,21.829,65.89,22.327,66.504,22.327Z"/>
  <path stroke-miterlimit="4" stroke-dasharray="none" stroke-linecap="round" stroke="none" fill-opacity="1" fill="#000000" stroke-opacity="1" fill-rule="nonzero" stroke-linejoin="round" stroke-width="1.15px" d="M74.352,21.214L74.352,11.112C74.352,9.924,73.88,8.784,73.04,7.944C72.2,7.104,71.06,6.632,69.872,6.632L26.097,6.632C24.015,6.632,22.019,7.458,20.547,8.93C19.076,10.402,18.249,12.398,18.249,14.479C18.249,16.561,19.076,18.557,20.547,20.029C22.019,21.501,24.015,22.327,26.097,22.327L37.882,22.327C38.497,22.327,38.996,21.829,38.996,21.214C38.996,20.599,38.497,20.101,37.882,20.101L26.097,20.101C24.606,20.101,23.176,19.509,22.122,18.454C21.068,17.4,20.475,15.97,20.475,14.479C20.475,12.989,21.068,11.559,22.122,10.505C23.176,9.45,24.606,8.858,26.097,8.858L69.872,8.858C70.47,8.858,71.043,9.096,71.465,9.518C71.888,9.941,72.126,10.514,72.126,11.112L72.126,21.214C72.126,21.829,72.624,22.327,73.239,22.327C73.854,22.327,74.352,21.829,74.352,21.214Z"/>
</g>
  <g id="Black-M" transform="matrix(1.0,0.0,0.0,1.0,2898.6575250830774,1054.6754996644938)">  <path stroke-linecap="round" stroke-opacity="1" fill-opacity="1" stroke-dasharray="none" stroke-miterlimit="4" stroke-width="1.15px" stroke-linejoin="round" fill="#000000" fill-rule="nonzero" stroke="none" d="M54.251,42.461L46.42,34.63C44.931,33.14,42.515,33.14,41.026,34.63L33.195,42.461L39.707,45.158L39.707,15.14C39.707,15.459,39.58,15.766,39.354,15.992C39.128,16.217,38.822,16.344,38.502,16.344L48.943,16.344C48.624,16.344,48.318,16.217,48.092,15.992C47.866,15.766,47.739,15.459,47.739,15.14L47.739,45.158L54.251,42.461ZM48.857,47.856C51.26,50.259,55.368,48.557,55.368,45.158L55.368,15.14C55.368,13.436,54.692,11.801,53.486,10.596C52.282,9.392,50.647,8.715,48.943,8.715L38.502,8.715C36.798,8.715,35.163,9.392,33.958,10.597C32.754,11.801,32.077,13.436,32.077,15.14L32.077,45.158C32.077,48.557,36.186,50.259,38.589,47.856L46.42,40.025L41.026,40.025L48.857,47.856Z"/>
  <path fill-rule="nonzero" stroke-linejoin="round" stroke-linecap="round" stroke-width="1.15px" stroke-dasharray="none" stroke="none" fill-opacity="1" stroke-miterlimit="4" fill="#000000" stroke-opacity="1" d="M51.554,20.26L56.774,20.26C56.455,20.26,56.149,20.133,55.923,19.907C55.697,19.681,55.57,19.375,55.57,19.055L55.57,63.431C55.57,63.111,55.697,62.805,55.923,62.579C56.149,62.354,56.455,62.227,56.774,62.227L20.23,62.227C19.857,62.227,19.5,62.079,19.236,61.815C18.972,61.551,18.824,61.193,18.824,60.821L18.824,11.224C18.824,9.118,17.116,7.41,15.009,7.41C12.903,7.41,11.195,9.118,11.195,11.224L11.195,60.821C11.195,63.217,12.147,65.515,13.841,67.21C15.535,68.904,17.834,69.856,20.23,69.856L56.774,69.856C58.479,69.856,60.113,69.179,61.318,67.974C62.523,66.769,63.199,65.135,63.199,63.431L63.199,19.055C63.199,17.351,62.523,15.717,61.317,14.512C60.112,13.307,58.479,12.63,56.774,12.63L51.554,12.63C49.447,12.63,47.739,14.338,47.739,16.445C47.739,18.552,49.447,20.26,51.554,20.26Z"/>
  <path fill-opacity="1" stroke-width="1.15px" stroke-linejoin="round" fill="#000000" stroke-miterlimit="4" stroke-dasharray="none" stroke="none" stroke-linecap="round" stroke-opacity="1" fill-rule="nonzero" d="M60.589,16.445L60.589,8.614C60.589,6.91,59.912,5.276,58.707,4.071C57.503,2.866,55.868,2.189,54.164,2.189L20.23,2.189C17.834,2.189,15.536,3.141,13.841,4.835C12.147,6.53,11.195,8.828,11.195,11.224C11.195,13.621,12.147,15.919,13.841,17.613C15.536,19.308,17.834,20.26,20.23,20.26L29.366,20.26C31.473,20.26,33.181,18.552,33.181,16.445C33.181,14.338,31.473,12.63,29.366,12.63L20.23,12.63C19.857,12.63,19.499,12.482,19.236,12.219C18.972,11.955,18.824,11.597,18.824,11.224C18.824,10.851,18.972,10.494,19.236,10.23C19.499,9.967,19.857,9.818,20.23,9.818L54.164,9.818C53.845,9.818,53.538,9.691,53.312,9.465C53.087,9.24,52.96,8.933,52.96,8.614L52.96,16.445C52.96,18.552,54.668,20.26,56.774,20.26C58.881,20.26,60.589,18.552,60.589,16.445Z"/>
</g>
  <g id="Heavy-M" transform="matrix(1.0,0.0,0.0,1.0,2601.9475250830774,1054.6754996644938)">  <path stroke-linecap="round" stroke-miterlimit="4" stroke-opacity="1" fill-rule="nonzero" fill-opacity="1" stroke-dasharray="none" stroke-width="1.15px" fill="#000000" stroke-linejoin="round" stroke="none" d="M53.956,42.756L46.125,34.925C44.798,33.599,42.647,33.599,41.321,34.925L33.49,42.756L39.289,45.158L39.289,15.14C39.289,15.348,39.206,15.549,39.058,15.696C38.911,15.843,38.711,15.926,38.502,15.926L48.943,15.926C48.735,15.926,48.535,15.844,48.387,15.696C48.24,15.549,48.157,15.348,48.157,15.14L48.157,45.158L53.956,42.756ZM49.152,47.56C51.292,49.7,54.951,48.185,54.951,45.158L54.951,15.14C54.951,13.546,54.318,12.018,53.191,10.892C52.065,9.765,50.537,9.133,48.943,9.133L38.502,9.133C36.909,9.133,35.38,9.766,34.254,10.893C33.128,12.018,32.495,13.546,32.495,15.14L32.495,45.158C32.495,48.185,36.154,49.7,38.294,47.56L46.125,39.729L41.321,39.729L49.152,47.56Z"/>
  <path stroke-opacity="1" stroke-linejoin="round" stroke-width="1.15px" stroke="none" stroke-dasharray="none" fill="#000000" fill-opacity="1" stroke-linecap="round" stroke-miterlimit="4" fill-rule="nonzero" d="M51.554,19.842L56.774,19.842C56.566,19.842,56.366,19.759,56.219,19.612C56.071,19.464,55.988,19.264,55.988,19.055L55.988,63.431C55.988,63.222,56.071,63.022,56.218,62.875C56.366,62.727,56.566,62.644,56.774,62.644L20.23,62.644C19.746,62.644,19.283,62.452,18.941,62.11C18.598,61.768,18.406,61.304,18.406,60.821L18.406,11.224C18.406,9.348,16.885,7.828,15.009,7.828C13.133,7.828,11.612,9.348,11.612,11.224L11.612,60.821C11.612,63.106,12.52,65.298,14.137,66.914C15.752,68.53,17.944,69.438,20.23,69.438L56.774,69.438C58.368,69.438,59.896,68.805,61.022,67.679C62.149,66.552,62.782,65.024,62.782,63.431L62.782,19.055C62.782,17.462,62.149,15.934,61.022,14.807C59.895,13.681,58.368,13.048,56.774,13.048L51.554,13.048C49.678,13.048,48.157,14.569,48.157,16.445C48.157,18.321,49.678,19.842,51.554,19.842Z"/>
  <path fill="#000000" fill-rule="nonzero" stroke="none" stroke-miterlimit="4" stroke-width="1.15px" stroke-dasharray="none" stroke-linejoin="round" stroke-opacity="1" stroke-linecap="round" fill-opacity="1" d="M60.171,16.445L60.171,8.614C60.171,7.021,59.538,5.493,58.412,4.366C57.286,3.24,55.758,2.607,54.164,2.607L20.23,2.607C17.944,2.607,15.753,3.515,14.136,5.131C12.52,6.747,11.612,8.939,11.612,11.224C11.612,13.51,12.52,15.702,14.136,17.318C15.753,18.934,17.944,19.842,20.23,19.842L29.366,19.842C31.242,19.842,32.763,18.321,32.763,16.445C32.763,14.569,31.242,13.048,29.366,13.048L20.23,13.048C19.746,13.048,19.282,12.856,18.94,12.514C18.598,12.172,18.406,11.708,18.406,11.224C18.406,10.741,18.598,10.277,18.94,9.935C19.282,9.593,19.746,9.401,20.23,9.401L54.164,9.401C53.956,9.401,53.755,9.318,53.607,9.17C53.46,9.023,53.378,8.823,53.378,8.614L53.378,16.445C53.378,18.321,54.898,19.842,56.774,19.842C58.65,19.842,60.171,18.321,60.171,16.445Z"/>
</g>
  <g id="Bold-M" transform="matrix(1.0,0.0,0.0,1.0,2305.2375250830773,1054.6754996644938)">  <path stroke-opacity="1" fill-rule="nonzero" stroke-linejoin="round" stroke-dasharray="none" stroke-linecap="round" stroke="none" fill-opacity="1" stroke-miterlimit="4" fill="#000000" stroke-width="1.15px" d="M53.66,43.052L45.829,35.221C44.666,34.057,42.78,34.057,41.616,35.221L33.785,43.052L38.871,45.158L38.871,15.14C38.871,15.238,38.832,15.332,38.763,15.401C38.694,15.47,38.6,15.509,38.502,15.509L48.943,15.509C48.846,15.509,48.752,15.47,48.683,15.401C48.614,15.332,48.575,15.238,48.575,15.14L48.575,45.158L53.66,43.052ZM49.447,47.265C51.324,49.142,54.533,47.813,54.533,45.158L54.533,15.14C54.533,13.657,53.944,12.235,52.896,11.187C51.847,10.139,50.426,9.55,48.943,9.55L38.502,9.55C37.019,9.55,35.597,10.139,34.549,11.188C33.502,12.235,32.913,13.657,32.913,15.14L32.913,45.158C32.913,47.813,36.122,49.142,37.999,47.265L45.829,39.434L41.616,39.434L49.447,47.265Z"/>
  <path stroke="none" fill-rule="nonzero" fill-opacity="1" stroke-opacity="1" stroke-linejoin="round" stroke-miterlimit="4" stroke-linecap="round" fill="#000000" stroke-width="1.15px" stroke-dasharray="none" d="M51.554,19.424L56.774,19.424C56.677,19.424,56.583,19.385,56.514,19.316C56.445,19.247,56.406,19.153,56.406,19.055L56.406,63.431C56.406,63.333,56.444,63.239,56.514,63.17C56.583,63.101,56.677,63.062,56.774,63.062L20.23,63.062C19.635,63.062,19.065,62.826,18.645,62.406C18.225,61.985,17.989,61.415,17.989,60.821L17.989,11.224C17.989,9.579,16.655,8.245,15.009,8.245C13.364,8.245,12.03,9.579,12.03,11.224L12.03,60.821C12.03,62.995,12.894,65.081,14.432,66.619C15.969,68.156,18.055,69.02,20.23,69.02L56.774,69.02C58.257,69.02,59.679,68.432,60.727,67.383C61.775,66.335,62.364,64.913,62.364,63.431L62.364,19.055C62.364,17.573,61.775,16.151,60.727,15.103C59.678,14.055,58.257,13.466,56.774,13.466L51.554,13.466C49.908,13.466,48.575,14.8,48.575,16.445C48.575,18.09,49.908,19.424,51.554,19.424Z"/>
  <path stroke-linejoin="round" fill-rule="nonzero" stroke="none" stroke-opacity="1" stroke-width="1.15px" stroke-dasharray="none" stroke-miterlimit="4" stroke-linecap="round" fill-opacity="1" fill="#000000" d="M59.754,16.445L59.754,8.614C59.754,7.132,59.165,5.71,58.116,4.661C57.069,3.614,55.647,3.025,54.164,3.025L20.23,3.025C18.055,3.025,15.97,3.888,14.432,5.426C12.894,6.964,12.03,9.05,12.03,11.224C12.03,13.399,12.894,15.485,14.432,17.023C15.97,18.56,18.055,19.424,20.23,19.424L29.366,19.424C31.011,19.424,32.345,18.09,32.345,16.445C32.345,14.8,31.011,13.466,29.366,13.466L20.23,13.466C19.636,13.466,19.065,13.23,18.645,12.809C18.225,12.389,17.989,11.819,17.989,11.224C17.989,10.63,18.225,10.06,18.645,9.639C19.065,9.219,19.636,8.983,20.23,8.983L54.164,8.983C54.066,8.983,53.972,8.944,53.903,8.874C53.834,8.806,53.795,8.712,53.795,8.614L53.795,16.445C53.795,18.09,55.129,19.424,56.774,19.424C58.42,19.424,59.754,18.09,59.754,16.445Z"/>
</g>
  <g id="Semibold-M" transform="matrix(1.0,0.0,0.0,1.0,2008.5275250830778,1054.6754996644938)">  <path stroke-linecap="round" stroke-dasharray="none" fill-opacity="1" stroke-miterlimit="4" stroke-opacity="1" stroke-width="1.15px" stroke-linejoin="round" fill="#000000" stroke="none" fill-rule="nonzero" d="M53.365,43.347L45.534,35.516C44.534,34.516,42.912,34.516,41.912,35.516L34.081,43.347L38.453,45.158L38.453,15.14C38.453,15.127,38.458,15.115,38.468,15.105C38.477,15.096,38.489,15.091,38.502,15.091L48.943,15.091C48.956,15.091,48.969,15.096,48.978,15.105C48.987,15.115,48.992,15.127,48.992,15.14L48.992,45.158L53.365,43.347ZM49.743,46.97C51.356,48.583,54.115,47.44,54.115,45.158L54.115,15.14C54.115,13.768,53.57,12.453,52.6,11.483C51.63,10.513,50.315,9.968,48.943,9.968L38.502,9.968C37.13,9.968,35.815,10.513,34.845,11.483C33.875,12.453,33.33,13.768,33.33,15.14L33.33,45.158C33.33,47.44,36.089,48.583,37.703,46.97L45.534,39.139L41.912,39.139L49.743,46.97Z"/>
  <path stroke-opacity="1" stroke-miterlimit="4" fill-rule="nonzero" fill-opacity="1" stroke-width="1.15px" stroke-linejoin="round" stroke="none" stroke-dasharray="none" fill="#000000" stroke-linecap="round" d="M51.554,19.007L56.774,19.007C56.788,19.007,56.8,19.012,56.809,19.021C56.818,19.03,56.823,19.042,56.823,19.055L56.823,63.431C56.823,63.444,56.818,63.456,56.809,63.465C56.8,63.475,56.788,63.48,56.774,63.48L20.23,63.48C19.525,63.48,18.848,63.2,18.35,62.701C17.851,62.202,17.571,61.526,17.571,60.821L17.571,11.224C17.571,9.81,16.424,8.663,15.009,8.663C13.595,8.663,12.448,9.81,12.448,11.224L12.448,60.821C12.448,62.885,13.268,64.864,14.727,66.323C16.186,67.783,18.166,68.603,20.23,68.603L56.774,68.603C58.146,68.603,59.462,68.058,60.432,67.088C61.401,66.118,61.946,64.802,61.946,63.431L61.946,19.055C61.946,17.684,61.401,16.368,60.431,15.398C59.461,14.428,58.146,13.884,56.774,13.884L51.554,13.884C50.139,13.884,48.992,15.03,48.992,16.445C48.992,17.86,50.139,19.007,51.554,19.007Z"/>
  <path stroke-width="1.15px" stroke-dasharray="none" stroke="none" fill="#000000" fill-opacity="1" stroke-miterlimit="4" stroke-linejoin="round" fill-rule="nonzero" stroke-linecap="round" stroke-opacity="1" d="M59.336,16.445L59.336,8.614C59.336,7.242,58.791,5.927,57.821,4.957C56.852,3.987,55.536,3.442,54.164,3.442L20.23,3.442C18.166,3.442,16.187,4.262,14.727,5.722C13.268,7.181,12.448,9.16,12.448,11.224C12.448,13.288,13.268,15.268,14.727,16.727C16.187,18.187,18.166,19.007,20.23,19.007L29.366,19.007C30.781,19.007,31.928,17.86,31.928,16.445C31.928,15.03,30.781,13.884,29.366,13.884L20.23,13.884C19.525,13.884,18.848,13.603,18.35,13.105C17.851,12.606,17.571,11.93,17.571,11.224C17.571,10.519,17.851,9.843,18.35,9.344C18.848,8.845,19.525,8.565,20.23,8.565L54.164,8.565C54.177,8.565,54.189,8.57,54.198,8.579C54.208,8.589,54.213,8.601,54.213,8.614L54.213,16.445C54.213,17.86,55.36,19.007,56.774,19.007C58.189,19.007,59.336,17.86,59.336,16.445Z"/>
</g>
  <g id="Medium-M" transform="matrix(1.0,0.0,0.0,1.0,1711.8175250830777,1054.6754996644938)">  <path stroke-linejoin="round" fill="#000000" stroke="none" stroke-dasharray="none" stroke-linecap="round" fill-opacity="1" stroke-opacity="1" stroke-miterlimit="4" fill-rule="nonzero" stroke-width="1.15px" d="M53.07,43.642L45.239,35.812C44.402,34.974,43.044,34.974,42.207,35.812L34.376,43.642L38.036,45.158L38.036,15.14C38.036,15.016,38.085,14.897,38.172,14.81C38.26,14.722,38.378,14.673,38.502,14.673L48.943,14.673C49.067,14.673,49.186,14.722,49.274,14.81C49.361,14.897,49.41,15.016,49.41,15.14L49.41,45.158L53.07,43.642ZM50.038,46.674C51.388,48.025,53.698,47.068,53.698,45.158L53.698,15.14C53.698,13.879,53.197,12.67,52.305,11.778C51.413,10.887,50.204,10.386,48.943,10.386L38.502,10.386C37.241,10.386,36.032,10.887,35.14,11.779C34.249,12.67,33.748,13.879,33.748,15.14L33.748,45.158C33.748,47.068,36.057,48.025,37.408,46.674L45.239,38.843L42.207,38.843L50.038,46.674Z"/>
  <path stroke-width="1.15px" stroke="none" fill-opacity="1" stroke-miterlimit="4" stroke-dasharray="none" fill-rule="nonzero" stroke-opacity="1" stroke-linejoin="round" stroke-linecap="round" fill="#000000" d="M51.554,18.589L56.774,18.589C56.898,18.589,57.017,18.638,57.105,18.726C57.192,18.813,57.241,18.932,57.241,19.055L57.241,63.431C57.241,63.555,57.192,63.673,57.104,63.761C57.017,63.848,56.898,63.897,56.774,63.897L20.23,63.897C19.414,63.897,18.631,63.573,18.054,62.996C17.477,62.419,17.153,61.637,17.153,60.821L17.153,11.224C17.153,10.04,16.193,9.081,15.009,9.081C13.825,9.081,12.866,10.04,12.866,11.224L12.866,60.821C12.866,62.774,13.642,64.647,15.023,66.028C16.404,67.409,18.277,68.185,20.23,68.185L56.774,68.185C58.035,68.185,59.244,67.684,60.136,66.793C61.028,65.901,61.529,64.692,61.529,63.431L61.529,19.055C61.529,17.794,61.028,16.585,60.136,15.694C59.244,14.802,58.035,14.301,56.774,14.301L51.554,14.301C50.37,14.301,49.41,15.261,49.41,16.445C49.41,17.629,50.37,18.589,51.554,18.589Z"/>
  <path stroke-linejoin="round" stroke="none" stroke-linecap="round" stroke-width="1.15px" fill-opacity="1" fill-rule="nonzero" stroke-opacity="1" fill="#000000" stroke-dasharray="none" stroke-miterlimit="4" d="M58.918,16.445L58.918,8.614C58.918,7.353,58.417,6.144,57.526,5.252C56.635,4.361,55.425,3.86,54.164,3.86L20.23,3.86C18.277,3.86,16.404,4.636,15.023,6.017C13.641,7.398,12.866,9.271,12.866,11.224C12.866,13.178,13.641,15.051,15.023,16.432C16.404,17.813,18.277,18.589,20.23,18.589L29.366,18.589C30.55,18.589,31.51,17.629,31.51,16.445C31.51,15.261,30.55,14.301,29.366,14.301L20.23,14.301C19.414,14.301,18.631,13.977,18.054,13.4C17.477,12.823,17.153,12.04,17.153,11.224C17.153,10.408,17.477,9.626,18.054,9.049C18.631,8.472,19.414,8.148,20.23,8.148L54.164,8.148C54.288,8.148,54.406,8.197,54.494,8.284C54.582,8.372,54.631,8.49,54.631,8.614L54.631,16.445C54.631,17.629,55.59,18.589,56.774,18.589C57.958,18.589,58.918,17.629,58.918,16.445Z"/>
</g>
  <g id="Regular-M" transform="matrix(1.0,0.0,0.0,1.0,1415.1075250830777,1054.6754996644938)">  <path stroke="none" stroke-linejoin="round" stroke-linecap="round" fill-opacity="1" fill="#000000" fill-rule="nonzero" stroke-dasharray="none" stroke-miterlimit="4" stroke-width="1.15px" stroke-opacity="1" d="M52.774,43.938L44.943,36.107C44.269,35.433,43.176,35.433,42.502,36.107L34.671,43.938L37.618,45.158L37.618,15.14C37.618,14.905,37.711,14.68,37.877,14.515C38.043,14.349,38.268,14.256,38.502,14.256L48.943,14.256C49.178,14.256,49.403,14.349,49.569,14.515C49.735,14.68,49.828,14.905,49.828,15.14L49.828,45.158L52.774,43.938ZM50.333,46.379C51.421,47.466,53.28,46.696,53.28,45.158L53.28,15.14C53.28,13.99,52.823,12.887,52.01,12.073C51.196,11.26,50.093,10.803,48.943,10.803L38.502,10.803C37.352,10.803,36.249,11.26,35.436,12.074C34.623,12.887,34.166,13.99,34.166,15.14L34.166,45.158C34.166,46.696,36.025,47.466,37.112,46.379L44.943,38.548L42.502,38.548L50.333,46.379Z"/>
  <path fill="#000000" fill-opacity="1" stroke-miterlimit="4" stroke-dasharray="none" stroke-opacity="1" stroke-linejoin="round" stroke-width="1.15px" stroke="none" fill-rule="nonzero" stroke-linecap="round" d="M51.554,18.171L56.774,18.171C57.009,18.171,57.234,18.264,57.4,18.43C57.566,18.596,57.659,18.821,57.659,19.055L57.659,63.431C57.659,63.665,57.566,63.89,57.4,64.056C57.234,64.222,57.009,64.315,56.774,64.315L20.23,64.315C19.303,64.315,18.414,63.947,17.759,63.292C17.104,62.636,16.735,61.747,16.735,60.821L16.735,11.224C16.735,10.271,15.963,9.498,15.009,9.498C14.056,9.498,13.283,10.271,13.283,11.224L13.283,60.821C13.283,62.663,14.015,64.43,15.318,65.733C16.621,67.035,18.388,67.767,20.23,67.767L56.774,67.767C57.925,67.767,59.027,67.31,59.841,66.497C60.654,65.684,61.111,64.581,61.111,63.431L61.111,19.055C61.111,17.905,60.654,16.802,59.841,15.989C59.027,15.176,57.925,14.719,56.774,14.719L51.554,14.719C50.601,14.719,49.828,15.492,49.828,16.445C49.828,17.398,50.601,18.171,51.554,18.171Z"/>
  <path stroke-opacity="1" stroke-linejoin="round" fill="#000000" stroke-dasharray="none" stroke-width="1.15px" fill-rule="nonzero" fill-opacity="1" stroke-miterlimit="4" stroke="none" stroke-linecap="round" d="M58.5,16.445L58.5,8.614C58.5,7.464,58.044,6.361,57.23,5.548C56.418,4.735,55.314,4.278,54.164,4.278L20.23,4.278C18.388,4.278,16.621,5.01,15.318,6.312C14.015,7.615,13.283,9.382,13.283,11.224C13.283,13.067,14.015,14.834,15.318,16.136C16.621,17.439,18.388,18.171,20.23,18.171L29.366,18.171C30.319,18.171,31.092,17.398,31.092,16.445C31.092,15.492,30.319,14.719,29.366,14.719L20.23,14.719C19.303,14.719,18.414,14.351,17.759,13.695C17.104,13.04,16.735,12.151,16.735,11.224C16.735,10.298,17.104,9.409,17.759,8.753C18.414,8.098,19.303,7.73,20.23,7.73L54.164,7.73C54.399,7.73,54.624,7.823,54.789,7.989C54.955,8.155,55.048,8.38,55.048,8.614L55.048,16.445C55.048,17.398,55.821,18.171,56.774,18.171C57.728,18.171,58.5,17.398,58.5,16.445Z"/>
</g>
  <g id="Light-M" transform="matrix(1.0,0.0,0.0,1.0,1118.3975250830779,1054.6754996644938)">  <path stroke-dasharray="none" fill-opacity="1" stroke-miterlimit="4" fill-rule="nonzero" stroke-linejoin="round" stroke-width="1.15px" fill="#000000" stroke-opacity="1" stroke-linecap="round" stroke="none" d="M52.571,44.141L44.74,36.31C44.178,35.749,43.268,35.749,42.706,36.31L34.875,44.141L37.33,45.158L37.33,15.14C37.33,14.829,37.454,14.531,37.673,14.311C37.893,14.091,38.191,13.968,38.502,13.968L48.943,13.968C49.254,13.968,49.552,14.091,49.772,14.311C49.992,14.531,50.115,14.829,50.115,15.14L50.115,45.158L52.571,44.141ZM50.537,46.175C51.443,47.082,52.992,46.44,52.992,45.158L52.992,15.14C52.992,14.066,52.566,13.036,51.806,12.277C51.047,11.518,50.017,11.091,48.943,11.091L38.502,11.091C37.428,11.091,36.398,11.518,35.639,12.277C34.88,13.036,34.453,14.066,34.453,15.14L34.453,45.158C34.453,46.44,36.003,47.082,36.909,46.175L44.74,38.344L42.706,38.344L50.537,46.175Z"/>
  <path stroke-miterlimit="4" stroke-linecap="round" stroke-dasharray="none" stroke-opacity="1" stroke-linejoin="round" fill-rule="nonzero" stroke-width="1.15px" stroke="none" fill="#000000" fill-opacity="1" d="M51.554,17.883L56.774,17.883C57.085,17.883,57.383,18.007,57.603,18.227C57.823,18.446,57.946,18.745,57.946,19.055L57.946,63.431C57.946,63.742,57.823,64.04,57.603,64.26C57.383,64.479,57.085,64.603,56.774,64.603L20.23,64.603C19.227,64.603,18.265,64.204,17.556,63.495C16.846,62.786,16.448,61.824,16.448,60.821L16.448,11.224C16.448,10.43,15.804,9.786,15.009,9.786C14.215,9.786,13.571,10.43,13.571,11.224L13.571,60.821C13.571,62.587,14.273,64.281,15.521,65.529C16.77,66.778,18.464,67.48,20.23,67.48L56.774,67.48C57.848,67.48,58.878,67.053,59.637,66.294C60.397,65.534,60.823,64.505,60.823,63.431L60.823,19.055C60.823,17.982,60.397,16.952,59.637,16.192C58.878,15.433,57.848,15.007,56.774,15.007L51.554,15.007C50.759,15.007,50.115,15.651,50.115,16.445C50.115,17.239,50.759,17.883,51.554,17.883Z"/>
  <path fill-rule="nonzero" fill-opacity="1" stroke-width="1.15px" stroke-linejoin="round" stroke-miterlimit="4" stroke="none" stroke-linecap="round" fill="#000000" stroke-dasharray="none" stroke-opacity="1" d="M58.213,16.445L58.213,8.614C58.213,7.54,57.786,6.51,57.027,5.751C56.268,4.992,55.238,4.565,54.164,4.565L20.23,4.565C18.464,4.565,16.77,5.267,15.521,6.516C14.273,7.765,13.571,9.458,13.571,11.224C13.571,12.99,14.273,14.684,15.521,15.933C16.77,17.182,18.464,17.883,20.23,17.883L29.366,17.883C30.161,17.883,30.805,17.239,30.805,16.445C30.805,15.651,30.161,15.007,29.366,15.007L20.23,15.007C19.227,15.007,18.265,14.608,17.556,13.899C16.846,13.19,16.448,12.227,16.448,11.224C16.448,10.221,16.846,9.259,17.556,8.55C18.265,7.841,19.227,7.442,20.23,7.442L54.164,7.442C54.475,7.442,54.773,7.566,54.992,7.785C55.213,8.005,55.336,8.303,55.336,8.614L55.336,16.445C55.336,17.239,55.98,17.883,56.774,17.883C57.569,17.883,58.213,17.239,58.213,16.445Z"/>
</g>
  <g id="Thin-M" transform="matrix(1.0,0.0,0.0,1.0,821.6875250830777,1054.6754996644938)">  <path stroke-linejoin="round" fill-opacity="1" stroke-dasharray="none" stroke-opacity="1" stroke-miterlimit="4" stroke-linecap="round" fill-rule="nonzero" stroke="none" fill="#000000" stroke-width="1.15px" d="M52.368,44.345L44.537,36.514C44.087,36.064,43.359,36.064,42.909,36.514L35.078,44.345L37.043,45.158L37.043,15.14C37.043,14.753,37.196,14.381,37.47,14.108C37.744,13.834,38.115,13.68,38.502,13.68L48.943,13.68C49.331,13.68,49.702,13.834,49.976,14.108C50.249,14.381,50.403,14.753,50.403,15.14L50.403,45.158L52.368,44.345ZM50.74,45.972C51.465,46.697,52.705,46.184,52.705,45.158L52.705,15.14C52.705,14.142,52.308,13.186,51.603,12.48C50.898,11.775,49.941,11.379,48.943,11.379L38.502,11.379C37.504,11.379,36.548,11.775,35.843,12.481C35.137,13.186,34.741,14.142,34.741,15.14L34.741,45.158C34.741,46.184,35.981,46.697,36.706,45.972L44.537,38.141L42.909,38.141L50.74,45.972Z"/>
  <path stroke-linejoin="round" fill="#000000" stroke-linecap="round" stroke-opacity="1" fill-opacity="1" stroke-width="1.15px" stroke="none" stroke-miterlimit="4" fill-rule="nonzero" stroke-dasharray="none" d="M51.554,17.596L56.774,17.596C57.162,17.596,57.533,17.749,57.807,18.023C58.08,18.297,58.234,18.668,58.234,19.055L58.234,63.431C58.234,63.818,58.08,64.189,57.807,64.463C57.533,64.737,57.162,64.89,56.774,64.89L20.23,64.89C19.151,64.89,18.115,64.462,17.352,63.698C16.589,62.935,16.16,61.9,16.16,60.821L16.16,11.224C16.16,10.589,15.645,10.074,15.009,10.074C14.374,10.074,13.859,10.589,13.859,11.224L13.859,60.821C13.859,62.51,14.53,64.131,15.725,65.326C16.92,66.521,18.54,67.192,20.23,67.192L56.774,67.192C57.772,67.192,58.729,66.796,59.434,66.09C60.139,65.385,60.536,64.428,60.536,63.431L60.536,19.055C60.536,18.058,60.139,17.101,59.434,16.396C58.728,15.691,57.772,15.294,56.774,15.294L51.554,15.294C50.918,15.294,50.403,15.81,50.403,16.445C50.403,17.081,50.918,17.596,51.554,17.596Z"/>
  <path stroke-width="1.15px" fill-rule="nonzero" stroke-linecap="round" stroke-miterlimit="4" fill-opacity="1" stroke-dasharray="none" stroke-linejoin="round" stroke="none" stroke-opacity="1" fill="#000000" d="M57.925,16.445L57.925,8.614C57.925,7.617,57.529,6.66,56.823,5.955C56.119,5.249,55.162,4.853,54.164,4.853L20.23,4.853C18.54,4.853,16.92,5.524,15.725,6.719C14.53,7.914,13.859,9.535,13.859,11.224C13.859,12.914,14.53,14.535,15.725,15.73C16.92,16.924,18.54,17.596,20.23,17.596L29.366,17.596C30.002,17.596,30.517,17.081,30.517,16.445C30.517,15.81,30.002,15.294,29.366,15.294L20.23,15.294C19.151,15.294,18.115,14.866,17.352,14.102C16.589,13.339,16.16,12.304,16.16,11.224C16.16,10.145,16.589,9.11,17.352,8.347C18.115,7.583,19.151,7.154,20.23,7.154L54.164,7.154C54.551,7.154,54.923,7.308,55.196,7.582C55.47,7.856,55.624,8.227,55.624,8.614L55.624,16.445C55.624,17.081,56.139,17.596,56.774,17.596C57.41,17.596,57.925,17.081,57.925,16.445Z"/>
</g>
  <g id="Ultralight-M" transform="matrix(1.0,0.0,0.0,1.0,524.9775250830777,1054.6754996644938)">  <path stroke-opacity="1" stroke-miterlimit="4" stroke-linecap="round" fill-rule="nonzero" fill="#000000" stroke="none" stroke-dasharray="none" stroke-width="1.15px" fill-opacity="1" stroke-linejoin="round" d="M52.164,44.548L44.333,36.717C43.996,36.38,43.45,36.38,43.113,36.717L35.282,44.548L36.755,45.158L36.755,15.14C36.755,14.676,36.939,14.232,37.267,13.904C37.594,13.577,38.039,13.393,38.502,13.393L48.943,13.393C49.407,13.393,49.851,13.577,50.179,13.904C50.507,14.232,50.691,14.676,50.691,15.14L50.691,45.158L52.164,44.548ZM50.944,45.769C51.487,46.312,52.417,45.927,52.417,45.158L52.417,15.14C52.417,14.219,52.051,13.335,51.399,12.684C50.748,12.032,49.865,11.666,48.943,11.666L38.502,11.666C37.581,11.666,36.697,12.032,36.046,12.684C35.395,13.335,35.029,14.219,35.029,15.14L35.029,45.158C35.029,45.927,35.958,46.312,36.502,45.769L44.333,37.938L43.113,37.938L50.944,45.769Z"/>
  <path stroke="none" stroke-width="1.15px" stroke-dasharray="none" stroke-linecap="round" fill="#000000" fill-rule="nonzero" fill-opacity="1" stroke-miterlimit="4" stroke-opacity="1" stroke-linejoin="round" d="M51.554,17.308L56.774,17.308C57.238,17.308,57.682,17.492,58.01,17.82C58.338,18.148,58.522,18.592,58.522,19.055L58.522,63.431C58.522,63.894,58.338,64.339,58.01,64.666C57.682,64.994,57.238,65.178,56.774,65.178L20.23,65.178C19.074,65.178,17.966,64.719,17.149,63.902C16.332,63.085,15.872,61.976,15.872,60.821L15.872,11.224C15.872,10.748,15.486,10.361,15.009,10.361C14.533,10.361,14.146,10.748,14.146,11.224L14.146,60.821C14.146,62.434,14.787,63.982,15.928,65.122C17.069,66.263,18.616,66.904,20.23,66.904L56.774,66.904C57.696,66.904,58.579,66.538,59.231,65.887C59.882,65.235,60.248,64.352,60.248,63.431L60.248,19.055C60.248,18.134,59.882,17.251,59.23,16.599C58.579,15.948,57.696,15.582,56.774,15.582L51.554,15.582C51.077,15.582,50.691,15.968,50.691,16.445C50.691,16.922,51.077,17.308,51.554,17.308Z"/>
  <path stroke-miterlimit="4" stroke-dasharray="none" stroke-linecap="round" stroke="none" fill-opacity="1" fill="#000000" stroke-opacity="1" fill-rule="nonzero" stroke-linejoin="round" stroke-width="1.15px" d="M57.637,16.445L57.637,8.614C57.637,7.693,57.272,6.809,56.62,6.158C55.969,5.507,55.086,5.141,54.164,5.141L20.23,5.141C18.617,5.141,17.069,5.782,15.928,6.923C14.787,8.063,14.146,9.611,14.146,11.224C14.146,12.838,14.787,14.385,15.928,15.526C17.069,16.667,18.617,17.308,20.23,17.308L29.366,17.308C29.843,17.308,30.229,16.922,30.229,16.445C30.229,15.968,29.843,15.582,29.366,15.582L20.23,15.582C19.074,15.582,17.966,15.123,17.149,14.306C16.332,13.488,15.872,12.38,15.872,11.224C15.872,10.069,16.332,8.96,17.149,8.143C17.966,7.326,19.074,6.867,20.23,6.867L54.164,6.867C54.628,6.867,55.072,7.051,55.399,7.378C55.727,7.706,55.911,8.151,55.911,8.614L55.911,16.445C55.911,16.922,56.298,17.308,56.774,17.308C57.251,17.308,57.637,16.922,57.637,16.445Z"/>
</g>
  <g id="Black-S" transform="matrix(1.0,0.0,0.0,1.0,2906.4744021400497,632.5080104755799)">  <path stroke-linecap="round" stroke-opacity="1" fill-opacity="1" stroke-dasharray="none" stroke-miterlimit="4" stroke-width="1.15px" stroke-linejoin="round" fill="#000000" fill-rule="nonzero" stroke="none" d="M42.479,33.247L36.347,27.115C35.181,25.949,33.289,25.949,32.123,27.115L25.991,33.247L31.09,35.359L31.09,11.854C31.09,12.105,30.991,12.345,30.814,12.521C30.637,12.698,30.397,12.797,30.147,12.797L38.323,12.797C38.073,12.797,37.833,12.698,37.656,12.521C37.479,12.345,37.38,12.105,37.38,11.854L37.38,35.359L42.479,33.247ZM38.255,37.471C40.136,39.353,43.354,38.02,43.354,35.359L43.354,11.854C43.354,10.52,42.823,9.24,41.88,8.297C40.936,7.354,39.657,6.824,38.323,6.824L30.147,6.824C28.813,6.824,27.533,7.354,26.589,8.298C25.647,9.24,25.116,10.52,25.116,11.854L25.116,35.359C25.116,38.02,28.334,39.353,30.215,37.471L36.347,31.339L32.123,31.339L38.255,37.471Z"/>
  <path fill-rule="nonzero" stroke-linejoin="round" stroke-linecap="round" stroke-width="1.15px" stroke-dasharray="none" stroke="none" fill-opacity="1" stroke-miterlimit="4" fill="#000000" stroke-opacity="1" d="M40.367,15.863L44.454,15.863C44.204,15.863,43.964,15.764,43.788,15.587C43.611,15.41,43.511,15.17,43.511,14.92L43.511,49.666C43.511,49.416,43.611,49.176,43.788,49C43.964,48.823,44.204,48.723,44.454,48.723L15.84,48.723C15.548,48.723,15.268,48.607,15.062,48.401C14.855,48.194,14.739,47.914,14.739,47.623L14.739,8.789C14.739,7.139,13.402,5.802,11.752,5.802C10.103,5.802,8.765,7.139,8.765,8.789L8.765,47.623C8.765,49.499,9.511,51.298,10.838,52.625C12.164,53.952,13.964,54.697,15.84,54.697L44.454,54.697C45.789,54.697,47.068,54.167,48.012,53.224C48.955,52.28,49.485,51,49.485,49.666L49.485,14.92C49.485,13.586,48.955,12.306,48.012,11.363C47.068,10.42,45.789,9.89,44.454,9.89L40.367,9.89C38.717,9.89,37.38,11.227,37.38,12.876C37.38,14.526,38.717,15.863,40.367,15.863Z"/>
  <path fill-opacity="1" stroke-width="1.15px" stroke-linejoin="round" fill="#000000" stroke-miterlimit="4" stroke-dasharray="none" stroke="none" stroke-linecap="round" stroke-opacity="1" fill-rule="nonzero" d="M47.441,12.876L47.441,6.745C47.441,5.41,46.911,4.131,45.968,3.187C45.025,2.244,43.745,1.714,42.411,1.714L15.84,1.714C13.964,1.714,12.164,2.459,10.838,3.786C9.511,5.113,8.765,6.912,8.765,8.789C8.765,10.665,9.511,12.464,10.838,13.791C12.164,15.118,13.964,15.863,15.84,15.863L22.994,15.863C24.643,15.863,25.981,14.526,25.981,12.876C25.981,11.227,24.643,9.89,22.994,9.89L15.84,9.89C15.548,9.89,15.268,9.774,15.062,9.567C14.855,9.361,14.739,9.081,14.739,8.789C14.739,8.497,14.855,8.217,15.062,8.01C15.268,7.804,15.548,7.688,15.84,7.688L42.411,7.688C42.16,7.688,41.92,7.588,41.743,7.411C41.567,7.235,41.468,6.995,41.468,6.745L41.468,12.876C41.468,14.526,42.805,15.863,44.454,15.863C46.104,15.863,47.441,14.526,47.441,12.876Z"/>
</g>
  <g id="Heavy-S" transform="matrix(1.0,0.0,0.0,1.0,2609.7644021400497,632.5080104755799)">  <path stroke-linecap="round" stroke-miterlimit="4" stroke-opacity="1" fill-rule="nonzero" fill-opacity="1" stroke-dasharray="none" stroke-width="1.15px" fill="#000000" stroke-linejoin="round" stroke="none" d="M42.247,33.478L36.116,27.347C35.077,26.308,33.393,26.308,32.354,27.347L26.223,33.478L30.763,35.359L30.763,11.854C30.763,12.018,30.698,12.175,30.583,12.29C30.467,12.405,30.311,12.47,30.147,12.47L38.323,12.47C38.159,12.47,38.003,12.406,37.887,12.29C37.772,12.175,37.707,12.018,37.707,11.854L37.707,35.359L42.247,33.478ZM38.486,37.24C40.161,38.915,43.026,37.729,43.026,35.359L43.026,11.854C43.026,10.607,42.531,9.41,41.649,8.528C40.767,7.646,39.57,7.151,38.323,7.151L30.147,7.151C28.899,7.151,27.703,7.646,26.821,8.529C25.939,9.41,25.444,10.607,25.444,11.854L25.444,35.359C25.444,37.729,28.309,38.915,29.984,37.24L36.116,31.108L32.354,31.108L38.486,37.24Z"/>
  <path stroke-opacity="1" stroke-linejoin="round" stroke-width="1.15px" stroke="none" stroke-dasharray="none" fill="#000000" fill-opacity="1" stroke-linecap="round" stroke-miterlimit="4" fill-rule="nonzero" d="M40.367,15.536L44.454,15.536C44.291,15.536,44.134,15.471,44.019,15.356C43.903,15.24,43.839,15.084,43.839,14.92L43.839,49.666C43.839,49.503,43.903,49.346,44.019,49.231C44.134,49.115,44.291,49.05,44.454,49.05L15.84,49.05C15.461,49.05,15.098,48.9,14.831,48.632C14.563,48.364,14.412,48.001,14.412,47.623L14.412,8.789C14.412,7.32,13.221,6.129,11.752,6.129C10.283,6.129,9.093,7.32,9.093,8.789L9.093,47.623C9.093,49.412,9.804,51.129,11.069,52.394C12.334,53.659,14.05,54.37,15.84,54.37L44.454,54.37C45.702,54.37,46.898,53.875,47.78,52.992C48.663,52.11,49.158,50.914,49.158,49.666L49.158,14.92C49.158,13.673,48.663,12.476,47.78,11.594C46.898,10.712,45.702,10.217,44.454,10.217L40.367,10.217C38.898,10.217,37.707,11.408,37.707,12.876C37.707,14.345,38.898,15.536,40.367,15.536Z"/>
  <path fill="#000000" fill-rule="nonzero" stroke="none" stroke-miterlimit="4" stroke-width="1.15px" stroke-dasharray="none" stroke-linejoin="round" stroke-opacity="1" stroke-linecap="round" fill-opacity="1" d="M47.114,12.876L47.114,6.745C47.114,5.497,46.619,4.301,45.736,3.419C44.855,2.537,43.658,2.041,42.411,2.041L15.84,2.041C14.051,2.041,12.334,2.752,11.069,4.017C9.803,5.283,9.093,6.999,9.093,8.789C9.093,10.578,9.803,12.295,11.069,13.56C12.334,14.825,14.051,15.536,15.84,15.536L22.994,15.536C24.463,15.536,25.653,14.345,25.653,12.876C25.653,11.408,24.463,10.217,22.994,10.217L15.84,10.217C15.461,10.217,15.098,10.066,14.83,9.798C14.563,9.531,14.412,9.167,14.412,8.789C14.412,8.41,14.563,8.047,14.83,7.779C15.098,7.511,15.461,7.361,15.84,7.361L42.411,7.361C42.247,7.361,42.09,7.296,41.974,7.18C41.86,7.065,41.795,6.908,41.795,6.745L41.795,12.876C41.795,14.345,42.985,15.536,44.454,15.536C45.923,15.536,47.114,14.345,47.114,12.876Z"/>
</g>
  <g id="Bold-S" transform="matrix(1.0,0.0,0.0,1.0,2313.0544021400497,632.5080104755799)">  <path stroke-opacity="1" fill-rule="nonzero" stroke-linejoin="round" stroke-dasharray="none" stroke-linecap="round" stroke="none" fill-opacity="1" stroke-miterlimit="4" fill="#000000" stroke-width="1.15px" d="M42.016,33.71L35.884,27.578C34.974,26.667,33.497,26.667,32.586,27.578L26.454,33.71L30.436,35.359L30.436,11.854C30.436,11.931,30.406,12.005,30.351,12.059C30.297,12.113,30.224,12.143,30.147,12.143L38.323,12.143C38.246,12.143,38.173,12.113,38.119,12.059C38.064,12.005,38.034,11.931,38.034,11.854L38.034,35.359L42.016,33.71ZM38.717,37.008C40.187,38.478,42.699,37.437,42.699,35.359L42.699,11.854C42.699,10.694,42.238,9.58,41.417,8.76C40.597,7.939,39.483,7.478,38.323,7.478L30.147,7.478C28.986,7.478,27.873,7.939,27.052,8.76C26.232,9.58,25.771,10.694,25.771,11.854L25.771,35.359C25.771,37.437,28.283,38.478,29.753,37.008L35.884,30.877L32.586,30.877L38.717,37.008Z"/>
  <path stroke="none" fill-rule="nonzero" fill-opacity="1" stroke-opacity="1" stroke-linejoin="round" stroke-miterlimit="4" stroke-linecap="round" fill="#000000" stroke-width="1.15px" stroke-dasharray="none" d="M40.367,15.209L44.454,15.209C44.378,15.209,44.304,15.179,44.25,15.125C44.196,15.07,44.166,14.997,44.166,14.92L44.166,49.666C44.166,49.59,44.196,49.516,44.25,49.462C44.304,49.408,44.378,49.378,44.454,49.378L15.84,49.378C15.375,49.378,14.928,49.193,14.599,48.864C14.27,48.534,14.085,48.088,14.085,47.623L14.085,8.789C14.085,7.5,13.041,6.456,11.752,6.456C10.464,6.456,9.42,7.5,9.42,8.789L9.42,47.623C9.42,49.325,10.096,50.959,11.3,52.163C12.504,53.367,14.137,54.043,15.84,54.043L44.454,54.043C45.615,54.043,46.728,53.582,47.549,52.761C48.37,51.94,48.831,50.827,48.831,49.666L48.831,14.92C48.831,13.76,48.37,12.646,47.549,11.826C46.728,11.005,45.615,10.544,44.454,10.544L40.367,10.544C39.078,10.544,38.034,11.588,38.034,12.876C38.034,14.165,39.078,15.209,40.367,15.209Z"/>
  <path stroke-linejoin="round" fill-rule="nonzero" stroke="none" stroke-opacity="1" stroke-width="1.15px" stroke-dasharray="none" stroke-miterlimit="4" stroke-linecap="round" fill-opacity="1" fill="#000000" d="M46.787,12.876L46.787,6.745C46.787,5.584,46.326,4.471,45.505,3.65C44.685,2.829,43.571,2.368,42.411,2.368L15.84,2.368C14.137,2.368,12.504,3.045,11.3,4.249C10.096,5.453,9.42,7.086,9.42,8.789C9.42,10.492,10.096,12.125,11.3,13.329C12.504,14.533,14.137,15.209,15.84,15.209L22.994,15.209C24.282,15.209,25.326,14.165,25.326,12.876C25.326,11.588,24.282,10.544,22.994,10.544L15.84,10.544C15.375,10.544,14.928,10.359,14.599,10.03C14.27,9.701,14.085,9.254,14.085,8.789C14.085,8.323,14.27,7.877,14.599,7.548C14.928,7.219,15.375,7.034,15.84,7.034L42.411,7.034C42.334,7.034,42.26,7.003,42.206,6.949C42.152,6.895,42.122,6.821,42.122,6.745L42.122,12.876C42.122,14.165,43.166,15.209,44.454,15.209C45.743,15.209,46.787,14.165,46.787,12.876Z"/>
</g>
  <g id="Semibold-S" transform="matrix(1.0,0.0,0.0,1.0,2016.3444021400499,632.5080104755799)">  <path stroke-linecap="round" stroke-dasharray="none" fill-opacity="1" stroke-miterlimit="4" stroke-opacity="1" stroke-width="1.15px" stroke-linejoin="round" fill="#000000" stroke="none" fill-rule="nonzero" d="M41.785,33.941L35.653,27.809C34.87,27.026,33.6,27.026,32.817,27.809L26.685,33.941L30.109,35.359L30.109,11.854C30.109,11.844,30.113,11.835,30.12,11.828C30.127,11.82,30.137,11.816,30.147,11.816L38.323,11.816C38.333,11.816,38.343,11.82,38.35,11.828C38.357,11.835,38.361,11.844,38.361,11.854L38.361,35.359L41.785,33.941ZM38.948,36.777C40.212,38.041,42.372,37.146,42.372,35.359L42.372,11.854C42.372,10.78,41.946,9.75,41.186,8.991C40.427,8.232,39.397,7.805,38.323,7.805L30.147,7.805C29.073,7.805,28.043,8.232,27.283,8.991C26.524,9.75,26.098,10.78,26.098,11.854L26.098,35.359C26.098,37.146,28.258,38.041,29.522,36.777L35.653,30.646L32.817,30.646L38.948,36.777Z"/>
  <path stroke-opacity="1" stroke-miterlimit="4" fill-rule="nonzero" fill-opacity="1" stroke-width="1.15px" stroke-linejoin="round" stroke="none" stroke-dasharray="none" fill="#000000" stroke-linecap="round" d="M40.367,14.882L44.454,14.882C44.465,14.882,44.474,14.886,44.482,14.893C44.489,14.901,44.493,14.91,44.493,14.92L44.493,49.666C44.493,49.676,44.489,49.686,44.481,49.693C44.474,49.701,44.465,49.705,44.454,49.705L15.84,49.705C15.288,49.705,14.758,49.485,14.368,49.095C13.977,48.704,13.758,48.175,13.758,47.623L13.758,8.789C13.758,7.681,12.86,6.783,11.752,6.783C10.645,6.783,9.747,7.681,9.747,8.789L9.747,47.623C9.747,49.239,10.389,50.789,11.532,51.931C12.674,53.074,14.224,53.716,15.84,53.716L44.454,53.716C45.529,53.716,46.558,53.289,47.318,52.53C48.077,51.77,48.504,50.74,48.504,49.666L48.504,14.92C48.504,13.846,48.077,12.816,47.318,12.057C46.558,11.297,45.528,10.871,44.454,10.871L40.367,10.871C39.259,10.871,38.361,11.769,38.361,12.876C38.361,13.984,39.259,14.882,40.367,14.882Z"/>
  <path stroke-width="1.15px" stroke-dasharray="none" stroke="none" fill="#000000" fill-opacity="1" stroke-miterlimit="4" stroke-linejoin="round" fill-rule="nonzero" stroke-linecap="round" stroke-opacity="1" d="M46.46,12.876L46.46,6.745C46.46,5.671,46.033,4.641,45.274,3.881C44.515,3.122,43.485,2.695,42.411,2.695L15.84,2.695C14.224,2.695,12.674,3.337,11.531,4.48C10.389,5.623,9.747,7.173,9.747,8.789C9.747,10.405,10.389,11.955,11.531,13.097C12.674,14.24,14.224,14.882,15.84,14.882L22.994,14.882C24.101,14.882,24.999,13.984,24.999,12.876C24.999,11.769,24.101,10.871,22.994,10.871L15.84,10.871C15.288,10.871,14.758,10.651,14.368,10.261C13.977,9.871,13.758,9.341,13.758,8.789C13.758,8.236,13.977,7.707,14.368,7.316C14.758,6.926,15.288,6.707,15.84,6.707L42.411,6.707C42.421,6.707,42.43,6.711,42.437,6.717C42.445,6.725,42.449,6.735,42.449,6.745L42.449,12.876C42.449,13.984,43.347,14.882,44.454,14.882C45.562,14.882,46.46,13.984,46.46,12.876Z"/>
</g>
  <g id="Medium-S" transform="matrix(1.0,0.0,0.0,1.0,1719.6344021400498,632.5080104755799)">  <path stroke-linejoin="round" fill="#000000" stroke="none" stroke-dasharray="none" stroke-linecap="round" fill-opacity="1" stroke-opacity="1" stroke-miterlimit="4" fill-rule="nonzero" stroke-width="1.15px" d="M41.554,34.172L35.422,28.04C34.766,27.385,33.704,27.385,33.048,28.04L26.916,34.172L29.782,35.359L29.782,11.854C29.782,11.758,29.82,11.665,29.889,11.596C29.957,11.528,30.05,11.489,30.147,11.489L38.323,11.489C38.42,11.489,38.513,11.528,38.581,11.596C38.65,11.665,38.688,11.758,38.688,11.854L38.688,35.359L41.554,34.172ZM39.18,36.546C40.237,37.603,42.045,36.854,42.045,35.359L42.045,11.854C42.045,10.867,41.653,9.92,40.955,9.222C40.257,8.524,39.31,8.132,38.323,8.132L30.147,8.132C29.16,8.132,28.213,8.524,27.515,9.223C26.817,9.92,26.425,10.867,26.425,11.854L26.425,35.359C26.425,36.854,28.233,37.603,29.29,36.546L35.422,30.414L33.048,30.414L39.18,36.546Z"/>
  <path stroke-width="1.15px" stroke="none" fill-opacity="1" stroke-miterlimit="4" stroke-dasharray="none" fill-rule="nonzero" stroke-opacity="1" stroke-linejoin="round" stroke-linecap="round" fill="#000000" d="M40.367,14.555L44.454,14.555C44.551,14.555,44.644,14.594,44.713,14.662C44.781,14.731,44.82,14.823,44.82,14.92L44.82,49.666C44.82,49.763,44.781,49.856,44.713,49.925C44.644,49.993,44.551,50.032,44.454,50.032L15.84,50.032C15.201,50.032,14.588,49.778,14.137,49.326C13.685,48.874,13.431,48.261,13.431,47.623L13.431,8.789C13.431,7.862,12.679,7.11,11.752,7.11C10.825,7.11,10.074,7.862,10.074,8.789L10.074,47.623C10.074,49.152,10.681,50.619,11.763,51.7C12.844,52.781,14.311,53.389,15.84,53.389L44.454,53.389C45.442,53.389,46.388,52.997,47.087,52.299C47.785,51.6,48.177,50.654,48.177,49.666L48.177,14.92C48.177,13.933,47.785,12.986,47.087,12.288C46.388,11.59,45.442,11.198,44.454,11.198L40.367,11.198C39.44,11.198,38.688,11.949,38.688,12.876C38.688,13.804,39.44,14.555,40.367,14.555Z"/>
  <path stroke-linejoin="round" stroke="none" stroke-linecap="round" stroke-width="1.15px" fill-opacity="1" fill-rule="nonzero" stroke-opacity="1" fill="#000000" stroke-dasharray="none" stroke-miterlimit="4" d="M46.133,12.876L46.133,6.745C46.133,5.757,45.741,4.811,45.043,4.113C44.345,3.415,43.398,3.022,42.411,3.022L15.84,3.022C14.311,3.022,12.844,3.63,11.763,4.711C10.681,5.793,10.074,7.259,10.074,8.789C10.074,10.318,10.681,11.785,11.763,12.866C12.844,13.948,14.311,14.555,15.84,14.555L22.994,14.555C23.921,14.555,24.672,13.804,24.672,12.876C24.672,11.949,23.921,11.198,22.994,11.198L15.84,11.198C15.201,11.198,14.588,10.944,14.137,10.492C13.685,10.04,13.431,9.428,13.431,8.789C13.431,8.15,13.685,7.537,14.137,7.085C14.588,6.633,15.201,6.38,15.84,6.38L42.411,6.38C42.507,6.38,42.6,6.418,42.668,6.486C42.737,6.555,42.776,6.648,42.776,6.745L42.776,12.876C42.776,13.804,43.527,14.555,44.454,14.555C45.381,14.555,46.133,13.804,46.133,12.876Z"/>
</g>
  <g id="Regular-S" transform="matrix(1.0,0.0,0.0,1.0,1422.9244021400498,632.5080104755799)">  <path stroke="none" stroke-linejoin="round" stroke-linecap="round" fill-opacity="1" fill="#000000" fill-rule="nonzero" stroke-dasharray="none" stroke-miterlimit="4" stroke-width="1.15px" stroke-opacity="1" d="M41.322,34.403L35.191,28.272C34.663,27.744,33.807,27.744,33.279,28.272L27.148,34.403L29.455,35.359L29.455,11.854C29.455,11.671,29.528,11.495,29.658,11.365C29.787,11.235,29.964,11.162,30.147,11.162L38.323,11.162C38.506,11.162,38.683,11.235,38.812,11.365C38.942,11.495,39.015,11.671,39.015,11.854L39.015,35.359L41.322,34.403ZM39.411,36.315C40.262,37.166,41.718,36.563,41.718,35.359L41.718,11.854C41.718,10.954,41.36,10.09,40.724,9.453C40.087,8.817,39.223,8.459,38.323,8.459L30.147,8.459C29.247,8.459,28.383,8.817,27.746,9.454C27.11,10.09,26.752,10.954,26.752,11.854L26.752,35.359C26.752,36.563,28.208,37.166,29.059,36.315L35.191,30.183L33.279,30.183L39.411,36.315Z"/>
  <path fill="#000000" fill-opacity="1" stroke-miterlimit="4" stroke-dasharray="none" stroke-opacity="1" stroke-linejoin="round" stroke-width="1.15px" stroke="none" fill-rule="nonzero" stroke-linecap="round" d="M40.367,14.228L44.454,14.228C44.638,14.228,44.814,14.301,44.944,14.431C45.074,14.561,45.147,14.737,45.147,14.92L45.147,49.666C45.147,49.85,45.074,50.026,44.944,50.156C44.814,50.286,44.638,50.359,44.454,50.359L15.84,50.359C15.114,50.359,14.418,50.07,13.905,49.557C13.392,49.044,13.104,48.348,13.104,47.623L13.104,8.789C13.104,8.042,12.499,7.437,11.752,7.437C11.006,7.437,10.401,8.042,10.401,8.789L10.401,47.623C10.401,49.065,10.974,50.449,11.994,51.469C13.014,52.489,14.397,53.062,15.84,53.062L44.454,53.062C45.355,53.062,46.218,52.704,46.855,52.067C47.492,51.43,47.85,50.567,47.85,49.666L47.85,14.92C47.85,14.02,47.492,13.156,46.855,12.519C46.218,11.883,45.355,11.525,44.454,11.525L40.367,11.525C39.62,11.525,39.015,12.13,39.015,12.876C39.015,13.623,39.62,14.228,40.367,14.228Z"/>
  <path stroke-opacity="1" stroke-linejoin="round" fill="#000000" stroke-dasharray="none" stroke-width="1.15px" fill-rule="nonzero" fill-opacity="1" stroke-miterlimit="4" stroke="none" stroke-linecap="round" d="M45.806,12.876L45.806,6.745C45.806,5.844,45.448,4.981,44.811,4.344C44.175,3.707,43.311,3.349,42.411,3.349L15.84,3.349C14.398,3.349,13.014,3.922,11.994,4.943C10.974,5.963,10.401,7.346,10.401,8.789C10.401,10.231,10.974,11.615,11.994,12.635C13.014,13.655,14.398,14.228,15.84,14.228L22.994,14.228C23.74,14.228,24.345,13.623,24.345,12.876C24.345,12.13,23.74,11.525,22.994,11.525L15.84,11.525C15.114,11.525,14.418,11.237,13.905,10.724C13.392,10.21,13.104,9.514,13.104,8.789C13.104,8.063,13.392,7.367,13.905,6.854C14.418,6.341,15.114,6.052,15.84,6.052L42.411,6.052C42.594,6.052,42.77,6.125,42.9,6.255C43.03,6.385,43.103,6.561,43.103,6.745L43.103,12.876C43.103,13.623,43.708,14.228,44.454,14.228C45.201,14.228,45.806,13.623,45.806,12.876Z"/>
</g>
  <g id="Light-S" transform="matrix(1.0,0.0,0.0,1.0,1126.21440214005,632.5080104755799)">  <path stroke-dasharray="none" fill-opacity="1" stroke-miterlimit="4" fill-rule="nonzero" stroke-linejoin="round" stroke-width="1.15px" fill="#000000" stroke-opacity="1" stroke-linecap="round" stroke="none" d="M41.163,34.563L35.031,28.431C34.592,27.991,33.878,27.991,33.439,28.431L27.307,34.563L29.23,35.359L29.23,11.854C29.23,11.611,29.326,11.378,29.498,11.206C29.67,11.034,29.904,10.937,30.147,10.937L38.323,10.937C38.566,10.937,38.8,11.034,38.972,11.206C39.144,11.378,39.24,11.611,39.24,11.854L39.24,35.359L41.163,34.563ZM39.57,36.155C40.28,36.865,41.493,36.362,41.493,35.359L41.493,11.854C41.493,11.014,41.159,10.207,40.564,9.613C39.97,9.018,39.163,8.684,38.323,8.684L30.147,8.684C29.306,8.684,28.5,9.018,27.905,9.613C27.311,10.207,26.977,11.014,26.977,11.854L26.977,35.359C26.977,36.362,28.19,36.865,28.9,36.155L35.031,30.024L33.439,30.024L39.57,36.155Z"/>
  <path stroke-miterlimit="4" stroke-linecap="round" stroke-dasharray="none" stroke-opacity="1" stroke-linejoin="round" fill-rule="nonzero" stroke-width="1.15px" stroke="none" fill="#000000" fill-opacity="1" d="M40.367,14.003L44.454,14.003C44.698,14.003,44.931,14.099,45.103,14.272C45.275,14.444,45.372,14.677,45.372,14.92L45.372,49.666C45.372,49.91,45.275,50.143,45.103,50.315C44.931,50.487,44.698,50.584,44.454,50.584L15.84,50.584C15.055,50.584,14.301,50.272,13.746,49.717C13.191,49.161,12.879,48.408,12.879,47.623L12.879,8.789C12.879,8.167,12.374,7.662,11.752,7.662C11.13,7.662,10.626,8.167,10.626,8.789L10.626,47.623C10.626,49.005,11.175,50.332,12.153,51.309C13.131,52.287,14.457,52.837,15.84,52.837L44.454,52.837C45.295,52.837,46.101,52.503,46.696,51.908C47.291,51.313,47.625,50.507,47.625,49.666L47.625,14.92C47.625,14.08,47.291,13.273,46.696,12.679C46.101,12.084,45.295,11.75,44.454,11.75L40.367,11.75C39.745,11.75,39.24,12.254,39.24,12.876C39.24,13.498,39.745,14.003,40.367,14.003Z"/>
  <path fill-rule="nonzero" fill-opacity="1" stroke-width="1.15px" stroke-linejoin="round" stroke-miterlimit="4" stroke="none" stroke-linecap="round" fill="#000000" stroke-dasharray="none" stroke-opacity="1" d="M45.581,12.876L45.581,6.745C45.581,5.904,45.247,5.098,44.652,4.503C44.058,3.909,43.251,3.575,42.411,3.575L15.84,3.575C14.457,3.575,13.131,4.124,12.153,5.102C11.175,6.08,10.626,7.406,10.626,8.789C10.626,10.172,11.175,11.498,12.153,12.476C13.131,13.453,14.457,14.003,15.84,14.003L22.994,14.003C23.616,14.003,24.12,13.498,24.12,12.876C24.12,12.254,23.616,11.75,22.994,11.75L15.84,11.75C15.055,11.75,14.301,11.438,13.746,10.883C13.191,10.327,12.879,9.574,12.879,8.789C12.879,8.003,13.191,7.25,13.746,6.695C14.301,6.139,15.055,5.827,15.84,5.827L42.411,5.827C42.654,5.827,42.887,5.924,43.059,6.096C43.231,6.268,43.328,6.501,43.328,6.745L43.328,12.876C43.328,13.498,43.832,14.003,44.454,14.003C45.076,14.003,45.581,13.498,45.581,12.876Z"/>
</g>
  <g id="Thin-S" transform="matrix(1.0,0.0,0.0,1.0,829.5044021400499,632.5080104755799)">  <path stroke-linejoin="round" fill-opacity="1" stroke-dasharray="none" stroke-opacity="1" stroke-miterlimit="4" stroke-linecap="round" fill-rule="nonzero" stroke="none" fill="#000000" stroke-width="1.15px" d="M41.004,34.722L34.872,28.59C34.52,28.238,33.95,28.238,33.598,28.59L27.466,34.722L29.004,35.359L29.004,11.854C29.004,11.551,29.125,11.261,29.339,11.046C29.553,10.832,29.844,10.712,30.147,10.712L38.323,10.712C38.626,10.712,38.917,10.832,39.131,11.046C39.345,11.261,39.466,11.551,39.466,11.854L39.466,35.359L41.004,34.722ZM39.73,35.996C40.297,36.564,41.268,36.162,41.268,35.359L41.268,11.854C41.268,11.073,40.957,10.324,40.405,9.772C39.853,9.22,39.104,8.91,38.323,8.91L30.147,8.91C29.366,8.91,28.617,9.22,28.065,9.772C27.513,10.324,27.202,11.073,27.202,11.854L27.202,35.359C27.202,36.162,28.173,36.564,28.74,35.996L34.872,29.864L33.598,29.864L39.73,35.996Z"/>
  <path stroke-linejoin="round" fill="#000000" stroke-linecap="round" stroke-opacity="1" fill-opacity="1" stroke-width="1.15px" stroke="none" stroke-miterlimit="4" fill-rule="nonzero" stroke-dasharray="none" d="M40.367,13.777L44.454,13.777C44.758,13.777,45.048,13.898,45.263,14.112C45.477,14.327,45.597,14.617,45.597,14.92L45.597,49.666C45.597,49.969,45.477,50.26,45.263,50.474C45.048,50.689,44.758,50.809,44.454,50.809L15.84,50.809C14.995,50.809,14.184,50.474,13.587,49.876C12.989,49.278,12.653,48.468,12.653,47.623L12.653,8.789C12.653,8.291,12.25,7.888,11.752,7.888C11.255,7.888,10.851,8.291,10.851,8.789L10.851,47.623C10.851,48.946,11.377,50.215,12.313,51.15C13.248,52.086,14.517,52.611,15.84,52.611L44.454,52.611C45.236,52.611,45.984,52.301,46.537,51.749C47.089,51.196,47.399,50.447,47.399,49.666L47.399,14.92C47.399,14.139,47.089,13.39,46.537,12.838C45.984,12.286,45.235,11.975,44.454,11.975L40.367,11.975C39.869,11.975,39.466,12.379,39.466,12.876C39.466,13.374,39.869,13.777,40.367,13.777Z"/>
  <path stroke-width="1.15px" fill-rule="nonzero" stroke-linecap="round" stroke-miterlimit="4" fill-opacity="1" stroke-dasharray="none" stroke-linejoin="round" stroke="none" stroke-opacity="1" fill="#000000" d="M45.355,12.876L45.355,6.745C45.355,5.964,45.045,5.215,44.493,4.662C43.941,4.11,43.192,3.8,42.411,3.8L15.84,3.8C14.517,3.8,13.248,4.326,12.313,5.261C11.377,6.197,10.851,7.466,10.851,8.789C10.851,10.112,11.377,11.381,12.313,12.316C13.248,13.252,14.517,13.777,15.84,13.777L22.994,13.777C23.491,13.777,23.895,13.374,23.895,12.876C23.895,12.379,23.491,11.975,22.994,11.975L15.84,11.975C14.995,11.975,14.184,11.64,13.587,11.042C12.989,10.444,12.653,9.634,12.653,8.789C12.653,7.944,12.989,7.133,13.587,6.535C14.184,5.938,14.995,5.602,15.84,5.602L42.411,5.602C42.714,5.602,43.004,5.722,43.218,5.937C43.433,6.151,43.553,6.442,43.553,6.745L43.553,12.876C43.553,13.374,43.957,13.777,44.454,13.777C44.952,13.777,45.355,13.374,45.355,12.876Z"/>
</g>
  <g id="Ultralight-S" transform="matrix(1.0,0.0,0.0,1.0,532.7944021400499,632.5080104755799)">  <path stroke-opacity="1" stroke-miterlimit="4" stroke-linecap="round" fill-rule="nonzero" fill="#000000" stroke="none" stroke-dasharray="none" stroke-width="1.15px" fill-opacity="1" stroke-linejoin="round" d="M40.845,34.881L34.713,28.75C34.449,28.486,34.021,28.486,33.757,28.75L27.626,34.881L28.779,35.359L28.779,11.854C28.779,11.492,28.923,11.144,29.18,10.887C29.436,10.63,29.784,10.486,30.147,10.486L38.323,10.486C38.686,10.486,39.034,10.631,39.29,10.887C39.547,11.144,39.691,11.492,39.691,11.854L39.691,35.359L40.845,34.881ZM39.889,35.837C40.315,36.263,41.042,35.961,41.042,35.359L41.042,11.854C41.042,11.133,40.756,10.441,40.246,9.931C39.736,9.421,39.044,9.135,38.323,9.135L30.147,9.135C29.426,9.135,28.734,9.421,28.224,9.932C27.714,10.441,27.428,11.133,27.428,11.854L27.428,35.359C27.428,35.961,28.155,36.263,28.581,35.837L34.713,29.705L33.757,29.705L39.889,35.837Z"/>
  <path stroke="none" stroke-width="1.15px" stroke-dasharray="none" stroke-linecap="round" fill="#000000" fill-rule="nonzero" fill-opacity="1" stroke-miterlimit="4" stroke-opacity="1" stroke-linejoin="round" d="M40.367,13.552L44.454,13.552C44.817,13.552,45.165,13.696,45.422,13.953C45.678,14.21,45.823,14.557,45.823,14.92L45.823,49.666C45.823,50.029,45.678,50.377,45.422,50.634C45.165,50.89,44.817,51.035,44.454,51.035L15.84,51.035C14.935,51.035,14.067,50.675,13.427,50.035C12.788,49.395,12.428,48.527,12.428,47.623L12.428,8.789C12.428,8.416,12.126,8.113,11.752,8.113C11.379,8.113,11.077,8.416,11.077,8.789L11.077,47.623C11.077,48.886,11.578,50.098,12.472,50.991C13.365,51.884,14.577,52.386,15.84,52.386L44.454,52.386C45.176,52.386,45.867,52.1,46.378,51.589C46.888,51.079,47.174,50.388,47.174,49.666L47.174,14.92C47.174,14.199,46.888,13.507,46.377,12.997C45.867,12.487,45.176,12.201,44.454,12.201L40.367,12.201C39.993,12.201,39.691,12.503,39.691,12.876C39.691,13.25,39.993,13.552,40.367,13.552Z"/>
  <path stroke-miterlimit="4" stroke-dasharray="none" stroke-linecap="round" stroke="none" fill-opacity="1" fill="#000000" stroke-opacity="1" fill-rule="nonzero" stroke-linejoin="round" stroke-width="1.15px" d="M45.13,12.876L45.13,6.745C45.13,6.023,44.844,5.332,44.334,4.822C43.824,4.312,43.132,4.025,42.411,4.025L15.84,4.025C14.577,4.025,13.365,4.527,12.472,5.42C11.578,6.314,11.077,7.525,11.077,8.789C11.077,10.052,11.578,11.264,12.472,12.157C13.365,13.05,14.577,13.552,15.84,13.552L22.994,13.552C23.367,13.552,23.669,13.25,23.669,12.876C23.669,12.503,23.367,12.201,22.994,12.201L15.84,12.201C14.935,12.201,14.067,11.841,13.427,11.201C12.788,10.561,12.428,9.694,12.428,8.789C12.428,7.884,12.788,7.016,13.427,6.376C14.067,5.736,14.935,5.377,15.84,5.377L42.411,5.377C42.773,5.377,43.121,5.521,43.378,5.777C43.634,6.034,43.779,6.382,43.779,6.745L43.779,12.876C43.779,13.25,44.081,13.552,44.454,13.552C44.828,13.552,45.13,13.25,45.13,12.876Z"/>
</g>
 </g>
</svg>
