<svg width="75" height="74" viewBox="0 0 75 74" fill="none" xmlns="http://www.w3.org/2000/svg">
<rect width="74" height="74" transform="translate(0.098999)" fill="white"/>
<g filter="url(#filter0_i_1228_7679)">
<path d="M28.1341 65.0963C28.9178 66.1102 34.2128 67.9769 36.019 66.3759C37.8272 64.774 37.4003 62.8296 38.0027 62.2061C38.6042 61.5826 38.5706 61.3294 39.6526 61.5442C40.7366 61.761 40.6023 64.1879 43.1222 64.9304C45.6412 65.6738 47.245 64.8795 48.6551 63.6095C50.0652 62.3337 49.8062 59.5423 50.8422 57.8253C52.3693 54.4104 53.3227 50.1897 51.5453 47.0914C50.164 44.8372 47.881 44.1082 45.8954 43.5422C43.9097 42.9667 43.622 41.6333 41.9337 40.77C40.2454 39.9067 34.8737 40.5494 33.2622 42.2089C31.6507 43.8684 31.8041 45.4703 30.7873 46.8324C27.5259 49.1442 25.9336 53.5759 26.4132 59.5519C26.6626 62.2282 27.3629 64.0699 28.1494 65.0771L28.1341 65.0963ZM23.4271 51.6363C24.5168 51.5212 24.8967 50.1235 25.3676 48.8286C25.8473 47.5336 26.0007 45.8357 25.454 43.9077C24.9072 41.9796 22.9695 38.6127 20.9551 38.8717C18.9407 39.1211 19.5547 43.2458 20.2549 45.4329C20.6482 46.7183 20.4851 48.0132 20.9551 48.8957C21.4348 49.7782 22.346 51.7351 23.4396 51.62L23.4271 51.6363ZM19.6688 34.8707C20.5321 35.0568 20.6904 34.1321 20.7432 33.2592C20.7959 32.3901 20.4343 30.4841 20.1235 30.4524C19.8127 30.4208 19.1988 31.709 19.0913 32.4764C18.9839 33.2438 18.8084 34.6856 19.6698 34.8707H19.6688ZM26.1111 18.3545C27.3427 17.8241 27.5998 17.2495 27.6794 16.3727C27.7657 15.496 27.3149 13.5084 26.7298 13.6063C26.1542 13.7041 24.888 18.8859 26.1159 18.3545H26.1111ZM34.4104 11.0048C35.5557 11.0912 35.3197 9.98036 35.36 9.27052C35.3984 8.56068 35.2804 7.03261 34.6579 7C33.2238 8.3909 32.9447 10.8849 34.4104 11.0048ZM42.3788 7.86811C41.8608 7.91032 41.5193 10.2998 41.5941 11.0873C41.6709 11.8758 41.668 12.1041 42.2963 11.9957C42.9198 11.8902 43.3898 11.2437 43.361 10.5089C43.3323 9.77508 42.8814 7.82303 42.3634 7.86715L42.3788 7.86811ZM49.5222 15.7531C49.0714 15.8356 48.751 19.7991 49.3975 19.8413C50.046 19.8835 50.5928 20.0332 51.2153 19.6763C51.8388 19.3185 49.974 15.6715 49.5222 15.7531ZM26.6885 24.2193C25.0866 24.1857 24.3 28.0505 24.1293 30.4544C23.9566 32.8572 24.6789 36.3767 25.8214 37.9268C26.9648 39.477 27.9566 40.44 29.3725 39.9921C30.7883 39.5412 30.8641 38.2367 31.1068 35.8213C31.3495 33.4059 30.042 28.6001 29.1662 26.7373C28.2933 24.8745 28.2933 24.2529 26.6914 24.2193H26.6885ZM33.2535 17.9027C31.8607 18.531 31.8224 22.0754 31.5615 24.6318C31.2996 27.1891 31.7725 30.9148 32.7989 32.6414C33.8253 34.368 34.6982 35.0366 35.9375 35.0366C37.1768 35.0366 38.0708 32.5944 38.4152 30.9081C38.7605 29.2217 38.0603 26.8025 37.7131 25.3349C37.3677 23.8644 37.1567 23.2994 36.7634 22.1541C36.3797 21.0097 36.4852 19.1478 35.8617 18.438C35.2382 17.7281 34.6531 17.2715 33.2622 17.9008L33.2535 17.9027ZM42.4603 17.1161C41.0263 17.2504 41.0522 19.2073 40.6445 21.2869C40.2378 23.3685 39.5769 25.8721 39.9845 28.0179C40.3874 30.1637 40.397 33.2361 42.4594 33.3858C44.5217 33.5393 45.126 31.0261 45.6824 28.7623C46.2292 26.4985 46.0277 22.3354 45.2603 20.5032C44.493 18.6807 43.8886 16.9924 42.4498 17.1171L42.4603 17.1161ZM50.0191 24.0946C49.3841 24.1617 48.2234 24.438 48.1601 26.6136C48.0959 28.791 47.2335 33.5489 48.1601 35.7839C49.0858 38.0189 50.3434 39.7935 52.2062 39.5441C54.069 39.2947 54.3626 37.5489 54.4355 34.7191C54.5093 31.8894 53.81 28.4937 52.8671 26.7479C51.9175 25.0116 50.6513 24.0428 50.0182 24.1099L50.0191 24.0946Z" fill="#2F99C6"/>
</g>
<defs>
<filter id="filter0_i_1228_7679" x="19" y="7" width="35.4408" height="64" filterUnits="userSpaceOnUse" color-interpolation-filters="sRGB">
<feFlood flood-opacity="0" result="BackgroundImageFix"/>
<feBlend mode="normal" in="SourceGraphic" in2="BackgroundImageFix" result="shape"/>
<feColorMatrix in="SourceAlpha" type="matrix" values="0 0 0 0 0 0 0 0 0 0 0 0 0 0 0 0 0 0 127 0" result="hardAlpha"/>
<feOffset dy="4"/>
<feGaussianBlur stdDeviation="7"/>
<feComposite in2="hardAlpha" operator="arithmetic" k2="-1" k3="1"/>
<feColorMatrix type="matrix" values="0 0 0 0 0 0 0 0 0 0 0 0 0 0 0 0 0 0 0.15 0"/>
<feBlend mode="normal" in2="shape" result="effect1_innerShadow_1228_7679"/>
</filter>
</defs>
</svg>
