<svg width="24" height="24" viewBox="0 0 24 24" fill="none" xmlns="http://www.w3.org/2000/svg">
<path d="M12.087 17.6522V22" stroke="black" stroke-width="1.15" stroke-linecap="round" stroke-linejoin="round"/>
<path d="M12.087 2C11.1645 2 10.2798 2.36646 9.62745 3.01876C8.97515 3.67106 8.6087 4.55577 8.6087 5.47826V11.5652C8.6087 12.4877 8.97515 13.3724 9.62745 14.0247C10.2798 14.677 11.1645 15.0435 12.087 15.0435C13.0094 15.0435 13.8942 14.677 14.5465 14.0247C15.1988 13.3724 15.5652 12.4877 15.5652 11.5652V5.47826C15.5652 4.55577 15.1988 3.67106 14.5465 3.01876C13.8942 2.36646 13.0094 2 12.087 2V2Z" stroke="black" stroke-width="1.15" stroke-linecap="round" stroke-linejoin="round"/>
<path d="M18.1739 8.95654V11.5652C18.1739 13.1796 17.5326 14.7278 16.3911 15.8694C15.2496 17.0109 13.7013 17.6522 12.087 17.6522C10.4726 17.6522 8.92435 17.0109 7.78283 15.8694C6.6413 14.7278 6 13.1796 6 11.5652V8.95654" stroke="black" stroke-width="1.15" stroke-linecap="round" stroke-linejoin="round"/>
</svg>
