<svg width="75" height="74" viewBox="0 0 75 74" fill="none" xmlns="http://www.w3.org/2000/svg">
<rect width="74" height="74" transform="translate(0.098999)" fill="white"/>
<g filter="url(#filter0_i_1228_7617)">
<path d="M33.4562 65.5028C34.2931 67.459 35.8986 67.6113 37.0285 65.2855C38.0765 62.5404 41.8955 59.5655 42.7958 58.2637C43.4547 57.2869 44.0245 56.1712 44.7191 54.8854C45.4136 53.5988 44.8259 53.1331 43.5615 54.5711C42.2882 56.01 40.8814 57.4204 39.6704 56.6948C38.4594 55.9682 39.5992 54.0796 39.9108 52.979C40.2224 51.8776 41.1307 50.9622 41.38 49.5759C41.6293 48.1904 40.917 48.3293 40.4629 49.6471C39.9998 50.9667 36.9813 55.3191 36.2601 55.1258C35.5299 54.9326 35.4587 50.5429 35.2895 49.6231C35.1293 48.7059 34.595 47.9713 34.2745 50.0594C33.945 52.1456 35.0491 55.6423 33.3751 56.1391C32.2888 56.3404 30.2498 53.0494 29.484 52.3513C28.7182 51.6523 28.1662 51.5909 28.834 52.9541C29.4929 54.3165 31.3183 57.6021 32.0662 59.7569C32.8053 61.9117 32.5827 63.5412 33.4107 65.5001L33.4562 65.5028ZM40.4727 39.5115C41.5055 41.6538 44.7467 42.6724 45.3878 40.0404C46.0289 37.4083 46.1152 36.0424 45.6941 34.4441C45.2729 32.8458 45.0263 25.3262 45.5917 22.8152C46.1526 20.3042 46.0814 21.3817 46.4732 19.5385C46.865 17.6953 45.8588 18.2029 45.28 19.0131C44.6923 19.8234 43.0718 22.5036 43.1964 18.3809C43.3122 14.2672 43.7396 13.8309 43.8108 10.9816C43.8821 8.13222 43.054 8.47949 42.769 10.4206C42.4841 12.3617 41.9766 16.1638 41.5581 17.4371C41.1396 18.7193 39.8396 21.5864 39.6437 18.0515C39.4478 14.5165 39.3765 12.424 39.2341 9.28086C39.0916 6.14659 38.2902 6.36029 38.1211 9.20073C37.9519 12.0412 37.7115 15.1932 37.7204 16.9474C37.7293 18.7015 37.9786 21.159 36.358 17.8556C34.7375 14.5521 34.6039 14.7658 33.6244 12.9405C32.645 11.124 31.7991 10.8836 32.4313 13.0295C33.0546 15.1754 33.3662 16.4398 33.856 18.3542C34.3546 20.2775 34.0251 21.168 32.6628 20.5268C31.3005 19.8768 31.0244 19.5207 29.2347 18.9241C27.436 18.3186 25.9847 18.6125 27.9169 19.6275C29.8491 20.6426 36.0375 26.9022 37.2306 31.6393C38.4238 36.3852 39.4033 37.4181 40.4361 39.5551L40.4727 39.5115Z" fill="#2F99C6"/>
</g>
<defs>
<filter id="filter0_i_1228_7617" x="27" y="7" width="19.5614" height="64" filterUnits="userSpaceOnUse" color-interpolation-filters="sRGB">
<feFlood flood-opacity="0" result="BackgroundImageFix"/>
<feBlend mode="normal" in="SourceGraphic" in2="BackgroundImageFix" result="shape"/>
<feColorMatrix in="SourceAlpha" type="matrix" values="0 0 0 0 0 0 0 0 0 0 0 0 0 0 0 0 0 0 127 0" result="hardAlpha"/>
<feOffset dy="4"/>
<feGaussianBlur stdDeviation="7"/>
<feComposite in2="hardAlpha" operator="arithmetic" k2="-1" k3="1"/>
<feColorMatrix type="matrix" values="0 0 0 0 0 0 0 0 0 0 0 0 0 0 0 0 0 0 0.15 0"/>
<feBlend mode="normal" in2="shape" result="effect1_innerShadow_1228_7617"/>
</filter>
</defs>
</svg>
