<?xml version="1.0" encoding="UTF-8"?>
<!-- Generator: CustomSymbols v2.6.3.42 by @serious_bret https://bretlester.com/app_content/CustomSymbols/ -->
<!-- Guides: Left/Right -0.008/-0.008 Cap/Base 0.012/0.01 -->
<!-- Settings: RefScale 1.0 Min/Max Stroke Scales 0.5/2.2100000381469727 -->
<!DOCTYPE svg
PUBLIC "-//W3C//DTD SVG 1.1//EN"
       "http://www.w3.org/Graphics/SVG/1.1/DTD/svg11.dtd">
<svg version="1.1" xmlns="http://www.w3.org/2000/svg" xmlns:xlink="http://www.w3.org/1999/xlink" width="3300" height="2200">
<![CDATA[<svg width="24" height="24" viewBox="0 0 24 24" fill="none" xmlns="http://www.w3.org/2000/svg">
<path d="M21.4826 19.1243L17.9743 15.6159C19.1882 13.8158 19.6879 11.628 19.3762 9.47927C19.0644 7.33056 17.9634 5.37504 16.288 3.9941C14.6125 2.61316 12.4827 1.90583 10.314 2.01008C8.14533 2.11433 6.09322 3.02267 4.55794 4.55794C3.02267 6.09322 2.11433 8.14532 2.01008 10.314C1.90583 12.4827 2.61316 14.6125 3.9941 16.288C5.37504 17.9634 7.33056 19.0644 9.47927 19.3762C11.628 19.6879 13.8158 19.1882 15.6159 17.9743L19.1326 21.4826C19.4449 21.793 19.8673 21.9673 20.3076 21.9673C20.7479 21.9673 21.1703 21.793 21.4826 21.4826C21.6376 21.3278 21.7605 21.144 21.8444 20.9417C21.9283 20.7394 21.9714 20.5225 21.9714 20.3034C21.9714 20.0844 21.9283 19.8675 21.8444 19.6652C21.7605 19.4629 21.6376 19.2791 21.4826 19.1243ZM10.7243 3.63262C12.1252 3.63262 13.4947 4.04805 14.6596 4.82637C15.8244 5.6047 16.7323 6.71097 17.2684 8.00528C17.8045 9.29958 17.9448 10.7238 17.6715 12.0978C17.3982 13.4719 16.7236 14.734 15.733 15.7246C14.7423 16.7152 13.4802 17.3899 12.1062 17.6632C10.7321 17.9365 9.30792 17.7962 8.01361 17.2601C6.7193 16.724 5.61303 15.8161 4.83471 14.6512C4.05638 13.4864 3.64095 12.1169 3.64095 10.7159C3.64315 8.83801 4.39014 7.03762 5.71805 5.70971C7.04595 4.38181 8.84634 3.63482 10.7243 3.63262Z" fill="black"/>
<path d="M7.80761 11.5493H9.89094V13.6326C9.89094 13.8536 9.97874 14.0656 10.135 14.2219C10.2913 14.3781 10.5033 14.4659 10.7243 14.4659C10.9453 14.4659 11.1572 14.3781 11.3135 14.2219C11.4698 14.0656 11.5576 13.8536 11.5576 13.6326V11.5493H13.6409C13.862 11.5493 14.0739 11.4615 14.2302 11.3052C14.3865 11.1489 14.4743 10.937 14.4743 10.7159C14.4743 10.4949 14.3865 10.283 14.2302 10.1267C14.0739 9.97041 13.862 9.88261 13.6409 9.88261H11.5576V7.79928C11.5576 7.57826 11.4698 7.3663 11.3135 7.21002C11.1572 7.05374 10.9453 6.96594 10.7243 6.96594C10.5033 6.96594 10.2913 7.05374 10.135 7.21002C9.97874 7.3663 9.89094 7.57826 9.89094 7.79928V9.88261H7.80761C7.58659 9.88261 7.37463 9.97041 7.21835 10.1267C7.06207 10.283 6.97427 10.4949 6.97427 10.7159C6.97427 10.937 7.06207 11.1489 7.21835 11.3052C7.37463 11.4615 7.58659 11.5493 7.80761 11.5493Z" fill="black"/>
</svg>
]]>
 <g id="Notes">
  <rect height="2200" id="artboard" style="fill:white;opacity:1" width="3300" x="0" y="0"/>
  <line id="" style="fill:none;stroke:black;opacity:1;stroke-width:0.5;" x1="263" x2="3036" y1="292" y2="292"/>
  <text id="reftext1" style="stroke:none;fill:black;font-family:-apple-system,&quot;SF Pro Display&quot;,&quot;SF Pro Text&quot;,Helvetica,sans-serif;font-weight:bold;" transform="matrix(1 0 0 1 263 322)">Weight/Scale Variations</text>
  <text id="reftext2" style="stroke:none;fill:black;font-family:-apple-system,&quot;SF Pro Display&quot;,&quot;SF Pro Text&quot;,Helvetica,sans-serif;text-anchor:middle;" transform="matrix(1 0 0 1 559.711 322)">Ultralight</text>
  <text style="stroke:none;fill:black;font-family:-apple-system,&quot;SF Pro Display&quot;,&quot;SF Pro Text&quot;,Helvetica,sans-serif;text-anchor:middle;" transform="matrix(1 0 0 1 856.422 322)">Thin</text>
  <text style="stroke:none;fill:black;font-family:-apple-system,&quot;SF Pro Display&quot;,&quot;SF Pro Text&quot;,Helvetica,sans-serif;text-anchor:middle;" transform="matrix(1 0 0 1 1153.13 322)">Light</text>
  <text style="stroke:none;fill:black;font-family:-apple-system,&quot;SF Pro Display&quot;,&quot;SF Pro Text&quot;,Helvetica,sans-serif;text-anchor:middle;" transform="matrix(1 0 0 1 1449.84 322)">Regular</text>
  <text style="stroke:none;fill:black;font-family:-apple-system,&quot;SF Pro Display&quot;,&quot;SF Pro Text&quot;,Helvetica,sans-serif;text-anchor:middle;" transform="matrix(1 0 0 1 1746.56 322)">Medium</text>
  <text style="stroke:none;fill:black;font-family:-apple-system,&quot;SF Pro Display&quot;,&quot;SF Pro Text&quot;,Helvetica,sans-serif;text-anchor:middle;" transform="matrix(1 0 0 1 2043.27 322)">Semibold</text>
  <text style="stroke:none;fill:black;font-family:-apple-system,&quot;SF Pro Display&quot;,&quot;SF Pro Text&quot;,Helvetica,sans-serif;text-anchor:middle;" transform="matrix(1 0 0 1 2339.98 322)">Bold</text>
  <text style="stroke:none;fill:black;font-family:-apple-system,&quot;SF Pro Display&quot;,&quot;SF Pro Text&quot;,Helvetica,sans-serif;text-anchor:middle;" transform="matrix(1 0 0 1 2636.69 322)">Heavy</text>
  <text style="stroke:none;fill:black;font-family:-apple-system,&quot;SF Pro Display&quot;,&quot;SF Pro Text&quot;,Helvetica,sans-serif;text-anchor:middle;" transform="matrix(1 0 0 1 2933.4 322)">Black</text>
  <line id="" style="fill:none;stroke:black;opacity:1;stroke-width:0.5;" x1="263" x2="3036" y1="1903" y2="1903"/>
  <g id="" transform="matrix(1 0 0 1 263 1933)">
   <path d="M9.24805 0.830078C13.5547 0.830078 17.1387-2.74414 17.1387-7.05078C17.1387-11.3574 13.5449-14.9316 9.23828-14.9316C4.94141-14.9316 1.36719-11.3574 1.36719-7.05078C1.36719-2.74414 4.95117 0.830078 9.24805 0.830078ZM9.24805-0.654297C5.70312-0.654297 2.87109-3.49609 2.87109-7.05078C2.87109-10.6055 5.69336-13.4473 9.23828-13.4473C12.793-13.4473 15.6348-10.6055 15.6445-7.05078C15.6543-3.49609 12.8027-0.654297 9.24805-0.654297ZM6.39648-6.31836L8.50586-6.31836L8.50586-4.19922C8.50586-3.75977 8.79883-3.45703 9.22852-3.45703C9.67773-3.45703 9.9707-3.75977 9.9707-4.19922L9.9707-6.31836L12.0996-6.31836C12.5391-6.31836 12.8418-6.61133 12.8418-7.04102C12.8418-7.48047 12.5391-7.7832 12.0996-7.7832L9.9707-7.7832L9.9707-9.89258C9.9707-10.3418 9.67773-10.6445 9.22852-10.6445C8.79883-10.6445 8.50586-10.3418 8.50586-9.89258L8.50586-7.7832L6.39648-7.7832C5.94727-7.7832 5.64453-7.48047 5.64453-7.04102C5.64453-6.61133 5.94727-6.31836 6.39648-6.31836Z"/>
  </g>
  <g id="" transform="matrix(1 0 0 1 281.506 1933)">
   <path d="M11.709 2.91016C17.1582 2.91016 21.6699-1.61133 21.6699-7.05078C21.6699-12.5 17.1484-17.0117 11.6992-17.0117C6.25977-17.0117 1.74805-12.5 1.74805-7.05078C1.74805-1.61133 6.26953 2.91016 11.709 2.91016ZM11.709 1.25C7.09961 1.25 3.41797-2.44141 3.41797-7.05078C3.41797-11.6602 7.08984-15.3516 11.6992-15.3516C16.3086-15.3516 20-11.6602 20.0098-7.05078C20.0195-2.44141 16.3184 1.25 11.709 1.25ZM7.98828-6.23047L10.8789-6.23047L10.8789-3.32031C10.8789-2.83203 11.2109-2.5 11.6895-2.5C12.1777-2.5 12.5195-2.83203 12.5195-3.32031L12.5195-6.23047L15.4297-6.23047C15.918-6.23047 16.25-6.5625 16.25-7.04102C16.25-7.5293 15.918-7.87109 15.4297-7.87109L12.5195-7.87109L12.5195-10.7617C12.5195-11.2695 12.1777-11.6016 11.6895-11.6016C11.2109-11.6016 10.8789-11.2598 10.8789-10.7617L10.8789-7.87109L7.98828-7.87109C7.48047-7.87109 7.14844-7.5293 7.14844-7.04102C7.14844-6.5625 7.49023-6.23047 7.98828-6.23047Z"/>
  </g>
  <g id="" transform="matrix(1 0 0 1 304.924 1933)">
   <path d="M14.9707 5.66406C21.9336 5.66406 27.6953-0.0976562 27.6953-7.05078C27.6953-14.0137 21.9238-19.7754 14.9609-19.7754C8.00781-19.7754 2.25586-14.0137 2.25586-7.05078C2.25586-0.0976562 8.01758 5.66406 14.9707 5.66406ZM14.9707 3.84766C8.93555 3.84766 4.08203-1.01562 4.08203-7.05078C4.08203-13.0957 8.92578-17.9492 14.9609-17.9492C21.0059-17.9492 25.8594-13.0957 25.8691-7.05078C25.8789-1.01562 21.0156 3.84766 14.9707 3.84766ZM10.0586-6.14258L14.0625-6.14258L14.0625-2.12891C14.0625-1.5918 14.4336-1.2207 14.9512-1.2207C15.4883-1.2207 15.8594-1.5918 15.8594-2.12891L15.8594-6.14258L19.8828-6.14258C20.4102-6.14258 20.791-6.51367 20.791-7.03125C20.791-7.56836 20.4199-7.94922 19.8828-7.94922L15.8594-7.94922L15.8594-11.9531C15.8594-12.5098 15.4883-12.8809 14.9512-12.8809C14.4336-12.8809 14.0625-12.5 14.0625-11.9531L14.0625-7.94922L10.0586-7.94922C9.50195-7.94922 9.13086-7.56836 9.13086-7.03125C9.13086-6.51367 9.51172-6.14258 10.0586-6.14258Z"/>
  </g>
  <text style="stroke:none;fill:black;font-family:-apple-system,&quot;SF Pro Display&quot;,&quot;SF Pro Text&quot;,Helvetica,sans-serif;font-weight:bold;" transform="matrix(1 0 0 1 263 1953)">Design Variations</text>
  <text style="stroke:none;fill:black;font-family:-apple-system,&quot;SF Pro Display&quot;,&quot;SF Pro Text&quot;,Helvetica,sans-serif;" transform="matrix(1 0 0 1 263 1971)">Symbols are supported in up to nine weights and three scales.</text>
  <text style="stroke:none;fill:black;font-family:-apple-system,&quot;SF Pro Display&quot;,&quot;SF Pro Text&quot;,Helvetica,sans-serif;" transform="matrix(1 0 0 1 263 1989)">For optimal layout with text and other symbols, vertically align</text>
  <text style="stroke:none;fill:black;font-family:-apple-system,&quot;SF Pro Display&quot;,&quot;SF Pro Text&quot;,Helvetica,sans-serif;" transform="matrix(1 0 0 1 263 2007)">symbols with the adjacent text.</text>
  <line id="" style="fill:none;stroke:#00AEEF;stroke-width:0.5;opacity:1.0;" x1="776" x2="776" y1="1919" y2="1933"/>
  <g id="" transform="matrix(1 0 0 1 776 1933)">
   <path d="M3.31055 0.126953C3.82812 0.126953 4.08203-0.0683594 4.26758-0.605469L5.52734-4.0625L11.2891-4.0625L12.5488-0.605469C12.7344-0.0683594 12.9883 0.126953 13.4961 0.126953C14.0137 0.126953 14.3457-0.185547 14.3457-0.673828C14.3457-0.839844 14.3164-0.986328 14.2383-1.20117L9.6582-13.3887C9.43359-13.9941 9.0332-14.2871 8.4082-14.2871C7.80273-14.2871 7.39258-13.9941 7.17773-13.3984L2.59766-1.19141C2.51953-0.976562 2.49023-0.830078 2.49023-0.664062C2.49023-0.175781 2.80273 0.126953 3.31055 0.126953ZM6.00586-5.53711L8.37891-12.1094L8.42773-12.1094L10.8008-5.53711Z"/>
  </g>
  <line id="" style="fill:none;stroke:#00AEEF;stroke-width:0.5;opacity:1.0;" x1="792.836" x2="792.836" y1="1919" y2="1933"/>
  <text style="stroke:none;fill:black;font-family:-apple-system,&quot;SF Pro Display&quot;,&quot;SF Pro Text&quot;,Helvetica,sans-serif;font-weight:bold;" transform="matrix(1 0 0 1 776 1953)">Margins</text>
  <text style="stroke:none;fill:black;font-family:-apple-system,&quot;SF Pro Display&quot;,&quot;SF Pro Text&quot;,Helvetica,sans-serif;" transform="matrix(1 0 0 1 776 1971)">Leading and trailing margins on the left and right side of each symbol</text>
  <text style="stroke:none;fill:black;font-family:-apple-system,&quot;SF Pro Display&quot;,&quot;SF Pro Text&quot;,Helvetica,sans-serif;" transform="matrix(1 0 0 1 776 1989)">can be adjusted by modifying the x-location of the margin guidelines.</text>
  <text style="stroke:none;fill:black;font-family:-apple-system,&quot;SF Pro Display&quot;,&quot;SF Pro Text&quot;,Helvetica,sans-serif;" transform="matrix(1 0 0 1 776 2007)">Modifications are automatically applied proportionally to all</text>
  <text style="stroke:none;fill:black;font-family:-apple-system,&quot;SF Pro Display&quot;,&quot;SF Pro Text&quot;,Helvetica,sans-serif;" transform="matrix(1 0 0 1 776 2025)">scales and weights.</text>
  <g id="" transform="matrix(1 0 0 1 1289 1933)">
   <path d="M2.8418 1.86523L4.54102 3.57422C5.40039 4.44336 6.38672 4.38477 7.31445 3.35938L17.4902-7.85156C17.7539-7.76367 18.0273-7.7832 18.3398-7.8418L19.4043-8.03711L20.0684-7.36328L20.0293-6.80664C19.9902-6.30859 20.1172-5.92773 20.6055-5.44922L21.3672-4.70703C21.8457-4.22852 22.4609-4.19922 22.9297-4.66797L25.8398-7.58789C26.3086-8.05664 26.2891-8.65234 25.8105-9.13086L25.0391-9.89258C24.5605-10.3711 24.1895-10.5273 23.7109-10.4883L23.1348-10.4395L22.4902-11.0742L22.7344-12.1973C22.8613-12.7637 22.7051-13.2031 22.1191-13.7891L19.9219-15.9766C16.582-19.2969 12.1484-19.2188 9.25781-16.3281C8.83789-15.918 8.80859-15.3418 9.04297-14.9512C9.27734-14.5898 9.73633-14.3555 10.3809-14.5215C11.8457-14.8633 13.3691-14.9219 14.7949-13.9844L14.209-12.5293C14.0137-12.0508 13.9844-11.6504 14.1113-11.2891L3.04688-0.898438C2.06055 0.0195312 1.98242 0.996094 2.8418 1.86523ZM10.752-15.957C13.1836-17.7344 16.4746-17.4316 18.7012-15.2051L21.1328-12.793C21.3672-12.5586 21.4062-12.373 21.3379-12.0312L21.0156-10.5469L22.5195-9.0625L23.5059-9.12109C23.7598-9.13086 23.8379-9.11133 24.0332-8.91602L24.6094-8.33984L22.168-5.89844L21.5918-6.47461C21.3965-6.66992 21.3672-6.74805 21.377-7.01172L21.4453-7.98828L19.9512-9.47266L18.4277-9.21875C18.1055-9.15039 17.959-9.17969 17.7148-9.41406L15.7129-11.416C15.459-11.6504 15.4297-11.8164 15.5859-12.1875L16.4648-14.2773C14.9023-15.7324 12.8711-16.3574 10.8398-15.7617C10.6836-15.7227 10.625-15.8496 10.752-15.957ZM5.27344 2.30469L4.10156 1.14258C3.63281 0.683594 3.74023 0.341797 4.14062-0.0195312L14.9512-10.1953L16.416-8.71094L6.42578 2.27539C6.07422 2.67578 5.74219 2.77344 5.27344 2.30469Z"/>
  </g>
  <text style="stroke:none;fill:black;font-family:-apple-system,&quot;SF Pro Display&quot;,&quot;SF Pro Text&quot;,Helvetica,sans-serif;font-weight:bold;" transform="matrix(1 0 0 1 1289 1953)">Exporting</text>
  <text style="stroke:none;fill:black;font-family:-apple-system,&quot;SF Pro Display&quot;,&quot;SF Pro Text&quot;,Helvetica,sans-serif;" transform="matrix(1 0 0 1 1289 1971)">Symbols should be outlined when exporting to ensure the</text>
  <text style="stroke:none;fill:black;font-family:-apple-system,&quot;SF Pro Display&quot;,&quot;SF Pro Text&quot;,Helvetica,sans-serif;" transform="matrix(1 0 0 1 1289 1989)">design is preserved when submitting to Xcode.</text>
  <text id="template-version" style="stroke:none;fill:black;font-family:-apple-system,&quot;SF Pro Display&quot;,&quot;SF Pro Text&quot;,Helvetica,sans-serif;text-anchor:end;" transform="matrix(1 0 0 1 3036 1933)">Template v.2.0</text>
  <text style="stroke:none;fill:black;font-family:-apple-system,&quot;SF Pro Display&quot;,&quot;SF Pro Text&quot;,Helvetica,sans-serif;text-anchor:end;" transform="matrix(1 0 0 1 3036 1951)">Requires Xcode 12 or greater</text>
  <text style="stroke:none;fill:black;font-family:-apple-system,&quot;SF Pro Display&quot;,&quot;SF Pro Text&quot;,Helvetica,sans-serif;" transform="matrix(1 0 0 1 263 726)">Small</text>
  <text style="stroke:none;fill:black;font-family:-apple-system,&quot;SF Pro Display&quot;,&quot;SF Pro Text&quot;,Helvetica,sans-serif;" transform="matrix(1 0 0 1 263 1156)">Medium</text>
  <text style="stroke:none;fill:black;font-family:-apple-system,&quot;SF Pro Display&quot;,&quot;SF Pro Text&quot;,Helvetica,sans-serif;" transform="matrix(1 0 0 1 263 1586)">Large</text>
 </g>
 <g id="Guides">
  <g id="H-reference" style="fill:#27AAE1;stroke:none;" transform="matrix(1 0 0 1 339 696)">
   <path d="M0.976562 0L3.66211 0L12.9883-24.4629L45.752-24.4629L55.127 0L57.7637 0L30.6152-70.459L28.125-70.459ZM29.3457-67.1387L29.4434-67.1387L44.873-26.709L13.8672-26.709Z"/>
  </g>
  <line id="Baseline-S" style="fill:none;stroke:#27AAE1;opacity:1;stroke-width:0.5;" x1="263" x2="3036" y1="696" y2="696"/>
  <line id="Capline-S" style="fill:none;stroke:#27AAE1;opacity:1;stroke-width:0.5;" x1="263" x2="3036" y1="625.541" y2="625.541"/>
  <g id="H-reference" style="fill:#27AAE1;stroke:none;" transform="matrix(1 0 0 1 339 1126)">
   <path d="M0.976562 0L3.66211 0L12.9883-24.4629L45.752-24.4629L55.127 0L57.7637 0L30.6152-70.459L28.125-70.459ZM29.3457-67.1387L29.4434-67.1387L44.873-26.709L13.8672-26.709Z"/>
  </g>
  <line id="Baseline-M" style="fill:none;stroke:#27AAE1;opacity:1;stroke-width:0.5;" x1="263" x2="3036" y1="1126" y2="1126"/>
  <line id="Capline-M" style="fill:none;stroke:#27AAE1;opacity:1;stroke-width:0.5;" x1="263" x2="3036" y1="1055.54" y2="1055.54"/>
  <g id="H-reference" style="fill:#27AAE1;stroke:none;" transform="matrix(1 0 0 1 339 1556)">
   <path d="M0.976562 0L3.66211 0L12.9883-24.4629L45.752-24.4629L55.127 0L57.7637 0L30.6152-70.459L28.125-70.459ZM29.3457-67.1387L29.4434-67.1387L44.873-26.709L13.8672-26.709Z"/>
  </g>
  <line id="Baseline-L" style="fill:none;stroke:#27AAE1;opacity:1;stroke-width:0.5;" x1="263" x2="3036" y1="1556" y2="1556"/>
  <line id="Capline-L" style="fill:none;stroke:#27AAE1;opacity:1;stroke-width:0.5;" x1="263" x2="3036" y1="1485.54" y2="1485.54"/>
  <line id="left-margin" x1="1414.531165484407" x2="1414.531165484407" y1="1030.79" y2="1150.12" style="fill:none;stroke:#00AEEF;stroke-width:0.5;opacity:1.0;"/>
  <line id="right-margin" x1="1487.7288345155928" x2="1487.7288345155928" y1="1030.79" y2="1150.12" style="fill:none;stroke:#00AEEF;stroke-width:0.5;opacity:1.0;"/>
 </g>
 <g id="Symbols">
  <g id="Black-L" transform="matrix(1.0,0.0,0.0,1.0,2888.2110073571703,1474.2080889031345)">  <path stroke-linejoin="miter" stroke-linecap="butt" stroke-dasharray="none" stroke-width="1px" fill="#000000" stroke-opacity="1" stroke-miterlimit="4" fill-rule="nonzero" fill-opacity="1" stroke="none" d="M83.19,74.057L69.604,60.471C74.305,53.501,76.24,45.028,75.033,36.708C73.825,28.387,69.562,20.814,63.074,15.467C56.586,10.119,48.338,7.38,39.94,7.784C31.542,8.188,23.595,11.705,17.65,17.65C11.705,23.595,8.188,31.542,7.784,39.94C7.38,48.338,10.119,56.586,15.467,63.074C20.814,69.562,28.387,73.825,36.708,75.033C45.028,76.24,53.501,74.305,60.471,69.604L74.089,83.19C75.299,84.392,76.934,85.067,78.639,85.067C80.345,85.067,81.98,84.392,83.19,83.19C83.79,82.59,84.266,81.878,84.591,81.095C84.916,80.312,85.082,79.472,85.082,78.623C85.082,77.775,84.916,76.935,84.591,76.152C84.266,75.368,83.79,74.657,83.19,74.057ZM41.529,14.067C46.954,14.067,52.257,15.676,56.768,18.69C61.279,21.704,64.794,25.988,66.87,31C68.946,36.012,69.49,41.527,68.431,46.848C67.373,52.169,64.761,57.056,60.925,60.892C57.088,64.728,52.201,67.341,46.88,68.399C41.559,69.458,36.044,68.914,31.032,66.838C26.02,64.762,21.736,61.247,18.722,56.736C15.708,52.225,14.099,46.922,14.099,41.496C14.108,34.224,17,27.253,22.143,22.11C27.285,16.968,34.257,14.076,41.529,14.067ZM41.529,14.067"/>
  <path stroke-width="1px" stroke="none" stroke-miterlimit="4" stroke-opacity="1" stroke-linejoin="miter" fill-rule="nonzero" stroke-linecap="butt" stroke-dasharray="none" fill-opacity="1" fill="#000000" d="M30.234,44.724L38.302,44.724L38.302,52.791C38.302,53.647,38.642,54.468,39.247,55.073C39.852,55.678,40.673,56.018,41.529,56.018C42.385,56.018,43.205,55.678,43.811,55.073C44.416,54.468,44.756,53.647,44.756,52.791L44.756,44.724L52.823,44.724C53.679,44.724,54.5,44.384,55.105,43.778C55.711,43.173,56.051,42.353,56.051,41.496C56.051,40.641,55.711,39.82,55.105,39.215C54.5,38.61,53.679,38.27,52.823,38.27L44.756,38.27L44.756,30.202C44.756,29.346,44.416,28.525,43.811,27.92C43.205,27.315,42.385,26.975,41.529,26.975C40.673,26.975,39.852,27.315,39.247,27.92C38.642,28.525,38.302,29.346,38.302,30.202L38.302,38.27L30.234,38.27C29.378,38.27,28.558,38.61,27.952,39.215C27.347,39.82,27.007,40.641,27.007,41.496C27.007,42.353,27.347,43.173,27.952,43.778C28.558,44.384,29.378,44.724,30.234,44.724ZM30.234,44.724"/>
</g>
  <g id="Heavy-L" transform="matrix(1.0,0.0,0.0,1.0,2591.5010073571702,1474.2080889031345)">  <path stroke-dasharray="none" stroke-linejoin="miter" stroke="none" stroke-width="1px" fill="#000000" stroke-opacity="1" stroke-miterlimit="4" stroke-linecap="butt" fill-rule="nonzero" fill-opacity="1" d="M83.19,74.057L69.604,60.471C74.305,53.501,76.24,45.028,75.033,36.708C73.825,28.387,69.562,20.814,63.074,15.467C56.586,10.119,48.338,7.38,39.94,7.784C31.542,8.188,23.595,11.705,17.65,17.65C11.705,23.595,8.188,31.542,7.784,39.94C7.38,48.338,10.119,56.586,15.467,63.074C20.814,69.562,28.387,73.825,36.708,75.033C45.028,76.24,53.501,74.305,60.471,69.604L74.089,83.19C75.299,84.392,76.934,85.067,78.639,85.067C80.345,85.067,81.98,84.392,83.19,83.19C83.79,82.59,84.266,81.878,84.591,81.095C84.916,80.312,85.082,79.472,85.082,78.623C85.082,77.775,84.916,76.935,84.591,76.152C84.266,75.368,83.79,74.657,83.19,74.057ZM41.529,14.067C46.954,14.067,52.257,15.676,56.768,18.69C61.279,21.704,64.794,25.988,66.87,31C68.946,36.012,69.49,41.527,68.431,46.848C67.373,52.169,64.761,57.056,60.925,60.892C57.088,64.728,52.201,67.341,46.88,68.399C41.559,69.458,36.044,68.914,31.032,66.838C26.02,64.762,21.736,61.247,18.722,56.736C15.708,52.225,14.099,46.922,14.099,41.496C14.108,34.224,17,27.253,22.143,22.11C27.285,16.968,34.257,14.076,41.529,14.067ZM41.529,14.067"/>
  <path stroke-linejoin="miter" stroke-opacity="1" stroke-miterlimit="4" stroke-width="1px" stroke-linecap="butt" fill-rule="nonzero" fill-opacity="1" fill="#000000" stroke-dasharray="none" stroke="none" d="M30.234,44.724L38.302,44.724L38.302,52.791C38.302,53.647,38.642,54.468,39.247,55.073C39.852,55.678,40.673,56.018,41.529,56.018C42.385,56.018,43.205,55.678,43.811,55.073C44.416,54.468,44.756,53.647,44.756,52.791L44.756,44.724L52.823,44.724C53.679,44.724,54.5,44.384,55.105,43.778C55.711,43.173,56.051,42.353,56.051,41.496C56.051,40.641,55.711,39.82,55.105,39.215C54.5,38.61,53.679,38.27,52.823,38.27L44.756,38.27L44.756,30.202C44.756,29.346,44.416,28.525,43.811,27.92C43.205,27.315,42.385,26.975,41.529,26.975C40.673,26.975,39.852,27.315,39.247,27.92C38.642,28.525,38.302,29.346,38.302,30.202L38.302,38.27L30.234,38.27C29.378,38.27,28.558,38.61,27.952,39.215C27.347,39.82,27.007,40.641,27.007,41.496C27.007,42.353,27.347,43.173,27.952,43.778C28.558,44.384,29.378,44.724,30.234,44.724ZM30.234,44.724"/>
</g>
  <g id="Bold-L" transform="matrix(1.0,0.0,0.0,1.0,2294.79100735717,1474.2080889031345)">  <path fill-opacity="1" stroke-width="1px" stroke="none" fill-rule="nonzero" stroke-linecap="butt" stroke-opacity="1" stroke-linejoin="miter" stroke-miterlimit="4" stroke-dasharray="none" fill="#000000" d="M83.19,74.057L69.604,60.471C74.305,53.501,76.24,45.028,75.033,36.708C73.825,28.387,69.562,20.814,63.074,15.467C56.586,10.119,48.338,7.38,39.94,7.784C31.542,8.188,23.595,11.705,17.65,17.65C11.705,23.595,8.188,31.542,7.784,39.94C7.38,48.338,10.119,56.586,15.467,63.074C20.814,69.562,28.387,73.825,36.708,75.033C45.028,76.24,53.501,74.305,60.471,69.604L74.089,83.19C75.299,84.392,76.934,85.067,78.639,85.067C80.345,85.067,81.98,84.392,83.19,83.19C83.79,82.59,84.266,81.878,84.591,81.095C84.916,80.312,85.082,79.472,85.082,78.623C85.082,77.775,84.916,76.935,84.591,76.152C84.266,75.368,83.79,74.657,83.19,74.057ZM41.529,14.067C46.954,14.067,52.257,15.676,56.768,18.69C61.279,21.704,64.794,25.988,66.87,31C68.946,36.012,69.49,41.527,68.431,46.848C67.373,52.169,64.761,57.056,60.925,60.892C57.088,64.728,52.201,67.341,46.88,68.399C41.559,69.458,36.044,68.914,31.032,66.838C26.02,64.762,21.736,61.247,18.722,56.736C15.708,52.225,14.099,46.922,14.099,41.496C14.108,34.224,17,27.253,22.143,22.11C27.285,16.968,34.257,14.076,41.529,14.067ZM41.529,14.067"/>
  <path stroke-width="1px" stroke-dasharray="none" stroke-linejoin="miter" stroke="none" stroke-opacity="1" stroke-miterlimit="4" fill="#000000" fill-opacity="1" stroke-linecap="butt" fill-rule="nonzero" d="M30.234,44.724L38.302,44.724L38.302,52.791C38.302,53.647,38.642,54.468,39.247,55.073C39.852,55.678,40.673,56.018,41.529,56.018C42.385,56.018,43.205,55.678,43.811,55.073C44.416,54.468,44.756,53.647,44.756,52.791L44.756,44.724L52.823,44.724C53.679,44.724,54.5,44.384,55.105,43.778C55.711,43.173,56.051,42.353,56.051,41.496C56.051,40.641,55.711,39.82,55.105,39.215C54.5,38.61,53.679,38.27,52.823,38.27L44.756,38.27L44.756,30.202C44.756,29.346,44.416,28.525,43.811,27.92C43.205,27.315,42.385,26.975,41.529,26.975C40.673,26.975,39.852,27.315,39.247,27.92C38.642,28.525,38.302,29.346,38.302,30.202L38.302,38.27L30.234,38.27C29.378,38.27,28.558,38.61,27.952,39.215C27.347,39.82,27.007,40.641,27.007,41.496C27.007,42.353,27.347,43.173,27.952,43.778C28.558,44.384,29.378,44.724,30.234,44.724ZM30.234,44.724"/>
</g>
  <g id="Semibold-L" transform="matrix(1.0,0.0,0.0,1.0,1998.0810073571702,1474.2080889031345)">  <path stroke-width="1px" stroke="none" stroke-opacity="1" fill="#000000" stroke-linejoin="miter" fill-opacity="1" stroke-miterlimit="4" fill-rule="nonzero" stroke-linecap="butt" stroke-dasharray="none" d="M83.19,74.057L69.604,60.471C74.305,53.501,76.24,45.028,75.033,36.708C73.825,28.387,69.562,20.814,63.074,15.467C56.586,10.119,48.338,7.38,39.94,7.784C31.542,8.188,23.595,11.705,17.65,17.65C11.705,23.595,8.188,31.542,7.784,39.94C7.38,48.338,10.119,56.586,15.467,63.074C20.814,69.562,28.387,73.825,36.708,75.033C45.028,76.24,53.501,74.305,60.471,69.604L74.089,83.19C75.299,84.392,76.934,85.067,78.639,85.067C80.345,85.067,81.98,84.392,83.19,83.19C83.79,82.59,84.266,81.878,84.591,81.095C84.916,80.312,85.082,79.472,85.082,78.623C85.082,77.775,84.916,76.935,84.591,76.152C84.266,75.368,83.79,74.657,83.19,74.057ZM41.529,14.067C46.954,14.067,52.257,15.676,56.768,18.69C61.279,21.704,64.794,25.988,66.87,31C68.946,36.012,69.49,41.527,68.431,46.848C67.373,52.169,64.761,57.056,60.925,60.892C57.088,64.728,52.201,67.341,46.88,68.399C41.559,69.458,36.044,68.914,31.032,66.838C26.02,64.762,21.736,61.247,18.722,56.736C15.708,52.225,14.099,46.922,14.099,41.496C14.108,34.224,17,27.253,22.143,22.11C27.285,16.968,34.257,14.076,41.529,14.067ZM41.529,14.067"/>
  <path fill-opacity="1" stroke-width="1px" stroke-dasharray="none" stroke-miterlimit="4" stroke-opacity="1" stroke-linecap="butt" fill-rule="nonzero" stroke="none" stroke-linejoin="miter" fill="#000000" d="M30.234,44.724L38.302,44.724L38.302,52.791C38.302,53.647,38.642,54.468,39.247,55.073C39.852,55.678,40.673,56.018,41.529,56.018C42.385,56.018,43.205,55.678,43.811,55.073C44.416,54.468,44.756,53.647,44.756,52.791L44.756,44.724L52.823,44.724C53.679,44.724,54.5,44.384,55.105,43.778C55.711,43.173,56.051,42.353,56.051,41.496C56.051,40.641,55.711,39.82,55.105,39.215C54.5,38.61,53.679,38.27,52.823,38.27L44.756,38.27L44.756,30.202C44.756,29.346,44.416,28.525,43.811,27.92C43.205,27.315,42.385,26.975,41.529,26.975C40.673,26.975,39.852,27.315,39.247,27.92C38.642,28.525,38.302,29.346,38.302,30.202L38.302,38.27L30.234,38.27C29.378,38.27,28.558,38.61,27.952,39.215C27.347,39.82,27.007,40.641,27.007,41.496C27.007,42.353,27.347,43.173,27.952,43.778C28.558,44.384,29.378,44.724,30.234,44.724ZM30.234,44.724"/>
</g>
  <g id="Medium-L" transform="matrix(1.0,0.0,0.0,1.0,1701.3710073571701,1474.2080889031345)">  <path stroke-dasharray="none" fill-rule="nonzero" stroke-linecap="butt" stroke-opacity="1" stroke="none" stroke-miterlimit="4" fill="#000000" fill-opacity="1" stroke-width="1px" stroke-linejoin="miter" d="M83.19,74.057L69.604,60.471C74.305,53.501,76.24,45.028,75.033,36.708C73.825,28.387,69.562,20.814,63.074,15.467C56.586,10.119,48.338,7.38,39.94,7.784C31.542,8.188,23.595,11.705,17.65,17.65C11.705,23.595,8.188,31.542,7.784,39.94C7.38,48.338,10.119,56.586,15.467,63.074C20.814,69.562,28.387,73.825,36.708,75.033C45.028,76.24,53.501,74.305,60.471,69.604L74.089,83.19C75.299,84.392,76.934,85.067,78.639,85.067C80.345,85.067,81.98,84.392,83.19,83.19C83.79,82.59,84.266,81.878,84.591,81.095C84.916,80.312,85.082,79.472,85.082,78.623C85.082,77.775,84.916,76.935,84.591,76.152C84.266,75.368,83.79,74.657,83.19,74.057ZM41.529,14.067C46.954,14.067,52.257,15.676,56.768,18.69C61.279,21.704,64.794,25.988,66.87,31C68.946,36.012,69.49,41.527,68.431,46.848C67.373,52.169,64.761,57.056,60.925,60.892C57.088,64.728,52.201,67.341,46.88,68.399C41.559,69.458,36.044,68.914,31.032,66.838C26.02,64.762,21.736,61.247,18.722,56.736C15.708,52.225,14.099,46.922,14.099,41.496C14.108,34.224,17,27.253,22.143,22.11C27.285,16.968,34.257,14.076,41.529,14.067ZM41.529,14.067"/>
  <path stroke-dasharray="none" stroke-width="1px" stroke="none" stroke-opacity="1" stroke-miterlimit="4" fill-opacity="1" stroke-linejoin="miter" fill-rule="nonzero" stroke-linecap="butt" fill="#000000" d="M30.234,44.724L38.302,44.724L38.302,52.791C38.302,53.647,38.642,54.468,39.247,55.073C39.852,55.678,40.673,56.018,41.529,56.018C42.385,56.018,43.205,55.678,43.811,55.073C44.416,54.468,44.756,53.647,44.756,52.791L44.756,44.724L52.823,44.724C53.679,44.724,54.5,44.384,55.105,43.778C55.711,43.173,56.051,42.353,56.051,41.496C56.051,40.641,55.711,39.82,55.105,39.215C54.5,38.61,53.679,38.27,52.823,38.27L44.756,38.27L44.756,30.202C44.756,29.346,44.416,28.525,43.811,27.92C43.205,27.315,42.385,26.975,41.529,26.975C40.673,26.975,39.852,27.315,39.247,27.92C38.642,28.525,38.302,29.346,38.302,30.202L38.302,38.27L30.234,38.27C29.378,38.27,28.558,38.61,27.952,39.215C27.347,39.82,27.007,40.641,27.007,41.496C27.007,42.353,27.347,43.173,27.952,43.778C28.558,44.384,29.378,44.724,30.234,44.724ZM30.234,44.724"/>
</g>
  <g id="Regular-L" transform="matrix(1.0,0.0,0.0,1.0,1404.66100735717,1474.2080889031345)">  <path fill-opacity="1" fill-rule="nonzero" stroke-opacity="1" stroke-miterlimit="4" fill="#000000" stroke-linejoin="miter" stroke="none" stroke-width="1px" stroke-linecap="butt" stroke-dasharray="none" d="M83.19,74.057L69.604,60.471C74.305,53.501,76.24,45.028,75.033,36.708C73.825,28.387,69.562,20.814,63.074,15.467C56.586,10.119,48.338,7.38,39.94,7.784C31.542,8.188,23.595,11.705,17.65,17.65C11.705,23.595,8.188,31.542,7.784,39.94C7.38,48.338,10.119,56.586,15.467,63.074C20.814,69.562,28.387,73.825,36.708,75.033C45.028,76.24,53.501,74.305,60.471,69.604L74.089,83.19C75.299,84.392,76.934,85.067,78.639,85.067C80.345,85.067,81.98,84.392,83.19,83.19C83.79,82.59,84.266,81.878,84.591,81.095C84.916,80.312,85.082,79.472,85.082,78.623C85.082,77.775,84.916,76.935,84.591,76.152C84.266,75.368,83.79,74.657,83.19,74.057ZM41.529,14.067C46.954,14.067,52.257,15.676,56.768,18.69C61.279,21.704,64.794,25.988,66.87,31C68.946,36.012,69.49,41.527,68.431,46.848C67.373,52.169,64.761,57.056,60.925,60.892C57.088,64.728,52.201,67.341,46.88,68.399C41.559,69.458,36.044,68.914,31.032,66.838C26.02,64.762,21.736,61.247,18.722,56.736C15.708,52.225,14.099,46.922,14.099,41.496C14.108,34.224,17,27.253,22.143,22.11C27.285,16.968,34.257,14.076,41.529,14.067ZM41.529,14.067"/>
  <path stroke="none" stroke-linecap="butt" fill-opacity="1" stroke-dasharray="none" stroke-miterlimit="4" stroke-width="1px" stroke-linejoin="miter" fill-rule="nonzero" stroke-opacity="1" fill="#000000" d="M30.234,44.724L38.302,44.724L38.302,52.791C38.302,53.647,38.642,54.468,39.247,55.073C39.852,55.678,40.673,56.018,41.529,56.018C42.385,56.018,43.205,55.678,43.811,55.073C44.416,54.468,44.756,53.647,44.756,52.791L44.756,44.724L52.823,44.724C53.679,44.724,54.5,44.384,55.105,43.778C55.711,43.173,56.051,42.353,56.051,41.496C56.051,40.641,55.711,39.82,55.105,39.215C54.5,38.61,53.679,38.27,52.823,38.27L44.756,38.27L44.756,30.202C44.756,29.346,44.416,28.525,43.811,27.92C43.205,27.315,42.385,26.975,41.529,26.975C40.673,26.975,39.852,27.315,39.247,27.92C38.642,28.525,38.302,29.346,38.302,30.202L38.302,38.27L30.234,38.27C29.378,38.27,28.558,38.61,27.952,39.215C27.347,39.82,27.007,40.641,27.007,41.496C27.007,42.353,27.347,43.173,27.952,43.778C28.558,44.384,29.378,44.724,30.234,44.724ZM30.234,44.724"/>
</g>
  <g id="Light-L" transform="matrix(1.0,0.0,0.0,1.0,1107.9510073571703,1474.2080889031345)">  <path stroke-dasharray="none" fill-opacity="1" stroke-miterlimit="4" fill-rule="nonzero" stroke="none" fill="#000000" stroke-width="1px" stroke-linejoin="miter" stroke-opacity="1" stroke-linecap="butt" d="M83.19,74.057L69.604,60.471C74.305,53.501,76.24,45.028,75.033,36.708C73.825,28.387,69.562,20.814,63.074,15.467C56.586,10.119,48.338,7.38,39.94,7.784C31.542,8.188,23.595,11.705,17.65,17.65C11.705,23.595,8.188,31.542,7.784,39.94C7.38,48.338,10.119,56.586,15.467,63.074C20.814,69.562,28.387,73.825,36.708,75.033C45.028,76.24,53.501,74.305,60.471,69.604L74.089,83.19C75.299,84.392,76.934,85.067,78.639,85.067C80.345,85.067,81.98,84.392,83.19,83.19C83.79,82.59,84.266,81.878,84.591,81.095C84.916,80.312,85.082,79.472,85.082,78.623C85.082,77.775,84.916,76.935,84.591,76.152C84.266,75.368,83.79,74.657,83.19,74.057ZM41.529,14.067C46.954,14.067,52.257,15.676,56.768,18.69C61.279,21.704,64.794,25.988,66.87,31C68.946,36.012,69.49,41.527,68.431,46.848C67.373,52.169,64.761,57.056,60.925,60.892C57.088,64.728,52.201,67.341,46.88,68.399C41.559,69.458,36.044,68.914,31.032,66.838C26.02,64.762,21.736,61.247,18.722,56.736C15.708,52.225,14.099,46.922,14.099,41.496C14.108,34.224,17,27.253,22.143,22.11C27.285,16.968,34.257,14.076,41.529,14.067ZM41.529,14.067"/>
  <path fill="#000000" stroke-width="1px" stroke-miterlimit="4" stroke-opacity="1" stroke-linejoin="miter" fill-rule="nonzero" stroke-dasharray="none" stroke="none" fill-opacity="1" stroke-linecap="butt" d="M30.234,44.724L38.302,44.724L38.302,52.791C38.302,53.647,38.642,54.468,39.247,55.073C39.852,55.678,40.673,56.018,41.529,56.018C42.385,56.018,43.205,55.678,43.811,55.073C44.416,54.468,44.756,53.647,44.756,52.791L44.756,44.724L52.823,44.724C53.679,44.724,54.5,44.384,55.105,43.778C55.711,43.173,56.051,42.353,56.051,41.496C56.051,40.641,55.711,39.82,55.105,39.215C54.5,38.61,53.679,38.27,52.823,38.27L44.756,38.27L44.756,30.202C44.756,29.346,44.416,28.525,43.811,27.92C43.205,27.315,42.385,26.975,41.529,26.975C40.673,26.975,39.852,27.315,39.247,27.92C38.642,28.525,38.302,29.346,38.302,30.202L38.302,38.27L30.234,38.27C29.378,38.27,28.558,38.61,27.952,39.215C27.347,39.82,27.007,40.641,27.007,41.496C27.007,42.353,27.347,43.173,27.952,43.778C28.558,44.384,29.378,44.724,30.234,44.724ZM30.234,44.724"/>
</g>
  <g id="Thin-L" transform="matrix(1.0,0.0,0.0,1.0,811.2410073571702,1474.2080889031345)">  <path stroke-opacity="1" fill-rule="nonzero" stroke-linecap="butt" stroke-miterlimit="4" stroke-linejoin="miter" stroke="none" fill="#000000" stroke-width="1px" fill-opacity="1" stroke-dasharray="none" d="M83.19,74.057L69.604,60.471C74.305,53.501,76.24,45.028,75.033,36.708C73.825,28.387,69.562,20.814,63.074,15.467C56.586,10.119,48.338,7.38,39.94,7.784C31.542,8.188,23.595,11.705,17.65,17.65C11.705,23.595,8.188,31.542,7.784,39.94C7.38,48.338,10.119,56.586,15.467,63.074C20.814,69.562,28.387,73.825,36.708,75.033C45.028,76.24,53.501,74.305,60.471,69.604L74.089,83.19C75.299,84.392,76.934,85.067,78.639,85.067C80.345,85.067,81.98,84.392,83.19,83.19C83.79,82.59,84.266,81.878,84.591,81.095C84.916,80.312,85.082,79.472,85.082,78.623C85.082,77.775,84.916,76.935,84.591,76.152C84.266,75.368,83.79,74.657,83.19,74.057ZM41.529,14.067C46.954,14.067,52.257,15.676,56.768,18.69C61.279,21.704,64.794,25.988,66.87,31C68.946,36.012,69.49,41.527,68.431,46.848C67.373,52.169,64.761,57.056,60.925,60.892C57.088,64.728,52.201,67.341,46.88,68.399C41.559,69.458,36.044,68.914,31.032,66.838C26.02,64.762,21.736,61.247,18.722,56.736C15.708,52.225,14.099,46.922,14.099,41.496C14.108,34.224,17,27.253,22.143,22.11C27.285,16.968,34.257,14.076,41.529,14.067ZM41.529,14.067"/>
  <path stroke-linecap="butt" stroke-miterlimit="4" fill="#000000" stroke-opacity="1" stroke="none" fill-opacity="1" stroke-dasharray="none" stroke-width="1px" fill-rule="nonzero" stroke-linejoin="miter" d="M30.234,44.724L38.302,44.724L38.302,52.791C38.302,53.647,38.642,54.468,39.247,55.073C39.852,55.678,40.673,56.018,41.529,56.018C42.385,56.018,43.205,55.678,43.811,55.073C44.416,54.468,44.756,53.647,44.756,52.791L44.756,44.724L52.823,44.724C53.679,44.724,54.5,44.384,55.105,43.778C55.711,43.173,56.051,42.353,56.051,41.496C56.051,40.641,55.711,39.82,55.105,39.215C54.5,38.61,53.679,38.27,52.823,38.27L44.756,38.27L44.756,30.202C44.756,29.346,44.416,28.525,43.811,27.92C43.205,27.315,42.385,26.975,41.529,26.975C40.673,26.975,39.852,27.315,39.247,27.92C38.642,28.525,38.302,29.346,38.302,30.202L38.302,38.27L30.234,38.27C29.378,38.27,28.558,38.61,27.952,39.215C27.347,39.82,27.007,40.641,27.007,41.496C27.007,42.353,27.347,43.173,27.952,43.778C28.558,44.384,29.378,44.724,30.234,44.724ZM30.234,44.724"/>
</g>
  <g id="Ultralight-L" transform="matrix(1.0,0.0,0.0,1.0,514.5310073571702,1474.2080889031345)">  <path fill-opacity="1" fill-rule="nonzero" stroke-width="1px" fill="#000000" stroke-dasharray="none" stroke-opacity="1" stroke-linecap="butt" stroke="none" stroke-miterlimit="4" stroke-linejoin="miter" d="M83.19,74.057L69.604,60.471C74.305,53.501,76.24,45.028,75.033,36.708C73.825,28.387,69.562,20.814,63.074,15.467C56.586,10.119,48.338,7.38,39.94,7.784C31.542,8.188,23.595,11.705,17.65,17.65C11.705,23.595,8.188,31.542,7.784,39.94C7.38,48.338,10.119,56.586,15.467,63.074C20.814,69.562,28.387,73.825,36.708,75.033C45.028,76.24,53.501,74.305,60.471,69.604L74.089,83.19C75.299,84.392,76.934,85.067,78.639,85.067C80.345,85.067,81.98,84.392,83.19,83.19C83.79,82.59,84.266,81.878,84.591,81.095C84.916,80.312,85.082,79.472,85.082,78.623C85.082,77.775,84.916,76.935,84.591,76.152C84.266,75.368,83.79,74.657,83.19,74.057ZM41.529,14.067C46.954,14.067,52.257,15.676,56.768,18.69C61.279,21.704,64.794,25.988,66.87,31C68.946,36.012,69.49,41.527,68.431,46.848C67.373,52.169,64.761,57.056,60.925,60.892C57.088,64.728,52.201,67.341,46.88,68.399C41.559,69.458,36.044,68.914,31.032,66.838C26.02,64.762,21.736,61.247,18.722,56.736C15.708,52.225,14.099,46.922,14.099,41.496C14.108,34.224,17,27.253,22.143,22.11C27.285,16.968,34.257,14.076,41.529,14.067ZM41.529,14.067"/>
  <path stroke-dasharray="none" fill-rule="nonzero" fill-opacity="1" stroke-opacity="1" fill="#000000" stroke-linejoin="miter" stroke="none" stroke-linecap="butt" stroke-width="1px" stroke-miterlimit="4" d="M30.234,44.724L38.302,44.724L38.302,52.791C38.302,53.647,38.642,54.468,39.247,55.073C39.852,55.678,40.673,56.018,41.529,56.018C42.385,56.018,43.205,55.678,43.811,55.073C44.416,54.468,44.756,53.647,44.756,52.791L44.756,44.724L52.823,44.724C53.679,44.724,54.5,44.384,55.105,43.778C55.711,43.173,56.051,42.353,56.051,41.496C56.051,40.641,55.711,39.82,55.105,39.215C54.5,38.61,53.679,38.27,52.823,38.27L44.756,38.27L44.756,30.202C44.756,29.346,44.416,28.525,43.811,27.92C43.205,27.315,42.385,26.975,41.529,26.975C40.673,26.975,39.852,27.315,39.247,27.92C38.642,28.525,38.302,29.346,38.302,30.202L38.302,38.27L30.234,38.27C29.378,38.27,28.558,38.61,27.952,39.215C27.347,39.82,27.007,40.641,27.007,41.496C27.007,42.353,27.347,43.173,27.952,43.778C28.558,44.384,29.378,44.724,30.234,44.724ZM30.234,44.724"/>
</g>
  <g id="Black-M" transform="matrix(1.0,0.0,0.0,1.0,2898.6575250830774,1054.6754996644938)">  <path stroke-linejoin="miter" stroke-linecap="butt" stroke-dasharray="none" stroke-width="1px" fill="#000000" stroke-opacity="1" stroke-miterlimit="4" fill-rule="nonzero" fill-opacity="1" stroke="none" d="M64.488,57.409L53.957,46.877C57.601,41.473,59.101,34.906,58.165,28.456C57.229,22.005,53.924,16.135,48.895,11.99C43.865,7.844,37.471,5.721,30.961,6.034C24.451,6.347,18.291,9.074,13.682,13.682C9.074,18.291,6.347,24.451,6.034,30.961C5.721,37.471,7.844,43.865,11.99,48.895C16.135,53.924,22.005,57.229,28.456,58.165C34.906,59.101,41.473,57.601,46.877,53.957L57.434,64.488C58.371,65.42,59.639,65.943,60.961,65.943C62.283,65.943,63.551,65.42,64.488,64.488C64.953,64.023,65.322,63.472,65.574,62.864C65.826,62.257,65.955,61.606,65.955,60.948C65.955,60.291,65.826,59.64,65.574,59.032C65.322,58.425,64.953,57.873,64.488,57.409ZM32.193,10.905C36.398,10.905,40.509,12.152,44.006,14.488C47.503,16.825,50.228,20.145,51.838,24.031C53.447,27.916,53.868,32.191,53.048,36.316C52.227,40.441,50.202,44.23,47.228,47.203C44.255,50.177,40.466,52.202,36.341,53.023C32.216,53.843,27.941,53.422,24.056,51.813C20.17,50.203,16.85,47.478,14.513,43.981C12.177,40.484,10.93,36.373,10.93,32.168C10.936,26.531,13.179,21.126,17.165,17.14C21.151,13.154,26.556,10.911,32.193,10.905ZM32.193,10.905"/>
  <path stroke-width="1px" stroke="none" stroke-miterlimit="4" stroke-opacity="1" stroke-linejoin="miter" fill-rule="nonzero" stroke-linecap="butt" stroke-dasharray="none" fill-opacity="1" fill="#000000" d="M23.437,34.67L29.691,34.67L29.691,40.923C29.691,41.587,29.955,42.223,30.424,42.692C30.893,43.161,31.53,43.425,32.193,43.425C32.856,43.425,33.492,43.161,33.962,42.692C34.431,42.223,34.694,41.587,34.694,40.923L34.694,34.67L40.948,34.67C41.612,34.67,42.248,34.406,42.717,33.937C43.186,33.468,43.45,32.831,43.45,32.168C43.45,31.504,43.186,30.868,42.717,30.399C42.248,29.93,41.612,29.666,40.948,29.666L34.694,29.666L34.694,23.412C34.694,22.749,34.431,22.113,33.962,21.644C33.492,21.174,32.856,20.911,32.193,20.911C31.53,20.911,30.893,21.174,30.424,21.644C29.955,22.113,29.691,22.749,29.691,23.412L29.691,29.666L23.437,29.666C22.774,29.666,22.138,29.93,21.669,30.399C21.199,30.868,20.936,31.504,20.936,32.168C20.936,32.831,21.199,33.468,21.669,33.937C22.138,34.406,22.774,34.67,23.437,34.67ZM23.437,34.67"/>
</g>
  <g id="Heavy-M" transform="matrix(1.0,0.0,0.0,1.0,2601.9475250830774,1054.6754996644938)">  <path stroke-dasharray="none" stroke-linejoin="miter" stroke="none" stroke-width="1px" fill="#000000" stroke-opacity="1" stroke-miterlimit="4" stroke-linecap="butt" fill-rule="nonzero" fill-opacity="1" d="M64.488,57.409L53.957,46.877C57.601,41.473,59.101,34.906,58.165,28.456C57.229,22.005,53.924,16.135,48.895,11.99C43.865,7.844,37.471,5.721,30.961,6.034C24.451,6.347,18.291,9.074,13.682,13.682C9.074,18.291,6.347,24.451,6.034,30.961C5.721,37.471,7.844,43.865,11.99,48.895C16.135,53.924,22.005,57.229,28.456,58.165C34.906,59.101,41.473,57.601,46.877,53.957L57.434,64.488C58.371,65.42,59.639,65.943,60.961,65.943C62.283,65.943,63.551,65.42,64.488,64.488C64.953,64.023,65.322,63.472,65.574,62.864C65.826,62.257,65.955,61.606,65.955,60.948C65.955,60.291,65.826,59.64,65.574,59.032C65.322,58.425,64.953,57.873,64.488,57.409ZM32.193,10.905C36.398,10.905,40.509,12.152,44.006,14.488C47.503,16.825,50.228,20.145,51.838,24.031C53.447,27.916,53.868,32.191,53.048,36.316C52.227,40.441,50.202,44.23,47.228,47.203C44.255,50.177,40.466,52.202,36.341,53.023C32.216,53.843,27.941,53.422,24.056,51.813C20.17,50.203,16.85,47.478,14.513,43.981C12.177,40.484,10.93,36.373,10.93,32.168C10.936,26.531,13.179,21.126,17.165,17.14C21.151,13.154,26.556,10.911,32.193,10.905ZM32.193,10.905"/>
  <path stroke-linejoin="miter" stroke-opacity="1" stroke-miterlimit="4" stroke-width="1px" stroke-linecap="butt" fill-rule="nonzero" fill-opacity="1" fill="#000000" stroke-dasharray="none" stroke="none" d="M23.437,34.67L29.691,34.67L29.691,40.923C29.691,41.587,29.955,42.223,30.424,42.692C30.893,43.161,31.53,43.425,32.193,43.425C32.856,43.425,33.492,43.161,33.962,42.692C34.431,42.223,34.694,41.587,34.694,40.923L34.694,34.67L40.948,34.67C41.612,34.67,42.248,34.406,42.717,33.937C43.186,33.468,43.45,32.831,43.45,32.168C43.45,31.504,43.186,30.868,42.717,30.399C42.248,29.93,41.612,29.666,40.948,29.666L34.694,29.666L34.694,23.412C34.694,22.749,34.431,22.113,33.962,21.644C33.492,21.174,32.856,20.911,32.193,20.911C31.53,20.911,30.893,21.174,30.424,21.644C29.955,22.113,29.691,22.749,29.691,23.412L29.691,29.666L23.437,29.666C22.774,29.666,22.138,29.93,21.669,30.399C21.199,30.868,20.936,31.504,20.936,32.168C20.936,32.831,21.199,33.468,21.669,33.937C22.138,34.406,22.774,34.67,23.437,34.67ZM23.437,34.67"/>
</g>
  <g id="Bold-M" transform="matrix(1.0,0.0,0.0,1.0,2305.2375250830773,1054.6754996644938)">  <path fill-opacity="1" stroke-width="1px" stroke="none" fill-rule="nonzero" stroke-linecap="butt" stroke-opacity="1" stroke-linejoin="miter" stroke-miterlimit="4" stroke-dasharray="none" fill="#000000" d="M64.488,57.409L53.957,46.877C57.601,41.473,59.101,34.906,58.165,28.456C57.229,22.005,53.924,16.135,48.895,11.99C43.865,7.844,37.471,5.721,30.961,6.034C24.451,6.347,18.291,9.074,13.682,13.682C9.074,18.291,6.347,24.451,6.034,30.961C5.721,37.471,7.844,43.865,11.99,48.895C16.135,53.924,22.005,57.229,28.456,58.165C34.906,59.101,41.473,57.601,46.877,53.957L57.434,64.488C58.371,65.42,59.639,65.943,60.961,65.943C62.283,65.943,63.551,65.42,64.488,64.488C64.953,64.023,65.322,63.472,65.574,62.864C65.826,62.257,65.955,61.606,65.955,60.948C65.955,60.291,65.826,59.64,65.574,59.032C65.322,58.425,64.953,57.873,64.488,57.409ZM32.193,10.905C36.398,10.905,40.509,12.152,44.006,14.488C47.503,16.825,50.228,20.145,51.838,24.031C53.447,27.916,53.868,32.191,53.048,36.316C52.227,40.441,50.202,44.23,47.228,47.203C44.255,50.177,40.466,52.202,36.341,53.023C32.216,53.843,27.941,53.422,24.056,51.813C20.17,50.203,16.85,47.478,14.513,43.981C12.177,40.484,10.93,36.373,10.93,32.168C10.936,26.531,13.179,21.126,17.165,17.14C21.151,13.154,26.556,10.911,32.193,10.905ZM32.193,10.905"/>
  <path stroke-width="1px" stroke-dasharray="none" stroke-linejoin="miter" stroke="none" stroke-opacity="1" stroke-miterlimit="4" fill="#000000" fill-opacity="1" stroke-linecap="butt" fill-rule="nonzero" d="M23.437,34.67L29.691,34.67L29.691,40.923C29.691,41.587,29.955,42.223,30.424,42.692C30.893,43.161,31.53,43.425,32.193,43.425C32.856,43.425,33.492,43.161,33.962,42.692C34.431,42.223,34.694,41.587,34.694,40.923L34.694,34.67L40.948,34.67C41.612,34.67,42.248,34.406,42.717,33.937C43.186,33.468,43.45,32.831,43.45,32.168C43.45,31.504,43.186,30.868,42.717,30.399C42.248,29.93,41.612,29.666,40.948,29.666L34.694,29.666L34.694,23.412C34.694,22.749,34.431,22.113,33.962,21.644C33.492,21.174,32.856,20.911,32.193,20.911C31.53,20.911,30.893,21.174,30.424,21.644C29.955,22.113,29.691,22.749,29.691,23.412L29.691,29.666L23.437,29.666C22.774,29.666,22.138,29.93,21.669,30.399C21.199,30.868,20.936,31.504,20.936,32.168C20.936,32.831,21.199,33.468,21.669,33.937C22.138,34.406,22.774,34.67,23.437,34.67ZM23.437,34.67"/>
</g>
  <g id="Semibold-M" transform="matrix(1.0,0.0,0.0,1.0,2008.5275250830778,1054.6754996644938)">  <path stroke-width="1px" stroke="none" stroke-opacity="1" fill="#000000" stroke-linejoin="miter" fill-opacity="1" stroke-miterlimit="4" fill-rule="nonzero" stroke-linecap="butt" stroke-dasharray="none" d="M64.488,57.409L53.957,46.877C57.601,41.473,59.101,34.906,58.165,28.456C57.229,22.005,53.924,16.135,48.895,11.99C43.865,7.844,37.471,5.721,30.961,6.034C24.451,6.347,18.291,9.074,13.682,13.682C9.074,18.291,6.347,24.451,6.034,30.961C5.721,37.471,7.844,43.865,11.99,48.895C16.135,53.924,22.005,57.229,28.456,58.165C34.906,59.101,41.473,57.601,46.877,53.957L57.434,64.488C58.371,65.42,59.639,65.943,60.961,65.943C62.283,65.943,63.551,65.42,64.488,64.488C64.953,64.023,65.322,63.472,65.574,62.864C65.826,62.257,65.955,61.606,65.955,60.948C65.955,60.291,65.826,59.64,65.574,59.032C65.322,58.425,64.953,57.873,64.488,57.409ZM32.193,10.905C36.398,10.905,40.509,12.152,44.006,14.488C47.503,16.825,50.228,20.145,51.838,24.031C53.447,27.916,53.868,32.191,53.048,36.316C52.227,40.441,50.202,44.23,47.228,47.203C44.255,50.177,40.466,52.202,36.341,53.023C32.216,53.843,27.941,53.422,24.056,51.813C20.17,50.203,16.85,47.478,14.513,43.981C12.177,40.484,10.93,36.373,10.93,32.168C10.936,26.531,13.179,21.126,17.165,17.14C21.151,13.154,26.556,10.911,32.193,10.905ZM32.193,10.905"/>
  <path fill-opacity="1" stroke-width="1px" stroke-dasharray="none" stroke-miterlimit="4" stroke-opacity="1" stroke-linecap="butt" fill-rule="nonzero" stroke="none" stroke-linejoin="miter" fill="#000000" d="M23.437,34.67L29.691,34.67L29.691,40.923C29.691,41.587,29.955,42.223,30.424,42.692C30.893,43.161,31.53,43.425,32.193,43.425C32.856,43.425,33.492,43.161,33.962,42.692C34.431,42.223,34.694,41.587,34.694,40.923L34.694,34.67L40.948,34.67C41.612,34.67,42.248,34.406,42.717,33.937C43.186,33.468,43.45,32.831,43.45,32.168C43.45,31.504,43.186,30.868,42.717,30.399C42.248,29.93,41.612,29.666,40.948,29.666L34.694,29.666L34.694,23.412C34.694,22.749,34.431,22.113,33.962,21.644C33.492,21.174,32.856,20.911,32.193,20.911C31.53,20.911,30.893,21.174,30.424,21.644C29.955,22.113,29.691,22.749,29.691,23.412L29.691,29.666L23.437,29.666C22.774,29.666,22.138,29.93,21.669,30.399C21.199,30.868,20.936,31.504,20.936,32.168C20.936,32.831,21.199,33.468,21.669,33.937C22.138,34.406,22.774,34.67,23.437,34.67ZM23.437,34.67"/>
</g>
  <g id="Medium-M" transform="matrix(1.0,0.0,0.0,1.0,1711.8175250830777,1054.6754996644938)">  <path stroke-dasharray="none" fill-rule="nonzero" stroke-linecap="butt" stroke-opacity="1" stroke="none" stroke-miterlimit="4" fill="#000000" fill-opacity="1" stroke-width="1px" stroke-linejoin="miter" d="M64.488,57.409L53.957,46.877C57.601,41.473,59.101,34.906,58.165,28.456C57.229,22.005,53.924,16.135,48.895,11.99C43.865,7.844,37.471,5.721,30.961,6.034C24.451,6.347,18.291,9.074,13.682,13.682C9.074,18.291,6.347,24.451,6.034,30.961C5.721,37.471,7.844,43.865,11.99,48.895C16.135,53.924,22.005,57.229,28.456,58.165C34.906,59.101,41.473,57.601,46.877,53.957L57.434,64.488C58.371,65.42,59.639,65.943,60.961,65.943C62.283,65.943,63.551,65.42,64.488,64.488C64.953,64.023,65.322,63.472,65.574,62.864C65.826,62.257,65.955,61.606,65.955,60.948C65.955,60.291,65.826,59.64,65.574,59.032C65.322,58.425,64.953,57.873,64.488,57.409ZM32.193,10.905C36.398,10.905,40.509,12.152,44.006,14.488C47.503,16.825,50.228,20.145,51.838,24.031C53.447,27.916,53.868,32.191,53.048,36.316C52.227,40.441,50.202,44.23,47.228,47.203C44.255,50.177,40.466,52.202,36.341,53.023C32.216,53.843,27.941,53.422,24.056,51.813C20.17,50.203,16.85,47.478,14.513,43.981C12.177,40.484,10.93,36.373,10.93,32.168C10.936,26.531,13.179,21.126,17.165,17.14C21.151,13.154,26.556,10.911,32.193,10.905ZM32.193,10.905"/>
  <path stroke-dasharray="none" stroke-width="1px" stroke="none" stroke-opacity="1" stroke-miterlimit="4" fill-opacity="1" stroke-linejoin="miter" fill-rule="nonzero" stroke-linecap="butt" fill="#000000" d="M23.437,34.67L29.691,34.67L29.691,40.923C29.691,41.587,29.955,42.223,30.424,42.692C30.893,43.161,31.53,43.425,32.193,43.425C32.856,43.425,33.492,43.161,33.962,42.692C34.431,42.223,34.694,41.587,34.694,40.923L34.694,34.67L40.948,34.67C41.612,34.67,42.248,34.406,42.717,33.937C43.186,33.468,43.45,32.831,43.45,32.168C43.45,31.504,43.186,30.868,42.717,30.399C42.248,29.93,41.612,29.666,40.948,29.666L34.694,29.666L34.694,23.412C34.694,22.749,34.431,22.113,33.962,21.644C33.492,21.174,32.856,20.911,32.193,20.911C31.53,20.911,30.893,21.174,30.424,21.644C29.955,22.113,29.691,22.749,29.691,23.412L29.691,29.666L23.437,29.666C22.774,29.666,22.138,29.93,21.669,30.399C21.199,30.868,20.936,31.504,20.936,32.168C20.936,32.831,21.199,33.468,21.669,33.937C22.138,34.406,22.774,34.67,23.437,34.67ZM23.437,34.67"/>
</g>
  <g id="Regular-M" transform="matrix(1.0,0.0,0.0,1.0,1415.1075250830777,1054.6754996644938)">  <path fill-opacity="1" fill-rule="nonzero" stroke-opacity="1" stroke-miterlimit="4" fill="#000000" stroke-linejoin="miter" stroke="none" stroke-width="1px" stroke-linecap="butt" stroke-dasharray="none" d="M64.488,57.409L53.957,46.877C57.601,41.473,59.101,34.906,58.165,28.456C57.229,22.005,53.924,16.135,48.895,11.99C43.865,7.844,37.471,5.721,30.961,6.034C24.451,6.347,18.291,9.074,13.682,13.682C9.074,18.291,6.347,24.451,6.034,30.961C5.721,37.471,7.844,43.865,11.99,48.895C16.135,53.924,22.005,57.229,28.456,58.165C34.906,59.101,41.473,57.601,46.877,53.957L57.434,64.488C58.371,65.42,59.639,65.943,60.961,65.943C62.283,65.943,63.551,65.42,64.488,64.488C64.953,64.023,65.322,63.472,65.574,62.864C65.826,62.257,65.955,61.606,65.955,60.948C65.955,60.291,65.826,59.64,65.574,59.032C65.322,58.425,64.953,57.873,64.488,57.409ZM32.193,10.905C36.398,10.905,40.509,12.152,44.006,14.488C47.503,16.825,50.228,20.145,51.838,24.031C53.447,27.916,53.868,32.191,53.048,36.316C52.227,40.441,50.202,44.23,47.228,47.203C44.255,50.177,40.466,52.202,36.341,53.023C32.216,53.843,27.941,53.422,24.056,51.813C20.17,50.203,16.85,47.478,14.513,43.981C12.177,40.484,10.93,36.373,10.93,32.168C10.936,26.531,13.179,21.126,17.165,17.14C21.151,13.154,26.556,10.911,32.193,10.905ZM32.193,10.905"/>
  <path stroke="none" stroke-linecap="butt" fill-opacity="1" stroke-dasharray="none" stroke-miterlimit="4" stroke-width="1px" stroke-linejoin="miter" fill-rule="nonzero" stroke-opacity="1" fill="#000000" d="M23.437,34.67L29.691,34.67L29.691,40.923C29.691,41.587,29.955,42.223,30.424,42.692C30.893,43.161,31.53,43.425,32.193,43.425C32.856,43.425,33.492,43.161,33.962,42.692C34.431,42.223,34.694,41.587,34.694,40.923L34.694,34.67L40.948,34.67C41.612,34.67,42.248,34.406,42.717,33.937C43.186,33.468,43.45,32.831,43.45,32.168C43.45,31.504,43.186,30.868,42.717,30.399C42.248,29.93,41.612,29.666,40.948,29.666L34.694,29.666L34.694,23.412C34.694,22.749,34.431,22.113,33.962,21.644C33.492,21.174,32.856,20.911,32.193,20.911C31.53,20.911,30.893,21.174,30.424,21.644C29.955,22.113,29.691,22.749,29.691,23.412L29.691,29.666L23.437,29.666C22.774,29.666,22.138,29.93,21.669,30.399C21.199,30.868,20.936,31.504,20.936,32.168C20.936,32.831,21.199,33.468,21.669,33.937C22.138,34.406,22.774,34.67,23.437,34.67ZM23.437,34.67"/>
</g>
  <g id="Light-M" transform="matrix(1.0,0.0,0.0,1.0,1118.3975250830779,1054.6754996644938)">  <path stroke-dasharray="none" fill-opacity="1" stroke-miterlimit="4" fill-rule="nonzero" stroke="none" fill="#000000" stroke-width="1px" stroke-linejoin="miter" stroke-opacity="1" stroke-linecap="butt" d="M64.488,57.409L53.957,46.877C57.601,41.473,59.101,34.906,58.165,28.456C57.229,22.005,53.924,16.135,48.895,11.99C43.865,7.844,37.471,5.721,30.961,6.034C24.451,6.347,18.291,9.074,13.682,13.682C9.074,18.291,6.347,24.451,6.034,30.961C5.721,37.471,7.844,43.865,11.99,48.895C16.135,53.924,22.005,57.229,28.456,58.165C34.906,59.101,41.473,57.601,46.877,53.957L57.434,64.488C58.371,65.42,59.639,65.943,60.961,65.943C62.283,65.943,63.551,65.42,64.488,64.488C64.953,64.023,65.322,63.472,65.574,62.864C65.826,62.257,65.955,61.606,65.955,60.948C65.955,60.291,65.826,59.64,65.574,59.032C65.322,58.425,64.953,57.873,64.488,57.409ZM32.193,10.905C36.398,10.905,40.509,12.152,44.006,14.488C47.503,16.825,50.228,20.145,51.838,24.031C53.447,27.916,53.868,32.191,53.048,36.316C52.227,40.441,50.202,44.23,47.228,47.203C44.255,50.177,40.466,52.202,36.341,53.023C32.216,53.843,27.941,53.422,24.056,51.813C20.17,50.203,16.85,47.478,14.513,43.981C12.177,40.484,10.93,36.373,10.93,32.168C10.936,26.531,13.179,21.126,17.165,17.14C21.151,13.154,26.556,10.911,32.193,10.905ZM32.193,10.905"/>
  <path fill="#000000" stroke-width="1px" stroke-miterlimit="4" stroke-opacity="1" stroke-linejoin="miter" fill-rule="nonzero" stroke-dasharray="none" stroke="none" fill-opacity="1" stroke-linecap="butt" d="M23.437,34.67L29.691,34.67L29.691,40.923C29.691,41.587,29.955,42.223,30.424,42.692C30.893,43.161,31.53,43.425,32.193,43.425C32.856,43.425,33.492,43.161,33.962,42.692C34.431,42.223,34.694,41.587,34.694,40.923L34.694,34.67L40.948,34.67C41.612,34.67,42.248,34.406,42.717,33.937C43.186,33.468,43.45,32.831,43.45,32.168C43.45,31.504,43.186,30.868,42.717,30.399C42.248,29.93,41.612,29.666,40.948,29.666L34.694,29.666L34.694,23.412C34.694,22.749,34.431,22.113,33.962,21.644C33.492,21.174,32.856,20.911,32.193,20.911C31.53,20.911,30.893,21.174,30.424,21.644C29.955,22.113,29.691,22.749,29.691,23.412L29.691,29.666L23.437,29.666C22.774,29.666,22.138,29.93,21.669,30.399C21.199,30.868,20.936,31.504,20.936,32.168C20.936,32.831,21.199,33.468,21.669,33.937C22.138,34.406,22.774,34.67,23.437,34.67ZM23.437,34.67"/>
</g>
  <g id="Thin-M" transform="matrix(1.0,0.0,0.0,1.0,821.6875250830777,1054.6754996644938)">  <path stroke-opacity="1" fill-rule="nonzero" stroke-linecap="butt" stroke-miterlimit="4" stroke-linejoin="miter" stroke="none" fill="#000000" stroke-width="1px" fill-opacity="1" stroke-dasharray="none" d="M64.488,57.409L53.957,46.877C57.601,41.473,59.101,34.906,58.165,28.456C57.229,22.005,53.924,16.135,48.895,11.99C43.865,7.844,37.471,5.721,30.961,6.034C24.451,6.347,18.291,9.074,13.682,13.682C9.074,18.291,6.347,24.451,6.034,30.961C5.721,37.471,7.844,43.865,11.99,48.895C16.135,53.924,22.005,57.229,28.456,58.165C34.906,59.101,41.473,57.601,46.877,53.957L57.434,64.488C58.371,65.42,59.639,65.943,60.961,65.943C62.283,65.943,63.551,65.42,64.488,64.488C64.953,64.023,65.322,63.472,65.574,62.864C65.826,62.257,65.955,61.606,65.955,60.948C65.955,60.291,65.826,59.64,65.574,59.032C65.322,58.425,64.953,57.873,64.488,57.409ZM32.193,10.905C36.398,10.905,40.509,12.152,44.006,14.488C47.503,16.825,50.228,20.145,51.838,24.031C53.447,27.916,53.868,32.191,53.048,36.316C52.227,40.441,50.202,44.23,47.228,47.203C44.255,50.177,40.466,52.202,36.341,53.023C32.216,53.843,27.941,53.422,24.056,51.813C20.17,50.203,16.85,47.478,14.513,43.981C12.177,40.484,10.93,36.373,10.93,32.168C10.936,26.531,13.179,21.126,17.165,17.14C21.151,13.154,26.556,10.911,32.193,10.905ZM32.193,10.905"/>
  <path stroke-linecap="butt" stroke-miterlimit="4" fill="#000000" stroke-opacity="1" stroke="none" fill-opacity="1" stroke-dasharray="none" stroke-width="1px" fill-rule="nonzero" stroke-linejoin="miter" d="M23.437,34.67L29.691,34.67L29.691,40.923C29.691,41.587,29.955,42.223,30.424,42.692C30.893,43.161,31.53,43.425,32.193,43.425C32.856,43.425,33.492,43.161,33.962,42.692C34.431,42.223,34.694,41.587,34.694,40.923L34.694,34.67L40.948,34.67C41.612,34.67,42.248,34.406,42.717,33.937C43.186,33.468,43.45,32.831,43.45,32.168C43.45,31.504,43.186,30.868,42.717,30.399C42.248,29.93,41.612,29.666,40.948,29.666L34.694,29.666L34.694,23.412C34.694,22.749,34.431,22.113,33.962,21.644C33.492,21.174,32.856,20.911,32.193,20.911C31.53,20.911,30.893,21.174,30.424,21.644C29.955,22.113,29.691,22.749,29.691,23.412L29.691,29.666L23.437,29.666C22.774,29.666,22.138,29.93,21.669,30.399C21.199,30.868,20.936,31.504,20.936,32.168C20.936,32.831,21.199,33.468,21.669,33.937C22.138,34.406,22.774,34.67,23.437,34.67ZM23.437,34.67"/>
</g>
  <g id="Ultralight-M" transform="matrix(1.0,0.0,0.0,1.0,524.9775250830777,1054.6754996644938)">  <path fill-opacity="1" fill-rule="nonzero" stroke-width="1px" fill="#000000" stroke-dasharray="none" stroke-opacity="1" stroke-linecap="butt" stroke="none" stroke-miterlimit="4" stroke-linejoin="miter" d="M64.488,57.409L53.957,46.877C57.601,41.473,59.101,34.906,58.165,28.456C57.229,22.005,53.924,16.135,48.895,11.99C43.865,7.844,37.471,5.721,30.961,6.034C24.451,6.347,18.291,9.074,13.682,13.682C9.074,18.291,6.347,24.451,6.034,30.961C5.721,37.471,7.844,43.865,11.99,48.895C16.135,53.924,22.005,57.229,28.456,58.165C34.906,59.101,41.473,57.601,46.877,53.957L57.434,64.488C58.371,65.42,59.639,65.943,60.961,65.943C62.283,65.943,63.551,65.42,64.488,64.488C64.953,64.023,65.322,63.472,65.574,62.864C65.826,62.257,65.955,61.606,65.955,60.948C65.955,60.291,65.826,59.64,65.574,59.032C65.322,58.425,64.953,57.873,64.488,57.409ZM32.193,10.905C36.398,10.905,40.509,12.152,44.006,14.488C47.503,16.825,50.228,20.145,51.838,24.031C53.447,27.916,53.868,32.191,53.048,36.316C52.227,40.441,50.202,44.23,47.228,47.203C44.255,50.177,40.466,52.202,36.341,53.023C32.216,53.843,27.941,53.422,24.056,51.813C20.17,50.203,16.85,47.478,14.513,43.981C12.177,40.484,10.93,36.373,10.93,32.168C10.936,26.531,13.179,21.126,17.165,17.14C21.151,13.154,26.556,10.911,32.193,10.905ZM32.193,10.905"/>
  <path stroke-dasharray="none" fill-rule="nonzero" fill-opacity="1" stroke-opacity="1" fill="#000000" stroke-linejoin="miter" stroke="none" stroke-linecap="butt" stroke-width="1px" stroke-miterlimit="4" d="M23.437,34.67L29.691,34.67L29.691,40.923C29.691,41.587,29.955,42.223,30.424,42.692C30.893,43.161,31.53,43.425,32.193,43.425C32.856,43.425,33.492,43.161,33.962,42.692C34.431,42.223,34.694,41.587,34.694,40.923L34.694,34.67L40.948,34.67C41.612,34.67,42.248,34.406,42.717,33.937C43.186,33.468,43.45,32.831,43.45,32.168C43.45,31.504,43.186,30.868,42.717,30.399C42.248,29.93,41.612,29.666,40.948,29.666L34.694,29.666L34.694,23.412C34.694,22.749,34.431,22.113,33.962,21.644C33.492,21.174,32.856,20.911,32.193,20.911C31.53,20.911,30.893,21.174,30.424,21.644C29.955,22.113,29.691,22.749,29.691,23.412L29.691,29.666L23.437,29.666C22.774,29.666,22.138,29.93,21.669,30.399C21.199,30.868,20.936,31.504,20.936,32.168C20.936,32.831,21.199,33.468,21.669,33.937C22.138,34.406,22.774,34.67,23.437,34.67ZM23.437,34.67"/>
</g>
  <g id="Black-S" transform="matrix(1.0,0.0,0.0,1.0,2906.4744021400497,632.5080104755799)">  <path stroke-linejoin="miter" stroke-linecap="butt" stroke-dasharray="none" stroke-width="1px" fill="#000000" stroke-opacity="1" stroke-miterlimit="4" fill-rule="nonzero" fill-opacity="1" stroke="none" d="M50.494,44.951L42.248,36.705C45.101,32.474,46.276,27.331,45.543,22.281C44.81,17.23,42.222,12.634,38.284,9.388C34.346,6.142,29.34,4.48,24.243,4.725C19.145,4.97,14.322,7.105,10.713,10.713C7.105,14.322,4.97,19.145,4.725,24.243C4.48,29.34,6.142,34.346,9.388,38.284C12.634,42.222,17.23,44.81,22.281,45.543C27.331,46.276,32.474,45.101,36.705,42.248L44.971,50.494C45.705,51.224,46.697,51.633,47.732,51.633C48.767,51.633,49.76,51.224,50.494,50.494C50.858,50.13,51.147,49.698,51.345,49.223C51.542,48.747,51.643,48.237,51.643,47.722C51.643,47.208,51.542,46.698,51.345,46.222C51.147,45.747,50.858,45.315,50.494,44.951ZM25.207,8.538C28.5,8.538,31.719,9.515,34.457,11.344C37.195,13.174,39.329,15.774,40.589,18.816C41.849,21.858,42.179,25.206,41.536,28.435C40.894,31.665,39.308,34.632,36.98,36.96C34.651,39.289,31.685,40.874,28.455,41.517C25.225,42.159,21.878,41.829,18.836,40.569C15.793,39.309,13.193,37.175,11.364,34.437C9.534,31.699,8.558,28.48,8.558,25.187C8.563,20.773,10.319,16.542,13.44,13.42C16.561,10.299,20.793,8.544,25.207,8.538ZM25.207,8.538"/>
  <path stroke-width="1px" stroke="none" stroke-miterlimit="4" stroke-opacity="1" stroke-linejoin="miter" fill-rule="nonzero" stroke-linecap="butt" stroke-dasharray="none" fill-opacity="1" fill="#000000" d="M18.352,27.146L23.248,27.146L23.248,32.043C23.248,32.562,23.455,33.061,23.822,33.428C24.189,33.795,24.688,34.002,25.207,34.002C25.727,34.002,26.225,33.795,26.592,33.428C26.959,33.061,27.166,32.562,27.166,32.043L27.166,27.146L32.062,27.146C32.582,27.146,33.08,26.94,33.448,26.572C33.815,26.205,34.021,25.707,34.021,25.187C34.021,24.668,33.815,24.17,33.448,23.802C33.08,23.435,32.582,23.229,32.062,23.229L27.166,23.229L27.166,18.332C27.166,17.812,26.959,17.314,26.592,16.947C26.225,16.58,25.727,16.373,25.207,16.373C24.688,16.373,24.189,16.58,23.822,16.947C23.455,17.314,23.248,17.812,23.248,18.332L23.248,23.229L18.352,23.229C17.832,23.229,17.334,23.435,16.966,23.802C16.599,24.17,16.393,24.668,16.393,25.187C16.393,25.707,16.599,26.205,16.966,26.572C17.334,26.94,17.832,27.146,18.352,27.146ZM18.352,27.146"/>
</g>
  <g id="Heavy-S" transform="matrix(1.0,0.0,0.0,1.0,2609.7644021400497,632.5080104755799)">  <path stroke-dasharray="none" stroke-linejoin="miter" stroke="none" stroke-width="1px" fill="#000000" stroke-opacity="1" stroke-miterlimit="4" stroke-linecap="butt" fill-rule="nonzero" fill-opacity="1" d="M50.494,44.951L42.248,36.705C45.101,32.474,46.276,27.331,45.543,22.281C44.81,17.23,42.222,12.634,38.284,9.388C34.346,6.142,29.34,4.48,24.243,4.725C19.145,4.97,14.322,7.105,10.713,10.713C7.105,14.322,4.97,19.145,4.725,24.243C4.48,29.34,6.142,34.346,9.388,38.284C12.634,42.222,17.23,44.81,22.281,45.543C27.331,46.276,32.474,45.101,36.705,42.248L44.971,50.494C45.705,51.224,46.697,51.633,47.732,51.633C48.767,51.633,49.76,51.224,50.494,50.494C50.858,50.13,51.147,49.698,51.345,49.223C51.542,48.747,51.643,48.237,51.643,47.722C51.643,47.208,51.542,46.698,51.345,46.222C51.147,45.747,50.858,45.315,50.494,44.951ZM25.207,8.538C28.5,8.538,31.719,9.515,34.457,11.344C37.195,13.174,39.329,15.774,40.589,18.816C41.849,21.858,42.179,25.206,41.536,28.435C40.894,31.665,39.308,34.632,36.98,36.96C34.651,39.289,31.685,40.874,28.455,41.517C25.225,42.159,21.878,41.829,18.836,40.569C15.793,39.309,13.193,37.175,11.364,34.437C9.534,31.699,8.558,28.48,8.558,25.187C8.563,20.773,10.319,16.542,13.44,13.42C16.561,10.299,20.793,8.544,25.207,8.538ZM25.207,8.538"/>
  <path stroke-linejoin="miter" stroke-opacity="1" stroke-miterlimit="4" stroke-width="1px" stroke-linecap="butt" fill-rule="nonzero" fill-opacity="1" fill="#000000" stroke-dasharray="none" stroke="none" d="M18.352,27.146L23.248,27.146L23.248,32.043C23.248,32.562,23.455,33.061,23.822,33.428C24.189,33.795,24.688,34.002,25.207,34.002C25.727,34.002,26.225,33.795,26.592,33.428C26.959,33.061,27.166,32.562,27.166,32.043L27.166,27.146L32.062,27.146C32.582,27.146,33.08,26.94,33.448,26.572C33.815,26.205,34.021,25.707,34.021,25.187C34.021,24.668,33.815,24.17,33.448,23.802C33.08,23.435,32.582,23.229,32.062,23.229L27.166,23.229L27.166,18.332C27.166,17.812,26.959,17.314,26.592,16.947C26.225,16.58,25.727,16.373,25.207,16.373C24.688,16.373,24.189,16.58,23.822,16.947C23.455,17.314,23.248,17.812,23.248,18.332L23.248,23.229L18.352,23.229C17.832,23.229,17.334,23.435,16.966,23.802C16.599,24.17,16.393,24.668,16.393,25.187C16.393,25.707,16.599,26.205,16.966,26.572C17.334,26.94,17.832,27.146,18.352,27.146ZM18.352,27.146"/>
</g>
  <g id="Bold-S" transform="matrix(1.0,0.0,0.0,1.0,2313.0544021400497,632.5080104755799)">  <path fill-opacity="1" stroke-width="1px" stroke="none" fill-rule="nonzero" stroke-linecap="butt" stroke-opacity="1" stroke-linejoin="miter" stroke-miterlimit="4" stroke-dasharray="none" fill="#000000" d="M50.494,44.951L42.248,36.705C45.101,32.474,46.276,27.331,45.543,22.281C44.81,17.23,42.222,12.634,38.284,9.388C34.346,6.142,29.34,4.48,24.243,4.725C19.145,4.97,14.322,7.105,10.713,10.713C7.105,14.322,4.97,19.145,4.725,24.243C4.48,29.34,6.142,34.346,9.388,38.284C12.634,42.222,17.23,44.81,22.281,45.543C27.331,46.276,32.474,45.101,36.705,42.248L44.971,50.494C45.705,51.224,46.697,51.633,47.732,51.633C48.767,51.633,49.76,51.224,50.494,50.494C50.858,50.13,51.147,49.698,51.345,49.223C51.542,48.747,51.643,48.237,51.643,47.722C51.643,47.208,51.542,46.698,51.345,46.222C51.147,45.747,50.858,45.315,50.494,44.951ZM25.207,8.538C28.5,8.538,31.719,9.515,34.457,11.344C37.195,13.174,39.329,15.774,40.589,18.816C41.849,21.858,42.179,25.206,41.536,28.435C40.894,31.665,39.308,34.632,36.98,36.96C34.651,39.289,31.685,40.874,28.455,41.517C25.225,42.159,21.878,41.829,18.836,40.569C15.793,39.309,13.193,37.175,11.364,34.437C9.534,31.699,8.558,28.48,8.558,25.187C8.563,20.773,10.319,16.542,13.44,13.42C16.561,10.299,20.793,8.544,25.207,8.538ZM25.207,8.538"/>
  <path stroke-width="1px" stroke-dasharray="none" stroke-linejoin="miter" stroke="none" stroke-opacity="1" stroke-miterlimit="4" fill="#000000" fill-opacity="1" stroke-linecap="butt" fill-rule="nonzero" d="M18.352,27.146L23.248,27.146L23.248,32.043C23.248,32.562,23.455,33.061,23.822,33.428C24.189,33.795,24.688,34.002,25.207,34.002C25.727,34.002,26.225,33.795,26.592,33.428C26.959,33.061,27.166,32.562,27.166,32.043L27.166,27.146L32.062,27.146C32.582,27.146,33.08,26.94,33.448,26.572C33.815,26.205,34.021,25.707,34.021,25.187C34.021,24.668,33.815,24.17,33.448,23.802C33.08,23.435,32.582,23.229,32.062,23.229L27.166,23.229L27.166,18.332C27.166,17.812,26.959,17.314,26.592,16.947C26.225,16.58,25.727,16.373,25.207,16.373C24.688,16.373,24.189,16.58,23.822,16.947C23.455,17.314,23.248,17.812,23.248,18.332L23.248,23.229L18.352,23.229C17.832,23.229,17.334,23.435,16.966,23.802C16.599,24.17,16.393,24.668,16.393,25.187C16.393,25.707,16.599,26.205,16.966,26.572C17.334,26.94,17.832,27.146,18.352,27.146ZM18.352,27.146"/>
</g>
  <g id="Semibold-S" transform="matrix(1.0,0.0,0.0,1.0,2016.3444021400499,632.5080104755799)">  <path stroke-width="1px" stroke="none" stroke-opacity="1" fill="#000000" stroke-linejoin="miter" fill-opacity="1" stroke-miterlimit="4" fill-rule="nonzero" stroke-linecap="butt" stroke-dasharray="none" d="M50.494,44.951L42.248,36.705C45.101,32.474,46.276,27.331,45.543,22.281C44.81,17.23,42.222,12.634,38.284,9.388C34.346,6.142,29.34,4.48,24.243,4.725C19.145,4.97,14.322,7.105,10.713,10.713C7.105,14.322,4.97,19.145,4.725,24.243C4.48,29.34,6.142,34.346,9.388,38.284C12.634,42.222,17.23,44.81,22.281,45.543C27.331,46.276,32.474,45.101,36.705,42.248L44.971,50.494C45.705,51.224,46.697,51.633,47.732,51.633C48.767,51.633,49.76,51.224,50.494,50.494C50.858,50.13,51.147,49.698,51.345,49.223C51.542,48.747,51.643,48.237,51.643,47.722C51.643,47.208,51.542,46.698,51.345,46.222C51.147,45.747,50.858,45.315,50.494,44.951ZM25.207,8.538C28.5,8.538,31.719,9.515,34.457,11.344C37.195,13.174,39.329,15.774,40.589,18.816C41.849,21.858,42.179,25.206,41.536,28.435C40.894,31.665,39.308,34.632,36.98,36.96C34.651,39.289,31.685,40.874,28.455,41.517C25.225,42.159,21.878,41.829,18.836,40.569C15.793,39.309,13.193,37.175,11.364,34.437C9.534,31.699,8.558,28.48,8.558,25.187C8.563,20.773,10.319,16.542,13.44,13.42C16.561,10.299,20.793,8.544,25.207,8.538ZM25.207,8.538"/>
  <path fill-opacity="1" stroke-width="1px" stroke-dasharray="none" stroke-miterlimit="4" stroke-opacity="1" stroke-linecap="butt" fill-rule="nonzero" stroke="none" stroke-linejoin="miter" fill="#000000" d="M18.352,27.146L23.248,27.146L23.248,32.043C23.248,32.562,23.455,33.061,23.822,33.428C24.189,33.795,24.688,34.002,25.207,34.002C25.727,34.002,26.225,33.795,26.592,33.428C26.959,33.061,27.166,32.562,27.166,32.043L27.166,27.146L32.062,27.146C32.582,27.146,33.08,26.94,33.448,26.572C33.815,26.205,34.021,25.707,34.021,25.187C34.021,24.668,33.815,24.17,33.448,23.802C33.08,23.435,32.582,23.229,32.062,23.229L27.166,23.229L27.166,18.332C27.166,17.812,26.959,17.314,26.592,16.947C26.225,16.58,25.727,16.373,25.207,16.373C24.688,16.373,24.189,16.58,23.822,16.947C23.455,17.314,23.248,17.812,23.248,18.332L23.248,23.229L18.352,23.229C17.832,23.229,17.334,23.435,16.966,23.802C16.599,24.17,16.393,24.668,16.393,25.187C16.393,25.707,16.599,26.205,16.966,26.572C17.334,26.94,17.832,27.146,18.352,27.146ZM18.352,27.146"/>
</g>
  <g id="Medium-S" transform="matrix(1.0,0.0,0.0,1.0,1719.6344021400498,632.5080104755799)">  <path stroke-dasharray="none" fill-rule="nonzero" stroke-linecap="butt" stroke-opacity="1" stroke="none" stroke-miterlimit="4" fill="#000000" fill-opacity="1" stroke-width="1px" stroke-linejoin="miter" d="M50.494,44.951L42.248,36.705C45.101,32.474,46.276,27.331,45.543,22.281C44.81,17.23,42.222,12.634,38.284,9.388C34.346,6.142,29.34,4.48,24.243,4.725C19.145,4.97,14.322,7.105,10.713,10.713C7.105,14.322,4.97,19.145,4.725,24.243C4.48,29.34,6.142,34.346,9.388,38.284C12.634,42.222,17.23,44.81,22.281,45.543C27.331,46.276,32.474,45.101,36.705,42.248L44.971,50.494C45.705,51.224,46.697,51.633,47.732,51.633C48.767,51.633,49.76,51.224,50.494,50.494C50.858,50.13,51.147,49.698,51.345,49.223C51.542,48.747,51.643,48.237,51.643,47.722C51.643,47.208,51.542,46.698,51.345,46.222C51.147,45.747,50.858,45.315,50.494,44.951ZM25.207,8.538C28.5,8.538,31.719,9.515,34.457,11.344C37.195,13.174,39.329,15.774,40.589,18.816C41.849,21.858,42.179,25.206,41.536,28.435C40.894,31.665,39.308,34.632,36.98,36.96C34.651,39.289,31.685,40.874,28.455,41.517C25.225,42.159,21.878,41.829,18.836,40.569C15.793,39.309,13.193,37.175,11.364,34.437C9.534,31.699,8.558,28.48,8.558,25.187C8.563,20.773,10.319,16.542,13.44,13.42C16.561,10.299,20.793,8.544,25.207,8.538ZM25.207,8.538"/>
  <path stroke-dasharray="none" stroke-width="1px" stroke="none" stroke-opacity="1" stroke-miterlimit="4" fill-opacity="1" stroke-linejoin="miter" fill-rule="nonzero" stroke-linecap="butt" fill="#000000" d="M18.352,27.146L23.248,27.146L23.248,32.043C23.248,32.562,23.455,33.061,23.822,33.428C24.189,33.795,24.688,34.002,25.207,34.002C25.727,34.002,26.225,33.795,26.592,33.428C26.959,33.061,27.166,32.562,27.166,32.043L27.166,27.146L32.062,27.146C32.582,27.146,33.08,26.94,33.448,26.572C33.815,26.205,34.021,25.707,34.021,25.187C34.021,24.668,33.815,24.17,33.448,23.802C33.08,23.435,32.582,23.229,32.062,23.229L27.166,23.229L27.166,18.332C27.166,17.812,26.959,17.314,26.592,16.947C26.225,16.58,25.727,16.373,25.207,16.373C24.688,16.373,24.189,16.58,23.822,16.947C23.455,17.314,23.248,17.812,23.248,18.332L23.248,23.229L18.352,23.229C17.832,23.229,17.334,23.435,16.966,23.802C16.599,24.17,16.393,24.668,16.393,25.187C16.393,25.707,16.599,26.205,16.966,26.572C17.334,26.94,17.832,27.146,18.352,27.146ZM18.352,27.146"/>
</g>
  <g id="Regular-S" transform="matrix(1.0,0.0,0.0,1.0,1422.9244021400498,632.5080104755799)">  <path fill-opacity="1" fill-rule="nonzero" stroke-opacity="1" stroke-miterlimit="4" fill="#000000" stroke-linejoin="miter" stroke="none" stroke-width="1px" stroke-linecap="butt" stroke-dasharray="none" d="M50.494,44.951L42.248,36.705C45.101,32.474,46.276,27.331,45.543,22.281C44.81,17.23,42.222,12.634,38.284,9.388C34.346,6.142,29.34,4.48,24.243,4.725C19.145,4.97,14.322,7.105,10.713,10.713C7.105,14.322,4.97,19.145,4.725,24.243C4.48,29.34,6.142,34.346,9.388,38.284C12.634,42.222,17.23,44.81,22.281,45.543C27.331,46.276,32.474,45.101,36.705,42.248L44.971,50.494C45.705,51.224,46.697,51.633,47.732,51.633C48.767,51.633,49.76,51.224,50.494,50.494C50.858,50.13,51.147,49.698,51.345,49.223C51.542,48.747,51.643,48.237,51.643,47.722C51.643,47.208,51.542,46.698,51.345,46.222C51.147,45.747,50.858,45.315,50.494,44.951ZM25.207,8.538C28.5,8.538,31.719,9.515,34.457,11.344C37.195,13.174,39.329,15.774,40.589,18.816C41.849,21.858,42.179,25.206,41.536,28.435C40.894,31.665,39.308,34.632,36.98,36.96C34.651,39.289,31.685,40.874,28.455,41.517C25.225,42.159,21.878,41.829,18.836,40.569C15.793,39.309,13.193,37.175,11.364,34.437C9.534,31.699,8.558,28.48,8.558,25.187C8.563,20.773,10.319,16.542,13.44,13.42C16.561,10.299,20.793,8.544,25.207,8.538ZM25.207,8.538"/>
  <path stroke="none" stroke-linecap="butt" fill-opacity="1" stroke-dasharray="none" stroke-miterlimit="4" stroke-width="1px" stroke-linejoin="miter" fill-rule="nonzero" stroke-opacity="1" fill="#000000" d="M18.352,27.146L23.248,27.146L23.248,32.043C23.248,32.562,23.455,33.061,23.822,33.428C24.189,33.795,24.688,34.002,25.207,34.002C25.727,34.002,26.225,33.795,26.592,33.428C26.959,33.061,27.166,32.562,27.166,32.043L27.166,27.146L32.062,27.146C32.582,27.146,33.08,26.94,33.448,26.572C33.815,26.205,34.021,25.707,34.021,25.187C34.021,24.668,33.815,24.17,33.448,23.802C33.08,23.435,32.582,23.229,32.062,23.229L27.166,23.229L27.166,18.332C27.166,17.812,26.959,17.314,26.592,16.947C26.225,16.58,25.727,16.373,25.207,16.373C24.688,16.373,24.189,16.58,23.822,16.947C23.455,17.314,23.248,17.812,23.248,18.332L23.248,23.229L18.352,23.229C17.832,23.229,17.334,23.435,16.966,23.802C16.599,24.17,16.393,24.668,16.393,25.187C16.393,25.707,16.599,26.205,16.966,26.572C17.334,26.94,17.832,27.146,18.352,27.146ZM18.352,27.146"/>
</g>
  <g id="Light-S" transform="matrix(1.0,0.0,0.0,1.0,1126.21440214005,632.5080104755799)">  <path stroke-dasharray="none" fill-opacity="1" stroke-miterlimit="4" fill-rule="nonzero" stroke="none" fill="#000000" stroke-width="1px" stroke-linejoin="miter" stroke-opacity="1" stroke-linecap="butt" d="M50.494,44.951L42.248,36.705C45.101,32.474,46.276,27.331,45.543,22.281C44.81,17.23,42.222,12.634,38.284,9.388C34.346,6.142,29.34,4.48,24.243,4.725C19.145,4.97,14.322,7.105,10.713,10.713C7.105,14.322,4.97,19.145,4.725,24.243C4.48,29.34,6.142,34.346,9.388,38.284C12.634,42.222,17.23,44.81,22.281,45.543C27.331,46.276,32.474,45.101,36.705,42.248L44.971,50.494C45.705,51.224,46.697,51.633,47.732,51.633C48.767,51.633,49.76,51.224,50.494,50.494C50.858,50.13,51.147,49.698,51.345,49.223C51.542,48.747,51.643,48.237,51.643,47.722C51.643,47.208,51.542,46.698,51.345,46.222C51.147,45.747,50.858,45.315,50.494,44.951ZM25.207,8.538C28.5,8.538,31.719,9.515,34.457,11.344C37.195,13.174,39.329,15.774,40.589,18.816C41.849,21.858,42.179,25.206,41.536,28.435C40.894,31.665,39.308,34.632,36.98,36.96C34.651,39.289,31.685,40.874,28.455,41.517C25.225,42.159,21.878,41.829,18.836,40.569C15.793,39.309,13.193,37.175,11.364,34.437C9.534,31.699,8.558,28.48,8.558,25.187C8.563,20.773,10.319,16.542,13.44,13.42C16.561,10.299,20.793,8.544,25.207,8.538ZM25.207,8.538"/>
  <path fill="#000000" stroke-width="1px" stroke-miterlimit="4" stroke-opacity="1" stroke-linejoin="miter" fill-rule="nonzero" stroke-dasharray="none" stroke="none" fill-opacity="1" stroke-linecap="butt" d="M18.352,27.146L23.248,27.146L23.248,32.043C23.248,32.562,23.455,33.061,23.822,33.428C24.189,33.795,24.688,34.002,25.207,34.002C25.727,34.002,26.225,33.795,26.592,33.428C26.959,33.061,27.166,32.562,27.166,32.043L27.166,27.146L32.062,27.146C32.582,27.146,33.08,26.94,33.448,26.572C33.815,26.205,34.021,25.707,34.021,25.187C34.021,24.668,33.815,24.17,33.448,23.802C33.08,23.435,32.582,23.229,32.062,23.229L27.166,23.229L27.166,18.332C27.166,17.812,26.959,17.314,26.592,16.947C26.225,16.58,25.727,16.373,25.207,16.373C24.688,16.373,24.189,16.58,23.822,16.947C23.455,17.314,23.248,17.812,23.248,18.332L23.248,23.229L18.352,23.229C17.832,23.229,17.334,23.435,16.966,23.802C16.599,24.17,16.393,24.668,16.393,25.187C16.393,25.707,16.599,26.205,16.966,26.572C17.334,26.94,17.832,27.146,18.352,27.146ZM18.352,27.146"/>
</g>
  <g id="Thin-S" transform="matrix(1.0,0.0,0.0,1.0,829.5044021400499,632.5080104755799)">  <path stroke-opacity="1" fill-rule="nonzero" stroke-linecap="butt" stroke-miterlimit="4" stroke-linejoin="miter" stroke="none" fill="#000000" stroke-width="1px" fill-opacity="1" stroke-dasharray="none" d="M50.494,44.951L42.248,36.705C45.101,32.474,46.276,27.331,45.543,22.281C44.81,17.23,42.222,12.634,38.284,9.388C34.346,6.142,29.34,4.48,24.243,4.725C19.145,4.97,14.322,7.105,10.713,10.713C7.105,14.322,4.97,19.145,4.725,24.243C4.48,29.34,6.142,34.346,9.388,38.284C12.634,42.222,17.23,44.81,22.281,45.543C27.331,46.276,32.474,45.101,36.705,42.248L44.971,50.494C45.705,51.224,46.697,51.633,47.732,51.633C48.767,51.633,49.76,51.224,50.494,50.494C50.858,50.13,51.147,49.698,51.345,49.223C51.542,48.747,51.643,48.237,51.643,47.722C51.643,47.208,51.542,46.698,51.345,46.222C51.147,45.747,50.858,45.315,50.494,44.951ZM25.207,8.538C28.5,8.538,31.719,9.515,34.457,11.344C37.195,13.174,39.329,15.774,40.589,18.816C41.849,21.858,42.179,25.206,41.536,28.435C40.894,31.665,39.308,34.632,36.98,36.96C34.651,39.289,31.685,40.874,28.455,41.517C25.225,42.159,21.878,41.829,18.836,40.569C15.793,39.309,13.193,37.175,11.364,34.437C9.534,31.699,8.558,28.48,8.558,25.187C8.563,20.773,10.319,16.542,13.44,13.42C16.561,10.299,20.793,8.544,25.207,8.538ZM25.207,8.538"/>
  <path stroke-linecap="butt" stroke-miterlimit="4" fill="#000000" stroke-opacity="1" stroke="none" fill-opacity="1" stroke-dasharray="none" stroke-width="1px" fill-rule="nonzero" stroke-linejoin="miter" d="M18.352,27.146L23.248,27.146L23.248,32.043C23.248,32.562,23.455,33.061,23.822,33.428C24.189,33.795,24.688,34.002,25.207,34.002C25.727,34.002,26.225,33.795,26.592,33.428C26.959,33.061,27.166,32.562,27.166,32.043L27.166,27.146L32.062,27.146C32.582,27.146,33.08,26.94,33.448,26.572C33.815,26.205,34.021,25.707,34.021,25.187C34.021,24.668,33.815,24.17,33.448,23.802C33.08,23.435,32.582,23.229,32.062,23.229L27.166,23.229L27.166,18.332C27.166,17.812,26.959,17.314,26.592,16.947C26.225,16.58,25.727,16.373,25.207,16.373C24.688,16.373,24.189,16.58,23.822,16.947C23.455,17.314,23.248,17.812,23.248,18.332L23.248,23.229L18.352,23.229C17.832,23.229,17.334,23.435,16.966,23.802C16.599,24.17,16.393,24.668,16.393,25.187C16.393,25.707,16.599,26.205,16.966,26.572C17.334,26.94,17.832,27.146,18.352,27.146ZM18.352,27.146"/>
</g>
  <g id="Ultralight-S" transform="matrix(1.0,0.0,0.0,1.0,532.7944021400499,632.5080104755799)">  <path fill-opacity="1" fill-rule="nonzero" stroke-width="1px" fill="#000000" stroke-dasharray="none" stroke-opacity="1" stroke-linecap="butt" stroke="none" stroke-miterlimit="4" stroke-linejoin="miter" d="M50.494,44.951L42.248,36.705C45.101,32.474,46.276,27.331,45.543,22.281C44.81,17.23,42.222,12.634,38.284,9.388C34.346,6.142,29.34,4.48,24.243,4.725C19.145,4.97,14.322,7.105,10.713,10.713C7.105,14.322,4.97,19.145,4.725,24.243C4.48,29.34,6.142,34.346,9.388,38.284C12.634,42.222,17.23,44.81,22.281,45.543C27.331,46.276,32.474,45.101,36.705,42.248L44.971,50.494C45.705,51.224,46.697,51.633,47.732,51.633C48.767,51.633,49.76,51.224,50.494,50.494C50.858,50.13,51.147,49.698,51.345,49.223C51.542,48.747,51.643,48.237,51.643,47.722C51.643,47.208,51.542,46.698,51.345,46.222C51.147,45.747,50.858,45.315,50.494,44.951ZM25.207,8.538C28.5,8.538,31.719,9.515,34.457,11.344C37.195,13.174,39.329,15.774,40.589,18.816C41.849,21.858,42.179,25.206,41.536,28.435C40.894,31.665,39.308,34.632,36.98,36.96C34.651,39.289,31.685,40.874,28.455,41.517C25.225,42.159,21.878,41.829,18.836,40.569C15.793,39.309,13.193,37.175,11.364,34.437C9.534,31.699,8.558,28.48,8.558,25.187C8.563,20.773,10.319,16.542,13.44,13.42C16.561,10.299,20.793,8.544,25.207,8.538ZM25.207,8.538"/>
  <path stroke-dasharray="none" fill-rule="nonzero" fill-opacity="1" stroke-opacity="1" fill="#000000" stroke-linejoin="miter" stroke="none" stroke-linecap="butt" stroke-width="1px" stroke-miterlimit="4" d="M18.352,27.146L23.248,27.146L23.248,32.043C23.248,32.562,23.455,33.061,23.822,33.428C24.189,33.795,24.688,34.002,25.207,34.002C25.727,34.002,26.225,33.795,26.592,33.428C26.959,33.061,27.166,32.562,27.166,32.043L27.166,27.146L32.062,27.146C32.582,27.146,33.08,26.94,33.448,26.572C33.815,26.205,34.021,25.707,34.021,25.187C34.021,24.668,33.815,24.17,33.448,23.802C33.08,23.435,32.582,23.229,32.062,23.229L27.166,23.229L27.166,18.332C27.166,17.812,26.959,17.314,26.592,16.947C26.225,16.58,25.727,16.373,25.207,16.373C24.688,16.373,24.189,16.58,23.822,16.947C23.455,17.314,23.248,17.812,23.248,18.332L23.248,23.229L18.352,23.229C17.832,23.229,17.334,23.435,16.966,23.802C16.599,24.17,16.393,24.668,16.393,25.187C16.393,25.707,16.599,26.205,16.966,26.572C17.334,26.94,17.832,27.146,18.352,27.146ZM18.352,27.146"/>
</g>
 </g>
</svg>
