<svg width="24" height="24" viewBox="0 0 24 24" fill="none" xmlns="http://www.w3.org/2000/svg">
<g clip-path="url(#clip0_2840_4678)">
<rect width="24" height="24" fill="white"/>
<path d="M11.8126 4.08281C8.83786 4.09781 5.9063 5.60062 4.91068 7.64531C4.79507 7.90176 4.76175 8.18773 4.8153 8.4639C4.86886 8.74006 5.00665 8.99285 5.20974 9.1875L7.5938 11.5697" stroke="#12466A" stroke-width="1.5" stroke-linecap="round" stroke-linejoin="round"/>
<path d="M10.0125 16.9378C18.0478 15.5194 23.3569 11.3756 22.4457 2.75812C22.4107 2.45091 22.2727 2.16461 22.0541 1.94597C21.8354 1.72734 21.5491 1.58929 21.2419 1.55437C12.6244 0.643123 8.48066 5.95125 7.06222 13.9875L1.83753 16.3125C1.71472 16.3743 1.61298 16.4712 1.54518 16.5908C1.47737 16.7104 1.44653 16.8474 1.45657 16.9846C1.4666 17.1217 1.51705 17.2528 1.60154 17.3613C1.68603 17.4698 1.80078 17.5508 1.93128 17.5941L5.58753 18.4097L6.40316 22.0659C6.44682 22.1961 6.52797 22.3105 6.63643 22.3947C6.74489 22.4789 6.87581 22.5291 7.01275 22.5392C7.14969 22.5492 7.28653 22.5185 7.40609 22.451C7.52565 22.3835 7.62258 22.2821 7.68472 22.1597L10.0125 16.9378Z" stroke="#12466A" stroke-width="1.5" stroke-linecap="round" stroke-linejoin="round"/>
<path d="M19.9172 12.1875C19.9022 15.1622 18.3994 18.0937 16.3547 19.0894C16.0982 19.205 15.8122 19.2383 15.5361 19.1848C15.2599 19.1312 15.0071 18.9934 14.8125 18.7903L12.4331 16.4062" stroke="#12466A" stroke-width="1.5" stroke-linecap="round" stroke-linejoin="round"/>
<path d="M7.06213 13.9875L10.0124 16.9378" stroke="#12466A" stroke-width="1.5" stroke-linecap="round" stroke-linejoin="round"/>
<path d="M16.5703 5.67188C16.4771 5.67188 16.3877 5.63484 16.3217 5.5689C16.2558 5.50297 16.2188 5.41355 16.2188 5.32031C16.2188 5.22707 16.2558 5.13765 16.3217 5.07172C16.3877 5.00579 16.4771 4.96875 16.5703 4.96875" stroke="#12466A" stroke-width="1.5"/>
<path d="M16.5703 5.67188C16.6636 5.67188 16.753 5.63484 16.8189 5.5689C16.8848 5.50297 16.9219 5.41355 16.9219 5.32031C16.9219 5.22707 16.8848 5.13765 16.8189 5.07172C16.753 5.00579 16.6636 4.96875 16.5703 4.96875" stroke="#12466A" stroke-width="1.5"/>
</g>
<defs>
<clipPath id="clip0_2840_4678">
<rect width="24" height="24" fill="white"/>
</clipPath>
</defs>
</svg>
