<?xml version="1.0" encoding="utf-8"?>
<!-- Generator: Adobe Illustrator 16.0.3, SVG Export Plug-In . SVG Version: 6.00 Build 0)  -->
<!DOCTYPE svg PUBLIC "-//W3C//DTD SVG 1.1//EN" "http://www.w3.org/Graphics/SVG/1.1/DTD/svg11.dtd">
<svg version="1.1" id="Ebene_1" xmlns="http://www.w3.org/2000/svg" xmlns:xlink="http://www.w3.org/1999/xlink" x="0px" y="0px"
	 width="45px" height="44.982px" viewBox="0 0 45 44.982" enable-background="new 0 0 45 44.982" xml:space="preserve">
<g>
	<circle id="path-1_2_" fill="none" stroke="#FFFFFF" stroke-width="8" stroke-opacity="0.5" cx="22.507" cy="22.491" r="15"/>
</g>
<g>
	<circle id="path-3_2_" fill="none" stroke="#638B54" stroke-width="4" cx="22.508" cy="22.491" r="15"/>
</g>
<g>
	<circle id="path-3_1_" fill="#729F62" cx="22.508" cy="22.491" r="15"/>
</g>
<g>
	<circle id="path-3_3_" fill="none" cx="22.5" cy="22.491" r="22.5"/>
</g>
<path fill="#FFFFFF" d="M34.843,23.496c-1.333,0.288-1.743-1.365-2.308-2.166c-0.857-1.217-2.284-1.595-3.713-1.371
	c-0.06-0.38-0.116-0.762-0.213-1.136c-0.099-0.381,0.108-0.437,0.325-0.771c0.41-0.635,0.676-1.355,0.789-2.1
	c0.112-0.734,0.06-1.489,0.206-2.217c0.114-0.564,0.472-0.917,0.655-1.424c0.335-0.515-0.179-1.188-0.764-0.991
	c-0.445,0.15-0.781,0.88-0.954,1.26c-0.659,1.455-0.239,3.159-1.143,4.525c-0.803-0.868-1.995-1.121-3.132-1.149
	c0.999-1.392,1.045-3.144,0.652-4.777c-0.063-0.268-0.119-0.668-0.385-0.819c-0.307-0.175-0.705,0.018-0.759,0.366
	c-0.099,0.643,0.201,1.396,0.159,2.07c-1.042-0.372-2.417-0.341-3.459,0.022c-0.02-0.628,0.256-1.269,0.234-1.866
	c0.103-0.335-0.168-0.681-0.52-0.66c-0.367,0.022-0.458,0.36-0.559,0.645c-0.561,1.643-0.587,3.597,0.504,5.02
	c-1.132,0.031-2.317,0.286-3.115,1.149c-0.858-1.298-0.518-2.89-1.051-4.299c-0.168-0.444-0.477-1.145-0.905-1.416
	c-0.588-0.373-1.285,0.344-0.903,0.921c0.184,0.506,0.541,0.86,0.655,1.425c0.147,0.729,0.094,1.484,0.206,2.216
	c0.113,0.748,0.379,1.466,0.79,2.101c0.217,0.333,0.424,0.391,0.327,0.772c-0.096,0.372-0.154,0.754-0.214,1.134
	c-1.538-0.242-3.041,0.23-3.854,1.609c-0.407,0.719-0.725,1.725-1.651,1.896c-0.5,0.092-1.673,0.214-1.067,1.073
	c0.363,0.515,1.397,0.286,1.871,0.108c0.928-0.348,1.483-1.191,1.95-2.016c0.3-0.535,0.593-0.959,1.248-1.105
	c0.44-0.105,0.89-0.076,1.328,0.017c-0.037,0.575-0.043,1.154-0.015,1.728c0.012,0.214,0.027,0.428,0.049,0.64
	c0.046,0.461-0.114,0.349-0.495,0.528c-0.382,0.191-0.752,0.409-1.066,0.703c-0.733,0.686-0.995,1.621-0.807,2.598
	c0.131,0.678,0.396,1.26,0.314,1.979c-0.051,0.457-0.214,0.895-0.47,1.276c-0.179,0.267-0.504,0.486-0.629,0.781
	c-0.178,0.427,0.139,0.912,0.601,0.918c0.334,0.005,0.573-0.272,0.781-0.495c0.629-0.678,1.034-1.532,1.137-2.453
	c0.091-0.796-0.154-1.461-0.259-2.225c-0.247-0.897,0.504-1.427,1.236-1.715c0.769,2.847,2.873,5.678,6.085,5.678
	c3.212,0,5.316-2.829,6.085-5.676c1.285,0.5,1.314,1.211,1.069,2.371c-0.324,1.545,0.081,3.093,1.222,4.202
	c0.417,0.404,1.266,0.419,1.256-0.354c-0.007-0.506-0.714-0.996-0.918-1.458c-0.588-1.257,0.159-2.297,0.148-3.537
	c-0.008-0.832-0.45-1.571-1.092-2.075c-0.262-0.205-0.553-0.368-0.849-0.518c-0.56-0.265-0.515-0.212-0.467-0.843
	c0.034-0.445,0.045-0.892,0.037-1.34c-0.013-0.578-0.155-0.75,0.484-0.792c0.665-0.042,1.297,0.121,1.744,0.634
	c0.857,0.982,1.086,2.257,2.537,2.634c0.395,0.102,1.1,0.227,1.46-0.049C35.751,24.304,35.468,23.485,34.843,23.496
	C34.859,23.492,35.207,23.491,34.843,23.496z"/>
</svg>
