<svg width="24" height="24" viewBox="0 0 24 24" fill="none" xmlns="http://www.w3.org/2000/svg">
<path d="M4.20834 15.6667C4.15611 15.6139 4.09071 15.576 4.01892 15.5569C3.94712 15.5379 3.87154 15.5384 3.8 15.5584C3.72801 15.5811 3.66322 15.6224 3.61206 15.6779C3.5609 15.7334 3.52514 15.8014 3.50833 15.875L2.325 21.1667C2.3113 21.2353 2.31475 21.3062 2.33503 21.3731C2.35531 21.4401 2.39179 21.501 2.44125 21.5504C2.49071 21.5999 2.55161 21.6364 2.61856 21.6567C2.6855 21.6769 2.75641 21.6804 2.825 21.6667L8.125 20.4834C8.19862 20.4665 8.26657 20.4308 8.32212 20.3796C8.37766 20.3285 8.41888 20.2637 8.44167 20.1917C8.46165 20.1201 8.46214 20.0446 8.44309 19.9728C8.42404 19.901 8.38615 19.8356 8.33333 19.7834L4.20834 15.6667Z" fill="black"/>
<path d="M16.875 8.00834L7.70834 17.175C7.68841 17.1937 7.67252 17.2163 7.66166 17.2414C7.65081 17.2665 7.6452 17.2935 7.6452 17.3208C7.6452 17.3482 7.65081 17.3752 7.66166 17.4003C7.67252 17.4254 7.68841 17.448 7.70834 17.4667L9.18334 18.9417C9.22207 18.9807 9.26815 19.0117 9.31893 19.0329C9.3697 19.054 9.42416 19.0649 9.47917 19.0649C9.53417 19.0649 9.58863 19.054 9.63941 19.0329C9.69018 19.0117 9.73627 18.9807 9.775 18.9417L18.6667 10.0667C18.704 10.0295 18.7335 9.98535 18.7537 9.93673C18.7739 9.88811 18.7843 9.83598 18.7843 9.78334C18.7843 9.73069 18.7739 9.67856 18.7537 9.62994C18.7335 9.58132 18.704 9.53716 18.6667 9.5L17.175 8.00834C17.1556 7.98817 17.1323 7.97213 17.1065 7.96118C17.0807 7.95023 17.053 7.94458 17.025 7.94458C16.997 7.94458 16.9693 7.95023 16.9435 7.96118C16.9177 7.97213 16.8944 7.98817 16.875 8.00834Z" fill="black"/>
<path d="M15.9917 6.82502L14.5 5.33336C14.4626 5.2935 14.4174 5.26173 14.3672 5.24001C14.3171 5.2183 14.263 5.20709 14.2083 5.20709C14.1537 5.20709 14.0996 5.2183 14.0494 5.24001C13.9993 5.26173 13.9541 5.2935 13.9167 5.33336L5.09167 14.1917C5.01479 14.271 4.9718 14.3771 4.9718 14.4875C4.9718 14.598 5.01479 14.7041 5.09167 14.7834L6.56667 16.2584C6.58537 16.2783 6.60796 16.2942 6.63304 16.305C6.65813 16.3159 6.68517 16.3215 6.7125 16.3215C6.73983 16.3215 6.76687 16.3159 6.79196 16.305C6.81704 16.2942 6.83963 16.2783 6.85833 16.2584L16.025 7.09169C16.0518 7.05046 16.0632 7.00107 16.0571 6.95226C16.051 6.90346 16.0278 6.85839 15.9917 6.82502Z" fill="black"/>
<path d="M20.7083 3.29168C20.3988 2.98176 20.0311 2.73589 19.6265 2.56815C19.2218 2.4004 18.7881 2.31406 18.35 2.31406C17.9119 2.31406 17.4782 2.4004 17.0735 2.56815C16.6689 2.73589 16.3012 2.98176 15.9917 3.29168L15.4 3.88335C15.3231 3.96264 15.2801 4.06874 15.2801 4.17918C15.2801 4.28962 15.3231 4.39572 15.4 4.47501L19.5667 8.60001C19.6469 8.675 19.7527 8.71671 19.8625 8.71671C19.9723 8.71671 20.0781 8.675 20.1583 8.60001L20.75 8.00835C21.0572 7.69604 21.2998 7.32624 21.464 6.9201C21.6282 6.51395 21.7107 6.07943 21.7068 5.64138C21.703 5.20332 21.6128 4.77032 21.4415 4.36714C21.2701 3.96396 21.021 3.59851 20.7083 3.29168Z" fill="black"/>
</svg>
