<svg width="48" height="48" viewBox="0 0 48 48" fill="none" xmlns="http://www.w3.org/2000/svg">
<g clip-path="url(#clip0_1038_5429)">
<path d="M34.3338 1.1564C34.5026 1.0541 34.6961 1 34.8934 1C35.0907 1 35.2842 1.0541 35.453 1.1564C35.6165 1.2646 35.7487 1.41385 35.8364 1.58921C35.924 1.76457 35.9641 1.95989 35.9526 2.15561C35.5928 7.25156 33.7343 20.501 23.9621 20.501C22.7846 20.6655 21.5856 20.5755 20.4458 20.2371C19.3061 19.8988 18.2522 19.3199 17.3553 18.5395C16.4583 17.7591 15.7392 16.7955 15.2464 15.7135C14.7536 14.6315 14.4986 13.4565 14.4986 12.2676C14.4986 11.0787 14.7536 9.90361 15.2464 8.82166C15.7392 7.7397 16.4583 6.77603 17.3553 5.99567C18.2522 5.21531 19.3061 4.6364 20.4458 4.29802C21.5856 3.95964 22.7846 3.86965 23.9621 4.03412C27.5802 3.79678 31.1107 2.81721 34.3338 1.1564V1.1564Z" stroke="black" stroke-width="2" stroke-linecap="round" stroke-linejoin="round"/>
<path d="M15.7284 23.3387C16.4444 20.4749 17.8177 17.8172 19.7394 15.5763C21.6611 13.3355 24.0784 11.5731 26.7996 10.429" stroke="black" stroke-width="2" stroke-linecap="round" stroke-linejoin="round"/>
<path d="M39.9493 7.31166C41.548 7.15179 44.2259 7.07185 45.9445 7.03188C46.0787 7.02872 46.2121 7.05377 46.336 7.1054C46.46 7.15704 46.5717 7.23412 46.6639 7.33164C46.7563 7.42261 46.8289 7.53171 46.877 7.65209C46.9252 7.77247 46.9479 7.90151 46.9437 8.03109V39.0065C46.9464 39.1385 46.9225 39.2696 46.8732 39.3921C46.824 39.5145 46.7505 39.6258 46.6571 39.7191C46.5638 39.8124 46.4525 39.8859 46.3301 39.9352C46.2076 39.9844 46.0765 40.0084 45.9445 40.0057C34.6535 40.1856 23.962 43.2431 23.962 47.0001C23.962 43.2431 13.2505 40.1856 1.97943 40.0057C1.84913 40.0057 1.72015 39.9797 1.60002 39.9293C1.47989 39.8788 1.37104 39.8049 1.27985 39.7119C1.18865 39.6188 1.11695 39.5085 1.06893 39.3874C1.02091 39.2662 0.997545 39.1368 1.0002 39.0065V8.03109C0.998606 7.90004 1.02445 7.77011 1.07608 7.64965C1.1277 7.52919 1.20397 7.42087 1.29997 7.33164C1.38761 7.23903 1.49284 7.16481 1.60951 7.11334C1.72618 7.06187 1.85193 7.03418 1.97943 7.03188C5.32391 7.08176 8.66162 7.34877 11.9715 7.83125" stroke="black" stroke-width="2" stroke-linecap="round" stroke-linejoin="round"/>
<path d="M23.9619 25.0176V46.7604" stroke="black" stroke-width="2" stroke-linecap="round" stroke-linejoin="round"/>
</g>
<defs>
<clipPath id="clip0_1038_5429">
<rect width="48" height="48" fill="white"/>
</clipPath>
</defs>
</svg>
