<svg width="75" height="74" viewBox="0 0 75 74" fill="none" xmlns="http://www.w3.org/2000/svg">
<rect width="74" height="74" transform="translate(0.098999)" fill="white"/>
<g filter="url(#filter0_i_1228_7673)">
<path d="M55.1086 53.9318C57.5634 56.2134 54.1728 56.2604 54.1437 56.2587L47.7177 56.1209C48.2168 57.2027 47.5464 57.6285 45.1806 57.107C44.4594 57.0806 44.0219 56.5484 42.9746 57.107C42.5603 57.3191 42.2301 57.4948 41.1961 57.5716C39.0832 57.3999 39.2163 57.8876 39.5274 58.282C41.167 58.8877 41.3899 59.8952 38.7821 60C37.6209 59.9736 37.0377 59.4868 36.5262 58.9603C33.6264 58.8151 31.3105 59.0329 27.8143 58.5188C26.8253 60.4613 25.4719 59.3358 24.1185 58.2961C22.5654 58.0452 21.4508 57.4527 20.3161 56.8735C17.4962 54.9864 17.987 51.2327 18.1126 50.0041C18.1592 49.6022 18.2124 49.2004 18.2923 48.8035C18.7498 48.4676 18.7032 48.3422 18.531 47.8752C18.9819 47.5987 19.1283 47.3891 18.9028 46.9015C19.2896 46.7166 19.8112 46.5978 19.3986 45.9756C19.8179 45.7974 20.0591 45.6728 19.8628 45.3106C20.3702 45.271 20.6198 44.9128 20.4159 44.6306C21.4973 44.525 21.2744 44.3014 21.3875 43.7865C21.9316 43.6751 22.3466 43.7708 22.3633 43.0892C22.4881 43.1619 23.0995 43.2766 23.0063 42.694C23.265 42.826 23.9953 42.9465 23.6751 42.3945C24.3738 42.6536 24.6192 42.4729 24.6567 42.0949C25.4802 42.293 25.5526 42.0595 25.6615 41.8886C28.7227 41.0693 34.0955 40.6674 36.2608 41.3383C38.4269 42.0099 42.0338 43.506 44.9261 44.355C45.174 44.5861 45.3711 44.6009 45.6797 44.5655C45.8461 45.0358 45.9592 45.0787 46.3834 44.7404C46.5939 45.2347 46.7619 45.4624 47.1595 44.8947C47.5647 45.582 47.6811 45.1051 47.9997 44.9871C48.1852 45.6423 48.5437 45.3485 48.8149 45.1645C48.9347 45.3956 49.1144 45.5309 49.413 45.3485C50.9452 45.8626 53.1546 46.9658 53.1945 48.9726C53.1089 52.3525 53.8783 52.5868 54.1903 53.1809L55.1086 53.9318Z" fill="#2F99C6"/>
</g>
<defs>
<filter id="filter0_i_1228_7673" x="18" y="41" width="38" height="23" filterUnits="userSpaceOnUse" color-interpolation-filters="sRGB">
<feFlood flood-opacity="0" result="BackgroundImageFix"/>
<feBlend mode="normal" in="SourceGraphic" in2="BackgroundImageFix" result="shape"/>
<feColorMatrix in="SourceAlpha" type="matrix" values="0 0 0 0 0 0 0 0 0 0 0 0 0 0 0 0 0 0 127 0" result="hardAlpha"/>
<feOffset dy="4"/>
<feGaussianBlur stdDeviation="7"/>
<feComposite in2="hardAlpha" operator="arithmetic" k2="-1" k3="1"/>
<feColorMatrix type="matrix" values="0 0 0 0 0 0 0 0 0 0 0 0 0 0 0 0 0 0 0.15 0"/>
<feBlend mode="normal" in2="shape" result="effect1_innerShadow_1228_7673"/>
</filter>
</defs>
</svg>
