<svg width="28" height="28" viewBox="0 0 28 28" fill="none" xmlns="http://www.w3.org/2000/svg">
<path d="M2.91666 7.58333L2.94932 6.41667C2.9538 6.11423 3.07373 5.82495 3.28455 5.60805C3.49537 5.39116 3.78114 5.26307 4.08332 5.25H5.18466C5.4994 5.2529 5.80138 5.37481 6.02992 5.59123C6.25846 5.80765 6.39663 6.10255 6.41666 6.41667V7.58333" stroke="black" stroke-width="1.15" stroke-linecap="round" stroke-linejoin="round"/>
<path d="M23.485 7.58331C23.263 7.58328 23.0457 7.51993 22.8584 7.40069C22.6712 7.28146 22.5219 7.11128 22.428 6.91015C21.7957 5.55565 21.1167 4.08331 19.8333 4.08331H14C12.9138 4.08331 12.3667 5.05631 10.85 7.10731C10.7423 7.25393 10.6018 7.37333 10.4398 7.45598C10.2777 7.53862 10.0986 7.58223 9.91666 7.58331H2.91666C1.16666 7.58331 0.583328 8.37548 0.583328 9.59348V21.7128C0.583328 22.9296 1.16666 23.9166 2.98199 23.9166H25.018C26.8333 23.9166 27.4167 22.9296 27.4167 21.7128V9.59348C27.4167 8.37548 26.8333 7.58331 25.018 7.58331H23.485Z" stroke="black" stroke-width="1.15" stroke-linecap="round" stroke-linejoin="round"/>
<path d="M16.9167 21.5833C20.4605 21.5833 23.3333 18.7105 23.3333 15.1667C23.3333 11.6228 20.4605 8.75 16.9167 8.75C13.3728 8.75 10.5 11.6228 10.5 15.1667C10.5 18.7105 13.3728 21.5833 16.9167 21.5833Z" stroke="black" stroke-width="1.15" stroke-linecap="round" stroke-linejoin="round"/>
<path d="M16.9167 18.6666C18.8497 18.6666 20.4167 17.0996 20.4167 15.1666C20.4167 13.2336 18.8497 11.6666 16.9167 11.6666C14.9837 11.6666 13.4167 13.2336 13.4167 15.1666C13.4167 17.0996 14.9837 18.6666 16.9167 18.6666Z" stroke="black" stroke-width="1.15" stroke-linecap="round" stroke-linejoin="round"/>
<path d="M4.66666 13.4166C5.63316 13.4166 6.41666 12.6331 6.41666 11.6666C6.41666 10.7001 5.63316 9.91663 4.66666 9.91663C3.70016 9.91663 2.91666 10.7001 2.91666 11.6666C2.91666 12.6331 3.70016 13.4166 4.66666 13.4166Z" stroke="black" stroke-width="1.15" stroke-linecap="round" stroke-linejoin="round"/>
</svg>
