<svg width="24" height="24" viewBox="0 0 24 24" fill="none" xmlns="http://www.w3.org/2000/svg">
<path d="M21.4826 19.1243L17.9743 15.6159C19.1882 13.8158 19.6879 11.628 19.3762 9.47927C19.0644 7.33056 17.9634 5.37504 16.288 3.9941C14.6125 2.61316 12.4827 1.90583 10.314 2.01008C8.14533 2.11433 6.09322 3.02267 4.55794 4.55794C3.02267 6.09322 2.11433 8.14532 2.01008 10.314C1.90583 12.4827 2.61316 14.6125 3.9941 16.288C5.37504 17.9634 7.33056 19.0644 9.47927 19.3762C11.628 19.6879 13.8158 19.1882 15.6159 17.9743L19.1326 21.4826C19.4449 21.793 19.8673 21.9673 20.3076 21.9673C20.7479 21.9673 21.1703 21.793 21.4826 21.4826C21.6376 21.3278 21.7605 21.144 21.8444 20.9417C21.9283 20.7394 21.9714 20.5225 21.9714 20.3034C21.9714 20.0844 21.9283 19.8675 21.8444 19.6652C21.7605 19.4629 21.6376 19.2791 21.4826 19.1243ZM10.7243 3.63262C12.1252 3.63262 13.4947 4.04805 14.6596 4.82637C15.8244 5.6047 16.7323 6.71097 17.2684 8.00528C17.8045 9.29958 17.9448 10.7238 17.6715 12.0978C17.3982 13.4719 16.7236 14.734 15.733 15.7246C14.7423 16.7152 13.4802 17.3899 12.1062 17.6632C10.7321 17.9365 9.30792 17.7962 8.01361 17.2601C6.7193 16.724 5.61303 15.8161 4.83471 14.6512C4.05638 13.4864 3.64095 12.1169 3.64095 10.7159C3.64315 8.83801 4.39014 7.03762 5.71805 5.70971C7.04595 4.38181 8.84634 3.63482 10.7243 3.63262Z" fill="black"/>
<path d="M7.80761 11.5493H9.89094V13.6326C9.89094 13.8536 9.97874 14.0656 10.135 14.2219C10.2913 14.3781 10.5033 14.4659 10.7243 14.4659C10.9453 14.4659 11.1572 14.3781 11.3135 14.2219C11.4698 14.0656 11.5576 13.8536 11.5576 13.6326V11.5493H13.6409C13.862 11.5493 14.0739 11.4615 14.2302 11.3052C14.3865 11.1489 14.4743 10.937 14.4743 10.7159C14.4743 10.4949 14.3865 10.283 14.2302 10.1267C14.0739 9.97041 13.862 9.88261 13.6409 9.88261H11.5576V7.79928C11.5576 7.57826 11.4698 7.3663 11.3135 7.21002C11.1572 7.05374 10.9453 6.96594 10.7243 6.96594C10.5033 6.96594 10.2913 7.05374 10.135 7.21002C9.97874 7.3663 9.89094 7.57826 9.89094 7.79928V9.88261H7.80761C7.58659 9.88261 7.37463 9.97041 7.21835 10.1267C7.06207 10.283 6.97427 10.4949 6.97427 10.7159C6.97427 10.937 7.06207 11.1489 7.21835 11.3052C7.37463 11.4615 7.58659 11.5493 7.80761 11.5493Z" fill="black"/>
</svg>
