<svg width="74" height="74" viewBox="0 0 74 74" fill="none" xmlns="http://www.w3.org/2000/svg">
<rect width="74" height="74" fill="white"/>
<g filter="url(#filter0_i_1228_7670)">
<path d="M37.1066 35.2595C39.5487 35.2226 43.5795 38.0971 48.1734 43.0612C50.5724 45.6524 56.9672 46.5159 60.2721 46.1348C63.5769 45.753 66.4781 45.5436 66.9618 42.7341C67.293 40.8087 65.4195 38.7827 63.5352 38.2681C55.828 36.1627 49.2976 34.2086 44.2425 28.8941C42.8946 27.4771 37.0156 28.1688 37.0156 28.1688L37.1066 35.2595Z" fill="#2F99C6"/>
<path d="M36.9997 35.2896C34.0732 35.3129 30.4201 38.2031 25.8261 43.1666C23.4279 45.7577 17.0331 46.5159 13.7282 46.1348C10.4234 45.753 7.5222 45.5436 7.03844 42.7341C6.70659 40.8087 8.58002 38.7827 10.4644 38.2681C18.1723 36.1627 24.7026 34.2086 29.7571 28.8941C31.105 27.4771 36.9538 28.1688 36.9538 28.1688L36.9997 35.2896Z" fill="#2F99C6"/>
<path d="M46.6617 32.7949C44.5576 34.8196 41.9678 35.3847 39.2227 35.486L61.5697 39.6893C56.2498 38.6164 51.1776 36.68 46.6617 32.7949Z" stroke="white" stroke-opacity="0.5" stroke-width="0.5" stroke-linejoin="round"/>
<path d="M34.7767 35.486C32.0322 35.3847 29.4417 34.8196 27.3384 32.7949C22.8224 36.68 17.7495 38.6164 12.4303 39.6893" stroke="white" stroke-opacity="0.5" stroke-width="0.5" stroke-linejoin="round"/>
</g>
<defs>
<filter id="filter0_i_1228_7670" x="7" y="28" width="60" height="22.2274" filterUnits="userSpaceOnUse" color-interpolation-filters="sRGB">
<feFlood flood-opacity="0" result="BackgroundImageFix"/>
<feBlend mode="normal" in="SourceGraphic" in2="BackgroundImageFix" result="shape"/>
<feColorMatrix in="SourceAlpha" type="matrix" values="0 0 0 0 0 0 0 0 0 0 0 0 0 0 0 0 0 0 127 0" result="hardAlpha"/>
<feOffset dy="4"/>
<feGaussianBlur stdDeviation="7"/>
<feComposite in2="hardAlpha" operator="arithmetic" k2="-1" k3="1"/>
<feColorMatrix type="matrix" values="0 0 0 0 0 0 0 0 0 0 0 0 0 0 0 0 0 0 0.15 0"/>
<feBlend mode="normal" in2="shape" result="effect1_innerShadow_1228_7670"/>
</filter>
</defs>
</svg>
