<svg width="74" height="74" viewBox="0 0 74 74" fill="none" xmlns="http://www.w3.org/2000/svg">
<rect width="74" height="74" fill="white"/>
<g filter="url(#filter0_i_1228_7630)">
<path d="M14.3036 56.7552C21.3786 57.2492 23.2267 57.6958 26.7213 54.2212C30.2155 50.747 29.7942 49.6327 32.7016 42.4624C35.6096 35.2925 40.1914 34.3911 40.8112 32.6806C41.4315 30.9696 41.5481 30.9705 41.0145 30.5013C40.48 30.0312 39.6696 30.5997 38.9867 30.957C38.3038 31.3143 38.0352 32.7232 37.4341 32.3581C36.8326 31.9925 38.5762 31.0897 38.2015 30.2223C37.8263 29.3544 35.6387 30.076 35.6748 29.2695C35.711 28.463 37.7022 29.5925 38.2515 29.0058C38.8013 28.4186 37.418 26.964 38.0082 26.7855C38.5993 26.6071 39.1386 28.5749 39.2657 28.4991C39.3923 28.423 39.7614 26.8891 40.3555 27.0036C40.9492 27.1185 39.5695 28.0482 40.1779 28.4991C40.786 28.9496 41.72 27.0885 42.9148 27.7383C44.1096 28.389 42.4582 30.1866 43.7 30.3489C45.0184 29.27 44.9405 28.5235 45.7026 27.1808C46.4643 25.8384 49.0175 23.1112 48.2871 22.3155C47.1454 22.6128 46.8277 23.364 46.3359 23.1011C45.8445 22.8378 46.315 22.5066 45.9738 22.1401C45.6321 21.7723 44.3751 22.0587 44.3847 21.4032C44.3938 20.7473 46.0068 21.543 46.3089 20.9423C46.611 20.3425 45.1115 19.6788 45.7783 19.1478C46.4451 18.6176 46.5857 20.5384 47.1716 20.5924C47.7583 20.6463 48.1004 20.2085 48.4138 19.7053C48.7267 19.2026 49.0958 18.6638 48.9713 17.9317C48.846 17.1996 47.797 16.9054 47.7296 15.5243C47.6625 14.1428 48.5522 10.512 49.8832 10.1768C51.2146 9.8421 52.7271 13.2157 53.1528 14.7635C53.578 16.3117 52.4664 18.5384 52.7976 18.9201C53.1288 19.3018 53.1902 19.5913 53.5841 19.5969C54.0712 19.6043 55.2472 19.5103 55.7125 19.6292C55.6707 18.8866 56.5373 18.0514 56.5995 17.6522C56.6613 17.2536 55.373 16.8322 55.6616 16.4618C55.9506 16.091 56.9795 17.1713 56.8528 16.9941C56.7266 16.8157 56.3601 15.8982 56.7005 15.7772C57.0409 15.6562 57.3351 16.8679 58.0437 16.8671C58.7523 16.8662 59.675 16.9097 59.6406 17.3994C59.6062 17.889 58.5812 17.1861 58.3984 17.6274C58.2165 18.0688 59.6741 18.4566 59.3111 18.9449C58.9473 19.4342 58.1199 17.9077 57.3595 18.3112C56.5995 18.7151 57.5388 20.5806 56.4981 21.3018C55.457 22.0235 54.6322 20.7477 53.457 21.6566C52.2814 22.5658 52.8416 27.8632 50.5426 30.755C48.2436 33.646 46.3698 33.6072 45.5246 35.316C44.6793 37.0257 45.764 38.6422 45.1446 39.8527C44.5261 41.0622 42.1736 40.9686 42.2811 41.8039C42.3886 42.6391 43.8985 41.5793 43.7762 42.3362C43.6543 43.0935 42.2241 42.0663 42.0025 42.7414C41.7805 43.4161 44.0421 43.8966 43.599 44.5912C43.1559 45.2868 41.915 43.4652 41.1912 43.907C40.4678 44.3492 41.6482 46.3401 40.685 46.4415C39.7218 46.5429 40.9222 43.9218 40.1018 43.5775C39.2809 43.2337 38.615 45.3272 38.0744 44.8955C37.5334 44.4641 39.5921 42.6961 40.0765 41.981C40.5601 41.2659 40.5301 41.0748 40.9888 40.6126C41.448 40.1508 42.4769 40.0228 42.7372 39.2185C42.9975 38.415 42.6976 37.4562 41.9516 37.2673C41.2056 37.0784 40.4983 37.3373 38.1249 40.1312C35.7519 42.9247 31.3981 51.7746 28.5964 54.8296C25.7946 57.8847 19.8234 60.8492 14.3032 56.7556L14.3036 56.7552Z" fill="#2F99C6"/>
</g>
<defs>
<filter id="filter0_i_1228_7630" x="14.3032" y="10.1536" width="45.3384" height="52.6051" filterUnits="userSpaceOnUse" color-interpolation-filters="sRGB">
<feFlood flood-opacity="0" result="BackgroundImageFix"/>
<feBlend mode="normal" in="SourceGraphic" in2="BackgroundImageFix" result="shape"/>
<feColorMatrix in="SourceAlpha" type="matrix" values="0 0 0 0 0 0 0 0 0 0 0 0 0 0 0 0 0 0 127 0" result="hardAlpha"/>
<feOffset dy="4"/>
<feGaussianBlur stdDeviation="7"/>
<feComposite in2="hardAlpha" operator="arithmetic" k2="-1" k3="1"/>
<feColorMatrix type="matrix" values="0 0 0 0 0 0 0 0 0 0 0 0 0 0 0 0 0 0 0.15 0"/>
<feBlend mode="normal" in2="shape" result="effect1_innerShadow_1228_7630"/>
</filter>
</defs>
</svg>
