<?xml version="1.0" encoding="utf-8"?>
<!-- Generator: Adobe Illustrator 16.0.3, SVG Export Plug-In . SVG Version: 6.00 Build 0)  -->
<!DOCTYPE svg PUBLIC "-//W3C//DTD SVG 1.1//EN" "http://www.w3.org/Graphics/SVG/1.1/DTD/svg11.dtd">
<svg version="1.1" id="Ebene_1" xmlns="http://www.w3.org/2000/svg" xmlns:xlink="http://www.w3.org/1999/xlink" x="0px" y="0px"
	 width="45px" height="44.982px" viewBox="0 0 45 44.982" enable-background="new 0 0 45 44.982" xml:space="preserve">
<g>
	<circle id="path-1_2_" fill="none" stroke="#FFFFFF" stroke-width="8" stroke-opacity="0.5" cx="22.507" cy="22.491" r="15"/>
</g>
<g>
	<circle id="path-3_2_" fill="none" stroke="#638B54" stroke-width="4" cx="22.508" cy="22.491" r="15"/>
</g>
<g>
	<circle id="path-3_1_" fill="#729F62" cx="22.508" cy="22.491" r="15"/>
</g>
<g>
	<circle id="path-3_3_" fill="none" cx="22.5" cy="22.491" r="22.5"/>
</g>
<path fill="#FFFFFF" d="M32.269,23.089c0.152-0.613,0.057-1.283-0.336-1.837c-1.464-2.074-2.951-4.304-2.966-4.326
	c-0.464-0.694-1.247-1.039-2.024-0.986c-0.14-0.46-0.207-0.91-0.178-1.334c0.055-0.745,0.387-1.346,0.992-1.785l1.557-0.443
	c0.663-0.189,1.049-0.883,0.858-1.546c-0.19-0.664-0.884-1.042-1.546-0.858l-1.75,0.5c-0.118,0.034-0.23,0.085-0.334,0.152
	c-1.35,0.872-2.156,2.221-2.271,3.799c-0.076,1.051,0.158,2.141,0.647,3.207c-0.148,0.594-0.062,1.242,0.304,1.791
	c0.016,0.022,1.534,2.301,3.034,4.425c0.438,0.621,1.134,0.953,1.84,0.953c0.062,0,0.122-0.023,0.185-0.029
	c0.195,0.531,0.308,1.049,0.303,1.529c-0.008,0.662-0.23,1.18-0.664,1.541c-0.58,0.484-1.28,0.662-2.016,0.521
	c-1.129-0.219-2.24-1.16-2.973-2.521c-1.158-2.148-2.736-3.334-4.324-3.323c-0.746,0.02-2.139,0.342-3.072,2.301
	c-1.113,2.342-2.803,3.723-3.431,3.707l-2.458-0.102c-0.683-0.029-1.271,0.508-1.301,1.197c-0.027,0.689,0.508,1.271,1.197,1.301
	l2.457,0.102c0.037,0.002,0.072,0.002,0.109,0.002c2.127,0,4.457-2.559,5.684-5.131c0.123-0.262,0.457-0.867,0.876-0.877
	c0.004-0.002,0.009-0.002,0.014-0.002c0.483,0,1.3,0.619,2.048,2.01c1.102,2.045,2.813,3.428,4.698,3.791
	c1.476,0.287,2.933-0.088,4.091-1.057c1.008-0.838,1.547-2.025,1.563-3.432C33.095,25.288,32.801,24.18,32.269,23.089z"/>
</svg>
