<svg width="74" height="74" viewBox="0 0 74 74" fill="none" xmlns="http://www.w3.org/2000/svg">
<rect width="74" height="74" fill="white"/>
<g filter="url(#filter0_i_1228_7607)">
<path d="M39.9649 43.1024C37.9949 41.8574 35.9992 42.2602 34.5747 44.201C23.981 59.8626 31.5244 68.7572 40.9756 67.7685C50.4414 66.7762 56.7911 53.568 39.9649 43.1024ZM20.1984 11.6766C17.7266 11.7645 15.2439 12.852 13.1347 14.7525C6.00509 21.168 8.73316 35.7715 28.9355 34.087C31.1875 33.8673 32.1469 32.5783 32.1725 30.059C31.7258 16.7958 26.0097 11.4752 20.1984 11.6766ZM18.8984 36.2402C8.28275 36.4599 5.03104 44.1607 8.10698 51.0706C11.9702 59.7491 26.4528 61.7119 31.2351 42.5825C31.799 40.2902 30.576 38.2981 28.5986 37.7195C24.8635 36.6393 21.6338 36.1852 18.8947 36.2402H18.8984ZM56.4725 28.4881C52.7484 28.4881 48.215 30.1542 43.1727 34.347C41.4333 35.8557 41.4663 38.884 42.7479 40.4622C54.2241 54.7983 64.8031 50.3638 66.7622 41.1726C68.0732 35.0061 63.8694 28.4844 56.4725 28.4881ZM43.9197 7.00408C36.7535 7.2128 30.0487 14.6756 36.0468 29.2131C36.9622 31.1978 39.1007 31.9595 41.2136 31.1978C58.7355 24.7383 57.8347 13.1926 49.6432 8.45784C47.9069 7.45234 45.9254 6.94903 43.9197 7.00408Z" fill="#2F99C6"/>
<path d="M36.0871 43.0072C39.5676 43.0072 42.3891 40.1857 42.3891 36.7052C42.3891 33.2247 39.5676 30.4032 36.0871 30.4032C32.6065 30.4032 29.785 33.2247 29.785 36.7052C29.785 40.1857 32.6065 43.0072 36.0871 43.0072Z" fill="#0E3855"/>
</g>
<defs>
<filter id="filter0_i_1228_7607" x="7" y="7" width="60" height="64.8431" filterUnits="userSpaceOnUse" color-interpolation-filters="sRGB">
<feFlood flood-opacity="0" result="BackgroundImageFix"/>
<feBlend mode="normal" in="SourceGraphic" in2="BackgroundImageFix" result="shape"/>
<feColorMatrix in="SourceAlpha" type="matrix" values="0 0 0 0 0 0 0 0 0 0 0 0 0 0 0 0 0 0 127 0" result="hardAlpha"/>
<feOffset dy="4"/>
<feGaussianBlur stdDeviation="7"/>
<feComposite in2="hardAlpha" operator="arithmetic" k2="-1" k3="1"/>
<feColorMatrix type="matrix" values="0 0 0 0 0 0 0 0 0 0 0 0 0 0 0 0 0 0 0.15 0"/>
<feBlend mode="normal" in2="shape" result="effect1_innerShadow_1228_7607"/>
</filter>
</defs>
</svg>
