<svg width="75" height="74" viewBox="0 0 75 74" fill="none" xmlns="http://www.w3.org/2000/svg">
<rect width="74" height="74" transform="translate(0.098999)" fill="white"/>
<g filter="url(#filter0_i_1228_7640)">
<path d="M33.5571 50.1646C35.8616 47.3191 39.9079 47.0037 41.3522 49.7728C42.7955 52.5419 46.9333 56.5537 50.4599 59.597C53.9866 62.6386 52.9883 64.8777 52.2727 65.6017C51.558 66.3294 49.206 67.5423 47.5835 66.7306C45.9695 65.9189 44.4767 65.6577 42.9466 65.5364C41.4166 65.4151 40.3809 66.1895 38.4403 66.3667C36.4998 66.5533 35.7814 65.1072 33.5609 65.3405C31.3404 65.5737 28.6721 68.3353 25.6865 65.7696C22.7103 63.2039 25.0614 60.5636 27.1233 57.774C29.1945 54.9937 31.2751 53.0252 33.5795 50.1796L33.5571 50.1646ZM16.0041 36.1448C17.4782 34.8013 19.2807 35.4012 21.364 36.1448C23.4474 36.8874 25.3619 37.3063 26.5794 38.7991C27.796 40.2919 29.1451 43.3893 26.9638 46.0185C24.7834 48.6495 21.9304 50.2822 19.1939 48.7148C16.4584 47.1474 15.7904 44.8616 15.3967 42.7251C15.0049 40.5885 14.5309 37.5004 16.0031 36.1569L16.0041 36.1448ZM16.1254 33.5306C16.6852 34.2098 17.3756 34.0437 17.7264 33.3374C18.0716 32.6284 17.1013 30.0067 16.7561 29.9974C16.4015 29.988 15.5618 32.843 16.1216 33.524L16.1254 33.5306ZM26.1241 27.594C26.3965 29.7958 26.6018 30.9527 28.102 31.7579C29.6041 32.5631 32.0644 33.6388 33.9938 32.4912C35.9232 31.3437 36.0239 28.9646 36.3841 26.9838C36.7433 24.9966 36.8412 22.9814 36.636 21.0688C36.4307 19.1562 37.8041 15.7415 35.5229 14.8645C33.2427 13.9875 31.5251 16.861 30.4606 17.934C29.397 19.0069 30.1508 18.615 29.2524 20.5463C28.3548 22.4776 25.8498 25.3698 26.1232 27.5716L26.1241 27.594ZM43.4122 15.0081C41.9941 15.5679 41.7795 16.4673 41.6162 19.0451C41.452 21.623 40.8764 27.8291 42.5268 29.6531C44.1782 31.478 45.5776 32.3821 47.6675 31.7952C49.7574 31.2074 52.6496 28.9991 52.7243 26.3345C52.7989 23.669 49.8693 18.6066 48.1713 16.5242C46.4826 14.4409 44.8406 14.4437 43.4225 15.0072L43.4122 15.0081ZM57.071 27.3981C57.5468 27.0622 57.7427 27.9094 58.2092 28.5699C58.6785 29.223 58.6543 30.5105 57.7483 30.6225C56.8434 30.7344 56.5056 30.0813 56.2434 29.5682C55.9822 29.0457 56.5942 27.7302 57.071 27.3944V27.3981ZM56.4338 33.1984C54.3532 32.5472 50.7725 35.9572 49.3599 37.1636C47.9474 38.3671 47.2887 39.2413 46.4229 40.1062C45.5571 40.972 43.0801 40.9599 43.0334 43.1972C42.9868 45.4363 46.9305 47.7631 49.9608 47.9647C52.9836 48.1662 54.4111 46.721 55.7266 45.3477C57.0421 43.9743 57.1447 42.4181 57.4992 41.056C57.8538 39.6938 58.2176 38.6582 58.003 37.3147C57.7885 35.9712 58.4975 33.8506 56.417 33.2003L56.4338 33.1984ZM37.0278 11.1148C36.2273 11.4852 35.3914 11.4134 35.3746 10.4916C35.3559 9.5698 37.026 7.08435 37.2872 7.13566C37.5466 7.18698 37.8283 10.7463 37.0278 11.1158V11.1148ZM41.8961 7.00411C41.5882 7.1282 40.3231 9.16862 40.5647 9.9318C40.8073 10.694 41.9866 10.8433 42.2758 10.2024C42.565 9.55861 42.203 6.88096 41.8961 7.00411Z" fill="#2F99C6"/>
</g>
<defs>
<filter id="filter0_i_1228_7640" x="15" y="7" width="43.5108" height="64" filterUnits="userSpaceOnUse" color-interpolation-filters="sRGB">
<feFlood flood-opacity="0" result="BackgroundImageFix"/>
<feBlend mode="normal" in="SourceGraphic" in2="BackgroundImageFix" result="shape"/>
<feColorMatrix in="SourceAlpha" type="matrix" values="0 0 0 0 0 0 0 0 0 0 0 0 0 0 0 0 0 0 127 0" result="hardAlpha"/>
<feOffset dy="4"/>
<feGaussianBlur stdDeviation="7"/>
<feComposite in2="hardAlpha" operator="arithmetic" k2="-1" k3="1"/>
<feColorMatrix type="matrix" values="0 0 0 0 0 0 0 0 0 0 0 0 0 0 0 0 0 0 0.15 0"/>
<feBlend mode="normal" in2="shape" result="effect1_innerShadow_1228_7640"/>
</filter>
</defs>
</svg>
