<svg width="74" height="74" viewBox="0 0 74 74" fill="none" xmlns="http://www.w3.org/2000/svg">
<rect width="74" height="74" fill="white"/>
<g filter="url(#filter0_i_1228_7653)">
<path d="M40.259 5C36.038 5.11 6.78502 48.99 9.13402 53.376C11.431 57.666 32.314 53.706 35.134 56.938C35.134 56.938 36.197 56.92 36.79 56.908C38.528 52.239 58.217 57.112 63.04 52.72C67.996 48.207 44.48 4.892 40.259 5.001V5Z" fill="#2F99C6"/>
</g>
<g filter="url(#filter1_i_1228_7653)">
<path d="M38.61 70.907L36.727 71.188C36.669 71.001 36.517 70.607 36.227 68.782C35.62 64.885 35.39 60.817 35.134 56.938C34.61 47.059 34.701 42.418 35.54 36.876C35.792 35.211 37.736 22.928 38.165 20.688C37.377 32.15 36.072 40.287 36.04 44.126C35.985 50.756 36.3 51.926 36.79 56.907C37.28 61.889 37.648 66.52 38.61 70.907V70.907Z" fill="#216B8B"/>
</g>
<path d="M38.61 70.907L36.727 71.188C36.669 71.001 36.517 70.607 36.227 68.782C35.62 64.885 35.39 60.817 35.134 56.938C34.61 47.059 34.701 42.418 35.54 36.876C35.792 35.211 37.736 22.928 38.165 20.688C37.377 32.15 36.072 40.287 36.04 44.126C35.985 50.756 36.3 51.926 36.79 56.907C37.28 61.889 37.648 66.52 38.61 70.907V70.907Z" stroke="#216B8B" stroke-linecap="round" stroke-linejoin="round"/>
<defs>
<filter id="filter0_i_1228_7653" x="9" y="5" width="54.7226" height="55.938" filterUnits="userSpaceOnUse" color-interpolation-filters="sRGB">
<feFlood flood-opacity="0" result="BackgroundImageFix"/>
<feBlend mode="normal" in="SourceGraphic" in2="BackgroundImageFix" result="shape"/>
<feColorMatrix in="SourceAlpha" type="matrix" values="0 0 0 0 0 0 0 0 0 0 0 0 0 0 0 0 0 0 127 0" result="hardAlpha"/>
<feOffset dy="4"/>
<feGaussianBlur stdDeviation="7"/>
<feComposite in2="hardAlpha" operator="arithmetic" k2="-1" k3="1"/>
<feColorMatrix type="matrix" values="0 0 0 0 0 0 0 0 0 0 0 0 0 0 0 0 0 0 0.15 0"/>
<feBlend mode="normal" in2="shape" result="effect1_innerShadow_1228_7653"/>
</filter>
<filter id="filter1_i_1228_7653" x="34.3088" y="20.1879" width="4.78961" height="55.5001" filterUnits="userSpaceOnUse" color-interpolation-filters="sRGB">
<feFlood flood-opacity="0" result="BackgroundImageFix"/>
<feBlend mode="normal" in="SourceGraphic" in2="BackgroundImageFix" result="shape"/>
<feColorMatrix in="SourceAlpha" type="matrix" values="0 0 0 0 0 0 0 0 0 0 0 0 0 0 0 0 0 0 127 0" result="hardAlpha"/>
<feOffset dy="4"/>
<feGaussianBlur stdDeviation="7"/>
<feComposite in2="hardAlpha" operator="arithmetic" k2="-1" k3="1"/>
<feColorMatrix type="matrix" values="0 0 0 0 0 0 0 0 0 0 0 0 0 0 0 0 0 0 0.15 0"/>
<feBlend mode="normal" in2="shape" result="effect1_innerShadow_1228_7653"/>
</filter>
</defs>
</svg>
