<svg xmlns="http://www.w3.org/2000/svg" width="74" height="74" viewBox="0 0 19.579 19.579">
  <path d="M0 0h19.579v19.579H0z" style="fill:#fff;fill-opacity:.989964;stroke:none;"/>
  <path d="M5.11 7.276c-2.558.575-3.27 1.917-3.154 3.486.117 1.57 2.117 2.572 4.37 2.247l7.574-.602c3.084-.639 3.74-1.796 3.734-2.789-.009-1.117-1.198-2.323-3.47-2.472-.228-.234-1.012-.337-2.15-.295-.137-.115-.266-.187-.476-.142-.074-.108-.172-.127-.332-.086 0 0-.1-.12-.24-.114-.125.005-.272.086-.272.086-.161-.063-.316-.056-.456.1-.308-.058-.291-.013-.422.084-.543-.042-1.147-.015-1.338.24-.555-.127-1.301.004-1.845.288a3.938 3.938 0 0 0-1.524-.03z" style="clip-rule:evenodd;fill:#2f99c6;fill-opacity:1;fill-rule:evenodd;stroke:#0e3855;stroke-width:.150336px;stroke-linecap:round;stroke-linejoin:round;stroke-miterlimit:1.5;stroke-opacity:1"/>
  <path d="M5.11 7.275c-2.565.558-3.27 1.918-3.153 3.487.116 1.571 2.117 2.571 4.37 2.247l7.574-.602c3.084-.639 3.74-1.795 3.733-2.788-.008-1.118-1.197-2.325-3.469-2.473-.698.505-1.994.497-2.824.559-.742.055-2.524.132-3.837.007-.26-.025-.595-.308-.782-.378-.355-.133-1.177-.154-1.612-.059Z" style="clip-rule:evenodd;fill:none;fill-rule:evenodd;stroke:#0e3855;stroke-width:.0888005px;stroke-linecap:round;stroke-linejoin:round;stroke-miterlimit:1.5;stroke-opacity:1"/>
  <path d="M8.471 7.026c.401.26 1.33.19 1.91.183.574-.005 1.345.036 1.629-.364-.154-.157-.302-.158-.484-.143-.063.167-.63.207-.86.211-.222.005-.794.068-.853-.133-.6-.036-1.116-.03-1.342.246Z" style="clip-rule:evenodd;fill:none;fill-rule:evenodd;stroke:#0e3855;stroke-width:.0888005px;stroke-linecap:round;stroke-linejoin:round;stroke-miterlimit:1.5;stroke-opacity:1"/>
  <path d="M8.471 7.026c.38.25 1.35.198 1.972.178.582.002 1.278.025 1.562-.348.064-.033 1.957-.062 2.146.298-.698.504-1.98.489-2.81.55-.742.056-1.992.128-3.837.008-.207-.013-.557-.29-.88-.41.63-.32 1.47-.404 1.847-.276Z" style="clip-rule:evenodd;fill:none;fill-rule:evenodd;stroke:#0e3855;stroke-width:.0888005px;stroke-linecap:round;stroke-linejoin:round;stroke-miterlimit:1.5;stroke-opacity:1"/>
  <path d="M10.238 6.698c.08.114.36.08.536.068 0 0 .41-.006.444-.134.094-.062.244-.025.308.07-.063.167-.63.207-.86.211-.222.005-.794.068-.853-.133.136-.148.319-.11.425-.082z" style="clip-rule:evenodd;fill:none;fill-rule:evenodd;stroke:#0e3855;stroke-width:.0888005px;stroke-linecap:round;stroke-linejoin:round;stroke-miterlimit:1.5;stroke-opacity:1"/>
  <path d="M10.238 6.698c.08.114.36.08.536.068 0 0 .41-.006.444-.134-.162.019-.41.038-.532-.034-.152-.088-.349-.028-.448.1z" style="clip-rule:evenodd;fill:none;fill-rule:evenodd;stroke:#0e3855;stroke-width:.0888005px;stroke-linecap:round;stroke-linejoin:round;stroke-miterlimit:1.5;stroke-opacity:1"/>
  <path d="M10.686 6.598c.12-.063.373-.18.532.034-.182.028-.391.033-.532-.034z" style="clip-rule:evenodd;fill:none;fill-rule:evenodd;stroke:#0e3855;stroke-width:.0888005px;stroke-linecap:round;stroke-linejoin:round;stroke-miterlimit:1.5;stroke-opacity:1"/>
  <path d="M4.347 7.699c-.513.05-1.41.94-1.612 1.339-.264.524-.526 1.046-.277 1.889.255.86 1.012 1.324 1.48 1.584.5.278 1.158.25 1.158.25s-.91-.218-1.299-.497c-.627-.45-1.254-1.237-1.19-2.096.03-.386.396-1.28.865-1.767.21-.216.754-.574.875-.702Zm11.236-.114c.568.199 1.323.823 1.487 1.651.105.53-.133.985-.316 1.336-.14.266-.503.809-.9 1.008-.03.016-.151.107-.317.227-.009.006.622-.301.643-.312.226-.113.892-1.081 1.014-1.685.12-.595-.171-1.4-.658-1.725-.217-.145-.78-.547-.953-.5Z" style="clip-rule:evenodd;fill:#216b8b;fill-opacity:1;fill-rule:evenodd;stroke-width:.0469844;stroke-linecap:round;stroke-linejoin:round;stroke-miterlimit:1.5"/>
  <path d="M4.892 7.676c-.412-.009-1.234.798-1.43 1.135-.27.461-.434.858-.091 1.861.186.546.675 1.03 1.02 1.32.373.315 1.09.382 1.09.382s-.695-.26-.876-.4c-.294-.227-.709-.646-.926-1.112-.344-.739-.308-1.304-.196-1.628.262-.762 1.062-1.412 1.409-1.558Zm10.486.25c.124.134.31.198.454.318.394.327.585.804.65 1.228.064.423-.107.999-.264 1.314-.057.114-.295.476-.295.476s.264-.116.487-.658c.169-.41.28-.935.194-1.339-.086-.405-.4-.778-.708-1.086-.033-.034-.484-.3-.518-.253Zm-7.944-.409c0-.313.4-.42.608-.465.208-.045.64.123.64.193 0 .06-.137-.026-.204-.045a.699.699 0 0 0-.409 0c-.325.083-.282.328-.386.42a1.395 1.395 0 0 1-.25-.103Zm1.801-.7c-.083.059-.03.183.045.208.227.076.315.065.555.065.035 0 .354-.035.444.023.023.015-.61.04-.795.037-.14-.002-.456-.028-.576-.087-.174-.088.164-.245.327-.245Zm2.858.217c-.02-.019.044.034.068.046.052.026.087.146.068.204-.053.16-.375.202-.204.272.184.076.506-.299.363-.408a.463.463 0 0 0-.272-.114" style="clip-rule:evenodd;fill:#216b8b;fill-opacity:1;fill-rule:evenodd;stroke-width:.0469844;stroke-linecap:round;stroke-linejoin:round;stroke-miterlimit:1.5"/>
  <path d="M15.015 11.852c-.028.021.655-.662.845-1.025.183-.352.253-.844.29-1.154.028-.234-.068-.703-.068-.703.134-.073.213.631.181.953a2.656 2.656 0 0 1-.382 1.099c-.208.321-.8.83-.866.83zm-8.308-4.13c-.172-.1-.413-.117-.663-.087-.252.03-.58.17-.848.49-.165.197-.328.685-.304.709.024.024.252-.407.417-.578.229-.234.28-.364.734-.485.343-.09.555-.034.664-.05Zm.477 4.744c-.356-.137-.78-.273-1.067-.41-.23-.11-.455-.26-.649-.408-.185-.14-.382-.23-.513-.476.724.483 1.482.856 2.23 1.294zm-.999-3.678c0-.123.012.242.023.295.036.18.17.42.295.545.023.023.171.17.204.136.025-.024-.047-.123-.055-.147-.052-.157-.198-.303-.262-.466a3.218 3.218 0 0 0-.205-.363Zm.658.136c0 .267.301.681.477.863.037.038.228.204.295.136.05-.05-.18-.226-.204-.25-.162-.162-.383-.4-.464-.614-.041-.109-.104-.258-.104-.135Zm.522 0c.048.19.178.604.341.727.085.063.132.111.227.159.028.014.09.054.09.023 0-.065-.176-.185-.238-.243a1.202 1.202 0 0 1-.194-.255c-.067-.108-.158-.444-.226-.41Zm1.226-.454c.039.193.182.432.273.545.063.08.301.195.272.136-.111-.222-.445-.557-.545-.68Zm.59 0c.023.178.117.321.25.454.015.016.244.248.204.114-.026-.092-.165-.196-.278-.331-.102-.121-.18-.28-.176-.237Zm.454-.068c-.047.095.102.322.16.41.107.163.193.307.272.271.004-.001-.068-.134-.069-.136-.058-.147-.279-.536-.363-.545Zm1.112.13c-.021.086.392.406.523.483.05.03.159.126.159.068 0-.047-.233-.193-.26-.215a1.018 1.018 0 0 1-.207-.211c-.08-.116-.182-.25-.215-.124Zm.886.097c-.042.15.307.267.408.318.014.007.136.046.16.023.023-.024-.16-.128-.176-.134-.13-.053-.107-.06-.238-.139-.059-.034-.138-.126-.154-.068zm1.044-.045c.11.183.283.357.476.454.03.015.195.101.228.068.009-.01-.208-.188-.228-.204-.1-.086-.34-.318-.476-.318m.863-.431c.04.158.3.344.431.43.02.015.292.152.272.092-.052-.157-.292-.271-.431-.34-.036-.019-.272-.23-.272-.182zm.68.113c.04.027.389.358.432.386.088.059.094-.018.045-.09-.056-.085-.477-.49-.477-.296zm.27-.256c.001.09.445.375.548.324.045-.022-.032-.1-.069-.136-.088-.088-.482-.295-.48-.188zM7.955 9.288a.73.73 0 0 0 .085.263c.028.053.201.22.271.264.06.038.223.192.189-.005-.027-.152-.166-.139-.257-.197a.518.518 0 0 1-.22-.307c-.026-.101-.076-.138-.068-.018Zm-4.131.635c.01.295.053.867.295 1.158.147.177.5.458.5.476 0 .008-.206-.307-.319-.454-.196-.254-.348-.775-.476-1.18Z" style="clip-rule:evenodd;fill:#216b8b;fill-opacity:1;fill-rule:evenodd;stroke-width:.0469844;stroke-linecap:round;stroke-linejoin:round;stroke-miterlimit:1.5"/>
</svg>
