<svg width="74" height="74" viewBox="0 0 74 74" fill="none" xmlns="http://www.w3.org/2000/svg">
<rect width="74" height="74" fill="white"/>
<g filter="url(#filter0_i_1228_7608)">
<path d="M30.2185 28.7546C30.2185 28.7546 28.6845 22.419 25.1992 18.1453C21.9386 14.1605 12.3317 13.258 9.30302 16.7076C5.91402 20.5604 7.15903 31.2125 13.3627 33.6419C20.5616 36.4601 25.3027 35.6718 25.3027 35.6718L30.2185 28.7546ZM41.7768 30.1388C41.7768 30.1388 47.2741 26.6427 50.1922 21.9659C52.9141 17.5923 50.6595 8.20659 46.4215 6.45502C41.6804 4.49297 31.9986 9.11271 31.7061 15.7694C31.3601 23.4892 33.6396 27.7237 33.6396 27.7237L41.7768 30.1388ZM43.086 41.4259C43.086 41.4259 48.1873 45.4856 53.5634 46.7128C58.5826 47.8543 66.7198 42.6638 66.9909 38.0833C67.2977 32.9641 59.7706 25.3228 53.3814 27.2171C45.972 29.4146 42.715 32.9499 42.715 32.9499L43.086 41.4259ZM32.8619 46.092C32.8619 46.092 30.2898 52.0781 30.5217 57.5897C30.7358 62.7338 37.8883 69.2193 42.3761 68.2739C47.3954 67.2216 52.7928 57.95 49.2825 52.285C45.2157 45.7139 40.9456 43.5021 40.9456 43.5021L32.8619 46.092ZM25.0993 38.7076C25.0993 38.7076 18.5889 38.4579 13.5304 40.6589C8.80716 42.7137 5.33611 51.7178 7.83326 55.567C10.6194 59.8692 21.2109 61.5637 25.2349 56.2519C29.8974 50.0875 30.4325 45.3072 30.4325 45.3072L25.0993 38.7076Z" fill="#2F99C6"/>
<path d="M37.3354 28.1482C39.6299 28.8694 41.5443 30.4718 42.658 32.6036C43.7717 34.7354 43.9937 37.2221 43.2751 39.5174C42.4953 41.7385 40.8829 43.5697 38.7784 44.6244C36.6739 45.6792 34.2419 45.8749 31.9958 45.1704C29.7497 44.4658 27.8652 42.916 26.7402 40.8482C25.6152 38.7804 25.3377 36.3564 25.9662 34.0878C26.6867 31.7927 28.2888 29.8775 30.4207 28.763C32.5525 27.6486 35.0396 27.4262 37.3354 28.1446V28.1482Z" fill="#0E3855"/>
</g>
<defs>
<filter id="filter0_i_1228_7608" x="7" y="6" width="60" height="66.3665" filterUnits="userSpaceOnUse" color-interpolation-filters="sRGB">
<feFlood flood-opacity="0" result="BackgroundImageFix"/>
<feBlend mode="normal" in="SourceGraphic" in2="BackgroundImageFix" result="shape"/>
<feColorMatrix in="SourceAlpha" type="matrix" values="0 0 0 0 0 0 0 0 0 0 0 0 0 0 0 0 0 0 127 0" result="hardAlpha"/>
<feOffset dy="4"/>
<feGaussianBlur stdDeviation="7"/>
<feComposite in2="hardAlpha" operator="arithmetic" k2="-1" k3="1"/>
<feColorMatrix type="matrix" values="0 0 0 0 0 0 0 0 0 0 0 0 0 0 0 0 0 0 0.15 0"/>
<feBlend mode="normal" in2="shape" result="effect1_innerShadow_1228_7608"/>
</filter>
</defs>
</svg>
