<svg width="74" height="74" viewBox="0 0 74 74" fill="none" xmlns="http://www.w3.org/2000/svg">
<rect width="74" height="74" fill="white"/>
<g filter="url(#filter0_i_1228_7654)">
<path d="M7 61.9167C7 61.9167 23.5125 42.7595 35.4514 35.7188C47.3904 28.6809 67 11 67 11C67 11 49.3774 30.8566 39.4866 38.9297C29.5902 47 7.75763 62.5967 7.75763 62.5967L7 61.9167Z" fill="#2F99C6"/>
<path d="M7.6494 61.9861C29.1295 43.1036 26.7539 44.8936 34.6994 38.8908C45.9306 30.4015 47.5042 28.7752 56.8871 20.8992C57.0065 20.7882 46.9047 30.2794 35.2044 39.4154C21.9889 49.7336 7.51064 62.1082 7.64663 61.9861H7.6494Z" fill="#0D314A"/>
</g>
<defs>
<filter id="filter0_i_1228_7654" x="7" y="11" width="60" height="55.5967" filterUnits="userSpaceOnUse" color-interpolation-filters="sRGB">
<feFlood flood-opacity="0" result="BackgroundImageFix"/>
<feBlend mode="normal" in="SourceGraphic" in2="BackgroundImageFix" result="shape"/>
<feColorMatrix in="SourceAlpha" type="matrix" values="0 0 0 0 0 0 0 0 0 0 0 0 0 0 0 0 0 0 127 0" result="hardAlpha"/>
<feOffset dy="4"/>
<feGaussianBlur stdDeviation="7"/>
<feComposite in2="hardAlpha" operator="arithmetic" k2="-1" k3="1"/>
<feColorMatrix type="matrix" values="0 0 0 0 0 0 0 0 0 0 0 0 0 0 0 0 0 0 0.15 0"/>
<feBlend mode="normal" in2="shape" result="effect1_innerShadow_1228_7654"/>
</filter>
</defs>
</svg>
