<svg width="74" height="74" viewBox="0 0 74 74" fill="none" xmlns="http://www.w3.org/2000/svg">
<g clip-path="url(#clip0_1228_7663)">
<rect width="74" height="74" fill="white"/>
<path d="M122 37.5007C122 43.2947 107.36 48 92.2945 48C77.2288 48 65 43.2947 65 37.5007C65 31.7053 77.2288 27 92.2945 27C107.36 27 122 31.7053 122 37.5007Z" fill="white" stroke="#12466A" stroke-width="1.13384" stroke-linecap="round"/>
<g filter="url(#filter0_i_1228_7663)">
<path d="M24.3296 36.4855C24.3296 51.0996 9.6052 62.9676 -5.54766 62.9676C-20.7005 62.9676 -33 51.0996 -33 36.4855C-33 21.8679 -20.7005 10 -5.54766 10C9.6052 10 24.3296 21.8679 24.3296 36.4855Z" fill="white" stroke="#12466A" stroke-width="1.13384" stroke-linecap="round"/>
<path d="M67 37.0973C67 51.7115 52.2756 63.5794 37.1227 63.5794C21.9699 63.5794 9.67037 51.7115 9.67037 37.0973C9.67037 22.4797 21.9699 10.6118 37.1227 10.6118C52.2756 10.6118 67 22.4797 67 37.0973Z" fill="white" stroke="#12466A" stroke-width="1.13384" stroke-linecap="round"/>
<path d="M13.5636 20.7486C15.1026 20.7486 15.8596 20.9571 17.1532 21.854C17.5192 22.1078 17.7854 22.4102 18.2222 22.591M18.9043 53.2793C17.4485 53.2793 15.8055 53.8146 14.4246 54.2005C14.2333 54.2526 12.9272 54.3986 12.9272 54.5272L18.9043 53.2793ZM19.8527 54.9896C18.218 55.7474 16.6374 56.6582 14.9737 57.3534C14.8073 57.4264 14.6575 57.2908 14.5036 57.4229L19.8527 54.9896ZM25.2808 58.6709C23.7002 59.3314 21.8409 60.5238 20.2478 60.9061C19.9442 60.9757 19.1373 61.3581 18.8295 61.1008L25.2808 58.6709ZM21.192 15.2178C19.0458 15.2178 17.1324 14.2306 14.9737 14.2306L21.192 15.2178ZM19.1456 16.4658H15.2856C14.8281 16.4658 14.5369 16.6049 14.1043 16.664C14.0211 16.6744 13.5054 16.8621 13.7133 16.8621L19.1456 16.4658ZM23.2343 14.0324C23.3425 14.0324 22.218 12.8347 21.9893 12.7339C21.9061 12.6957 17.9047 10.9714 17.8964 10.9575L23.2343 14.0324ZM30.7935 61.1008C29.7162 61.7752 26.7422 63.8644 25.3654 63.8644L30.7935 61.1008ZM40.4627 63.2457C39.5893 63.9757 37.3265 66.1379 35.9789 66.1379L40.4627 63.2457ZM36.4156 10.5249C36.4156 9.89224 33.5165 8.02549 32.8801 8.02549L36.4156 10.5249ZM35.9581 63.2874C35.3341 64.1842 32.4267 66.7289 31.1997 67L35.9581 63.2874ZM39.4395 11.6686C39.5102 10.5214 38.4454 9.19351 37.9421 8.18192C37.7757 7.85168 37.3348 7 36.844 7L39.4395 11.6686ZM44.4724 12.1935C44.4724 11.9432 44.539 11.6477 44.4724 11.4044C44.2977 10.7578 42.4759 8.31402 41.7189 8.31402L44.4724 12.1935ZM45.6496 62.5469C45.6496 62.8841 45.192 63.2352 44.9425 63.4681C43.965 64.3893 43.4991 65.1124 41.956 65.1124L45.6496 62.5469ZM55.8111 57.7601C55.8111 58.8621 56.1979 61.2016 55.3577 62.1333C55.0749 62.4496 54.5425 62.4948 54.2513 62.7659L55.8111 57.7601ZM53.9518 59.4426C53.0492 60.1935 52.7206 61.4241 52.2381 62.387C51.9761 62.9085 51.7224 63.6107 51.1317 63.861L53.9518 59.4426ZM50.175 60.7045C49.3847 62.022 48.9397 63.4264 48.1619 64.7439C47.9497 65.102 47.6503 66.0892 47.0014 66.0892L50.175 60.7045ZM48.2118 60.409C47.592 61.445 47.488 62.5886 46.9016 63.5655L48.2118 60.409ZM49.2683 12.4473C49.2683 11.5608 48.5778 11.2862 47.9581 10.6813C47.7584 10.4867 47.3425 9.84009 46.9515 9.84009L49.2683 12.4473ZM53.6482 14.3835C53.6482 13.6049 53.931 12.3673 53.4984 11.7312C53.2489 11.3662 52.862 11.0012 52.5418 10.6813C52.417 10.5562 52.0842 10.3824 52.0842 10.219L53.6482 14.3835ZM16.4419 50.54C16.4419 50.54 13.4513 52.1182 11.3258 52.1182L16.4419 50.54ZM17.2281 23.3244C17.2281 23.3244 12.9231 21.7497 10.2277 21.7497L17.2281 23.3244ZM15.5768 26.3488C15.0277 26.022 11.251 25.2329 9.99064 25.5597L15.5768 26.3488ZM14.2416 29.3071C14.2416 29.3071 9.75771 28.584 8.41837 28.9143L14.2416 29.3071ZM13.2974 32.5295C13.2974 32.5295 8.26447 32.5956 7.39515 32.5956L13.2974 32.5295ZM13.5303 40.153C13.5303 40.153 8.4974 41.0081 7.63224 40.876L13.5303 40.153ZM14.1626 43.6362C14.1626 43.6362 8.89255 44.6234 8.10641 44.6234L14.1626 43.6362ZM23.2052 56.7868C22.34 57.3117 19.6697 59.022 17.149 59.0881L23.2052 56.7868ZM15.4187 46.9907C15.4187 46.9907 11.1761 49.0939 9.59549 49.226L15.4187 46.9907ZM13.5303 36.4751C11.488 36.7358 8.41837 37.066 7 36.6698L13.5303 36.4751ZM19.0374 19.2503C15.0277 17.3418 11.9581 18.6593 10.9348 19.0521L19.0374 19.2503ZM57.296 19.3302C57.296 18.1483 57.4873 16.9803 57.4873 15.8053C57.4873 15.482 57.6288 14.6304 57.1712 14.4392L57.296 19.3302ZM58.365 55.8795C58.6894 57.4925 58.964 59.0881 59.1844 60.7184C59.201 60.8366 59.2759 61.7683 59.434 61.7683L58.365 55.8795ZM59.8125 52.6188C59.8125 52.8413 60.0537 52.8586 60.1286 53.0359C60.3158 53.4948 60.4613 53.9641 60.6277 54.4264C60.9023 55.2086 61.1643 55.7891 61.4513 56.5122C61.601 56.8946 61.5678 57.2943 61.7633 57.6663L59.8125 52.6188ZM59.4381 21.1692C60.3615 20.3974 61.1643 17.0915 60.7567 16.0695L59.4381 21.1692ZM61.3224 23.3279C61.5844 23.3557 62.0544 22.6987 62.2042 22.5388C62.7865 21.9131 63.4395 20.2445 63.7764 19.9594L61.3224 23.3279ZM62.6451 25.8517C62.6451 25.4206 64.2298 23.7937 64.5334 23.4844C64.7456 23.2688 65.6024 22.7231 65.6024 22.4311L62.6451 25.8517ZM63.7764 27.3743C64.1341 27.1518 64.5584 27.0266 64.912 26.7972C65.6107 26.3349 66.1099 25.6883 66.7338 25.1669L63.7764 27.3743ZM61.5761 49.8308C61.5428 50.1854 61.834 50.4809 61.9754 50.8111C62.1958 51.3256 62.9237 53.2202 63.3355 53.5643L61.5761 49.8308ZM63.9054 49.5145C64.5792 50.54 64.521 52.3441 65.4776 53.1437L63.9054 49.5145ZM64.7206 45.2005C64.9161 45.1796 65.7314 47.0429 65.7314 47.4635L64.7206 45.2005ZM29.3524 11.606C29.3524 10.7196 28.6619 10.445 28.0422 9.84009C27.8425 9.64542 26.2321 8.92032 25.8411 8.92032L29.3524 11.606Z" stroke="#2F99C6" stroke-width="1.13384" stroke-linecap="round"/>
</g>
</g>
<defs>
<filter id="filter0_i_1228_7663" x="-33.5669" y="6.43307" width="101.134" height="65.1205" filterUnits="userSpaceOnUse" color-interpolation-filters="sRGB">
<feFlood flood-opacity="0" result="BackgroundImageFix"/>
<feBlend mode="normal" in="SourceGraphic" in2="BackgroundImageFix" result="shape"/>
<feColorMatrix in="SourceAlpha" type="matrix" values="0 0 0 0 0 0 0 0 0 0 0 0 0 0 0 0 0 0 127 0" result="hardAlpha"/>
<feOffset dy="4"/>
<feGaussianBlur stdDeviation="7"/>
<feComposite in2="hardAlpha" operator="arithmetic" k2="-1" k3="1"/>
<feColorMatrix type="matrix" values="0 0 0 0 0 0 0 0 0 0 0 0 0 0 0 0 0 0 0.15 0"/>
<feBlend mode="normal" in2="shape" result="effect1_innerShadow_1228_7663"/>
</filter>
<clipPath id="clip0_1228_7663">
<rect width="74" height="74" fill="white"/>
</clipPath>
</defs>
</svg>
