<svg width="28" height="28" viewBox="0 0 28 28" fill="none" xmlns="http://www.w3.org/2000/svg">
<g clip-path="url(#clip0_1038_5436)">
<path d="M20.0281 0.674549C20.1265 0.614869 20.2394 0.583313 20.3545 0.583313C20.4696 0.583313 20.5825 0.614869 20.6809 0.674549C20.7763 0.737661 20.8534 0.824724 20.9045 0.927018C20.9557 1.02931 20.9791 1.14325 20.9723 1.25742C20.7625 4.23006 19.6784 11.9589 13.9779 11.9589C13.291 12.0549 12.5916 12.0024 11.9267 11.805C11.2619 11.6076 10.6471 11.2699 10.1239 10.8147C9.6007 10.3595 9.18121 9.79733 8.89374 9.16619C8.60627 8.53505 8.45752 7.84959 8.45752 7.15607C8.45752 6.46254 8.60627 5.77709 8.89374 5.14595C9.18121 4.51481 9.6007 3.95267 10.1239 3.49745C10.6471 3.04224 11.2619 2.70455 11.9267 2.50716C12.5916 2.30977 13.291 2.25727 13.9779 2.35322C16.0884 2.21477 18.1479 1.64335 20.0281 0.674549V0.674549Z" stroke="black" stroke-width="1.15" stroke-linecap="round" stroke-linejoin="round"/>
<path d="M9.17493 13.6142C9.59259 11.9436 10.3937 10.3933 11.5147 9.08613C12.6357 7.77898 14.0457 6.75093 15.6331 6.0835" stroke="black" stroke-width="1.15" stroke-linecap="round" stroke-linejoin="round"/>
<path d="M23.3037 4.2651C24.2363 4.17185 25.7984 4.12522 26.8009 4.1019C26.8792 4.10006 26.957 4.11467 27.0293 4.14479C27.1016 4.17491 27.1668 4.21987 27.2206 4.27676C27.2745 4.32982 27.3168 4.39347 27.3449 4.46369C27.373 4.53391 27.3862 4.60918 27.3838 4.68477V22.7538C27.3854 22.8307 27.3714 22.9072 27.3427 22.9787C27.3139 23.0501 27.2711 23.115 27.2166 23.1694C27.1622 23.2239 27.0973 23.2668 27.0259 23.2955C26.9544 23.3242 26.8779 23.3382 26.8009 23.3366C20.2145 23.4415 13.9778 25.2251 13.9778 27.4167C13.9778 25.2251 7.72942 23.4415 1.15464 23.3366C1.07864 23.3366 1.0034 23.3215 0.933325 23.2921C0.863251 23.2626 0.799756 23.2195 0.746558 23.1652C0.693361 23.1109 0.651532 23.0466 0.623521 22.9759C0.59551 22.9053 0.581881 22.8297 0.583432 22.7538V4.68477C0.5825 4.60833 0.597576 4.53253 0.627692 4.46226C0.657807 4.392 0.702294 4.32881 0.758293 4.27676C0.80942 4.22273 0.870805 4.17944 0.93886 4.14942C1.00692 4.11939 1.08027 4.10324 1.15464 4.1019C3.10559 4.13099 5.05259 4.28675 6.98335 4.5682" stroke="black" stroke-width="1.15" stroke-linecap="round" stroke-linejoin="round"/>
<path d="M13.9778 14.5936V27.2769" stroke="black" stroke-width="1.15" stroke-linecap="round" stroke-linejoin="round"/>
</g>
<defs>
<clipPath id="clip0_1038_5436">
<rect width="28" height="28" fill="white"/>
</clipPath>
</defs>
</svg>
