<?xml version="1.0" encoding="utf-8"?>
<!-- Generator: Adobe Illustrator 16.0.3, SVG Export Plug-In . SVG Version: 6.00 Build 0)  -->
<!DOCTYPE svg PUBLIC "-//W3C//DTD SVG 1.1//EN" "http://www.w3.org/Graphics/SVG/1.1/DTD/svg11.dtd">
<svg version="1.1" id="Ebene_1" xmlns="http://www.w3.org/2000/svg" xmlns:xlink="http://www.w3.org/1999/xlink" x="0px" y="0px"
	 width="45px" height="44.982px" viewBox="0 0 45 44.982" enable-background="new 0 0 45 44.982" xml:space="preserve">
<g>
	<circle id="path-1_2_" fill="none" stroke="#FFFFFF" stroke-width="8" stroke-opacity="0.5" cx="22.507" cy="22.491" r="15"/>
</g>
<g>
	<circle id="path-3_2_" fill="none" stroke="#638B54" stroke-width="4" cx="22.508" cy="22.491" r="15"/>
</g>
<g>
	<circle id="path-3_1_" fill="#729F62" cx="22.508" cy="22.491" r="15"/>
</g>
<g>
	<circle id="path-3_3_" fill="none" cx="22.5" cy="22.491" r="22.5"/>
</g>
<path fill="#FFFFFF" d="M34.968,22.353c-0.097-0.254-0.377-0.379-0.631-0.284c-0.621,0.237-1.155,0.374-1.659,0.45
	c-0.009-0.199-0.012-0.398-0.036-0.591c-0.066-0.487-0.176-0.963-0.325-1.426c0.588-0.258,1.189-0.608,1.859-1.124
	c0.214-0.164,0.254-0.472,0.089-0.685c-0.164-0.214-0.473-0.255-0.687-0.088c-0.584,0.449-1.107,0.756-1.621,0.985
	c-0.076-0.165-0.15-0.33-0.237-0.489c-0.233-0.422-0.503-0.807-0.788-1.173c0.579-0.423,1.137-0.963,1.731-1.717
	c0.166-0.213,0.13-0.52-0.082-0.687c-0.214-0.167-0.521-0.131-0.687,0.082c-0.551,0.699-1.063,1.188-1.604,1.574
	c-0.338-0.342-0.637-0.597-0.865-0.774c0.008-0.058,0.006-0.117-0.013-0.176c0,0-0.038-0.131-0.106-0.361
	c-0.059-0.233-0.169-0.555-0.333-0.927c-0.161-0.373-0.373-0.798-0.646-1.22c-0.261-0.431-0.588-0.855-0.932-1.26
	c-0.687-0.814-1.499-1.499-2.131-1.97c-0.63-0.472-1.101-0.73-1.101-0.73l-0.012-0.009c-0.15-0.083-0.341-0.03-0.427,0.119
	c-0.088,0.152-0.036,0.346,0.115,0.434c0,0,0.418,0.242,1.016,0.71c0.589,0.464,1.346,1.134,1.969,1.912
	c0.313,0.388,0.608,0.789,0.837,1.19c0.245,0.395,0.425,0.786,0.563,1.126c0.118,0.284,0.193,0.52,0.246,0.717
	c-0.026-0.01-0.05-0.02-0.081-0.031c-0.226-0.097-0.555-0.211-0.96-0.316c-0.401-0.108-0.878-0.212-1.393-0.267
	c-0.512-0.072-1.063-0.09-1.61-0.083c-1.097,0.01-2.175,0.189-2.966,0.373c-0.792,0.181-1.309,0.377-1.309,0.377l-0.014,0.005
	c-0.161,0.061-0.245,0.24-0.186,0.402c0.058,0.166,0.239,0.251,0.404,0.192c0,0,0.472-0.167,1.24-0.325
	c0.759-0.157,1.792-0.304,2.825-0.289c0.515,0.005,1.031,0.034,1.504,0.112c0.476,0.061,0.912,0.168,1.277,0.275
	c0.368,0.104,0.665,0.214,0.867,0.308c0.205,0.083,0.323,0.133,0.323,0.133l0.047,0.019c0.002,0.001,0.005,0.002,0.006,0.002
	c0.029,0.012,0.059,0.012,0.088,0.015c0.116,0.236,0.282,0.585,0.481,1.029c-0.539,0.243-1.132,0.462-1.836,0.718l-0.311,0.113
	c-0.255,0.092-0.385,0.372-0.292,0.626c0.072,0.199,0.259,0.322,0.459,0.322c0.056,0,0.111-0.01,0.167-0.03l0.309-0.112
	c0.703-0.255,1.312-0.48,1.874-0.732c0.111,0.306,0.222,0.647,0.335,1.03c0.031,0.118,0.044,0.225,0.07,0.34
	c-0.381,0.054-0.781,0.1-1.224,0.149l-0.702,0.079c-0.27,0.031-0.462,0.274-0.431,0.543c0.029,0.249,0.241,0.433,0.486,0.433
	c0.018,0,0.037-0.001,0.056-0.003l0.697-0.079c0.467-0.051,0.895-0.1,1.306-0.159c0.047,0.34,0.081,0.67,0.091,0.991
	c0.002,0.1-0.007,0.202-0.008,0.302c-0.262-0.043-0.53-0.091-0.821-0.145c-0.292-0.054-0.601-0.112-0.93-0.167
	c-0.268-0.041-0.519,0.133-0.564,0.4c-0.046,0.266,0.134,0.518,0.4,0.565c0.324,0.055,0.628,0.11,0.919,0.164
	c0.319,0.058,0.621,0.111,0.919,0.161c-0.063,0.424-0.163,0.84-0.296,1.25c-0.197-0.102-0.398-0.208-0.618-0.324
	c-0.276-0.148-0.571-0.306-0.893-0.472c-0.241-0.121-0.536-0.027-0.66,0.212c-0.122,0.241-0.027,0.536,0.212,0.66
	c0.316,0.16,0.607,0.316,0.879,0.463c0.256,0.136,0.489,0.255,0.728,0.375c-0.194,0.419-0.429,0.823-0.694,1.211
	c-0.321-0.283-0.654-0.596-1.033-0.955l-0.19-0.179c-0.195-0.184-0.506-0.176-0.691,0.02s-0.176,0.508,0.02,0.692l0.19,0.179
	c0.396,0.375,0.757,0.711,1.107,1.02c-0.293,0.357-0.614,0.691-0.959,1.001c-0.158-0.238-0.318-0.487-0.493-0.762l-0.374-0.585
	c-0.147-0.227-0.449-0.291-0.677-0.146c-0.227,0.146-0.293,0.449-0.145,0.677l0.37,0.578c0.194,0.305,0.376,0.587,0.559,0.857
	c-0.216,0.157-0.437,0.305-0.667,0.443c-0.156,0.084-0.314,0.147-0.474,0.218c-0.036-0.146-0.073-0.283-0.111-0.439
	c-0.081-0.339-0.168-0.7-0.272-1.09c-0.069-0.261-0.339-0.415-0.599-0.346c-0.262,0.068-0.416,0.338-0.346,0.599
	c0.102,0.381,0.186,0.733,0.267,1.066c0.047,0.196,0.093,0.371,0.139,0.554c-0.426,0.124-0.857,0.204-1.291,0.241
	c0.024-0.18,0.052-0.363,0.08-0.559c0.045-0.3,0.091-0.618,0.135-0.96c0.035-0.268-0.155-0.512-0.423-0.546
	c-0.267-0.043-0.513,0.154-0.548,0.422c-0.042,0.334-0.087,0.646-0.132,0.942c-0.036,0.246-0.069,0.481-0.1,0.715
	c-0.382-0.021-0.755-0.06-1.111-0.124c0.046-0.281,0.089-0.568,0.133-0.873c0.038-0.254,0.076-0.521,0.12-0.801
	c0.041-0.267-0.141-0.517-0.409-0.559c-0.272-0.045-0.517,0.141-0.558,0.406c-0.045,0.287-0.083,0.555-0.121,0.813
	c-0.04,0.276-0.079,0.531-0.118,0.778c-0.269-0.087-0.527-0.187-0.771-0.304c-0.162-0.073-0.316-0.161-0.473-0.246
	c0.119-0.229,0.235-0.456,0.359-0.707c0.13-0.263,0.268-0.541,0.421-0.838c0.123-0.241,0.029-0.537-0.211-0.66
	c-0.239-0.122-0.535-0.027-0.659,0.212c-0.156,0.303-0.296,0.586-0.429,0.854c-0.111,0.225-0.215,0.431-0.316,0.63
	c-0.364-0.258-0.699-0.545-1.007-0.854c0.197-0.191,0.395-0.389,0.604-0.597c0.205-0.207,0.422-0.426,0.656-0.655
	c0.194-0.19,0.197-0.499,0.008-0.691c-0.189-0.193-0.499-0.196-0.692-0.008c-0.237,0.233-0.458,0.455-0.666,0.665
	c-0.195,0.196-0.378,0.379-0.557,0.553c-0.203-0.269-0.386-0.546-0.541-0.804l-0.057-0.113l-0.059-0.128
	c0.342-0.149,0.696-0.315,1.089-0.501l0.621-0.29c0.245-0.114,0.351-0.403,0.238-0.65c-0.113-0.242-0.403-0.348-0.65-0.237
	l-0.625,0.294c-0.37,0.174-0.702,0.328-1.021,0.469l-0.074-0.236c-0.089-0.349-0.151-0.707-0.199-1.071
	c0.487-0.078,0.995-0.179,1.564-0.293l0.388-0.078c0.265-0.053,0.438-0.312,0.384-0.577c-0.054-0.263-0.311-0.433-0.575-0.383
	l-0.391,0.079c-0.533,0.107-1.006,0.203-1.452,0.276c-0.007-0.256-0.006-0.516,0.005-0.779c0.014-0.219,0.042-0.42,0.064-0.629
	c0.333,0.017,0.673,0.026,1.034,0.026c0.336,0,0.689-0.005,1.064-0.01c0.269-0.005,0.486-0.227,0.482-0.496
	s-0.221-0.482-0.489-0.482c-0.002,0-0.005,0-0.007,0c-0.748,0.009-1.376,0.014-1.96-0.012c0.029-0.182,0.056-0.374,0.085-0.544
	l0.119-0.625c0.021-0.102,0.04-0.191,0.061-0.288c0.681,0.156,1.412,0.266,2.277,0.382c0.021,0.003,0.044,0.005,0.065,0.005
	c0.241,0,0.451-0.179,0.485-0.423c0.036-0.269-0.151-0.515-0.42-0.551c-0.851-0.114-1.553-0.219-2.198-0.368
	c0.023-0.104,0.048-0.218,0.071-0.315c0.251-1.047,0.397-1.678,0.398-1.68c0.016-0.083-0.023-0.198-0.107-0.288
	c-0.08-0.091-0.18-0.134-0.29-0.134c-0.105,0-0.205,0.039-0.281,0.113c-0.017,0.015-0.532,0.482-1.147,1.455
	c-0.067,0.103-0.125,0.221-0.188,0.329c-0.595-0.269-1.198-0.63-1.893-1.152c-0.216-0.161-0.523-0.118-0.685,0.099
	c-0.163,0.215-0.12,0.522,0.097,0.684c0.738,0.555,1.386,0.941,2.021,1.234c-0.113,0.24-0.226,0.478-0.326,0.734
	c-0.121,0.313-0.211,0.646-0.303,0.979c-0.551-0.17-1.127-0.408-1.796-0.766c-0.238-0.127-0.535-0.038-0.662,0.201
	c-0.127,0.238-0.037,0.535,0.201,0.662c0.752,0.401,1.412,0.675,2.041,0.862c-0.05,0.272-0.112,0.54-0.145,0.821
	c-0.035,0.353-0.051,0.701-0.057,1.048c-0.545-0.061-1.127-0.18-1.811-0.392c-0.262-0.085-0.532,0.063-0.612,0.321
	c-0.081,0.258,0.064,0.532,0.321,0.613c0.806,0.251,1.491,0.389,2.128,0.449c0.033,0.484,0.088,0.96,0.182,1.424l0.061,0.251
	c0.019,0.084,0.044,0.17,0.064,0.254c-0.544,0.07-1.122,0.087-1.763,0.042c-0.266-0.029-0.503,0.184-0.523,0.453
	c-0.019,0.27,0.185,0.504,0.454,0.523c0.28,0.019,0.552,0.028,0.815,0.028c0.466,0,0.907-0.031,1.331-0.096l0.181,0.46
	c0.196,0.387,0.475,0.898,0.828,1.385c-0.442,0.218-0.942,0.411-1.566,0.579c-0.261,0.07-0.415,0.34-0.345,0.601
	c0.059,0.217,0.256,0.36,0.472,0.36c0.042,0,0.086-0.005,0.128-0.018c0.79-0.213,1.416-0.468,1.959-0.759
	c0.472,0.515,1.002,0.984,1.583,1.402c-0.366,0.354-0.78,0.679-1.273,0.99c-0.229,0.145-0.296,0.446-0.152,0.675
	c0.094,0.147,0.252,0.229,0.415,0.229c0.089,0,0.18-0.025,0.261-0.076c0.624-0.394,1.132-0.81,1.581-1.271
	c0.24,0.142,0.478,0.284,0.727,0.407c0.4,0.197,0.814,0.36,1.235,0.504c-0.222,0.398-0.502,0.811-0.883,1.263
	c-0.172,0.207-0.145,0.516,0.063,0.689c0.091,0.077,0.203,0.113,0.313,0.113c0.14,0,0.279-0.059,0.376-0.176
	c0.481-0.574,0.821-1.099,1.084-1.607c0.639,0.149,1.292,0.225,1.942,0.246c0.12,0.563,0.319,1.161,0.657,1.849
	c0.085,0.174,0.259,0.274,0.44,0.274c0.072,0,0.146-0.017,0.215-0.051c0.243-0.12,0.342-0.412,0.224-0.655
	c-0.263-0.534-0.431-1-0.54-1.44c0.766-0.053,1.529-0.193,2.274-0.421c0.345,0.532,0.764,1.028,1.307,1.516
	c0.094,0.085,0.21,0.125,0.326,0.125c0.135,0,0.268-0.053,0.364-0.161c0.181-0.2,0.164-0.511-0.036-0.69
	c-0.413-0.372-0.743-0.735-1.018-1.121c0.313-0.129,0.621-0.265,0.914-0.424c0.359-0.21,0.703-0.446,1.036-0.693
	c0.462,0.356,1.004,0.692,1.702,1.02c0.067,0.03,0.138,0.046,0.207,0.046c0.185,0,0.359-0.104,0.443-0.282
	c0.114-0.244,0.009-0.536-0.236-0.649c-0.535-0.251-0.967-0.502-1.337-0.766c0.527-0.473,1.002-0.993,1.413-1.546
	c0.546,0.234,1.159,0.434,1.914,0.593c0.035,0.006,0.068,0.01,0.101,0.01c0.228,0,0.431-0.158,0.479-0.388
	c0.056-0.265-0.114-0.525-0.379-0.579c-0.592-0.125-1.089-0.27-1.528-0.441c0.375-0.568,0.696-1.168,0.955-1.785
	c0.449,0.077,0.906,0.117,1.392,0.117c0.217,0,0.438-0.009,0.669-0.023c0.269-0.017,0.474-0.251,0.456-0.519
	c-0.019-0.27-0.256-0.477-0.521-0.456c-0.591,0.037-1.13,0.016-1.65-0.062c0.211-0.678,0.341-1.363,0.396-2.034
	c0.615-0.079,1.271-0.235,2.028-0.523C34.938,22.888,35.064,22.606,34.968,22.353z"/>
</svg>
