<svg width="74" height="74" viewBox="0 0 74 74" fill="none" xmlns="http://www.w3.org/2000/svg">
<rect width="74" height="74" fill="white"/>
<g filter="url(#filter0_i_1228_7628)">
<path d="M27.816 20.3272C27.5363 20.48 27.2667 20.6506 27.0088 20.8378C23.0042 23.7437 21.9019 27.7554 22.7202 33.4367C23.5388 39.1186 30.9735 47.8665 35.7429 48.8624C35.7944 48.873 35.8666 48.8846 35.9194 48.8951C36.7059 47.2619 37.4067 45.5887 38.0187 43.8824C36.4794 43.4654 35.2022 42.9488 34.4358 42.3519C31.2778 39.8893 29.2539 36.3776 28.1469 32.6661C27.0387 28.9538 28.581 24.0511 32.5853 24.0297C36.5892 24.0077 40.1012 28.2915 40.4823 34.4736C40.2202 38.1751 39.7276 41.0199 38.621 44.0292C38.0182 45.728 37.3288 47.3948 36.5555 49.0231C34.7147 51.9913 32.859 55.8937 30.0359 57.6006C24.7487 60.6302 22.2213 60.1113 20.0305 58.2716C17.8393 56.4313 16.7372 52.3816 17.2564 48.9859C17.7751 45.5904 17.9033 44.4597 17.693 41.8724C17.4835 39.2854 15.4513 36.6494 13.1477 37.3884C10.8438 38.1283 10.2729 39.5146 9.61729 41.8338C8.96219 44.1527 10.3519 48.713 10.2114 50.8484C10.7999 48.9179 10.7109 47.3137 10.4724 45.0292C10.2344 42.7444 11.1307 38.3895 13.5786 38.6023C16.0256 38.8149 16.267 42.33 15.5263 46.9255C14.786 51.5207 15.2671 57.1527 17.4742 59.4545C19.682 61.7573 23.3197 64.693 31.564 60.5205C35.9139 57.4721 38.7901 53.5743 40.8382 49.6997C41.7308 47.9453 42.5026 46.132 43.1481 44.2725C44.4616 38.8324 45.872 32.4207 44.3352 27.7056C41.0086 18.181 32.2022 17.9265 27.816 20.3272ZM54.8136 10.0487C53.9574 10.533 52.9176 12.3304 52.7675 14.4916C52.6306 16.4674 53.4624 18.7498 53.8266 20.0663C54.1908 21.3828 54.522 24.9987 55.4072 27.2064C56.2931 29.4151 60.0065 33.3249 59.566 36.0079C59.126 38.6906 57.7149 41.9916 53.4812 43.9745C51.3721 44.9633 47.4215 45.161 43.5994 44.821C42.9978 46.5138 42.2927 48.1681 41.4881 49.7744C46.7553 50.3519 53.3293 50.3643 57.0074 47.9002C62.2757 44.3705 64.6639 39.3955 64.2765 35.0878C63.8887 30.7805 59.211 27.5534 58.3706 25.2486C57.5301 22.9438 57.9195 21.3816 57.9346 20.1685C57.9496 18.9564 57.9727 16.14 57.4958 13.8765C57.0129 11.5813 56.0613 9.81354 55.1631 9.91465C55.0507 9.92698 54.9357 9.97968 54.8136 10.0487Z" fill="#2F99C6"/>
</g>
<defs>
<filter id="filter0_i_1228_7628" x="9.44079" y="9.91052" width="54.8763" height="56.7144" filterUnits="userSpaceOnUse" color-interpolation-filters="sRGB">
<feFlood flood-opacity="0" result="BackgroundImageFix"/>
<feBlend mode="normal" in="SourceGraphic" in2="BackgroundImageFix" result="shape"/>
<feColorMatrix in="SourceAlpha" type="matrix" values="0 0 0 0 0 0 0 0 0 0 0 0 0 0 0 0 0 0 127 0" result="hardAlpha"/>
<feOffset dy="4"/>
<feGaussianBlur stdDeviation="7"/>
<feComposite in2="hardAlpha" operator="arithmetic" k2="-1" k3="1"/>
<feColorMatrix type="matrix" values="0 0 0 0 0 0 0 0 0 0 0 0 0 0 0 0 0 0 0.15 0"/>
<feBlend mode="normal" in2="shape" result="effect1_innerShadow_1228_7628"/>
</filter>
</defs>
</svg>
