<?xml version="1.0" encoding="UTF-8"?>
<svg width="24" height="24" version="1.1" viewBox="0 0 24 24" xmlns="http://www.w3.org/2000/svg">
 <path d="m23.138 10.407a1.1358 1.1358 0 0 0-1.1358-1.1345h-15.592a1.1358 1.1358 0 0 0-1.1358 1.1345v10.258c0 0.62621 0.50962 1.1345 1.1358 1.1345h15.592a1.1358 1.1358 0 0 0 1.1358-1.1345z" fill="none" stroke="#000" stroke-width="1"/>
 <path d="m20.843 7.8099c5.7e-5 -0.046665-7.07e-4 -0.055992-0.01245-0.081329-0.18468-0.39867-0.58547-0.65753-1.0299-0.65728h-15.592c-0.62679-5e-7 -1.1351 0.50773-1.1358 1.1345v10.258c0 0.44538 0.25713 0.83058 0.6314 1.0166 0.035267 0.01753 0.04314 0.01685 0.11391 0.01645" fill="none" stroke="#000" stroke-linecap="square"/>
 <path d="m17.575 17.26c-1.3651-0.67337-3.6551-0.02751-4.8106 2.0987-0.20166 0.36993-0.36864 0.76146-0.48997 1.1613" fill="none" stroke="#000" stroke-linecap="round" stroke-linejoin="round"/>
 <path d="m9.6028 20.495c1.4551-2.2826 2.2074-5.0109 3.7437-6.8333 2.0555-2.4367 4.4778-1.3913 5.8062-0.78735-0.38385 0.27773-1.2184 0.30656-1.4057 2.311-0.10387 1.1201 0.04075 3.3433-0.53053 5.3249" fill="none" stroke="#000" stroke-linecap="round" stroke-linejoin="round"/>
 <circle cx="15.999" cy="13.895" r=".35364" fill="none" stroke="#000" stroke-width="1"/>
 <path d="m18.633 5.5991c5.8e-5 -0.046663-7.06e-4 -0.055991-0.01245-0.081327-0.18468-0.39867-0.58547-0.65753-1.0299-0.65728h-15.592c-0.62679-3e-7 -1.1351 0.50773-1.1358 1.1345v10.258c0 0.44538 0.25713 0.83058 0.6314 1.0166 0.035267 0.01753 0.04314 0.01685 0.11391 0.01645" fill="none" stroke="#000" stroke-linecap="square"/>
</svg>