<svg xmlns="http://www.w3.org/2000/svg" width="74" height="74" viewBox="0 0 19.579 19.579">
  <path d="M0 0h19.579v19.579H0z" style="fill:#fff;fill-opacity:.989964;stroke:none;stroke-width:0;"/>
  <path d="M12.29 6.26c.884-.034.988-.042 1.573.004.584.046 1.428.375 1.904.242.246-.068.691-.396.822-.489.131-.092.57-.313.719-.398.258-.147.308-.27.36-.305.052-.035.158-.057.212 0 .052.058.093.165.018.234s-.127.013-.391.19c-.266.18-1.083.748-1.064.908.02.159.095.174.17.18.075.005.142-.13.209-.114.066.016.126.083.115.16-.012.078-.148.086-.207.124-.063.038-.17.112-.036.13.134.017.708.095.922.19.214.093.372.049.448.112.074.062.144.221.069.31a.256.256 0 0 1-.321.056c-.105-.061-.037-.123-.216-.174a2.11 2.11 0 0 0-.762-.06c-.23.038-.138.156-.127.255.01.1.023.17.08.247.058.076.236.136.25.23.015.092-.008.134-.149.159-.14.024-.329-.285-.486-.26-.159.024-.024.16-.215.28a3.473 3.473 0 0 1-1.192.474c-.54.093-1.495-.026-2.01-.069-.514-.043-.673-.133-1.076-.143a7.258 7.258 0 0 0-1.332.113c-.456.078-.89.268-1.396.361-.507.092-5.402.261-5.88-.35-.18-.23 1.564-.29 2.516-.678a11.994 11.994 0 0 0 2.756-1.615s2.836-.269 3.718-.303z" style="clip-rule:evenodd;fill:#fff;fill-opacity:1;fill-rule:nonzero;stroke:#0e3855;stroke-width:.238295;stroke-linecap:butt;stroke-linejoin:miter;"/>
  <path d="M12.273 5.018a2.908 2.908 0 0 0-.56-1.037c-.619-.713-1.74-1.395-2.678-1.52-1.767-.234-3.978.864-4.435 2.563-.456 1.699.654 3.259 1.773 3.885 1.12.625 2.345.496 2.932.235.588-.26 1.202-1.073 1.202-1.073.838.034 1.732-1.059 1.949-2.178.047-.243.075-.662-.183-.875z" style="clip-rule:evenodd;fill:#fff;fill-rule:nonzero;stroke:#0e3855;stroke-width:.238304;stroke-linecap:butt;stroke-linejoin:miter;"/>
  <path d="M12.29 6.26c.884-.034.988-.042 1.573.004.584.046 1.428.375 1.904.242.246-.068.691-.396.822-.489.131-.092.57-.313.719-.398.258-.147.308-.27.36-.305.052-.035.158-.057.212 0 .052.058.093.165.018.234s-.127.013-.391.19c-.266.18-1.083.748-1.064.908.02.159.095.174.17.18.075.005.142-.13.209-.114.066.016.126.084.115.16-.012.078-.148.086-.207.124-.063.038-.17.112-.036.13.134.018.708.095.922.19.214.093.372.049.448.112.074.062.144.221.069.312a.256.256 0 0 1-.321.054c-.105-.061-.037-.123-.216-.174a2.11 2.11 0 0 0-.762-.06c-.23.038-.138.156-.127.255.01.1.023.17.08.247.058.077.236.136.25.23.015.092-.008.134-.149.159-.14.024-.329-.285-.486-.26-.159.024-.024.16-.215.28a3.473 3.473 0 0 1-1.192.474c-.54.093-1.495-.026-2.01-.069-.514-.043-.673-.133-1.076-.143a7.258 7.258 0 0 0-1.332.113c-.456.078-.89.268-1.396.361-.507.092-5.402.261-5.88-.348-.18-.231 1.564-.292 2.516-.681 1.568-.638 2.756-1.614 2.756-1.614s2.836-.267 3.718-.303z" style="clip-rule:evenodd;fill:#fff;fill-opacity:1;fill-rule:nonzero;stroke:#0e3855;stroke-width:.0595738;stroke-linecap:butt;stroke-linejoin:miter;"/>
  <path d="M16.2 8.497c-.255.141-.589.313-.62.297.198-.328.368-.801.43-.924.27-.53-.068-1.32-.492-1.333 0 0 .141-.015.313-.063.247-.069.68-.4.81-.493.131-.092.573-.3.722-.385.257-.147.292-.266.342-.294.052-.035.188-.045.242.012.053.057.093.164.018.233s-.127.013-.391.191c-.265.178-1.083.747-1.063.907.02.16.08.178.155.18.056.002.133-.14.223-.114.067.016.126.083.114.16-.011.078-.146.086-.207.124-.06.038-.135.09-.035.13.143.028.71.096.923.19.214.093.37.05.447.112.075.063.146.222.069.312-.077.09-.231.135-.336.074-.119-.042-.058-.139-.2-.185-.18-.05-.53-.106-.762-.068-.23.038-.139.155-.128.254.01.1.024.17.081.247.058.077.236.136.25.23.014.093-.025.17-.164.198-.197.04-.327-.273-.507-.264-.179.01.012.135-.235.272z" style="clip-rule:evenodd;fill:#2f99c6;fill-opacity:1;fill-rule:nonzero;stroke-width:.0871355;stroke-linecap:round;stroke-linejoin:round;stroke-miterlimit:1.5"/>
  <path fill="none" d="M16.226 7.203c.134-.048.34-.09.47-.075.129.014.709.095.922.19.214.093.371.05.447.112.076.062.146.221.069.312a.256.256 0 0 1-.32.054c-.105-.062-.037-.123-.216-.174-.18-.051-.53-.098-.761-.06-.232.038-.332.054-.57.186" style="clip-rule:evenodd;fill:#668000;fill-opacity:0;fill-rule:nonzero;stroke:#0e3855;stroke-width:.0113276px;stroke-linecap:butt;stroke-linejoin:miter;"/>
  <path d="M12.273 5.016a2.908 2.908 0 0 0-.56-1.037c-.619-.714-1.74-1.395-2.678-1.52-1.767-.234-3.978.864-4.435 2.563-.456 1.699.654 3.259 1.773 3.884 1.12.626 2.345.496 2.932.236.588-.26 1.202-1.073 1.202-1.073.838.034 1.732-1.059 1.949-2.178.047-.244.075-.662-.183-.875z" style="clip-rule:evenodd;fill:#fff;fill-opacity:1;fill-rule:nonzero;stroke:#0e3855;stroke-width:.0595762;stroke-linecap:butt;stroke-linejoin:miter;"/>
  <ellipse cx="19.723" cy="-4.47" rx=".046" ry=".036" style="clip-rule:evenodd;fill:#0e3855;fill-opacity:1;fill-rule:evenodd;stroke:none;stroke-width:.0156834px;stroke-linecap:butt;stroke-linejoin:miter;" transform="matrix(.8677 .49708 -.1593 .98723 0 0)"/>
  <ellipse cx="16.919" cy="9.776" rx=".04" ry=".043" style="clip-rule:evenodd;fill:#fff;fill-opacity:.992307;fill-rule:evenodd;stroke:none;stroke-width:.0113261px;stroke-linecap:butt;stroke-linejoin:miter;" transform="rotate(-6.971)"/>
  <ellipse cx="19.757" cy="-4.482" rx=".046" ry=".036" style="clip-rule:evenodd;fill:#fff;fill-opacity:.992307;fill-rule:evenodd;stroke:none;stroke-width:.0156834px;stroke-linecap:butt;stroke-linejoin:miter;" transform="matrix(.8677 .49708 -.1593 .98723 0 0)"/>
  <path d="M14.279 13.989c.585.046 1.76.489 2.236.356.246-.068.692-.397.823-.49.13-.092.57-.312.718-.397.257-.147.31-.27.36-.306.053-.035.158-.056.211.001.054.057.094.164.02.233-.076.069-.128.013-.393.191-.264.179-1.082.747-1.062.907.02.16.094.174.17.18.075.006.141-.13.208-.114s.126.083.114.16c-.012.078-.146.087-.207.124-.06.038-.136.09-.035.13.1.04.709.096.923.19.213.093.37.05.446.112.076.063.146.222.07.312a.256.256 0 0 1-.32.054c-.106-.061-.038-.123-.217-.174-.18-.05-.53-.097-.761-.06-.231.039-.14.156-.129.255.011.1.024.17.082.247.058.077.235.136.25.23.014.093-.01.135-.15.159-.14.024-.328-.284-.486-.26-.625.32-1.203.41-1.735.508-.54.094-1.167.22-1.681.177-.515-.043-.673-.133-1.077-.143a7.218 7.218 0 0 0-1.332.114c-.457.077-1.253.256-2.482.35-1.23.096-2.866-.141-4.727-.003-1.862.139-3.647.246-3.436-.236.175-.4 1.424-1.007 1.934-1.223 1.254-.53 1.216-.547 2.382-.859 1.253-.336 3.629-.479 4.07-.496.442-.018 2.542-.063 3.151-.163.61-.1 1.477-.112 2.062-.066z" style="clip-rule:evenodd;fill:#fff;fill-opacity:1;fill-rule:nonzero;stroke:#0e3855;stroke-width:.238304;stroke-linecap:butt;stroke-linejoin:miter;"/>
  <path d="M13.408 15.87c.006.05.24.037.248.043.22.16.179-.02.423.141.08.054.278-.048.299-.088.037-.072-.046-.143-.078-.159-.209-.048-.41.177-.591.053-.052-.035-.227-.077-.272-.11-.042-.034-.072.075-.029.12zm1.672-.729a.076.076 0 0 0-.069.058 1.552 1.552 0 0 1-.058.174.64.64 0 0 1-.071.13.575.575 0 0 1-.04-.018c-.041-.023-.087-.04-.169.008-.08.046-.182.086-.188.165a.08.08 0 0 0 .02.055l.002.002c.074.054.179.018.253-.018.064-.031.172-.015.286 0 .057.007.115.012.17.007.086-.013.221-.064.14-.15-.081-.086-.127-.095-.174-.077-.046.018-.084.046-.13.044.092-.08.185-.154.17-.25-.02-.102-.101-.13-.14-.129zm.04-.808c-.061-.122-.15.018-.195.062-.011.014-.065-.013-.078 0-.02.02-.06.032-.08.053-.01.011-.065.103-.035.132.007.007.095.038.115.018.061-.062.214-.073.282-.141.029-.029.018-.106-.008-.132m-1.185-.234a4.414 4.414 0 0 0-.556.035c-.095-.001-.194-.01-.273.03 0 0-.026.005-.05.026a.08.08 0 0 0-.023.047.106.106 0 0 0 .011.06.28.28 0 0 0 .072.102.14.14 0 0 0 .148.015c.057-.017.099-.048.133-.071.033-.02.058-.032.089-.031a.364.364 0 0 0 .126.055.72.72 0 0 0 .173.023 1.027 1.027 0 0 0 .28-.033c.026-.007.045-.01.067-.03h.001c-.031.031.086-.04.052-.11l-.017-.035a.09.09 0 0 0-.027-.03c-.023-.016-.04-.017-.084-.034a.388.388 0 0 0-.12-.019z" style="clip-rule:evenodd;fill:#2f99c6;fill-opacity:1;fill-rule:evenodd;stroke:#f33;stroke-width:.0522791px;stroke-linecap:round;stroke-linejoin:round;stroke-miterlimit:1.5;stroke-opacity:0"/>
  <path d="M13.249 14.37c.103-.03.151-.115.247-.107.048.047.195.08.292.08.08.002.287-.026.317-.054.01-.01.065-.022.044-.062-.03-.061-.015-.044-.106-.08-.09-.034-.425-.006-.661.019-.097 0-.193-.005-.257.026-.02.01-.072.019-.043.08.027.06.08.14.167.096zm-.46.06c-.1.048-.196.012-.29.018-.1.032-.168.045-.168.168 0 .048-.058.128-.017.168.144.146.163-.156.22-.212.107-.023.226.072.327.034.053-.025.143-.018.176-.052.003-.004.041-.084 0-.119-.099-.083-.177-.04-.247-.005zm3.693.01c-.032.015-.06.068-.03.132.028.053.207.115.151.23-.05.101-.201-.02-.264.044-.118.254.147.123.211.15.074.036.196-.011.238-.054.013-.011.08-.07.044-.106-.129-.083-.104-.345-.175-.385-.052-.029-.09-.052-.175-.011z" style="clip-rule:evenodd;fill:#2f99c6;fill-opacity:1;fill-rule:evenodd;stroke:#f33;stroke-width:.0522791px;stroke-linecap:round;stroke-linejoin:round;stroke-miterlimit:1.5;stroke-opacity:0"/>
  <path d="M16.326 15.373c-.058.03-.152-.045-.205-.012-.053.034-.1.115-.071.144.011.011.06.049.098.03.053-.027.08-.047.128-.07.082-.043.207.07.278 0 .005-.006.088-.039.069-.127-.046-.11-.225-.002-.297.034z" style="clip-rule:evenodd;fill:#2f99c6;fill-opacity:1;fill-rule:evenodd;stroke:#f33;stroke-width:.0591798px;stroke-linecap:round;stroke-linejoin:round;stroke-miterlimit:1.5;stroke-opacity:0"/>
  <path d="M15.624 15.735c.054.07.142.039.189.016.069-.037-.006.114.069.166.064.046.558-.158.592-.29.01-.035-.056-.091-.096-.07-.131.065-.273.113-.397.175-.11.03 0-.1-.11-.192-.061-.051-.303.123-.247.196z" style="clip-rule:evenodd;fill:#2f99c6;fill-opacity:1;fill-rule:evenodd;stroke:#f33;stroke-width:.0522791px;stroke-linecap:round;stroke-linejoin:round;stroke-miterlimit:1.5;stroke-opacity:0"/>
  <path d="M16.779 15.044c-.041.02-.068.047-.115.07-.046.024-.122.017-.15.045-.02.02.042.059.044.062.114-.001.294.041.362-.018.05-.05.018-.141-.027-.16a.18.18 0 0 0-.114.001z" style="clip-rule:evenodd;fill:#2f99c6;fill-opacity:1;fill-rule:evenodd;stroke:#f33;stroke-width:.0522675px;stroke-linecap:round;stroke-linejoin:round;stroke-miterlimit:1.5;stroke-opacity:0"/>
  <path d="M12.305 14.065c.525-.139 1.39-.122 1.974-.076.585.046 1.76.489 2.236.356.246-.068.692-.397.823-.49.13-.092.57-.312.718-.397.257-.147.31-.27.36-.306.053-.035.158-.056.211.001.054.057.094.164.02.233-.076.069-.128.013-.393.191-.264.179-1.082.747-1.062.907.02.16.094.174.17.18.075.006.141-.13.208-.114s.126.083.114.16c-.012.078-.146.087-.207.124-.06.038-.136.09-.035.13.1.04.709.096.923.19.213.093.37.05.446.112.076.063.146.222.07.312a.256.256 0 0 1-.32.054c-.106-.06-.038-.123-.217-.174-.18-.05-.53-.097-.761-.06-.231.039-.14.156-.129.255.011.1.024.17.082.247.058.077.235.136.25.23.014.093-.01.135-.15.159-.14.024-.328-.284-.486-.26-.625.32-1.203.41-1.735.508-.54.094-1.167.22-1.681.177-.515-.043-.673-.133-1.077-.143a7.218 7.218 0 0 0-1.332.114c-.457.077-1.253.256-2.482.35-1.23.096-2.866-.141-4.727-.003-1.862.139-3.647.246-3.436-.236.175-.4 1.424-1.007 1.934-1.223 1.254-.53 1.216-.547 2.382-.859 1.253-.336 3.629-.479 4.07-.496.442-.018 2.545-.092 3.239-.153.11-.01 0 0 0 0z" style="clip-rule:evenodd;fill:#fff;fill-opacity:1;fill-rule:nonzero;stroke:none;stroke-width:0;stroke-linecap:butt;stroke-linejoin:miter;stroke-dasharray:none"/>
  <path d="M16.786 15.685c-.445.163-.72.34-1.334.492-.616.153-1.492.127-1.727.122-.236-.003-1.524-.245-1.74-.325-.215-.08-.925-.638-.835-1.152.09-.515.97-.733 1.437-.812" style="clip-rule:evenodd;fill:none;fill-opacity:1;fill-rule:nonzero;stroke:#0e3855;stroke-width:.0456406;stroke-linecap:butt;stroke-linejoin:miter;"/>
  <path d="M16.344 16.355a9.24 9.24 0 0 0 .359-.641c.27-.53-.141-1.36-.566-1.374 0 0 .243.02.415-.027.246-.069.644-.392.775-.485.13-.093.583-.308.731-.393.258-.147.305-.273.356-.308.052-.035.19-.037.242.02.054.057.09.19.016.26-.075.068-.136.012-.4.19-.265.178-1.089.732-1.069.892.02.16.097.156.172.162.075.006.124-.13.191-.115.067.016.142.102.13.18-.012.077-.147.085-.208.123-.06.037-.093.057.007.097.101.039.65.097.887.21.211.1.37.035.446.097.076.063.14.25.064.34-.077.09-.204.148-.31.087-.105-.061-.05-.14-.229-.19-.179-.051-.527-.096-.758-.058-.232.038-.123.13-.113.23.01.1.022.16.08.237.057.077.244.154.258.248.015.093-.031.156-.171.18-.14.024-.334-.265-.5-.209-.166.057-.805.247-.805.247z" style="clip-rule:evenodd;fill:#2f99c6;fill-opacity:1;fill-rule:nonzero;stroke-width:.0871355;stroke-linecap:round;stroke-linejoin:round;stroke-miterlimit:1.5"/>
  <path d="M16.971 15.04c.135-.05.34-.092.47-.076.13.015.709.096.923.189.212.094.37.05.446.112.076.064.146.222.069.312a.256.256 0 0 1-.32.054c-.106-.06-.038-.122-.216-.172a2.106 2.106 0 0 0-.761-.06c-.231.038-.333.053-.57.186" style="clip-rule:evenodd;fill:none;fill-opacity:1;fill-rule:nonzero;stroke:#0e3855;stroke-width:.0113271px;stroke-linecap:butt;stroke-linejoin:miter;"/>
  <ellipse cx="16.704" cy="17.623" rx=".04" ry=".043" style="clip-rule:evenodd;fill:#fff;fill-opacity:1;fill-rule:evenodd;stroke:#0e3855;stroke-width:.0113271px;stroke-linecap:butt;stroke-linejoin:miter;" transform="rotate(-6.958)"/>
  <ellipse cx="16.704" cy="17.623" rx=".04" ry=".043" style="clip-rule:evenodd;fill:#fff;fill-opacity:1;fill-rule:evenodd;stroke:none;stroke-width:.0113271px;stroke-linecap:butt;stroke-linejoin:miter;" transform="rotate(-6.958)"/>
  <path d="M14.818 15.931c-.046-.042.31-.184.42-.2.112-.016.244 0 .202.08-.042.081-.207.108-.31.112-.104.005-.265.05-.31.008z" style="clip-rule:evenodd;fill:#f2f2f2;fill-opacity:1;fill-rule:nonzero;stroke:#0e3855;stroke-width:.0165551px;stroke-linecap:butt;stroke-linejoin:miter;"/>
  <path d="M14.818 15.931c-.046-.042.31-.184.42-.2.112-.016.244 0 .202.08-.042.081-.207.108-.31.112-.104.005-.265.05-.31.008z" style="clip-rule:evenodd;fill:#0e3855;fill-opacity:1;fill-rule:nonzero;stroke:none;stroke-width:.0165551px;stroke-linecap:butt;stroke-linejoin:miter;"/>
  <ellipse cx="21.839" cy="2.399" rx=".046" ry=".036" style="clip-rule:evenodd;fill:#fff;fill-opacity:1;fill-rule:evenodd;stroke:#0e3855;stroke-width:.0156834px;stroke-linecap:butt;stroke-linejoin:miter;" transform="matrix(.8677 .49708 -.1593 .98723 0 0)"/>
  <ellipse cx="21.839" cy="2.399" rx=".046" ry=".036" style="clip-rule:evenodd;fill:#fff;fill-opacity:1;fill-rule:evenodd;stroke:none;stroke-width:.0156834px;stroke-linecap:butt;stroke-linejoin:miter;" transform="matrix(.8677 .49708 -.1593 .98723 0 0)"/>
  <path fill="none" d="M16.226 7.203c.134-.048.34-.09.47-.075.129.014.709.095.922.19.214.093.371.05.447.112.076.062.146.221.069.312a.256.256 0 0 1-.32.054c-.105-.062-.037-.123-.216-.174-.18-.051-.53-.098-.761-.06a1.49 1.49 0 0 0-.53.165c-.108.054-.194.122-.208.13" style="clip-rule:evenodd;fill:#668000;fill-opacity:0;fill-rule:nonzero;stroke:#fff;stroke-width:.0456425;stroke-linecap:butt;stroke-linejoin:miter;stroke-miterlimit:2.33333;"/>
  <path fill="none" d="M15.818 8.184s-1.156-.245-1.608-.289a6.397 6.397 0 0 0-1.091-.018c-.428.019-1.475.152-1.475.152" style="clip-rule:evenodd;fill:#668000;fill-opacity:0;fill-rule:nonzero;stroke:#0e3855;stroke-width:.0456425;stroke-linecap:butt;stroke-linejoin:miter;stroke-miterlimit:2.33333;"/>
  <path d="M10.528 8.058c.279-1.426-.478-1.998-.812-2.25-.334-.254-1.324-.637-2.083-.59-.759.045-1.872.53-2.014 1.39-.143.858.589 1.74 1.202 2.135.613.394 1.46.429 1.918.164.458-.266.626-.631.527-1.132-.099-.5-.622-1.092-1.333-1.231-.71-.139-1.322.118-1.548.65-.225.532.262 1.08.634 1.346.372.265.986.293 1.239.023.252-.27.13-.714-.086-.976s-.81-.426-1.15-.16c-.34.265-.08.789.169.949.248.16.536.22.714.025.179-.194.011-.447-.186-.548-.197-.1-.413-.045-.46.068-.048.114.025.243.146.322.12.078.34-.006.178-.126" style="clip-rule:evenodd;fill:none;fill-rule:nonzero;stroke:#0e3855;stroke-width:.0456425;stroke-linecap:butt;stroke-linejoin:miter;stroke-miterlimit:2.33333;"/>
  <path d="M10.547 7.743c1.086-.261 1.523-1.38 1.65-2.196" style="clip-rule:evenodd;fill:none;fill-rule:nonzero;stroke:#0e3855;stroke-width:.0456425;stroke-linecap:butt;stroke-linejoin:miter;stroke-miterlimit:2.33333;"/>
  <path fill="none" d="M16.985 15.05c.134-.048.34-.09.47-.075.129.015.709.096.922.19.214.093.371.05.447.112.076.063.146.222.069.312a.256.256 0 0 1-.32.054c-.105-.06-.037-.123-.216-.174-.18-.05-.53-.097-.761-.06-.218.037-.306.084-.53.166a3.824 3.824 0 0 0-.258.1" style="clip-rule:evenodd;fill:#668000;fill-opacity:0;fill-rule:nonzero;stroke:#fff;stroke-width:.0456425;stroke-linecap:butt;stroke-linejoin:miter;stroke-miterlimit:2.33333;"/>
</svg>
