<svg width="74" height="74" viewBox="0 0 74 74" fill="none" xmlns="http://www.w3.org/2000/svg">
<rect width="74" height="74" fill="white"/>
<g filter="url(#filter0_i_1228_7597)">
<path d="M38.8185 34.1603C39.6966 38.2512 40.1639 44.4747 40.4987 47.1082C40.834 49.7411 42.845 49.3072 43.5081 50.1582C44.1705 51.0098 43.6999 52.428 44.4833 52.7106C45.2661 52.9925 46.2343 51.2699 46.8484 51.2995C47.4625 51.3298 47.7142 51.81 48.1764 51.839C48.6386 51.8686 48.6598 51.1064 49.8366 51.5068C51.0126 51.9078 51.1047 56.6656 52.5962 56.4455C54.0871 56.2253 51.2186 50.4743 52.0149 49.1418C52.8112 47.8092 54.0002 48.9293 54.4431 48.2495C54.886 47.5698 53.7298 45.9811 54.277 45.2408C54.8242 44.5005 55.5361 44.7232 55.7498 43.9752C55.9636 43.2272 55.0121 42.6523 55.1692 41.941C55.3256 41.231 56.165 40.8435 56.2481 40.1772C56.3311 39.5122 55.2587 38.7365 55.0237 38.1443C54.7887 37.5521 54.9265 37.2341 54.6503 36.6921C54.3742 36.1494 53.0797 35.3531 53.4466 35.281C53.8135 35.2083 55.5046 36.0477 56.9948 35.675C58.4857 35.3023 59.3772 34.3534 61.2691 31.8577C63.1617 29.3607 64.9004 25.049 66.54 22.167C68.1789 19.2857 65.2738 17.7317 60.4394 18.0382C55.605 18.3446 49.8411 21.2806 46.3295 23.495C42.818 25.7094 41.9245 26.5231 39.0277 29.2306C39.2601 30.3404 39.0651 31.9201 38.2842 32.9475C38.2842 32.9475 38.7097 33.6543 38.8185 34.1603ZM35.1815 34.1603C34.3034 38.2512 33.8361 44.4747 33.5013 47.1082C33.166 49.7411 31.155 49.3072 30.4919 50.1582C29.8295 51.0098 30.3001 52.428 29.5167 52.7106C28.7339 52.9925 27.7657 51.2699 27.1516 51.2995C26.5375 51.3298 26.2858 51.81 25.8236 51.839C25.3614 51.8686 25.3402 51.1064 24.1634 51.5068C22.9873 51.9078 22.8953 56.6656 21.4038 56.4455C19.9129 56.2253 22.7814 50.4743 21.9851 49.1418C21.1888 47.8092 19.9998 48.9293 19.5569 48.2495C19.114 47.5698 20.2702 45.9811 19.723 45.2408C19.1758 44.5005 18.4639 44.7232 18.2502 43.9752C18.0364 43.2272 18.9879 42.6523 18.8308 41.941C18.6744 41.231 17.8343 40.8435 17.7519 40.1772C17.6689 39.5122 18.7413 38.7365 18.9763 38.1443C19.2112 37.5521 19.0735 37.2341 19.3496 36.6921C19.6258 36.1494 20.9203 35.3531 20.5534 35.281C20.1865 35.2083 18.4954 36.0477 17.0052 35.675C15.5143 35.3023 14.6228 34.3534 12.7308 31.8577C10.8383 29.3607 9.09958 25.049 7.46001 22.167C5.82108 19.2857 8.72622 17.7317 13.5606 18.0382C18.395 18.3446 24.1583 21.2806 27.6705 23.495C31.182 25.7094 32.0755 26.5231 34.9723 29.2306C34.7392 30.3404 34.9349 31.9201 35.7158 32.9475C35.7158 32.9475 35.2903 33.6543 35.1815 34.1603Z" fill="#2F99C6"/>
<path d="M32.1212 20.9459C31.9538 21.0688 32.0568 21.3694 32.1405 21.5091C32.2242 21.6488 32.3059 21.6791 32.4019 21.7505C32.5937 21.8941 32.7791 22.0209 32.8447 22.1735C33.0636 22.6595 33.3353 23.1358 33.5689 23.5414C33.8773 24.0557 34.1991 24.5443 34.5545 24.9492C34.9163 25.3309 35.28 25.6766 35.661 25.9553C35.9295 26.1356 36.205 26.189 36.4857 26.2367C36.458 26.3448 36.4309 26.4555 36.4252 26.5785C36.3672 26.4929 36.3209 26.4381 36.2443 26.4381C36.0492 26.4381 35.8818 26.7607 35.8818 27.1623C35.8818 27.2621 35.8818 27.3567 35.9018 27.4436C35.2671 28.0578 34.8358 29.1457 34.8358 30.4009C34.8358 31.7959 35.3527 32.9836 36.1033 33.5391C35.5632 34.6321 35.1982 36.6065 35.1982 38.8698C35.1982 42.315 36.5751 45.1114 37.0489 45.1062C37.5221 45.0985 38.9196 42.315 38.9196 38.8698C38.9196 36.5955 38.5591 34.6083 38.0145 33.5191C38.7529 32.9559 39.2614 31.7817 39.2614 30.4009C39.2614 29.1592 38.8533 28.0816 38.2353 27.4636C38.2559 27.3715 38.2759 27.2705 38.2759 27.1623C38.2759 26.7607 38.1085 26.4381 37.9134 26.4381C37.8233 26.4381 37.7551 26.5038 37.6927 26.6184C37.6874 26.4892 37.6671 26.3611 37.6321 26.2367C37.9283 26.18 38.1986 26.0809 38.4568 25.9553C38.8353 25.627 39.2556 25.2936 39.5633 24.9492C39.9187 24.5443 40.2611 24.0557 40.5688 23.5414C40.834 23.0805 41.0516 22.6202 41.2731 22.1735C41.3387 22.0215 41.5241 21.8941 41.7159 21.7505C41.8112 21.6797 41.864 21.6585 41.9973 21.5091C42.1305 21.3604 42.1704 21.0714 42.0172 20.9459C41.8646 20.821 41.6503 20.8384 41.4539 21.0263C41.2576 21.2149 41.1462 21.7685 41.0516 22.1129C40.836 22.5526 40.5965 22.9974 40.3886 23.4004C40.1118 23.8465 39.7899 24.3364 39.4423 24.7484C39.1159 25.1179 38.7799 25.3882 38.4368 25.6734C38.1368 25.9135 37.7673 26.0017 37.5111 25.9553C37.3933 25.7391 37.2362 25.5929 37.0483 25.5929C36.859 25.5929 36.6994 25.7352 36.5861 25.9553C35.9346 26.0088 35.1615 25.2041 34.6749 24.7484C34.3279 24.3364 34.0054 23.8465 33.7292 23.4004C33.4891 22.9562 33.2941 22.5526 33.0655 22.1129C32.9819 21.8651 32.9304 21.5832 32.8441 21.3482C32.8045 21.2305 32.7431 21.1213 32.6632 21.0263C32.4019 20.7585 32.2866 20.8229 32.1206 20.9459H32.1212Z" fill="#0E3855"/>
</g>
<defs>
<filter id="filter0_i_1228_7597" x="7" y="18" width="60" height="42.4529" filterUnits="userSpaceOnUse" color-interpolation-filters="sRGB">
<feFlood flood-opacity="0" result="BackgroundImageFix"/>
<feBlend mode="normal" in="SourceGraphic" in2="BackgroundImageFix" result="shape"/>
<feColorMatrix in="SourceAlpha" type="matrix" values="0 0 0 0 0 0 0 0 0 0 0 0 0 0 0 0 0 0 127 0" result="hardAlpha"/>
<feOffset dy="4"/>
<feGaussianBlur stdDeviation="7"/>
<feComposite in2="hardAlpha" operator="arithmetic" k2="-1" k3="1"/>
<feColorMatrix type="matrix" values="0 0 0 0 0 0 0 0 0 0 0 0 0 0 0 0 0 0 0.15 0"/>
<feBlend mode="normal" in2="shape" result="effect1_innerShadow_1228_7597"/>
</filter>
</defs>
</svg>
