<svg width="74" height="74" viewBox="0 0 74 74" fill="none" xmlns="http://www.w3.org/2000/svg">
<rect width="74" height="74" fill="white"/>
<g filter="url(#filter0_i_1228_7680)">
<path d="M30.4421 15.9397C29.1652 19.215 30.4292 25.9674 23.9311 22.0463C22.6792 25.5743 27.6858 31.2154 23.8156 30.8498C23.8156 30.8498 29.5972 37.7695 27.9375 38.5946C26.2787 39.4205 20.9058 32.3913 20.9058 32.3913C20.2462 37.0815 16.4338 32.8897 12.0058 31.0041C11.8937 35.946 13.4412 39.9662 14.5681 44.221L12.5256 44.1236C13.593 48.4516 16.9744 51.2993 20.3092 54.1806L16.6485 57.2439C21.3533 60.1278 28.604 63.1712 32.7535 59.3432C36.9048 55.5152 36.9583 60.9416 35.8176 64.93C34.9831 67.8458 36.2582 66.7664 36.9798 66.756C37.6885 66.7465 38.6645 67.9958 38.0713 64.93C37.2833 60.8571 36.9652 55.5152 41.1147 59.3432C45.266 63.1712 52.5159 60.1278 57.2207 57.2439L53.5608 54.1806C56.8948 51.2993 60.296 48.4516 61.3633 44.1236L59.3209 44.2201C60.4477 39.9662 61.9961 35.946 61.8832 31.0041C57.4552 32.8897 53.6237 37.0806 52.9633 32.3913C52.9633 32.3913 47.5912 39.4205 45.9316 38.5946C44.2728 37.7695 50.0544 30.8498 50.0544 30.8498C46.1833 31.2154 51.2097 25.5743 49.9579 22.0463C43.4598 25.9674 44.7047 19.215 43.427 15.9388C40.4241 19.2236 39.487 9.96237 36.9436 7C34.4003 9.96237 33.445 19.2245 30.443 15.9388L30.4421 15.9397Z" fill="#2F99C6"/>
<path d="M30.4421 15.9397C29.1652 19.215 30.4292 25.9674 23.9311 22.0463C22.6792 25.5743 27.6858 31.2154 23.8156 30.8498C23.8156 30.8498 29.5972 37.7695 27.9375 38.5946C26.2787 39.4205 20.9058 32.3913 20.9058 32.3913C20.2462 37.0815 16.4338 32.8897 12.0058 31.0041C11.8937 35.946 13.4412 39.9662 14.5681 44.221L12.5256 44.1236C13.593 48.4516 16.9744 51.2993 20.3092 54.1806L16.6485 57.2439C21.3533 60.1278 28.604 63.1712 32.7535 59.3432C36.9048 55.5152 36.9583 60.9416 35.8176 64.93C34.9831 67.8458 36.2582 66.7664 36.9798 66.756C37.6885 66.7465 38.6645 67.9958 38.0713 64.93C37.2833 60.8571 36.9652 55.5152 41.1147 59.3432C45.266 63.1712 52.5159 60.1278 57.2207 57.2439L53.5608 54.1806C56.8948 51.2993 60.296 48.4516 61.3633 44.1236L59.3209 44.2201C60.4477 39.9662 61.9961 35.946 61.8832 31.0041C57.4552 32.8897 53.6237 37.0806 52.9633 32.3913C52.9633 32.3913 47.5912 39.4205 45.9316 38.5946C44.2728 37.7695 50.0544 30.8498 50.0544 30.8498C46.1833 31.2154 51.2097 25.5743 49.9579 22.0463C43.4598 25.9674 44.7047 19.215 43.427 15.9388C40.4241 19.2236 39.487 9.96237 36.9436 7C34.4003 9.96237 33.445 19.2245 30.443 15.9388L30.4421 15.9397Z" stroke="#2F99C6"/>
</g>
<defs>
<filter id="filter0_i_1228_7680" x="12" y="7" width="49.889" height="64" filterUnits="userSpaceOnUse" color-interpolation-filters="sRGB">
<feFlood flood-opacity="0" result="BackgroundImageFix"/>
<feBlend mode="normal" in="SourceGraphic" in2="BackgroundImageFix" result="shape"/>
<feColorMatrix in="SourceAlpha" type="matrix" values="0 0 0 0 0 0 0 0 0 0 0 0 0 0 0 0 0 0 127 0" result="hardAlpha"/>
<feOffset dy="4"/>
<feGaussianBlur stdDeviation="7"/>
<feComposite in2="hardAlpha" operator="arithmetic" k2="-1" k3="1"/>
<feColorMatrix type="matrix" values="0 0 0 0 0 0 0 0 0 0 0 0 0 0 0 0 0 0 0.15 0"/>
<feBlend mode="normal" in2="shape" result="effect1_innerShadow_1228_7680"/>
</filter>
</defs>
</svg>
