<svg width="24" height="24" viewBox="0 0 24 24" fill="none" xmlns="http://www.w3.org/2000/svg">
<path d="M17.1739 15.0434L14.5652 12.4347L11.9565 15.0434V5.04345C11.9565 4.81283 12.0481 4.59165 12.2112 4.42858C12.3742 4.2655 12.5954 4.17389 12.826 4.17389H16.3043C16.5349 4.17389 16.7561 4.2655 16.9192 4.42858C17.0823 4.59165 17.1739 4.81283 17.1739 5.04345V15.0434Z" stroke="black" stroke-width="1" stroke-linecap="round" stroke-linejoin="round"/>
<path d="M17.1739 5.47826H18.913C19.1437 5.47826 19.3648 5.56988 19.5279 5.73295C19.691 5.89603 19.7826 6.11721 19.7826 6.34783V21.1304C19.7826 21.361 19.691 21.5822 19.5279 21.7453C19.3648 21.9084 19.1437 22 18.913 22H6.73913C6.27788 22 5.83553 21.8168 5.50938 21.4906C5.18323 21.1645 5 20.7221 5 20.2609V3.73914" stroke="black" stroke-width="1" stroke-linecap="round" stroke-linejoin="round"/>
<path d="M18.913 5.47826V2.86956C18.913 2.63894 18.8214 2.41776 18.6583 2.25469C18.4953 2.09161 18.2741 2 18.0435 2H6.73913C6.27788 2 5.83553 2.18323 5.50938 2.50938C5.18323 2.83553 5 3.27788 5 3.73913C5 4.20037 5.18323 4.64273 5.50938 4.96888C5.83553 5.29503 6.27788 5.47826 6.73913 5.47826H9.7826" stroke="black" stroke-width="1" stroke-linecap="round" stroke-linejoin="round"/>
</svg>
