<?xml version="1.0" encoding="UTF-8" ?>
<svg
    width="74"
    height="74"
    viewBox="0 0 74 74"><path  d="M26.0072 54.0144C35.4 54.0144 43.0144 46.4 43.0144 37.0072C43.0144 27.6144 35.4 20 26.0072 20C16.6144 20 9 27.6144 9 37.0072C9 46.4 16.6144 54.0144 26.0072 54.0144Z" fill="#161c29"/>
<path  d="M49.9928 54.0144C59.3856 54.0144 67 46.4 67 37.0072C67 27.6144 59.3856 20 49.9928 20C40.6 20 32.9856 27.6144 32.9856 37.0072C32.9856 46.4 40.6 54.0144 49.9928 54.0144Z" fill="#364c70"/><path d="M27.5 47C28.8807 47 30 45.8807 30 44.5C30 43.1193 28.8807 42 27.5 42C26.1193 42 25 43.1193 25 44.5C25 45.8807 26.1193 47 27.5 47Z" fill="#2c2e3a"/>
<path d="M17.5 39C18.8807 39 20 37.8807 20 36.5C20 35.1193 18.8807 34 17.5 34C16.1193 34 15 35.1193 15 36.5C15 37.8807 16.1193 39 17.5 39Z" fill="#2c2e3a"/>
<path d="M24.5 29C25.8807 29 27 27.8807 27 26.5C27 25.1193 25.8807 24 24.5 24C23.1193 24 22 25.1193 22 26.5C22 27.8807 23.1193 29 24.5 29Z" fill="#2c2e3a"/>
<path d="M50.5 29C51.8807 29 53 27.8807 53 26.5C53 25.1193 51.8807 24 50.5 24C49.1193 24 48 25.1193 48 26.5C48 27.8807 49.1193 29 50.5 29Z" fill="#2c2e3a"/>
<path d="M47.5 48C48.8807 48 50 46.8807 50 45.5C50 44.1193 48.8807 43 47.5 43C46.1193 43 45 44.1193 45 45.5C45 46.8807 46.1193 48 47.5 48Z" fill="#2c2e3a"/>
<path d="M43.5 39C44.8807 39 46 37.8807 46 36.5C46 35.1193 44.8807 34 43.5 34C42.1193 34 41 35.1193 41 36.5C41 37.8807 42.1193 39 43.5 39Z" fill="#2c2e3a"/>
<path d="M61.5 38C62.8807 38 64 36.8807 64 35.5C64 34.1193 62.8807 33 61.5 33C60.1193 33 59 34.1193 59 35.5C59 36.8807 60.1193 38 61.5 38Z" fill="#2c2e3a"/></svg>