<svg width="24" height="24" viewBox="0 0 24 24" fill="none" xmlns="http://www.w3.org/2000/svg">
<path d="M22.0005 8.24418C21.9994 8.04027 21.9488 7.83967 21.853 7.65967C21.7572 7.47966 21.6191 7.32564 21.4505 7.21085L15.6172 3.24418C15.4122 3.10409 15.1697 3.02915 14.9213 3.02915C14.673 3.02915 14.4305 3.10409 14.2255 3.24418L9.35051 6.83585C9.27787 6.88869 9.19035 6.91716 9.10051 6.91716C9.01068 6.91716 8.92316 6.88869 8.85051 6.83585L3.99218 3.24418C3.8036 3.10503 3.57971 3.0217 3.34604 3.0037C3.11238 2.98569 2.87835 3.03373 2.67068 3.14235C2.46301 3.25096 2.29006 3.41577 2.17156 3.61796C2.05306 3.82016 1.99379 4.05159 2.00051 4.28585V16.5775C2.0016 16.7814 2.05223 16.982 2.14804 17.162C2.24385 17.342 2.38197 17.4961 2.55051 17.6109L8.38385 21.5775C8.58886 21.7176 8.83138 21.7926 9.07968 21.7926C9.32798 21.7926 9.5705 21.7176 9.77551 21.5775L14.6338 18.0025C14.7065 17.9497 14.794 17.9212 14.8838 17.9212C14.9737 17.9212 15.0612 17.9497 15.1338 18.0025L20.0088 21.5775C20.2253 21.7326 20.4843 21.817 20.7505 21.8192C20.915 21.8203 21.078 21.7887 21.2302 21.7263C21.3823 21.6639 21.5206 21.5718 21.6369 21.4555C21.7532 21.3392 21.8452 21.201 21.9076 21.0488C21.97 20.8967 22.0016 20.7336 22.0005 20.5692V8.24418ZM9.91718 8.68585C9.91582 8.62093 9.93028 8.55666 9.95932 8.49859C9.98836 8.44051 10.0311 8.39038 10.0838 8.35252L13.7505 5.61085C13.7832 5.59098 13.8206 5.58047 13.8588 5.58047C13.8971 5.58047 13.9345 5.59098 13.9672 5.61085C13.9952 5.62313 14.0202 5.64145 14.0404 5.6645C14.0606 5.68754 14.0754 5.71475 14.0838 5.74418V16.1358C14.0852 16.2008 14.0707 16.265 14.0417 16.3231C14.0127 16.3812 13.9699 16.4313 13.9172 16.4692L10.2505 19.2109C10.2179 19.2307 10.1804 19.2412 10.1422 19.2412C10.104 19.2412 10.0665 19.2307 10.0338 19.2109C10.0058 19.1986 9.9808 19.1802 9.96063 19.1572C9.94047 19.1342 9.92563 19.107 9.91718 19.0775V8.68585ZM3.66718 5.51918C3.66631 5.47943 3.67683 5.44026 3.69751 5.4063C3.71818 5.37234 3.74814 5.345 3.78385 5.32752C3.81649 5.30765 3.85397 5.29714 3.89218 5.29714C3.9304 5.29714 3.96787 5.30765 4.00051 5.32752L8.08385 8.33585C8.13513 8.3751 8.17679 8.42552 8.20567 8.48327C8.23454 8.54103 8.24988 8.60461 8.25051 8.66918V19.0775C8.25062 19.115 8.24061 19.1518 8.22154 19.1841C8.20248 19.2163 8.17506 19.2429 8.14218 19.2609C8.10898 19.2791 8.07172 19.2886 8.03385 19.2886C7.99597 19.2886 7.95871 19.2791 7.92551 19.2609L3.85051 16.4692C3.79403 16.4319 3.74771 16.3811 3.71571 16.3215C3.6837 16.2619 3.66703 16.1952 3.66718 16.1275V5.51918ZM20.3338 19.3025C20.3347 19.3423 20.3242 19.3814 20.3035 19.4154C20.2829 19.4494 20.2529 19.4767 20.2172 19.4942C20.1845 19.5141 20.1471 19.5246 20.1088 19.5246C20.0706 19.5246 20.0332 19.5141 20.0005 19.4942L15.9172 16.5109C15.8659 16.4716 15.8242 16.4212 15.7954 16.3634C15.7665 16.3057 15.7511 16.2421 15.7505 16.1775V5.74418C15.7504 5.70671 15.7604 5.6699 15.7795 5.63763C15.7986 5.60536 15.826 5.57884 15.8588 5.56085C15.892 5.54261 15.9293 5.53305 15.9672 5.53305C16.0051 5.53305 16.0423 5.54261 16.0755 5.56085L20.1505 8.33585C20.207 8.37315 20.2533 8.42389 20.2853 8.48353C20.3173 8.54317 20.334 8.60983 20.3338 8.67752V19.3025Z" fill="black"/>
</svg>
