<svg width="74" height="74" viewBox="0 0 74 74" fill="none" xmlns="http://www.w3.org/2000/svg">
<rect width="74" height="74" fill="white"/>
<g filter="url(#filter0_i_1228_7568)">
<path d="M23.6746 61.6555C18.6143 59.4418 9.06643 53.876 10.0738 39.4103C11.0812 24.9428 16.7671 21.6122 21.0387 19.6925C25.3112 17.7744 31.3198 18.8921 36.2214 19.1663C41.124 19.4397 47.8352 16.6227 53.4073 20.6425C58.9803 24.6622 63.8129 32.5467 63.6346 42.0453C63.4571 51.5439 55.1738 59.1998 49.6116 61.9728C44.0503 64.7459 39.0285 61.8007 36.6427 61.7093C34.2586 61.617 28.7358 63.8702 23.6746 61.6555Z" fill="#267A9E"/>
<path d="M35.136 19.8986C35.3574 19.852 35.2346 11.4953 34.7883 9.72961C34.3428 7.96397 34.2371 7.32762 35.8432 7.04082C37.4493 6.75402 39.5026 7.90751 39.2248 12.7733C39.0682 15.4611 38.9371 18.1503 38.8313 20.8406C37.2772 20.3441 37.2655 20.3683 35.136 19.8995V19.8986ZM33.158 62.1915C33.3964 62.0714 32.7555 64.3202 32.9339 64.3533C33.1239 64.3892 34.3939 63.0331 34.8725 63.2724C34.8725 63.2724 34.9102 65.4719 35.0589 65.4342C35.2077 65.3966 35.9534 63.4212 36.4383 63.6453C37.7244 65.4871 38.7775 66.7105 39.8674 67C39.4193 66.9256 37.2584 62.9372 37.2584 62.9372C37.2584 62.9372 40.9483 64.391 40.7628 64.391C40.5754 64.391 37.6312 61.8187 37.6312 61.8187C36.1398 60.7898 34.6485 61.2451 33.158 62.1915Z" fill="#0E3753" stroke="#0E3652" stroke-width="0.471"/>
<path d="M34.5 19C35 20 33.5415 21.4752 43.767 20.8299" stroke="#0E3753" stroke-linecap="round"/>
</g>
<defs>
<filter id="filter0_i_1228_7568" x="10" y="6.76459" width="53.6394" height="64.4677" filterUnits="userSpaceOnUse" color-interpolation-filters="sRGB">
<feFlood flood-opacity="0" result="BackgroundImageFix"/>
<feBlend mode="normal" in="SourceGraphic" in2="BackgroundImageFix" result="shape"/>
<feColorMatrix in="SourceAlpha" type="matrix" values="0 0 0 0 0 0 0 0 0 0 0 0 0 0 0 0 0 0 127 0" result="hardAlpha"/>
<feOffset dy="4"/>
<feGaussianBlur stdDeviation="7"/>
<feComposite in2="hardAlpha" operator="arithmetic" k2="-1" k3="1"/>
<feColorMatrix type="matrix" values="0 0 0 0 0 0 0 0 0 0 0 0 0 0 0 0 0 0 0.15 0"/>
<feBlend mode="normal" in2="shape" result="effect1_innerShadow_1228_7568"/>
</filter>
</defs>
</svg>
