<svg width="28" height="28" viewBox="0 0 28 28" fill="none" xmlns="http://www.w3.org/2000/svg">
<path d="M14 21.5833V27.4166" stroke="black" stroke-width="1.15" stroke-linecap="round" stroke-linejoin="round"/>
<path d="M14 0.583313C12.7623 0.583313 11.5753 1.07498 10.7002 1.95015C9.825 2.82532 9.33334 4.0123 9.33334 5.24998V13.4166C9.33334 14.6543 9.825 15.8413 10.7002 16.7165C11.5753 17.5916 12.7623 18.0833 14 18.0833C15.2377 18.0833 16.4247 17.5916 17.2998 16.7165C18.175 15.8413 18.6667 14.6543 18.6667 13.4166V5.24998C18.6667 4.0123 18.175 2.82532 17.2998 1.95015C16.4247 1.07498 15.2377 0.583313 14 0.583313V0.583313Z" stroke="black" stroke-width="1.15" stroke-linecap="round" stroke-linejoin="round"/>
<path d="M22.1667 9.91663V13.4166C22.1667 15.5826 21.3063 17.6598 19.7747 19.1913C18.2432 20.7229 16.1659 21.5833 14 21.5833C11.8341 21.5833 9.75684 20.7229 8.2253 19.1913C6.69375 17.6598 5.83334 15.5826 5.83334 13.4166V9.91663" stroke="black" stroke-width="1.15" stroke-linecap="round" stroke-linejoin="round"/>
</svg>
