<svg width="25" height="25" viewBox="0 0 25 25" fill="none" xmlns="http://www.w3.org/2000/svg">
<path fill-rule="evenodd" clip-rule="evenodd" d="M15.022 1.67859C15.4362 1.67859 15.772 2.01438 15.772 2.42859C15.772 2.8428 15.4362 3.17859 15.022 3.17859C13.8311 3.17859 12.8564 4.10375 12.7772 5.27454L12.772 5.42859V6.30662C13.0925 6.4199 13.3797 6.60375 13.6149 6.83949L17.1927 5.46359C19.0747 4.73967 21.2072 5.21086 22.609 6.66036C24.0107 8.10987 24.4103 10.2569 23.6237 12.1136C23.0187 13.5419 21.802 14.5855 20.3547 14.9918L20.149 15.0436L20.2812 15.1694C21.1724 16.0606 21.6989 17.2482 21.7649 18.5004L21.772 18.7696V18.9286C21.772 21.4139 19.7573 23.4286 17.272 23.4286C15.6901 23.4286 14.2989 22.6124 13.4965 21.3781C13.1016 21.721 12.586 21.9286 12.022 21.9286C11.458 21.9286 10.9424 21.721 10.5475 21.3781C9.74508 22.6124 8.35385 23.4286 6.772 23.4286C4.35772 23.4286 2.38751 21.5274 2.27689 19.1404L2.272 18.9286V18.7698C2.2717 17.5094 2.73885 16.2972 3.57747 15.3648L3.76282 15.1694L3.894 15.0446L3.6922 14.9927C2.3169 14.6075 1.14931 13.6468 0.516578 12.3271L0.421166 12.1158C-0.366391 10.259 0.0324869 8.11134 1.43421 6.66121C2.77986 5.26907 4.79939 4.7788 6.62417 5.38241L6.8512 5.46357L10.4291 6.83949C10.6643 6.60375 10.9515 6.4199 11.272 6.30662V5.42859C11.272 4.18595 10.2646 3.17859 9.022 3.17859C8.60778 3.17859 8.272 2.8428 8.272 2.42859C8.272 2.01438 8.60778 1.67859 9.022 1.67859C10.2487 1.67859 11.3378 2.2676 12.022 3.17823C12.7062 2.2676 13.7953 1.67859 15.022 1.67859ZM12.022 7.67859C11.7352 7.67859 11.4859 7.83961 11.3598 8.0762C11.3564 8.08297 11.353 8.08967 11.3494 8.09629C11.2999 8.19645 11.272 8.30927 11.272 8.42859V18.9286V19.6786C11.272 20.0928 11.6078 20.4286 12.022 20.4286C12.4362 20.4286 12.772 20.0928 12.772 19.6786V18.9286V8.42859C12.772 8.30928 12.7441 8.19647 12.6946 8.09632C12.691 8.08968 12.6876 8.08296 12.6842 8.07617C12.558 7.8396 12.3088 7.67859 12.022 7.67859ZM9.78363 8.19835L6.31274 6.86359C4.99225 6.35566 3.49601 6.68645 2.51272 7.70371C1.52942 8.72097 1.24961 10.2276 1.80208 11.5301C2.32824 12.7705 3.51218 13.5969 4.84588 13.6729L5.047 13.6786H7.363C8.32133 13.6786 8.3611 15.0564 7.48261 15.171L7.363 15.1786C6.41041 15.1784 5.49694 15.5566 4.82348 16.2301C4.20183 16.8517 3.83171 17.6779 3.77863 18.5505L3.772 18.7696V18.9286C3.772 20.5854 5.11514 21.9286 6.772 21.9286C8.42885 21.9286 9.772 20.5854 9.772 18.9286V8.42859C9.772 8.35086 9.77594 8.27405 9.78363 8.19835ZM16.681 15.1786C15.7227 15.1786 15.6826 13.8012 16.561 13.6862L16.681 13.6786L18.9994 13.6786C20.4139 13.6775 21.6908 12.831 22.2426 11.5285C22.7943 10.2261 22.514 8.71993 21.5307 7.70312C20.5965 6.73714 19.1998 6.39053 17.9305 6.7937L17.7312 6.86361L14.2604 8.19835C14.2681 8.27405 14.272 8.35086 14.272 8.42859V18.9286C14.272 20.5854 15.6151 21.9286 17.272 21.9286C18.8697 21.9286 20.1757 20.6797 20.2669 19.1049L20.272 18.9286V18.7694C20.2722 17.817 19.894 16.9035 19.2205 16.2301C18.5989 15.6084 17.7727 15.2383 16.9002 15.1852L16.681 15.1786Z" fill="black"/>
<mask id="mask0_1038_6772" style="mask-type:luminance" maskUnits="userSpaceOnUse" x="0" y="1" width="25" height="23">
<path fill-rule="evenodd" clip-rule="evenodd" d="M15.022 1.67859C15.4362 1.67859 15.772 2.01438 15.772 2.42859C15.772 2.8428 15.4362 3.17859 15.022 3.17859C13.8311 3.17859 12.8564 4.10375 12.7772 5.27454L12.772 5.42859V6.30662C13.0925 6.4199 13.3797 6.60375 13.6149 6.83949L17.1927 5.46359C19.0747 4.73967 21.2072 5.21086 22.609 6.66036C24.0107 8.10987 24.4103 10.2569 23.6237 12.1136C23.0187 13.5419 21.802 14.5855 20.3547 14.9918L20.149 15.0436L20.2812 15.1694C21.1724 16.0606 21.6989 17.2482 21.7649 18.5004L21.772 18.7696V18.9286C21.772 21.4139 19.7573 23.4286 17.272 23.4286C15.6901 23.4286 14.2989 22.6124 13.4965 21.3781C13.1016 21.721 12.586 21.9286 12.022 21.9286C11.458 21.9286 10.9424 21.721 10.5475 21.3781C9.74508 22.6124 8.35385 23.4286 6.772 23.4286C4.35772 23.4286 2.38751 21.5274 2.27689 19.1404L2.272 18.9286V18.7698C2.2717 17.5094 2.73885 16.2972 3.57747 15.3648L3.76282 15.1694L3.894 15.0446L3.6922 14.9927C2.3169 14.6075 1.14931 13.6468 0.516578 12.3271L0.421166 12.1158C-0.366391 10.259 0.0324869 8.11134 1.43421 6.66121C2.77986 5.26907 4.79939 4.7788 6.62417 5.38241L6.8512 5.46357L10.4291 6.83949C10.6643 6.60375 10.9515 6.4199 11.272 6.30662V5.42859C11.272 4.18595 10.2646 3.17859 9.022 3.17859C8.60778 3.17859 8.272 2.8428 8.272 2.42859C8.272 2.01438 8.60778 1.67859 9.022 1.67859C10.2487 1.67859 11.3378 2.2676 12.022 3.17823C12.7062 2.2676 13.7953 1.67859 15.022 1.67859ZM12.022 7.67859C11.7352 7.67859 11.4859 7.83961 11.3598 8.0762C11.3564 8.08297 11.353 8.08967 11.3494 8.09629C11.2999 8.19645 11.272 8.30927 11.272 8.42859V18.9286V19.6786C11.272 20.0928 11.6078 20.4286 12.022 20.4286C12.4362 20.4286 12.772 20.0928 12.772 19.6786V18.9286V8.42859C12.772 8.30928 12.7441 8.19647 12.6946 8.09632C12.691 8.08968 12.6876 8.08296 12.6842 8.07617C12.558 7.8396 12.3088 7.67859 12.022 7.67859ZM9.78363 8.19835L6.31274 6.86359C4.99225 6.35566 3.49601 6.68645 2.51272 7.70371C1.52942 8.72097 1.24961 10.2276 1.80208 11.5301C2.32824 12.7705 3.51218 13.5969 4.84588 13.6729L5.047 13.6786H7.363C8.32133 13.6786 8.3611 15.0564 7.48261 15.171L7.363 15.1786C6.41041 15.1784 5.49694 15.5566 4.82348 16.2301C4.20183 16.8517 3.83171 17.6779 3.77863 18.5505L3.772 18.7696V18.9286C3.772 20.5854 5.11514 21.9286 6.772 21.9286C8.42885 21.9286 9.772 20.5854 9.772 18.9286V8.42859C9.772 8.35086 9.77594 8.27405 9.78363 8.19835ZM16.681 15.1786C15.7227 15.1786 15.6826 13.8012 16.561 13.6862L16.681 13.6786L18.9994 13.6786C20.4139 13.6775 21.6908 12.831 22.2426 11.5285C22.7943 10.2261 22.514 8.71993 21.5307 7.70312C20.5965 6.73714 19.1998 6.39053 17.9305 6.7937L17.7312 6.86361L14.2604 8.19835C14.2681 8.27405 14.272 8.35086 14.272 8.42859V18.9286C14.272 20.5854 15.6151 21.9286 17.272 21.9286C18.8697 21.9286 20.1757 20.6797 20.2669 19.1049L20.272 18.9286V18.7694C20.2722 17.817 19.894 16.9035 19.2205 16.2301C18.5989 15.6084 17.7727 15.2383 16.9002 15.1852L16.681 15.1786Z" fill="white"/>
</mask>
<g mask="url(#mask0_1038_6772)">
<rect y="0.428589" width="24" height="24" fill="black"/>
</g>
</svg>
