<svg width="74" height="74" viewBox="0 0 74 74" fill="none" xmlns="http://www.w3.org/2000/svg">
<g clip-path="url(#clip0_1228_7603)">
<rect width="74" height="74" fill="white"/>
<g filter="url(#filter0_i_1228_7603)">
<path d="M46.6244 45.2844C46.3953 45.2836 46.253 45.3422 46.0545 45.3728C46.0062 45.4773 45.8752 45.4532 45.8262 45.4749C45.8101 45.4669 45.8422 45.5336 45.8519 45.589C45.6855 45.6115 45.618 45.8117 45.4339 45.8543C45.3985 46.0601 45.2369 46.2281 45.0673 46.3865C45.0625 46.5215 44.9226 46.6116 44.8639 46.7024C44.0544 47.0376 42.9025 48.016 42.1163 48.6526C41.6114 49.0208 40.7376 49.4967 41.0013 49.6663C40.7794 49.8134 40.7079 49.9959 40.5961 50.1221C40.0575 50.3199 39.445 50.6181 38.9506 50.8183L37.748 51.1985C37.4787 51.2709 36.8099 51.5297 37.0518 51.5152C37.2383 51.4324 37.6933 51.4951 37.6081 51.6559C37.8075 51.5868 38.2617 51.4525 38.2408 51.6053C38.3083 51.7106 39.0109 51.393 39.3927 51.2885C39.441 51.2628 39.4611 51.307 39.4683 51.3649C39.5109 51.4533 39.6572 51.3794 39.7593 51.3649C39.9788 51.3006 40.1283 51.3167 40.2529 51.3649C40.6428 51.4389 41.019 51.5297 41.3783 51.6688C40.9659 51.9558 41.3244 52.0675 41.5568 52.0104L42.265 51.8464C42.2007 52.0064 42.5222 51.8794 42.4547 52.0997C42.5472 52.3006 42.9097 52.0378 42.8599 52.2773C43.1605 52.4686 43.3816 52.3151 43.72 52.2524C43.8068 52.5008 43.892 52.3135 44.1131 52.3923C44.1388 52.3537 44.4049 52.6037 44.3414 52.6069L44.1131 52.5563C43.9105 52.463 43.6332 52.4815 43.4805 52.5305C43.3567 52.5884 43.2988 52.5956 43.2393 52.7966C43.4234 52.6704 43.6428 52.6905 43.671 52.6825C43.6895 52.7315 43.7112 52.7604 43.7473 52.7717C43.9033 52.791 44.0689 52.7637 44.3173 52.7974L44.3044 52.9622C44.4089 52.8103 44.6726 52.7219 44.7353 52.7854C44.7305 53.0064 44.7819 52.9365 45.0006 52.8987C45.2498 52.9212 45.4974 52.9341 45.7345 52.8858C45.9435 53.0032 46.2064 52.9405 46.4564 52.9365L46.8616 52.9116C46.9476 52.9164 47.0465 52.9469 47.0641 53C47.0561 52.8449 47.11 52.9196 47.2032 52.9622C47.1695 52.7661 47.3383 52.9678 47.4058 52.9703C47.4042 52.6584 47.0465 52.7259 46.8487 52.705C46.7054 52.719 46.5611 52.719 46.4178 52.705C46.241 52.6905 45.9966 52.6527 45.8358 52.5522C45.8165 52.5161 45.6316 52.4493 45.5448 52.3891C45.6381 52.2781 45.8439 52.0426 45.9371 52.1993C46.1718 51.9903 46.3061 51.9067 46.4556 51.7942C46.4106 52.0281 46.6091 51.7669 46.671 51.7564C46.7948 51.6133 46.9846 51.5442 47.0633 51.3512C47.1421 51.1583 47.5143 50.8778 47.6084 50.9469C47.6349 50.8794 47.8817 50.4187 47.8109 50.8713C47.8527 50.7765 48.0312 50.3673 48.0891 50.7323C48.118 50.5827 48.2611 50.1237 48.2659 50.467C48.3214 50.3673 48.3351 50.2491 48.4307 50.1888C48.5698 50.1808 48.6912 49.5305 48.684 49.3785C48.8311 49.0698 48.7049 48.6832 48.6711 48.3914C48.6229 48.1639 48.4983 47.9147 48.532 47.8343C48.5963 47.6429 48.5063 47.4894 48.4942 47.3278C48.6237 47.3704 48.569 47.2635 48.5328 47.1751C48.7438 47.1809 48.9528 47.1333 49.1406 47.0368C49.2234 47.0039 49.323 46.9773 49.4058 46.9725C49.2547 46.6904 48.8447 46.4998 48.5071 46.2892C48.4711 46.2015 48.4149 46.1236 48.3431 46.0617C48.1502 45.7964 47.9958 45.6333 47.7097 45.4668C47.4243 45.3004 46.9524 45.3037 46.6212 45.29L46.6244 45.2844ZM45.1131 52.586C44.8993 52.7034 44.7281 52.4638 44.7377 52.3746C44.9114 52.2403 45.2136 52.4469 45.1123 52.586H45.1131Z" fill="#12466A"/>
<path fill-rule="evenodd" clip-rule="evenodd" d="M78.1679 52.8617C78.3006 52.8296 78.4332 52.8625 78.5618 52.8698C78.5682 52.8625 78.4428 52.7468 78.3737 52.6945C78.1406 52.5273 77.9348 52.4847 77.692 52.5458C77.643 52.5611 77.6277 52.553 77.5819 52.4863C77.5015 52.3714 77.4517 52.3497 77.241 52.3376C76.7123 52.3015 76.1825 52.2814 75.6526 52.2773C75.319 51.8995 75.0674 51.4606 74.79 51.0313C74.6389 50.6406 74.6188 50.1969 74.6083 49.8102C74.6469 49.6173 74.7667 49.4517 74.9243 49.4356C75.1172 49.4396 75.1928 49.4332 75.4548 49.3906C76.786 49.1864 78.1711 48.9091 79.1929 48.0184C79.6535 47.577 80.1125 46.8712 80.1784 46.2563L80.4043 44.0544C80.5072 43.5118 80.6117 42.9692 80.7267 42.4306C80.7749 42.2779 80.7958 42.1251 80.8038 41.8695C80.8136 41.5551 80.7855 41.2407 80.7202 40.933C80.6286 40.5873 80.5402 40.1862 80.6414 39.9474C80.7677 39.7151 81.0812 39.5704 81.3135 39.4498C81.6495 39.3324 81.9381 39.3413 82.2267 39.4804C82.4092 39.6042 82.6158 39.691 82.8184 39.7593C82.8746 39.7738 82.902 39.7923 82.902 39.8164C82.902 39.8357 82.9301 39.814 82.9389 39.7882C82.959 39.732 82.9438 39.5768 82.9068 39.4378C82.8682 39.2939 82.8746 39.3027 82.6817 39.1017L82.5072 38.9193C82.4011 38.6877 82.2307 38.4088 82.0539 38.3734C81.9904 38.2074 81.9196 38.0444 81.8416 37.8847C81.7323 37.58 81.5362 37.2721 81.295 37.1708C80.6712 36.9819 79.8882 36.9216 79.5152 37.1354C79.1985 37.3131 79.0168 37.4956 78.7869 37.74C78.6301 37.8935 78.4895 38.1612 78.3383 38.5897C78.1189 39.2665 78.0369 39.658 77.8222 40.3421C77.7245 40.5816 77.5788 40.7985 77.3941 40.9796C77.2094 41.1607 76.9896 41.3022 76.7483 41.3952C76.2442 41.6074 75.774 41.8229 75.3069 42.093C75.1783 42.2087 74.4564 42.4837 74.2779 42.4837C73.4719 42.6017 72.6766 42.7834 71.8993 43.0271C71.5544 43.1243 71.0954 43.3752 71.0415 43.474C70.9836 43.589 70.8406 43.7771 70.7843 43.8125C70.3237 44.1935 69.7971 44.5199 69.3904 44.7667C69.3936 44.8149 69.3984 44.8631 69.4008 44.9114C68.613 45.5295 67.7995 46.2112 66.961 46.6445C66.695 46.7844 66.5165 47.0006 66.3131 47.2241C66.3211 47.2579 66.3211 47.286 66.3252 47.3206L65.969 47.6229C65.7802 47.6536 65.6006 47.7261 65.4433 47.8351C64.7801 48.0224 64.104 48.2065 63.5301 48.3423C63.3251 48.3849 63.1683 48.491 62.965 48.5682C62.8066 48.6317 62.637 48.7531 62.5526 48.9034C62.4714 49.0168 62.5027 49.1261 62.563 49.143C62.7616 49.1985 62.8564 49.1968 63.1064 49.2282C63.0003 49.3005 62.8854 49.4452 62.9215 49.5489C62.9505 49.6261 62.9891 49.6478 63.0687 49.6671C63.2053 49.6591 63.358 49.6735 63.4843 49.6768C63.0855 49.9943 62.4762 50.4726 62.0775 50.7901C62.0437 50.8255 62.0429 50.8279 62.0485 50.8593C62.0606 50.922 62.1209 50.9606 62.2294 50.975C62.3387 50.9847 62.3669 50.9501 62.4762 50.93C62.4738 50.9573 62.4649 50.9807 62.4585 51.008C62.719 50.971 63.0027 50.9517 63.272 50.9292C63.7769 50.6687 64.1306 50.4694 64.674 50.1703L65.3042 49.8938C65.5534 49.8327 65.8252 49.7789 66.0398 49.7346C66.6612 49.7266 67.2882 49.7234 67.9024 49.7266C69.0198 49.7443 70.0118 49.6543 71.0544 49.5055C71.2497 49.643 71.6862 49.5731 72.0898 49.6277C72.0978 49.6462 72.0432 49.692 71.937 49.758C71.8245 49.8142 72.3012 49.6462 72.4033 49.6116C72.1999 50.0747 72.3285 50.4163 72.4612 50.7081C72.4829 50.754 72.5303 50.8408 72.5657 50.9011C72.6027 50.9606 72.6316 51.0136 72.6316 51.0184C73.0279 51.4469 73.2683 51.8754 73.5528 52.3698C73.3519 52.4349 73.122 52.4855 72.9073 52.5434C72.8133 52.5731 72.7658 52.6318 72.7152 52.7387C72.9113 52.8489 73.1011 52.8513 73.3607 52.8513C73.4636 52.832 73.5681 52.8199 73.671 52.8047C73.7273 52.8207 73.7643 52.8489 73.8181 52.8738L74.1919 52.7886C74.2377 52.8167 74.2321 52.8706 74.2514 52.9092C74.3559 52.9027 74.4419 52.7725 74.5842 52.7846C75.7603 52.836 76.9267 52.8802 78.024 52.9823C78.0859 52.9477 78.1301 52.8955 78.1751 52.8593L78.1679 52.8617ZM74.1968 52.254C74.1791 52.2009 74.1726 52.1921 74.1164 52.139C73.9773 51.9871 73.9154 51.8593 73.7964 51.6656C73.6035 51.3858 73.4789 51.0474 73.3824 50.7588C73.4459 50.6969 73.4226 50.6093 73.4387 50.5506C73.4363 50.3898 73.4009 50.2242 73.3856 50.094C73.4853 50.1157 73.4242 49.893 73.4524 49.8874C73.5086 49.8689 73.5006 50.0723 73.5118 50.1205C73.5472 50.1904 73.5102 50.2869 73.5102 50.3319C73.458 50.4107 73.5022 50.4903 73.4974 50.5659C73.5376 50.5578 73.5802 50.59 73.6059 50.5964C73.6951 50.7218 73.7353 50.8295 73.7948 50.9589C73.7305 50.9782 73.6839 51.0152 73.626 51.0434C73.7707 51.127 73.8832 51.1077 74.0094 51.1398C74.0713 51.135 74.0713 51.135 74.1043 51.1599C74.1509 51.2291 74.1831 51.3143 74.2522 51.3368C74.4709 51.5281 74.5513 51.6921 74.7008 51.9357C74.7956 52.0884 74.8535 52.2894 74.7249 52.3481C74.5545 52.3963 74.4982 52.3802 74.3077 52.381C74.2442 52.3553 74.2168 52.2773 74.1935 52.2508L74.1968 52.254Z" fill="#2F99C6"/>
</g>
</g>
<defs>
<filter id="filter0_i_1228_7603" x="37" y="37" width="45.9478" height="20" filterUnits="userSpaceOnUse" color-interpolation-filters="sRGB">
<feFlood flood-opacity="0" result="BackgroundImageFix"/>
<feBlend mode="normal" in="SourceGraphic" in2="BackgroundImageFix" result="shape"/>
<feColorMatrix in="SourceAlpha" type="matrix" values="0 0 0 0 0 0 0 0 0 0 0 0 0 0 0 0 0 0 127 0" result="hardAlpha"/>
<feOffset dy="4"/>
<feGaussianBlur stdDeviation="7"/>
<feComposite in2="hardAlpha" operator="arithmetic" k2="-1" k3="1"/>
<feColorMatrix type="matrix" values="0 0 0 0 0 0 0 0 0 0 0 0 0 0 0 0 0 0 0.15 0"/>
<feBlend mode="normal" in2="shape" result="effect1_innerShadow_1228_7603"/>
</filter>
<clipPath id="clip0_1228_7603">
<rect width="74" height="74" fill="white"/>
</clipPath>
</defs>
</svg>
