<svg width="24" height="24" viewBox="0 0 24 24" fill="none" xmlns="http://www.w3.org/2000/svg">
<g clip-path="url(#clip0_1228_6420)">
<path d="M24.0002 12.0002C24.0034 11.1922 23.8025 10.3964 23.4161 9.68668C23.0298 8.97695 22.4706 8.37624 21.7902 7.94023C21.9607 7.15221 21.9307 6.33403 21.7031 5.56058C21.4755 4.78714 21.0575 4.08314 20.4874 3.51305C19.9173 2.94295 19.2133 2.52496 18.4399 2.29736C17.6664 2.06975 16.8482 2.03979 16.0602 2.21023C15.6226 1.53115 15.0217 0.972683 14.3124 0.585952C13.6031 0.199222 12.8081 -0.00341797 12.0002 -0.00341797C11.1924 -0.00341797 10.3974 0.199222 9.6881 0.585952C8.9788 0.972683 8.37784 1.53115 7.94023 2.21023C7.15221 2.03979 6.33403 2.06975 5.56058 2.29736C4.78714 2.52496 4.08314 2.94295 3.51305 3.51305C2.94295 4.08314 2.52496 4.78714 2.29736 5.56058C2.06975 6.33403 2.03979 7.15221 2.21023 7.94023C1.53115 8.37784 0.972683 8.9788 0.585952 9.6881C0.199222 10.3974 -0.00341797 11.1924 -0.00341797 12.0002C-0.00341797 12.8081 0.199222 13.6031 0.585952 14.3124C0.972683 15.0217 1.53115 15.6226 2.21023 16.0602C2.03979 16.8482 2.06975 17.6664 2.29736 18.4399C2.52496 19.2133 2.94295 19.9173 3.51305 20.4874C4.08314 21.0575 4.78714 21.4755 5.56058 21.7031C6.33403 21.9307 7.15221 21.9607 7.94023 21.7902C8.37784 22.4693 8.9788 23.0278 9.6881 23.4145C10.3974 23.8012 11.1924 24.0039 12.0002 24.0039C12.8081 24.0039 13.6031 23.8012 14.3124 23.4145C15.0217 23.0278 15.6226 22.4693 16.0602 21.7902C16.8482 21.9607 17.6664 21.9307 18.4399 21.7031C19.2133 21.4755 19.9173 21.0575 20.4874 20.4874C21.0575 19.9173 21.4755 19.2133 21.7031 18.4399C21.9307 17.6664 21.9607 16.8482 21.7902 16.0602C22.4706 15.6242 23.0298 15.0235 23.4161 14.3138C23.8025 13.6041 24.0034 12.8083 24.0002 12.0002ZM13.0002 13.3702V14.0002C13.0002 14.2654 12.8949 14.5198 12.7073 14.7073C12.5198 14.8949 12.2654 15.0002 12.0002 15.0002C11.735 15.0002 11.4807 14.8949 11.2931 14.7073C11.1056 14.5198 11.0002 14.2654 11.0002 14.0002V12.5002C11.0002 12.235 11.1056 11.9807 11.2931 11.7931C11.4807 11.6056 11.735 11.5002 12.0002 11.5002C12.3958 11.5002 12.7825 11.3829 13.1114 11.1632C13.4403 10.9434 13.6966 10.631 13.848 10.2656C13.9994 9.90014 14.039 9.49801 13.9618 9.11005C13.8846 8.72209 13.6941 8.36572 13.4144 8.08602C13.1347 7.80631 12.7784 7.61583 12.3904 7.53866C12.0024 7.46149 11.6003 7.5011 11.2349 7.65247C10.8694 7.80385 10.5571 8.06019 10.3373 8.38909C10.1175 8.71799 10.0002 9.10467 10.0002 9.50023C10.0002 9.76545 9.89487 10.0198 9.70734 10.2073C9.5198 10.3949 9.26545 10.5002 9.00023 10.5002C8.73501 10.5002 8.48066 10.3949 8.29312 10.2073C8.10559 10.0198 8.00023 9.76545 8.00023 9.50023C7.99967 8.75197 8.20901 8.01855 8.60445 7.38332C8.99989 6.74809 9.56559 6.23651 10.2372 5.90672C10.9089 5.57692 11.6596 5.44214 12.4041 5.51768C13.1485 5.59322 13.8568 5.87606 14.4485 6.33406C15.0403 6.79205 15.4917 7.40684 15.7514 8.10856C16.0112 8.81028 16.0689 9.57079 15.9181 10.3037C15.7672 11.0366 15.4138 11.7125 14.898 12.2546C14.3822 12.7966 13.7247 13.1832 13.0002 13.3702ZM12.0002 19.2502C11.7036 19.2502 11.4135 19.1623 11.1669 18.9974C10.9202 18.8326 10.7279 18.5983 10.6144 18.3243C10.5009 18.0502 10.4712 17.7486 10.5291 17.4576C10.5869 17.1666 10.7298 16.8993 10.9396 16.6896C11.1493 16.4798 11.4166 16.3369 11.7076 16.2791C11.9986 16.2212 12.3002 16.2509 12.5743 16.3644C12.8483 16.4779 13.0826 16.6702 13.2474 16.9169C13.4123 17.1635 13.5002 17.4536 13.5002 17.7502C13.5002 18.1481 13.3422 18.5296 13.0609 18.8109C12.7796 19.0922 12.3981 19.2502 12.0002 19.2502Z" fill="white"/>
</g>
<defs>
<clipPath id="clip0_1228_6420">
<rect width="24" height="24" fill="white"/>
</clipPath>
</defs>
</svg>
