<svg width="48" height="48" viewBox="0 0 48 48" fill="none" xmlns="http://www.w3.org/2000/svg">
<path d="M35 30.9999L29 24.9999L23 30.9999V7.99994C23 7.4695 23.2107 6.9608 23.5858 6.58572C23.9608 6.21065 24.4695 5.99994 25 5.99994H33C33.5304 5.99994 34.0391 6.21065 34.4142 6.58572C34.7892 6.9608 35 7.4695 35 7.99994V30.9999Z" stroke="black" stroke-width="2" stroke-linecap="round" stroke-linejoin="round"/>
<path d="M35 9.00006H39C39.5304 9.00006 40.0391 9.21077 40.4142 9.58584C40.7892 9.96092 41 10.4696 41 11.0001V45C41 45.5305 40.7892 46.0392 40.4142 46.4142C40.0391 46.7893 39.5304 47 39 47H11C9.93913 47 8.92172 46.5786 8.17157 45.8284C7.42143 45.0783 7 44.0609 7 43V5.00006" stroke="black" stroke-width="2" stroke-linecap="round" stroke-linejoin="round"/>
<path d="M39 8.99999V3C39 2.46957 38.7892 1.96086 38.4142 1.58579C38.0391 1.21071 37.5304 1 37 1H11C9.93913 1 8.92172 1.42143 8.17157 2.17157C7.42143 2.92172 7 3.93913 7 5C7 6.06086 7.42143 7.07827 8.17157 7.82842C8.92172 8.57856 9.93913 8.99999 11 8.99999H18" stroke="black" stroke-width="2" stroke-linecap="round" stroke-linejoin="round"/>
</svg>
