<svg xmlns="http://www.w3.org/2000/svg" width="74" height="74" viewBox="0 0 19.579 19.579">
  <path d="M.01-.01h19.579v19.579H.01z" style="fill:#fff;fill-opacity:.989964;stroke:none;stroke-width:0;"/>
  <path d="M12.29 6.262c.884-.034.987-.042 1.573.004.584.046 1.427.374 1.903.241.246-.068.692-.396.823-.489.131-.092.57-.313.718-.398.257-.147.31-.27.361-.306.052-.034.158-.055.21.002.053.057.094.163.019.232s-.127.014-.391.192c-.265.178-1.083.747-1.063.906.02.161.095.175.17.18.075.006.14-.13.207-.114.068.017.127.084.115.16-.011.079-.147.087-.207.125-.06.038-.17.113-.034.13.133.017.708.095.922.19.213.093.37.05.446.111.076.063.146.222.07.313a.256.256 0 0 1-.32.054c-.106-.061-.038-.123-.216-.175a2.11 2.11 0 0 0-.762-.058c-.23.037-.139.154-.129.254.01.1.023.169.082.246.058.077.236.137.25.23.013.093-.01.136-.15.16-.14.023-.328-.286-.486-.26-.158.024-.023.16-.214.28-.191.121-.651.38-1.193.473-.54.094-1.495-.025-2.009-.069-.515-.043-.673-.132-1.076-.143a7.258 7.258 0 0 0-1.333.114c-.457.078-.889.268-1.396.361-.506.092-5.4.261-5.879-.35-.182-.23 1.564-.29 2.516-.678 1.567-.64 2.754-1.614 2.754-1.614s2.836-.27 3.72-.304z" style="clip-rule:evenodd;fill:#fff;fill-rule:nonzero;stroke:#0e3855;stroke-width:.238295;stroke-linecap:butt;stroke-linejoin:miter;"/>
  <path d="M12.271 5.017a2.908 2.908 0 0 0-.56-1.037c-.618-.713-1.738-1.396-2.677-1.52-1.767-.234-3.978.864-4.435 2.563-.456 1.699.654 3.259 1.773 3.884 1.119.626 2.345.496 2.932.236.588-.26 1.201-1.073 1.201-1.073.84.034 1.733-1.059 1.95-2.178.046-.244.075-.662-.184-.875z" style="clip-rule:evenodd;fill:#fff;fill-rule:nonzero;stroke:#0e3855;stroke-width:.238304;stroke-linecap:butt;stroke-linejoin:miter;"/>
  <path d="M12.29 6.262c.884-.034.987-.042 1.573.004.584.046 1.427.374 1.903.241.246-.068.692-.396.823-.489.131-.092.57-.313.718-.398.257-.147.31-.27.361-.306.052-.034.158-.055.21.002.053.057.094.163.019.232s-.127.014-.391.192c-.265.178-1.083.747-1.063.906.02.161.095.175.17.18.075.006.14-.13.207-.114.068.017.127.084.115.16-.011.079-.147.087-.207.125-.06.038-.17.113-.034.13.133.017.708.095.922.19.213.093.37.05.446.112.076.062.146.221.07.31a.256.256 0 0 1-.32.056c-.106-.061-.038-.123-.216-.174a2.11 2.11 0 0 0-.762-.06c-.23.038-.139.156-.129.255.01.1.023.17.082.247.058.076.236.136.25.23.013.092-.01.135-.15.159-.14.024-.328-.284-.486-.26-.158.024-.023.16-.214.28-.191.121-.651.38-1.193.473-.54.094-1.495-.025-2.009-.069-.515-.041-.673-.132-1.076-.141a7.258 7.258 0 0 0-1.333.112c-.457.078-.889.268-1.396.361-.506.092-5.4.261-5.879-.35-.182-.23 1.564-.29 2.516-.678 1.567-.64 2.754-1.614 2.754-1.614s2.836-.27 3.72-.304z" style="clip-rule:evenodd;fill:#fff;fill-rule:nonzero;stroke:#0e3855;stroke-width:.0595738;stroke-linecap:butt;stroke-linejoin:miter;"/>
  <ellipse cx="16.914" cy="9.771" rx=".04" ry=".043" style="clip-rule:evenodd;fill:#0e3855;fill-rule:evenodd;stroke:none;stroke-width:.0113261px;stroke-linecap:butt;stroke-linejoin:miter;stroke-miterlimit:4" transform="rotate(-6.971)"/>
  <path d="M12.271 5.017a2.908 2.908 0 0 0-.56-1.037c-.618-.713-1.738-1.396-2.677-1.52-1.767-.234-3.978.864-4.435 2.563-.456 1.699.654 3.259 1.773 3.884 1.119.626 2.345.496 2.932.236.588-.26 1.201-1.073 1.201-1.073.84.034 1.733-1.059 1.95-2.178.046-.244.075-.662-.184-.875z" style="clip-rule:evenodd;fill:#fff;fill-rule:nonzero;stroke:#0e3855;stroke-width:.0595762;stroke-linecap:butt;stroke-linejoin:miter;"/>
  <ellipse cx="19.722" cy="-4.47" rx=".046" ry=".036" style="clip-rule:evenodd;fill:#0e3855;fill-rule:evenodd;stroke:none;stroke-width:.0156834px;stroke-linecap:butt;stroke-linejoin:miter;stroke-miterlimit:4" transform="matrix(.8677 .49708 -.1593 .98723 0 0)"/>
  <path d="M14.279 13.99c.585.046 1.76.489 2.236.356.246-.068.692-.396.823-.49.13-.092.57-.312.718-.397.257-.147.31-.27.36-.306.053-.035.158-.056.211.001.054.057.094.164.02.233-.076.069-.128.013-.393.191-.264.179-1.082.747-1.062.907.02.16.094.175.17.18.075.006.141-.13.208-.114s.126.084.114.161c-.012.077-.146.086-.207.123-.06.038-.136.091-.035.13.1.04.709.096.923.19.213.094.37.05.446.112.076.063.146.222.07.312a.256.256 0 0 1-.32.054c-.106-.06-.038-.123-.217-.174-.18-.05-.53-.097-.761-.059-.231.038-.14.155-.129.254.011.1.024.17.082.247.058.077.235.136.25.23.014.093-.01.135-.15.159-.14.024-.328-.284-.486-.26-.625.32-1.203.41-1.735.508-.54.094-1.167.22-1.681.178-.515-.043-.673-.134-1.077-.143a7.218 7.218 0 0 0-1.332.113c-.457.078-1.253.256-2.482.35-1.23.096-2.866-.141-4.727-.003-1.862.139-3.647.246-3.436-.236.175-.4 1.424-1.007 1.934-1.223 1.254-.53 1.216-.547 2.382-.859 1.253-.335 3.629-.479 4.07-.496.442-.018 2.542-.063 3.151-.163.61-.1 1.477-.112 2.062-.066z" style="clip-rule:evenodd;fill:#fff;fill-rule:nonzero;stroke:#0e3855;stroke-width:.238304;stroke-linecap:butt;stroke-linejoin:miter;"/>
  <path d="M12.305 14.066c.525-.138 1.39-.122 1.974-.076.585.046 1.76.489 2.236.356.246-.068.692-.396.823-.49.13-.092.57-.312.718-.397.257-.147.31-.27.36-.306.053-.035.158-.056.211.001.054.057.094.164.02.233-.076.069-.128.013-.393.191-.264.179-1.082.747-1.062.907.02.16.094.175.17.18.075.006.141-.13.208-.114s.126.084.114.161c-.012.077-.146.086-.207.123-.06.038-.136.091-.035.13.1.04.709.096.923.19.213.094.37.05.446.112.076.063.146.222.07.312a.256.256 0 0 1-.32.054c-.106-.06-.038-.123-.217-.174-.18-.05-.53-.097-.761-.059-.231.038-.14.155-.129.254.011.1.024.17.082.247.058.077.235.136.25.23.014.093-.01.135-.15.159-.14.024-.328-.284-.486-.26-.625.32-1.203.41-1.735.508-.54.094-1.167.22-1.681.178-.515-.043-.673-.134-1.077-.143a7.218 7.218 0 0 0-1.332.113c-.457.078-1.253.256-2.482.35-1.23.096-2.866-.141-4.727-.003-1.862.139-3.647.246-3.436-.236.175-.4 1.424-1.007 1.934-1.223 1.254-.53 1.216-.547 2.382-.859 1.253-.335 3.629-.479 4.07-.496.442-.018 2.545-.092 3.239-.153.11-.01 0 0 0 0z" style="clip-rule:evenodd;fill:#fff;fill-rule:nonzero;stroke:none;stroke-width:0;stroke-linecap:butt;stroke-linejoin:miter"/>
  <path d="M11.394 15.597c-.102-.034-.04-.073-.132-.098-.092-.025-.333.129-.376.113-.213-.1-.322-.187-.641.025-.145.046-.323-.005-.456.057-.2.165.047.405.2.456.097.043.328.108.404.073a.521.521 0 0 1 .255-.073c.113.014.179.066.274.09.084.021.196-.04.265-.074.027-.014.098 0 .13 0 .093-.007.362-.01.415-.058.069-.216-.146-.135-.231-.29-.055-.2-.087-.2-.107-.221zm-2.298.271c-.136-.1-.201-.099-.257-.09-.047.023-.092.042-.14.066-.18.072-.55-.043-.673.045-.05.039.048.08.053.087.06.06.204-.039.282 0 .101.05.194.073.297.124.122.043.23-.016.33-.066.05-.025.195.005.215.025.053.01.096 0 .132-.033a.253.253 0 0 0 .012-.128c-.045-.092-.196.026-.251-.03zm-1.356.168c.002-.053.023-.089-.007-.119-.064-.063-.214 0-.29 0-.195-.03-.544.07-.686.023-.1-.034-.184-.011-.222.028.103.104-.052.202-.017.247.052.052.184.074.281.026.08-.023.472.007.53.032.066.034.203-.022.23-.05a.284.284 0 0 0 .165-.05m-1.59-.198c-.051-.003-.224.06-.26.043-.07-.036-.136-.035-.267-.045a.552.552 0 0 0-.296.045c-.058.03-.192-.046-.23.032-.023.046.043.103.058.132.005.011-.026.075-.01.092.091.099.2.064.314.007.152-.016.32-.012.443-.043.121-.032.262.007.258-.066.007-.044.083-.183-.01-.198z" style="clip-rule:evenodd;fill:#2f99c6;fill-rule:evenodd;stroke:#f33;stroke-width:.0522791px;stroke-linecap:round;stroke-linejoin:round;stroke-miterlimit:1.5;stroke-opacity:0"/>
  <path d="M13.507 14.406a.046.046 0 0 0-.04.012.193.193 0 0 0-.044.057.086.086 0 0 0-.008.051c.003.014.008.024.01.03v.002a.378.378 0 0 1-.048.052c-.014.01-.029.013-.063.01h-.002c.004 0-.006-.001-.017-.008a.465.465 0 0 1-.09-.09c-.007-.015-.014-.016-.022-.021a.131.131 0 0 0-.057-.018.05.05 0 0 0-.038.014.023.023 0 0 0-.006.008c-.02.044-.017.1-.02.153a.28.28 0 0 1-.02.114l.002-.001c-.054.054-.073.138-.069.219a.32.32 0 0 0 .078.21.148.148 0 0 0 .118.045.094.094 0 0 0 .057-.027.091.091 0 0 0 .024-.061.27.27 0 0 0-.014-.157c-.018-.049-.044-.094-.068-.142v0a.07.07 0 0 1-.006-.039.055.055 0 0 1 .01-.025s0 0 0 0c-.002.002-.002 0 .008.003a.3.3 0 0 1 .044.016c.017.007.034.015.053.02.01.002.019.004.03.003a.054.054 0 0 0 .033-.015.268.268 0 0 1 .075-.04.322.322 0 0 0 .092-.05l.005.002c.012.005.029.015.049.023s.045.014.071.008a.116.116 0 0 0 .07-.06.006.006 0 0 0 0-.002.175.175 0 0 0-.013-.187.31.31 0 0 0-.184-.11zm-1.905.04a.107.107 0 0 0-.053.002.09.09 0 0 0-.058.049.151.151 0 0 0-.012.074.436.436 0 0 0 .046.158v-.001c.036.082.033.155-.022.212a.137.137 0 0 1-.062.027c-.026.007-.056.012-.079.035-.007.007-.01.013-.016.022a.373.373 0 0 0-.017.034.16.16 0 0 0-.013.04c-.002.012-.003.03.01.043h.001a.05.05 0 0 0 .041.013.15.15 0 0 0 .042-.01.506.506 0 0 0 .094-.05c.002-.002.003-.002.008-.001a.08.08 0 0 1 .023.01c.019.01.043.029.069.047a.302.302 0 0 0 .081.046c.03.01.065.006.09-.02h.001c.008-.008.006-.01.006-.012l.001-.004a.12.12 0 0 0 .001-.01v-.021a.69.69 0 0 0 0-.03c0-.002 0-.004-.002-.006 0-.002.002-.004-.006-.012h0c-.048-.048-.106-.075-.143-.11a.416.416 0 0 1 .052-.212.542.542 0 0 0 .006-.178.238.238 0 0 0-.026-.083.1.1 0 0 0-.063-.051z" style="clip-rule:evenodd;fill:#2f99c6;fill-rule:evenodd;stroke:#f33;stroke-width:.0522675px;stroke-linecap:round;stroke-linejoin:round;stroke-miterlimit:1.5;stroke-opacity:0"/>
  <path d="M13.408 15.87c.006.05.24.037.248.043.22.16.179-.02.423.141.08.054.278-.048.299-.088.037-.072-.046-.143-.078-.159-.209-.048-.41.177-.591.053-.052-.035-.227-.077-.272-.11-.042-.034-.072.075-.029.12zm1.672-.729a.076.076 0 0 0-.069.058 1.552 1.552 0 0 1-.058.174.64.64 0 0 1-.071.13.575.575 0 0 1-.04-.018c-.041-.023-.087-.04-.169.008-.08.046-.182.086-.188.165a.08.08 0 0 0 .02.055l.002.002c.074.054.179.018.253-.018.064-.031.172-.015.286 0 .057.007.115.012.17.007.086-.013.221-.064.14-.15-.081-.086-.127-.095-.174-.077-.046.018-.084.046-.13.044.092-.08.185-.154.17-.25-.02-.102-.101-.13-.14-.129zm.04-.808c-.061-.122-.15.018-.195.062-.011.014-.065-.013-.078 0-.02.02-.06.032-.08.053-.01.011-.065.103-.035.132.007.007.095.038.115.018.061-.062.214-.073.282-.141.029-.029.018-.106-.008-.132m-1.185-.234a4.414 4.414 0 0 0-.556.035c-.095-.001-.194-.01-.273.03 0 0-.026.005-.05.026a.08.08 0 0 0-.023.047.106.106 0 0 0 .011.06.28.28 0 0 0 .072.102.14.14 0 0 0 .148.015c.057-.017.099-.048.133-.071.033-.02.058-.032.089-.031a.364.364 0 0 0 .126.055.72.72 0 0 0 .173.023 1.027 1.027 0 0 0 .28-.033c.026-.007.045-.01.067-.03h.001c-.031.031.086-.04.052-.11l-.017-.035a.09.09 0 0 0-.027-.03c-.023-.016-.04-.017-.084-.034a.388.388 0 0 0-.12-.019z" style="clip-rule:evenodd;fill:#2f99c6;fill-rule:evenodd;stroke:#f33;stroke-width:.0522791px;stroke-linecap:round;stroke-linejoin:round;stroke-miterlimit:1.5;stroke-opacity:0"/>
  <path d="M13.249 14.37c.103-.03.151-.115.247-.107.048.047.195.08.292.08.08.002.287-.026.317-.054.01-.01.065-.022.044-.062-.03-.061-.015-.044-.106-.08-.09-.034-.425-.006-.661.019-.097 0-.193-.005-.257.026-.02.01-.072.019-.043.08.027.06.08.14.167.096zm-.46.06c-.1.048-.196.012-.29.018-.1.032-.168.045-.168.168 0 .048-.058.128-.017.168.144.146.163-.156.22-.212.107-.023.226.072.327.034.053-.025.143-.018.176-.052.003-.004.041-.084 0-.119-.099-.083-.177-.04-.247-.005zm3.693.01c-.032.015-.06.068-.03.132.028.053.207.115.151.23-.05.101-.201-.02-.264.044-.118.254.147.123.211.15.074.036.196-.011.238-.054.013-.011.08-.07.044-.106-.129-.083-.104-.345-.175-.385-.052-.029-.09-.052-.175-.011z" style="clip-rule:evenodd;fill:#2f99c6;fill-rule:evenodd;stroke:#f33;stroke-width:.0522791px;stroke-linecap:round;stroke-linejoin:round;stroke-miterlimit:1.5;stroke-opacity:0"/>
  <path d="M16.326 15.373c-.058.03-.152-.045-.205-.012-.053.034-.1.115-.071.144.011.011.06.049.098.03.053-.027.08-.047.128-.07.082-.043.207.07.278 0 .005-.006.088-.039.069-.127-.046-.11-.225-.002-.297.034z" style="clip-rule:evenodd;fill:#2f99c6;fill-rule:evenodd;stroke:#f33;stroke-width:.0591798px;stroke-linecap:round;stroke-linejoin:round;stroke-miterlimit:1.5;stroke-opacity:0"/>
  <path d="M15.624 15.735c.054.07.142.039.189.016.069-.037-.006.114.069.166.064.046.558-.158.592-.29.01-.035-.056-.091-.096-.07-.131.065-.273.113-.397.175-.11.03 0-.1-.11-.192-.061-.051-.303.123-.247.196z" style="clip-rule:evenodd;fill:#2f99c6;fill-rule:evenodd;stroke:#f33;stroke-width:.0522791px;stroke-linecap:round;stroke-linejoin:round;stroke-miterlimit:1.5;stroke-opacity:0"/>
  <path d="M16.779 15.045c-.041.02-.068.047-.115.07-.046.024-.122.017-.15.045-.02.02.042.06.044.062.114-.001.294.041.362-.018.05-.05.018-.141-.027-.16a.18.18 0 0 0-.114.001z" style="clip-rule:evenodd;fill:#2f99c6;fill-rule:evenodd;stroke:#f33;stroke-width:.0522675px;stroke-linecap:round;stroke-linejoin:round;stroke-miterlimit:1.5;stroke-opacity:0"/>
  <path d="M13.29 15.239c-.131.136.023.118-.198.227-.187.033-.35-.133-.504-.06-.052.025-.124.092-.049.13.063.03.115-.067.158.02-.021.119-.105.321-.02.425.055.054.098.032.129-.06.03-.097-.084-.235-.01-.316.06-.06.172-.118.266-.07.042.02.153.047.189.011.05-.05.12-.071.138-.123.02-.052-.047-.21-.1-.184zm-1.009-.258c-.255.042-.31-.207-.407-.218-.066-.035-.109.047-.109.098.061.117.078.31.112.417.048.146-.084.352.02.455.031.032.091.058.128.04.03-.015.08-.079.059-.119-.094-.29-.203-.407.03-.514.08-.04.236-.06.316-.02.094.047.115.175.247.109.1-.05.063-.24.03-.306-.017-.035-.075-.072-.11-.06-.091.032-.152.092-.316.118z" style="clip-rule:evenodd;fill:#2f99c6;fill-rule:evenodd;stroke:#f33;stroke-width:.0522791px;stroke-linecap:round;stroke-linejoin:round;stroke-miterlimit:1.5;stroke-opacity:0"/>
  <path d="m6.787 14.435-.008.008m-.947.008a.336.336 0 0 1 .035-.008" style="clip-rule:evenodd;fill:#2f99c6;fill-rule:evenodd;stroke-width:.0209116;stroke-linecap:round;stroke-linejoin:round;stroke-miterlimit:1.5"/>
  <path d="M4.674 16.064c-.082-.002-.113.049-.167.103-.051.026-.138.04-.195.011-.047-.022-.21.015-.255.037-.049.012-.263.143-.224.19.058.059.21.08.305.033a.629.629 0 0 1 .174-.024c.12.032.312-.027.441-.108.13-.08.004-.241-.079-.242zm-1.13.374c.017-.008.066-.098.011-.125-.057-.025-.142.008-.152.018-.03.03-.143-.023-.172.009-.035.032-.143.046-.154.132-.012.087.17.083.199.083.096 0 .181-.074.268-.117zm-.909.075c-.169.223-.389.078-.437.1-.084.04-.18.076-.257.114-.07.036-.173.025-.248.05-.095.032-.224.035-.252.13-.027.096.09.06.17.06.156-.008.316.008.454-.057.096-.12.271-.09.38-.142.03-.013.091.008.115-.016.042.019.245-.269.17-.21.024-.019-.052-.05-.095-.029z" style="clip-rule:evenodd;fill:#2f99c6;fill-rule:evenodd;stroke:#f33;stroke-width:.0522791px;stroke-linecap:round;stroke-linejoin:round;stroke-miterlimit:1.5;stroke-opacity:0"/>
  <path d="M4.572 16.627a.394.394 0 0 0-.161.036c-.007.003-.014.011-.023.02a.153.153 0 0 0-.026.031.093.093 0 0 0-.014.04.055.055 0 0 0 .014.047.447.447 0 0 0 .198.096c.08.019.165.02.215-.03.015-.016.023-.033.019-.05a.059.059 0 0 0-.03-.035.172.172 0 0 0-.078-.02c-.018 0-.035.006-.056.013l-.065.023a.227.227 0 0 1-.065.01.071.071 0 0 1-.049-.02c-.006-.006-.017-.016-.023-.029a.038.038 0 0 1-.007-.016c0-.004.001-.008.006-.012.023-.024.042-.033.06-.034.018 0 .035.007.054.025.004.005.007.005.009.005l.006.001.013.003.038.003.037.002.019.002a.138.138 0 0 0 .109-.042c.011-.011.02-.026.015-.044a.035.035 0 0 0-.017-.02.069.069 0 0 0-.03-.004c-.057 0-.113-.003-.168 0zm3.024-1.225c-.028-.009-.083.046-.126.046-.233.017-.603-.02-.536.05.103.114.41.032.552.034.046 0 .12.006.15-.025.082-.083-.012-.096-.04-.105z" style="clip-rule:evenodd;fill:#2f99c6;fill-rule:evenodd;stroke:none;stroke-width:.0209116;stroke-linecap:round;stroke-linejoin:round;stroke-miterlimit:1.5"/>
  <path d="M15.817 15.238c0-.009.015-.046.006-.055-.05-.047-.125.107-.158.127-.058.034-.21-.128-.252-.024-.013.03.035.06.047.07.01.01.019.036.036.044a.549.549 0 0 0 .216-.02c.04-.023.05-.087.08-.122m-.858-.386c-.062-.078-.18-.109-.244-.033-.02.024.025.056.037.062.054.024.074-.004.121-.006.019-.001.045.016.061.006.021-.012.056-.03.025-.029zm-.886.61a.58.58 0 0 0-.336.017c-.017.007-.099.071-.064.104.03.028.08.06.131.039.026-.01.08-.047.111-.033.02.01.126.024.148.01.066-.038.138-.143.05-.184-.018-.009-.026.047-.04.047zm.762-.302c-.092.004-.11-.056-.185-.091-.044-.021-.128.063-.142.098-.028.066.164.035.184.054.022.021.032.09.08.06.026-.015.127-.125.064-.122zm-.974-.134c-.116-.034-.222-.097-.32.016-.03.035.074.057.081.06.041.019.24.058.278.013.048-.056.008-.091-.04-.089zm.534-.209c-.05-.031-.04-.063-.065-.088-.034-.032-.106.085-.116.097-.034.04-.108-.072-.134-.085-.062-.028-.089.083-.063.131.05.093.137.02.2.018.016-.001.036.025.054.033.026.013.096-.025.11-.042.012-.014.039-.066.014-.064zm1.545-.224c-.084-.053-.347-.193-.409-.043-.036.088.114.044.142.056.02.01.019.031.028.045.049.077.32.105.294.003-.009-.033-.02-.063-.055-.061zm-.555-.045c-.026-.024-.11-.041-.122-.012.04.191-.106.305-.088.488.027.05.106.004.155.001.138-.007.297.049.403-.075.028-.033-.007-.141-.07-.154-.066-.014-.138.048-.166.111-.022.051-.184.094-.212.066-.044-.074.066-.297.103-.352a.31.31 0 0 0-.004-.073zm-.24.639c-.031-.002-.066.012-.079.044-.012.03-.006.057-.001.08a.11.11 0 0 1-.002.063.251.251 0 0 0-.067.093c-.017.036-.03.07-.04.084h-.002a.066.066 0 0 1-.017-.009.274.274 0 0 1-.021-.015c-.007-.005-.013-.01-.02-.013a.417.417 0 0 0-.116-.028c-.046-.005-.093-.006-.125.013a.337.337 0 0 0-.118.148c-.006.02-.004.044.012.06.02.019.046.023.07.02a.225.225 0 0 0 .075-.03c.048-.028.095-.067.12-.082.01-.006.029-.007.048-.003.02.004.04.011.05.016a.016.016 0 0 0 .01.002c.112-.015.23.033.345.028a.251.251 0 0 0 .09-.03.13.13 0 0 0 .043-.032.052.052 0 0 0 .012-.024.043.041 87.051 0 0-.005-.03c-.029-.052-.073-.079-.12-.077-.046.002-.093.03-.133.076l.002-.001c-.037.034-.082.03-.12.002-.003-.023.007-.047.025-.072.02-.027.048-.053.067-.075a.175.175 0 0 1 .05-.033c.022-.01.044-.019.059-.036a.056.056 0 0 0 .006-.064.056.056 0 0 0-.034-.025.064.064 0 0 0-.02-.035.074.074 0 0 0-.044-.015zm-.553-1.061c-.026-.008-.11.031-.136.043-.074.034-.01.177.068.152.112-.035.194-.201.068-.195z" style="clip-rule:evenodd;fill:#2f99c6;fill-rule:evenodd;stroke:none;stroke-width:.0244367;stroke-linecap:round;stroke-linejoin:round;stroke-miterlimit:1.5"/>
  <path d="M13.3 15.926c.006-.126-.1-.052-.151-.106-.048-.05-.057-.125-.113-.143-.013-.005-.068-.01-.069.006 0 .02.048.05.053.069.014.048.09.145.143.162.056.02.008.1.044.113.11.036.14-.051.093-.1z" style="clip-rule:evenodd;fill:#2f99c6;fill-rule:evenodd;stroke:none;stroke-width:.0244336;stroke-linecap:round;stroke-linejoin:round;stroke-miterlimit:1.5"/>
  <path d="M15.678 15.65c-.013.017-.06.025-.039.066.056.101.218-.052.246-.085.021-.024-.028-.069-.02-.063-.07-.043-.131.018-.185.082z" style="clip-rule:evenodd;fill:#2f99c6;fill-rule:evenodd;stroke:none;stroke-width:.0209116;stroke-linecap:round;stroke-linejoin:round;stroke-miterlimit:1.5"/>
  <path d="M12.859 14.05c-.08-.027-.186.09-.241.09-.054.002-.2-.072-.258-.037-.028.017-.049.082-.029.12.064.118.161-.059.259-.013.08.037.132.127.228.07.095-.056.13-.199.04-.23zm3.313.87c-.094-.045-.033.08-.046.111-.021.052-.072.113.017.154.107.05.146-.094.087-.15-.042-.04.031-.12-.058-.116zm.011-.476c-.053-.024-.138.007-.1.078.025.046.06.058.091.087.063.06.17-.107.079-.15a.174.174 0 0 0-.07-.015zm-1.479 1.587c-.053-.033-.192.004-.19.028.01.08.193.114.254.042.038-.044-.021-.12-.064-.07zm-2.441-.732c-.013-.026-.095-.043-.122-.013-.046.054-.022.118.017.155.111.106.272-.15.105-.142zm1.947-.144c-.06-.067-.15.04-.081.104.092.089.165-.1.098-.096" style="clip-rule:evenodd;fill:#2f99c6;fill-rule:evenodd;stroke:none;stroke-width:.0244367;stroke-linecap:round;stroke-linejoin:round;stroke-miterlimit:1.5"/>
  <path d="M11.11 14.83c-.005-.01-.05-.091-.082-.075-.027.014-.043.069-.076.092-.07.046-.118.055-.28.06-.164.005-.51 0-.692.03-.169.03-.483.132-.387.342.242.525.501-.02.933.083.142.045.278 0 .41-.046.048-.015.22.032.206-.068-.015-.099-.14-.108-.183-.023-.006.013-.35.04-.453.061-.256-.011-.672.288-.785.076-.023-.048.079-.053.061-.12-.013-.055-.124-.102-.105-.13.296-.158.626.005.933-.106.022-.008.334-.046.365-.076.041-.043.067.08.106.06.066-.034.057-.103.03-.16zm-1.958.084a.403.403 0 0 1 .136.014c.042.013.023.117-.038.122-.04.004-.146.035-.106.114.012.024.05.093.076.106.014.007.053.03.061.046.046.092-.005.207-.092.25-.071.035-.11-.082-.129-.121-.018-.038.024-.07.038-.084.059-.058.029-.198-.03-.228-.048-.023-.123 0-.166.015-.144.048-.34.09-.411-.053-.023-.048.023-.069.06-.069.066 0 .156.003.176.054.011.03.134.004.158-.06.015-.035.114.015.138-.009a.916.916 0 0 1 .13-.099z" style="clip-rule:evenodd;fill:#2f99c6;fill-rule:evenodd;stroke:none;stroke-width:.0209116;stroke-linecap:round;stroke-linejoin:round;stroke-miterlimit:1.5"/>
  <path d="M11.882 14.7c.03.011.112-.064.12-.103a.233.233 0 0 1 .098-.12c.029-.012.051.013.083 0 .034-.015.153-.138.15-.168-.009-.063-.119-.042-.138-.034-.039.017-.062.11-.074.119-.051.036-.167.083-.232.11-.058.024-.042.118-.038.147.002.016.02.062.031.048z" style="clip-rule:evenodd;fill:#2f99c6;fill-rule:evenodd;stroke:none;stroke-width:.0244342;stroke-linecap:round;stroke-linejoin:round;stroke-miterlimit:1.5"/>
  <path d="M11.044 16.121c.03-.052-.071-.084-.114.008-.006.013-.045.054-.023.076.068.067.12-.05.138-.083zm-.531.03c.026.014.3.015.195-.07-.103-.082-.244.047-.195.07z" style="clip-rule:evenodd;fill:#2f99c6;fill-rule:evenodd;stroke:none;stroke-width:.0209116;stroke-linecap:round;stroke-linejoin:round;stroke-miterlimit:1.5"/>
  <path d="M13.585 15.355c-.062.003-.031.088.012.063.049-.03.043-.066-.012-.063z" style="clip-rule:evenodd;fill:#2f99c6;fill-rule:evenodd;stroke:none;stroke-width:.0244367;stroke-linecap:round;stroke-linejoin:round;stroke-miterlimit:1.5"/>
  <path d="M8.108 15.127c.03-.092-.218-.085-.305 0-.115.115-.522-.025-.685-.025-.071 0-.357.101-.254.204.145.145.264-.102.468-.102.075 0 .126.018.192.051.12.06.268-.032.382.025.005.004.146.022.202-.153zm-2.02.06c.105-.027.169.07.132.132-.058.1-.189-.11-.303-.052-.1.05-.434.239-.501.105-.029-.058.034-.117.065-.132.072-.036.103.074.173.04.069-.035.203-.086.25-.132.055-.055.144.05.183.04zm-1.047.15c-.083-.08-.238.058-.245.062-.023.011-.333-.019-.264.052.064.064.215-.023.238 0 .038.037.205.085.264.026.068-.069.07-.077.007-.138zm1 .112c-.051-.088-.21.006-.246.023-.042.023-.11-.016-.15-.016-.019 0-.104.014-.068.05.032.032.106-.01.142.009.078.027.16.041.243.041.035 0 .092-.08.078-.107zm5.049-1.22c-.076-.023-.19-.011-.227.053-.02.2.192.06.282.083a.261.261 0 0 0 .205.01.263.263 0 0 0 .09-.1c.015-.03.01-.07-.02-.088a.238.238 0 0 0-.115-.015c-.069 0-.12.084-.215.056z" style="clip-rule:evenodd;fill:#2f99c6;fill-rule:evenodd;stroke:none;stroke-width:.0209116;stroke-linecap:round;stroke-linejoin:round;stroke-miterlimit:1.5"/>
  <path d="M10.48 14.212a.07.07 0 0 0-.037.014.06.06 0 0 0-.021.037c-.007.04-.01.076-.015.095-.003.01-.007.013-.006.012l-.009-.004c-.014-.009-.061-.044-.12-.036a.535.535 0 0 0-.127.027c-.052.016-.112.036-.171.052a.969.969 0 0 1-.163.035c-.046.004-.08-.002-.092-.016a.237.237 0 0 0-.108-.066c-.017-.004-.035-.006-.05.006a.037.037 0 0 0-.014.026c0 .01.001.02.006.03l.001.003c.05.078.106.121.167.138.06.017.121.009.182-.009.122-.035.244-.107.354-.112-.004 0-.002 0 .001.002a.166.166 0 0 1 .015.009c.012.008.027.02.044.03a.147.147 0 0 0 .054.02c.02.004.042 0 .059-.016.012-.012.032-.033.053-.052a.186.186 0 0 1 .054-.035.08.08 0 0 0 .05-.029.075.075 0 0 0 .015-.05.122.122 0 0 0-.049-.09.106.106 0 0 0-.073-.021z" style="clip-rule:evenodd;fill:#2f99c6;fill-rule:evenodd;stroke:none;stroke-width:.020907;stroke-linecap:round;stroke-linejoin:round;stroke-miterlimit:1.5"/>
  <path d="M9.892 14.224c-.019-.01-.303.044-.159.117.063.031.252-.024.218-.092-.01-.022-.038-.015-.059-.025z" style="clip-rule:evenodd;fill:#2f99c6;fill-rule:evenodd;stroke:none;stroke-width:.020907;stroke-linecap:round;stroke-linejoin:round;stroke-miterlimit:1.5"/>
  <path d="M9.381 14.327c-.08-.041-.28.028-.293.041-.008.009-.089.035-.11.026-.066-.035-.158-.018-.225-.05-.017-.009-.23-.012-.268.024-.009.01-.048.022-.034.051.094.058.21-.06.301-.02.022.01.085.08.11.103.005.007.2.026.234-.007.025-.027.06-.052.083-.074.066-.055.332-.03.202-.094zm-.645.217c-.014-.013-.257.006-.235.05.027.053.17.054.227.025.02-.01.018-.064.008-.075zm-.894.002c-.009.02.034.06.026.067-.02.02-.062.019-.092.034-.136.024-.26-.006-.386-.008-.02 0-.169.037-.092.075.079.039.227-.01.351-.01.078 0 .183-.038.244-.008.017.01.08.02.1.008.016-.008.082-.06.05-.092-.033-.032-.087.013-.117-.016-.04-.041.097-.114.038-.126-.058-.012-.095.023-.122.076zm-.388-.094c-.006.006-.079.023-.05.051.008.01.142.076.183.033.012-.011.03-.021.018-.053-.011-.032-.127-.055-.151-.03zm-.558.034a.485.485 0 0 1-.21.066 2.85 2.85 0 0 0-.326-.008c-.098-.007-.284.05-.184.151.086.02.129-.072.184-.1.146-.058.152.16.242.083a.293.293 0 0 1 .075-.058c.05-.025.118.046.16.024.058-.028.13.002.159-.057.005-.01.018-.066-.005-.075-.023-.01-.069-.039-.095-.026zm-1.181.16c-.044.021-.094.034-.143.057-.08.041-.211-.023-.293.018-.026.013-.145.046-.126.083.034.067.156-.007.21-.033.13 0 .363-.027.385.008.01.018.096.036.118.025.117-.072.034-.19-.018-.207-.047-.015-.092.028-.133.049zm-.817.17c-.051.026-.126-.015-.176.009-.044.023-.075.068-.125.092-.12.003-.268.008-.317.092-.05.084.377-.031.401-.05.015-.016.035-.027.05-.042.026-.027.123.011.15-.017.023-.023.09-.084.017-.084zm1.203 1.344c-.053 0-.257-.015-.176.067.006.006.161 0 .194-.017.04-.021.011-.05-.026-.05m-.745.117c.089-.116-.034-.13-.159-.025-.009.008-.024-.137-.05-.084a.437.437 0 0 0 .008.117c.011.055.115.089.134.058.016-.025.046-.038.067-.067zm4.776-.193c-.015 0-.054.007-.067 0-.027-.014-.028-.043-.058-.057-.051-.027-.136-.024-.168.007-.015.016.09.08.109.1.025.025.107.09.167.058.077-.038.09-.108.017-.108zM11.732 16c0-.026-.057-.073-.092-.057-.08.032-.046.155-.135.15-.087-.04-.338.01-.293.067.098.04.201-.083.293-.008.097.085.288.015.26-.043a.244.244 0 0 1-.033-.109zm-4.27.176c-.046-.046-.19.006-.218.035-.016.016-.1-.005-.125.007-.056.028-.059-.104-.133-.067-.037.018-.127.116-.176.067-.035-.035-.161 0-.202 0-.006 0-.058.008-.058.017 0 .017.046.016.066.016.05 0 .115-.016.176-.016.112 0 .253-.016.335.025.046.023.117-.034.15 0a.678.678 0 0 0 .169 0c.023-.023.039-.092-.018-.092m.335-.033c-.028-.042-.141-.008-.167.016a.261.261 0 0 0 0 .067c.049.048.131.002.167-.034.018-.017.017-.05 0-.05z" style="clip-rule:evenodd;fill:#2f99c6;fill-rule:evenodd;stroke:none;stroke-width:.0209116;stroke-linecap:round;stroke-linejoin:round;stroke-miterlimit:1.5"/>
  <path d="M3.838 15.07a.144.144 0 0 0-.044.007l-.047.014c-.02.007-.029.024-.038.04l-.03.058a.231.231 0 0 1-.036.052.073.073 0 0 1-.045.023.02.02 0 0 0-.012.006c-.014.014-.015.03-.014.048 0 .016 0 .032.014.046l.002.001a.045.045 0 0 0 .032.01.057.057 0 0 0 .027-.012c.015-.012.028-.028.041-.044a.214.214 0 0 1 .044-.04.061.061 0 0 1 .042-.01c.017.02.034.053.054.08a.074.074 0 0 0 .045.032c.02.003.04-.007.058-.025.007-.007.006-.009.006-.01l.001-.005v-.01a.392.392 0 0 0 0-.055v-.004c-.001-.002 0-.004-.006-.01-.013-.013-.032-.025-.052-.04a.415.415 0 0 1-.057-.044c-.015-.015-.02-.027-.018-.032 0-.006.01-.019.047-.031a.02.02 0 0 0 .014-.019.028.028 0 0 0-.012-.02.031.031 0 0 0-.016-.006z" style="clip-rule:evenodd;fill:#2f99c6;fill-rule:evenodd;stroke:none;stroke-width:.020907;stroke-linecap:round;stroke-linejoin:round;stroke-miterlimit:1.5"/>
  <path d="M3.474 15.39c0-.019-.017-.045-.042-.034-.052.027-.09.067-.142.068-.11 0-.365.02-.286.11a.118.118 0 0 0 .059.007c.066-.02.08-.069.16-.067.057 0 .12.08.175.025.007-.007.076-.055.076-.11zm1.132.234c-.092 0-.233.108-.234-.017-.008-.161-.205-.132-.242-.067-.023.045.04.11.008.143-.093.107-.276-.014-.368.057-.004.005-.048.046-.025.068a.925.925 0 0 0 .25-.017c.051-.016.343-.023.378-.033.102-.008.172-.019.25-.092.021-.02.01-.042-.017-.042zm-1.46.167c.017-.031.05-.054.052-.058.011-.079-.149-.023-.194.058-.069.129-.207.08-.342.126-.021.006-.138.104-.11.134a.113.113 0 0 0 .059.008c.115-.023.21-.167.301-.117.057.03.152.016.202-.008.064-.033.011-.1.034-.143zm.177.059c-.023-.003-.093.046-.058.092.018.025-.005.103-.051.1-.103-.005-.302-.034-.376.042-.023.023-.051.068-.018.1s.176-.038.176-.066c0-.08.188.02.26-.017.019-.009.154-.037.184-.066.103-.104-.054-.18-.117-.184zm-1.19.41c-.048-.05-.197.038-.174.084.034.07.225.042.267 0 .016-.016.016-.08-.008-.092-.026-.013-.061.008-.084.008zm-.183-.142c-.068-.035-.24.006-.292.034-.02.01-.08.07-.05.1.016.017.088.01.108 0 .03-.016.11-.052.126-.068.017-.017.088.012.108-.008.03-.03.043-.057 0-.057zm-.963.52c-.045-.062.146-.067.21-.043.047.018.177-.048.184-.076.02-.066.25-.112.293-.024.02.039-.013.071-.026.083-.03.03-.1-.03-.141-.017-.047.015-.103.046-.176.084-.055.028-.086.058-.143.058-.037 0-.195-.032-.2-.067-.002-.012 0-.003 0 0zm3.817-.478c-.013-.054-.092-.138-.167-.101-.054.026-.082.1-.134.126a.271.271 0 0 1-.159 0c-.06-.03-.241.003-.285.025-.052.026-.152.069-.175.117-.006.011-.041.034-.025.05.017.018.071-.027.084-.034a.494.494 0 0 0 .116-.083c.027-.027.069-.035.12-.042.052-.007.149.048.206.076.06.028.138-.053.16-.076a.204.204 0 0 1 .108-.05c.031-.002.089.046.092.05.035.034.098-.019.06-.058zm-1.181.134c-.029-.087-.12-.007-.168.017-.024.011-.087-.036-.125-.017-.019.009-.085.021-.067.058.02.04.09.022.117.008.04-.02.107-.014.126.025.017.035.122-.026.117-.092zm-.494.175c-.017.009-.07.005-.05.042.038.078.188.08.242.025.015-.014.017-.057-.008-.057m-.486.032-.041-.016a.257.257 0 0 0-.135-.008l-.25.125c-.014.007-.112-.017-.151-.017a.428.428 0 0 0-.201.058c-.014.007-.08.046-.067.06.05.05.164-.054.21-.076.06-.03.179.023.2.058.02.034.147.033.15-.016a.15.15 0 0 1 .05-.092c.062-.061.146.016.21-.016.01-.004.038-.048.025-.059zm1.458-.117c0-.023-.02-.049-.05-.034-.024.012-.054.02-.067.035-.02.018-.115-.007-.142.007-.02.011-.056-.01-.075 0-.02.009-.07.03-.05.067.012.026.061.017.091.017a.4.4 0 0 0 .143-.034c.032-.016.084.024.117-.008.007-.008.025-.018.033-.025m.251-.108c-.011.006-.029.046-.016.057.033.035.166-.015.184-.033.028-.028-.01-.042-.032-.05-.023-.01-.113.013-.136.026zm-2.603.568c-.102-.035-.262.032-.314.045a.736.736 0 0 1-.155.015c-.009 0-.052-.005-.042.016.011.023.107.026.126.017.127-.064.303.074.41-.035.016-.014-.016-.055-.025-.057zm.796-1.284c.018 0 .084-.033.1-.016.022.021-.013.089-.025.1-.018.019-.077-.05-.144-.026-.098.034-.313.187-.324.168-.025-.046.287-.226.393-.226z" style="clip-rule:evenodd;fill:#2f99c6;fill-rule:evenodd;stroke:none;stroke-width:.0209116;stroke-linecap:round;stroke-linejoin:round;stroke-miterlimit:1.5"/>
  <path d="M12.434 15.716c-.035-.033-.2-.025-.16.048.015.028.095.08.135.034.027-.032.072-.085.025-.082zm1.886-1.304c-.03.002-.137.069-.062.104.07.032.127-.107.062-.104zm2.7.236c-.014-.006-.065.023-.075.034-.023.028.025.156.055.138.05-.029.093-.138.02-.172zm-.04.707c-.053.044-.022.134.024.109.034-.018.063-.102.031-.132-.024-.024-.047.022-.056.023z" style="clip-rule:evenodd;fill:#2f99c6;fill-rule:evenodd;stroke:none;stroke-width:.0244367;stroke-linecap:round;stroke-linejoin:round;stroke-miterlimit:1.5"/>
  <path d="M16.925 15.854c-.041-.026-.114.129-.167.155-.045.023-.23.058-.145.145.026.025.107.014.135 0a.71.71 0 0 0 .21-.145c.074-.072.044-.155-.033-.155zm-.534.1c-.06.03-.118.058-.144.112-.023.046.048.098.09.077.027-.014.219-.146.155-.212-.012-.011-.052.012-.067.012m-.345.3c0 .138-.221.171-.229.134-.015-.074.083-.16.14-.19.012-.005.059-.04.077-.022.015.016.012.048.012.078zm-.379-.022c-.018 0-.055-.034-.078-.023a.329.329 0 0 0-.088.058c-.037.035.12.134.155.098.016-.016.115-.126.034-.166-.03-.015.005.033-.023.033zm-.345.155c-.028.029-.09.045-.155.054-.11.016-.201-.027-.225.028-.019.044.069.069.125.041a.255.255 0 0 1 .067-.023c.047.049.182.054.241-.005.033-.033.007-.153-.053-.095zm-.545-.01c-.053-.027-.142-.058-.211-.023-.015.01-.103.054-.089.068.032.032.188.08.245.022.035-.036.104-.067.055-.067zm-.701.067c0-.157-.246-.054-.3 0-.013.012.026.051.033.055.023.011.173.086.2.078.065-.02.113-.133.067-.133zm.246.122c-.04-.04-.15.006-.113.046.066.063.207-.046.112-.046zm-.846-.022c.147.01.097-.292-.023-.223-.019.011.036.062.02.12-.016.06-.08.097.003.103zm-.212-.012c.033-.034-.067-.138-.133-.133-.046.002-.194-.027-.122.045.03.032.092.051.143.078.023.011.112.057.112.011zm-.6-.167c-.037 0-.047-.011-.09-.011a.315.315 0 0 0-.133.045c-.056.055.242.069.245.066.058-.058.033-.1-.023-.1zm-.518-.02c-.063-.064-.065.012-.11.058-.016.015-.131 0-.157 0-.048 0-.386.016-.333.077.05.05.184-.041.248-.028.165.03.314.072.352-.016.007-.015.023-.089 0-.089zm-.885.11a.258.258 0 0 0-.177.012c-.013.005-.07.03-.046.055.02.018.209.025.234 0 .03-.03.043-.067-.011-.067z" style="clip-rule:evenodd;fill:#2f99c6;fill-rule:evenodd;stroke:none;stroke-width:.0209116;stroke-linecap:round;stroke-linejoin:round;stroke-miterlimit:1.5"/>
  <path d="M10.615 16.535a.478.478 0 0 0-.151.035.624.624 0 0 0-.088.052.055.055 0 0 0-.016.022.044.044 0 0 0 .01.041l.004.004.004.002a.027.027 0 0 0 .01.003h.005l.006-.001a.932.932 0 0 0 .193-.069c.003-.002.012-.003.025 0 .014.002.031.008.05.014.038.014.08.033.123.033a.597.597 0 0 0 .153-.029.182.182 0 0 0 .056-.023c.004-.002.01-.004.014-.015a.032.032 0 0 0-.01-.04c-.01-.005-.014-.005-.02-.006a.091.091 0 0 0-.015-.001c-.113 0-.231-.03-.353-.022z" style="clip-rule:evenodd;fill:#2f99c6;fill-rule:evenodd;stroke:none;stroke-width:.020907;stroke-linecap:round;stroke-linejoin:round;stroke-miterlimit:1.5"/>
  <path d="M10.138 16.666c.007-.02.009-.187-.045-.133-.04.041-.07.153-.144.133-.099-.025-.328-.067-.268.035.038.06.112.021.157 0 .067-.035.3.15.3-.035zm-.434-.2c-.076 0-.109.062-.034.1.06.03.15-.053.078-.088-.025-.014-.023-.012-.044-.012zm-.423.1c-.12-.06-.21.029-.333-.033-.036-.019-.124.014-.124.045 0 .08.13-.004.145.011.016.015.17.131.234.067.014-.014.133-.09.078-.09zm-.112.267c-.003-.016-.023-.05-.055-.033-.146.073-.187.034-.356.034-.02 0-.146-.002-.1.044.039.039.117.045.19.045.016 0 .09-.012.1 0 .011.011.054.039.088.021.04-.02.076-.02.1-.044.008-.009.038-.05.035-.067zm-.9-.01c-.095 0-.248-.064-.323.011-.035.035.134.028.145.033.038.019.102.076.145.056.063-.031.126-.1.033-.1zm.01-.257c-.087.087.07.161.112.078.053-.107-.112-.157-.112-.078zm-.533.133c0-.117-.112-.055-.145-.023-.016.018-.019.078-.045.09-.034.017-.089.035-.11.057-.046.046-.233-.046-.279 0-.003.003-.025.051-.011.066.041.04.134.044.2.012.045-.023.126.008.156.023.065.03.175-.031.2-.058.031-.03.025-.199.023-.199m-.846 0a.401.401 0 0 0-.178.034c-.012.004-.065.023-.045.043.017.016.23.052.245.044.116-.057.04-.093-.012-.144-.011-.013-.053.023-.065.023m-.602.066c-.023-.023-.174-.047-.2-.023-.003.004-.039.04-.023.057.023.021.176.123.223.077.051-.05.074-.123-.034-.123m-.544-.022c-.064-.064-.238-.195-.312-.121-.02.018-.058-.006-.078.033-.036.071.145.027.178.044.05.025.044.072.1.1.053.026.16-.056.112-.056zm-.423.067c-.042.022-.066.05-.012.078.059.03.136-.055.068-.09-.024-.01-.045.012-.056.012zm-1.079 0c0-.118-.131-.007-.167.012-.015.007-.175.003-.123.056.02.02.216.116.267.067.058-.058.023-.083.023-.134zm-.802.078c-.057-.057-.138.04-.111.067.033.032.294.037.322.023.016-.01.039-.062.023-.078-.03-.031-.096-.07-.145-.035a.147.147 0 0 1-.089.023zm-.445.089c.037-.025-.02-.073-.055-.055-.034.017-.102.046-.123.066-.023.023-.15-.003-.178.012-.013.007-.076.034-.055.055.06.061.188.029.267-.011.021-.01.083.016.1 0 .013-.013.069-.098.044-.067zm-.656.09c0-.115-.136-.014-.1.023.048.046.1.004.1-.023z" style="clip-rule:evenodd;fill:#2f99c6;fill-rule:evenodd;stroke:none;stroke-width:.0209116;stroke-linecap:round;stroke-linejoin:round;stroke-miterlimit:1.5"/>
  <ellipse cx="16.703" cy="17.624" rx=".04" ry=".043" style="clip-rule:evenodd;fill:#0e3855;fill-rule:evenodd;stroke:none;stroke-width:.0113271px;stroke-linecap:butt;stroke-linejoin:miter" transform="rotate(-6.958)"/>
  <path d="M14.818 15.931c-.046-.041.308-.181.42-.199.112-.017.243 0 .201.08-.041.081-.207.108-.31.111-.104.005-.265.05-.31.008z" style="clip-rule:evenodd;fill:#2f99c6;fill-rule:nonzero;stroke:#0e3855;stroke-width:.0165551px;stroke-linecap:butt;stroke-linejoin:miter"/>
  <path d="M14.818 15.931c-.046-.041.308-.181.42-.199.112-.017.243 0 .201.08-.041.081-.207.108-.31.111-.104.005-.265.05-.31.008z" style="clip-rule:evenodd;fill:#0e3855;fill-rule:nonzero;stroke:none;stroke-width:.0165551px;stroke-linecap:butt;stroke-linejoin:miter"/>
  <ellipse cx="21.84" cy="2.4" rx=".046" ry=".036" style="clip-rule:evenodd;fill:#0e3855;fill-rule:evenodd;stroke:none;stroke-width:.0156834px;stroke-linecap:butt;stroke-linejoin:miter" transform="matrix(.8677 .49708 -.1593 .98723 0 0)"/>
  <path fill="none" d="M16.225 7.202c.134-.048.34-.09.47-.075.129.014.708.095.922.189.214.094.371.05.447.113.076.062.146.22.069.311a.256.256 0 0 1-.32.054c-.105-.06-.037-.123-.217-.174-.179-.05-.53-.097-.76-.059-.232.038-.332.054-.57.186m-.449.436s-1.157-.245-1.609-.29a6.397 6.397 0 0 0-1.09-.017c-.429.018-1.475.152-1.475.152" style="clip-rule:evenodd;fill:#668000;fill-opacity:0;fill-rule:nonzero;stroke:#0e3855;stroke-width:.0456425;stroke-linecap:butt;stroke-linejoin:miter;stroke-miterlimit:2.33333;;"/>
  <path d="M10.527 8.057c.278-1.426-.478-1.998-.812-2.251-.334-.253-1.324-.636-2.083-.59-.759.046-1.872.532-2.015 1.39-.142.859.59 1.741 1.203 2.136.613.394 1.46.428 1.918.163.458-.265.626-.63.527-1.131-.099-.5-.622-1.092-1.333-1.231-.71-.139-1.323.118-1.548.65-.225.532.262 1.08.634 1.346.371.265.986.293 1.239.023.252-.27.13-.714-.086-.976s-.81-.426-1.15-.16c-.34.265-.08.788.169.948.248.16.536.22.714.026.179-.194.011-.447-.186-.548-.197-.1-.413-.046-.46.068-.048.114.025.243.145.321.12.079.341-.005.18-.125" style="clip-rule:evenodd;fill:none;fill-rule:nonzero;stroke:#0e3855;stroke-width:.0456425;stroke-linecap:butt;stroke-linejoin:miter;stroke-miterlimit:2.33333;;"/>
  <path d="M10.546 7.743c1.086-.261 1.523-1.38 1.65-2.196" style="clip-rule:evenodd;fill:none;fill-rule:nonzero;stroke:#0e3855;stroke-width:.0456425;stroke-linecap:butt;stroke-linejoin:miter;stroke-miterlimit:2.33333;;"/>
  <path d="M16.786 15.685c-.445.165-.721.34-1.335.493-.615.152-1.492.127-1.728.122-.235-.003-1.523-.245-1.738-.325-.217-.08-.926-.638-.835-1.152.09-.514.97-.733 1.437-.812m4.383 1.029c.134-.048.34-.09.47-.076.13.015.709.097.923.19.213.094.37.05.446.113.076.062.146.221.069.311a.256.256 0 0 1-.32.054c-.105-.06-.037-.123-.216-.173a2.107 2.107 0 0 0-.761-.06c-.23.038-.332.054-.57.186" style="clip-rule:evenodd;fill:none;fill-rule:nonzero;stroke:#0e3855;stroke-width:.0456406;stroke-linecap:butt;stroke-linejoin:miter;"/>
  <path d="M8.564 3.071c-.048-.004.017.176.279.176.061 0 .252.09.284.026.063-.125-.516-.197-.564-.202Zm-.974-.28c-.028-.002-.495.065-.354.136.047.024.108.017.163.027.278.053.462-.143.19-.163Zm-1.716.789c-.233.117-.527.577-.19.41.046-.024.25-.322.217-.355-.007-.007-.005-.054-.027-.054zm1.879-.136c-.105 0-.32-.074-.463-.027-.115.039-.768.267-.571.463.031.032.444-.222.49-.245.208-.104.511.143.68-.027.142-.141-.079-.164-.136-.164ZM6.691 4.48c-.13 0-.493.16-.354.3.065.064 1.044-.3.354-.3Zm4.429-.224c0-.2-.884-.793-1.01-.543-.007.015.266.3.389.362.18.09.507.398.517.388.098-.098.104-.116.104-.207zM8.379 5.422c-.162-.024-.655-.064-.373.167.087.072.52.024.63.052.32.083.63.457.652.185.011-.154-.626-.362-.91-.404ZM7.703 4.28c-.095.007-.402.086-.258.21.112.096.913.02 1.147.1.133.046.801.36.65.174-.237-.29-1.023-.524-1.54-.485Zm2.693 1.04c-.048.174.229.297.284.463.04.12.244.998.465.776.337-.336-.13-.96-.31-1.139-.084-.083-.172-.176-.285-.18-.057-.003-.138.024-.154.08zm1.215.929c-.047.01-.36.598-.548.786-.15.15-.273-.172-.28-.165-.105.105-.047.508.073.584.168.106.405-.196.47-.248.19-.151.517-1.013.285-.957zm-2.36.273c-.054-.054-.402-.333-.49-.245-.002.003.179.288.245.354.06.06.488.135.245-.109zm-1.701-.59c-.064-.09-.718.023-.586.154.238.24 1.235-.154.585-.154zm4.125-.989c.076-.152-.17-.197-.19-.218-.215-.215-.087.245.054.245.04 0 .114.018.136-.027zM9.96 7.503c-.023.046-.03.148.054.19.216.108.165-.575 0-.326-.03.044-.034.094-.054.136zm.135.599c-.11.202-.493.14-.462.19.104.177.347.11.462-.108.008-.014.069-.082 0-.082zM6.12 6.25c-.042-.02-.378.383-.219.463.015.007.318-.413.218-.463zm-.437-1.798c-.19.096-.123.341.027.191.097-.096.133-.35-.027-.19Zm-.381.545c-.128-.129-.348.293-.409.354-.33.33.613-.15.41-.354Zm-.191 1.008c-.037.075-.082.134-.082.217 0 .076-.003.13.028.191.108.216.297-.522.28-.54-.106-.105-.127-.064-.226.132zm.273 1.743c-.211.018.19.457.136.19-.02-.098-.066-.196-.136-.19zm3.513-5.149c-.026.127.743.326.853.345.326.058.329.189.399.074.043-.069-.51-.316-.797-.392-.147-.039-.482-.159-.455-.027Zm1.019 1.54c-.148-.157-.732-.473-.7-.279.028.166 1.086.85.7.279Zm.218 2.655c.18.093-.13-.553-.284-.45-.09.078.284.45.284.45zm-1.898.194c.173-.124-.397-.296-.214-.094.068.074.157.135.215.094z" style="clip-rule:evenodd;fill:#2f99c6;fill-rule:evenodd;stroke:#0e3855;stroke-width:0;stroke-linecap:round;stroke-linejoin:round;stroke-miterlimit:1.5;;"/>
</svg>
