<?xml version="1.0" encoding="UTF-8"?>
<svg width="121px" height="65px" viewBox="0 0 121 65" version="1.1" xmlns="http://www.w3.org/2000/svg" xmlns:xlink="http://www.w3.org/1999/xlink">
    <title>Logo</title>
    <defs>
        <polygon id="path-1" points="0.0512373723 0.146349685 49.1107735 0.146349685 49.1107735 53.8132977 0.0512373723 53.8132977"></polygon>
        <polygon id="path-3" points="0 0.368961297 95.9936996 0.368961297 95.9936996 42.003394 0 42.003394"></polygon>
        <polygon id="path-5" points="0.188656232 0.0477321934 35.2351601 0.0477321934 35.2351601 7.09534361 0.188656232 7.09534361"></polygon>
    </defs>
    <g id="Symbols" stroke="none" stroke-width="1" fill="none" fill-rule="evenodd">
        <g id="Footer-Inverse" transform="translate(-1407.000000, -62.000000)">
            <g id="Logo" transform="translate(1407.000000, 62.000000)">
                <path d="M55.0607473,54.2959328 L55.0607473,46.7981338 L53.1706886,46.7981338 L53.1706886,50.9129075 L53.1497101,50.9129075 L50.9155048,46.7981338 L48.6388432,46.7981338 L48.6388432,54.2959328 L50.5289019,54.2959328 L50.5289019,49.9104372 L50.5498804,49.9104372 L53.0453173,54.2959328 L55.0607473,54.2959328 Z M62.9766169,54.2959328 L60.825826,46.7981338 L58.1420825,46.7981338 L55.9912915,54.2959328 L58.0481789,54.2959328 L58.4342823,52.6666063 L60.4602015,52.6666063 L60.8572937,54.2959328 L62.9766169,54.2959328 Z M59.4367527,48.4694172 L59.4577312,48.4694172 L60.0636089,51.0173003 L58.8208853,51.0173003 L59.4367527,48.4694172 Z M66.8151744,54.2959328 L66.8151744,48.4584285 L68.6947439,48.4584285 L68.6947439,46.7981338 L62.8991964,46.7981338 L62.8991964,48.4584285 L64.7787659,48.4584285 L64.7787659,54.2959328 L66.8151744,54.2959328 Z M73.9948002,51.528775 C73.9948002,51.9328599 73.8889089,52.2405439 73.676627,52.4528259 C73.4638455,52.6646084 73.1731441,52.7709991 72.8045227,52.7709991 C72.428409,52.7709991 72.1501948,52.6646084 71.9693805,52.4528259 C71.7880667,52.2405439 71.6976596,51.9328599 71.6976596,51.528775 L71.6976596,46.7981338 L69.6512614,46.7981338 L69.6512614,51.1321823 C69.6512614,51.6541462 69.7047065,52.120667 69.8130952,52.5312453 C69.9209844,52.9418236 70.0963043,53.2864696 70.340054,53.5646839 C70.5838036,53.8433976 70.9039748,54.0556796 71.3010669,54.2020293 C71.6976596,54.3478795 72.1846594,54.4213041 72.7625658,54.4213041 C73.3404722,54.4213041 73.8344649,54.3478795 74.2455426,54.2020293 C74.6561209,54.0556796 74.9937741,53.8433976 75.2585022,53.5646839 C75.5227308,53.2864696 75.7180303,52.9418236 75.842902,52.5312453 C75.9682732,52.120667 76.0312086,51.6541462 76.0312086,51.1321823 L76.0312086,46.7981338 L73.9948002,46.7981338 L73.9948002,51.528775 Z M83.8341942,54.2959328 L82.3412276,51.0063116 C82.6888705,50.8259968 82.9655863,50.5732564 83.171375,50.2490893 C83.3766641,49.9259212 83.4790589,49.530827 83.4790589,49.0638067 C83.4790589,47.5538576 82.4591065,46.7981338 80.4197012,46.7981338 L77.5376613,46.7981338 L77.5376613,54.2959328 L79.5740697,54.2959328 L79.5740697,51.5917103 L80.524094,51.5917103 L81.5994894,54.2959328 L83.8341942,54.2959328 Z M79.5740697,50.0038412 L79.5740697,48.4584285 L80.4821371,48.4584285 C80.5870293,48.4584285 80.6929206,48.4679188 80.8008098,48.4844018 C80.9086989,48.5018839 81.0095953,48.5373474 81.1034989,48.5887946 C81.1974024,48.6417402 81.2743234,48.7181617 81.3332629,48.8185586 C81.3927018,48.919455 81.4221716,49.0543165 81.4221716,49.2211451 C81.4221716,49.3949666 81.3872075,49.532825 81.3177788,49.6337214 C81.2478506,49.7341182 81.1629378,49.8125377 81.0620414,49.8684802 C80.9611451,49.9239233 80.84926,49.9603858 80.7278847,49.9778679 C80.6060098,49.9958494 80.4926263,50.0038412 80.3882335,50.0038412 L79.5740697,50.0038412 Z M91.5173029,54.2959328 L89.1052803,49.4818773 L91.1726569,46.7981338 L88.979909,46.7981338 L86.8810647,49.7850659 L86.8600863,49.7850659 L86.8600863,46.7981338 L84.8136881,46.7981338 L84.8136881,54.2959328 L86.8600863,54.2959328 L86.8600863,52.3848956 L87.7581639,51.2260859 L89.2516299,54.2959328 L91.5173029,54.2959328 Z M96.4552311,51.528775 C96.4552311,51.9328599 96.3488404,52.2405439 96.1365585,52.4528259 C95.9242765,52.6646084 95.6335751,52.7709991 95.2649537,52.7709991 C94.88884,52.7709991 94.6106257,52.6646084 94.429312,52.4528259 C94.2484977,52.2405439 94.1580905,51.9328599 94.1580905,51.528775 L94.1580905,46.7981338 L92.1111929,46.7981338 L92.1111929,51.1321823 C92.1111929,51.6541462 92.1651375,52.120667 92.2730267,52.5312453 C92.3809159,52.9418236 92.5567353,53.2864696 92.8004849,53.5646839 C93.0442346,53.8433976 93.3644057,54.0556796 93.7609984,54.2020293 C94.1580905,54.3478795 94.6450903,54.4213041 95.2229968,54.4213041 C95.8009032,54.4213041 96.2948958,54.3478795 96.7059736,54.2020293 C97.1165519,54.0556796 97.4542051,53.8433976 97.7184337,53.5646839 C97.9831618,53.2864696 98.1779617,52.9418236 98.303333,52.5312453 C98.4287042,52.120667 98.4911401,51.6541462 98.4911401,51.1321823 L98.4911401,46.7981338 L96.4552311,46.7981338 L96.4552311,51.528775 Z M106.419996,54.2959328 L106.419996,46.7981338 L104.529938,46.7981338 L104.529938,50.9129075 L104.508959,50.9129075 L102.274254,46.7981338 L99.9980923,46.7981338 L99.9980923,54.2959328 L101.888151,54.2959328 L101.888151,49.9104372 L101.909129,49.9104372 L104.404566,54.2959328 L106.419996,54.2959328 Z M110.57373,54.2959328 C111.172115,54.2959328 111.706567,54.2100211 112.176584,54.039696 C112.646601,53.8693709 113.043194,53.619128 113.366861,53.2879681 C113.690529,52.9573077 113.937775,52.5522238 114.1081,52.0717173 C114.278924,51.5917103 114.363837,51.0382787 114.363837,50.4114226 C114.363837,49.1926744 114.045664,48.286605 113.408818,47.690717 C112.771473,47.0963275 111.854415,46.7981338 110.657144,46.7981338 L107.98389,46.7981338 L107.98389,54.2959328 L110.57373,54.2959328 Z M110.020299,52.5522238 L110.020299,48.5418428 L110.740559,48.5418428 C111.283501,48.5418428 111.68409,48.7076725 111.941325,49.0383329 C112.199061,49.3689933 112.327928,49.8475018 112.327928,50.474358 C112.327928,51.1147003 112.195564,51.6211801 111.931336,51.9932979 C111.666608,52.3659151 111.24554,52.5522238 110.667634,52.5522238 L110.020299,52.5522238 Z M120.912112,54.2959328 L120.912112,52.6356381 L117.62299,52.6356381 L117.62299,51.2675433 L119.909641,51.2675433 L119.909641,49.6596947 L117.62299,49.6596947 L117.62299,48.4584285 L120.849176,48.4584285 L120.849176,46.7981338 L115.586581,46.7981338 L115.586581,54.2959328 L120.912112,54.2959328 Z" id="Fill-1" fill="#000000"></path>
                <path d="M56.5643529,44.8978356 L56.5643529,37.400536 L53.954034,37.400536 L52.5964284,42.3079956 L52.5754499,42.3079956 L51.2807797,37.400536 L48.638993,37.400536 L48.638993,44.8978356 L50.5185625,44.8978356 L50.5185625,40.1572047 L50.539541,40.1572047 L51.7817651,44.8978356 L53.4210814,44.8978356 L54.663805,40.1572047 L54.6847834,40.1572047 L54.6847834,44.8978356 L56.5643529,44.8978356 Z M62.4213372,42.1306777 C62.4213372,42.5352622 62.3149465,42.8424467 62.1026646,43.0552281 C61.8903826,43.2675101 61.5996812,43.3734013 61.2305603,43.3734013 C60.8549461,43.3734013 60.5762323,43.2675101 60.3954181,43.0552281 C60.2141043,42.8424467 60.1241966,42.5352622 60.1241966,42.1306777 L60.1241966,37.400536 L58.077299,37.400536 L58.077299,41.7340851 C58.077299,42.2560489 58.1312436,42.7230693 58.2391328,43.1331481 C58.347022,43.5437264 58.5228414,43.8883724 58.766591,44.1670861 C59.0098412,44.4453004 59.3305118,44.6580818 59.7271045,44.8044315 C60.1241966,44.9502817 60.6111964,45.0232068 61.1891029,45.0232068 C61.7670093,45.0232068 62.2610019,44.9502817 62.6715802,44.8044315 C63.082658,44.6580818 63.4198117,44.4453004 63.6845398,44.1670861 C63.9492679,43.8883724 64.1440678,43.5437264 64.2694391,43.1331481 C64.3948103,42.7230693 64.4572462,42.2560489 64.4572462,41.7340851 L64.4572462,37.400536 L62.4213372,37.400536 L62.4213372,42.1306777 Z M71.3321849,39.0608307 C71.0744497,38.4065028 70.7058283,37.9454763 70.2253218,37.6772518 C69.7453148,37.4095268 69.1464299,37.2751648 68.4291666,37.2751648 C68.0395668,37.2751648 67.6774387,37.3276109 67.3432819,37.4320037 C67.0091251,37.5363965 66.7219201,37.6847441 66.4821664,37.8755481 C66.2419131,38.0673511 66.0536066,38.2931193 65.9182456,38.554351 C65.7823851,38.8155826 65.7144549,39.1027877 65.7144549,39.415966 C65.7144549,39.9104581 65.8098569,40.3055523 66.0016599,40.6007491 C66.1929634,40.8969449 66.4352146,41.1317038 66.7274145,41.3065242 C67.0196144,41.4798462 67.3327927,41.6122102 67.6669495,41.7031169 C68.0011063,41.7930245 68.3142846,41.8799353 68.606984,41.9638491 C68.8991839,42.0472634 69.1409356,42.1481598 69.3327386,42.2665382 C69.5240421,42.3849166 69.6199436,42.5557411 69.6199436,42.7780128 C69.6199436,43.000784 69.5255405,43.1681122 69.3377334,43.2794978 C69.1499263,43.3908834 68.9201623,43.4463264 68.6484414,43.4463264 C68.2868128,43.4463264 67.9996078,43.3489265 67.7873259,43.1541265 C67.5745444,42.9593266 67.4406819,42.7050877 67.3852388,42.3919094 L65.5161586,42.9663194 C65.6275442,43.3419336 65.7768908,43.6621048 65.9651974,43.9273324 C66.1530045,44.191561 66.3722792,44.403843 66.6230217,44.5636788 C66.8737642,44.7240141 67.1569733,44.8403946 67.4741475,44.9133197 C67.7908223,44.9867443 68.1369667,45.0232068 68.5130804,45.0232068 C68.95163,45.0232068 69.3552155,44.9707607 69.7243364,44.8668674 C70.0929578,44.7624746 70.4096325,44.6091321 70.6743606,44.4073394 C70.9390887,44.2050471 71.1443778,43.9548042 71.290228,43.655112 C71.4365777,43.3559193 71.5100023,43.0117727 71.5100023,42.6216734 C71.5100023,42.1481598 71.4155993,41.7690491 71.2277922,41.4833426 C71.0399851,41.1981355 70.8047267,40.9723674 70.523016,40.8050393 C70.2413054,40.6377111 69.9366183,40.510342 69.6094544,40.4234312 C69.2817909,40.3365205 68.9776033,40.2531062 68.6958927,40.1726888 C68.4136825,40.0927708 68.1789236,39.9988673 67.9906171,39.8914776 C67.80281,39.7830889 67.7089064,39.6217546 67.7089064,39.4054768 C67.7089064,39.225162 67.7853279,39.0803107 67.9386704,38.9719221 C68.0915134,38.8640329 68.2728272,38.8100883 68.4816128,38.8100883 C68.7458414,38.8100883 68.9791018,38.8800165 69.181394,39.0188738 C69.3831868,39.1582307 69.5395262,39.3710122 69.6509118,39.6562192 L71.3321849,39.0608307 Z M78.0652694,44.8978356 L78.0652694,43.2375409 L74.7761477,43.2375409 L74.7761477,41.8699455 L77.062799,41.8699455 L77.062799,40.2615974 L74.7761477,40.2615974 L74.7761477,39.0608307 L78.0023341,39.0608307 L78.0023341,37.400536 L72.7397392,37.400536 L72.7397392,44.8978356 L78.0652694,44.8978356 Z M83.5096775,42.1306777 C83.5096775,42.5352622 83.4032868,42.8424467 83.1910048,43.0552281 C82.9787228,43.2675101 82.6880214,43.3734013 82.3189005,43.3734013 C81.9432863,43.3734013 81.6645726,43.2675101 81.4837583,43.0552281 C81.3024445,42.8424467 81.2120374,42.5352622 81.2120374,42.1306777 L81.2120374,37.400536 L79.1656392,37.400536 L79.1656392,41.7340851 C79.1656392,42.2560489 79.2195838,42.7230693 79.327473,43.1331481 C79.4353622,43.5437264 79.6111816,43.8883724 79.8549313,44.1670861 C80.0981814,44.4453004 80.4188521,44.6580818 80.8154447,44.8044315 C81.2120374,44.9502817 81.6995367,45.0232068 82.2774431,45.0232068 C82.8548501,45.0232068 83.3493422,44.9502817 83.7599205,44.8044315 C84.1709982,44.6580818 84.508152,44.4453004 84.77288,44.1670861 C85.0376081,43.8883724 85.2324081,43.5437264 85.3577793,43.1331481 C85.4831505,42.7230693 85.5455864,42.2560489 85.5455864,41.7340851 L85.5455864,37.400536 L83.5096775,37.400536 L83.5096775,42.1306777 Z M94.9778985,44.8978356 L94.9778985,37.400536 L92.3670801,37.400536 L91.009974,42.3079956 L90.9889955,42.3079956 L89.6943252,37.400536 L87.0525386,37.400536 L87.0525386,44.8978356 L88.9321081,44.8978356 L88.9321081,40.1572047 L88.9525871,40.1572047 L90.1953107,44.8978356 L91.834627,44.8978356 L93.0773506,40.1572047 L93.098329,40.1572047 L93.098329,44.8978356 L94.9778985,44.8978356 Z M101.114096,44.8978356 L101.114096,41.8699455 L103.49515,41.8699455 L103.49515,40.2615974 L101.114096,40.2615974 L101.114096,39.0608307 L104.434685,39.0608307 L104.434685,37.400536 L99.0781871,37.400536 L99.0781871,44.8978356 L101.114096,44.8978356 Z M109.693284,42.1306777 C109.693284,42.5352622 109.586894,42.8424467 109.374612,43.0552281 C109.16233,43.2675101 108.871628,43.3734013 108.503007,43.3734013 C108.126893,43.3734013 107.848679,43.2675101 107.667365,43.0552281 C107.486551,42.8424467 107.396144,42.5352622 107.396144,42.1306777 L107.396144,37.400536 L105.349246,37.400536 L105.349246,41.7340851 C105.349246,42.2560489 105.403191,42.7230693 105.51108,43.1331481 C105.618969,43.5437264 105.794789,43.8883724 106.038538,44.1670861 C106.282288,44.4453004 106.602459,44.6580818 106.999052,44.8044315 C107.396144,44.9502817 107.883144,45.0232068 108.46105,45.0232068 C109.038956,45.0232068 109.532949,44.9502817 109.944027,44.8044315 C110.354605,44.6580818 110.692258,44.4453004 110.956487,44.1670861 C111.221215,43.8883724 111.416015,43.5437264 111.541386,43.1331481 C111.666757,42.7230693 111.729193,42.2560489 111.729193,41.7340851 L111.729193,37.400536 L109.693284,37.400536 L109.693284,42.1306777 Z M106.745312,36.8471045 L108.228289,36.8471045 L108.228289,35.5524342 L106.745312,35.5524342 L106.745312,36.8471045 Z M108.919579,36.8471045 L110.423035,36.8471045 L110.423035,35.5524342 L108.919579,35.5524342 L108.919579,36.8471045 Z M119.532678,44.8978356 L118.039212,41.6087138 C118.387355,41.4278995 118.664071,41.1751591 118.86936,40.8514916 C119.074649,40.527824 119.177543,40.1327298 119.177543,39.666209 C119.177543,38.1557603 118.157591,37.400536 116.118185,37.400536 L113.236146,37.400536 L113.236146,44.8978356 L115.272054,44.8978356 L115.272054,42.1936131 L116.222578,42.1936131 L117.297974,44.8978356 L119.532678,44.8978356 Z M115.272054,40.6062435 L115.272054,39.0608307 L116.180621,39.0608307 C116.285014,39.0608307 116.391405,39.0698215 116.499294,39.0868041 C116.607183,39.1042861 116.70808,39.1392502 116.801983,39.1911968 C116.895887,39.2441425 116.972308,39.3200645 117.031747,39.4209609 C117.090687,39.5218572 117.120656,39.6562192 117.120656,39.8230479 C117.120656,39.9973688 117.085692,40.1347278 117.016263,40.2356241 C116.946335,40.3365205 116.860923,40.4149399 116.760026,40.470383 C116.65913,40.5263255 116.547744,40.5627881 116.425869,40.5802701 C116.303995,40.5982517 116.19111,40.6062435 116.086718,40.6062435 L115.272054,40.6062435 Z" id="Fill-3" fill="#000000"></path>
                <g id="Group-7" transform="translate(20.875927, 0.353137)">
                    <mask id="mask-2" fill="white">
                        <use xlink:href="#path-1"></use>
                    </mask>
                    <g id="Clip-6"></g>
                    <path d="M48.8938625,17.1441413 C48.7520082,17.1226634 48.5587067,17.1351505 48.4148545,17.1241618 C48.3104617,17.11617 47.7909952,17.1481372 47.838946,16.6201795 C47.875908,16.4123929 48.1990761,15.7805419 47.9328495,15.3649687 C47.7310568,15.006337 47.4223739,14.9613832 47.1331709,15.2525841 C46.2795476,16.236074 45.1756814,17.3639156 45.0318292,17.2680141 C44.924939,17.1985854 45.0078538,16.9813086 45.0498107,16.8304635 C45.1502076,16.4698339 45.5597869,15.5163132 45.3909603,14.9908529 C45.190666,14.4758819 44.9499133,14.3395219 44.5173576,14.7111402 C44.0733137,15.0927483 43.6462523,15.4963338 43.2321776,15.9104085 C41.0244451,18.1561019 38.8162132,22.0655865 38.7757548,22.162487 C38.5529836,22.5710673 38.9610644,22.930698 39.2247936,22.6140232 C39.7497544,21.8772799 40.3431449,20.9637182 40.8566175,20.2194826 C41.7766725,18.8858524 42.7666557,17.8399267 43.8260676,16.618681 C43.8900019,16.5447569 43.9998891,16.3564503 44.0912952,16.4363683 C44.1437413,16.5482533 44.0138747,17.2645177 44.0228655,17.5317432 C44.0323557,17.7999677 44.1582264,18.0307307 44.3400397,18.2270291 C44.6387329,18.5496977 45.0318292,18.5636833 45.535312,18.2520034 C45.9723632,17.9822805 46.7160993,17.154131 46.8514602,17.0072819 C46.9513576,17.2440387 47.0952099,17.4837925 47.2870129,17.7000703 C47.7510363,18.1176414 48.684078,18.0352261 49.0457065,17.5252499 C49.1720767,17.345934 49.1106398,17.1771074 48.8938625,17.1441413 M41.7546951,9.16383785 C41.4874696,9.03247278 41.2117528,8.91409436 40.9585129,8.7592534 C39.9335656,8.13239724 38.8356932,7.68086101 37.6813788,7.35869191 C37.4521143,7.29475758 37.2263462,7.22033402 36.924656,7.12792893 C37.0340437,7.01104897 37.4715943,6.6534163 37.6269347,6.54003275 C38.1723745,6.14194163 38.6983343,5.7213736 39.1169044,5.18442509 C39.5884201,4.57854739 39.8816189,3.90773638 39.9330661,3.12753772 C39.9685297,2.59408562 39.26725,2.19349707 38.8506778,2.40877595 C37.3532159,3.20695615 36.4906018,4.57854739 36.2588399,6.12695702 C36.234365,6.28978978 36.1679333,6.39568102 36.0410636,6.47459996 C34.3058458,7.21434017 35.8352749,7.77626303 35.9366708,7.82071737 C35.8992093,8.00402909 35.4576628,9.22977013 36.2878101,14.0348349 C36.465128,15.1087319 37.425142,14.7725771 37.2937769,14.0203497 C37.1823913,13.3370516 36.6839033,10.3366333 36.7053812,9.44554851 C36.7148715,9.04545944 36.7688161,8.45506583 36.7773074,8.06296855 C36.8332499,8.0534783 39.0090152,8.48603402 40.9954749,9.98649291 C41.9120335,10.3576117 42.296139,9.39759776 41.7546951,9.16383785 M37.1614129,5.75983409 C37.233339,4.84777087 38.7078245,3.15800642 38.9850398,3.33632327 C39.2597576,3.54161242 38.3851559,5.15995023 37.1614129,5.75983409 M34.3852642,10.8710843 C33.7644019,11.0219294 33.1964852,11.3106329 32.6240731,11.5828533 C32.2179902,11.7971332 32.4042989,12.2886284 32.4257768,12.3550602 C32.3383666,12.4929186 31.9063104,13.3330557 30.922321,13.6926863 C30.6026493,13.8140616 30.2400218,13.6447355 30.1046608,13.3300587 C29.9593101,12.992905 29.9028681,12.6602467 30.1021634,12.3076089 C30.2794813,11.9929321 30.1276372,11.710722 29.7784958,11.6323025 C29.3614242,11.5388984 29.0981946,11.6802532 28.9343628,12.0828398 C28.5892173,12.9294702 28.2950195,13.7216565 27.6831479,14.3979619 C26.531331,15.4204117 26.7471093,13.4529325 27.3305101,12.5503596 C27.6591726,11.845084 26.7471093,11.6772563 26.4399249,12.0278962 C26.3035649,12.1587618 26.0173589,12.6252826 25.9589189,12.6627441 C25.399993,13.0198773 23.9994315,13.7641129 23.9150182,13.801075 C23.9150182,13.685194 24.3201021,9.81916477 24.4199995,9.22127885 C24.4704477,8.91709128 24.5543615,8.76225032 24.2581657,8.68433035 C24.1397873,8.65336216 24.0099207,8.63737858 23.8885454,8.64986575 C23.5868552,8.68133343 23.4499958,8.84716311 23.4425035,9.14885324 C23.4380081,9.32117625 23.4415045,9.49549721 23.4190276,9.66632175 C23.2626882,10.8401162 23.13432,12.016408 23.0978575,13.2011911 C23.0863693,13.5763058 23.0668893,13.9509211 23.0514052,14.319043 C22.9120483,14.4484101 22.7671971,14.4833742 22.5933756,14.4214378 C20.4845416,14.0048656 20.8446717,15.2286087 21.3381649,15.3280067 C21.4390612,15.3744589 21.5754212,15.4443871 21.6843093,15.4923379 C21.6308642,15.5957317 20.9066081,16.8844081 20.4605662,17.6041688 C20.3047263,17.8554108 19.0929709,19.8114018 18.6354408,18.1730845 C18.4211609,17.196088 18.4691117,16.3804257 18.3737096,15.8629572 C18.2628235,15.4244076 17.9906031,15.2311062 17.534072,15.2181195 C17.055064,15.2046334 16.6384919,15.3639697 16.326812,15.7290947 C16.0650808,16.0357797 15.8173353,16.3579488 15.5955631,16.6936041 C15.1889807,17.308972 14.9192577,17.9872753 14.7594219,18.7210217 C14.4946938,18.7444976 14.3733184,18.9168206 14.3018918,19.1425887 C14.2294662,19.3713537 14.1365616,19.5951239 14.0811185,19.8278848 C13.8683371,20.7164722 13.6565546,21.6050595 13.4647516,22.4986417 C13.2889322,23.3178004 12.95028,24.8507259 12.6495889,25.1199494 C12.4567869,24.8252521 11.5342344,23.2428773 10.8304573,23.1329902 C10.4108882,23.0275984 10.0432658,23.253866 9.89891408,23.7004074 C9.75705977,24.137958 9.74257465,24.5899937 9.767549,25.0435279 C9.80151412,25.6568979 9.9478638,26.2417971 10.2480555,26.7817426 C10.6226707,27.5139905 11.4777924,27.5994027 11.5472211,27.6168848 C10.8384491,29.4095436 10.4968,28.0039872 10.3584421,27.6578427 C10.1776278,27.2043085 10.0432658,26.8326902 9.30302611,26.6503775 C9.30852047,26.5319991 9.35846917,24.9276469 9.35946814,24.2833087 C9.36046711,23.9221796 9.22210922,23.6075028 8.95238625,23.3587583 C8.40095263,22.85078 7.40697354,22.7149196 6.775622,24.6419403 C6.58881387,25.3177462 6.3960119,25.9955501 6.27114015,26.6843426 C6.18223147,27.1718419 6.16624789,27.6803196 6.18023352,28.1778087 C6.32758218,29.7217229 7.57879706,29.1647949 7.79907082,29.1263344 C7.77959083,29.1957631 7.67469856,29.5189312 7.65821549,29.602845 C7.57530065,30.0094274 8.27108601,30.465459 8.59725101,29.6572891 C8.76907453,29.086875 8.91542422,28.5089685 9.07276261,27.9345585 C9.0962385,27.8476478 9.11072362,27.3461628 9.35846917,27.93306 C9.50332039,28.2372476 10.0517571,29.2572 10.2295745,29.4090441 C10.7100809,29.8181239 11.3758971,29.738206 11.7580046,29.2347231 C11.9378199,28.9984658 12.7374986,27.4760295 12.7884462,27.3941136 C12.8888431,27.6948048 13.2619599,29.3376174 14.2714231,30.2651647 C14.8937839,30.8495645 15.5895692,30.3455822 15.0721007,29.7112337 C14.7259562,29.1458144 13.3818368,28.2577266 13.9957063,25.9191285 C14.1740231,25.5465113 14.8013788,24.8412356 15.1695007,24.4351527 C15.7334215,23.7228843 15.7738799,24.2618308 15.7573968,24.3837056 C15.6165415,25.442618 15.4612011,26.4990329 15.3368288,27.5594438 C15.289877,27.9580344 15.2803868,28.3676137 15.3128534,28.7677028 C15.445717,29.8895505 16.5975339,29.7217229 17.0031174,29.2482093 C17.5570484,28.6658074 18.4406409,25.3327308 18.4691117,25.2583073 C18.4691117,25.4745851 18.1324574,27.6014007 18.1459436,28.0913974 C18.1594297,28.5694065 18.2718143,28.9095571 18.68489,29.1697898 C19.1204427,29.4205323 20.2303027,28.6807921 20.143392,28.2802035 C20.0524854,27.9220713 19.5764743,28.1937922 19.2847739,28.3056773 C19.1459165,28.3291532 19.0689955,28.0659236 19.1943667,27.2302819 C19.3162416,25.9081398 19.3846713,23.5006126 19.4076477,23.1359871 C19.4306241,22.7713616 19.301257,22.6020355 19.0859781,22.5505884 C18.8367341,22.4901504 18.6908839,22.5985391 18.5650132,22.8637667 C18.3841989,23.2453748 16.845779,27.2762347 16.6934354,27.6913083 C16.6564734,27.7907063 16.3812561,28.4829952 16.2374038,28.4350445 C15.925724,28.3870937 16.7259021,23.7193879 16.6694601,23.3722444 C16.5915401,22.8947349 16.1519916,22.6100273 15.6425148,22.8652652 C15.4467159,22.9636641 15.2564114,23.080544 15.0830894,23.2139071 C14.8338454,23.4047111 14.484704,23.7198874 14.2459493,23.9241776 C14.3628292,22.8487821 14.5990865,21.0960823 14.8698085,20.5406528 C15.1095622,20.7564311 15.4037601,20.7454424 15.5531067,20.7264619 C16.0770685,20.6595307 16.4916427,20.396301 16.807818,19.9797289 C16.8208046,19.9622468 17.6269766,18.9872483 17.7973017,18.9088288 C17.8952011,19.0411929 18.1569323,19.7394756 18.9970694,19.8114018 C20.508517,19.8833279 21.660334,17.2200633 22.4040701,15.9723449 C22.4515213,15.8944249 22.5244464,15.8195018 22.5898792,15.7186055 C22.7771868,16.0407746 22.9869714,16.2026084 22.9799786,16.5577436 C22.9769816,16.7110861 23.020437,17.3784007 23.0279293,17.5322427 C23.0703857,18.3773747 22.5723972,20.531662 23.7032357,20.3428559 C24.3235985,20.2029996 24.0308992,18.9432934 23.9399925,17.6521196 C23.8410941,16.2530565 23.9160172,14.8205279 23.9160172,14.8205279 C24.3735472,14.5557998 25.7401436,13.8135621 25.8075743,13.7761006 C25.8360451,14.1172502 25.839042,14.4369219 25.8934861,14.7471033 C26.0148614,15.4343974 26.4344305,15.7845378 27.1402056,15.6396865 C27.6222105,15.5402886 28.1871303,15.3484856 29.1381535,13.8824913 C29.1681227,13.9304421 29.6026764,14.8445033 30.8124339,14.587767 C32.2904158,14.1726933 32.897792,13.0508455 32.9592289,12.9574415 C33.1815006,13.4204659 33.2739057,13.8125632 33.0541314,15.3280067 C33.0101766,16.1881232 34.0176418,16.0202956 34.0416172,15.4443871 C34.0551033,14.9648796 34.0566018,14.3015609 34.0471115,13.8215539 C33.9781823,12.9094907 33.7364306,12.3820325 33.7059619,12.1902295 C33.9931669,12.0598634 34.4207278,11.9155116 34.6819595,11.7751558 C35.409712,11.4854533 35.3857366,10.6692916 34.3852642,10.8710843 M7.6232514,28.14734 C6.27963143,29.0499129 7.37900227,25.3122519 7.69517753,24.6584234 C7.78258775,24.4781086 8.19915989,23.7798258 8.35450034,24.1354605 C8.79904375,25.5225359 8.36698751,27.6338673 7.6232514,28.14734 M11.4797904,26.5255057 C11.3039709,26.5374934 10.8863998,26.6264021 10.6226707,25.6424128 C10.1186883,24.1304657 10.9103752,23.8907119 11.1541249,24.2533395 C11.5821852,24.7398398 11.8314292,25.3012632 12.1560957,25.8337163 C12.4462977,26.266272 11.6975667,26.5110206 11.4797904,26.5255057 M17.5570484,16.3894165 C17.5675377,16.5422595 17.4291798,17.7070631 17.2933193,17.9493143 C17.0485707,18.384867 16.8852384,18.5971489 16.3333053,19.3169097 C14.8458331,20.7953911 15.7658881,17.7675011 16.0456008,17.3014797 C17.1734424,15.5258035 17.5495561,16.2820268 17.5570484,16.3894165 M34.2713812,5.0615513 C34.2628899,4.70591657 34.258894,4.34928287 34.2643884,3.99364814 C34.3777719,2.77489991 33.2019796,2.87080141 33.2779016,3.72991901 C33.2948842,4.08555374 33.3048739,4.44168796 33.3128657,4.79782217 C33.3198585,5.0960159 33.3218564,5.39470911 33.3223559,5.69290284 C33.3223559,6.05802782 33.4307446,7.82171634 33.4177579,8.59092629 C33.3458318,9.64684176 32.5301696,9.51747463 32.2424651,9.13386863 C31.4238059,8.01002293 31.0426974,4.91070623 30.7155334,3.90973432 C30.6106411,3.3508084 29.4348488,3.2549069 29.6865902,4.08905015 C29.9023686,4.60202328 30.1206444,5.11999127 30.2669941,5.65544131 C30.5077468,6.53553737 30.8503949,10.021457 32.6090885,10.4375296 C33.2789006,10.6178444 34.3537965,10.21326 34.3607894,8.72728623 C34.3433073,7.5050416 34.3013504,6.28379593 34.2713812,5.0615513 M32.0726395,0.399339839 C31.0237169,0.770958151 27.3230178,2.04964482 27.3230178,2.04964482 C26.723134,1.40181021 26.2541157,2.09409916 26.3874787,2.39129391 C25.7541292,2.62855022 25.1272731,2.81985374 24.4669513,2.99217674 C24.4329862,2.85631629 24.1003279,1.43427686 23.9699617,0.823404284 C23.8680664,0.25548759 23.1238308,-0.392347022 22.6987674,0.888337591 C22.310666,2.11307966 22.1043779,3.37478377 21.9555308,4.6469771 C21.906581,5.06504771 21.8751134,5.48461677 21.8351544,5.90568429 C21.5329648,5.9476412 21.256249,6.0090781 21.198808,6.35772001 C21.1378706,6.72434345 21.388613,6.86469929 21.6813124,6.96309822 C21.6708232,7.12493201 21.6638304,7.26878426 21.6518427,7.41213702 C21.6078878,7.94908552 21.543454,8.48503505 21.522975,9.02298252 C21.5049935,9.48350952 21.5264714,9.94603446 21.5494479,10.4070609 C21.5634335,10.6867736 21.7532385,10.8376187 22.0309533,10.8321244 C22.3471286,10.82663 22.596872,10.5778855 22.5898792,10.2572148 C22.4040701,8.94156615 22.6787879,7.17288276 22.7087571,6.84571878 C23.2352164,6.69437423 23.9055279,6.48658765 24.4349841,6.33474361 C24.4969205,6.50856507 25.0918095,8.41360841 25.5912965,8.90560308 C26.1956757,9.42157313 26.5792817,8.5100094 26.1936778,8.25826796 C26.1172563,8.17435415 26.0543209,8.07195932 26.0103661,7.96706705 C25.7156687,7.33421705 25.2521448,6.06402166 25.2331643,5.98560221 C25.339555,5.9246648 25.8655148,5.64545157 26.0288471,5.54455521 C26.2436265,5.41119218 26.2436265,4.81480473 25.5498391,4.9541616 C25.3585355,5.00710722 25.1667325,5.05405899 24.9534516,5.10950205 C24.8660414,4.7583627 24.7861235,4.43519463 24.7012107,4.09354553 C25.3550391,3.80134565 25.9963804,3.56059293 26.6721863,3.32683302 C26.8250293,3.9566861 28.7001034,10.9150392 28.7205824,10.9584946 C29.0747187,11.5094287 29.6985779,11.1013478 29.5542262,10.5718916 C29.4643185,10.2077656 27.6396926,3.54660729 27.5153203,3.02414391 C27.6162167,2.98168752 30.9582841,1.8163844 32.4952055,1.29192307 C33.3937826,1.0951252 33.1060781,-0.0137358919 32.0726395,0.399339839 M24.1557709,5.37572861 C23.76717,5.52757265 23.2257262,5.70339206 22.8376248,5.76532845 C22.7891745,5.1919174 23.0718842,2.25443448 23.3161333,1.60859781 C23.5598829,2.70197481 23.9180151,4.31032288 24.1557709,5.37572861 M8.74809608,10.3016692 C8.942896,10.4535132 9.30302611,10.4774886 9.2380928,10.251221 C9.057778,9.90857294 8.89894115,9.12188095 8.89144884,9.1043989 C8.63071664,8.67783702 8.26609114,9.01798765 8.26459268,9.19530553 C8.26059679,9.63685202 8.44940286,9.99348572 8.74809608,10.3016692 M10.2930093,9.10739582 C10.2265775,8.81020107 10.0667417,8.12040955 10.0577509,8.103427 C9.96284841,7.92860655 9.134699,7.69384767 9.37295429,8.35816536 C9.45536964,8.57244527 9.70361467,9.27921934 9.78902694,9.38960597 C9.89292023,9.52296899 10.3104913,9.54145001 10.2930093,9.10739582 M21.0759342,2.39329186 C21.1223865,2.36032572 21.1463619,2.27940883 21.1578501,2.21597398 C21.21629,1.88781104 21.0025096,1.61109525 20.6403815,1.5361722 C20.3676617,1.48022966 20.1074289,1.98970638 20.1049315,1.99869714 C19.8811613,2.83783527 19.7507952,3.69345646 19.6563922,4.55457201 C19.5465051,5.55204751 19.5180343,6.55152095 19.5939563,7.55299235 C19.6688794,9.34964701 20.1968371,10.5494147 20.02851,10.5494147 C19.7887563,10.5494147 17.4371716,5.52207829 16.7653616,4.09454451 C16.5735586,3.68746262 16.3253135,3.30635405 16.0935516,2.91875216 C15.9467024,2.57660358 14.7499316,2.24694217 15.234434,4.07156811 C15.4212421,4.83578318 17.0021184,10.5049604 17.0770414,10.8705849 C16.8697543,10.9654874 16.6125186,11.0938555 16.4112253,11.1857611 C16.3857515,11.1507971 15.9976501,10.4295379 15.0775951,10.1113647 C14.4557338,9.86861398 12.9462841,9.56392692 12.8174165,9.53495668 C13.1660584,8.94156615 13.8858191,8.9895169 14.2444508,8.63288319 C14.7968834,8.17835004 15.7059497,6.11946472 13.5546593,4.35327876 C13.4023157,4.21292292 12.2779706,3.32683302 11.9657912,4.56506124 C11.935822,4.68593709 11.5102591,6.92613619 11.7180457,8.46155916 C11.7580046,8.67683805 11.7654969,8.89861027 11.7879738,9.11538761 C11.5836837,9.25874038 11.4058663,9.38011571 11.1436356,9.27672191 C10.99329,9.21678347 10.5027938,9.27772088 10.6761158,9.86112167 C10.7565332,10.0858908 11.3773955,12.6762303 11.5232457,13.3335551 C11.5442242,13.4284577 11.7744877,14.3405209 10.958326,14.3644963 C10.1906145,14.3644963 9.48234194,11.4684708 9.43139426,11.345597 C9.08674825,10.5733901 8.35250239,11.2876565 8.48686439,11.6053302 C7.85950874,12.2162028 7.18669978,12.8250774 7.12326494,12.8655358 C6.82706916,12.2022171 6.53886517,11.55688 6.24916272,10.9080464 C6.39351446,10.7452136 8.37947469,8.59192526 9.2306005,7.74179842 C9.58373779,7.39015959 10.0587499,6.99706334 10.4423559,6.67689219 C10.5452502,6.59098043 10.6616307,6.53403891 10.8119763,6.54802455 C11.0057772,6.56550659 11.1401392,6.45661843 11.2150623,6.2812985 C11.282493,6.12495907 11.2335433,5.9551335 11.0797013,5.81627612 C10.861925,5.62047723 10.6206728,5.60099723 10.3574431,5.72337154 C9.44687836,6.08649858 7.16721979,8.46205865 4.90104737,11.0908586 C4.50645266,11.5274102 3.36462542,13.1936988 3.12537116,13.5428402 C3.00049942,13.7251529 2.41609965,14.2446194 2.7132944,14.605249 C2.82817641,14.757093 3.35213825,15.2765595 4.17928869,13.5822997 C4.54041777,12.9424568 5.53489634,11.6797538 5.60082863,11.5788574 C5.9050162,12.2421761 6.1732407,12.8265759 6.44596059,13.4209654 C6.2156971,13.5832986 6.07034639,13.7845919 6.18073301,14.0623067 C6.30710321,14.3804799 6.60230002,14.3405209 6.87052453,14.3305312 C6.92696655,14.4469116 7.7845857,16.2760329 7.83952926,16.3414657 C8.22313526,16.7880071 8.82301912,16.332475 8.64470227,15.9428751 C8.62022741,15.8419788 7.59777757,13.7756011 7.59178372,13.7486288 C8.20515373,13.0982968 8.14921119,13.0828127 8.75359043,12.4414714 C9.01232469,13.071824 10.0487602,15.009334 10.0392699,15.0517904 C9.98782276,15.2950405 9.30502406,17.3579217 8.86147962,18.8818565 C8.63321407,19.6660511 8.03083278,21.4881796 7.88498258,21.5646011 C7.71815393,21.3503212 7.62974473,21.1215561 7.61226269,20.8648198 C7.57530065,19.8114018 6.61528668,20.0996058 6.64475641,20.6939953 C6.66573486,21.2314433 6.7831143,22.2349126 7.50337453,22.4991412 C8.87096987,23.0031236 9.134699,20.8433419 9.90290997,18.3239296 C10.1666391,17.4358417 10.3784216,16.713084 10.4118872,16.6341651 C10.4338646,16.6846133 10.763526,18.9857498 10.9203649,20.1195852 C11.015767,20.8063798 11.1166633,21.4911765 11.3783945,22.1405096 C11.8464138,22.930698 12.7100268,22.355289 12.815918,21.2938791 C12.9572728,20.128576 13.5261885,14.4364224 15.9736747,12.4304827 C15.9736747,12.4304827 16.8133123,12.9009994 16.7653616,11.9744511 C16.7653616,11.9744511 17.1569594,11.7981322 17.2463675,11.7586727 C17.2743388,11.8295999 17.8527447,13.9204523 18.1084821,14.9069391 C18.2288584,15.3964364 19.2847739,15.3964364 18.9491186,14.4359229 C18.6938808,13.588793 18.3237609,12.2911258 18.0610308,11.4464933 C18.0610308,11.4464933 18.5650132,11.2546903 18.4691117,10.8705849 C18.3866963,10.5414229 17.8607365,10.6113511 17.8322658,10.6068557 C17.4661418,9.23676295 16.6190119,5.9781099 16.6454847,6.03854783 C16.9296928,6.69087782 18.5655126,9.88259961 18.898171,10.4340332 C19.1319309,10.8211356 19.8606824,12.3970171 20.7118082,12.206213 C21.2043023,12.0129116 20.9995127,10.9724802 20.9355784,10.6343275 C20.7198,9.48850439 20.5694544,8.33668742 20.488038,7.17338224 C20.3841447,5.68041566 20.5100154,4.21292292 20.8826327,2.76491017 C20.9180963,2.62605279 20.9430707,2.48719541 21.0759342,2.39329186 M12.5966432,8.48953043 C12.3264208,6.99806231 12.7809539,5.33826708 12.8418914,4.95665903 C13.5246901,5.4796219 13.9787237,6.06751807 13.977229,6.91564696 C13.9762263,7.43511342 13.8029043,7.85168556 13.3129076,8.09743315 C13.0826441,8.21281464 12.8603724,8.34417972 12.5966432,8.48953043 M15.5181426,11.6777558 C15.1709991,12.0448787 14.8238557,12.3900242 14.5026856,12.7571472 C14.0431575,13.282108 13.6915187,13.877996 13.4058122,14.5138429 C12.9777518,15.4658651 12.6645735,16.4523518 12.4867561,17.482294 C12.3234239,18.4293213 12.1506014,19.3748502 11.9782784,20.339859 C11.9548025,20.2949052 11.3649084,16.3464606 11.1985792,15.1656734 C11.1985792,15.1656734 11.5102591,15.1896488 11.9183399,14.8060428 C12.125627,14.6107434 12.4433007,14.0583108 12.3503962,13.4139726 C12.2305193,12.8405615 11.8574025,10.9110433 11.763499,10.3885799 C12.087666,10.3775912 12.0841696,10.3790897 12.1660855,10.6253368 C12.3658803,11.227718 12.5656751,11.8300993 12.7724627,12.4299832 C13.2140092,13.3090803 13.9817206,12.5648447 13.7124972,12.0209034 C13.5431711,11.633801 13.1790451,10.7067531 13.1570676,10.6303316 C13.8133935,10.6083542 15.3588062,11.1273212 15.5181426,11.6777558 M2.29822072,17.0097793 C2.26325664,17.11617 2.26025971,17.2365464 2.26225766,17.3499299 C2.26525458,17.500775 2.05996544,17.921343 2.00801879,18.0407204 C1.76476863,18.6066392 1.55898,19.1845456 1.44459748,19.7944192 C1.10944171,21.5810841 0.75980083,23.3652516 0.424645067,25.1519165 C0.205869771,26.3157212 0.0265539455,27.4845207 0.0540257293,28.6762967 C0.061518034,28.9989653 0.112965193,29.3076482 0.232342581,29.604843 C0.338733307,29.871569 0.527039898,30.0518838 0.815243885,30.1138202 C1.1444058,30.177255 1.72031429,29.793649 1.15039965,29.0768852 C1.0255279,28.969995 0.99955458,28.837631 0.996557658,28.6922803 C0.928627429,28.0659236 1.0679843,27.1828306 1.14690324,26.7093169 C1.30424164,25.7642876 1.47356772,24.6504316 1.64838816,23.7078997 C1.66037585,23.7098976 2.02000648,21.258915 2.03249365,21.2604135 C2.03249365,21.317355 1.80073169,24.001598 1.79224041,24.0575406 C1.69983532,24.6784029 1.67186405,25.2977667 1.74928453,25.9261214 C2.15237053,29.2656913 3.07941836,29.582366 3.2772152,29.6887568 C3.69128991,29.911528 4.28767736,29.8415998 4.61084543,28.8875797 C4.99145451,27.7122868 5.18775289,26.4945375 5.40652819,25.2837811 C5.81460905,23.0216046 6.19022326,20.7534342 6.5798231,18.4877613 C6.68771229,17.8609051 6.78111636,17.2335495 7.27910487,16.7565394 C7.43244738,16.6096902 7.40297764,16.4029026 7.2821018,16.2225878 C7.04484548,15.8684516 6.5913113,15.8264947 6.3305791,16.1641479 C6.200213,16.3329745 6.10680894,16.5497518 6.05885819,16.7590368 C5.81510854,17.8274395 5.57585428,18.8978401 5.3640718,19.9732356 C5.0034422,21.8038553 4.86458482,23.4132024 4.50395522,25.2438222 C4.31764658,26.1868536 4.09637385,27.3546541 3.783695,28.2672168 C3.56342124,28.7687018 3.15184397,27.9380549 3.04894965,27.6009012 C2.83916512,26.9156051 2.76024618,26.207832 2.70280518,25.4975615 C2.63237751,24.1064903 3.06393426,21.6150493 3.23226137,20.0756304 C3.32366749,19.2349938 3.35763261,18.3329203 3.40907976,17.4877883 C3.41257617,17.4308468 3.35213825,16.9323588 2.9280738,16.7305661 C2.66434468,16.61968 2.38712941,16.7395569 2.29822072,17.0097793 M4.88706173,42.3107927 C4.67178285,42.5350624 4.88756122,43.1589216 5.46596714,42.7248674 C5.99142744,42.319284 6.79260456,41.2788526 6.80708968,41.2873439 C6.78111636,41.3657634 5.99142744,43.2308477 5.98643257,44.2722781 C5.98243668,44.7997363 6.39451343,45.0474819 6.87402093,44.8177179 C7.79107903,44.295754 9.95086072,41.8872278 13.0941323,36.9637846 C13.2364861,36.7405139 13.3024183,36.3833807 13.1660584,36.1616085 C13.0132154,35.9133635 12.586154,36.0177563 12.3818638,36.2320362 C12.2674813,36.3519131 11.2465299,38.1680477 9.59073061,40.3992561 C7.95890665,42.6549393 7.11926904,43.5670025 6.99939217,43.5190517 C6.80708968,43.4226507 7.57530065,41.2873439 8.43391877,38.9951982 C8.751093,38.2159985 9.74557157,36.9463026 9.97133969,36.5921663 C10.3344667,36.0322414 9.51880449,35.144653 9.13719643,35.7964835 C9.00782931,35.9892855 7.92394256,38.1335831 7.33504742,38.9357592 C6.64925179,39.8702993 4.99744836,42.127481 4.88706173,42.3107927 M8.34301214,46.5274618 C9.08674825,46.3501439 9.82149359,44.9530788 10.1186883,44.6079333 C10.1186883,44.6079333 10.4063928,44.8386963 11.3454284,45.1229044 C11.3049699,45.2452787 10.3109908,48.1383073 10.3079939,48.2461965 C10.3010011,48.4649718 10.8384491,49.1817356 11.4143576,47.477486 C11.4698006,47.3825835 11.8638958,46.2996957 12.1775737,45.4295894 C12.2834649,45.13689 12.4647787,44.9720593 12.7669683,44.9066265 C13.3673517,44.775761 15.4916698,43.5834855 15.5106503,43.5989696 C15.4302329,43.8312311 14.5601266,45.9655389 14.1989975,46.7971848 C13.7824253,47.7566992 13.4382788,48.5583758 13.0222062,49.5173908 C12.7100268,50.2616264 13.5261885,50.6212571 13.9097945,49.9254717 C14.6295553,48.6432886 16.3652725,44.3197293 16.539094,43.911149 C16.6015298,43.7638003 16.6959329,43.6993665 16.862262,43.7108547 C17.4866208,43.7528116 18.0250677,43.7837798 18.6948798,43.6134548 C17.2933193,45.5584571 16.2334079,47.2931753 15.3812832,49.1617561 C15.158512,49.6507539 14.9687069,50.1542367 14.88779,50.6881883 C14.8618167,50.8585134 14.8937839,52.3010318 16.2194223,51.179184 C16.3887484,51.0208467 19.2433165,48.015933 19.3567,47.9100418 C19.3302272,48.016932 18.1429467,51.0018661 17.9076883,51.6047469 C17.3412701,52.9728418 18.2288584,52.8529649 18.3951876,52.4393897 C18.4481332,52.3315005 19.9430977,48.8650609 20.6338882,47.2382318 C20.8686471,46.8301509 20.6523692,45.6783339 19.7278188,46.4390526 C18.9970694,46.9979785 16.2229187,49.8979999 16.1335105,49.9784173 C16.1619813,49.7851159 16.2174244,49.6192862 16.2873525,49.4599498 C16.940182,47.9809689 17.7283725,46.5749131 18.6808941,45.2662572 C19.2153452,44.5315118 20.508517,43.182897 20.6583631,42.626968 C20.7482707,42.319284 20.6044185,41.6229992 19.8511921,42.0685415 C18.9710961,42.645449 18.0060872,42.7268654 17.0001205,42.5235742 C16.8927307,42.5020962 16.767859,42.4261742 16.709419,42.337765 C16.5675647,42.1234851 16.3892479,42.0595508 16.1579854,42.1424656 C15.9926552,42.2019046 15.8373148,42.1804266 15.6999558,42.0980113 C15.4607016,41.9556575 14.5406466,41.1544804 14.3023913,40.9197215 C14.1805165,40.7993451 14.1630344,40.688459 14.2339616,40.5281237 C14.4137769,39.9437239 14.6250599,39.2898955 14.773907,38.791907 C15.0086659,37.8743494 14.7978824,37.3758614 14.0686314,38.2494641 C13.2954255,39.3053796 10.3784216,42.8077823 10.2080965,42.9071802 C10.1506555,42.8722161 10.1116955,42.8477412 10.0717366,42.8252643 C9.77354284,42.6569372 9.57674498,42.6998931 9.37495224,42.9761094 C9.19064154,43.2283503 9.18264975,43.4960753 9.29803124,43.7802834 C9.36146609,43.9361234 9.33049789,44.0425141 9.22061076,44.1509028 C9.14169182,44.2293222 8.3330224,45.1513752 8.01335073,45.5369791 C7.64722678,45.9275779 7.88348412,46.5374515 8.34301214,46.5274618 M12.8688637,43.8197429 C12.9817477,43.1794006 13.2859353,42.6589351 13.5596541,42.0845251 C13.9617412,42.3912101 14.3348579,42.6764172 14.7319501,42.9791063 C14.1450529,43.3417338 13.5701434,43.6534137 12.8688637,43.8197429 M10.8144737,43.5999686 C11.474296,42.7183741 12.9842451,40.8857564 12.9742554,40.9127287 C12.6740637,41.6954248 12.2934547,42.8422469 11.9967594,43.6264414 C11.8728866,43.9531059 11.8329277,43.98807 11.4847852,43.9126475 C11.3164581,43.8766844 11.0062767,43.7922711 10.8144737,43.5999686 M19.8122321,52.408921 C19.4765769,53.5007995 20.3886401,53.5007995 20.6263959,52.7430778 C20.6673538,52.6276963 21.2877167,50.8814898 21.3241792,50.7171586 C21.5119863,50.7636109 21.6753186,50.9509185 21.8421472,50.9474221 C22.0918907,50.9429267 22.1937861,51.0752907 22.2941829,51.2685922 C23.3401087,53.3809226 23.7237147,53.884905 24.8081009,53.8054866 C25.2561407,53.7435502 25.7636195,53.1411689 25.6447416,52.7765434 C25.379514,51.9653765 24.8275809,53.5962015 23.7242142,52.1541826 C23.3975497,51.7041448 23.2187333,51.1881748 23.0568996,50.6542232 C23.3001497,50.4474356 24.4439749,49.9734225 24.8825245,48.7576712 C25.2826135,47.825129 25.396996,46.8486319 25.3270679,45.8461616 C25.3075879,44.9585732 24.4199995,43.1109709 23.0943611,44.3526955 C22.4280454,45.1264008 22.0559276,46.1718271 21.8831052,46.5684197 C21.8446447,46.6558299 21.8211688,46.7477356 21.7067862,46.7772053 C21.4240766,46.8491314 21.3166869,47.0704041 21.2642408,47.3281394 C21.2122941,47.5823783 21.0474634,48.3870518 20.9580553,48.4859502 C20.6204021,48.8625634 20.5564677,49.3076063 20.603919,49.7776236 C20.6258964,49.9958994 20.6074154,50.1946952 20.5324924,50.3984859 C20.2867448,51.0667995 20.0414967,51.735113 19.8122321,52.408921 M21.9899954,48.2736683 C22.3396363,47.441523 23.4599855,43.8786823 24.1557709,45.2557679 C24.2626611,45.5509648 24.3186037,45.84766 24.3475739,46.1583409 C24.4889287,48.148297 23.7716654,49.205711 22.6558115,49.8485507 C22.5629069,49.6422626 22.1902896,48.8620639 22.0544292,48.666265 C21.9630231,48.5344005 21.9250621,48.4280097 21.9899954,48.2736683 M21.5164817,49.9254717 C21.4445556,49.7336687 21.5409566,49.6048011 21.5644325,49.5898165 C21.6128827,49.6657385 21.7562355,50.0173773 21.8041862,50.0932993 C21.7802108,50.1107814 21.660334,50.2376511 21.5164817,49.9254717 M21.7792119,27.8421534 C21.6468478,27.3151947 21.5089894,26.783241 21.5404571,26.2412976 C21.561935,25.8671819 21.5164817,24.5145712 22.0883943,23.6519572 C22.7162494,22.8827472 23.74769,23.7948104 24.5318846,23.4251901 C25.667718,22.8827472 25.7096749,22.1405096 25.7156687,22.0191342 C25.7256585,21.8008584 25.5838042,21.6644985 25.3705232,21.7034584 C25.0258772,21.7234379 24.5643513,22.1270234 24.3475739,22.3308141 C23.8201157,22.8827472 22.8840771,22.1150357 22.3071696,22.0511014 C22.1183635,22.0111424 21.9755102,22.0850665 21.8741144,22.2573895 C21.468531,23.1230004 21.0689414,23.543069 21.0664439,23.3957203 C21.0364747,23.1230004 20.8446717,22.6429935 20.4550719,22.7798529 C20.2742576,22.8422888 20.2233099,23.0006261 20.2198135,23.1734486 C20.2098238,23.6829253 20.7582605,27.7342642 20.8471692,28.0369533 C20.9645486,28.6418321 21.9240631,28.7617089 21.7792119,27.8421534 M25.8849948,35.2335617 C26.0368389,34.9913105 25.8785015,34.6586522 25.611276,34.4963189 C25.3820114,34.3569621 25.1757233,34.4109067 24.9614434,34.6711394 C24.900506,34.7450635 22.0334507,39.4212606 21.2137926,40.8907512 C20.8926225,41.3832454 21.4445556,42.1989076 22.0729102,41.4501767 C22.235743,41.2239091 24.6202938,37.0327138 24.6397738,37.0412051 C24.6003143,37.3453927 24.3211011,39.730443 24.3221001,40.6265226 C24.515901,42.4631363 25.7875949,41.6954248 25.4294627,40.8967451 C25.1397603,40.3513053 25.437954,38.7619377 25.5048852,38.1215954 C25.5738144,37.4617731 25.6991857,35.529258 25.8849948,35.2335617 M37.9461069,23.9361652 C37.6883716,24.11648 37.4126548,24.886689 37.5510127,25.0550161 C37.8007562,25.3587042 38.1274207,25.3167473 38.3097334,24.9641094 C38.3706708,24.845731 38.4126277,24.7168634 38.4575816,24.5909927 C38.5769589,24.2568359 38.535002,24.1419539 38.2398052,23.944157 C38.1399078,23.8777253 38.0425079,23.8687345 37.9461069,23.9361652" id="Fill-5" fill="#AFCA0A" mask="url(#mask-2)"></path>
                </g>
                <g id="Group-10" transform="translate(0.000000, 7.845442)">
                    <mask id="mask-4" fill="white">
                        <use xlink:href="#path-3"></use>
                    </mask>
                    <g id="Clip-9"></g>
                    <path d="M95.9911078,20.0634929 C96.0120863,19.7608037 95.9076935,19.6189494 95.6055039,19.6009679 C94.9162119,19.5595105 93.9546994,19.7623022 93.9157394,18.8442451 C93.838319,18.4916073 94.2738716,16.9491915 94.4162254,16.4546994 C94.4676726,16.2763826 94.7643678,14.5301761 91.3468779,18.0445665 C90.7704699,18.6089868 90.1835727,19.3532224 89.4568192,19.9346252 C89.0971886,20.1289256 88.5597406,20.2498015 88.5597406,18.8442451 C88.487315,17.9471665 87.3135206,18.6139816 87.1691688,18.694399 C86.0917754,19.2957814 84.8520487,20.2498015 83.0828659,20.8796546 C82.367101,20.9355971 82.0394376,20.575467 82.1812919,19.8736878 C82.2562149,19.5030685 82.5409225,18.3287746 82.5359276,18.1090003 C82.5249389,17.5945287 82.2057667,17.3223083 81.7012849,17.4142139 C81.2007989,17.50562 80.8776308,17.7478712 80.6109048,18.1899172 C80.4550649,18.447153 79.5200252,20.2982517 78.7448214,21.0010299 C78.1469355,21.610404 77.4611399,21.9011054 76.6120121,21.8007086 C75.1095552,21.3886318 76.3213106,19.7892745 76.3797506,18.7588329 C76.4441844,18.3502525 76.2044307,18.1099993 75.7913549,18.1269818 C74.2614263,18.0445665 73.5826235,22.3826109 69.6806312,22.8910886 C67.3300455,23.1822895 71.226044,16.855288 72.2345082,14.9487462 C73.0496709,12.5916671 81.4590337,11.8883895 87.5522753,10.0213071 C89.005283,9.50283966 89.4468295,9.22662337 89.2849957,8.77109124 C89.0931927,8.22914787 87.8085122,8.37449858 86.2476154,8.6462195 C82.9180352,9.32801922 75.5426104,10.8644412 75.3353233,10.907397 C74.4921893,10.9173868 74.18001,10.5642495 74.3233627,9.89293899 C74.3897945,9.58325707 75.1335306,7.96242182 75.7638832,6.38703989 C76.1275097,5.24820958 75.1819808,4.42405607 73.9347618,6.51540805 C73.1550627,7.89449159 72.3638753,9.26708181 71.6036561,10.6571541 C71.282486,11.2435518 70.8249559,11.5901957 70.1861121,11.7690121 C68.1292247,12.3434221 63.2682174,13.7774492 62.9045909,13.9362861 C60.8836666,15.0876036 61.6588704,16.4207343 62.4830239,16.2269334 C62.6753264,16.2139467 66.7106817,15.1934948 68.6716676,14.6720304 C69.5597554,14.4332756 69.4768406,14.7224786 69.4293893,14.9412539 C69.3969226,15.090101 66.4089915,21.8736337 64.2851729,22.6962887 C64.1647965,22.7752077 63.0404514,23.5943663 62.9944986,21.9460593 C63.0054873,21.2148103 63.1158739,20.4945501 63.2552308,19.7777863 C63.3905917,19.080003 62.8946012,18.5955006 62.1963184,18.7378544 C62.0249943,18.7728185 61.7557708,18.965121 59.9711039,19.0130717 C59.255339,19.0949876 58.583529,19.3032737 58.0086195,19.7583063 C53.9278109,22.6972877 54.3963297,25.3370764 54.6625563,25.7806208 C55.8423445,27.7625851 58.1854379,26.9923762 58.7698377,26.8570152 C59.5605256,26.6727046 60.2288392,26.2251642 60.8516994,25.7211819 C61.5864448,25.0483729 62.4110978,25.4394712 62.6768248,25.541866 C63.2911938,25.7781234 63.8646049,25.715188 64.4070477,25.3810312 C66.1667404,24.0059436 66.1727342,24.0908564 66.6272673,24.5149208 C67.0198641,24.8820437 67.5198506,25.2162005 68.0483078,25.3255882 C69.4144047,25.7266762 72.0641831,24.2876542 72.4922435,24.1033435 C73.7524491,23.6183417 73.8248747,25.023898 75.0101573,25.0873329 C76.2244102,25.0968231 77.6939008,24.3445957 78.3811949,24.0059436 C79.1568982,23.6183417 78.9870726,24.5878459 80.3202034,24.2726696 C81.8950858,23.8366175 83.7516789,22.5104796 84.439972,22.2612356 C86.18468,21.3886318 86.3160451,22.2527443 86.2331302,22.5279616 C86.1781867,22.7117728 85.2881009,24.1033435 85.1187748,24.6847464 C85.0942999,25.0723483 85.7970781,24.9754478 86.0638041,24.9754478 C86.4998563,24.9269976 87.0572837,24.6118213 88.0752382,23.7636924 C90.1835727,21.7038081 91.5466727,20.8396956 91.88033,20.6858536 C92.2379627,20.5210229 92.6705184,20.4990455 92.9951849,20.7827541 C93.3503202,21.094434 93.7793795,21.3132093 94.2538921,21.3861344 C95.1180046,21.5179989 95.9331674,20.8986351 95.9911078,20.0634929 M57.8687632,24.4744624 C57.3797654,24.5568777 57.0855676,24.2307127 57.0840691,23.5838771 C57.1994506,21.9945095 59.2353596,21.267756 59.7218599,21.2297949 C60.0500228,21.1823437 60.2872791,21.3636575 60.4121509,21.6573558 C61.174368,23.2062649 58.7263823,24.4424952 57.8687632,24.4744624 M69.5687462,4.31616688 C69.5862282,3.9200737 69.6806312,-0.446940948 66.5338633,0.504082259 C65.5124124,0.861714935 63.9245433,2.31921794 63.3586246,2.96255717 C62.4915152,3.947046 61.6214089,4.93153484 60.7987538,5.95298571 C58.9981032,8.18868942 57.3612844,10.5417726 55.8448419,12.980268 C55.1675376,14.0696491 54.4432815,15.1295605 53.7395043,16.2024585 C53.57817,16.4492051 53.0701918,16.910731 52.7889806,16.0810832 C52.4288505,15.0436487 51.989302,14.6031012 53.4488029,10.7790289 C53.598649,10.2535686 53.3149404,9.89393797 52.7685016,9.89194002 C52.6551181,9.89144053 51.8454497,10.0362918 51.6086929,9.83799543 C51.1406736,9.70762933 50.8984224,8.68967486 50.2101293,8.6577077 C49.799551,8.59277439 48.5478367,8.59277439 48.3405496,9.35848793 C48.2716204,9.6317073 48.2241691,9.91042104 48.1497456,10.1816425 C48.0863107,10.4104075 48.2411517,10.8859191 48.3540357,11.0887108 C49.5158424,12.6066517 49.8320177,13.1001449 49.6941593,13.8219036 C49.6532014,14.2939188 48.0977989,16.527125 47.595315,17.2783535 C46.5558826,18.830759 42.4585909,24.0913558 41.6349369,25.3091051 C40.4047005,27.1811823 40.0360791,26.5578225 39.8887304,26.234155 C39.809312,26.0588351 39.5800475,25.1697482 39.4726578,24.9334909 C39.3038312,24.5623721 38.9177277,24.4524849 38.5710838,24.6712602 C37.3753119,25.6302752 37.218473,28.6017233 37.3982883,30.0697155 C37.6175631,31.5197262 38.1345321,32.0961342 38.4157433,32.2904346 C39.2658702,32.9977082 40.4091958,31.240513 40.672925,30.8923705 C43.6933227,26.8994716 49.9708751,18.6074883 50.1102319,18.4366638 C50.2211181,18.8497395 50.7775465,19.886175 50.5557743,21.1244032 C50.3714636,22.397096 50.0767663,23.644315 49.608747,24.8445822 C49.3724897,25.4504599 48.7086715,27.0058624 48.6547269,27.192171 C48.5493351,27.5557975 48.6202623,28.2960372 50.147194,27.9768651 C51.698101,27.7386098 52.37091,26.0263684 52.4957818,25.7536485 C53.2954604,24.0034461 54.0886457,22.2512458 54.8843285,20.499545 C55.438759,19.2792983 55.9262583,18.0225891 56.5611063,16.8452982 C58.1679559,13.8658584 59.966109,11.0013006 61.9465749,8.25362273 C62.7707284,7.10979755 63.5893875,5.96047801 64.5239277,4.90306408 C64.8960455,4.48199656 65.7896277,3.46554055 66.3605413,3.30920113 C67.8255366,2.83518799 66.6667268,5.20425473 68.2995498,5.56338586 C69.0173125,5.64030686 69.537778,5.00895532 69.5687462,4.31616688 M35.0002514,25.023898 C34.2005727,24.9269976 33.6846027,24.6083249 33.2620367,23.9310205 C32.9643424,23.5459161 32.3829396,22.6248621 31.4199287,23.0858886 C31.1871678,23.2062649 29.1132978,24.506929 28.3051279,25.0298919 C26.8086649,26.0418525 27.1722914,23.012464 26.171819,23.5828781 C26.0829103,23.6178422 23.2048664,25.7131901 22.1864124,26.4264575 C21.1619646,27.1811823 20.6170243,26.6142646 20.3862613,26.2121776 C19.8048585,25.2661492 21.1619646,23.739717 19.6834832,23.4245407 C17.9627505,22.9884886 16.5571942,27.8110354 15.1761127,27.4958591 C13.5038303,27.1811823 14.8124861,25.1937236 13.6726569,25.1123072 C12.2191498,24.9269976 11.3710209,28.1017368 9.60183798,28.4898382 C9.32612117,28.5587674 8.09938115,28.6591643 8.41455744,27.8110354 C10.1832408,23.4245407 11.6617223,18.8682205 13.6731563,14.8453524 C15.6850899,10.5312834 17.5751486,8.93192605 18.1325761,8.10777253 C19.4692032,6.61780288 17.9387751,3.13987504 15.4638172,6.44098449 C15.088203,7.06534321 14.7080934,7.68870296 14.3659448,8.3315427 C12.2191498,12.252016 9.91701427,18.4806186 6.81470064,24.563371 C6.68633249,24.8131145 5.31224381,27.8594856 4.75481634,27.8839605 C4.6988738,27.8674774 3.64845269,27.5712816 3.28582514,27.6507001 C2.40822652,27.843502 1.19247521,28.3684628 1.39526693,30.4018743 C1.65250272,31.5432021 2.86425813,31.4947518 2.9037176,31.9812522 C2.9921268,32.2679577 2.90571555,32.7070067 2.79183252,32.9732333 C2.47365931,33.7139725 0.246946362,38.5964577 0.0776202765,39.6618634 C-0.18910577,40.9220691 0.264428406,41.7287405 0.925749166,41.9160482 C2.20993019,42.2067496 2.16147995,41.8675979 3.01010833,39.4196122 C3.17943441,38.872674 5.50604476,33.7484371 6.18484756,32.6096068 C7.49350345,30.5012722 11.4194711,29.396407 12.073799,29.8324592 C12.4174461,29.991296 13.9398824,30.7045634 14.9458492,30.5072661 C15.9273411,30.2440364 16.5422096,29.5422572 16.8019428,29.3374676 C17.2599723,28.7320894 18.2069996,29.7395546 18.786904,29.8469443 C20.7014376,30.0412447 23.9975522,26.6482297 24.4580792,28.0532866 C24.6149181,28.2765572 24.3012403,30.1156683 24.2687736,30.5127604 C24.2423008,30.836428 24.7972308,31.5432021 25.3331804,31.0601982 C25.5909157,30.7954701 28.0054357,27.5278263 30.6377321,25.7511511 C31.3649851,25.0723483 32.462358,26.1936965 32.6496656,26.3325539 C33.3859094,26.8799916 34.112663,26.9604091 34.878876,26.4539293 C35.2914523,26.1817089 35.8728551,25.1207985 35.0002514,25.023898 M19.9706882,21.8461619 C20.3587896,20.6199213 15.5981792,21.6193948 15.7650078,21.4840338 C15.8494211,21.0160145 15.8823873,21.1763498 15.7175565,20.9690627 C15.4922879,20.6853541 14.7345662,20.7542833 14.3065058,21.0959324 C14.0462731,21.303719 13.3649729,22.6643215 13.3300088,22.8751051 C13.2735668,23.2162547 13.3155237,23.5369253 13.7146138,23.7352216 C14.2955171,24.0239251 14.5417642,24.0324164 15.3044808,23.6293304 C17.34988,22.4560355 18.2664386,23.0694055 19.7334319,22.2547422 C19.8083549,22.1183823 19.8832779,21.9815228 19.9706882,21.8461619" id="Fill-8" fill="#000000" mask="url(#mask-4)"></path>
                </g>
                <g id="Group-13" transform="translate(48.450237, 56.692640)">
                    <mask id="mask-6" fill="white">
                        <use xlink:href="#path-5"></use>
                    </mask>
                    <g id="Clip-12"></g>
                    <path d="M0.188656232,7.09549346 L2.37491074,7.09549346 C4.28894484,7.09549346 4.93228407,6.25635534 4.93228407,5.20193832 C4.93228407,4.32284124 4.36686481,3.62006306 3.57617692,3.42476366 L3.56668667,3.40528366 C4.41531504,3.11258429 4.75646465,2.55665529 4.75646465,1.7849479 C4.75646465,0.827431367 4.01572546,0.0477321934 2.78498955,0.0477321934 L0.188656232,0.0477321934 L0.188656232,7.09549346 Z M0.968355405,3.73644353 L2.31647076,3.73644353 C3.42982724,3.73644353 4.15258489,4.26440127 4.15258489,5.16297834 C4.15258489,6.04207542 3.58616666,6.43267424 2.43335071,6.43267424 L0.968355405,6.43267424 L0.968355405,3.73644353 Z M0.968355405,0.710551414 L2.6486296,0.710551414 C3.54720668,0.710551414 3.97676548,1.08167024 3.97676548,1.87285761 C3.97676548,2.46824609 3.51773694,3.0741238 2.33595075,3.0741238 L0.968355405,3.0741238 L0.968355405,0.710551414 Z M7.22892519,0.0477321934 L7.22892519,7.09549346 L11.6503839,7.09549346 L11.6503839,6.43267424 L8.00862437,6.43267424 L8.00862437,3.73644353 L10.4591075,3.73644353 L10.4591075,3.0741238 L8.00862437,3.0741238 L8.00862437,0.710551414 L11.4550845,0.710551414 L11.4550845,0.0477321934 L7.22892519,0.0477321934 Z M14.4505079,0.710551414 L15.8570633,0.710551414 C16.86303,0.710551414 17.5073682,0.993760531 17.5073682,1.94128733 C17.5073682,2.82987466 16.94095,3.23046322 15.8665535,3.23046322 L14.4505079,3.23046322 L14.4505079,0.710551414 Z M14.4505079,7.09549346 L14.4505079,3.89328244 L16.1008129,3.89328244 L17.5268482,7.09549346 L18.3749771,7.09549346 L16.88251,3.73694302 C17.7121579,3.46372364 18.2875669,2.89830438 18.2875669,1.90182786 C18.2875669,0.730031406 17.4584185,0.0477321934 15.9349832,0.0477321934 L13.6703093,0.0477321934 L13.6703093,7.09549346 L14.4505079,7.09549346 Z M24.7883899,7.09549346 L24.7883899,6.43267424 L21.4493195,6.43267424 L21.4493195,0.0477321934 L20.6696203,0.0477321934 L20.6696203,7.09549346 L24.7883899,7.09549346 Z M26.8188045,7.09549346 L27.5985037,7.09549346 L27.5985037,0.0477321934 L26.8188045,0.0477321934 L26.8188045,7.09549346 Z M30.998012,7.09549346 L30.998012,0.807951375 L31.017492,0.807951375 L34.5918209,7.09549346 L35.2351601,7.09549346 L35.2351601,0.0477321934 L34.5333809,0.0477321934 L34.5333809,5.47465822 L34.4944209,5.47465822 L31.4180806,0.0477321934 L30.2962328,0.0477321934 L30.2962328,7.09549346 L30.998012,7.09549346 Z" id="Fill-11" fill="#000000" mask="url(#mask-6)"></path>
                </g>
            </g>
        </g>
    </g>
</svg>