<svg width="74" height="74" viewBox="0 0 74 74" fill="none" xmlns="http://www.w3.org/2000/svg">
<rect width="74" height="74" fill="white"/>
<g filter="url(#filter0_i_1228_7641)">
<path fill-rule="evenodd" clip-rule="evenodd" d="M23.9835 37.8432C23.9835 37.8432 23.131 37.3295 22.2915 37.253C21.5089 37.1787 20.3809 38.1274 20.4334 38.8269C20.4881 39.6073 21.78 40.6151 22.7091 40.1998C23.7868 39.7188 24.2087 39.1177 24.2087 39.1177L23.9835 37.8432ZM25.3717 36.7349C25.3717 36.7349 25.5815 35.7621 25.3848 34.9423C25.2012 34.1772 23.9376 33.4187 23.2927 33.6919C22.5714 33.998 22.038 35.5457 22.7309 36.2911C23.5332 37.1546 24.2393 37.3601 24.2393 37.3601L25.3717 36.7349ZM26.7401 37.7995C26.7401 37.7995 27.7282 37.6793 28.4365 37.2267C29.0989 36.8027 29.4071 35.3621 28.9393 34.8418C28.4146 34.2603 26.7751 34.2603 26.2964 35.1588C25.7433 36.1993 25.7783 36.9316 25.7783 36.9316L26.7401 37.7995ZM26.1521 39.4106C26.1521 39.4106 26.5281 40.3331 27.1533 40.8971C27.7348 41.4261 29.2082 41.3431 29.5842 40.7528C30.0082 40.0948 29.5776 38.5143 28.5851 38.2892C27.4353 38.0268 26.7358 38.2542 26.7358 38.2542L26.1521 39.4106ZM24.5191 39.4653C24.5191 39.4653 23.7933 40.1473 23.4917 40.9321C23.2075 41.6666 23.8174 43.0088 24.5038 43.1509C25.2689 43.3083 26.5893 42.3377 26.4406 41.3299C26.2701 40.1626 25.8067 39.5942 25.8067 39.5942L24.5191 39.4653ZM38.9557 36.8682C38.9557 36.8682 38.5272 36.7436 38.1556 36.8048C37.8058 36.8617 37.4255 37.4038 37.5282 37.7011C37.6419 38.0334 38.3152 38.322 38.6715 38.0356C39.0869 37.7055 39.2005 37.3973 39.2005 37.3973L38.9557 36.8682ZM39.4323 36.2299C39.4323 36.2299 39.4126 35.784 39.2355 35.4517C39.0672 35.1391 38.4332 34.9533 38.1862 35.1456C37.9064 35.3599 37.8517 36.0922 38.2365 36.337C38.6824 36.6212 39.0125 36.63 39.0125 36.63L39.4323 36.2299ZM40.1471 36.536C40.1471 36.536 40.5624 36.372 40.8182 36.0944C41.0587 35.8342 41.0281 35.1762 40.7657 35.0014C40.4706 34.809 39.7602 34.9948 39.6552 35.4386C39.5328 35.9545 39.6334 36.2693 39.6334 36.2693L40.1471 36.536ZM40.0749 37.3033C40.0749 37.3033 40.3438 37.6596 40.6805 37.8345C40.9931 37.9962 41.6205 37.7929 41.7188 37.4934C41.8281 37.1612 41.4609 36.5228 41.004 36.5381C40.7237 36.5362 40.4473 36.6038 40.1996 36.7349L40.0749 37.3033ZM39.3732 37.5109C39.3732 37.5109 39.1371 37.8913 39.0956 38.2651C39.0563 38.6149 39.4716 39.1308 39.7864 39.1133C40.1362 39.0936 40.5996 38.5231 40.4203 38.1033C40.2127 37.6159 39.9482 37.4213 39.9482 37.4213L39.3732 37.5109ZM32.8107 39.2772C32.8107 39.2772 32.3823 39.1526 32.0107 39.2139C31.6609 39.2707 31.2805 39.8106 31.3833 40.1101C31.4969 40.4424 32.1702 40.731 32.5266 40.4446C32.7533 40.2783 32.9351 40.0582 33.0556 39.8041L32.8107 39.2772ZM33.2873 38.6389C33.2873 38.6389 33.2676 38.1908 33.0906 37.8585C32.9222 37.5481 32.2883 37.3623 32.0413 37.5525C31.7614 37.7689 31.7046 38.5012 32.0915 38.746C32.5375 39.0302 32.8676 39.039 32.8676 39.039L33.2873 38.6389ZM34.0021 38.945C34.0021 38.945 34.4175 38.781 34.6733 38.5034C34.9137 38.2433 34.8831 37.5831 34.6186 37.4104C34.3257 37.218 33.6152 37.4038 33.5103 37.8476C33.3879 38.3635 33.4884 38.6783 33.4884 38.6783L34.0021 38.945ZM33.9322 39.7101C33.9322 39.7101 34.1989 40.0686 34.5355 40.2435C34.8481 40.4052 35.4755 40.1998 35.5739 39.9025C35.6832 39.568 35.3159 38.9319 34.8591 38.9472C34.33 38.9646 34.0524 39.1439 34.0524 39.1439L33.9322 39.7101ZM33.2283 39.9199C33.2283 39.9199 32.9922 40.2981 32.9507 40.6741C32.9113 41.0239 33.3267 41.5376 33.6414 41.5201C33.9912 41.5026 34.4546 40.9299 34.2754 40.5102C34.0677 40.0227 33.8032 39.8281 33.8032 39.8281L33.2283 39.9199Z" fill="#2F99C6"/>
<path fill-rule="evenodd" clip-rule="evenodd" d="M30.6531 35.2287C30.6531 35.2287 30.3208 34.8046 29.9099 34.6057C29.5273 34.4177 28.7731 34.6844 28.6638 35.0473C28.5436 35.4539 29.007 36.2124 29.5579 36.1796C30.1962 36.1425 30.5241 35.9173 30.5241 35.9173L30.6531 35.2287ZM31.5713 34.9336C31.5713 34.9336 31.8642 34.4789 31.921 34.0264C31.9735 33.6023 31.4794 32.9771 31.1013 32.9902C30.6772 33.0077 30.1088 33.6897 30.3165 34.2013C30.5569 34.7915 30.8761 35.032 30.8761 35.032L31.5713 34.9336ZM32.0609 35.7359C32.0609 35.7359 32.5856 35.8627 33.0315 35.7687C33.4491 35.6812 33.8819 35.0101 33.742 34.6538C33.589 34.2603 32.7583 33.9455 32.3429 34.3106C31.862 34.7325 31.7396 35.1107 31.7396 35.1107L32.0609 35.7359ZM31.4554 36.4398C31.4554 36.4398 31.4685 36.9797 31.6762 37.3863C31.8729 37.7645 32.6337 38.005 32.9375 37.7798C33.2786 37.5262 33.3638 36.6431 32.9026 36.337C32.3692 35.9851 31.9713 35.9654 31.9713 35.9654L31.4554 36.4398ZM30.6138 36.1534C30.6138 36.1534 30.1175 36.3611 29.8137 36.6999C29.5295 37.0191 29.5798 37.817 29.9011 38.0203C30.2596 38.2476 31.1144 38.0072 31.2346 37.4694C31.3701 36.8442 31.2434 36.466 31.2434 36.466L30.6138 36.1534ZM31.4882 28.7099C31.4882 28.7099 30.9067 27.9011 30.1678 27.4989C29.477 27.1229 28.067 27.5513 27.8375 28.2115C27.5817 28.9526 28.3709 30.3866 29.3896 30.3713C30.5679 30.356 31.1931 29.9713 31.1931 29.9713L31.4882 28.7099ZM33.202 28.2399C33.202 28.2399 33.7792 27.4267 33.9212 26.5982C34.0524 25.8222 33.1933 24.6264 32.4938 24.6221C31.7112 24.6199 30.6072 25.8309 30.9504 26.7862C31.3461 27.9011 31.9123 28.3667 31.9123 28.3667L33.202 28.2399ZM34.0393 29.7592C34.0393 29.7592 34.9924 30.0369 35.8231 29.9013C36.5991 29.7745 37.4495 28.57 37.2243 27.9077C36.973 27.1644 35.469 26.5195 34.6754 27.1557C33.7529 27.8946 33.4972 28.581 33.4972 28.581L34.0393 29.7592ZM32.861 31.0097C32.861 31.0097 32.8435 32.0021 33.1933 32.7672C33.5212 33.4821 34.905 33.987 35.4864 33.5957C36.1357 33.1585 36.363 31.5365 35.5411 30.9375C34.5858 30.2424 33.8557 30.1768 33.8557 30.1768L32.861 31.0097Z" fill="#2F99C6"/>
<path fill-rule="evenodd" clip-rule="evenodd" d="M31.3394 30.4107C31.3394 30.4107 30.4038 30.7517 29.8158 31.355C29.2671 31.9169 29.2955 33.3881 29.8704 33.7903C30.5131 34.2384 32.1067 33.8668 32.369 32.8831C32.6751 31.7442 32.474 31.0381 32.474 31.0381L31.3394 30.4107ZM40.0748 28.1306C40.0748 28.1306 40.0092 27.136 39.5939 26.4037C39.207 25.7194 37.7839 25.3347 37.2395 25.7741C36.6296 26.266 36.54 27.9011 37.4122 28.4279C38.4222 29.04 39.1545 29.0422 39.1545 29.0422L40.0748 28.1306ZM41.7777 28.6378C41.7777 28.6378 42.6959 28.2552 43.2555 27.6257C43.778 27.0398 43.6818 25.5708 43.0894 25.1948C42.427 24.7795 40.8509 25.221 40.6344 26.2157C40.3831 27.3677 40.6148 28.0629 40.6148 28.0629L41.7777 28.6378ZM41.6816 30.3691C41.6816 30.3691 42.3439 31.1124 43.12 31.4359C43.8457 31.7398 45.2054 31.1692 45.365 30.4872C45.5443 29.7243 44.6087 28.3799 43.5987 28.4979C42.427 28.6378 41.8455 29.0859 41.8455 29.0859L41.6816 30.3691ZM40.0224 30.8064C40.0224 30.8064 39.4802 31.6414 39.3731 32.4765C39.2704 33.2569 40.1798 34.4177 40.8793 34.3915C41.6619 34.363 42.7134 33.1083 42.333 32.1639C41.8914 31.0709 41.3056 30.6271 41.3056 30.6271L40.0224 30.8064ZM39.0474 29.4947C39.0474 29.4947 38.0724 29.2892 37.2548 29.4882C36.4897 29.6762 35.7355 30.9397 36.011 31.5846C36.3192 32.3038 37.8691 32.8328 38.6124 32.1377C39.4737 31.331 39.677 30.6271 39.677 30.6271L39.0474 29.4947ZM36.5881 33.9827C36.5881 33.9827 36.5531 33.4449 36.3258 33.047C36.1181 32.6754 35.3464 32.4677 35.0513 32.706C34.7212 32.9727 34.6731 33.8602 35.1453 34.1466C35.6918 34.4767 36.0897 34.4789 36.0897 34.4789L36.5881 33.9827Z" fill="#2F99C6"/>
<path fill-rule="evenodd" clip-rule="evenodd" d="M37.5106 34.2603C37.5106 34.2603 38.009 34.0526 38.3129 33.7116C38.5971 33.3924 38.5446 32.5967 38.2233 32.3934C37.8647 32.1661 37.01 32.4065 36.8898 32.9443C36.7542 33.5695 36.881 33.9499 36.881 33.9499L37.5106 34.2603ZM37.4603 35.1981C37.4603 35.1981 37.8188 35.6003 38.2407 35.7774C38.6342 35.9414 39.3709 35.6309 39.4562 35.2615C39.5545 34.8483 39.0474 34.1182 38.4987 34.1838C37.8647 34.2581 37.5478 34.5008 37.5478 34.5008L37.4603 35.1981ZM36.5597 35.4364C36.5597 35.4364 36.2667 35.8867 36.2077 36.3414C36.1531 36.7633 36.6449 37.3907 37.0253 37.3798C37.4494 37.3645 38.0199 36.6824 37.8123 36.1709C37.5718 35.5785 37.2548 35.338 37.2548 35.338L36.5597 35.4364ZM36.0307 34.7237C36.0307 34.7237 35.5038 34.6122 35.0601 34.7194C34.6447 34.8221 34.2359 35.5063 34.3846 35.8561C34.5507 36.2474 35.3901 36.5338 35.7946 36.1578C36.2624 35.7206 36.3717 35.338 36.3717 35.338L36.0307 34.7237ZM29.654 40.731C29.654 40.731 29.3195 40.3069 28.9107 40.1079C28.526 39.9199 27.774 40.1866 27.6647 40.5495C27.5423 40.9561 28.0057 41.7147 28.5566 41.6819C29.1949 41.6447 29.525 41.4196 29.525 41.4196L29.654 40.731ZM30.5699 40.4358C30.5699 40.4358 30.8629 39.9812 30.9197 39.5286C30.9744 39.1067 30.4781 38.4793 30.0999 38.4925C29.6758 38.5099 29.1075 39.192 29.3152 39.7035C29.5556 40.2959 29.8748 40.5342 29.8748 40.5342L30.5699 40.4358ZM31.0596 41.2381C31.0596 41.2381 31.5843 41.3671 32.0302 41.2731C32.4477 41.1857 32.8806 40.5124 32.7429 40.1582C32.5876 39.7647 31.757 39.4499 31.3438 39.8128C30.8629 40.2347 30.7383 40.6129 30.7383 40.6129L31.0596 41.2381ZM30.4541 41.9442C30.4541 41.9442 30.4672 42.482 30.6749 42.8886C30.8716 43.269 31.6324 43.5072 31.9362 43.2821C32.2772 43.0285 32.3625 42.1453 31.9034 41.8393C31.37 41.4873 30.9722 41.4677 30.9722 41.4677L30.4541 41.9442ZM29.6146 41.6557C29.6146 41.6557 29.1162 41.8633 28.8124 42.2022C28.5282 42.5213 28.5785 43.3192 28.8998 43.5225C29.2583 43.7499 30.1131 43.5094 30.2333 42.9717C30.3688 42.3464 30.2442 41.9683 30.2442 41.9683L29.6146 41.6557Z" fill="#2F99C6"/>
<path fill-rule="evenodd" clip-rule="evenodd" d="M35.1454 40.3047C35.1454 40.3047 34.7585 39.815 34.2841 39.5833C33.8426 39.3691 32.9725 39.6751 32.8457 40.0948C32.7058 40.5648 33.2392 41.4414 33.8775 41.4064C34.6142 41.3627 34.9946 41.1026 34.9946 41.1026L35.1454 40.3047ZM36.2057 39.9637C36.2057 39.9637 36.5445 39.439 36.6101 38.9144C36.6713 38.4269 36.0986 37.7011 35.6613 37.7186C35.1695 37.7383 34.5137 38.5274 34.7541 39.1177C35.034 39.8019 35.4012 40.0795 35.4012 40.0795L36.2057 39.9637ZM36.7719 40.8905C36.7719 40.8905 37.3774 41.0392 37.8933 40.9299C38.3742 40.8293 38.8748 40.0533 38.7152 39.6445C38.536 39.1854 37.5763 38.8226 37.0976 39.2445C36.5401 39.7319 36.398 40.1692 36.398 40.1692L36.7719 40.8905ZM36.0701 41.7059C36.0701 41.7059 36.0854 42.329 36.3259 42.799C36.5511 43.2362 37.432 43.5138 37.784 43.2536C38.1775 42.9607 38.2758 41.9377 37.7446 41.5857C37.1282 41.1791 36.6691 41.1572 36.6691 41.1572L36.0701 41.7059ZM35.0995 41.3758C35.0995 41.3758 34.5246 41.6163 34.1727 42.0098C33.8447 42.3749 33.9038 43.2974 34.2732 43.5313C34.6886 43.7936 35.6766 43.5182 35.8144 42.8951C35.9718 42.1737 35.8275 41.7365 35.8275 41.7365L35.0995 41.3758Z" fill="#2F99C6"/>
<path fill-rule="evenodd" clip-rule="evenodd" d="M39.1284 40.5539C39.1284 40.5539 38.5294 40.379 38.0091 40.4664C37.5217 40.5451 36.9904 41.2993 37.1325 41.7147C37.2899 42.1803 38.2343 42.5847 38.7305 42.1847C39.3076 41.7212 39.4672 41.2884 39.4672 41.2884L39.1284 40.5539ZM39.7929 39.6598C39.7929 39.6598 39.7645 39.0368 39.5153 38.5712C39.2814 38.1383 38.3961 37.8782 38.0507 38.1471C37.6594 38.4466 37.5829 39.4696 38.1206 39.8106C38.7458 40.2063 39.2049 40.2194 39.2049 40.2194L39.7929 39.6598ZM40.792 40.0883C40.792 40.0883 41.3713 39.8587 41.7298 39.4718C42.0642 39.1089 42.0205 38.1864 41.6533 37.9459C41.2423 37.6771 40.2498 37.9372 40.1012 38.558C39.9328 39.2772 40.0706 39.7166 40.0706 39.7166L40.792 40.0883ZM40.6914 41.1594C40.6914 41.1594 41.0674 41.6578 41.5352 41.9027C41.9724 42.1278 42.8512 41.8437 42.9867 41.4261C43.1398 40.9605 42.626 40.0708 41.9877 40.0926C41.2488 40.1145 40.8619 40.3659 40.8619 40.3659L40.6914 41.1594ZM39.7099 41.4524C39.7099 41.4524 39.3798 41.9814 39.3208 42.506C39.2661 42.9957 39.8476 43.7127 40.287 43.6865C40.7767 43.6624 41.4215 42.8623 41.1723 42.2765C40.8838 41.5966 40.5121 41.3234 40.5121 41.3234L39.7099 41.4524ZM41.5899 33.3662C41.5899 33.3662 40.9909 33.1913 40.4706 33.2788C39.9853 33.3575 39.4519 34.1116 39.5962 34.527C39.7536 34.9926 40.6958 35.397 41.192 34.997C41.7691 34.5335 41.9309 34.1029 41.9309 34.1029L41.5899 33.3662ZM42.2566 32.4743C42.2566 32.4743 42.2282 31.8491 41.979 31.3857C41.7451 30.9506 40.8597 30.6905 40.5121 30.9594C40.123 31.2589 40.0465 32.2819 40.5843 32.6251C41.2073 33.0186 41.6686 33.0339 41.6686 33.0339L42.2566 32.4743ZM43.2556 32.9006C43.2556 32.9006 43.8349 32.671 44.1934 32.2841C44.5279 31.9212 44.4842 30.9987 44.1169 30.7583C43.7059 30.4894 42.7135 30.7495 42.5648 31.3704C42.3965 32.0917 42.5342 32.529 42.5342 32.529L43.2556 32.9006ZM43.1573 33.9717C43.1573 33.9717 43.5289 34.4702 43.9989 34.715C44.4361 34.9423 45.3127 34.656 45.4504 34.2384C45.6012 33.7728 45.0897 32.8831 44.4514 32.9049C43.7125 32.929 43.3256 33.1782 43.3256 33.1782L43.1573 33.9717ZM42.1735 34.2669C42.1735 34.2669 41.8413 34.7915 41.7844 35.3161C41.7298 35.808 42.3113 36.525 42.7507 36.501C43.2403 36.4747 43.8852 35.6768 43.636 35.0888C43.3453 34.4089 42.9758 34.1379 42.9758 34.1379L42.1735 34.2669ZM21.4521 43.7696C21.4521 43.7696 20.8837 42.952 20.1536 42.5366C19.4694 42.1497 18.0506 42.5519 17.8102 43.2099C17.5413 43.9466 18.3064 45.3938 19.3251 45.396C20.5055 45.4003 21.1351 45.0243 21.1351 45.0243L21.4521 43.7696ZM23.1747 43.328C23.1747 43.328 23.7649 42.5279 23.9201 41.6994C24.0666 40.9277 23.2272 39.7166 22.5276 39.7013C21.745 39.6838 20.6214 40.8752 20.9471 41.8393C21.3253 42.9563 21.8827 43.4351 21.8827 43.4351L23.1747 43.328ZM23.9857 44.8626C23.9857 44.8626 24.9344 45.1577 25.7673 45.0375C26.5456 44.9216 27.4156 43.7324 27.2014 43.0656C26.9609 42.3224 25.47 41.6491 24.6656 42.2721C23.7321 42.9935 23.4632 43.6756 23.4632 43.6756L23.9857 44.8626ZM22.7878 46.0933C22.7878 46.0933 22.7506 47.0858 23.0894 47.8574C23.4042 48.5788 24.7792 49.1035 25.3673 48.7231C26.0231 48.2968 26.2789 46.6792 25.4657 46.0649C24.5257 45.3566 23.7933 45.2779 23.7933 45.2779L22.7878 46.0933ZM21.275 45.4681C21.275 45.4681 20.335 45.7938 19.7361 46.3862C19.1764 46.9393 19.1808 48.4127 19.747 48.8215C20.3809 49.2805 21.9833 48.9373 22.2609 47.958C22.5866 46.8234 22.3965 46.1152 22.3965 46.1152L21.275 45.4681ZM52.9004 37.0169C52.9004 37.0169 51.9954 36.6059 51.1516 36.6234C50.3668 36.6409 49.3569 37.7142 49.4858 38.4006C49.6323 39.1701 51.0314 40.0227 51.9058 39.5046C52.9223 38.9012 53.272 38.2586 53.272 38.2586L52.9004 37.0169ZM54.153 35.7555C54.153 35.7555 54.2492 34.7653 53.9606 33.9739C53.6896 33.2372 52.3495 32.6251 51.7396 32.9727C51.0598 33.3596 50.7056 34.9576 51.4773 35.6178C52.3736 36.3829 53.0993 36.5075 53.0993 36.5075L54.153 35.7555ZM55.6352 36.6584C55.6352 36.6584 56.6014 36.4245 57.2528 35.8933C57.8649 35.397 58.0026 33.9302 57.478 33.4668C56.8899 32.9487 55.2635 33.1367 54.8919 34.0832C54.4591 35.1806 54.5793 35.9064 54.5793 35.9064L55.6352 36.6584ZM55.2351 38.3263C55.2351 38.3263 55.716 39.1985 56.4003 39.6882C57.0386 40.1473 58.4901 39.8937 58.7983 39.2663C59.1437 38.5624 58.536 37.0431 57.5239 36.9316C56.35 36.8048 55.6832 37.1109 55.6832 37.1109L55.2351 38.3263ZM53.6174 38.5668C53.6174 38.5668 52.9769 39.3275 52.7649 40.1407C52.5681 40.9058 53.3267 42.1672 54.0262 42.2284C54.8045 42.2983 56.0046 41.1835 55.7423 40.1998C55.4384 39.0586 54.9116 38.5471 54.9116 38.5471L53.6174 38.5668Z" fill="#2F99C6"/>
<path fill-rule="evenodd" clip-rule="evenodd" d="M30.0824 45.4419C30.0824 45.4419 29.514 44.6243 28.7817 44.2089C28.0975 43.822 26.6788 44.2242 26.4383 44.8822C26.1694 45.6189 26.9345 47.0661 27.9532 47.0683C29.1337 47.0727 29.7632 46.6967 29.7632 46.6967L30.0824 45.4419ZM31.8028 45.0003C31.8028 45.0003 32.3931 44.2002 32.5483 43.3717C32.6947 42.6 31.8553 41.389 31.1558 41.3737C30.3732 41.3562 29.2495 42.5476 29.5753 43.5116C29.9534 44.6309 30.5109 45.1074 30.5109 45.1074L31.8028 45.0003ZM32.6138 46.5349C32.6138 46.5349 33.5626 46.83 34.3955 46.7098C35.1737 46.5939 36.0437 45.4047 35.8317 44.738C35.5912 43.9947 34.0982 43.3214 33.2937 43.9444C32.3603 44.6658 32.0914 45.3479 32.0914 45.3479L32.6138 46.5349ZM31.4159 47.7634C31.4159 47.7634 31.3809 48.7581 31.7176 49.5298C32.0324 50.2512 33.4074 50.7758 33.9954 50.3954C34.6512 49.9692 34.907 48.3515 34.0938 47.7372C33.1538 47.0289 32.4237 46.9502 32.4237 46.9502L31.4159 47.7634ZM29.9032 47.1426C29.9032 47.1426 28.9632 47.4661 28.3642 48.0586C27.8046 48.6116 27.8089 50.085 28.3773 50.4938C29.0113 50.9529 30.6114 50.6097 30.8912 49.6303C31.2148 48.4958 31.0268 47.7875 31.0268 47.7875L29.9032 47.1426ZM26.6962 51.0228C26.6962 51.0228 26.1279 50.2052 25.3955 49.7899C24.7113 49.403 23.2948 49.8052 23.0543 50.4632C22.7854 51.1977 23.5505 52.6449 24.567 52.6492C25.7475 52.6514 26.3793 52.2776 26.3793 52.2776L26.6962 51.0228Z" fill="#2F99C6"/>
<path fill-rule="evenodd" clip-rule="evenodd" d="M28.4168 50.5812C28.4168 50.5812 29.007 49.779 29.1644 48.9526C29.3087 48.181 28.4714 46.9677 27.7697 46.9524C26.9871 46.9371 25.8657 48.1285 26.1914 49.0926C26.5674 50.2096 27.127 50.6884 27.127 50.6884L28.4168 50.5812ZM29.2278 52.1137C29.2278 52.1137 30.1765 52.411 31.0094 52.2885C31.7876 52.1749 32.6599 50.9857 32.4456 50.3189C32.2052 49.5735 30.7121 48.9002 29.9098 49.5232C28.9742 50.2446 28.7075 50.9288 28.7075 50.9288L29.2278 52.1137ZM28.0298 53.3444C28.0298 53.3444 27.9949 54.3369 28.3315 55.1085C28.6463 55.8299 30.0235 56.3568 30.6094 55.9742C31.2652 55.5479 31.5209 53.9302 30.7099 53.3182C29.7677 52.6077 29.0376 52.529 29.0376 52.529L28.0298 53.3444ZM26.5171 52.7214C26.5171 52.7214 25.5771 53.0449 24.9781 53.6395C24.4207 54.1904 24.4229 55.6638 24.9913 56.0748C25.6252 56.5338 27.2276 56.1884 27.5052 55.2113C27.8287 54.0745 27.6407 53.3663 27.6407 53.3663L26.5171 52.7214ZM36.022 51.7224C36.022 51.7224 35.2766 51.0644 34.4655 50.8348C33.7092 50.6228 32.4282 51.3529 32.3516 52.0481C32.2664 52.8263 33.355 54.0505 34.3431 53.81C35.4908 53.5324 36.0154 53.0187 36.0154 53.0187L36.022 51.7224ZM37.5894 50.8829C37.5894 50.8829 37.9719 49.9648 37.926 49.1232C37.8823 48.3384 36.7784 47.3634 36.0963 47.5142C35.3312 47.6847 34.5246 49.11 35.0711 49.9692C35.705 50.9638 36.3608 51.2939 36.3608 51.2939L37.5894 50.8829ZM38.7414 52.1792C38.7414 52.1792 39.7361 52.2404 40.5143 51.9213C41.2423 51.6262 41.8041 50.2643 41.439 49.6675C41.028 49.0007 39.4169 48.7056 38.7851 49.5013C38.0506 50.4238 37.9545 51.1518 37.9545 51.1518L38.7414 52.1792ZM37.8736 53.657C37.8736 53.657 38.0747 54.632 38.5862 55.3009C39.065 55.9261 40.5274 56.1097 41.0062 55.5982C41.5396 55.0276 41.404 53.3947 40.4684 52.9946C39.3841 52.529 38.6562 52.6274 38.6562 52.6274L37.8736 53.657ZM36.2559 53.4165C36.2559 53.4165 35.4187 53.9543 34.9793 54.6735C34.5683 55.3424 34.9246 56.7721 35.5739 57.0344C36.2996 57.3295 37.7708 56.6147 37.808 55.596C37.8517 54.4177 37.4998 53.775 37.4998 53.775L36.2559 53.4165Z" fill="#2F99C6"/>
<path fill-rule="evenodd" clip-rule="evenodd" d="M43.9944 50.8523C43.9944 50.8523 43.2468 50.1943 42.4358 49.9648C41.6794 49.7527 40.4006 50.4829 40.3241 51.178C40.2366 51.9563 41.3253 53.1804 42.3134 52.94C43.461 52.6624 43.9857 52.1464 43.9857 52.1464L43.9944 50.8523ZM45.5618 50.0129C45.5618 50.0129 45.9422 49.0947 45.8963 48.2531C45.8526 47.4683 44.7508 46.4934 44.0666 46.6442C43.3015 46.8147 42.4948 48.24 43.0413 49.0991C43.6753 50.0938 44.3311 50.4238 44.3311 50.4238L45.5618 50.0129ZM46.7117 51.3092C46.7117 51.3092 47.7063 51.3704 48.4846 51.0512C49.2125 50.7561 49.7743 49.3942 49.4093 48.7974C48.9983 48.1307 47.3872 47.8334 46.7554 48.6291C46.0209 49.5538 45.9247 50.2818 45.9247 50.2818L46.7117 51.3092ZM45.8438 52.787C45.8438 52.787 46.0449 53.7619 46.5565 54.4309C47.0352 55.0561 48.4977 55.2397 48.9764 54.7282C49.512 54.1576 49.3743 52.5246 48.4387 52.1246C47.3544 51.659 46.6264 51.7551 46.6264 51.7551L45.8438 52.787ZM44.2262 52.5443C44.2262 52.5443 43.3889 53.0843 42.9495 53.8013C42.5407 54.4724 42.8949 55.9021 43.5441 56.1666C44.2699 56.4595 45.7433 55.7425 45.7804 54.726C45.8242 53.5477 45.47 52.9028 45.47 52.9028L44.2262 52.5443ZM38.7283 45.1227C38.7283 45.1227 37.9807 44.4669 37.1696 44.2374C36.4133 44.0231 35.1344 44.7533 35.0579 45.4484C34.9705 46.2267 36.0591 47.4508 37.0472 47.2104C38.1949 46.9327 38.7195 46.419 38.7195 46.419L38.7283 45.1227ZM40.2935 44.2855C40.2935 44.2855 40.676 43.3673 40.6301 42.5257C40.5864 41.7387 39.4846 40.7638 38.8004 40.9168C38.0353 41.0851 37.2308 42.5126 37.7752 43.3695C38.4091 44.3642 39.0649 44.6942 39.0649 44.6942L40.2935 44.2855ZM41.4455 45.5796C41.4455 45.5796 42.4402 45.6408 43.2184 45.3238C43.9485 45.0265 44.5082 43.6646 44.1431 43.0678C43.7321 42.4011 42.121 42.106 41.4892 42.9017C40.7547 43.8242 40.6585 44.5522 40.6585 44.5522L41.4455 45.5796Z" fill="#2F99C6"/>
<path fill-rule="evenodd" clip-rule="evenodd" d="M40.5777 47.0595C40.5777 47.0595 40.781 48.0345 41.2925 48.7013C41.7691 49.3265 43.2316 49.5101 43.7103 48.9986C44.2459 48.4302 44.1082 46.7972 43.1725 46.3972C42.0883 45.9294 41.3603 46.0255 41.3603 46.0255L40.5777 47.0595ZM38.96 46.8147C38.96 46.8147 38.1228 47.3547 37.6834 48.0739C37.2746 48.745 37.6287 50.1725 38.278 50.437C39.0038 50.7299 40.4772 50.0151 40.5143 48.9986C40.558 47.8181 40.2039 47.1754 40.2039 47.1754L38.96 46.8147Z" fill="#2F99C6"/>
<path fill-rule="evenodd" clip-rule="evenodd" d="M45.0897 44.9609C45.0897 44.9609 44.3421 44.3029 43.5333 44.0734C42.7769 43.8614 41.4959 44.5893 41.4194 45.2867C41.3319 46.0649 42.4206 47.2869 43.4087 47.0486C44.5563 46.7688 45.081 46.2551 45.081 46.2551L45.0897 44.9609ZM46.6549 44.1215C46.6549 44.1215 47.0375 43.2034 46.9916 42.3617C46.9479 41.5748 45.8461 40.5998 45.1619 40.7528C44.3968 40.9233 43.5923 42.3486 44.1388 43.2056C44.7728 44.2024 45.4286 44.5325 45.4286 44.5325L46.6549 44.1215ZM47.8092 45.4156C47.8092 45.4156 48.8016 45.479 49.5798 45.1599C50.31 44.8648 50.8696 43.5029 50.5045 42.9061C50.0936 42.2393 48.4846 41.942 47.8507 42.7377C47.1162 43.6624 47.02 44.3904 47.02 44.3904L47.8092 45.4156ZM46.9391 46.8956C46.9391 46.8956 47.1424 47.8706 47.654 48.5395C48.1305 49.1625 49.593 49.3483 50.0717 48.8368C50.6073 48.2662 50.4696 46.6333 49.5339 46.2332C48.4497 45.7676 47.7217 45.8638 47.7217 45.8638L46.9391 46.8956ZM45.3214 46.6529C45.3214 46.6529 44.4864 47.1929 44.047 47.9099C43.636 48.581 43.9902 50.0107 44.6394 50.273C45.3652 50.5681 46.8386 49.8511 46.8757 48.8346C46.9194 47.6541 46.5653 47.0114 46.5653 47.0114L45.3214 46.6529Z" fill="#2F99C6"/>
<path fill-rule="evenodd" clip-rule="evenodd" d="M51.2806 43.0919C51.2806 43.0919 50.5329 42.4361 49.7241 42.2065C48.9656 41.9923 47.6867 42.7224 47.6102 43.4176C47.5228 44.1958 48.6114 45.42 49.5995 45.1795C50.7472 44.9019 51.2718 44.3882 51.2718 44.3882L51.2806 43.0919ZM52.8458 42.2524C52.8458 42.2524 53.2283 41.3343 53.1824 40.4927C53.1387 39.7079 52.0369 38.7329 51.3527 38.8838C50.5876 39.0543 49.7831 40.4796 50.3296 41.3387C50.9636 42.3333 51.6194 42.6634 51.6194 42.6634L52.8458 42.2524ZM54 43.5488C54 43.5488 54.9925 43.61 55.7707 43.2908C56.5008 42.9957 57.0605 41.6338 56.6954 41.037C56.2844 40.3703 54.6755 40.0752 54.0415 40.8709C53.307 41.7934 53.2108 42.5213 53.2108 42.5213L54 43.5488ZM53.13 45.0287C53.13 45.0287 53.3333 46.0015 53.8448 46.6704C54.3213 47.2956 55.7838 47.4793 56.2625 46.9677C56.7981 46.3972 56.6604 44.7642 55.7248 44.3642C54.6405 43.8985 53.9126 43.9969 53.9126 43.9969L53.13 45.0287ZM51.5123 44.7839C51.5123 44.7839 50.6772 45.3238 50.2378 46.0408C49.8269 46.712 50.181 48.1416 50.8302 48.4061C51.556 48.6991 53.0294 47.982 53.0666 46.9655C53.1103 45.7873 52.7561 45.1424 52.7561 45.1424L51.5123 44.7839ZM44.4142 24.2045C44.4142 24.2045 43.566 23.6842 42.7266 23.6012C41.944 23.5225 40.8116 24.4625 40.8554 25.1598C40.9056 25.9424 42.1888 26.9589 43.1223 26.5501C44.2044 26.078 44.6306 25.4812 44.6306 25.4812L44.4142 24.2045ZM45.8111 23.1071C45.8111 23.1071 46.0297 22.1365 45.8373 21.3146C45.6603 20.5495 44.4033 19.78 43.7562 20.0467C43.0348 20.3484 42.4883 21.8917 43.1726 22.6415C43.9705 23.5116 44.6722 23.7236 44.6722 23.7236L45.8111 23.1071ZM47.1708 24.1827C47.1708 24.1827 48.1589 24.0712 48.8716 23.623C49.5383 23.2033 49.8553 21.7649 49.3918 21.2403C48.8716 20.6566 47.2342 20.6435 46.7467 21.5376C46.1849 22.5737 46.2155 23.3082 46.2155 23.3082L47.1708 24.1827ZM46.5718 25.7894C46.5718 25.7894 46.9391 26.7141 47.5599 27.2847C48.137 27.8159 49.6104 27.7437 49.993 27.1579C50.4215 26.502 50.0017 24.9194 49.0115 24.6876C47.8638 24.4166 47.1643 24.6395 47.1643 24.6395L46.5718 25.7894ZM44.9367 25.8309C44.9367 25.8309 44.2066 26.5086 43.8983 27.2912C43.6098 28.0213 44.2066 29.3679 44.8908 29.5144C45.6559 29.6784 46.9828 28.7187 46.8451 27.7109C46.6833 26.5414 46.2243 25.9687 46.2243 25.9687L44.9367 25.8309ZM36.0373 21.4414C36.0373 21.4414 35.0798 21.1725 34.2513 21.319C33.4775 21.4545 32.638 22.6677 32.872 23.3279C33.1321 24.0668 34.6426 24.6964 35.4296 24.0515C36.3434 23.3039 36.5926 22.6131 36.5926 22.6131L36.0373 21.4414ZM37.0866 20.0073C37.0866 20.0073 37.032 19.0127 36.6276 18.276C36.2472 17.5874 34.8285 17.1852 34.2798 17.6202C33.6633 18.1033 33.5562 19.7385 34.4197 20.274C35.4231 20.8971 36.1554 20.908 36.1554 20.908L37.0866 20.0073ZM38.6868 20.6741C38.6868 20.6741 39.6071 20.3003 40.1733 19.6751C40.698 19.0914 40.6149 17.6202 40.0268 17.242C39.3689 16.8201 37.7883 17.2507 37.5632 18.2432C37.3009 19.3931 37.5304 20.0904 37.5304 20.0904L38.6868 20.6741ZM38.5447 22.3857C38.5447 22.3857 39.1481 23.1749 39.9001 23.5553C40.5996 23.9116 41.9987 23.4438 42.2085 22.7749C42.4424 22.0294 41.6117 20.6172 40.5952 20.661C39.4148 20.7134 38.8027 21.1157 38.8027 21.1157L38.5447 22.3857ZM36.9795 22.8667C36.9795 22.8667 36.4614 23.7149 36.3762 24.5521C36.2975 25.3347 37.2375 26.4693 37.937 26.4255C38.7174 26.3753 39.7339 25.0921 39.3273 24.1586C38.8551 23.0787 38.2562 22.6503 38.2562 22.6503L36.9795 22.8667ZM27.7304 22.6328C27.7304 22.6328 26.7729 22.3639 25.9444 22.5082C25.1705 22.6437 24.3333 23.8569 24.565 24.5193C24.8251 25.256 26.3357 25.8856 27.1227 25.2407C28.0364 24.4931 28.2856 23.8045 28.2856 23.8045L27.7304 22.6328ZM28.7797 21.1965C28.7797 21.1965 28.725 20.2041 28.3206 19.4652C27.9403 18.7766 26.5237 18.3766 25.9728 18.8094C25.3585 19.2947 25.2492 20.9298 26.1127 21.4654C27.1161 22.0863 27.8506 22.0994 27.8506 22.0994L28.7797 21.1965ZM30.3799 21.8655C30.3799 21.8655 31.3002 21.4895 31.8664 20.8643C32.3932 20.2828 32.3101 18.8094 31.7199 18.4334C31.0619 18.0093 29.4814 18.4399 29.2562 19.4324C28.9939 20.5844 29.2235 21.2818 29.2235 21.2818L30.3799 21.8655Z" fill="#2F99C6"/>
<path fill-rule="evenodd" clip-rule="evenodd" d="M30.2378 23.5749C30.2378 23.5749 30.8433 24.3641 31.5931 24.7467C32.2927 25.1008 33.6917 24.633 33.9016 23.9662C34.1355 23.2186 33.3048 21.8086 32.2883 21.8523C31.1078 21.9026 30.4957 22.3049 30.4957 22.3049L30.2378 23.5749ZM28.6748 24.0581C28.6748 24.0581 28.1545 24.9062 28.0692 25.7435C27.9905 26.5261 28.9305 27.6606 29.6301 27.6147C30.4105 27.5666 31.427 26.2813 31.0204 25.35C30.5482 24.2679 29.9514 23.8416 29.9514 23.8416L28.6748 24.0581ZM23.3999 31.0424C23.3999 31.0424 22.4074 31.0818 21.662 31.4775C20.969 31.8447 20.5471 33.2569 20.969 33.8122C21.4455 34.4352 23.0763 34.5685 23.6272 33.7116C24.2655 32.7191 24.2896 31.9846 24.2896 31.9846L23.3999 31.0424ZM23.9551 29.3548C23.9551 29.3548 23.5966 28.4258 22.9845 27.8486C22.4118 27.3109 20.9384 27.3677 20.5493 27.9492C20.1121 28.5985 20.5143 30.1877 21.5024 30.4304C22.6479 30.7145 23.3496 30.5003 23.3496 30.5003L23.9551 29.3548ZM25.6843 29.4969C25.6843 29.4969 26.445 28.8564 26.7904 28.0869C27.1117 27.3699 26.5784 25.9971 25.9007 25.8178C25.1443 25.6211 23.7737 26.5173 23.8677 27.5295C23.9726 28.7056 24.4032 29.3002 24.4032 29.3002L25.6843 29.4969ZM26.0756 31.1671C26.0756 31.1671 26.8953 31.7332 27.726 31.8622C28.5043 31.9846 29.6891 31.1102 29.6825 30.4085C29.6738 29.6259 28.4496 28.5416 27.4965 28.8958C26.3904 29.3067 25.9313 29.8795 25.9313 29.8795L26.0756 31.1671ZM24.7377 32.107C24.7377 32.107 24.5038 33.0755 24.6831 33.8996C24.8492 34.6647 26.0909 35.4561 26.7423 35.1981C27.4703 34.9095 28.043 33.3749 27.3675 32.6142C26.5849 31.731 25.8854 31.5081 25.8854 31.5081L24.7377 32.107ZM19.0234 35.9523C19.0234 35.9523 18.0878 36.2867 17.4932 36.8835C16.9423 37.4432 16.9598 38.9166 17.5304 39.321C18.1687 39.7735 19.7667 39.415 20.0377 38.4334C20.3503 37.2967 20.1536 36.5884 20.1536 36.5884L19.0234 35.9523ZM19.0496 34.175C19.0496 34.175 18.431 33.3968 17.6746 33.0296C16.9664 32.6863 15.5782 33.1782 15.3793 33.8493C15.1585 34.5991 16.0132 35.996 17.0297 35.9348C18.208 35.8627 18.8136 35.4495 18.8136 35.4495L19.0496 34.175Z" fill="#2F99C6"/>
<path fill-rule="evenodd" clip-rule="evenodd" d="M20.7438 33.7969C20.7438 33.7969 21.2771 32.9574 21.3777 32.1202C21.4717 31.3397 20.5536 30.1877 19.8519 30.2183C19.0714 30.2555 18.0309 31.5212 18.42 32.4612C18.8725 33.5498 19.4606 33.9892 19.4606 33.9892L20.7438 33.7969ZM21.6138 35.2724C21.6138 35.2724 22.5647 35.5675 23.3976 35.4451C24.1758 35.3293 25.0459 34.1401 24.8295 33.4733C24.589 32.7301 23.0959 32.0568 22.2937 32.682C21.3602 33.4034 21.0913 34.0876 21.0913 34.0876L21.6138 35.2724ZM20.6192 36.5709C20.6192 36.5709 20.6847 37.5634 21.1001 38.2957C21.487 38.9799 22.9101 39.3625 23.4544 38.9209C24.0622 38.4291 24.1496 36.7939 23.2796 36.2693C22.2696 35.6594 21.5351 35.6572 21.5351 35.6572L20.6192 36.5709ZM50.5066 29.4182C50.5066 29.4182 49.5142 29.3395 48.7294 29.6412C47.9949 29.9254 47.4068 31.2764 47.7632 31.8797C48.161 32.553 49.7656 32.8809 50.4126 32.0961C51.1646 31.1867 51.2761 30.461 51.2761 30.461L50.5066 29.4182ZM51.2565 27.8071C51.2565 27.8071 51.0116 26.8453 50.4717 26.1982C49.9689 25.5948 48.4977 25.4768 48.043 26.0058C47.5336 26.6004 47.7413 28.2246 48.6944 28.5853C49.7962 29.0007 50.5198 28.8739 50.5198 28.8739L51.2565 27.8071ZM52.9572 28.1547C52.9572 28.1547 53.7879 27.6082 54.2207 26.8868C54.6273 26.2135 54.2601 24.786 53.6086 24.5259C52.8807 24.2417 51.4138 24.9675 51.3854 25.984C51.3505 27.1644 51.709 27.8049 51.709 27.8049L52.9572 28.1547ZM53.1474 29.8598C53.1474 29.8598 53.8928 30.5156 54.7038 30.7473C55.4602 30.9594 56.7412 30.2314 56.8177 29.5341C56.9052 28.7559 55.8165 27.5339 54.8284 27.7721C53.6808 28.0498 53.1561 28.5635 53.1561 28.5635L53.1474 29.8598ZM51.7046 30.6337C51.7046 30.6337 51.3614 31.5671 51.4401 32.4043C51.5122 33.1891 52.6533 34.1204 53.331 33.9411C54.0874 33.7422 54.8394 32.2863 54.2579 31.4491C53.5868 30.4806 52.9178 30.1768 52.9178 30.1768L51.7046 30.6337ZM46.3925 34.7259C46.3925 34.7259 46.2308 33.7466 45.7455 33.058C45.2929 32.4153 43.8392 32.1726 43.3408 32.6645C42.7834 33.2132 42.8555 34.8505 43.7736 35.2877C44.8382 35.7949 45.5706 35.7271 45.5706 35.7271L46.3925 34.7259Z" fill="#2F99C6"/>
<path fill-rule="evenodd" clip-rule="evenodd" d="M48.1391 35.0648C48.1391 35.0648 49.0136 34.5926 49.5098 33.9127C49.971 33.2766 49.7306 31.8229 49.1054 31.5081C48.4058 31.1583 46.88 31.7551 46.7619 32.7672C46.6264 33.9389 46.9259 34.6079 46.9259 34.6079L48.1391 35.0648ZM48.2156 36.7983C48.2156 36.7983 48.948 37.4716 49.7524 37.7164C50.5044 37.946 51.8007 37.2442 51.8926 36.5491C51.9953 35.773 50.9307 34.527 49.9382 34.7456C48.7862 34.9992 48.2506 35.502 48.2506 35.502L48.2156 36.7983ZM46.6089 37.3973C46.6089 37.3973 46.1498 38.2804 46.1258 39.122C46.1039 39.909 47.1204 40.9714 47.8134 40.8774C48.5895 40.7725 49.512 39.4193 49.0398 38.5187C48.4933 37.4738 47.8659 37.0912 47.8659 37.0912L46.6089 37.3973ZM45.5071 36.1862C45.5071 36.1862 44.5169 36.0769 43.7233 36.3589C42.9801 36.619 42.3549 37.9525 42.6915 38.5668C43.0697 39.251 44.6655 39.6248 45.3366 38.8597C46.1127 37.9722 46.246 37.2508 46.246 37.2508L45.5071 36.1862Z" fill="#2F99C6"/>
<path d="M25.9188 39.3819C26.6308 38.9849 26.9459 38.1455 26.6226 37.5072C26.2993 36.8689 25.4599 36.6734 24.7479 37.0704C24.0358 37.4675 23.7207 38.3068 24.0441 38.9451C24.3674 39.5834 25.2068 39.779 25.9188 39.3819Z" fill="#0E3855"/>
<path fill-rule="evenodd" clip-rule="evenodd" d="M39.2405 36.3137C39.3712 36.1962 39.5387 36.1277 39.7061 36.1233C39.8736 36.1189 40.0272 36.1789 40.1334 36.2902C40.2396 36.4015 40.2895 36.5549 40.2722 36.7167C40.2548 36.8784 40.1717 37.0353 40.041 37.1528C39.9763 37.211 39.9019 37.2578 39.8221 37.2904C39.7422 37.3231 39.6584 37.341 39.5754 37.3432C39.4925 37.3454 39.4122 37.3317 39.3388 37.3031C39.2655 37.2744 39.2007 37.2314 39.1482 37.1763C39.0956 37.1212 39.0563 37.0552 39.0325 36.982C39.0087 36.9088 39.0008 36.8299 39.0094 36.7498C39.018 36.6697 39.0428 36.59 39.0825 36.5151C39.1221 36.4403 39.1758 36.3718 39.2405 36.3137ZM32.8209 39.0779C32.9515 38.9604 33.119 38.8919 33.2865 38.8875C33.4539 38.8831 33.6077 38.9431 33.7138 39.0544C33.82 39.1657 33.8699 39.3191 33.8526 39.4808C33.8353 39.6426 33.7521 39.7995 33.6215 39.917C33.5568 39.9752 33.4823 40.0219 33.4025 40.0546C33.3226 40.0872 33.2388 40.1052 33.1559 40.1074C33.0729 40.1095 32.9925 40.0959 32.9192 40.0673C32.8459 40.0386 32.7811 39.9955 32.7286 39.9404C32.676 39.8853 32.6367 39.8193 32.6129 39.7461C32.5891 39.673 32.5812 39.5941 32.5898 39.514C32.5984 39.4339 32.6232 39.3541 32.6629 39.2793C32.7025 39.2045 32.7562 39.136 32.8209 39.0779ZM31.1842 35.3834C31.2877 35.3587 31.3927 35.354 31.4928 35.3696C31.5928 35.3852 31.6858 35.4208 31.766 35.4743C31.8463 35.5278 31.9122 35.5979 31.9596 35.6805C32.0071 35.7631 32.0351 35.8564 32.0421 35.9548C32.049 36.0531 32.0346 36.1544 31.9998 36.2525C31.9651 36.3506 31.9107 36.4434 31.8399 36.5252C31.7691 36.6071 31.6836 36.6763 31.5883 36.7287C31.493 36.781 31.3901 36.8154 31.2858 36.8298C31.0877 36.8588 30.8956 36.8139 30.7495 36.7046C30.6034 36.5953 30.5147 36.43 30.5018 36.2432C30.489 36.0564 30.553 35.8625 30.6805 35.7021C30.808 35.5417 30.9892 35.4271 31.1862 35.3823L31.1842 35.3834ZM32.9354 28.7105C33.1252 28.677 33.3151 28.6799 33.4938 28.7192C33.6725 28.7584 33.8363 28.8333 33.9756 28.9391C34.1149 29.045 34.2267 29.1797 34.3044 29.3353C34.3821 29.4909 34.4241 29.6642 34.4279 29.8448C34.4316 30.0254 34.3971 30.2097 34.3263 30.3866C34.2556 30.5635 34.15 30.7295 34.016 30.8747C33.882 31.0198 33.7221 31.1412 33.5461 31.2314C33.3701 31.3217 33.1815 31.379 32.9914 31.4C32.6265 31.4379 32.2788 31.3396 32.0209 31.1256C31.763 30.9116 31.6149 30.5984 31.6074 30.2515C31.5999 29.9047 31.7337 29.5508 31.9807 29.2639C32.2278 28.9769 32.5691 28.7791 32.9333 28.7117L32.9354 28.7105ZM41.8039 28.1453C41.9636 28.2162 42.103 28.3187 42.214 28.4469C42.3251 28.5752 42.4057 28.7268 42.4513 28.8929C42.4968 29.0591 42.5064 29.2366 42.4795 29.4153C42.4526 29.5941 42.3897 29.7705 42.2944 29.9346C42.1992 30.0987 42.0733 30.2472 41.9242 30.3717C41.7751 30.4962 41.6056 30.5942 41.4253 30.6601C41.245 30.726 41.0575 30.7585 40.8735 30.7559C40.6895 30.7532 40.5126 30.7153 40.3529 30.6445C40.0395 30.496 39.8156 30.2269 39.7291 29.8948C39.6426 29.5626 39.7005 29.1937 39.8903 28.8673C40.0801 28.5408 40.3868 28.2826 40.7447 28.148C41.1025 28.0133 41.4831 28.0131 41.8048 28.1471L41.8039 28.1453ZM37.3688 34.1014C37.4556 34.1397 37.5313 34.1952 37.5917 34.2647C37.652 34.3343 37.6959 34.4165 37.7207 34.5066C37.7455 34.5967 37.7509 34.693 37.7364 34.79C37.7219 34.887 37.6878 34.9828 37.6362 35.0719C37.5846 35.161 37.5165 35.2416 37.4356 35.3093C37.3548 35.3769 37.2628 35.4302 37.165 35.466C37.0672 35.5019 36.9654 35.5197 36.8656 35.5183C36.7657 35.517 36.6697 35.4966 36.583 35.4582C36.4149 35.3767 36.2952 35.2308 36.2493 35.0514C36.2034 34.8719 36.2349 34.6731 36.3372 34.497C36.4395 34.3208 36.6045 34.1812 36.7972 34.1077C36.99 34.0342 37.1953 34.0326 37.3698 34.1032L37.3688 34.1014ZM29.8126 40.8396C29.9148 40.8179 30.0179 40.8158 30.1157 40.8333C30.2135 40.8508 30.304 40.8876 30.382 40.9415C30.46 40.9954 30.5238 41.0652 30.5697 41.1471C30.6155 41.2289 30.6425 41.3209 30.649 41.4177C30.6555 41.5146 30.6415 41.6142 30.6076 41.7108C30.5738 41.8074 30.5208 41.899 30.4519 41.9801C30.3831 42.0613 30.2997 42.1303 30.2066 42.1832C30.1135 42.2361 30.0127 42.2719 29.9101 42.2882C29.7102 42.32 29.5153 42.2766 29.367 42.1671C29.2187 42.0577 29.1286 41.8909 29.1159 41.7022C29.1032 41.5135 29.1689 41.3177 29.299 41.1566C29.4291 40.9956 29.6134 40.8818 29.8126 40.8396ZM35.5222 40.0094C35.7569 39.9656 35.988 40.0117 36.1648 40.1376C36.3415 40.2635 36.4493 40.4588 36.4645 40.6807C36.4797 40.9025 36.4011 41.1326 36.2459 41.3204C36.0907 41.5082 35.8716 41.6384 35.6368 41.6822C35.5207 41.704 35.4041 41.7039 35.2939 41.6821C35.1836 41.6602 35.0818 41.617 34.9943 41.5548C34.9067 41.4926 34.8352 41.4127 34.7836 41.3196C34.7321 41.2265 34.7016 41.1222 34.6939 41.0124C34.6862 40.9026 34.7016 40.7897 34.739 40.6799C34.7763 40.5701 34.8351 40.4658 34.9118 40.3727C34.9885 40.2797 35.0817 40.1998 35.1861 40.1377C35.2905 40.0755 35.404 40.0324 35.5201 40.0106L35.5222 40.0094ZM39.273 39.7339C39.3635 39.6527 39.4676 39.5875 39.5793 39.5421C39.691 39.4966 39.8082 39.4717 39.924 39.4688C40.0399 39.466 40.1522 39.4852 40.2546 39.5254C40.357 39.5656 40.4474 39.626 40.5207 39.7031C40.594 39.7803 40.6488 39.8726 40.6819 39.975C40.715 40.0773 40.7258 40.1876 40.7136 40.2996C40.7014 40.4115 40.6666 40.5229 40.611 40.6274C40.5554 40.732 40.4802 40.8275 40.3896 40.9087C40.2068 41.0727 39.9726 41.168 39.7386 41.1738C39.5046 41.1796 39.2899 41.0953 39.1419 40.9395C38.9938 40.7838 38.9245 40.5692 38.9491 40.3431C38.9736 40.117 39.0902 39.8979 39.273 39.7339ZM42.2452 32.5321C42.3352 32.4484 42.4395 32.3809 42.5519 32.3334C42.6643 32.2858 42.7826 32.2592 42.8998 32.2551C43.0171 32.251 43.131 32.2695 43.2349 32.3094C43.3387 32.3494 43.4304 32.4102 43.5047 32.488C43.5789 32.5659 43.6343 32.6593 43.6674 32.7629C43.7005 32.8665 43.7108 32.9782 43.6976 33.0914C43.6844 33.2046 43.6479 33.3171 43.5905 33.4222C43.533 33.5274 43.4556 33.6232 43.3629 33.7039C43.1795 33.8596 42.9491 33.948 42.7204 33.9503C42.4918 33.9525 42.2828 33.8685 42.1378 33.7161C41.9928 33.5636 41.9231 33.3547 41.9436 33.1334C41.964 32.9122 42.0729 32.6961 42.2472 32.5309L42.2452 32.5321ZM21.742 44.1434C21.9309 44.1145 22.1191 44.1218 22.2953 44.1649C22.4715 44.208 22.6324 44.2859 22.7682 44.3942C22.904 44.5025 23.0122 44.639 23.0863 44.7955C23.1604 44.9519 23.1989 45.1254 23.1995 45.3054C23.2002 45.4855 23.163 45.6686 23.0902 45.8439C23.0173 46.0192 22.9103 46.1832 22.7754 46.3263C22.6405 46.4693 22.4804 46.5884 22.3047 46.6766C22.1289 46.7649 21.941 46.8204 21.752 46.8399C21.383 46.8781 21.0319 46.777 20.7734 46.5581C20.5149 46.3393 20.3695 46.0201 20.3682 45.6685C20.3668 45.3169 20.5097 44.9606 20.7664 44.6758C21.023 44.3909 21.373 44.1999 21.742 44.1434ZM53.8711 35.0526C54.0305 34.9415 54.2072 34.859 54.3912 34.8099C54.5751 34.7608 54.7626 34.746 54.943 34.7664C55.1234 34.7868 55.2932 34.8419 55.4427 34.9287C55.5921 35.0155 55.7184 35.1322 55.8141 35.2722C55.9099 35.4122 55.9732 35.5728 56.0007 35.7446C56.0281 35.9165 56.0191 36.0964 55.9741 36.274C55.929 36.4515 55.8489 36.6234 55.7383 36.7796C55.6277 36.9359 55.4886 37.0736 55.3292 37.1847C55.0072 37.4092 54.6217 37.5122 54.2573 37.471C53.8929 37.4298 53.5796 37.2478 53.3862 36.9651C53.1929 36.6824 53.1353 36.322 53.2263 35.9634C53.3172 35.6047 53.5491 35.2771 53.8711 35.0526ZM30.4323 45.2133C30.6226 45.1821 30.8126 45.1877 30.9907 45.2296C31.1689 45.2716 31.3316 45.3491 31.4692 45.4575C31.6068 45.5659 31.7164 45.7029 31.7914 45.8604C31.8664 46.018 31.9053 46.1927 31.9058 46.3742C31.9062 46.5557 31.8683 46.7402 31.7942 46.9167C31.72 47.0931 31.6113 47.258 31.4743 47.4013C31.3374 47.5446 31.1752 47.6635 30.9973 47.7507C30.8195 47.838 30.6297 47.8918 30.4394 47.9091C30.0755 47.9397 29.7317 47.8347 29.4793 47.6159C29.2269 47.3972 29.0854 47.0815 29.0842 46.7345C29.0831 46.3875 29.2223 46.036 29.473 45.7529C29.7237 45.4697 30.0666 45.2769 30.4303 45.2144L30.4323 45.2133ZM26.6212 50.9032C26.8124 50.8703 27.0034 50.8746 27.1829 50.9156C27.3624 50.9566 27.5265 51.0335 27.6653 51.1417C27.8042 51.2499 27.9149 51.3872 27.9907 51.5452C28.0665 51.7032 28.1059 51.8787 28.1065 52.0611C28.1072 52.2434 28.069 52.4289 27.9943 52.6061C27.9195 52.7834 27.8099 52.9489 27.6719 53.0925C27.5339 53.2362 27.3705 53.355 27.1914 53.4419C27.0124 53.5287 26.8216 53.5818 26.6304 53.5978C26.2665 53.6284 25.9226 53.5234 25.6702 53.3047C25.4178 53.0859 25.2764 52.7702 25.2752 52.4232C25.274 52.0763 25.4132 51.7247 25.6639 51.4416C25.9146 51.1585 26.2574 50.9657 26.6212 50.9032ZM35.9523 50.7672C36.1327 50.7019 36.3202 50.67 36.504 50.6733C36.6879 50.6767 36.8646 50.7151 37.0239 50.7866C37.1832 50.858 37.3221 50.9611 37.4326 51.0898C37.5431 51.2185 37.6231 51.3703 37.668 51.5367C37.7129 51.703 37.7218 51.8806 37.6942 52.0593C37.6666 52.238 37.6032 52.4143 37.5073 52.5781C37.4115 52.7419 37.2852 52.89 37.1357 53.014C36.9862 53.138 36.8164 53.2355 36.636 53.3008C36.2716 53.4327 35.8862 53.4257 35.5644 53.2814C35.2427 53.1371 35.011 52.8673 34.9203 52.5313C34.8297 52.1953 34.8874 51.8207 35.081 51.4899C35.2745 51.1591 35.588 50.8991 35.9523 50.7672ZM44.1346 49.3879C44.315 49.3226 44.5025 49.2907 44.6864 49.294C44.8703 49.2973 45.0469 49.3358 45.2063 49.4073C45.3656 49.4787 45.5044 49.5817 45.6149 49.7104C45.7255 49.8391 45.8054 49.991 45.8503 50.1573C45.8952 50.3237 45.9041 50.5013 45.8766 50.68C45.849 50.8586 45.7855 51.0349 45.6896 51.1988C45.5938 51.3626 45.4675 51.5107 45.318 51.6347C45.1685 51.7587 44.9988 51.8561 44.8183 51.9214C44.454 52.0533 44.0685 52.0464 43.7468 51.9021C43.425 51.7578 43.1933 51.488 43.1026 51.152C43.012 50.816 43.0698 50.4414 43.2633 50.1106C43.4569 49.7797 43.7703 49.5198 44.1346 49.3879ZM39.1353 44.1257C39.3183 44.0522 39.5101 44.0134 39.6993 44.0115C39.8884 44.0096 40.071 44.0447 40.2361 44.1147C40.4013 44.1847 40.5455 44.2881 40.6602 44.4188C40.7749 44.5494 40.8577 44.7047 40.9037 44.8752C40.9497 45.0456 40.9579 45.2278 40.9278 45.4109C40.8977 45.594 40.8299 45.7741 40.7285 45.9406C40.6271 46.107 40.4943 46.2562 40.3378 46.3794C40.1814 46.5025 40.0046 46.5971 39.818 46.6574C39.4537 46.7893 39.0682 46.7823 38.7465 46.638C38.4247 46.4937 38.193 46.2239 38.1024 45.8879C38.0117 45.5519 38.0695 45.1773 38.2631 44.8465C38.4566 44.5157 38.77 44.2557 39.1344 44.1238L39.1353 44.1257ZM45.6298 43.5426C45.9942 43.4107 46.3797 43.4177 46.7014 43.562C47.0232 43.7063 47.2549 43.9761 47.3455 44.3121C47.4362 44.648 47.3784 45.0226 47.1849 45.3535C46.9913 45.6843 46.6779 45.9443 46.3135 46.0762C45.9552 46.1919 45.582 46.1745 45.2721 46.0276C44.9622 45.8807 44.7398 45.6156 44.6515 45.2882C44.5632 44.9607 44.6158 44.5962 44.7984 44.2711C44.981 43.9459 45.2793 43.6855 45.6308 43.5444L45.6298 43.5426ZM52.0616 41.3069C52.2446 41.2335 52.4364 41.1947 52.6256 41.1928C52.8147 41.1909 52.9973 41.226 53.1625 41.296C53.3276 41.3659 53.4718 41.4694 53.5865 41.6001C53.7012 41.7307 53.784 41.8859 53.83 42.0564C53.876 42.2269 53.8842 42.4091 53.8541 42.5922C53.824 42.7753 53.7562 42.9554 53.6548 43.1219C53.5535 43.2883 53.4206 43.4375 53.2642 43.5607C53.1077 43.6838 52.9309 43.7784 52.7444 43.8387C52.386 43.9544 52.0128 43.937 51.7029 43.7901C51.3931 43.6432 51.1707 43.3782 51.0823 43.0507C50.994 42.7232 51.0467 42.3587 51.2292 42.0335C51.4118 41.7084 51.7101 41.448 52.0616 41.3069ZM46.1505 23.1315C46.4937 22.9435 46.8834 22.8857 47.2337 22.9706C47.5841 23.0555 47.8664 23.2764 48.0187 23.5845C48.171 23.8926 48.1807 24.2628 48.0457 24.6136C47.9107 24.9644 47.642 25.2671 47.2988 25.455C46.9557 25.6433 46.5661 25.7015 46.2156 25.6168C45.8651 25.5321 45.5826 25.3115 45.43 25.0036C45.2775 24.6956 45.2675 24.3255 45.4022 23.9746C45.5369 23.6237 45.8054 23.3209 46.1485 23.1326L46.1505 23.1315ZM37.5398 20.8392C37.6823 20.7044 37.8478 20.595 38.0267 20.5173C38.2056 20.4396 38.3942 20.3952 38.5817 20.3868C38.7691 20.3783 38.9516 20.4059 39.1183 20.468C39.2851 20.53 39.4329 20.6253 39.5531 20.7482C39.6732 20.8712 39.7633 21.0193 39.8181 21.184C39.8729 21.3486 39.8913 21.5265 39.8722 21.7073C39.8531 21.888 39.7969 22.068 39.7069 22.2366C39.6169 22.4053 39.4948 22.5592 39.3479 22.6895C39.0582 22.9465 38.6891 23.0962 38.3201 23.1064C37.951 23.1166 37.6115 22.9864 37.3745 22.744C37.1376 22.5015 37.0221 22.1661 37.053 21.8099C37.0839 21.4536 37.2587 21.1051 37.5398 20.8392ZM28.9973 22.5526C29.1396 22.416 29.3054 22.3049 29.4849 22.2257C29.6645 22.1466 29.8542 22.1011 30.0428 22.0919C30.2313 22.0827 30.415 22.11 30.5829 22.1721C30.7508 22.2343 30.8995 22.3301 31.0202 22.4539C31.1409 22.5776 31.2312 22.7268 31.2858 22.8927C31.3403 23.0585 31.358 23.2376 31.3378 23.4194C31.3176 23.6012 31.2599 23.782 31.1681 23.9511C31.0764 24.1202 30.9524 24.2743 30.8035 24.4041C30.5132 24.6571 30.1457 24.8033 29.779 24.8115C29.4124 24.8197 29.0756 24.6894 28.8403 24.4481C28.605 24.2069 28.4897 23.8739 28.519 23.5199C28.5484 23.1659 28.7199 22.8188 28.9973 22.5526ZM23.7127 31.0113C23.8082 30.8421 23.9361 30.6888 24.0887 30.5607C24.2413 30.4326 24.4154 30.3324 24.6006 30.2659C24.7858 30.1995 24.9782 30.1683 25.1664 30.1741C25.3546 30.18 25.5346 30.2228 25.6957 30.3C25.8568 30.3772 25.9956 30.4871 26.1038 30.6233C26.212 30.7595 26.2873 30.919 26.3253 31.0924C26.3632 31.2658 26.363 31.4494 26.3247 31.6322C26.2864 31.8151 26.2108 31.9933 26.1023 32.1564C25.8944 32.469 25.5781 32.7073 25.2198 32.8214C24.8615 32.9355 24.4889 32.9166 24.1801 32.7686C23.8713 32.6206 23.6501 32.3551 23.563 32.0275C23.4759 31.6999 23.5295 31.3358 23.7127 31.0113ZM18.5998 36.1439C18.648 35.9667 18.7311 35.7959 18.8444 35.6413C18.9577 35.4866 19.0989 35.3511 19.26 35.2425C19.4211 35.1339 19.5989 35.0543 19.7833 35.0083C19.9676 34.9623 20.1549 34.9507 20.3345 34.9743C20.514 34.9979 20.6823 35.0561 20.8297 35.1457C20.9772 35.2353 21.1008 35.3545 21.1937 35.4964C21.2865 35.6383 21.3467 35.8003 21.3709 35.973C21.395 36.1457 21.3826 36.3257 21.3343 36.5029C21.237 36.8609 20.9995 37.1855 20.6741 37.4051C20.3487 37.6247 19.962 37.7214 19.5991 37.6739C19.2362 37.6265 18.9268 37.4387 18.739 37.152C18.5512 36.8653 18.5004 36.503 18.5977 36.145L18.5998 36.1439ZM51.5788 27.645C51.6933 27.4853 51.8374 27.3454 52.0025 27.2338C52.1676 27.1222 52.3503 27.0411 52.5397 26.9954C52.729 26.9497 52.921 26.9403 53.1043 26.9679C53.2875 26.9955 53.4581 27.0595 53.6059 27.1559C53.7538 27.2523 53.8757 27.3793 53.9644 27.5291C54.0532 27.679 54.1069 27.8486 54.1224 28.0279C54.1378 28.2071 54.1147 28.3923 54.0544 28.5723C53.9941 28.7523 53.8978 28.9234 53.7714 29.0753C53.5292 29.3664 53.1904 29.5702 52.826 29.6439C52.4617 29.7176 52.1 29.6556 51.8167 29.4708C51.5334 29.2859 51.3504 28.9927 51.3061 28.6524C51.2617 28.3121 51.3595 27.9511 51.5788 27.645ZM47.8329 34.0863C48.0013 34.1405 48.1524 34.2277 48.2777 34.343C48.4031 34.4583 48.5002 34.5993 48.5634 34.7581C48.6267 34.9169 48.6548 35.0903 48.6463 35.2684C48.6378 35.4465 48.5928 35.6258 48.5139 35.7962C48.435 35.9665 48.3236 36.1245 48.1863 36.2611C48.0489 36.3977 47.8882 36.5103 47.7134 36.5924C47.5385 36.6745 47.3529 36.7245 47.1671 36.7396C46.9813 36.7547 46.7991 36.7346 46.6307 36.6804C46.3 36.5644 46.0469 36.3216 45.9256 36.004C45.8042 35.6864 45.8243 35.3191 45.9814 34.9806C46.1385 34.6421 46.4202 34.3592 46.7663 34.1924C47.1125 34.0257 47.4956 33.9882 47.8338 34.0881L47.8329 34.0863Z" fill="#0E3855"/>
</g>
<defs>
<filter id="filter0_i_1228_7641" x="15.3442" y="17.0807" width="43.5515" height="44.0208" filterUnits="userSpaceOnUse" color-interpolation-filters="sRGB">
<feFlood flood-opacity="0" result="BackgroundImageFix"/>
<feBlend mode="normal" in="SourceGraphic" in2="BackgroundImageFix" result="shape"/>
<feColorMatrix in="SourceAlpha" type="matrix" values="0 0 0 0 0 0 0 0 0 0 0 0 0 0 0 0 0 0 127 0" result="hardAlpha"/>
<feOffset dy="4"/>
<feGaussianBlur stdDeviation="7"/>
<feComposite in2="hardAlpha" operator="arithmetic" k2="-1" k3="1"/>
<feColorMatrix type="matrix" values="0 0 0 0 0 0 0 0 0 0 0 0 0 0 0 0 0 0 0.15 0"/>
<feBlend mode="normal" in2="shape" result="effect1_innerShadow_1228_7641"/>
</filter>
</defs>
</svg>
