<svg width="24" height="24" viewBox="0 0 24 24" fill="none" xmlns="http://www.w3.org/2000/svg">
<rect width="24" height="24" fill="white"/>
<path d="M8.025 17.8594C7.31028 17.3653 6.72388 16.7078 6.31459 15.9413C5.90529 15.1749 5.68495 14.3219 5.67188 13.4531C5.67188 10.3219 8.48438 7.78125 12 7.78125C15.5156 7.78125 18.3281 10.3219 18.3281 13.4531C18.3151 14.3219 18.0947 15.1749 17.6854 15.9413C17.2761 16.7078 16.6897 17.3653 15.975 17.8594" stroke="#12466A" stroke-width="1.5" stroke-linecap="round" stroke-linejoin="round"/>
<path d="M12 22.5469C14.3297 22.5469 16.2188 20.9728 16.2188 19.0312C16.2188 17.0897 14.3297 15.5156 12 15.5156C9.67031 15.5156 7.78125 17.0897 7.78125 19.0312C7.78125 20.9728 9.67031 22.5469 12 22.5469Z" stroke="#12466A" stroke-width="1.5" stroke-linecap="round" stroke-linejoin="round"/>
<path d="M12 7.78125V1.45312" stroke="#12466A" stroke-width="1.5" stroke-linecap="round" stroke-linejoin="round"/>
<path d="M6.37502 16.0781L5.88752 16.2C5.48946 16.3449 5.12925 16.5778 4.8338 16.8813C4.53836 17.1849 4.31529 17.5513 4.18127 17.9531" stroke="#12466A" stroke-width="1.5" stroke-linecap="round" stroke-linejoin="round"/>
<path d="M5.68123 13.1437L5.43748 13.0594C5.07058 12.9707 4.68547 12.9949 4.33254 13.1287C3.9796 13.2626 3.67527 13.4998 3.45935 13.8094L2.8031 14.5969" stroke="#12466A" stroke-width="1.5" stroke-linecap="round" stroke-linejoin="round"/>
<path d="M6.68437 10.3781L5.86875 9.675C5.6992 9.51428 5.49955 9.38867 5.28127 9.30541C5.063 9.22215 4.83041 9.18287 4.5969 9.18985C4.36339 9.19682 4.13356 9.24989 3.92064 9.34603C3.70772 9.44216 3.51591 9.57945 3.35625 9.75L2.15625 10.8937" stroke="#12466A" stroke-width="1.5" stroke-linecap="round" stroke-linejoin="round"/>
<path d="M17.625 16.0781L18.1125 16.2C18.5106 16.3449 18.8708 16.5778 19.1662 16.8813C19.4617 17.1849 19.6847 17.5513 19.8188 17.9531" stroke="#12466A" stroke-width="1.5" stroke-linecap="round" stroke-linejoin="round"/>
<path d="M18.3187 13.1437L18.6 13.0594C18.9669 12.9707 19.352 12.9949 19.7049 13.1287C20.0578 13.2626 20.3622 13.4998 20.5781 13.8094L21.2344 14.5969" stroke="#12466A" stroke-width="1.5" stroke-linecap="round" stroke-linejoin="round"/>
<path d="M17.325 10.3781L18.1312 9.675C18.3007 9.51428 18.5004 9.38867 18.7187 9.30541C18.937 9.22215 19.1695 9.18287 19.4031 9.18985C19.6366 9.19682 19.8664 9.24989 20.0793 9.34603C20.2922 9.44216 20.484 9.57945 20.6437 9.75L21.8437 10.8937" stroke="#12466A" stroke-width="1.5" stroke-linecap="round" stroke-linejoin="round"/>
<path d="M10.2891 19.0312C10.1958 19.0312 10.1064 18.9942 10.0405 18.9283C9.97454 18.8623 9.9375 18.7729 9.9375 18.6797C9.9375 18.5864 9.97454 18.497 10.0405 18.4311C10.1064 18.3652 10.1958 18.3281 10.2891 18.3281" stroke="#12466A" stroke-width="1.5"/>
<path d="M10.2891 19.0312C10.3823 19.0312 10.4717 18.9942 10.5377 18.9283C10.6036 18.8623 10.6406 18.7729 10.6406 18.6797C10.6406 18.5864 10.6036 18.497 10.5377 18.4311C10.4717 18.3652 10.3823 18.3281 10.2891 18.3281" stroke="#12466A" stroke-width="1.5"/>
<path d="M13.7109 19.0312C13.6177 19.0312 13.5283 18.9942 13.4623 18.9283C13.3964 18.8623 13.3594 18.7729 13.3594 18.6797C13.3594 18.5864 13.3964 18.497 13.4623 18.4311C13.5283 18.3652 13.6177 18.3281 13.7109 18.3281" stroke="#12466A" stroke-width="1.5"/>
<path d="M13.7109 19.0312C13.8042 19.0312 13.8936 18.9942 13.9595 18.9283C14.0255 18.8623 14.0625 18.7729 14.0625 18.6797C14.0625 18.5864 14.0255 18.497 13.9595 18.4311C13.8936 18.3652 13.8042 18.3281 13.7109 18.3281" stroke="#12466A" stroke-width="1.5"/>
</svg>
