<svg width="74" height="74" viewBox="0 0 74 74" fill="none" xmlns="http://www.w3.org/2000/svg">
<rect width="74" height="74" fill="white"/>
<g filter="url(#filter0_i_1228_7645)">
<path d="M38.1565 33.5067C38.1565 33.5067 38.9766 31.462 38.8519 29.6025C38.7385 27.8639 36.2667 25.7323 34.7587 26.0875C33.0693 26.4844 31.3232 29.6629 32.5553 31.5489C33.9877 33.7334 35.4466 34.4477 35.4466 34.4477L38.1565 33.5067ZM41.0667 36.1523C41.0667 36.1523 43.2663 36.2695 44.986 35.5513C46.5923 34.8824 47.8131 31.855 46.9891 30.5435C46.0669 29.0733 42.4991 28.4459 41.112 30.2223C39.502 32.2821 39.2979 33.8922 39.2979 33.8922L41.0667 36.1523ZM39.2147 39.516C39.2147 39.516 39.8232 41.6325 41.0667 43.0309C42.2232 44.3273 45.4811 44.4936 46.4524 43.2842C47.5409 41.9349 46.9665 38.3557 44.8348 37.6225C42.3668 36.7759 40.7757 37.1123 40.7757 37.1123L39.2147 39.516ZM35.4844 38.7979C35.4844 38.7979 33.6022 39.9431 32.5855 41.504C31.6407 42.9667 32.3361 46.1528 33.7572 46.7726C35.3446 47.4681 38.6478 45.9714 38.7914 43.7226C38.9615 41.1147 38.217 39.671 38.217 39.671L35.4844 38.7979ZM34.7965 35.2452C34.7965 35.2452 33.0504 33.8997 31.2287 33.5142C29.5279 33.1514 26.8029 34.9504 26.7349 36.5C26.6593 38.231 29.2445 40.7746 31.395 40.1018C33.8857 39.3195 34.9666 38.1063 34.9666 38.1063L34.7965 35.2452Z" fill="#2F99C6"/>
<path d="M40.2352 34.735C40.4784 35.0564 40.6559 35.4225 40.7576 35.8125C40.8593 36.2024 40.8832 36.6086 40.8279 37.0078C40.7727 37.4071 40.6393 37.7915 40.4355 38.1391C40.2316 38.4868 39.9613 38.7909 39.6399 39.0341C39.3185 39.2773 38.9524 39.4549 38.5624 39.5566C38.1725 39.6583 37.7663 39.6822 37.3671 39.6269C36.9678 39.5716 36.5834 39.4383 36.2358 39.2344C35.8881 39.0306 35.584 38.7602 35.3408 38.4389C34.8496 37.7898 34.6364 36.9723 34.748 36.166C34.8596 35.3598 35.287 34.6309 35.936 34.1397C36.5851 33.6485 37.4026 33.4353 38.2089 33.547C39.0151 33.6586 39.744 34.0859 40.2352 34.735Z" fill="#0E3855"/>
</g>
<defs>
<filter id="filter0_i_1228_7645" x="26.7333" y="26.0483" width="20.5204" height="24.896" filterUnits="userSpaceOnUse" color-interpolation-filters="sRGB">
<feFlood flood-opacity="0" result="BackgroundImageFix"/>
<feBlend mode="normal" in="SourceGraphic" in2="BackgroundImageFix" result="shape"/>
<feColorMatrix in="SourceAlpha" type="matrix" values="0 0 0 0 0 0 0 0 0 0 0 0 0 0 0 0 0 0 127 0" result="hardAlpha"/>
<feOffset dy="4"/>
<feGaussianBlur stdDeviation="7"/>
<feComposite in2="hardAlpha" operator="arithmetic" k2="-1" k3="1"/>
<feColorMatrix type="matrix" values="0 0 0 0 0 0 0 0 0 0 0 0 0 0 0 0 0 0 0.15 0"/>
<feBlend mode="normal" in2="shape" result="effect1_innerShadow_1228_7645"/>
</filter>
</defs>
</svg>
