<svg width="74" height="74" viewBox="0 0 74 74" fill="none" xmlns="http://www.w3.org/2000/svg">
<rect width="74" height="74" fill="white"/>
<g filter="url(#filter0_i_1228_7609)">
<path d="M38.0854 40.9671C40.3852 41.6463 44.6629 41.7082 46.5689 40.0038C48.475 38.2993 48.4343 35.746 48.11 33.6754C47.7852 31.606 46.3511 29.8227 47.2011 26.4557C42.6862 28.0675 35.8289 31.196 34.4968 34.5492C35.6736 40.8751 37.7668 40.877 38.0854 40.9671Z" fill="#2F99C6"/>
<path d="M51.8907 21.7235C47.9692 24.6354 40.3857 26.0419 38.2832 26.3511L38.2331 24.7362C39.8993 24.6342 41.5523 24.3767 43.1706 23.9669C41.9738 16.2514 49.8176 14.6959 55.4055 15.0452C60.9933 15.3951 64.498 15.9779 64.498 15.9779C64.498 15.9779 55.8117 18.8122 51.8907 21.7241V21.7235Z" fill="#0D314A"/>
<path d="M38.0466 57.9348L38.0291 51.9413C45.8885 52.3044 50.1694 49.1101 53.9314 46.9706C57.6934 44.8299 62.6421 41.5937 66.9975 40.2241C59.9775 39.9862 41.4042 40.6836 44.3449 50.0954C42.4214 50.8353 40.1824 50.7877 37.8832 50.5918L38.3765 15.8652C36.5099 15.8552 38.3139 15.8677 36.4629 15.8621C36.4316 20.1961 36.0698 28.2396 36.0698 28.2396C36.0698 28.2396 31.8278 29.1009 30.5446 28.2014C30.5446 27.7395 38.1762 13.6518 9.02683 21.2296C7.1665 21.7128 13.1168 20.8634 19.2568 23.2902C24.1849 25.2382 26.8571 28.0994 29.8692 29.2405C32.8819 30.381 36.0223 29.4878 36.016 29.6455C35.6436 39.2495 35.298 44.3454 34.9369 53.8724C32.9839 53.0499 31.8315 52.6311 30.2911 51.9019C32.6578 49.3054 30.2785 44.8073 22.267 44.3748C14.2567 43.9429 9.71225 46.5612 7 48.9906C14.0526 49.5383 20.14 48.4303 28.9421 52.8251L34.7791 55.2564L34.7916 57.9686L38.0466 57.9348Z" fill="#0D314A"/>
<path d="M30.5827 28.239C27.5757 26.9827 25.0005 24.5121 21.857 23.3391C18.7128 22.166 17.9153 21.6171 11.3097 21.1482C11.2627 21.1445 9.25843 21.2171 9.19771 21.1933C36.1493 13.7589 31.2581 26.6097 30.5827 28.2384V28.239ZM43.2407 23.9487C41.9726 16.2514 49.8176 14.6959 55.4055 15.0452C60.9934 15.3951 64.4255 15.9847 64.4255 15.9847C56.7995 16.8736 49.6154 22.4727 43.2407 23.9487ZM55.8499 44.813C53.1608 46.2514 51.0551 47.8157 45.9674 49.6879C45.866 49.7254 44.5027 50.1354 44.3725 50.1336C41.4042 40.6836 59.9775 39.9869 67 40.2767C62.8318 40.8663 58.8019 43.2224 55.8493 44.813H55.8499ZM22.267 44.3748C30.2773 44.8067 32.6578 49.3054 30.2842 51.9075C26.7237 50.4666 22.814 49.1139 19.6968 48.6463C14.405 48.2839 11.8392 48.5086 7.20593 48.809C9.92507 46.3835 14.256 43.9423 22.2663 44.3748H22.267Z" fill="#2F99C6"/>
<path d="M33.8395 33.5001C31.5335 31.6955 24.613 33.0013 21.3768 29.4928C21.6648 31.4846 21.1308 32.7559 21.3624 34.8929C21.594 37.0299 21.815 40.8275 24.4847 43.7201C27.1537 46.6126 32.9194 43.9391 34.4517 41.7608C35.9127 39.0586 35.5603 34.968 33.8395 33.5001Z" fill="#2F99C6"/>
<path d="M36.0886 44.2709C28.206 44.6039 27.2327 38.5397 24.3996 34.7289C28.5328 39.4748 31.8728 43.762 36.6557 42.7198C36.5212 43.0766 36.5249 43.1379 36.3891 43.5085C36.2539 43.8797 36.2376 43.9279 36.0886 44.2709Z" fill="#0D314A"/>
</g>
<defs>
<filter id="filter0_i_1228_7609" x="7" y="15" width="60" height="46.9686" filterUnits="userSpaceOnUse" color-interpolation-filters="sRGB">
<feFlood flood-opacity="0" result="BackgroundImageFix"/>
<feBlend mode="normal" in="SourceGraphic" in2="BackgroundImageFix" result="shape"/>
<feColorMatrix in="SourceAlpha" type="matrix" values="0 0 0 0 0 0 0 0 0 0 0 0 0 0 0 0 0 0 127 0" result="hardAlpha"/>
<feOffset dy="4"/>
<feGaussianBlur stdDeviation="7"/>
<feComposite in2="hardAlpha" operator="arithmetic" k2="-1" k3="1"/>
<feColorMatrix type="matrix" values="0 0 0 0 0 0 0 0 0 0 0 0 0 0 0 0 0 0 0.15 0"/>
<feBlend mode="normal" in2="shape" result="effect1_innerShadow_1228_7609"/>
</filter>
</defs>
</svg>
