<svg xmlns="http://www.w3.org/2000/svg" width="74" height="74" viewBox="0 0 19.579 19.579">
  <path d="M0 0h19.579v19.579H0z" style="fill:#fff;fill-opacity:.989964;stroke:none;"/>
  <path d="M4.984 12.196c-.965 4.025.442 6.395 3.299 5.966 1.245-.187 2.652-1.199 3.489-2.549 2.575-3 3.535-5.74 2.97-8.246-.342-2.025-.854-3.263-1.64-4.389-.143-.574-.354-.963-.62-1.197a1.67 1.67 0 0 0-.411-.407c-.4.107-.675.278-.712.566-1.08.996-1.463 1.651-1.627 2.717 0 0-.4.42-.613.782-.88 1.492-3.375 3.587-4.135 6.757Z" style="fill:none;stroke:#0e3855;stroke-width:.152981px;stroke-opacity:1"/>
  <path d="M11.36 1.94c.453.187.903.026 1.121-.159a1.67 1.67 0 0 0-.41-.407c-.4.107-.675.278-.712.566ZM4.984 12.196c-.965 4.025.442 6.395 3.299 5.966 1.245-.187 2.652-1.199 3.489-2.549 2.575-3 3.535-5.74 2.97-8.246-.342-2.025-.854-3.263-1.64-4.389-.1.71-.456 1.084-1.04 1.247-1.005.28-1.95-.073-2.33.432 0 0-.4.42-.613.782-.88 1.492-3.375 3.587-4.135 6.757Z" style="fill:#2f99c6;fill-opacity:1;stroke:#0e3855;stroke-width:.0710404px;stroke-opacity:1"/>
  <path d="M12.49 1.79c.263.258.467.597.612 1.188-.1.71-.456 1.084-1.04 1.247-1.005.28-1.95-.073-2.33.432.151-1.103.693-1.867 1.623-2.708.33.11.686.133 1.134-.159Z" style="fill:#2f99c6;fill-opacity:1;stroke:#0e3855;stroke-width:.0710404px;stroke-opacity:1"/>
  <path d="M11.979 1.459c-.037.036-.05.13-.058.183-.006.044-.01.097.014.134.028.04.154.113.154.113-.18.074-.297.089-.34.036 0 0 .056-.057-.006-.168a.187.187 0 0 0-.072-.058c-.018-.009-.059-.01-.059-.01s.037-.033.057-.048c.021-.015.048-.036.069-.043.095-.03.097-.104.203-.14.019-.005.046 0 .038 0zm-.601.676c.03.06.057.138.076.21.03.121.115.239.154.358.017.05.195.447.283.576.032.047.151.218.151.244l-.252-.244c-.19-.19-.38-.887-.395-.934a.631.631 0 0 1-.017-.21z" style="fill:#216b8b;fill-opacity:1;stroke-width:.0375875"/>
  <path d="M11.302 2.026c.005-.005.089.631.194.84.06.122.373.769.403.858.026.077.216.348.21.353a.393.393 0 0 1-.145.068c-.06.001-.088-.292-.17-.338 0 0 .118.354.063.377-.128.054-.401.135-.42.003-.037-.258-.116-.498-.116-.498s.032.377-.008.506c-.047.151-.424-.003-.448-.05-.063-.126-.089-.522-.059-.782.048-.412.34-1.182.496-1.337zm-.565.597s-.025.196-.032.294c-.012.18-.044.557-.042.79.002.205.054.612.054.612s-.127-.185-.146-.292a3.079 3.079 0 0 1-.042-.757c.026-.225.208-.647.208-.647zm-.234.361a.933.933 0 0 0-.06.297c-.01.152-.002.454 0 .614.001.114.024.356.01.342a.235.235 0 0 1-.077-.157 3.266 3.266 0 0 1 .008-.757c.014-.119.104-.339.12-.339zm1.791-.176c.07.104.13.228.177.32.037.073.067.152.1.226.034.073.078.17.102.219.012.026.01.06.042.075.011.006.022-.05.017-.075a1.068 1.068 0 0 0-.076-.194c-.05-.1-.167-.316-.227-.412-.037-.058-.098-.16-.135-.16Zm-.182-.523c.173.126.162.106.216.153.042.036.083.095.11.126l.05.059s-.06-.115-.095-.17c-.042-.067-.157-.234-.157-.234s.09.083.134.126l.27.27c.033.033.1.142.1.142s-.061-.12-.084-.151c-.07-.092-.16-.193-.227-.269-.057-.064-.177-.185-.177-.185a.593.593 0 0 1 .11.076c.064.056.211.192.277.26.044.046.11.136.118.152.003.007.025.017.017.017-.016 0-.07-.134-.116-.193-.044-.059-.1-.109-.153-.16-.08-.078-.232-.216-.32-.303-.013-.014-.19.042-.233.064-.044.023-.038.051-.028.062.032.031.154.124.188.158zm.342-.326c.058.087.124.168.177.26.032.056.06.114.092.168.03.052.1.227.118.227 0 0-.056-.186-.084-.244-.04-.08-.19-.411-.303-.411zM9.336 5.45c0 .173-.125.7-.147 1.053-.028.451-.09 1.105-.023 1.65.1.818.05 1.84.62 3.257.526 1.307 1.144 1.938 1.584 2.464.271.324 1.058.694 1.058.694s-1.24-1.11-1.653-1.818c-.462-.793-.893-1.917-1.123-2.941-.24-1.062-.26-2.702-.312-3.429-.022-.309-.004-.941-.004-.93Zm.547-.797c-.014.287-.225.295-.132 1.024.092.726.777 2.17 1.256 3.216.497 1.087 1.302 2.62 1.726 3.308.203.327.819.814.819.814s-.544-.811-.76-1.248c-.357-.72-.916-2.074-1.38-3.076-.458-.985-1.248-2.235-1.409-2.936-.13-.573-.12-.412-.12-1.102" style="fill:#216b8b;fill-opacity:1;stroke-width:.0375875"/>
  <path d="M9.521 5.692c.072.589.122.746.164 1.01.208 1.32.655 3.234 1.024 4.33.27.804.832 1.752 1.19 2.248.235.325.919.767.959.728.008-.009-.696-.579-.926-.96-.303-.5-.892-2.048-.892-2.048s1.168 1.823 1.487 2.247c.105.14.574.441.43.298-.542-.542-1.194-1.703-1.62-2.644-.516-1.143-1.01-2.601-1.48-4.21-.078-.269-.298-.999-.336-.999Zm.924-1.204c0 .612.576 1.733.94 2.345.309.52 1.241 1.324 1.241 1.324s-.793-1.113-.991-1.421c-.086-.133-.199-.333-.199-.43 0-.043 1.514 1.815 1.993 2.591.394.638.74 1.927.883 2.07.013.013-.032-.436-.105-.639-.149-.413-.161-.738-.787-1.84-1.089-1.916-1.917-2.308-2.413-2.975-.233-.313-.296-.519-.562-1.025Zm.884.024c.496.968 1.321 1.207 1.777 1.698.356.385.695.8.956 1.25.26.45.606 1.461.606 1.447 0-.049-.157-.826-.346-1.195a8.185 8.185 0 0 0-1.056-1.54c-.342-.376-.881-.66-1.204-.936-.261-.223-.781-.772-.733-.724Zm.483-.149c.235.132.553.598.812.702.382.155.81.518.957.624.257.186.452.393.657.68.105.148.341.865.341.865s-.182-.82-.279-1.053c-.265-.638-.967-.856-1.646-1.196-.236-.118-.308-.208-.47-.371-.086-.085-.243-.266-.372-.25Zm.56-.14c.035 0 .065.064.1.091.153.118.554.396.815.614.285.239.896.816.896.816s-.154-.2-.244-.29c-.162-.158-.468-.458-.724-.66-.261-.205-.849-.57-.842-.57Zm.272-.201c.035.034.173.209.272.301.223.21 1.068.96 1.068.96s-.379-.474-.543-.634c-.132-.128-.311-.221-.444-.326a7.654 7.654 0 0 1-.353-.301Zm.142-.178c.299.15.489.305.68.457.17.134.456.462.466.452.012-.012-.223-.536-.299-.696-.043-.091-.053-.16-.155-.262a1.466 1.466 0 0 0-.302-.21c-.062-.027-.202-.01-.202-.01s.155.147.234.217c.084.073.289.23.27.225-.107-.031-.217-.086-.33-.114-.115-.029-.362-.1-.362-.06zM8.956 6.05c0 .379-.08.879-.086 1.32-.007.561-.024 1.41.043 2.052.065.607.244 1.328.363 1.797.088.348.35 1.018.35 1.018s-.17-.626-.233-.944c-.097-.494-.294-1.339-.35-2.02-.073-.873-.087-2.702-.087-3.223Z" style="fill:#216b8b;fill-opacity:1;stroke-width:.0375875"/>
  <path d="M8.697 6.224c-.116.08-.298 2.31-.238 3.396.057 1.057.256 2.295.594 3.12.294.718.96 1.465 1.435 1.833.384.297 1.566.406 1.41.37-.505-.119-1.153-.292-1.544-.789-.393-.5-.915-1.205-1.153-1.909-.29-.86-.507-2.248-.591-3.252-.077-.92.087-2.831.087-2.769Zm-3.594 6.39c0 .06-.291 1.07-.102 2.083.127.68.641 1.47 1.111 1.945.454.459 1.224.808 1.71.907.805.163 1.855-.013 2.108-.118.02-.009-1.05.117-1.557.01-.556-.115-.879-.078-1.78-.708-.648-.452-1.066-.985-1.354-1.906-.239-.76-.181-1.264-.136-2.214Z" style="fill:#216b8b;fill-opacity:1;stroke-width:.0375875"/>
  <path d="M4.824 14.64c.145.939.697 1.859 1.335 2.457 1.07 1 2.776.81 2.776.81s-2.062.5-3.203-.972c-.504-.65-.887-1.286-.908-2.295Zm3.461-7.702c0 .174-.332 2.025-.306 2.911.023.818.15 1.653.458 2.411.313.771.884 1.702 1.417 2.217.477.46 1.8.862 1.785.877-.015.015-1.5-.383-2.035-.895-.583-.557-1.168-1.579-1.46-2.444-.293-.864-.32-1.898-.296-2.745.022-.79.437-2.252.437-2.332Z" style="fill:#216b8b;fill-opacity:1;stroke-width:.0375875"/>
  <path d="M11.527 15.664c-.554.113-1.893-.286-2.263-.482-1.478-.781-1.9-2.281-2.04-3.126-.133-.791-.186-1.857.066-3.755.025-.187.05.577.002.968-.02.165-.016.863.006 1.38.033.76.362 2.241.775 2.997.368.67 1.132 1.198 1.707 1.535.522.305 1.309.39 1.747.483z" style="fill:#216b8b;fill-opacity:1;stroke-width:.0375875"/>
</svg>
