<svg width="74" height="74" viewBox="0 0 74 74" fill="none" xmlns="http://www.w3.org/2000/svg">
<rect width="74" height="74" fill="white"/>
<g filter="url(#filter0_i_1228_7681)">
<path d="M30.1119 43.6527C31.1455 43.021 32.8809 42.6892 34.8907 42.6318C37.0382 42.5683 39.1836 42.8132 41.2615 43.3592C43.5297 43.9876 47.5876 45.4711 51.0138 47.1746C52.7237 48.0264 54.2773 48.9324 55.3716 49.8256C55.9171 50.2722 56.3541 50.7125 56.6349 51.1559C56.9188 51.5993 57.0496 52.0587 56.9475 52.4958C56.8646 52.8563 56.5679 53.1338 56.1563 53.3571C55.748 53.5868 55.2025 53.7718 54.5517 53.9282C53.2501 54.2376 51.5147 54.4163 49.6037 54.445C45.7756 54.5088 41.2455 53.9792 38.0937 52.6712C34.9673 51.376 32.5651 49.8288 31.0434 48.3581C30.281 47.6244 29.7354 46.9098 29.4387 46.2431C29.1484 45.6018 29.0974 44.9925 29.3207 44.4789C29.4579 44.1631 29.8088 43.8728 30.1119 43.6527ZM19.0803 53.019C20.2766 52.4033 22.2577 52.2023 24.5195 52.3395C26.8483 52.4798 29.4324 52.9743 31.6017 53.7814C34.0677 54.7066 38.451 56.7515 42.0973 58.9814C43.9253 60.0979 45.565 61.2591 46.6975 62.3598C47.2622 62.9085 47.7024 63.4412 47.9736 63.958C48.2416 64.478 48.3404 64.9948 48.1873 65.467C48.0597 65.8498 47.7088 66.121 47.2335 66.3347C46.7549 66.5484 46.1329 66.7016 45.3927 66.8132C43.9125 67.0301 41.9601 67.0557 39.8227 66.9025C35.5479 66.5931 30.5425 65.5627 27.1578 63.7953C23.7954 62.0407 21.2656 60.082 19.7088 58.2987C18.9304 57.4054 18.3944 56.56 18.1264 55.7912C17.8585 55.0288 17.8585 54.3301 18.1807 53.7814C18.4678 53.3667 18.5635 53.271 19.0803 53.019ZM16.391 51.4143C15.7745 51.4813 15.1545 51.3226 14.646 50.9677C13.9601 50.5243 13.2519 49.816 12.55 48.8654C11.1528 46.9704 9.79056 44.112 8.79842 40.5072C7.78395 36.8225 7.82542 31.7087 8.42517 27.4626C8.72505 25.3411 9.1621 23.4366 9.68847 22.0329C9.95007 21.3311 10.2308 20.7569 10.5402 20.3358C10.8497 19.9115 11.191 19.6276 11.593 19.5861C12.0843 19.5351 12.5692 19.7424 13.019 20.1125C13.4688 20.4857 13.8995 21.028 14.3206 21.698C15.1596 23.0315 15.9476 24.8786 16.659 26.8979C18.0786 30.9335 19.1664 35.6485 19.5493 38.2549C19.9002 40.6603 19.8108 43.4325 19.4025 45.8156C19.0069 48.1125 18.3274 49.9915 17.3768 50.8879C17.0981 51.1441 16.7589 51.3252 16.391 51.4143ZM27.7894 42.5042C27.2432 42.5073 26.7133 42.3175 26.2933 41.9683C25.719 41.5089 25.1544 40.8134 24.6184 39.9106C23.5401 38.105 22.5767 35.4667 22.0089 32.2032C21.4187 28.8407 21.8972 24.3012 22.7936 20.5814C23.2403 18.7184 23.7954 17.0659 24.3823 15.86C24.6758 15.257 24.9789 14.769 25.2884 14.418C25.601 14.0671 25.936 13.8374 26.3028 13.8342C26.7526 13.831 27.1705 14.0575 27.5406 14.4308C27.9139 14.804 28.2488 15.324 28.5615 15.9557C29.1963 17.2158 29.7418 18.9289 30.198 20.7856C31.1104 24.4958 31.6719 28.7801 31.7931 31.1281C31.8749 33.3985 31.6114 35.6681 31.0115 37.8593C30.4628 39.8628 29.7003 41.4642 28.7656 42.1788C28.4798 42.3819 28.1399 42.4952 27.7894 42.5042ZM39.475 33.3197C38.9766 33.3167 38.4944 33.142 38.1096 32.8253C37.4936 32.2855 36.9756 31.6433 36.5783 30.9271C35.5894 29.2682 34.7153 26.8533 34.1953 23.8673C33.653 20.7792 34.09 16.6161 34.9131 13.2026C35.3246 11.4959 35.8286 9.97733 36.371 8.87035C36.6389 8.31845 36.9133 7.86864 37.2036 7.54324C37.4907 7.22104 37.8002 7.0073 38.1447 7.00092C38.5881 6.98178 39.0188 7.2657 39.2932 7.556C39.6377 7.90054 39.9471 8.37907 40.2374 8.95967C40.8212 10.1209 41.3221 11.6936 41.7432 13.4004C42.5854 16.8107 43.1022 20.7409 43.2107 22.8975C43.3128 24.9105 43.0193 27.1978 42.4929 29.1247C41.992 30.9686 41.2966 32.4329 40.4257 33.0805C40.1357 33.2434 39.8075 33.326 39.475 33.3197ZM45.0833 29.7149C44.8472 29.2491 44.8121 28.6621 44.9748 27.9475C45.1503 27.1755 45.5108 26.2886 45.9989 25.3571C47.0525 23.3665 48.423 21.5607 50.0568 20.0104C51.6455 18.5461 54.7622 16.1024 57.745 14.2553C59.2348 13.3334 60.6927 12.5646 61.9178 12.1403C62.5303 11.9297 63.0854 11.8053 63.5703 11.7989C64.0552 11.7925 64.4795 11.9106 64.7793 12.2073C65.0218 12.4497 65.092 12.8198 65.0696 13.2536C65.027 13.7764 64.9154 14.2913 64.7379 14.7849C64.3455 15.9493 63.6468 17.3881 62.744 18.8938C60.9384 21.9053 58.3352 25.1816 55.7863 27.0096C53.5117 28.6366 51.3647 29.7149 49.5878 30.2636C47.9034 30.7836 46.5795 30.8155 45.7277 30.3529C45.4664 30.193 45.2458 29.9746 45.0833 29.7149ZM41.5614 34.2895C42.5184 33.7121 44.1103 33.4154 45.9542 33.3676C47.9299 33.316 49.903 33.5448 51.8145 34.0471C53.8945 34.6213 57.6174 35.9771 60.7565 37.5339C62.3261 38.3123 63.7489 39.1418 64.7538 39.9585C65.2579 40.3668 65.6566 40.7719 65.9182 41.1803C66.1766 41.5886 66.301 42.0129 66.2053 42.4244C66.1288 42.7562 65.8544 43.0114 65.4716 43.222C65.0046 43.4617 64.5079 43.6387 63.9946 43.7484C62.7982 44.0355 61.2064 44.195 59.4486 44.2269C55.9394 44.2811 51.7794 43.7962 48.8796 42.5967C46.0116 41.4068 43.8008 39.9872 42.394 38.6377C41.6922 37.9614 41.1881 37.3042 40.9074 36.6917C40.6394 36.1079 40.6139 35.5592 40.8117 35.0871C40.9897 34.7619 41.2478 34.4874 41.5614 34.2895Z" fill="#2F99C6"/>
<path d="M37.8863 11.6586C38.0809 18.0421 39.1368 26.5247 40.1992 32.8827C40.2374 33.106 40.2694 33.3389 40.3013 33.5335L43.2904 31.1951C46.7103 28.5154 49.5208 26.3141 50.1301 25.8867C53.2086 23.3537 56.5105 19.9625 58.4915 17.8538C57.0368 20.5559 53.0491 24.6999 50.5863 26.5981C49.91 27.1021 47.1729 29.2778 43.8934 31.8682C42.981 32.6307 42.0239 33.3357 41.0924 34.0694C48.1203 36.8895 54.9313 39.649 61.4297 40.9506C53.2182 40.7656 47.9927 37.3393 40.8212 35.0456L40.1354 34.8159C36.4412 37.3074 31.3816 41.78 29.5121 43.3815C38.7604 47.0821 40.834 48.3645 51.7635 50.9007C42.8183 50.6997 37.1621 46.9385 29.3494 44.4342L28.3732 44.1248C23.135 48.2816 21.0072 49.9787 17.9319 52.4256L18.8315 52.885C27.1004 56.0592 34.9067 61.0071 42.6141 63.2211C33.0628 62.0407 25.0842 56.7227 18.0276 53.6825L16.895 53.2327L10.5658 58.2636L9.64062 57.6479L16.3655 52.349C16.2889 51.8897 16.2251 51.5515 16.1486 51.1304C14.4641 42.0097 11.9854 34.8861 12.0237 24.8626C12.5022 31.1313 15.1883 43.4006 17.1407 50.6933L17.3576 51.4845C21.0678 48.725 24.947 45.5923 27.6618 43.4517C27.6299 42.9732 27.5917 42.5552 27.5534 42.1214C26.8164 33.9865 25.1703 27.7114 26.1338 18.8651C26.7303 26.8022 27.1833 34.9084 28.6731 42.7116C32.8331 39.6777 37.3472 35.8208 39.3251 34.2704C39.3027 33.9067 39.2868 33.5494 39.2613 33.2017C38.8146 25.3571 37.3057 17.857 37.8895 11.6586H37.8863Z" fill="#0D314A"/>
</g>
<defs>
<filter id="filter0_i_1228_7681" x="8" y="7" width="58.2375" height="64" filterUnits="userSpaceOnUse" color-interpolation-filters="sRGB">
<feFlood flood-opacity="0" result="BackgroundImageFix"/>
<feBlend mode="normal" in="SourceGraphic" in2="BackgroundImageFix" result="shape"/>
<feColorMatrix in="SourceAlpha" type="matrix" values="0 0 0 0 0 0 0 0 0 0 0 0 0 0 0 0 0 0 127 0" result="hardAlpha"/>
<feOffset dy="4"/>
<feGaussianBlur stdDeviation="7"/>
<feComposite in2="hardAlpha" operator="arithmetic" k2="-1" k3="1"/>
<feColorMatrix type="matrix" values="0 0 0 0 0 0 0 0 0 0 0 0 0 0 0 0 0 0 0.15 0"/>
<feBlend mode="normal" in2="shape" result="effect1_innerShadow_1228_7681"/>
</filter>
</defs>
</svg>
