<svg width="74" height="74" viewBox="0 0 74 74" fill="none" xmlns="http://www.w3.org/2000/svg">
<rect width="74" height="74" fill="white"/>
<g filter="url(#filter0_i_1228_7591)">
<path d="M56.1833 39.9597C61.0535 42.4449 65.1857 44.4908 67.0002 46.2758C64.7402 47.6214 61.2231 48.0504 54.9104 49.4173C53.8312 46.3005 52.4801 46.4721 51.4009 44.8622C54.8253 43.437 55.4651 41.7385 56.1833 39.9604V39.9597Z" fill="#2F99C6" stroke="#0D314A" stroke-width="1.1921" stroke-linecap="round" stroke-linejoin="round"/>
<path d="M56.1075 39.6926C54.904 31.1797 52.795 25.4162 49.7811 22.4024C45.7045 18.3258 43.0394 16.5037 37.9728 14.6707C32.6742 12.7532 26.6808 11.8943 19.6905 15.3895C14.4839 17.9914 10.2542 22.7765 7 29.7393" stroke="#0D314A" stroke-linecap="round" stroke-linejoin="round"/>
<path d="M66.7748 46.273C65.0173 46.6643 59.6143 45.927 52.1978 44.9686L66.7748 46.273Z" fill="#2F99C6"/>
<path d="M66.7749 46.273C65.0173 46.6643 59.6143 45.927 52.1978 44.9686" stroke="#0D314A" stroke-linecap="round" stroke-linejoin="round"/>
<path d="M55.0296 49.4448C54.1831 55.7581 52.7187 60.6524 50.6357 61.9534" stroke="#0D314A" stroke-linecap="round" stroke-linejoin="round"/>
<path d="M38.678 43.6012C40.4841 43.6012 41.9483 42.2026 41.9483 40.4773C41.9483 38.752 40.4841 37.3535 38.678 37.3535C36.8719 37.3535 35.4077 38.752 35.4077 40.4773C35.4077 42.2026 36.8719 43.6012 38.678 43.6012Z" stroke="#0D314A" stroke-width="0.998994" stroke-linecap="round" stroke-linejoin="round"/>
</g>
<defs>
<filter id="filter0_i_1228_7591" x="6.5" y="12.5" width="61.0962" height="53.9534" filterUnits="userSpaceOnUse" color-interpolation-filters="sRGB">
<feFlood flood-opacity="0" result="BackgroundImageFix"/>
<feBlend mode="normal" in="SourceGraphic" in2="BackgroundImageFix" result="shape"/>
<feColorMatrix in="SourceAlpha" type="matrix" values="0 0 0 0 0 0 0 0 0 0 0 0 0 0 0 0 0 0 127 0" result="hardAlpha"/>
<feOffset dy="4"/>
<feGaussianBlur stdDeviation="7"/>
<feComposite in2="hardAlpha" operator="arithmetic" k2="-1" k3="1"/>
<feColorMatrix type="matrix" values="0 0 0 0 0 0 0 0 0 0 0 0 0 0 0 0 0 0 0.15 0"/>
<feBlend mode="normal" in2="shape" result="effect1_innerShadow_1228_7591"/>
</filter>
</defs>
</svg>
