<svg width="74" height="74" viewBox="0 0 74 74" fill="none" xmlns="http://www.w3.org/2000/svg">
<rect width="74" height="74" fill="white"/>
<g filter="url(#filter0_i_1228_7615)">
<path fill-rule="evenodd" clip-rule="evenodd" d="M66.8639 14.1561C66.6171 14.7454 66.1579 15.1382 66.7047 16.5821C67.3311 18.2384 66.8639 21.2801 66.2057 22.44C65.5872 23.5283 64.5494 25.6464 64.5494 25.6464C64.1433 24.728 63.225 24.0087 63.071 22.6524C62.9277 21.3863 61.9111 21.9092 62.0279 23.0187C62.2562 25.1421 62.3172 25.4075 62.1686 26.3152C62.1686 26.3152 61.0644 25.4048 61.3723 27.4061C61.6351 29.0995 59.4878 32.6244 59.4878 32.6244C59.4878 32.6244 59.0498 29.6649 58.4048 29.1208C57.951 28.7386 57.9112 26.0365 56.6265 27.5893C55.655 28.7651 55.9364 28.7917 56.3929 30.4028C56.7698 31.7299 55.6922 34.7823 55.1879 35.3981C55.1879 35.3981 55.241 33.994 54.2456 34.8778C52.9928 35.9926 53.6484 36.6031 53.0671 37.1977C51.7666 38.5354 51.0738 40.1757 51.0738 40.1757C51.0738 40.1757 50.5403 38.7159 50.7659 36.9561C50.9092 35.852 49.0964 36.7597 50.9305 33.2561C52.7619 29.7525 50.2483 31.2813 49.9086 32.274C49.5635 33.2641 49.9484 34.0842 48.961 34.7876C48.3718 35.2123 49.0858 36.5394 47.5755 37.3171C45.8237 38.2195 42.3148 41.1498 42.3148 41.1498C42.5085 40.765 42.7872 37.763 42.3413 37.4153C41.6831 36.9004 43.8542 35.1486 42.474 34.907C40.8072 34.6151 40.8178 38.1187 41.1575 39.1193C41.1575 39.1193 39.9658 37.6303 40.417 39.8519C40.6028 40.7756 40.4966 41.0649 40.4966 41.0649C40.4966 41.0649 39.9127 39.1406 39.7853 40.6296C39.6605 42.1213 37.6088 44.5075 37.6088 44.5075C37.6088 44.5075 36.5869 43.2971 36.2153 42.1797C35.8437 41.0622 34.2644 39.4166 34.4502 40.2846C34.636 41.1551 33.7654 40.8738 33.9831 41.9912C34.1981 43.106 31.4854 46.3654 31.4854 46.3654C31.4854 46.3654 31.3501 42.4796 29.6461 43.4537C28.7622 43.958 28.4888 45.3701 28.4888 45.3701C27.7058 44.956 27.2413 45.386 27.0024 46.4265C25.7417 45.9222 26.3893 46.5114 25.4975 48.2526C24.9401 47.8359 24.0535 47.7908 23.5519 48.6242C22.2009 48.1013 21.9063 48.9215 22.0071 50.8458C20.5606 50.6122 19.7669 50.8352 19.7032 51.8571C18.4027 52.1836 16.6508 53.2187 16.9083 54.7051C15.9077 54.591 16.0059 54.6573 15.7537 55.1696C14.4903 54.6255 12.9667 56.1172 13.1127 57.1337C13.1127 57.1337 9.13136 57.9194 8.65359 58.7104C8.2183 59.4217 11.0079 53.7602 10.7027 53.7628C12.274 52.5578 12.4624 51.5863 12.1625 50.6919C13.6887 51.029 14.7478 50.2619 14.8035 47.1272C16.7305 46.9733 17.7285 46.1849 17.256 44.3986C18.3469 44.8605 19.3369 45.1073 19.8014 44.2765C20.7941 44.1544 21.0702 43.6714 20.6083 42.8167C22.8644 42.2752 22.5778 40.826 21.187 39.7112C21.9779 38.9468 23.8545 39.5652 24.181 38.0125C25.739 39.6316 27.8093 38.4611 27.098 37.3012C26.5167 36.3536 25.4523 34.9814 25.4523 34.9814C27.1351 34.7186 30.4158 37.4817 29.0462 34.8407C30.3627 35.3078 31.6474 35.7325 31.4456 34.0444C33.1974 35.0053 33.1762 34.5434 31.9606 32.8447C31.5757 32.3112 29.7973 30.8938 29.6115 31.0663C29.6115 31.0663 33.0966 29.8029 33.9725 30.3762C36.0375 31.7352 36.2259 30.3895 36.2259 30.3895C36.9877 31.5786 40.7435 32.2581 38.6758 29.9887C37.5955 28.7996 37.8928 27.9874 37.0886 27.1195C36.2817 26.2489 35.5491 25.3942 35.5491 25.3942C35.5491 25.3942 38.5086 25.3358 40.0534 26.0233C40.9797 26.4373 41.7415 25.5455 41.7415 25.5455C43.6631 27.4619 48.332 28.3218 45.9723 26.4241C44.4939 25.2403 41.4176 23.9556 41.4176 23.9556C41.4176 23.9556 46.1688 21.2934 48.3107 22.5887C49.5582 23.3451 50.3386 23.5893 51.7055 23.8096C53.0698 24.0273 54.8641 22.6444 53.4361 22.5515C52.0081 22.456 52.5044 22.7585 50.8907 22.2595C49.2769 21.7632 48.9531 21.0917 48.3346 21.3996C47.7135 21.7101 51.8595 18.3498 55.2224 19.2656C56.7512 19.6796 59.9709 19.8574 58.4818 19.1116C56.9928 18.3684 55.4374 17.6518 55.4374 17.6518C58.2137 17.6438 60.8653 13.2537 63.8142 14.111C65.1679 14.5065 65.6164 14.5038 66.8639 14.1561Z" fill="#2F99C6"/>
<path fill-rule="evenodd" clip-rule="evenodd" d="M63.5222 16.9298C63.5222 16.9298 56.2629 25.9675 33.5664 36.2793C25.378 40.0005 7 59.6765 7 59.6765L7.91306 60.0083C7.91306 60.0083 25.4975 41.4179 33.9619 37.1764C59.8435 24.2078 63.5222 16.9325 63.5222 16.9325V16.9298Z" fill="#0D314A"/>
</g>
<defs>
<filter id="filter0_i_1228_7615" x="7" y="14" width="60" height="50.0083" filterUnits="userSpaceOnUse" color-interpolation-filters="sRGB">
<feFlood flood-opacity="0" result="BackgroundImageFix"/>
<feBlend mode="normal" in="SourceGraphic" in2="BackgroundImageFix" result="shape"/>
<feColorMatrix in="SourceAlpha" type="matrix" values="0 0 0 0 0 0 0 0 0 0 0 0 0 0 0 0 0 0 127 0" result="hardAlpha"/>
<feOffset dy="4"/>
<feGaussianBlur stdDeviation="7"/>
<feComposite in2="hardAlpha" operator="arithmetic" k2="-1" k3="1"/>
<feColorMatrix type="matrix" values="0 0 0 0 0 0 0 0 0 0 0 0 0 0 0 0 0 0 0.15 0"/>
<feBlend mode="normal" in2="shape" result="effect1_innerShadow_1228_7615"/>
</filter>
</defs>
</svg>
