<svg width="24" height="24" viewBox="0 0 24 24" fill="none" xmlns="http://www.w3.org/2000/svg">
<path fill-rule="evenodd" clip-rule="evenodd" d="M5.83619 0.295145C6.00014 0.261722 6.17056 0.284084 6.32034 0.358674C8.14761 1.26865 8.30392 3.58768 7.04228 6.52083C7.03368 6.54369 7.02399 6.56604 7.01327 6.58781C6.94092 6.75373 6.86406 6.92159 6.78274 7.09123L6.65121 7.35944C6.09514 8.42727 5.84376 9.62357 5.91258 10.7847C6.10653 10.7568 6.30226 10.7427 6.49816 10.7429L6.734 10.75H8.978C10.7876 10.75 12.583 9.59517 12.709 8.61603L12.716 8.50803V6.26503C12.716 4.37462 13.4062 3.08045 14.5645 2.35653C15.2644 1.91912 15.956 1.77503 16.458 1.77503C16.745 1.77503 17.0033 1.93825 17.1289 2.18961L17.1695 2.28786L17.758 4.05303L17.9641 4.08267C18.2458 4.12804 18.5514 4.20048 18.8647 4.30882L19.1009 4.39693C19.8864 4.71199 20.5084 5.21094 20.8692 5.93434C21.047 6.29094 21.3824 6.55999 21.8535 6.74893C22.1436 6.86527 22.4633 6.9422 22.7845 6.98514L22.99 7.00814L23.19 7.01903C23.5342 7.01903 23.8341 7.25325 23.9176 7.58713C23.9313 7.64178 23.9478 7.72417 23.963 7.83088C24.0629 8.52998 23.9922 9.30712 23.6166 10.0584C23.0738 11.144 21.9951 11.9145 20.3451 12.2445C18.9841 12.5167 18.1539 13.8487 17.9872 15.4078C17.9867 15.4495 17.9828 15.4916 17.9752 15.5335C17.9681 15.6184 17.963 15.7039 17.9598 15.7899L17.956 15.997V22.72C17.956 23.1342 17.6202 23.47 17.206 23.47C16.8263 23.47 16.5125 23.1879 16.4629 22.8218L16.456 22.72V17.7039C15.4895 18.5288 14.247 19.0015 12.9471 18.9901L12.717 18.983H7.2979C6.8436 19.5542 6.25911 19.9662 5.57329 20.2254C4.96514 20.4552 4.34302 20.5459 3.75 20.5426V22.72C3.75 23.1342 3.41422 23.47 3 23.47C2.62031 23.47 2.30651 23.1879 2.25685 22.8218L2.25 22.72L2.25055 19.762C2.24963 19.7406 2.24962 19.719 2.25057 19.6974L2.25138 15.2865C2.21541 14.6939 2.30322 14.1077 2.50179 13.5621L2.45527 13.5156C0.985203 11.9622 0.115633 9.93654 0.00185578 7.79675C-0.0874124 5.92468 0.540669 4.16425 1.661 2.8049C1.66612 2.7985 1.67134 2.79219 1.67667 2.78596C2.70807 1.54303 4.15241 0.638399 5.83619 0.295145ZM2.01013 5.05341C1.67135 5.79939 1.48734 6.62482 1.49345 7.48415L1.49995 7.7212C1.58839 9.38445 2.22695 10.9676 3.29813 12.2124C3.3612 12.14 3.42688 12.0696 3.49514 12.0012C3.78236 11.7135 4.10591 11.4711 4.45313 11.2783C4.29309 9.80488 4.54057 8.31612 5.16497 6.98166L5.1711 6.96926C3.7208 6.79726 2.69526 6.15379 2.07847 5.16674C2.05484 5.12893 2.03207 5.09115 2.01013 5.05341ZM5.83668 5.51457C4.54982 5.48702 3.78049 5.0599 3.35053 4.37185C3.16232 4.07066 3.06274 3.76528 3.02111 3.52562C3.72286 2.76103 4.63226 2.18054 5.67648 1.87804L5.852 1.83103L5.91406 1.8826C6.51788 2.44387 6.53941 3.71763 5.83668 5.51457ZM5.45468 12.469C5.43998 12.4722 5.42527 12.4751 5.41059 12.4775C5.09545 12.6154 4.80521 12.812 4.55679 13.0609C4.37822 13.2398 4.22669 13.4403 4.10462 13.6575C4.08315 13.7164 4.05406 13.7731 4.01734 13.8262C3.84282 14.194 3.74843 14.6031 3.74472 15.0325L3.75 15.241V19.0417C4.17741 19.0439 4.62532 18.9801 5.04304 18.8222C5.51963 18.6421 5.91382 18.3553 6.21292 17.9319C6.24471 17.8594 6.28762 17.793 6.33948 17.7347C6.52246 17.4207 6.66112 17.0422 6.75157 16.5899C6.82603 16.2176 7.16425 15.9653 7.53295 15.9883L7.63409 16.0016C8.04026 16.0828 8.30367 16.4779 8.22244 16.8841C8.18066 17.093 8.13004 17.2927 8.07098 17.4832L12.7562 17.4841C14.3539 17.5676 15.8355 16.6652 16.498 15.2177C16.7216 13.1651 17.8367 11.3363 19.8237 10.8255L20.0509 10.7736C21.2632 10.5311 21.9476 10.0423 22.2749 9.38758C22.4123 9.11294 22.4809 8.82158 22.4983 8.53843L22.5 8.46503L22.4319 8.45539C22.1502 8.41002 21.8447 8.33758 21.5313 8.22924L21.2951 8.14113C20.5096 7.82607 19.8876 7.32712 19.5268 6.60372C19.349 6.24712 19.0136 5.97807 18.5425 5.78913C18.2524 5.67279 17.9327 5.59586 17.6115 5.55292L17.406 5.52992C17.3164 5.522 17.2478 5.51903 17.206 5.51903C16.9191 5.51903 16.6607 5.35581 16.5352 5.10445L16.4945 5.0062L15.946 3.36103L15.8277 3.40074C15.7274 3.43701 15.6231 3.48219 15.5178 3.53759L15.3595 3.62853C14.6896 4.04719 14.2678 4.78895 14.2205 6.02703L14.216 6.26503V8.50803C14.216 10.4379 11.7335 12.1495 9.20149 12.2458L8.978 12.25L6.68996 12.2487C6.34776 12.2286 6.0089 12.272 5.68906 12.3729C5.61886 12.4169 5.54012 12.4498 5.45468 12.469ZM18.328 7.01003C18.9493 7.01003 19.453 7.51371 19.453 8.13503C19.453 8.17443 19.45 8.21312 19.4441 8.25087C19.3867 8.81261 18.9159 9.25196 18.3409 9.25992C18.3366 9.25999 18.3323 9.26003 18.328 9.26003C18.3227 9.26003 18.3173 9.25999 18.312 9.25992" fill="black"/>
<mask id="mask0_1038_6773" style="mask-type:luminance" maskUnits="userSpaceOnUse" x="-1" y="0" width="26" height="24">
<path fill-rule="evenodd" clip-rule="evenodd" d="M5.83619 0.295145C6.00014 0.261722 6.17056 0.284084 6.32034 0.358674C8.14761 1.26865 8.30392 3.58768 7.04228 6.52083C7.03368 6.54369 7.02399 6.56604 7.01327 6.58781C6.94092 6.75373 6.86406 6.92159 6.78274 7.09123L6.65121 7.35944C6.09514 8.42727 5.84376 9.62357 5.91258 10.7847C6.10653 10.7568 6.30226 10.7427 6.49816 10.7429L6.734 10.75H8.978C10.7876 10.75 12.583 9.59517 12.709 8.61603L12.716 8.50803V6.26503C12.716 4.37462 13.4062 3.08045 14.5645 2.35653C15.2644 1.91912 15.956 1.77503 16.458 1.77503C16.745 1.77503 17.0033 1.93825 17.1289 2.18961L17.1695 2.28786L17.758 4.05303L17.9641 4.08267C18.2458 4.12804 18.5514 4.20048 18.8647 4.30882L19.1009 4.39693C19.8864 4.71199 20.5084 5.21094 20.8692 5.93434C21.047 6.29094 21.3824 6.55999 21.8535 6.74893C22.1436 6.86527 22.4633 6.9422 22.7845 6.98514L22.99 7.00814L23.19 7.01903C23.5342 7.01903 23.8341 7.25325 23.9176 7.58713C23.9313 7.64178 23.9478 7.72417 23.963 7.83088C24.0629 8.52998 23.9922 9.30712 23.6166 10.0584C23.0738 11.144 21.9951 11.9145 20.3451 12.2445C18.9841 12.5167 18.1539 13.8487 17.9872 15.4078C17.9867 15.4495 17.9828 15.4916 17.9752 15.5335C17.9681 15.6184 17.963 15.7039 17.9598 15.7899L17.956 15.997V22.72C17.956 23.1342 17.6202 23.47 17.206 23.47C16.8263 23.47 16.5125 23.1879 16.4629 22.8218L16.456 22.72V17.7039C15.4895 18.5288 14.247 19.0015 12.9471 18.9901L12.717 18.983H7.2979C6.8436 19.5542 6.25911 19.9662 5.57329 20.2254C4.96514 20.4552 4.34302 20.5459 3.75 20.5426V22.72C3.75 23.1342 3.41422 23.47 3 23.47C2.62031 23.47 2.30651 23.1879 2.25685 22.8218L2.25 22.72L2.25055 19.762C2.24963 19.7406 2.24962 19.719 2.25057 19.6974L2.25138 15.2865C2.21541 14.6939 2.30322 14.1077 2.50179 13.5621L2.45527 13.5156C0.985203 11.9622 0.115633 9.93654 0.00185578 7.79675C-0.0874124 5.92468 0.540669 4.16425 1.661 2.8049C1.66612 2.7985 1.67134 2.79219 1.67667 2.78596C2.70807 1.54303 4.15241 0.638399 5.83619 0.295145ZM2.01013 5.05341C1.67135 5.79939 1.48734 6.62482 1.49345 7.48415L1.49995 7.7212C1.58839 9.38445 2.22695 10.9676 3.29813 12.2124C3.3612 12.14 3.42688 12.0696 3.49514 12.0012C3.78236 11.7135 4.10591 11.4711 4.45313 11.2783C4.29309 9.80488 4.54057 8.31612 5.16497 6.98166L5.1711 6.96926C3.7208 6.79726 2.69526 6.15379 2.07847 5.16674C2.05484 5.12893 2.03207 5.09115 2.01013 5.05341ZM5.83668 5.51457C4.54982 5.48702 3.78049 5.0599 3.35053 4.37185C3.16232 4.07066 3.06274 3.76528 3.02111 3.52562C3.72286 2.76103 4.63226 2.18054 5.67648 1.87804L5.852 1.83103L5.91406 1.8826C6.51788 2.44387 6.53941 3.71763 5.83668 5.51457ZM5.45468 12.469C5.43998 12.4722 5.42527 12.4751 5.41059 12.4775C5.09545 12.6154 4.80521 12.812 4.55679 13.0609C4.37822 13.2398 4.22669 13.4403 4.10462 13.6575C4.08315 13.7164 4.05406 13.7731 4.01734 13.8262C3.84282 14.194 3.74843 14.6031 3.74472 15.0325L3.75 15.241V19.0417C4.17741 19.0439 4.62532 18.9801 5.04304 18.8222C5.51963 18.6421 5.91382 18.3553 6.21292 17.9319C6.24471 17.8594 6.28762 17.793 6.33948 17.7347C6.52246 17.4207 6.66112 17.0422 6.75157 16.5899C6.82603 16.2176 7.16425 15.9653 7.53295 15.9883L7.63409 16.0016C8.04026 16.0828 8.30367 16.4779 8.22244 16.8841C8.18066 17.093 8.13004 17.2927 8.07098 17.4832L12.7562 17.4841C14.3539 17.5676 15.8355 16.6652 16.498 15.2177C16.7216 13.1651 17.8367 11.3363 19.8237 10.8255L20.0509 10.7736C21.2632 10.5311 21.9476 10.0423 22.2749 9.38758C22.4123 9.11294 22.4809 8.82158 22.4983 8.53843L22.5 8.46503L22.4319 8.45539C22.1502 8.41002 21.8447 8.33758 21.5313 8.22924L21.2951 8.14113C20.5096 7.82607 19.8876 7.32712 19.5268 6.60372C19.349 6.24712 19.0136 5.97807 18.5425 5.78913C18.2524 5.67279 17.9327 5.59586 17.6115 5.55292L17.406 5.52992C17.3164 5.522 17.2478 5.51903 17.206 5.51903C16.9191 5.51903 16.6607 5.35581 16.5352 5.10445L16.4945 5.0062L15.946 3.36103L15.8277 3.40074C15.7274 3.43701 15.6231 3.48219 15.5178 3.53759L15.3595 3.62853C14.6896 4.04719 14.2678 4.78895 14.2205 6.02703L14.216 6.26503V8.50803C14.216 10.4379 11.7335 12.1495 9.20149 12.2458L8.978 12.25L6.68996 12.2487C6.34776 12.2286 6.0089 12.272 5.68906 12.3729C5.61886 12.4169 5.54012 12.4498 5.45468 12.469ZM18.328 7.01003C18.9493 7.01003 19.453 7.51371 19.453 8.13503C19.453 8.17443 19.45 8.21312 19.4441 8.25087C19.3867 8.81261 18.9159 9.25196 18.3409 9.25992C18.3366 9.25999 18.3323 9.26003 18.328 9.26003C18.3227 9.26003 18.3173 9.25999 18.312 9.25992" fill="white"/>
</mask>
<g mask="url(#mask0_1038_6773)">
<rect width="24" height="24" fill="black"/>
</g>
</svg>
