<svg width="74" height="74" viewBox="0 0 74 74" fill="none" xmlns="http://www.w3.org/2000/svg">
<rect width="74" height="74" fill="white"/>
<g filter="url(#filter0_i_1228_7611)">
<path d="M67 42.8494C66.3071 40.6232 64.7628 40.0114 62.7756 40.1364C62.7756 40.1042 62.7871 40.0752 62.7871 40.043C62.1561 37.1303 59.6175 36.268 57.2432 37.0099C56.406 33.5099 52.2396 32.6772 50.1995 33.9175C48.9051 31.2348 45.1681 30.5367 43.1093 32.6856C41.2502 30.2604 37.7006 30.5631 36.2639 32.8833C34.1859 30.8542 30.7644 31.7506 29.6736 33.9993C27.4493 32.2864 24.165 33.6677 23.3511 35.8353C21.2034 34.7521 18.4504 36.08 17.679 37.9282C15.3349 37.0054 12.712 38.6456 12.1466 40.6007C10.0357 39.589 7.50745 41.0708 7 42.9035" fill="#2F99C6"/>
</g>
<defs>
<filter id="filter0_i_1228_7611" x="7" y="31" width="60" height="15.9035" filterUnits="userSpaceOnUse" color-interpolation-filters="sRGB">
<feFlood flood-opacity="0" result="BackgroundImageFix"/>
<feBlend mode="normal" in="SourceGraphic" in2="BackgroundImageFix" result="shape"/>
<feColorMatrix in="SourceAlpha" type="matrix" values="0 0 0 0 0 0 0 0 0 0 0 0 0 0 0 0 0 0 127 0" result="hardAlpha"/>
<feOffset dy="4"/>
<feGaussianBlur stdDeviation="7"/>
<feComposite in2="hardAlpha" operator="arithmetic" k2="-1" k3="1"/>
<feColorMatrix type="matrix" values="0 0 0 0 0 0 0 0 0 0 0 0 0 0 0 0 0 0 0.15 0"/>
<feBlend mode="normal" in2="shape" result="effect1_innerShadow_1228_7611"/>
</filter>
</defs>
</svg>
